<svg width="589" height="205" viewBox="0 0 589 205" fill="none" xmlns="http://www.w3.org/2000/svg"><path d="M75.766 75.707c.287 0 .43.216.43.647 0 .43-.143.646-.43.646-1.293 0-3.376-.072-6.249-.216-2.729-.143-4.74-.215-6.033-.215-1.508 0-3.483.072-5.925.215-2.298.144-4.022.216-5.171.216-.287 0-.43-.216-.43-.646 0-.431.143-.647.43-.647 2.945 0 5.063-.251 6.356-.754 1.293-.575 1.94-1.508 1.94-2.8 0-1.006-.396-2.407-1.186-4.203L49.371 46.082h-25.64L16.406 63.75c-1.006 2.442-1.509 4.453-1.509 6.033 0 2.083.862 3.591 2.586 4.525 1.724.933 4.417 1.4 8.08 1.4.359 0 .539.216.539.647 0 .43-.18.646-.54.646-1.292 0-3.16-.072-5.601-.216-2.73-.143-5.1-.215-7.11-.215-1.796 0-3.915.072-6.357.215C4.34 76.928 2.58 77 1.215 77c-.359 0-.538-.216-.538-.646 0-.431.18-.647.538-.647 2.011 0 3.7-.359 5.064-1.077 1.436-.718 2.765-2.011 3.986-3.878 1.293-1.868 2.657-4.525 4.094-7.973L36.875 8.59c.143-.215.359-.323.646-.323.36 0 .575.108.646.323l24.994 53.65c1.652 3.664 3.124 6.465 4.417 8.404 1.293 1.867 2.55 3.196 3.77 3.986 1.294.718 2.766 1.077 4.418 1.077zM24.593 44.142h23.809l-12.605-27.04-11.204 27.04zM146.141 9.668c.215 0 .323.215.323.646 0 .431-.108.646-.323.646-3.089 0-5.279.755-6.572 2.263-1.221 1.508-1.831 4.094-1.831 7.757v57.205c0 .144-.18.251-.539.323-.359.072-.61.036-.754-.108L87.75 18.502l-1.831-2.047v49.34c0 3.664.61 6.25 1.831 7.758 1.221 1.436 3.34 2.154 6.356 2.154.216 0 .324.216.324.647 0 .43-.108.646-.324.646-1.723 0-3.052-.036-3.986-.108l-5.17-.108-5.28.108c-.933.072-2.334.108-4.201.108-.144 0-.216-.216-.216-.646 0-.431.072-.647.216-.647 3.088 0 5.207-.718 6.356-2.154 1.149-1.437 1.724-4.022 1.724-7.757V14.192c-2.514-2.154-5.1-3.232-7.757-3.232-.216 0-.323-.215-.323-.646 0-.43.107-.646.323-.646l3.878.107c.79.072 1.903.108 3.34.108 1.22 0 2.226-.036 3.016-.108.79-.071 1.4-.107 1.832-.107.503 0 .898.143 1.185.43.359.216.754.719 1.185 1.509a33.494 33.494 0 002.586 3.663l42.554 52.896V20.98c0-3.663-.575-6.249-1.724-7.757s-3.232-2.263-6.249-2.263c-.143 0-.215-.215-.215-.646 0-.43.072-.646.215-.646l4.094.107c2.155.144 3.879.216 5.171.216 1.221 0 2.981-.072 5.279-.216l4.202-.107zm72.138 66.04c.287 0 .431.215.431.646 0 .43-.144.646-.431.646-1.293 0-3.376-.072-6.249-.216-2.729-.143-4.74-.215-6.033-.215-1.508 0-3.483.072-5.925.215-2.298.144-4.022.216-5.171.216-.287 0-.431-.216-.431-.646 0-.431.144-.647.431-.647 2.945 0 5.063-.251 6.356-.754 1.293-.575 1.939-1.508 1.939-2.8 0-1.006-.395-2.407-1.185-4.203l-10.126-21.869h-25.641l-7.325 17.668c-1.006 2.442-1.509 4.453-1.509 6.033 0 2.083.862 3.591 2.586 4.525 1.724.933 4.417 1.4 8.08 1.4.359 0 .539.216.539.647 0 .43-.18.646-.539.646-1.293 0-3.16-.072-5.602-.216-2.729-.143-5.099-.215-7.11-.215-1.796 0-3.915.072-6.357.215-2.154.144-3.914.216-5.278.216-.36 0-.539-.216-.539-.646 0-.431.179-.647.539-.647 2.011 0 3.698-.359 5.063-1.077 1.436-.718 2.765-2.011 3.986-3.878 1.293-1.868 2.657-4.525 4.094-7.973L179.388 8.59c.143-.215.359-.323.646-.323.359 0 .575.108.647.323l24.993 53.65c1.652 3.664 3.125 6.465 4.417 8.404 1.293 1.867 2.55 3.196 3.771 3.986 1.293.718 2.765 1.077 4.417 1.077zm-51.173-31.566h23.809l-12.605-27.04-11.204 27.04zm61.11-21.439c0 2.873.683 5.35 2.047 7.434a20.461 20.461 0 004.956 5.279c2.011 1.364 4.776 3.088 8.295 5.17 3.735 2.227 6.608 4.095 8.619 5.603 2.083 1.436 3.842 3.303 5.279 5.602 1.508 2.298 2.262 5.063 2.262 8.295 0 3.376-.826 6.464-2.478 9.265-1.652 2.73-4.13 4.92-7.433 6.572-3.232 1.58-7.218 2.37-11.959 2.37-2.513 0-4.919-.288-7.218-.862-2.226-.503-4.704-1.436-7.433-2.801-.359-.216-.611-.467-.754-.754a11.787 11.787 0 01-.216-1.293l-1.616-14.005v-.108c0-.287.18-.43.539-.43.359-.073.575.035.646.322.719 4.956 2.622 9.265 5.71 12.928 3.088 3.663 7.326 5.494 12.713 5.494 3.806 0 7.002-1.04 9.588-3.124 2.657-2.082 3.986-5.35 3.986-9.803 0-3.232-.718-5.997-2.155-8.296-1.436-2.37-3.196-4.309-5.279-5.817-2.011-1.58-4.776-3.412-8.295-5.494-3.448-2.011-6.177-3.771-8.188-5.28-1.939-1.508-3.627-3.375-5.063-5.601-1.365-2.299-2.047-5.028-2.047-8.188 0-3.591.898-6.643 2.693-9.157 1.868-2.514 4.274-4.381 7.218-5.602 2.945-1.293 6.105-1.94 9.481-1.94 3.95 0 8.044.862 12.281 2.586 1.077.431 1.616 1.042 1.616 1.832l.97 11.42c0 .287-.216.43-.647.43-.359 0-.574-.143-.646-.43-.287-3.736-1.688-7.075-4.202-10.02-2.513-2.945-6.104-4.417-10.773-4.417-4.309 0-7.469 1.257-9.48 3.77-2.011 2.514-3.017 5.531-3.017 9.05zM279.642 11.5c-4.525 0-7.828 1.077-9.911 3.232-2.083 2.155-3.483 5.997-4.202 11.527 0 .144-.215.216-.646.216-.431 0-.646-.072-.646-.216.287-1.939.61-5.027.969-9.265.359-4.309.539-7.54.539-9.695 0-.36.215-.54.646-.54.431 0 .647.18.647.54 0 1.58 1.903 2.37 5.709 2.37 6.177.215 13.395.323 21.654.323 4.238 0 8.727-.072 13.467-.216l7.326-.107c2.585 0 4.488-.18 5.709-.539 1.221-.36 2.011-1.077 2.371-2.155.071-.287.287-.43.646-.43.359 0 .539.143.539.43-.216 2.011-.431 5.1-.647 9.265-.215 4.094-.323 7.434-.323 10.02 0 .143-.215.215-.646.215-.431 0-.647-.072-.647-.216 0-3.806-.395-6.75-1.185-8.834-.79-2.082-2.119-3.59-3.986-4.524-1.867-.934-4.489-1.4-7.864-1.4-3.735 0-6.356.143-7.865.43-1.508.216-2.549.79-3.124 1.724-.503.933-.754 2.585-.754 4.955v49.665c0 2.226.251 3.842.754 4.848.503 1.005 1.508 1.688 3.017 2.047 1.508.359 3.878.538 7.11.538.143 0 .215.216.215.647 0 .43-.072.646-.215.646-2.37 0-4.238-.036-5.602-.108l-8.296-.108-7.864.108c-1.436.072-3.411.108-5.925.108-.144 0-.216-.216-.216-.646 0-.431.072-.647.216-.647 3.232 0 5.602-.18 7.11-.538 1.508-.36 2.514-1.042 3.017-2.047.574-1.078.861-2.694.861-4.848v-49.88c0-2.37-.287-3.986-.861-4.848-.575-.934-1.616-1.508-3.125-1.724-1.436-.215-4.093-.323-7.972-.323zm110.482 64.208c.287 0 .431.216.431.647 0 .43-.144.646-.431.646-1.293 0-3.376-.072-6.249-.216-2.729-.143-4.74-.215-6.033-.215-1.508 0-3.483.072-5.925.215-2.298.144-4.022.216-5.171.216-.287 0-.431-.216-.431-.646 0-.431.144-.647.431-.647 2.944 0 5.063-.251 6.356-.754 1.293-.575 1.939-1.508 1.939-2.8 0-1.006-.395-2.407-1.185-4.203l-10.127-21.869h-25.64l-7.326 17.668c-1.005 2.442-1.508 4.453-1.508 6.033 0 2.083.862 3.591 2.586 4.525 1.723.933 4.417 1.4 8.08 1.4.359 0 .538.216.538.647 0 .43-.179.646-.538.646-1.293 0-3.161-.072-5.602-.216-2.73-.143-5.1-.215-7.111-.215-1.795 0-3.914.072-6.356.215-2.155.144-3.914.216-5.279.216-.359 0-.538-.216-.538-.646 0-.431.179-.647.538-.647 2.011 0 3.699-.359 5.064-1.077 1.436-.718 2.765-2.011 3.986-3.878 1.292-1.868 2.657-4.525 4.094-7.973l22.515-54.19c.144-.215.36-.323.647-.323.359 0 .574.108.646.323l24.994 53.65c1.652 3.664 3.124 6.465 4.417 8.404 1.293 1.867 2.55 3.196 3.771 3.986 1.292.718 2.765 1.077 4.417 1.077zm-51.173-31.565h23.809l-12.605-27.04-11.204 27.04zm61.11-21.439c0 2.873.682 5.35 2.047 7.434 1.365 2.082 3.016 3.842 4.956 5.279 2.011 1.364 4.776 3.088 8.295 5.17 3.735 2.227 6.607 4.095 8.618 5.603 2.083 1.436 3.843 3.303 5.279 5.602 1.509 2.298 2.263 5.063 2.263 8.295 0 3.376-.826 6.464-2.478 9.265-1.652 2.73-4.13 4.92-7.434 6.572-3.232 1.58-7.218 2.37-11.958 2.37-2.514 0-4.92-.288-7.218-.862-2.226-.503-4.704-1.436-7.433-2.801-.359-.216-.611-.467-.755-.754a12.09 12.09 0 01-.215-1.293l-1.616-14.005v-.108c0-.287.18-.43.539-.43.359-.073.574.035.646.322.718 4.956 2.622 9.265 5.71 12.928 3.088 3.663 7.326 5.494 12.712 5.494 3.807 0 7.003-1.04 9.588-3.124 2.658-2.082 3.986-5.35 3.986-9.803 0-3.232-.718-5.997-2.154-8.296-1.437-2.37-3.196-4.309-5.279-5.817-2.011-1.58-4.776-3.412-8.295-5.494-3.448-2.011-6.177-3.771-8.188-5.28-1.939-1.508-3.627-3.375-5.063-5.601-1.365-2.299-2.047-5.028-2.047-8.188 0-3.591.897-6.643 2.693-9.157 1.867-2.514 4.273-4.381 7.218-5.602 2.945-1.293 6.105-1.94 9.48-1.94 3.951 0 8.044.862 12.282 2.586 1.077.431 1.616 1.042 1.616 1.832l.969 11.42c0 .287-.215.43-.646.43-.359 0-.575-.143-.646-.43-.288-3.736-1.688-7.075-4.202-10.02-2.514-2.945-6.105-4.417-10.773-4.417-4.309 0-7.47 1.257-9.481 3.77-2.01 2.514-3.016 5.531-3.016 9.05zm52.719 45.57c0 2.227.215 3.843.646 4.849.503 1.005 1.401 1.688 2.693 2.047 1.293.359 3.376.538 6.249.538.143 0 .215.216.215.647 0 .43-.072.646-.215.646-2.155 0-3.843-.036-5.064-.108l-7.541-.108-7.218.108c-1.293.072-3.052.108-5.279.108-.215 0-.323-.216-.323-.646 0-.431.108-.647.323-.647 2.801 0 4.848-.18 6.141-.538 1.365-.36 2.298-1.042 2.801-2.047.503-1.078.754-2.694.754-4.848v-49.88c0-2.155-.251-3.735-.754-4.74-.503-1.006-1.436-1.688-2.801-2.047-1.293-.431-3.34-.646-6.141-.646-.215 0-.323-.216-.323-.647 0-.43.108-.646.323-.646l5.279.107c3.017.144 5.423.216 7.218.216 2.011 0 4.525-.072 7.541-.216l5.064-.107c.143 0 .215.215.215.646 0 .431-.072.646-.215.646-2.801 0-4.884.216-6.249.647-1.292.43-2.19 1.185-2.693 2.262-.431 1.006-.646 2.586-.646 4.74v49.665zm84.254 7.434c.288 0 .431.216.431.647 0 .43-.143.646-.431.646-1.292 0-3.375-.072-6.248-.216-2.729-.143-4.74-.215-6.033-.215-1.508 0-3.483.072-5.925.215-2.299.144-4.022.216-5.171.216-.288 0-.431-.216-.431-.646 0-.431.143-.647.431-.647 2.944 0 5.063-.251 6.356-.754 1.292-.575 1.939-1.508 1.939-2.8 0-1.006-.395-2.407-1.185-4.203L510.64 46.082H485l-7.326 17.668c-1.005 2.442-1.508 4.453-1.508 6.033 0 2.083.862 3.591 2.585 4.525 1.724.933 4.417 1.4 8.08 1.4.359 0 .539.216.539.647 0 .43-.18.646-.539.646-1.292 0-3.16-.072-5.602-.216-2.729-.143-5.099-.215-7.11-.215-1.796 0-3.914.072-6.356.215-2.155.144-3.914.216-5.279.216-.359 0-.539-.216-.539-.646 0-.431.18-.647.539-.647 2.011 0 3.699-.359 5.063-1.077 1.437-.718 2.765-2.011 3.986-3.878 1.293-1.868 2.658-4.525 4.094-7.973l22.516-54.19c.144-.215.359-.323.647-.323.359 0 .574.108.646.323l24.994 53.65c1.652 3.664 3.124 6.465 4.417 8.404 1.292 1.867 2.549 3.196 3.77 3.986 1.293.718 2.765 1.077 4.417 1.077zm-51.172-31.565h23.808l-12.604-27.04-11.204 27.04zM531.748 8.59c2.083 0 3.699.79 4.848 2.37 1.221 1.509 1.831 3.7 1.831 6.572 0 2.801-.646 5.387-1.939 7.757-1.221 2.37-3.052 4.74-5.494 7.11-.072.072-.18.108-.323.108-.216 0-.395-.108-.539-.323-.144-.216-.144-.395 0-.54 3.519-3.59 5.279-7.828 5.279-12.711 0-1.868-.359-3.34-1.078-4.417-.502 1.077-1.544 1.616-3.124 1.616-1.221 0-2.19-.324-2.909-.97-.646-.718-.969-1.652-.969-2.801 0-2.514 1.472-3.77 4.417-3.77zm18.885 14.113c0 2.873.682 5.35 2.047 7.434a20.44 20.44 0 004.955 5.279c2.011 1.364 4.777 3.088 8.296 5.17 3.735 2.227 6.607 4.095 8.618 5.603 2.083 1.436 3.843 3.303 5.279 5.602 1.508 2.298 2.263 5.063 2.263 8.295 0 3.376-.826 6.464-2.478 9.265-1.652 2.73-4.13 4.92-7.434 6.572-3.232 1.58-7.218 2.37-11.958 2.37-2.514 0-4.92-.288-7.218-.862-2.226-.503-4.704-1.436-7.433-2.801-.36-.216-.611-.467-.755-.754a12.09 12.09 0 01-.215-1.293l-1.616-14.005v-.108c0-.287.18-.43.539-.43.359-.073.574.035.646.322.718 4.956 2.621 9.265 5.71 12.928 3.088 3.663 7.326 5.494 12.712 5.494 3.807 0 7.003-1.04 9.588-3.124 2.658-2.082 3.986-5.35 3.986-9.803 0-3.232-.718-5.997-2.154-8.296-1.437-2.37-3.196-4.309-5.279-5.817-2.011-1.58-4.776-3.412-8.296-5.494-3.447-2.011-6.176-3.771-8.187-5.28-1.939-1.508-3.627-3.375-5.064-5.601-1.364-2.299-2.046-5.028-2.046-8.188 0-3.591.897-6.643 2.693-9.157 1.867-2.514 4.273-4.381 7.218-5.602 2.945-1.293 6.105-1.94 9.48-1.94 3.95 0 8.044.862 12.282 2.586 1.077.431 1.616 1.042 1.616 1.832l.969 11.42c0 .287-.215.43-.646.43-.359 0-.575-.143-.647-.43-.287-3.736-1.687-7.075-4.201-10.02-2.514-2.945-6.105-4.417-10.773-4.417-4.309 0-7.47 1.257-9.481 3.77-2.011 2.514-3.016 5.531-3.016 9.05z" fill="#EBE7DD"/><path d="M75.766 75.707c.287 0 .43.216.43.647 0 .43-.143.646-.43.646-1.293 0-3.376-.072-6.249-.216-2.729-.143-4.74-.215-6.033-.215-1.508 0-3.483.072-5.925.215-2.298.144-4.022.216-5.171.216-.287 0-.43-.216-.43-.646 0-.431.143-.647.43-.647 2.945 0 5.063-.251 6.356-.754 1.293-.575 1.94-1.508 1.94-2.8 0-1.006-.396-2.407-1.186-4.203L49.371 46.082h-25.64L16.406 63.75c-1.006 2.442-1.509 4.453-1.509 6.033 0 2.083.862 3.591 2.586 4.525 1.724.933 4.417 1.4 8.08 1.4.359 0 .539.216.539.647 0 .43-.18.646-.54.646-1.292 0-3.16-.072-5.601-.216-2.73-.143-5.1-.215-7.11-.215-1.796 0-3.915.072-6.357.215C4.34 76.928 2.58 77 1.215 77c-.359 0-.538-.216-.538-.646 0-.431.18-.647.538-.647 2.011 0 3.7-.359 5.064-1.077 1.436-.718 2.765-2.011 3.986-3.878 1.293-1.868 2.657-4.525 4.094-7.973L36.875 8.59c.143-.215.359-.323.646-.323.36 0 .575.108.646.323l24.994 53.65c1.652 3.664 3.124 6.465 4.417 8.404 1.293 1.867 2.55 3.196 3.77 3.986 1.294.718 2.766 1.077 4.418 1.077zM24.593 44.142h23.809l-12.605-27.04-11.204 27.04zM146.141 9.668c.215 0 .323.215.323.646 0 .431-.108.646-.323.646-3.089 0-5.279.755-6.572 2.263-1.221 1.508-1.831 4.094-1.831 7.757v57.205c0 .144-.18.251-.539.323-.359.072-.61.036-.754-.108L87.75 18.502l-1.831-2.047v49.34c0 3.664.61 6.25 1.831 7.758 1.221 1.436 3.34 2.154 6.356 2.154.216 0 .324.216.324.647 0 .43-.108.646-.324.646-1.723 0-3.052-.036-3.986-.108l-5.17-.108-5.28.108c-.933.072-2.334.108-4.201.108-.144 0-.216-.216-.216-.646 0-.431.072-.647.216-.647 3.088 0 5.207-.718 6.356-2.154 1.149-1.437 1.724-4.022 1.724-7.757V14.192c-2.514-2.154-5.1-3.232-7.757-3.232-.216 0-.323-.215-.323-.646 0-.43.107-.646.323-.646l3.878.107c.79.072 1.903.108 3.34.108 1.22 0 2.226-.036 3.016-.108.79-.071 1.4-.107 1.832-.107.503 0 .898.143 1.185.43.359.216.754.719 1.185 1.509a33.494 33.494 0 002.586 3.663l42.554 52.896V20.98c0-3.663-.575-6.249-1.724-7.757s-3.232-2.263-6.249-2.263c-.143 0-.215-.215-.215-.646 0-.43.072-.646.215-.646l4.094.107c2.155.144 3.879.216 5.171.216 1.221 0 2.981-.072 5.279-.216l4.202-.107zm72.138 66.04c.287 0 .431.215.431.646 0 .43-.144.646-.431.646-1.293 0-3.376-.072-6.249-.216-2.729-.143-4.74-.215-6.033-.215-1.508 0-3.483.072-5.925.215-2.298.144-4.022.216-5.171.216-.287 0-.431-.216-.431-.646 0-.431.144-.647.431-.647 2.945 0 5.063-.251 6.356-.754 1.293-.575 1.939-1.508 1.939-2.8 0-1.006-.395-2.407-1.185-4.203l-10.126-21.869h-25.641l-7.325 17.668c-1.006 2.442-1.509 4.453-1.509 6.033 0 2.083.862 3.591 2.586 4.525 1.724.933 4.417 1.4 8.08 1.4.359 0 .539.216.539.647 0 .43-.18.646-.539.646-1.293 0-3.16-.072-5.602-.216-2.729-.143-5.099-.215-7.11-.215-1.796 0-3.915.072-6.357.215-2.154.144-3.914.216-5.278.216-.36 0-.539-.216-.539-.646 0-.431.179-.647.539-.647 2.011 0 3.698-.359 5.063-1.077 1.436-.718 2.765-2.011 3.986-3.878 1.293-1.868 2.657-4.525 4.094-7.973L179.388 8.59c.143-.215.359-.323.646-.323.359 0 .575.108.647.323l24.993 53.65c1.652 3.664 3.125 6.465 4.417 8.404 1.293 1.867 2.55 3.196 3.771 3.986 1.293.718 2.765 1.077 4.417 1.077zm-51.173-31.566h23.809l-12.605-27.04-11.204 27.04zm61.11-21.439c0 2.873.683 5.35 2.047 7.434a20.461 20.461 0 004.956 5.279c2.011 1.364 4.776 3.088 8.295 5.17 3.735 2.227 6.608 4.095 8.619 5.603 2.083 1.436 3.842 3.303 5.279 5.602 1.508 2.298 2.262 5.063 2.262 8.295 0 3.376-.826 6.464-2.478 9.265-1.652 2.73-4.13 4.92-7.433 6.572-3.232 1.58-7.218 2.37-11.959 2.37-2.513 0-4.919-.288-7.218-.862-2.226-.503-4.704-1.436-7.433-2.801-.359-.216-.611-.467-.754-.754a11.787 11.787 0 01-.216-1.293l-1.616-14.005v-.108c0-.287.18-.43.539-.43.359-.073.575.035.646.322.719 4.956 2.622 9.265 5.71 12.928 3.088 3.663 7.326 5.494 12.713 5.494 3.806 0 7.002-1.04 9.588-3.124 2.657-2.082 3.986-5.35 3.986-9.803 0-3.232-.718-5.997-2.155-8.296-1.436-2.37-3.196-4.309-5.279-5.817-2.011-1.58-4.776-3.412-8.295-5.494-3.448-2.011-6.177-3.771-8.188-5.28-1.939-1.508-3.627-3.375-5.063-5.601-1.365-2.299-2.047-5.028-2.047-8.188 0-3.591.898-6.643 2.693-9.157 1.868-2.514 4.274-4.381 7.218-5.602 2.945-1.293 6.105-1.94 9.481-1.94 3.95 0 8.044.862 12.281 2.586 1.077.431 1.616 1.042 1.616 1.832l.97 11.42c0 .287-.216.43-.647.43-.359 0-.574-.143-.646-.43-.287-3.736-1.688-7.075-4.202-10.02-2.513-2.945-6.104-4.417-10.773-4.417-4.309 0-7.469 1.257-9.48 3.77-2.011 2.514-3.017 5.531-3.017 9.05zM279.642 11.5c-4.525 0-7.828 1.077-9.911 3.232-2.083 2.155-3.483 5.997-4.202 11.527 0 .144-.215.216-.646.216-.431 0-.646-.072-.646-.216.287-1.939.61-5.027.969-9.265.359-4.309.539-7.54.539-9.695 0-.36.215-.54.646-.54.431 0 .647.18.647.54 0 1.58 1.903 2.37 5.709 2.37 6.177.215 13.395.323 21.654.323 4.238 0 8.727-.072 13.467-.216l7.326-.107c2.585 0 4.488-.18 5.709-.539 1.221-.36 2.011-1.077 2.371-2.155.071-.287.287-.43.646-.43.359 0 .539.143.539.43-.216 2.011-.431 5.1-.647 9.265-.215 4.094-.323 7.434-.323 10.02 0 .143-.215.215-.646.215-.431 0-.647-.072-.647-.216 0-3.806-.395-6.75-1.185-8.834-.79-2.082-2.119-3.59-3.986-4.524-1.867-.934-4.489-1.4-7.864-1.4-3.735 0-6.356.143-7.865.43-1.508.216-2.549.79-3.124 1.724-.503.933-.754 2.585-.754 4.955v49.665c0 2.226.251 3.842.754 4.848.503 1.005 1.508 1.688 3.017 2.047 1.508.359 3.878.538 7.11.538.143 0 .215.216.215.647 0 .43-.072.646-.215.646-2.37 0-4.238-.036-5.602-.108l-8.296-.108-7.864.108c-1.436.072-3.411.108-5.925.108-.144 0-.216-.216-.216-.646 0-.431.072-.647.216-.647 3.232 0 5.602-.18 7.11-.538 1.508-.36 2.514-1.042 3.017-2.047.574-1.078.861-2.694.861-4.848v-49.88c0-2.37-.287-3.986-.861-4.848-.575-.934-1.616-1.508-3.125-1.724-1.436-.215-4.093-.323-7.972-.323zm110.482 64.208c.287 0 .431.216.431.647 0 .43-.144.646-.431.646-1.293 0-3.376-.072-6.249-.216-2.729-.143-4.74-.215-6.033-.215-1.508 0-3.483.072-5.925.215-2.298.144-4.022.216-5.171.216-.287 0-.431-.216-.431-.646 0-.431.144-.647.431-.647 2.944 0 5.063-.251 6.356-.754 1.293-.575 1.939-1.508 1.939-2.8 0-1.006-.395-2.407-1.185-4.203l-10.127-21.869h-25.64l-7.326 17.668c-1.005 2.442-1.508 4.453-1.508 6.033 0 2.083.862 3.591 2.586 4.525 1.723.933 4.417 1.4 8.08 1.4.359 0 .538.216.538.647 0 .43-.179.646-.538.646-1.293 0-3.161-.072-5.602-.216-2.73-.143-5.1-.215-7.111-.215-1.795 0-3.914.072-6.356.215-2.155.144-3.914.216-5.279.216-.359 0-.538-.216-.538-.646 0-.431.179-.647.538-.647 2.011 0 3.699-.359 5.064-1.077 1.436-.718 2.765-2.011 3.986-3.878 1.292-1.868 2.657-4.525 4.094-7.973l22.515-54.19c.144-.215.36-.323.647-.323.359 0 .574.108.646.323l24.994 53.65c1.652 3.664 3.124 6.465 4.417 8.404 1.293 1.867 2.55 3.196 3.771 3.986 1.292.718 2.765 1.077 4.417 1.077zm-51.173-31.565h23.809l-12.605-27.04-11.204 27.04zm61.11-21.439c0 2.873.682 5.35 2.047 7.434 1.365 2.082 3.016 3.842 4.956 5.279 2.011 1.364 4.776 3.088 8.295 5.17 3.735 2.227 6.607 4.095 8.618 5.603 2.083 1.436 3.843 3.303 5.279 5.602 1.509 2.298 2.263 5.063 2.263 8.295 0 3.376-.826 6.464-2.478 9.265-1.652 2.73-4.13 4.92-7.434 6.572-3.232 1.58-7.218 2.37-11.958 2.37-2.514 0-4.92-.288-7.218-.862-2.226-.503-4.704-1.436-7.433-2.801-.359-.216-.611-.467-.755-.754a12.09 12.09 0 01-.215-1.293l-1.616-14.005v-.108c0-.287.18-.43.539-.43.359-.073.574.035.646.322.718 4.956 2.622 9.265 5.71 12.928 3.088 3.663 7.326 5.494 12.712 5.494 3.807 0 7.003-1.04 9.588-3.124 2.658-2.082 3.986-5.35 3.986-9.803 0-3.232-.718-5.997-2.154-8.296-1.437-2.37-3.196-4.309-5.279-5.817-2.011-1.58-4.776-3.412-8.295-5.494-3.448-2.011-6.177-3.771-8.188-5.28-1.939-1.508-3.627-3.375-5.063-5.601-1.365-2.299-2.047-5.028-2.047-8.188 0-3.591.897-6.643 2.693-9.157 1.867-2.514 4.273-4.381 7.218-5.602 2.945-1.293 6.105-1.94 9.48-1.94 3.951 0 8.044.862 12.282 2.586 1.077.431 1.616 1.042 1.616 1.832l.969 11.42c0 .287-.215.43-.646.43-.359 0-.575-.143-.646-.43-.288-3.736-1.688-7.075-4.202-10.02-2.514-2.945-6.105-4.417-10.773-4.417-4.309 0-7.47 1.257-9.481 3.77-2.01 2.514-3.016 5.531-3.016 9.05zm52.719 45.57c0 2.227.215 3.843.646 4.849.503 1.005 1.401 1.688 2.693 2.047 1.293.359 3.376.538 6.249.538.143 0 .215.216.215.647 0 .43-.072.646-.215.646-2.155 0-3.843-.036-5.064-.108l-7.541-.108-7.218.108c-1.293.072-3.052.108-5.279.108-.215 0-.323-.216-.323-.646 0-.431.108-.647.323-.647 2.801 0 4.848-.18 6.141-.538 1.365-.36 2.298-1.042 2.801-2.047.503-1.078.754-2.694.754-4.848v-49.88c0-2.155-.251-3.735-.754-4.74-.503-1.006-1.436-1.688-2.801-2.047-1.293-.431-3.34-.646-6.141-.646-.215 0-.323-.216-.323-.647 0-.43.108-.646.323-.646l5.279.107c3.017.144 5.423.216 7.218.216 2.011 0 4.525-.072 7.541-.216l5.064-.107c.143 0 .215.215.215.646 0 .431-.072.646-.215.646-2.801 0-4.884.216-6.249.647-1.292.43-2.19 1.185-2.693 2.262-.431 1.006-.646 2.586-.646 4.74v49.665zm84.254 7.434c.288 0 .431.216.431.647 0 .43-.143.646-.431.646-1.292 0-3.375-.072-6.248-.216-2.729-.143-4.74-.215-6.033-.215-1.508 0-3.483.072-5.925.215-2.299.144-4.022.216-5.171.216-.288 0-.431-.216-.431-.646 0-.431.143-.647.431-.647 2.944 0 5.063-.251 6.356-.754 1.292-.575 1.939-1.508 1.939-2.8 0-1.006-.395-2.407-1.185-4.203L510.64 46.082H485l-7.326 17.668c-1.005 2.442-1.508 4.453-1.508 6.033 0 2.083.862 3.591 2.585 4.525 1.724.933 4.417 1.4 8.08 1.4.359 0 .539.216.539.647 0 .43-.18.646-.539.646-1.292 0-3.16-.072-5.602-.216-2.729-.143-5.099-.215-7.11-.215-1.796 0-3.914.072-6.356.215-2.155.144-3.914.216-5.279.216-.359 0-.539-.216-.539-.646 0-.431.18-.647.539-.647 2.011 0 3.699-.359 5.063-1.077 1.437-.718 2.765-2.011 3.986-3.878 1.293-1.868 2.658-4.525 4.094-7.973l22.516-54.19c.144-.215.359-.323.647-.323.359 0 .574.108.646.323l24.994 53.65c1.652 3.664 3.124 6.465 4.417 8.404 1.292 1.867 2.549 3.196 3.77 3.986 1.293.718 2.765 1.077 4.417 1.077zm-51.172-31.565h23.808l-12.604-27.04-11.204 27.04zM531.748 8.59c2.083 0 3.699.79 4.848 2.37 1.221 1.509 1.831 3.7 1.831 6.572 0 2.801-.646 5.387-1.939 7.757-1.221 2.37-3.052 4.74-5.494 7.11-.072.072-.18.108-.323.108-.216 0-.395-.108-.539-.323-.144-.216-.144-.395 0-.54 3.519-3.59 5.279-7.828 5.279-12.711 0-1.868-.359-3.34-1.078-4.417-.502 1.077-1.544 1.616-3.124 1.616-1.221 0-2.19-.324-2.909-.97-.646-.718-.969-1.652-.969-2.801 0-2.514 1.472-3.77 4.417-3.77zm18.885 14.113c0 2.873.682 5.35 2.047 7.434a20.44 20.44 0 004.955 5.279c2.011 1.364 4.777 3.088 8.296 5.17 3.735 2.227 6.607 4.095 8.618 5.603 2.083 1.436 3.843 3.303 5.279 5.602 1.508 2.298 2.263 5.063 2.263 8.295 0 3.376-.826 6.464-2.478 9.265-1.652 2.73-4.13 4.92-7.434 6.572-3.232 1.58-7.218 2.37-11.958 2.37-2.514 0-4.92-.288-7.218-.862-2.226-.503-4.704-1.436-7.433-2.801-.36-.216-.611-.467-.755-.754a12.09 12.09 0 01-.215-1.293l-1.616-14.005v-.108c0-.287.18-.43.539-.43.359-.073.574.035.646.322.718 4.956 2.621 9.265 5.71 12.928 3.088 3.663 7.326 5.494 12.712 5.494 3.807 0 7.003-1.04 9.588-3.124 2.658-2.082 3.986-5.35 3.986-9.803 0-3.232-.718-5.997-2.154-8.296-1.437-2.37-3.196-4.309-5.279-5.817-2.011-1.58-4.776-3.412-8.296-5.494-3.447-2.011-6.176-3.771-8.187-5.28-1.939-1.508-3.627-3.375-5.064-5.601-1.364-2.299-2.046-5.028-2.046-8.188 0-3.591.897-6.643 2.693-9.157 1.867-2.514 4.273-4.381 7.218-5.602 2.945-1.293 6.105-1.94 9.48-1.94 3.95 0 8.044.862 12.282 2.586 1.077.431 1.616 1.042 1.616 1.832l.969 11.42c0 .287-.215.43-.646.43-.359 0-.575-.143-.647-.43-.287-3.736-1.687-7.075-4.201-10.02-2.514-2.945-6.105-4.417-10.773-4.417-4.309 0-7.47 1.257-9.481 3.77-2.011 2.514-3.016 5.531-3.016 9.05z" fill="url(#paint0_linear_264_1928)"/><path d="M200.766 172.707c.287 0 .431.216.431.647 0 .431-.144.646-.431.646-1.293 0-3.376-.072-6.249-.215-2.729-.144-4.74-.216-6.033-.216-1.508 0-3.483.072-5.925.216-2.298.143-4.022.215-5.171.215-.287 0-.431-.215-.431-.646 0-.431.144-.647.431-.647 2.945 0 5.063-.251 6.356-.754 1.293-.574 1.939-1.508 1.939-2.801 0-1.005-.395-2.406-1.185-4.201l-10.126-21.87h-25.641l-7.325 17.668c-1.006 2.442-1.509 4.453-1.509 6.033 0 2.083.862 3.591 2.586 4.525 1.724.933 4.417 1.4 8.08 1.4.359 0 .538.216.538.647 0 .431-.179.646-.538.646-1.293 0-3.16-.072-5.602-.215-2.729-.144-5.1-.216-7.111-.216-1.795 0-3.914.072-6.356.216-2.154.143-3.914.215-5.279.215-.359 0-.538-.215-.538-.646 0-.431.179-.647.538-.647 2.011 0 3.699-.359 5.064-1.077 1.436-.718 2.765-2.011 3.986-3.878 1.293-1.868 2.657-4.525 4.094-7.973l22.516-54.189c.143-.215.359-.323.646-.323.359 0 .575.108.646.323l24.994 53.651c1.652 3.663 3.124 6.464 4.417 8.403 1.293 1.867 2.55 3.196 3.771 3.986 1.293.718 2.765 1.077 4.417 1.077zm-51.173-31.565h23.809l-12.605-27.041-11.204 27.041zm121.548-34.474c.215 0 .323.215.323.646 0 .431-.108.646-.323.646-3.089 0-5.279.755-6.572 2.263-1.221 1.508-1.831 4.094-1.831 7.757v57.205c0 .144-.18.251-.539.323-.359.072-.61.036-.754-.107l-48.695-59.899-1.831-2.047v49.341c0 3.663.61 6.248 1.831 7.757 1.221 1.436 3.34 2.154 6.356 2.154.216 0 .323.216.323.647 0 .431-.107.646-.323.646-1.723 0-3.052-.036-3.986-.108l-5.171-.107-5.279.107c-.933.072-2.334.108-4.201.108-.144 0-.216-.215-.216-.646 0-.431.072-.647.216-.647 3.088 0 5.207-.718 6.356-2.154 1.149-1.437 1.724-4.022 1.724-7.757v-51.604c-2.514-2.154-5.1-3.232-7.757-3.232-.216 0-.323-.215-.323-.646 0-.431.107-.646.323-.646l3.878.107c.79.072 1.904.108 3.34.108 1.221 0 2.226-.036 3.016-.108.79-.071 1.401-.107 1.832-.107.503 0 .898.143 1.185.431.359.215.754.718 1.185 1.508a33.43 33.43 0 002.586 3.663l42.554 52.896V117.98c0-3.663-.575-6.249-1.724-7.757s-3.232-2.263-6.249-2.263c-.143 0-.215-.215-.215-.646 0-.431.072-.646.215-.646l4.094.107c2.155.144 3.879.216 5.171.216 1.221 0 2.981-.072 5.279-.216l4.202-.107zm41.003 68.625c-7.828 0-14.651-1.58-20.469-4.74-5.745-3.232-10.162-7.542-13.251-12.928-3.088-5.459-4.632-11.42-4.632-17.884 0-6.966 1.724-13.035 5.171-18.206 3.519-5.171 8.295-9.122 14.328-11.851 6.105-2.801 12.928-4.201 20.469-4.201 3.951 0 7.578.395 10.881 1.185 3.304.79 6.105 1.903 8.403 3.339.503.359.79.647.862.862.072.144.144.647.216 1.508l1.292 12.066c0 .216-.215.36-.646.431-.359.072-.574 0-.646-.215-1.58-5.961-4.094-10.378-7.542-13.251-3.375-2.873-8.151-4.309-14.328-4.309-5.961 0-11.312 1.292-16.052 3.878-4.74 2.514-8.475 6.141-11.204 10.881-2.729 4.668-4.094 10.163-4.094 16.483 0 5.961 1.221 11.635 3.663 17.021 2.514 5.387 6.32 9.804 11.42 13.251 5.171 3.448 11.527 5.172 19.068 5.172 5.315 0 9.05-1.006 11.204-3.017 2.227-2.083 3.34-5.494 3.34-10.234 0-3.735-.251-6.321-.754-7.757-.503-1.508-1.58-2.514-3.232-3.017-1.652-.502-4.525-.754-8.619-.754-.431 0-.646-.287-.646-.862 0-.215.036-.395.108-.538.143-.216.287-.323.431-.323 5.53.359 9.983.538 13.358.538 3.232 0 6.68-.108 10.343-.323.143 0 .251.108.323.323.143.144.215.287.215.431 0 .503-.179.754-.538.754-1.868-.072-3.196.18-3.986.754-.791.503-1.293 1.58-1.509 3.232-.215 1.652-.323 4.525-.323 8.619 0 3.232.108 5.53.323 6.895.288 1.364.431 2.226.431 2.585 0 .431-.072.718-.215.862-.144.144-.467.287-.97.431-8.69 1.939-16.088 2.909-22.193 2.909zm77.997-17.022c0-.215.215-.287.646-.215.431 0 .646.107.646.323a99.003 99.003 0 00-.969 14.005c0 .575-.144 1.006-.431 1.293-.216.215-.647.323-1.293.323h-44.493c-.144 0-.216-.215-.216-.646 0-.431.072-.647.216-.647 2.801 0 4.848-.179 6.14-.538 1.365-.36 2.263-1.042 2.694-2.047.503-1.078.754-2.694.754-4.848v-49.88c0-2.155-.251-3.735-.754-4.74-.431-1.006-1.329-1.688-2.694-2.047-1.292-.431-3.339-.647-6.14-.647-.144 0-.216-.215-.216-.646 0-.431.072-.646.216-.646h42.662c.646 0 .969.323.969.969l.216 13.036c0 .215-.216.323-.647.323-.359 0-.538-.108-.538-.323 0-3.663-.97-6.572-2.909-8.726-1.939-2.155-4.489-3.232-7.649-3.232h-7.434c-2.729 0-4.74.179-6.033.538-1.292.359-2.19 1.042-2.693 2.047-.431 1.006-.646 2.586-.646 4.74v21.87h14.22c3.304 0 5.602-.539 6.895-1.616 1.293-1.149 1.939-3.088 1.939-5.818 0-.143.216-.215.647-.215.431 0 .646.072.646.215l-.108 8.511c0 2.083.036 3.627.108 4.633l.108 5.063c0 .144-.216.216-.647.216-.431 0-.646-.072-.646-.216 0-3.232-.682-5.494-2.047-6.787-1.364-1.293-3.77-1.939-7.218-1.939h-13.897v24.886c0 2.083.215 3.627.646 4.632.503.934 1.365 1.58 2.586 1.939 1.292.36 3.339.539 6.14.539h9.912c2.873 0 5.314-1.257 7.325-3.771 2.083-2.513 3.412-5.817 3.987-9.911zm20.598 6.572c0 2.083.216 3.627.647 4.632.502.934 1.364 1.58 2.585 1.939 1.293.36 3.304.539 6.033.539h13.79c7.11 0 11.312-4.561 12.604-13.682 0-.215.18-.287.539-.215.431 0 .646.107.646.323-.646 5.674-.969 10.342-.969 14.005 0 .575-.108 1.006-.323 1.293-.216.215-.647.323-1.293.323h-49.557c-.143 0-.215-.215-.215-.646 0-.431.072-.647.215-.647 2.801 0 4.848-.179 6.141-.538 1.365-.36 2.262-1.042 2.693-2.047.503-1.078.754-2.694.754-4.848v-49.88c0-2.155-.251-3.735-.754-4.74-.431-1.006-1.328-1.688-2.693-2.047-1.293-.431-3.34-.647-6.141-.647-.143 0-.215-.215-.215-.646 0-.431.072-.646.215-.646l5.279.107c3.017.144 5.387.216 7.11.216 1.94 0 4.417-.072 7.434-.216l5.063-.107c.144 0 .216.215.216.646 0 .431-.072.646-.216.646-2.801 0-4.884.216-6.248.647-1.293.359-2.191 1.077-2.693 2.154-.431 1.006-.647 2.586-.647 4.741v49.341zm47.432-45.14c0 2.873.682 5.351 2.046 7.434a20.467 20.467 0 004.956 5.279c2.011 1.364 4.776 3.088 8.295 5.171 3.735 2.226 6.608 4.093 8.619 5.602 2.083 1.436 3.842 3.304 5.279 5.602 1.508 2.298 2.262 5.063 2.262 8.295 0 3.376-.826 6.464-2.478 9.265-1.651 2.729-4.129 4.92-7.433 6.572-3.232 1.58-7.218 2.37-11.958 2.37-2.514 0-4.92-.288-7.218-.862-2.227-.503-4.705-1.436-7.434-2.801-.359-.216-.61-.467-.754-.754a11.613 11.613 0 01-.215-1.293l-1.616-14.005v-.108c0-.287.179-.431.538-.431.359-.072.575.036.647.323.718 4.956 2.621 9.265 5.709 12.928 3.089 3.663 7.326 5.495 12.713 5.495 3.806 0 7.002-1.042 9.588-3.125 2.657-2.082 3.986-5.35 3.986-9.803 0-3.232-.718-5.997-2.155-8.296-1.436-2.37-3.196-4.309-5.279-5.817-2.01-1.58-4.776-3.412-8.295-5.494-3.447-2.011-6.176-3.771-8.187-5.279-1.94-1.509-3.627-3.376-5.064-5.602-1.364-2.299-2.047-5.028-2.047-8.188 0-3.591.898-6.643 2.694-9.157 1.867-2.514 4.273-4.381 7.218-5.602 2.944-1.293 6.104-1.939 9.48-1.939 3.95 0 8.044.861 12.281 2.585 1.078.431 1.616 1.042 1.616 1.832l.97 11.419c0 .287-.216.431-.646.431-.36 0-.575-.144-.647-.431-.287-3.735-1.688-7.074-4.201-10.019-2.514-2.945-6.105-4.417-10.774-4.417-4.309 0-7.469 1.257-9.48 3.771-2.011 2.513-3.016 5.53-3.016 9.049z" fill="#EBE7DD"/><path d="M200.766 172.707c.287 0 .431.216.431.647 0 .431-.144.646-.431.646-1.293 0-3.376-.072-6.249-.215-2.729-.144-4.74-.216-6.033-.216-1.508 0-3.483.072-5.925.216-2.298.143-4.022.215-5.171.215-.287 0-.431-.215-.431-.646 0-.431.144-.647.431-.647 2.945 0 5.063-.251 6.356-.754 1.293-.574 1.939-1.508 1.939-2.801 0-1.005-.395-2.406-1.185-4.201l-10.126-21.87h-25.641l-7.325 17.668c-1.006 2.442-1.509 4.453-1.509 6.033 0 2.083.862 3.591 2.586 4.525 1.724.933 4.417 1.4 8.08 1.4.359 0 .538.216.538.647 0 .431-.179.646-.538.646-1.293 0-3.16-.072-5.602-.215-2.729-.144-5.1-.216-7.111-.216-1.795 0-3.914.072-6.356.216-2.154.143-3.914.215-5.279.215-.359 0-.538-.215-.538-.646 0-.431.179-.647.538-.647 2.011 0 3.699-.359 5.064-1.077 1.436-.718 2.765-2.011 3.986-3.878 1.293-1.868 2.657-4.525 4.094-7.973l22.516-54.189c.143-.215.359-.323.646-.323.359 0 .575.108.646.323l24.994 53.651c1.652 3.663 3.124 6.464 4.417 8.403 1.293 1.867 2.55 3.196 3.771 3.986 1.293.718 2.765 1.077 4.417 1.077zm-51.173-31.565h23.809l-12.605-27.041-11.204 27.041zm121.548-34.474c.215 0 .323.215.323.646 0 .431-.108.646-.323.646-3.089 0-5.279.755-6.572 2.263-1.221 1.508-1.831 4.094-1.831 7.757v57.205c0 .144-.18.251-.539.323-.359.072-.61.036-.754-.107l-48.695-59.899-1.831-2.047v49.341c0 3.663.61 6.248 1.831 7.757 1.221 1.436 3.34 2.154 6.356 2.154.216 0 .323.216.323.647 0 .431-.107.646-.323.646-1.723 0-3.052-.036-3.986-.108l-5.171-.107-5.279.107c-.933.072-2.334.108-4.201.108-.144 0-.216-.215-.216-.646 0-.431.072-.647.216-.647 3.088 0 5.207-.718 6.356-2.154 1.149-1.437 1.724-4.022 1.724-7.757v-51.604c-2.514-2.154-5.1-3.232-7.757-3.232-.216 0-.323-.215-.323-.646 0-.431.107-.646.323-.646l3.878.107c.79.072 1.904.108 3.34.108 1.221 0 2.226-.036 3.016-.108.79-.071 1.401-.107 1.832-.107.503 0 .898.143 1.185.431.359.215.754.718 1.185 1.508a33.43 33.43 0 002.586 3.663l42.554 52.896V117.98c0-3.663-.575-6.249-1.724-7.757s-3.232-2.263-6.249-2.263c-.143 0-.215-.215-.215-.646 0-.431.072-.646.215-.646l4.094.107c2.155.144 3.879.216 5.171.216 1.221 0 2.981-.072 5.279-.216l4.202-.107zm41.003 68.625c-7.828 0-14.651-1.58-20.469-4.74-5.745-3.232-10.162-7.542-13.251-12.928-3.088-5.459-4.632-11.42-4.632-17.884 0-6.966 1.724-13.035 5.171-18.206 3.519-5.171 8.295-9.122 14.328-11.851 6.105-2.801 12.928-4.201 20.469-4.201 3.951 0 7.578.395 10.881 1.185 3.304.79 6.105 1.903 8.403 3.339.503.359.79.647.862.862.072.144.144.647.216 1.508l1.292 12.066c0 .216-.215.36-.646.431-.359.072-.574 0-.646-.215-1.58-5.961-4.094-10.378-7.542-13.251-3.375-2.873-8.151-4.309-14.328-4.309-5.961 0-11.312 1.292-16.052 3.878-4.74 2.514-8.475 6.141-11.204 10.881-2.729 4.668-4.094 10.163-4.094 16.483 0 5.961 1.221 11.635 3.663 17.021 2.514 5.387 6.32 9.804 11.42 13.251 5.171 3.448 11.527 5.172 19.068 5.172 5.315 0 9.05-1.006 11.204-3.017 2.227-2.083 3.34-5.494 3.34-10.234 0-3.735-.251-6.321-.754-7.757-.503-1.508-1.58-2.514-3.232-3.017-1.652-.502-4.525-.754-8.619-.754-.431 0-.646-.287-.646-.862 0-.215.036-.395.108-.538.143-.216.287-.323.431-.323 5.53.359 9.983.538 13.358.538 3.232 0 6.68-.108 10.343-.323.143 0 .251.108.323.323.143.144.215.287.215.431 0 .503-.179.754-.538.754-1.868-.072-3.196.18-3.986.754-.791.503-1.293 1.58-1.509 3.232-.215 1.652-.323 4.525-.323 8.619 0 3.232.108 5.53.323 6.895.288 1.364.431 2.226.431 2.585 0 .431-.072.718-.215.862-.144.144-.467.287-.97.431-8.69 1.939-16.088 2.909-22.193 2.909zm77.997-17.022c0-.215.215-.287.646-.215.431 0 .646.107.646.323a99.003 99.003 0 00-.969 14.005c0 .575-.144 1.006-.431 1.293-.216.215-.647.323-1.293.323h-44.493c-.144 0-.216-.215-.216-.646 0-.431.072-.647.216-.647 2.801 0 4.848-.179 6.14-.538 1.365-.36 2.263-1.042 2.694-2.047.503-1.078.754-2.694.754-4.848v-49.88c0-2.155-.251-3.735-.754-4.74-.431-1.006-1.329-1.688-2.694-2.047-1.292-.431-3.339-.647-6.14-.647-.144 0-.216-.215-.216-.646 0-.431.072-.646.216-.646h42.662c.646 0 .969.323.969.969l.216 13.036c0 .215-.216.323-.647.323-.359 0-.538-.108-.538-.323 0-3.663-.97-6.572-2.909-8.726-1.939-2.155-4.489-3.232-7.649-3.232h-7.434c-2.729 0-4.74.179-6.033.538-1.292.359-2.19 1.042-2.693 2.047-.431 1.006-.646 2.586-.646 4.74v21.87h14.22c3.304 0 5.602-.539 6.895-1.616 1.293-1.149 1.939-3.088 1.939-5.818 0-.143.216-.215.647-.215.431 0 .646.072.646.215l-.108 8.511c0 2.083.036 3.627.108 4.633l.108 5.063c0 .144-.216.216-.647.216-.431 0-.646-.072-.646-.216 0-3.232-.682-5.494-2.047-6.787-1.364-1.293-3.77-1.939-7.218-1.939h-13.897v24.886c0 2.083.215 3.627.646 4.632.503.934 1.365 1.58 2.586 1.939 1.292.36 3.339.539 6.14.539h9.912c2.873 0 5.314-1.257 7.325-3.771 2.083-2.513 3.412-5.817 3.987-9.911zm20.598 6.572c0 2.083.216 3.627.647 4.632.502.934 1.364 1.58 2.585 1.939 1.293.36 3.304.539 6.033.539h13.79c7.11 0 11.312-4.561 12.604-13.682 0-.215.18-.287.539-.215.431 0 .646.107.646.323-.646 5.674-.969 10.342-.969 14.005 0 .575-.108 1.006-.323 1.293-.216.215-.647.323-1.293.323h-49.557c-.143 0-.215-.215-.215-.646 0-.431.072-.647.215-.647 2.801 0 4.848-.179 6.141-.538 1.365-.36 2.262-1.042 2.693-2.047.503-1.078.754-2.694.754-4.848v-49.88c0-2.155-.251-3.735-.754-4.74-.431-1.006-1.328-1.688-2.693-2.047-1.293-.431-3.34-.647-6.141-.647-.143 0-.215-.215-.215-.646 0-.431.072-.646.215-.646l5.279.107c3.017.144 5.387.216 7.11.216 1.94 0 4.417-.072 7.434-.216l5.063-.107c.144 0 .216.215.216.646 0 .431-.072.646-.216.646-2.801 0-4.884.216-6.248.647-1.293.359-2.191 1.077-2.693 2.154-.431 1.006-.647 2.586-.647 4.741v49.341zm47.432-45.14c0 2.873.682 5.351 2.046 7.434a20.467 20.467 0 004.956 5.279c2.011 1.364 4.776 3.088 8.295 5.171 3.735 2.226 6.608 4.093 8.619 5.602 2.083 1.436 3.842 3.304 5.279 5.602 1.508 2.298 2.262 5.063 2.262 8.295 0 3.376-.826 6.464-2.478 9.265-1.651 2.729-4.129 4.92-7.433 6.572-3.232 1.58-7.218 2.37-11.958 2.37-2.514 0-4.92-.288-7.218-.862-2.227-.503-4.705-1.436-7.434-2.801-.359-.216-.61-.467-.754-.754a11.613 11.613 0 01-.215-1.293l-1.616-14.005v-.108c0-.287.179-.431.538-.431.359-.072.575.036.647.323.718 4.956 2.621 9.265 5.709 12.928 3.089 3.663 7.326 5.495 12.713 5.495 3.806 0 7.002-1.042 9.588-3.125 2.657-2.082 3.986-5.35 3.986-9.803 0-3.232-.718-5.997-2.155-8.296-1.436-2.37-3.196-4.309-5.279-5.817-2.01-1.58-4.776-3.412-8.295-5.494-3.447-2.011-6.176-3.771-8.187-5.279-1.94-1.509-3.627-3.376-5.064-5.602-1.364-2.299-2.047-5.028-2.047-8.188 0-3.591.898-6.643 2.694-9.157 1.867-2.514 4.273-4.381 7.218-5.602 2.944-1.293 6.104-1.939 9.48-1.939 3.95 0 8.044.861 12.281 2.585 1.078.431 1.616 1.042 1.616 1.832l.97 11.419c0 .287-.216.431-.646.431-.36 0-.575-.144-.647-.431-.287-3.735-1.688-7.074-4.201-10.019-2.514-2.945-6.105-4.417-10.774-4.417-4.309 0-7.469 1.257-9.48 3.771-2.011 2.513-3.016 5.53-3.016 9.049z" fill="url(#paint1_linear_264_1928)"/><path d="M44.773 122.061a60.966 60.966 0 01-8.454 8.291 113.34 113.34 0 01-9.104 6.584 61.754 61.754 0 01-4.552 2.601 378.805 378.805 0 01-4.47 2.358 150.55 150.55 0 00-2.114 4.064 35.563 35.563 0 00-1.625 3.739c-.922 2.276-1.057 4.037-.407 5.283.65 1.247 1.761 1.87 3.333 1.87 1.03 0 2.249-.325 3.658-.975 1.896-.922 3.766-2.141 5.608-3.658 1.843-1.572 3.577-3.387 5.203-5.446.27-.271.46-.325.568-.163.163.163.109.379-.162.65-1.897 2.276-3.712 4.119-5.446 5.528-1.68 1.354-3.197 2.438-4.552 3.251-.976.596-2.222 1.111-3.74 1.544-1.517.434-2.871.569-4.063.407-2.493-.379-3.82-1.382-3.983-3.008-.163-1.679.379-3.82 1.625-6.421a167.635 167.635 0 013.658-6.747c1.3-2.33 2.547-4.497 3.74-6.502a150.625 150.625 0 013.494-5.528c1.084-1.68 1.978-3.007 2.683-3.983a54.506 54.506 0 011.707-2.357 78.337 78.337 0 011.788-2.195c1.246-1.517 2.493-2.736 3.74-3.657 1.57-1.193 3.359-1.924 5.364-2.195 2.005-.271 3.874-.19 5.608.244 1.626.379 2.52 1.165 2.683 2.357.163 1.138-.434 2.493-1.788 4.064zm-1.951.813c.704-.921 1.002-1.815.894-2.682-.108-.922-.623-1.734-1.544-2.439-1.247-.975-2.656-1.436-4.227-1.382-1.517.054-2.9.596-4.146 1.626-1.03.813-2.005 1.842-2.926 3.089a72.187 72.187 0 00-2.682 3.983 224.737 224.737 0 00-4.634 7.559 543.247 543.247 0 01-4.714 8.129l-.244.406a155.063 155.063 0 004.227-2.195 132.338 132.338 0 004.064-2.438 102.04 102.04 0 003.333-2.357 75.988 75.988 0 004.47-3.414 78.574 78.574 0 004.552-3.902c1.464-1.409 2.656-2.737 3.577-3.983zm8.99 22.922c-1.137.921-2.573 1.897-4.307 2.926-1.735.976-3.306 1.68-4.715 2.114-1.842.65-3.278.704-4.308.162a30.454 30.454 0 01-1.057 1.789 8.693 8.693 0 01-1.138 1.625c-1.246 1.572-2.492 2.683-3.739 3.333-1.246.705-2.33.948-3.251.732-.921-.271-1.544-.922-1.87-1.951-.325-1.084-.19-2.52.407-4.308.325-.976.813-1.978 1.463-3.008a25.875 25.875 0 012.357-3.089 25.307 25.307 0 012.845-2.601c1.03-.813 2.005-1.409 2.926-1.788.813-.325 1.518-.488 2.114-.488l.244-.244a.945.945 0 00.243-.162c.271-.108.542-.19.813-.244a52.2 52.2 0 011.057-.163c.27 0 .406.109.406.326.055.162 0 .46-.162.894-.325.867-.65 1.761-.976 2.682-.325.867-.596 1.68-.812 2.439-.271 1.246-.136 2.167.406 2.763.596.596 1.517.705 2.764.325 1.246-.379 2.628-1.002 4.145-1.869 1.572-.867 2.845-1.761 3.82-2.682.271-.271.434-.299.488-.082.109.217.054.407-.162.569zm-12.517-3.495c-.271-.379-.65-.461-1.138-.244-.488.217-1.03.596-1.626 1.138a24.881 24.881 0 00-1.788 2.032 24.963 24.963 0 00-1.626 2.52 29.745 29.745 0 00-1.707 3.495c-.487 1.138-.84 2.114-1.056 2.927-.434 1.896-.217 2.98.65 3.251.921.325 2.086-.352 3.495-2.032 1.246-1.409 2.33-3.062 3.252-4.959-.65-.921-.624-2.14.08-3.657a21.87 21.87 0 00.814-2.114c.27-.813.487-1.598.65-2.357zm24.919.325a4.6 4.6 0 01-.244 1.463c-.38.976-1.084 1.978-2.114 3.008a28.878 28.878 0 01-3.088 2.682 22.863 22.863 0 01-2.358 1.626 29.412 29.412 0 00-2.276 1.626c-1.354 1.138-2.357 2.221-3.007 3.251-.434.65-.976 1.111-1.626 1.382-.596.271-1.192.569-1.788.894-.325.108-.46.162-.407.162-.216 0-.325-.108-.325-.325 0-.162.027-.271.082-.325a34.017 34.017 0 001.056-3.007c.271-.976.542-2.005.813-3.089.38-1.734.84-3.441 1.382-5.121a29.566 29.566 0 012.195-4.796c.216-.325.406-.596.569-.813.216-.271.514-.487.894-.65l.975-.325c.38-.108.732-.244 1.057-.407.054-.054.163-.081.325-.081.217 0 .325.081.325.244a.55.55 0 01-.162.406c-.434.326-.84.813-1.22 1.464a22.762 22.762 0 00-.813 1.625 56.04 56.04 0 00-2.032 4.959 19.918 19.918 0 00-1.138 4.958v.081c0 .217.082.325.244.325.054 0 .109-.027.163-.081a23.079 23.079 0 013.007-2.276 105.09 105.09 0 003.252-2.032 39.127 39.127 0 001.788-1.382c.65-.542 1.165-1.111 1.544-1.707.542-.758.813-1.517.813-2.276 0-.758-.38-1.436-1.138-2.032-.108-.108-.162-.217-.162-.325 0-.163.054-.325.162-.488l.488-.65c.488-.596.867-.894 1.138-.894.108 0 .19.027.244.081.921.759 1.382 1.707 1.382 2.845zm24.224 6.259a18.015 18.015 0 01-3.251 3.983 25.408 25.408 0 01-3.983 2.845 27.033 27.033 0 01-4.064 1.869c-1.355.488-2.601.84-3.74 1.057-2.709.596-4.687.38-5.933-.65-1.246-.976-1.707-2.412-1.382-4.308.109-.867.46-1.897 1.057-3.089a21.481 21.481 0 012.438-3.658 26.906 26.906 0 013.252-3.332c1.192-1.084 2.384-1.951 3.576-2.602 1.3-.65 2.385-.894 3.252-.731.92.108 1.381.569 1.381 1.382 0 .596-.243 1.246-.731 1.951-1.192 1.788-2.818 3.441-4.877 4.958a84.97 84.97 0 01-6.097 4.064c-.433 1.788-.027 3.089 1.22 3.902.813.596 1.923.894 3.332.894 1.41-.054 2.927-.407 4.552-1.057 1.68-.65 3.36-1.625 5.04-2.926 1.734-1.355 3.278-3.035 4.633-5.04.217-.271.352-.298.407-.081.054.163.027.352-.082.569zm-9.673-5.771c.597-.976.65-1.626.163-1.951-.433-.379-1.138-.271-2.113.325-1.518.976-2.98 2.412-4.39 4.308-1.409 1.897-2.411 3.875-3.007 5.934 4.226-2.33 7.342-5.202 9.347-8.616zm41.418-21.053a60.941 60.941 0 01-8.454 8.291 113.4 113.4 0 01-9.103 6.584 61.95 61.95 0 01-4.552 2.601 378.807 378.807 0 01-4.471 2.358 151.128 151.128 0 00-2.113 4.064 35.605 35.605 0 00-1.626 3.739c-.921 2.276-1.057 4.037-.407 5.283.65 1.247 1.762 1.87 3.333 1.87 1.03 0 2.25-.325 3.658-.975 1.897-.922 3.766-2.141 5.609-3.658 1.842-1.572 3.576-3.387 5.202-5.446.271-.271.46-.325.569-.163.162.163.108.379-.163.65-1.896 2.276-3.712 4.119-5.446 5.528-1.68 1.354-3.197 2.438-4.552 3.251-.975.596-2.222 1.111-3.739 1.544-1.517.434-2.872.569-4.064.407-2.493-.379-3.82-1.382-3.983-3.008-.163-1.679.38-3.82 1.626-6.421a167.51 167.51 0 013.657-6.747 273.775 273.775 0 013.74-6.502 150.356 150.356 0 013.495-5.528c1.084-1.68 1.978-3.007 2.682-3.983a54.336 54.336 0 011.707-2.357 78.334 78.334 0 011.788-2.195c1.247-1.517 2.493-2.736 3.74-3.657 1.571-1.193 3.359-1.924 5.364-2.195 2.005-.271 3.875-.19 5.609.244 1.626.379 2.52 1.165 2.682 2.357.163 1.138-.433 2.493-1.788 4.064zm-1.951.813c.705-.921 1.003-1.815.894-2.682-.108-.922-.623-1.734-1.544-2.439-1.246-.975-2.655-1.436-4.227-1.382-1.517.054-2.899.596-4.145 1.626-1.03.813-2.005 1.842-2.927 3.089a72.024 72.024 0 00-2.682 3.983 224.08 224.08 0 00-4.633 7.559 543.247 543.247 0 01-4.715 8.129l-.244.406a154.77 154.77 0 004.227-2.195 131.472 131.472 0 004.064-2.438c.813-.542 1.924-1.328 3.333-2.357a76.26 76.26 0 004.471-3.414 78.71 78.71 0 004.552-3.902c1.463-1.409 2.655-2.737 3.576-3.983zm6.878 11.705c.216.975.135 1.87-.244 2.682-1.409 2.439-3.116 4.959-5.121 7.56a451.565 451.565 0 01-5.853 7.478 721.306 721.306 0 00-9.103 11.136c-2.764 3.522-5.203 6.909-7.316 10.161a105.902 105.902 0 00-3.008 4.877 49.546 49.546 0 00-2.52 5.121 35.27 35.27 0 00-1.788 5.039c-.487 1.68-.731 3.279-.731 4.796-.054 2.276.487 3.929 1.626 4.958 1.137 1.03 2.844 1.599 5.12 1.707 1.138.054 2.439-.081 3.902-.406a57.692 57.692 0 004.552-1.219c1.571-.488 3.116-.976 4.633-1.464a49.134 49.134 0 014.064-1.138c1.734-.433 3.143-.596 4.227-.487 1.084.108 1.87.65 2.357 1.625.163.326.163.759 0 1.301-.162.542-.298.948-.406 1.219-.163.38-.325.542-.488.488-.162 0-.189-.19-.081-.569a3.04 3.04 0 00.081-1.219c0-.434-.162-.705-.487-.813-.596-.217-1.328-.298-2.195-.244-.813.108-1.761.244-2.845.406-.921.163-1.951.38-3.089.651s-2.33.569-3.576.894c-1.247.325-2.52.623-3.821.894-1.3.271-2.52.488-3.657.65-4.715.596-8.4-.081-11.055-2.032-1.41-.975-2.195-2.303-2.358-3.983-.162-1.68.163-3.468.976-5.365.975-2.276 2.303-4.768 3.983-7.478a149.162 149.162 0 015.365-8.128 179.835 179.835 0 015.852-8.047 298.09 298.09 0 015.609-7.072 840.35 840.35 0 001.625-1.951 6.57 6.57 0 01-1.056.569c-.325.108-.678.217-1.057.325-.704.217-1.273.163-1.707-.162-.379-.326-.488-.84-.325-1.545.108-.596.271-1.327.488-2.194.271-.867.542-1.599.813-2.195a56.502 56.502 0 001.463-4.552c.487-1.572.812-2.899.975-3.983.163-1.192-.542-1.571-2.113-1.138-1.301.325-2.547.894-3.739 1.707-.271.108-.488.081-.651-.081-.108-.217 0-.407.325-.569 1.138-.596 2.52-1.192 4.146-1.789 1.626-.596 3.089-1.029 4.389-1.3.759-.163 1.22 0 1.382.488.163.433.081 1.056-.244 1.869a345.65 345.65 0 01-1.625 3.902 52.976 52.976 0 00-1.301 3.739l-.813 2.601c-.217.867-.298 1.599-.244 2.195 0 .542.217.867.651.975.433.054.867-.081 1.3-.406.054-.055.136-.082.244-.082 3.468-4.389 6.286-8.318 8.454-11.786 2.221-3.522 3.468-6.584 3.739-9.185.162-1.68-.298-3.089-1.382-4.227-.217-.217-.271-.406-.163-.569.163-.162.38-.108.651.163.65.758 1.246 1.625 1.788 2.601.596.921 1.057 1.788 1.382 2.601z" fill="#9AA37A"/><defs><linearGradient id="paint0_linear_264_1928" x1="19.895" y1="31.831" x2="336.732" y2="122.051" gradientUnits="userSpaceOnUse"><stop offset=".058" stop-color="#EFEBE0"/><stop offset=".976" stop-color="#C0BCB3"/></linearGradient><linearGradient id="paint1_linear_264_1928" x1="137.889" y1="128.831" x2="346.721" y2="166.25" gradientUnits="userSpaceOnUse"><stop offset=".058" stop-color="#EFEBE0"/><stop offset=".976" stop-color="#C0BCB3"/></linearGradient></defs></svg>