<svg width="589" height="205" viewBox="0 0 589 205" fill="none" xmlns="http://www.w3.org/2000/svg">
<path d="M75.7658 75.7072C76.0531 75.7072 76.1967 75.9227 76.1967 76.3536C76.1967 76.7845 76.0531 77 75.7658 77C74.473 77 72.3902 76.9282 69.5174 76.7845C66.7882 76.6409 64.7772 76.5691 63.4844 76.5691C61.9762 76.5691 60.0011 76.6409 57.5592 76.7845C55.2609 76.9282 53.5372 77 52.388 77C52.1007 77 51.9571 76.7845 51.9571 76.3536C51.9571 75.9227 52.1007 75.7072 52.388 75.7072C55.3327 75.7072 57.4514 75.4558 58.7442 74.9531C60.037 74.3785 60.6834 73.4449 60.6834 72.1521C60.6834 71.1466 60.2884 69.7461 59.4983 67.9505L49.3715 46.081H23.7314L16.4056 63.749C15.4001 66.1909 14.8974 68.2019 14.8974 69.782C14.8974 71.8648 15.7592 73.373 17.483 74.3067C19.2067 75.2404 21.9 75.7072 25.5628 75.7072C25.9219 75.7072 26.1015 75.9227 26.1015 76.3536C26.1015 76.7845 25.9219 77 25.5628 77C24.2701 77 22.4027 76.9282 19.9608 76.7845C17.2316 76.6409 14.8615 76.5691 12.8505 76.5691C11.055 76.5691 8.93624 76.6409 6.49432 76.7845C4.33968 76.9282 2.58007 77 1.21546 77C0.856358 77 0.676805 76.7845 0.676805 76.3536C0.676805 75.9227 0.856358 75.7072 1.21546 75.7072C3.22646 75.7072 4.91425 75.3481 6.27885 74.6299C7.71528 73.9117 9.04397 72.6189 10.2649 70.7516C11.5577 68.8842 12.9223 66.2268 14.3587 62.7794L36.8747 8.59035C37.0183 8.37489 37.2338 8.26716 37.5211 8.26716C37.8802 8.26716 38.0956 8.37489 38.1674 8.59035L63.1612 62.2408C64.8131 65.9036 66.2854 68.7047 67.5782 70.6438C68.871 72.5112 70.1279 73.8399 71.3488 74.6299C72.6416 75.3481 74.1139 75.7072 75.7658 75.7072ZM24.5932 44.1418H48.402L35.7973 17.1012L24.5932 44.1418ZM146.141 9.66768C146.356 9.66768 146.464 9.88314 146.464 10.3141C146.464 10.745 146.356 10.9605 146.141 10.9605C143.052 10.9605 140.862 11.7146 139.569 13.2228C138.348 14.7311 137.738 17.3166 137.738 20.9795V78.185C137.738 78.3287 137.558 78.4364 137.199 78.5082C136.84 78.5801 136.589 78.5442 136.445 78.4005L87.7501 18.5017L85.9187 16.4548V65.7959C85.9187 69.4588 86.5292 72.0443 87.7501 73.5526C88.9711 74.989 91.0898 75.7072 94.1063 75.7072C94.3218 75.7072 94.4295 75.9227 94.4295 76.3536C94.4295 76.7845 94.3218 77 94.1063 77C92.3826 77 91.0539 76.9641 90.1202 76.8923L84.9491 76.7845L79.6702 76.8923C78.7366 76.9641 77.3361 77 75.4687 77C75.3251 77 75.2532 76.7845 75.2532 76.3536C75.2532 75.9227 75.3251 75.7072 75.4687 75.7072C78.557 75.7072 80.6757 74.989 81.8249 73.5526C82.974 72.1162 83.5486 69.5306 83.5486 65.7959V14.1924C81.0348 12.0378 78.4493 10.9605 75.7919 10.9605C75.5764 10.9605 75.4687 10.745 75.4687 10.3141C75.4687 9.88314 75.5764 9.66768 75.7919 9.66768L79.6702 9.77541C80.4603 9.84723 81.5735 9.88314 83.0099 9.88314C84.2309 9.88314 85.2364 9.84723 86.0264 9.77541C86.8164 9.70359 87.4269 9.66768 87.8579 9.66768C88.3606 9.66768 88.7556 9.81132 89.0429 10.0986C89.402 10.3141 89.797 10.8168 90.228 11.6068C91.018 12.8996 91.8798 14.1206 92.8135 15.2697L135.368 68.166V20.9795C135.368 17.3166 134.793 14.7311 133.644 13.2228C132.495 11.7146 130.412 10.9605 127.395 10.9605C127.252 10.9605 127.18 10.745 127.18 10.3141C127.18 9.88314 127.252 9.66768 127.395 9.66768L131.489 9.77541C133.644 9.91905 135.368 9.99087 136.66 9.99087C137.881 9.99087 139.641 9.91905 141.939 9.77541L146.141 9.66768ZM218.279 75.7072C218.566 75.7072 218.71 75.9227 218.71 76.3536C218.71 76.7845 218.566 77 218.279 77C216.986 77 214.903 76.9282 212.03 76.7845C209.301 76.6409 207.29 76.5691 205.997 76.5691C204.489 76.5691 202.514 76.6409 200.072 76.7845C197.774 76.9282 196.05 77 194.901 77C194.614 77 194.47 76.7845 194.47 76.3536C194.47 75.9227 194.614 75.7072 194.901 75.7072C197.846 75.7072 199.964 75.4558 201.257 74.9531C202.55 74.3785 203.196 73.4449 203.196 72.1521C203.196 71.1466 202.801 69.7461 202.011 67.9505L191.885 46.081H166.244L158.919 63.749C157.913 66.1909 157.41 68.2019 157.41 69.782C157.41 71.8648 158.272 73.373 159.996 74.3067C161.72 75.2404 164.413 75.7072 168.076 75.7072C168.435 75.7072 168.615 75.9227 168.615 76.3536C168.615 76.7845 168.435 77 168.076 77C166.783 77 164.916 76.9282 162.474 76.7845C159.745 76.6409 157.375 76.5691 155.364 76.5691C153.568 76.5691 151.449 76.6409 149.007 76.7845C146.853 76.9282 145.093 77 143.729 77C143.369 77 143.19 76.7845 143.19 76.3536C143.19 75.9227 143.369 75.7072 143.729 75.7072C145.74 75.7072 147.427 75.3481 148.792 74.6299C150.228 73.9117 151.557 72.6189 152.778 70.7516C154.071 68.8842 155.435 66.2268 156.872 62.7794L179.388 8.59035C179.531 8.37489 179.747 8.26716 180.034 8.26716C180.393 8.26716 180.609 8.37489 180.681 8.59035L205.674 62.2408C207.326 65.9036 208.799 68.7047 210.091 70.6438C211.384 72.5112 212.641 73.8399 213.862 74.6299C215.155 75.3481 216.627 75.7072 218.279 75.7072ZM167.106 44.1418H190.915L178.31 17.1012L167.106 44.1418ZM228.216 22.7032C228.216 25.5761 228.899 28.0539 230.263 30.1367C231.628 32.2195 233.28 33.9791 235.219 35.4156C237.23 36.7802 239.995 38.5039 243.514 40.5867C247.249 42.8131 250.122 44.6805 252.133 46.1887C254.216 47.6252 255.975 49.4925 257.412 51.7908C258.92 54.0891 259.674 56.8542 259.674 60.0861C259.674 63.4617 258.848 66.55 257.196 69.351C255.544 72.0803 253.066 74.2708 249.763 75.9227C246.531 77.5027 242.545 78.2928 237.804 78.2928C235.291 78.2928 232.885 78.0055 230.586 77.4309C228.36 76.9282 225.882 75.9945 223.153 74.6299C222.794 74.4144 222.542 74.1631 222.399 73.8758C222.327 73.5885 222.255 73.1576 222.183 72.583L220.567 58.5779V58.4701C220.567 58.1829 220.747 58.0392 221.106 58.0392C221.465 57.9674 221.681 58.0751 221.752 58.3624C222.471 63.3181 224.374 67.6273 227.462 71.2902C230.55 74.9531 234.788 76.7845 240.175 76.7845C243.981 76.7845 247.177 75.7431 249.763 73.6603C252.42 71.5775 253.749 68.3096 253.749 63.8567C253.749 60.6248 253.031 57.8597 251.594 55.5614C250.158 53.1913 248.398 51.2521 246.315 49.7439C244.304 48.1638 241.539 46.3324 238.02 44.2496C234.572 42.2386 231.843 40.4789 229.832 38.9707C227.893 37.4625 226.205 35.5951 224.769 33.3687C223.404 31.0704 222.722 28.3412 222.722 25.181C222.722 21.59 223.62 18.5376 225.415 16.0238C227.283 13.5101 229.689 11.6428 232.633 10.4218C235.578 9.12901 238.738 8.48262 242.114 8.48262C246.064 8.48262 250.158 9.34448 254.395 11.0682C255.472 11.4991 256.011 12.1096 256.011 12.8996L256.981 24.3192C256.981 24.6065 256.765 24.7501 256.334 24.7501C255.975 24.7501 255.76 24.6065 255.688 24.3192C255.401 20.5845 254 17.2448 251.486 14.3001C248.973 11.3555 245.382 9.88314 240.713 9.88314C236.404 9.88314 233.244 11.14 231.233 13.6537C229.222 16.1675 228.216 19.184 228.216 22.7032ZM279.642 11.4991C275.117 11.4991 271.814 12.5764 269.731 14.7311C267.648 16.8857 266.248 20.7281 265.529 26.2584C265.529 26.402 265.314 26.4738 264.883 26.4738C264.452 26.4738 264.237 26.402 264.237 26.2584C264.524 24.3192 264.847 21.2309 265.206 16.9934C265.565 12.6842 265.745 9.45221 265.745 7.29758C265.745 6.93847 265.96 6.75892 266.391 6.75892C266.822 6.75892 267.038 6.93847 267.038 7.29758C267.038 8.87764 268.941 9.66768 272.747 9.66768C278.924 9.88314 286.142 9.99087 294.401 9.99087C298.639 9.99087 303.128 9.91905 307.868 9.77541L315.194 9.66768C317.779 9.66768 319.682 9.48812 320.903 9.12901C322.124 8.76991 322.914 8.05169 323.274 6.97438C323.345 6.68709 323.561 6.54345 323.92 6.54345C324.279 6.54345 324.459 6.68709 324.459 6.97438C324.243 8.98537 324.028 12.0737 323.812 16.2393C323.597 20.3331 323.489 23.6728 323.489 26.2584C323.489 26.402 323.274 26.4738 322.843 26.4738C322.412 26.4738 322.196 26.402 322.196 26.2584C322.196 22.4518 321.801 19.5072 321.011 17.4244C320.221 15.3415 318.892 13.8333 317.025 12.8996C315.158 11.9659 312.536 11.4991 309.161 11.4991C305.426 11.4991 302.805 11.6428 301.296 11.93C299.788 12.1455 298.747 12.7201 298.172 13.6537C297.669 14.5874 297.418 16.2393 297.418 18.6094V68.2737C297.418 70.5002 297.669 72.1162 298.172 73.1217C298.675 74.1272 299.68 74.8095 301.189 75.1686C302.697 75.5277 305.067 75.7072 308.299 75.7072C308.442 75.7072 308.514 75.9227 308.514 76.3536C308.514 76.7845 308.442 77 308.299 77C305.929 77 304.061 76.9641 302.697 76.8923L294.401 76.7845L286.537 76.8923C285.101 76.9641 283.126 77 280.612 77C280.468 77 280.396 76.7845 280.396 76.3536C280.396 75.9227 280.468 75.7072 280.612 75.7072C283.844 75.7072 286.214 75.5277 287.722 75.1686C289.23 74.8095 290.236 74.1272 290.739 73.1217C291.313 72.0443 291.6 70.4284 291.6 68.2737V18.3939C291.6 16.0238 291.313 14.4079 290.739 13.546C290.164 12.6123 289.123 12.0378 287.614 11.8223C286.178 11.6068 283.521 11.4991 279.642 11.4991ZM390.124 75.7072C390.411 75.7072 390.555 75.9227 390.555 76.3536C390.555 76.7845 390.411 77 390.124 77C388.831 77 386.748 76.9282 383.875 76.7845C381.146 76.6409 379.135 76.5691 377.842 76.5691C376.334 76.5691 374.359 76.6409 371.917 76.7845C369.619 76.9282 367.895 77 366.746 77C366.459 77 366.315 76.7845 366.315 76.3536C366.315 75.9227 366.459 75.7072 366.746 75.7072C369.69 75.7072 371.809 75.4558 373.102 74.9531C374.395 74.3785 375.041 73.4449 375.041 72.1521C375.041 71.1466 374.646 69.7461 373.856 67.9505L363.729 46.081H338.089L330.763 63.749C329.758 66.1909 329.255 68.2019 329.255 69.782C329.255 71.8648 330.117 73.373 331.841 74.3067C333.564 75.2404 336.258 75.7072 339.921 75.7072C340.28 75.7072 340.459 75.9227 340.459 76.3536C340.459 76.7845 340.28 77 339.921 77C338.628 77 336.76 76.9282 334.319 76.7845C331.589 76.6409 329.219 76.5691 327.208 76.5691C325.413 76.5691 323.294 76.6409 320.852 76.7845C318.697 76.9282 316.938 77 315.573 77C315.214 77 315.035 76.7845 315.035 76.3536C315.035 75.9227 315.214 75.7072 315.573 75.7072C317.584 75.7072 319.272 75.3481 320.637 74.6299C322.073 73.9117 323.402 72.6189 324.623 70.7516C325.915 68.8842 327.28 66.2268 328.717 62.7794L351.232 8.59035C351.376 8.37489 351.592 8.26716 351.879 8.26716C352.238 8.26716 352.453 8.37489 352.525 8.59035L377.519 62.2408C379.171 65.9036 380.643 68.7047 381.936 70.6438C383.229 72.5112 384.486 73.8399 385.707 74.6299C386.999 75.3481 388.472 75.7072 390.124 75.7072ZM338.951 44.1418H362.76L350.155 17.1012L338.951 44.1418ZM400.061 22.7032C400.061 25.5761 400.743 28.0539 402.108 30.1367C403.473 32.2195 405.124 33.9791 407.064 35.4156C409.075 36.7802 411.84 38.5039 415.359 40.5867C419.094 42.8131 421.966 44.6805 423.977 46.1887C426.06 47.6252 427.82 49.4925 429.256 51.7908C430.765 54.0891 431.519 56.8542 431.519 60.0861C431.519 63.4617 430.693 66.55 429.041 69.351C427.389 72.0803 424.911 74.2708 421.607 75.9227C418.375 77.5027 414.389 78.2928 409.649 78.2928C407.135 78.2928 404.729 78.0055 402.431 77.4309C400.205 76.9282 397.727 75.9945 394.998 74.6299C394.639 74.4144 394.387 74.1631 394.243 73.8758C394.172 73.5885 394.1 73.1576 394.028 72.583L392.412 58.5779V58.4701C392.412 58.1829 392.592 58.0392 392.951 58.0392C393.31 57.9674 393.525 58.0751 393.597 58.3624C394.315 63.3181 396.219 67.6273 399.307 71.2902C402.395 74.9531 406.633 76.7845 412.019 76.7845C415.826 76.7845 419.022 75.7431 421.607 73.6603C424.265 71.5775 425.593 68.3096 425.593 63.8567C425.593 60.6248 424.875 57.8597 423.439 55.5614C422.002 53.1913 420.243 51.2521 418.16 49.7439C416.149 48.1638 413.384 46.3324 409.865 44.2496C406.417 42.2386 403.688 40.4789 401.677 38.9707C399.738 37.4625 398.05 35.5951 396.614 33.3687C395.249 31.0704 394.567 28.3412 394.567 25.181C394.567 21.59 395.464 18.5376 397.26 16.0238C399.127 13.5101 401.533 11.6428 404.478 10.4218C407.423 9.12901 410.583 8.48262 413.958 8.48262C417.909 8.48262 422.002 9.34448 426.24 11.0682C427.317 11.4991 427.856 12.1096 427.856 12.8996L428.825 24.3192C428.825 24.6065 428.61 24.7501 428.179 24.7501C427.82 24.7501 427.604 24.6065 427.533 24.3192C427.245 20.5845 425.845 17.2448 423.331 14.3001C420.817 11.3555 417.226 9.88314 412.558 9.88314C408.249 9.88314 405.088 11.14 403.077 13.6537C401.067 16.1675 400.061 19.184 400.061 22.7032ZM452.78 68.2737C452.78 70.5002 452.995 72.1162 453.426 73.1217C453.929 74.1272 454.827 74.8095 456.119 75.1686C457.412 75.5277 459.495 75.7072 462.368 75.7072C462.511 75.7072 462.583 75.9227 462.583 76.3536C462.583 76.7845 462.511 77 462.368 77C460.213 77 458.525 76.9641 457.304 76.8923L449.763 76.7845L442.545 76.8923C441.252 76.9641 439.493 77 437.266 77C437.051 77 436.943 76.7845 436.943 76.3536C436.943 75.9227 437.051 75.7072 437.266 75.7072C440.067 75.7072 442.114 75.5277 443.407 75.1686C444.772 74.8095 445.705 74.1272 446.208 73.1217C446.711 72.0443 446.962 70.4284 446.962 68.2737V18.3939C446.962 16.2393 446.711 14.6592 446.208 13.6537C445.705 12.6482 444.772 11.9659 443.407 11.6068C442.114 11.1759 440.067 10.9605 437.266 10.9605C437.051 10.9605 436.943 10.745 436.943 10.3141C436.943 9.88314 437.051 9.66768 437.266 9.66768L442.545 9.77541C445.562 9.91905 447.968 9.99087 449.763 9.99087C451.774 9.99087 454.288 9.91905 457.304 9.77541L462.368 9.66768C462.511 9.66768 462.583 9.88314 462.583 10.3141C462.583 10.745 462.511 10.9605 462.368 10.9605C459.567 10.9605 457.484 11.1759 456.119 11.6068C454.827 12.0378 453.929 12.7919 453.426 13.8692C452.995 14.8747 452.78 16.4548 452.78 18.6094V68.2737ZM537.034 75.7072C537.322 75.7072 537.465 75.9227 537.465 76.3536C537.465 76.7845 537.322 77 537.034 77C535.742 77 533.659 76.9282 530.786 76.7845C528.057 76.6409 526.046 76.5691 524.753 76.5691C523.245 76.5691 521.27 76.6409 518.828 76.7845C516.529 76.9282 514.806 77 513.657 77C513.369 77 513.226 76.7845 513.226 76.3536C513.226 75.9227 513.369 75.7072 513.657 75.7072C516.601 75.7072 518.72 75.4558 520.013 74.9531C521.305 74.3785 521.952 73.4449 521.952 72.1521C521.952 71.1466 521.557 69.7461 520.767 67.9505L510.64 46.081H485L477.674 63.749C476.669 66.1909 476.166 68.2019 476.166 69.782C476.166 71.8648 477.028 73.373 478.751 74.3067C480.475 75.2404 483.168 75.7072 486.831 75.7072C487.19 75.7072 487.37 75.9227 487.37 76.3536C487.37 76.7845 487.19 77 486.831 77C485.539 77 483.671 76.9282 481.229 76.7845C478.5 76.6409 476.13 76.5691 474.119 76.5691C472.323 76.5691 470.205 76.6409 467.763 76.7845C465.608 76.9282 463.849 77 462.484 77C462.125 77 461.945 76.7845 461.945 76.3536C461.945 75.9227 462.125 75.7072 462.484 75.7072C464.495 75.7072 466.183 75.3481 467.547 74.6299C468.984 73.9117 470.312 72.6189 471.533 70.7516C472.826 68.8842 474.191 66.2268 475.627 62.7794L498.143 8.59035C498.287 8.37489 498.502 8.26716 498.79 8.26716C499.149 8.26716 499.364 8.37489 499.436 8.59035L524.43 62.2408C526.082 65.9036 527.554 68.7047 528.847 70.6438C530.139 72.5112 531.396 73.8399 532.617 74.6299C533.91 75.3481 535.382 75.7072 537.034 75.7072ZM485.862 44.1418H509.67L497.066 17.1012L485.862 44.1418ZM531.748 8.59035C533.831 8.59035 535.447 9.38039 536.596 10.9605C537.817 12.4687 538.427 14.6592 538.427 17.5321C538.427 20.3331 537.781 22.9187 536.488 25.2888C535.267 27.6589 533.436 30.029 530.994 32.3991C530.922 32.4709 530.814 32.5068 530.671 32.5068C530.455 32.5068 530.276 32.3991 530.132 32.1836C529.988 31.9681 529.988 31.7886 530.132 31.6449C533.651 28.0539 535.411 23.8164 535.411 18.9326C535.411 17.0653 535.052 15.5929 534.333 14.5156C533.831 15.5929 532.789 16.1316 531.209 16.1316C529.988 16.1316 529.019 15.8084 528.3 15.162C527.654 14.4438 527.331 13.5101 527.331 12.361C527.331 9.84722 528.803 8.59035 531.748 8.59035ZM550.633 22.7032C550.633 25.5761 551.315 28.0539 552.68 30.1367C554.044 32.2195 555.696 33.9791 557.635 35.4156C559.646 36.7802 562.412 38.5039 565.931 40.5867C569.666 42.8131 572.538 44.6805 574.549 46.1887C576.632 47.6252 578.392 49.4925 579.828 51.7908C581.336 54.0891 582.091 56.8542 582.091 60.0861C582.091 63.4617 581.265 66.55 579.613 69.351C577.961 72.0803 575.483 74.2708 572.179 75.9227C568.947 77.5027 564.961 78.2928 560.221 78.2928C557.707 78.2928 555.301 78.0055 553.003 77.4309C550.777 76.9282 548.299 75.9945 545.57 74.6299C545.21 74.4144 544.959 74.1631 544.815 73.8758C544.744 73.5885 544.672 73.1576 544.6 72.583L542.984 58.5779V58.4701C542.984 58.1829 543.164 58.0392 543.523 58.0392C543.882 57.9674 544.097 58.0751 544.169 58.3624C544.887 63.3181 546.79 67.6273 549.879 71.2902C552.967 74.9531 557.205 76.7845 562.591 76.7845C566.398 76.7845 569.594 75.7431 572.179 73.6603C574.837 71.5775 576.165 68.3096 576.165 63.8567C576.165 60.6248 575.447 57.8597 574.011 55.5614C572.574 53.1913 570.815 51.2521 568.732 49.7439C566.721 48.1638 563.956 46.3324 560.436 44.2496C556.989 42.2386 554.26 40.4789 552.249 38.9707C550.31 37.4625 548.622 35.5951 547.185 33.3687C545.821 31.0704 545.139 28.3412 545.139 25.181C545.139 21.59 546.036 18.5376 547.832 16.0238C549.699 13.5101 552.105 11.6428 555.05 10.4218C557.995 9.12901 561.155 8.48262 564.53 8.48262C568.48 8.48262 572.574 9.34448 576.812 11.0682C577.889 11.4991 578.428 12.1096 578.428 12.8996L579.397 24.3192C579.397 24.6065 579.182 24.7501 578.751 24.7501C578.392 24.7501 578.176 24.6065 578.104 24.3192C577.817 20.5845 576.417 17.2448 573.903 14.3001C571.389 11.3555 567.798 9.88314 563.13 9.88314C558.821 9.88314 555.66 11.14 553.649 13.6537C551.638 16.1675 550.633 19.184 550.633 22.7032Z" fill="#EBE7DD"/>
<path d="M75.7658 75.7072C76.0531 75.7072 76.1967 75.9227 76.1967 76.3536C76.1967 76.7845 76.0531 77 75.7658 77C74.473 77 72.3902 76.9282 69.5174 76.7845C66.7882 76.6409 64.7772 76.5691 63.4844 76.5691C61.9762 76.5691 60.0011 76.6409 57.5592 76.7845C55.2609 76.9282 53.5372 77 52.388 77C52.1007 77 51.9571 76.7845 51.9571 76.3536C51.9571 75.9227 52.1007 75.7072 52.388 75.7072C55.3327 75.7072 57.4514 75.4558 58.7442 74.9531C60.037 74.3785 60.6834 73.4449 60.6834 72.1521C60.6834 71.1466 60.2884 69.7461 59.4983 67.9505L49.3715 46.081H23.7314L16.4056 63.749C15.4001 66.1909 14.8974 68.2019 14.8974 69.782C14.8974 71.8648 15.7592 73.373 17.483 74.3067C19.2067 75.2404 21.9 75.7072 25.5628 75.7072C25.9219 75.7072 26.1015 75.9227 26.1015 76.3536C26.1015 76.7845 25.9219 77 25.5628 77C24.2701 77 22.4027 76.9282 19.9608 76.7845C17.2316 76.6409 14.8615 76.5691 12.8505 76.5691C11.055 76.5691 8.93624 76.6409 6.49432 76.7845C4.33968 76.9282 2.58007 77 1.21546 77C0.856358 77 0.676805 76.7845 0.676805 76.3536C0.676805 75.9227 0.856358 75.7072 1.21546 75.7072C3.22646 75.7072 4.91425 75.3481 6.27885 74.6299C7.71528 73.9117 9.04397 72.6189 10.2649 70.7516C11.5577 68.8842 12.9223 66.2268 14.3587 62.7794L36.8747 8.59035C37.0183 8.37489 37.2338 8.26716 37.5211 8.26716C37.8802 8.26716 38.0956 8.37489 38.1674 8.59035L63.1612 62.2408C64.8131 65.9036 66.2854 68.7047 67.5782 70.6438C68.871 72.5112 70.1279 73.8399 71.3488 74.6299C72.6416 75.3481 74.1139 75.7072 75.7658 75.7072ZM24.5932 44.1418H48.402L35.7973 17.1012L24.5932 44.1418ZM146.141 9.66768C146.356 9.66768 146.464 9.88314 146.464 10.3141C146.464 10.745 146.356 10.9605 146.141 10.9605C143.052 10.9605 140.862 11.7146 139.569 13.2228C138.348 14.7311 137.738 17.3166 137.738 20.9795V78.185C137.738 78.3287 137.558 78.4364 137.199 78.5082C136.84 78.5801 136.589 78.5442 136.445 78.4005L87.7501 18.5017L85.9187 16.4548V65.7959C85.9187 69.4588 86.5292 72.0443 87.7501 73.5526C88.9711 74.989 91.0898 75.7072 94.1063 75.7072C94.3218 75.7072 94.4295 75.9227 94.4295 76.3536C94.4295 76.7845 94.3218 77 94.1063 77C92.3826 77 91.0539 76.9641 90.1202 76.8923L84.9491 76.7845L79.6702 76.8923C78.7366 76.9641 77.3361 77 75.4687 77C75.3251 77 75.2532 76.7845 75.2532 76.3536C75.2532 75.9227 75.3251 75.7072 75.4687 75.7072C78.557 75.7072 80.6757 74.989 81.8249 73.5526C82.974 72.1162 83.5486 69.5306 83.5486 65.7959V14.1924C81.0348 12.0378 78.4493 10.9605 75.7919 10.9605C75.5764 10.9605 75.4687 10.745 75.4687 10.3141C75.4687 9.88314 75.5764 9.66768 75.7919 9.66768L79.6702 9.77541C80.4603 9.84723 81.5735 9.88314 83.0099 9.88314C84.2309 9.88314 85.2364 9.84723 86.0264 9.77541C86.8164 9.70359 87.4269 9.66768 87.8579 9.66768C88.3606 9.66768 88.7556 9.81132 89.0429 10.0986C89.402 10.3141 89.797 10.8168 90.228 11.6068C91.018 12.8996 91.8798 14.1206 92.8135 15.2697L135.368 68.166V20.9795C135.368 17.3166 134.793 14.7311 133.644 13.2228C132.495 11.7146 130.412 10.9605 127.395 10.9605C127.252 10.9605 127.18 10.745 127.18 10.3141C127.18 9.88314 127.252 9.66768 127.395 9.66768L131.489 9.77541C133.644 9.91905 135.368 9.99087 136.66 9.99087C137.881 9.99087 139.641 9.91905 141.939 9.77541L146.141 9.66768ZM218.279 75.7072C218.566 75.7072 218.71 75.9227 218.71 76.3536C218.71 76.7845 218.566 77 218.279 77C216.986 77 214.903 76.9282 212.03 76.7845C209.301 76.6409 207.29 76.5691 205.997 76.5691C204.489 76.5691 202.514 76.6409 200.072 76.7845C197.774 76.9282 196.05 77 194.901 77C194.614 77 194.47 76.7845 194.47 76.3536C194.47 75.9227 194.614 75.7072 194.901 75.7072C197.846 75.7072 199.964 75.4558 201.257 74.9531C202.55 74.3785 203.196 73.4449 203.196 72.1521C203.196 71.1466 202.801 69.7461 202.011 67.9505L191.885 46.081H166.244L158.919 63.749C157.913 66.1909 157.41 68.2019 157.41 69.782C157.41 71.8648 158.272 73.373 159.996 74.3067C161.72 75.2404 164.413 75.7072 168.076 75.7072C168.435 75.7072 168.615 75.9227 168.615 76.3536C168.615 76.7845 168.435 77 168.076 77C166.783 77 164.916 76.9282 162.474 76.7845C159.745 76.6409 157.375 76.5691 155.364 76.5691C153.568 76.5691 151.449 76.6409 149.007 76.7845C146.853 76.9282 145.093 77 143.729 77C143.369 77 143.19 76.7845 143.19 76.3536C143.19 75.9227 143.369 75.7072 143.729 75.7072C145.74 75.7072 147.427 75.3481 148.792 74.6299C150.228 73.9117 151.557 72.6189 152.778 70.7516C154.071 68.8842 155.435 66.2268 156.872 62.7794L179.388 8.59035C179.531 8.37489 179.747 8.26716 180.034 8.26716C180.393 8.26716 180.609 8.37489 180.681 8.59035L205.674 62.2408C207.326 65.9036 208.799 68.7047 210.091 70.6438C211.384 72.5112 212.641 73.8399 213.862 74.6299C215.155 75.3481 216.627 75.7072 218.279 75.7072ZM167.106 44.1418H190.915L178.31 17.1012L167.106 44.1418ZM228.216 22.7032C228.216 25.5761 228.899 28.0539 230.263 30.1367C231.628 32.2195 233.28 33.9791 235.219 35.4156C237.23 36.7802 239.995 38.5039 243.514 40.5867C247.249 42.8131 250.122 44.6805 252.133 46.1887C254.216 47.6252 255.975 49.4925 257.412 51.7908C258.92 54.0891 259.674 56.8542 259.674 60.0861C259.674 63.4617 258.848 66.55 257.196 69.351C255.544 72.0803 253.066 74.2708 249.763 75.9227C246.531 77.5027 242.545 78.2928 237.804 78.2928C235.291 78.2928 232.885 78.0055 230.586 77.4309C228.36 76.9282 225.882 75.9945 223.153 74.6299C222.794 74.4144 222.542 74.1631 222.399 73.8758C222.327 73.5885 222.255 73.1576 222.183 72.583L220.567 58.5779V58.4701C220.567 58.1829 220.747 58.0392 221.106 58.0392C221.465 57.9674 221.681 58.0751 221.752 58.3624C222.471 63.3181 224.374 67.6273 227.462 71.2902C230.55 74.9531 234.788 76.7845 240.175 76.7845C243.981 76.7845 247.177 75.7431 249.763 73.6603C252.42 71.5775 253.749 68.3096 253.749 63.8567C253.749 60.6248 253.031 57.8597 251.594 55.5614C250.158 53.1913 248.398 51.2521 246.315 49.7439C244.304 48.1638 241.539 46.3324 238.02 44.2496C234.572 42.2386 231.843 40.4789 229.832 38.9707C227.893 37.4625 226.205 35.5951 224.769 33.3687C223.404 31.0704 222.722 28.3412 222.722 25.181C222.722 21.59 223.62 18.5376 225.415 16.0238C227.283 13.5101 229.689 11.6428 232.633 10.4218C235.578 9.12901 238.738 8.48262 242.114 8.48262C246.064 8.48262 250.158 9.34448 254.395 11.0682C255.472 11.4991 256.011 12.1096 256.011 12.8996L256.981 24.3192C256.981 24.6065 256.765 24.7501 256.334 24.7501C255.975 24.7501 255.76 24.6065 255.688 24.3192C255.401 20.5845 254 17.2448 251.486 14.3001C248.973 11.3555 245.382 9.88314 240.713 9.88314C236.404 9.88314 233.244 11.14 231.233 13.6537C229.222 16.1675 228.216 19.184 228.216 22.7032ZM279.642 11.4991C275.117 11.4991 271.814 12.5764 269.731 14.7311C267.648 16.8857 266.248 20.7281 265.529 26.2584C265.529 26.402 265.314 26.4738 264.883 26.4738C264.452 26.4738 264.237 26.402 264.237 26.2584C264.524 24.3192 264.847 21.2309 265.206 16.9934C265.565 12.6842 265.745 9.45221 265.745 7.29758C265.745 6.93847 265.96 6.75892 266.391 6.75892C266.822 6.75892 267.038 6.93847 267.038 7.29758C267.038 8.87764 268.941 9.66768 272.747 9.66768C278.924 9.88314 286.142 9.99087 294.401 9.99087C298.639 9.99087 303.128 9.91905 307.868 9.77541L315.194 9.66768C317.779 9.66768 319.682 9.48812 320.903 9.12901C322.124 8.76991 322.914 8.05169 323.274 6.97438C323.345 6.68709 323.561 6.54345 323.92 6.54345C324.279 6.54345 324.459 6.68709 324.459 6.97438C324.243 8.98537 324.028 12.0737 323.812 16.2393C323.597 20.3331 323.489 23.6728 323.489 26.2584C323.489 26.402 323.274 26.4738 322.843 26.4738C322.412 26.4738 322.196 26.402 322.196 26.2584C322.196 22.4518 321.801 19.5072 321.011 17.4244C320.221 15.3415 318.892 13.8333 317.025 12.8996C315.158 11.9659 312.536 11.4991 309.161 11.4991C305.426 11.4991 302.805 11.6428 301.296 11.93C299.788 12.1455 298.747 12.7201 298.172 13.6537C297.669 14.5874 297.418 16.2393 297.418 18.6094V68.2737C297.418 70.5002 297.669 72.1162 298.172 73.1217C298.675 74.1272 299.68 74.8095 301.189 75.1686C302.697 75.5277 305.067 75.7072 308.299 75.7072C308.442 75.7072 308.514 75.9227 308.514 76.3536C308.514 76.7845 308.442 77 308.299 77C305.929 77 304.061 76.9641 302.697 76.8923L294.401 76.7845L286.537 76.8923C285.101 76.9641 283.126 77 280.612 77C280.468 77 280.396 76.7845 280.396 76.3536C280.396 75.9227 280.468 75.7072 280.612 75.7072C283.844 75.7072 286.214 75.5277 287.722 75.1686C289.23 74.8095 290.236 74.1272 290.739 73.1217C291.313 72.0443 291.6 70.4284 291.6 68.2737V18.3939C291.6 16.0238 291.313 14.4079 290.739 13.546C290.164 12.6123 289.123 12.0378 287.614 11.8223C286.178 11.6068 283.521 11.4991 279.642 11.4991ZM390.124 75.7072C390.411 75.7072 390.555 75.9227 390.555 76.3536C390.555 76.7845 390.411 77 390.124 77C388.831 77 386.748 76.9282 383.875 76.7845C381.146 76.6409 379.135 76.5691 377.842 76.5691C376.334 76.5691 374.359 76.6409 371.917 76.7845C369.619 76.9282 367.895 77 366.746 77C366.459 77 366.315 76.7845 366.315 76.3536C366.315 75.9227 366.459 75.7072 366.746 75.7072C369.69 75.7072 371.809 75.4558 373.102 74.9531C374.395 74.3785 375.041 73.4449 375.041 72.1521C375.041 71.1466 374.646 69.7461 373.856 67.9505L363.729 46.081H338.089L330.763 63.749C329.758 66.1909 329.255 68.2019 329.255 69.782C329.255 71.8648 330.117 73.373 331.841 74.3067C333.564 75.2404 336.258 75.7072 339.921 75.7072C340.28 75.7072 340.459 75.9227 340.459 76.3536C340.459 76.7845 340.28 77 339.921 77C338.628 77 336.76 76.9282 334.319 76.7845C331.589 76.6409 329.219 76.5691 327.208 76.5691C325.413 76.5691 323.294 76.6409 320.852 76.7845C318.697 76.9282 316.938 77 315.573 77C315.214 77 315.035 76.7845 315.035 76.3536C315.035 75.9227 315.214 75.7072 315.573 75.7072C317.584 75.7072 319.272 75.3481 320.637 74.6299C322.073 73.9117 323.402 72.6189 324.623 70.7516C325.915 68.8842 327.28 66.2268 328.717 62.7794L351.232 8.59035C351.376 8.37489 351.592 8.26716 351.879 8.26716C352.238 8.26716 352.453 8.37489 352.525 8.59035L377.519 62.2408C379.171 65.9036 380.643 68.7047 381.936 70.6438C383.229 72.5112 384.486 73.8399 385.707 74.6299C386.999 75.3481 388.472 75.7072 390.124 75.7072ZM338.951 44.1418H362.76L350.155 17.1012L338.951 44.1418ZM400.061 22.7032C400.061 25.5761 400.743 28.0539 402.108 30.1367C403.473 32.2195 405.124 33.9791 407.064 35.4156C409.075 36.7802 411.84 38.5039 415.359 40.5867C419.094 42.8131 421.966 44.6805 423.977 46.1887C426.06 47.6252 427.82 49.4925 429.256 51.7908C430.765 54.0891 431.519 56.8542 431.519 60.0861C431.519 63.4617 430.693 66.55 429.041 69.351C427.389 72.0803 424.911 74.2708 421.607 75.9227C418.375 77.5027 414.389 78.2928 409.649 78.2928C407.135 78.2928 404.729 78.0055 402.431 77.4309C400.205 76.9282 397.727 75.9945 394.998 74.6299C394.639 74.4144 394.387 74.1631 394.243 73.8758C394.172 73.5885 394.1 73.1576 394.028 72.583L392.412 58.5779V58.4701C392.412 58.1829 392.592 58.0392 392.951 58.0392C393.31 57.9674 393.525 58.0751 393.597 58.3624C394.315 63.3181 396.219 67.6273 399.307 71.2902C402.395 74.9531 406.633 76.7845 412.019 76.7845C415.826 76.7845 419.022 75.7431 421.607 73.6603C424.265 71.5775 425.593 68.3096 425.593 63.8567C425.593 60.6248 424.875 57.8597 423.439 55.5614C422.002 53.1913 420.243 51.2521 418.16 49.7439C416.149 48.1638 413.384 46.3324 409.865 44.2496C406.417 42.2386 403.688 40.4789 401.677 38.9707C399.738 37.4625 398.05 35.5951 396.614 33.3687C395.249 31.0704 394.567 28.3412 394.567 25.181C394.567 21.59 395.464 18.5376 397.26 16.0238C399.127 13.5101 401.533 11.6428 404.478 10.4218C407.423 9.12901 410.583 8.48262 413.958 8.48262C417.909 8.48262 422.002 9.34448 426.24 11.0682C427.317 11.4991 427.856 12.1096 427.856 12.8996L428.825 24.3192C428.825 24.6065 428.61 24.7501 428.179 24.7501C427.82 24.7501 427.604 24.6065 427.533 24.3192C427.245 20.5845 425.845 17.2448 423.331 14.3001C420.817 11.3555 417.226 9.88314 412.558 9.88314C408.249 9.88314 405.088 11.14 403.077 13.6537C401.067 16.1675 400.061 19.184 400.061 22.7032ZM452.78 68.2737C452.78 70.5002 452.995 72.1162 453.426 73.1217C453.929 74.1272 454.827 74.8095 456.119 75.1686C457.412 75.5277 459.495 75.7072 462.368 75.7072C462.511 75.7072 462.583 75.9227 462.583 76.3536C462.583 76.7845 462.511 77 462.368 77C460.213 77 458.525 76.9641 457.304 76.8923L449.763 76.7845L442.545 76.8923C441.252 76.9641 439.493 77 437.266 77C437.051 77 436.943 76.7845 436.943 76.3536C436.943 75.9227 437.051 75.7072 437.266 75.7072C440.067 75.7072 442.114 75.5277 443.407 75.1686C444.772 74.8095 445.705 74.1272 446.208 73.1217C446.711 72.0443 446.962 70.4284 446.962 68.2737V18.3939C446.962 16.2393 446.711 14.6592 446.208 13.6537C445.705 12.6482 444.772 11.9659 443.407 11.6068C442.114 11.1759 440.067 10.9605 437.266 10.9605C437.051 10.9605 436.943 10.745 436.943 10.3141C436.943 9.88314 437.051 9.66768 437.266 9.66768L442.545 9.77541C445.562 9.91905 447.968 9.99087 449.763 9.99087C451.774 9.99087 454.288 9.91905 457.304 9.77541L462.368 9.66768C462.511 9.66768 462.583 9.88314 462.583 10.3141C462.583 10.745 462.511 10.9605 462.368 10.9605C459.567 10.9605 457.484 11.1759 456.119 11.6068C454.827 12.0378 453.929 12.7919 453.426 13.8692C452.995 14.8747 452.78 16.4548 452.78 18.6094V68.2737ZM537.034 75.7072C537.322 75.7072 537.465 75.9227 537.465 76.3536C537.465 76.7845 537.322 77 537.034 77C535.742 77 533.659 76.9282 530.786 76.7845C528.057 76.6409 526.046 76.5691 524.753 76.5691C523.245 76.5691 521.27 76.6409 518.828 76.7845C516.529 76.9282 514.806 77 513.657 77C513.369 77 513.226 76.7845 513.226 76.3536C513.226 75.9227 513.369 75.7072 513.657 75.7072C516.601 75.7072 518.72 75.4558 520.013 74.9531C521.305 74.3785 521.952 73.4449 521.952 72.1521C521.952 71.1466 521.557 69.7461 520.767 67.9505L510.64 46.081H485L477.674 63.749C476.669 66.1909 476.166 68.2019 476.166 69.782C476.166 71.8648 477.028 73.373 478.751 74.3067C480.475 75.2404 483.168 75.7072 486.831 75.7072C487.19 75.7072 487.37 75.9227 487.37 76.3536C487.37 76.7845 487.19 77 486.831 77C485.539 77 483.671 76.9282 481.229 76.7845C478.5 76.6409 476.13 76.5691 474.119 76.5691C472.323 76.5691 470.205 76.6409 467.763 76.7845C465.608 76.9282 463.849 77 462.484 77C462.125 77 461.945 76.7845 461.945 76.3536C461.945 75.9227 462.125 75.7072 462.484 75.7072C464.495 75.7072 466.183 75.3481 467.547 74.6299C468.984 73.9117 470.312 72.6189 471.533 70.7516C472.826 68.8842 474.191 66.2268 475.627 62.7794L498.143 8.59035C498.287 8.37489 498.502 8.26716 498.79 8.26716C499.149 8.26716 499.364 8.37489 499.436 8.59035L524.43 62.2408C526.082 65.9036 527.554 68.7047 528.847 70.6438C530.139 72.5112 531.396 73.8399 532.617 74.6299C533.91 75.3481 535.382 75.7072 537.034 75.7072ZM485.862 44.1418H509.67L497.066 17.1012L485.862 44.1418ZM531.748 8.59035C533.831 8.59035 535.447 9.38039 536.596 10.9605C537.817 12.4687 538.427 14.6592 538.427 17.5321C538.427 20.3331 537.781 22.9187 536.488 25.2888C535.267 27.6589 533.436 30.029 530.994 32.3991C530.922 32.4709 530.814 32.5068 530.671 32.5068C530.455 32.5068 530.276 32.3991 530.132 32.1836C529.988 31.9681 529.988 31.7886 530.132 31.6449C533.651 28.0539 535.411 23.8164 535.411 18.9326C535.411 17.0653 535.052 15.5929 534.333 14.5156C533.831 15.5929 532.789 16.1316 531.209 16.1316C529.988 16.1316 529.019 15.8084 528.3 15.162C527.654 14.4438 527.331 13.5101 527.331 12.361C527.331 9.84722 528.803 8.59035 531.748 8.59035ZM550.633 22.7032C550.633 25.5761 551.315 28.0539 552.68 30.1367C554.044 32.2195 555.696 33.9791 557.635 35.4156C559.646 36.7802 562.412 38.5039 565.931 40.5867C569.666 42.8131 572.538 44.6805 574.549 46.1887C576.632 47.6252 578.392 49.4925 579.828 51.7908C581.336 54.0891 582.091 56.8542 582.091 60.0861C582.091 63.4617 581.265 66.55 579.613 69.351C577.961 72.0803 575.483 74.2708 572.179 75.9227C568.947 77.5027 564.961 78.2928 560.221 78.2928C557.707 78.2928 555.301 78.0055 553.003 77.4309C550.777 76.9282 548.299 75.9945 545.57 74.6299C545.21 74.4144 544.959 74.1631 544.815 73.8758C544.744 73.5885 544.672 73.1576 544.6 72.583L542.984 58.5779V58.4701C542.984 58.1829 543.164 58.0392 543.523 58.0392C543.882 57.9674 544.097 58.0751 544.169 58.3624C544.887 63.3181 546.79 67.6273 549.879 71.2902C552.967 74.9531 557.205 76.7845 562.591 76.7845C566.398 76.7845 569.594 75.7431 572.179 73.6603C574.837 71.5775 576.165 68.3096 576.165 63.8567C576.165 60.6248 575.447 57.8597 574.011 55.5614C572.574 53.1913 570.815 51.2521 568.732 49.7439C566.721 48.1638 563.956 46.3324 560.436 44.2496C556.989 42.2386 554.26 40.4789 552.249 38.9707C550.31 37.4625 548.622 35.5951 547.185 33.3687C545.821 31.0704 545.139 28.3412 545.139 25.181C545.139 21.59 546.036 18.5376 547.832 16.0238C549.699 13.5101 552.105 11.6428 555.05 10.4218C557.995 9.12901 561.155 8.48262 564.53 8.48262C568.48 8.48262 572.574 9.34448 576.812 11.0682C577.889 11.4991 578.428 12.1096 578.428 12.8996L579.397 24.3192C579.397 24.6065 579.182 24.7501 578.751 24.7501C578.392 24.7501 578.176 24.6065 578.104 24.3192C577.817 20.5845 576.417 17.2448 573.903 14.3001C571.389 11.3555 567.798 9.88314 563.13 9.88314C558.821 9.88314 555.66 11.14 553.649 13.6537C551.638 16.1675 550.633 19.184 550.633 22.7032Z" fill="url(#paint0_linear_264_1928)"/>
<path d="M200.766 172.707C201.053 172.707 201.197 172.923 201.197 173.354C201.197 173.785 201.053 174 200.766 174C199.473 174 197.39 173.928 194.517 173.785C191.788 173.641 189.777 173.569 188.484 173.569C186.976 173.569 185.001 173.641 182.559 173.785C180.261 173.928 178.537 174 177.388 174C177.101 174 176.957 173.785 176.957 173.354C176.957 172.923 177.101 172.707 177.388 172.707C180.333 172.707 182.451 172.456 183.744 171.953C185.037 171.379 185.683 170.445 185.683 169.152C185.683 168.147 185.288 166.746 184.498 164.951L174.372 143.081H148.731L141.406 160.749C140.4 163.191 139.897 165.202 139.897 166.782C139.897 168.865 140.759 170.373 142.483 171.307C144.207 172.24 146.9 172.707 150.563 172.707C150.922 172.707 151.101 172.923 151.101 173.354C151.101 173.785 150.922 174 150.563 174C149.27 174 147.403 173.928 144.961 173.785C142.232 173.641 139.861 173.569 137.85 173.569C136.055 173.569 133.936 173.641 131.494 173.785C129.34 173.928 127.58 174 126.215 174C125.856 174 125.677 173.785 125.677 173.354C125.677 172.923 125.856 172.707 126.215 172.707C128.226 172.707 129.914 172.348 131.279 171.63C132.715 170.912 134.044 169.619 135.265 167.752C136.558 165.884 137.922 163.227 139.359 159.779L161.875 105.59C162.018 105.375 162.234 105.267 162.521 105.267C162.88 105.267 163.096 105.375 163.167 105.59L188.161 159.241C189.813 162.904 191.285 165.705 192.578 167.644C193.871 169.511 195.128 170.84 196.349 171.63C197.642 172.348 199.114 172.707 200.766 172.707ZM149.593 141.142H173.402L160.797 114.101L149.593 141.142ZM271.141 106.668C271.356 106.668 271.464 106.883 271.464 107.314C271.464 107.745 271.356 107.96 271.141 107.96C268.052 107.96 265.862 108.715 264.569 110.223C263.348 111.731 262.738 114.317 262.738 117.98V175.185C262.738 175.329 262.558 175.436 262.199 175.508C261.84 175.58 261.589 175.544 261.445 175.401L212.75 115.502L210.919 113.455V162.796C210.919 166.459 211.529 169.044 212.75 170.553C213.971 171.989 216.09 172.707 219.106 172.707C219.322 172.707 219.429 172.923 219.429 173.354C219.429 173.785 219.322 174 219.106 174C217.383 174 216.054 173.964 215.12 173.892L209.949 173.785L204.67 173.892C203.737 173.964 202.336 174 200.469 174C200.325 174 200.253 173.785 200.253 173.354C200.253 172.923 200.325 172.707 200.469 172.707C203.557 172.707 205.676 171.989 206.825 170.553C207.974 169.116 208.549 166.531 208.549 162.796V111.192C206.035 109.038 203.449 107.96 200.792 107.96C200.576 107.96 200.469 107.745 200.469 107.314C200.469 106.883 200.576 106.668 200.792 106.668L204.67 106.775C205.46 106.847 206.574 106.883 208.01 106.883C209.231 106.883 210.236 106.847 211.026 106.775C211.816 106.704 212.427 106.668 212.858 106.668C213.361 106.668 213.756 106.811 214.043 107.099C214.402 107.314 214.797 107.817 215.228 108.607C216.018 109.9 216.88 111.121 217.814 112.27L260.368 165.166V117.98C260.368 114.317 259.793 111.731 258.644 110.223C257.495 108.715 255.412 107.96 252.395 107.96C252.252 107.96 252.18 107.745 252.18 107.314C252.18 106.883 252.252 106.668 252.395 106.668L256.489 106.775C258.644 106.919 260.368 106.991 261.66 106.991C262.881 106.991 264.641 106.919 266.939 106.775L271.141 106.668ZM312.144 175.293C304.316 175.293 297.493 173.713 291.675 170.553C285.93 167.321 281.513 163.011 278.424 157.625C275.336 152.166 273.792 146.205 273.792 139.741C273.792 132.775 275.516 126.706 278.963 121.535C282.482 116.364 287.258 112.413 293.291 109.684C299.396 106.883 306.219 105.483 313.76 105.483C317.711 105.483 321.338 105.878 324.641 106.668C327.945 107.458 330.746 108.571 333.044 110.007C333.547 110.366 333.834 110.654 333.906 110.869C333.978 111.013 334.05 111.516 334.122 112.377L335.414 124.443C335.414 124.659 335.199 124.803 334.768 124.874C334.409 124.946 334.194 124.874 334.122 124.659C332.542 118.698 330.028 114.281 326.58 111.408C323.205 108.535 318.429 107.099 312.252 107.099C306.291 107.099 300.94 108.391 296.2 110.977C291.46 113.491 287.725 117.118 284.996 121.858C282.267 126.526 280.902 132.021 280.902 138.341C280.902 144.302 282.123 149.976 284.565 155.362C287.079 160.749 290.885 165.166 295.985 168.613C301.156 172.061 307.512 173.785 315.053 173.785C320.368 173.785 324.103 172.779 326.257 170.768C328.484 168.685 329.597 165.274 329.597 160.534C329.597 156.799 329.346 154.213 328.843 152.777C328.34 151.269 327.263 150.263 325.611 149.76C323.959 149.258 321.086 149.006 316.992 149.006C316.561 149.006 316.346 148.719 316.346 148.144C316.346 147.929 316.382 147.749 316.454 147.606C316.597 147.39 316.741 147.283 316.885 147.283C322.415 147.642 326.868 147.821 330.243 147.821C333.475 147.821 336.923 147.713 340.586 147.498C340.729 147.498 340.837 147.606 340.909 147.821C341.052 147.965 341.124 148.108 341.124 148.252C341.124 148.755 340.945 149.006 340.586 149.006C338.718 148.934 337.39 149.186 336.6 149.76C335.809 150.263 335.307 151.34 335.091 152.992C334.876 154.644 334.768 157.517 334.768 161.611C334.768 164.843 334.876 167.141 335.091 168.506C335.379 169.87 335.522 170.732 335.522 171.091C335.522 171.522 335.45 171.809 335.307 171.953C335.163 172.097 334.84 172.24 334.337 172.384C325.647 174.323 318.249 175.293 312.144 175.293ZM390.141 158.271C390.141 158.056 390.356 157.984 390.787 158.056C391.218 158.056 391.433 158.163 391.433 158.379C390.787 162.904 390.464 167.572 390.464 172.384C390.464 172.959 390.32 173.39 390.033 173.677C389.817 173.892 389.386 174 388.74 174H344.247C344.103 174 344.031 173.785 344.031 173.354C344.031 172.923 344.103 172.707 344.247 172.707C347.048 172.707 349.095 172.528 350.387 172.169C351.752 171.809 352.65 171.127 353.081 170.122C353.584 169.044 353.835 167.428 353.835 165.274V115.394C353.835 113.239 353.584 111.659 353.081 110.654C352.65 109.648 351.752 108.966 350.387 108.607C349.095 108.176 347.048 107.96 344.247 107.96C344.103 107.96 344.031 107.745 344.031 107.314C344.031 106.883 344.103 106.668 344.247 106.668H386.909C387.555 106.668 387.878 106.991 387.878 107.637L388.094 120.673C388.094 120.888 387.878 120.996 387.447 120.996C387.088 120.996 386.909 120.888 386.909 120.673C386.909 117.01 385.939 114.101 384 111.947C382.061 109.792 379.511 108.715 376.351 108.715H368.917C366.188 108.715 364.177 108.894 362.884 109.253C361.592 109.612 360.694 110.295 360.191 111.3C359.76 112.306 359.545 113.886 359.545 116.04V137.91H373.765C377.069 137.91 379.367 137.371 380.66 136.294C381.953 135.145 382.599 133.206 382.599 130.476C382.599 130.333 382.815 130.261 383.246 130.261C383.677 130.261 383.892 130.333 383.892 130.476L383.784 138.987C383.784 141.07 383.82 142.614 383.892 143.62L384 148.683C384 148.827 383.784 148.899 383.353 148.899C382.922 148.899 382.707 148.827 382.707 148.683C382.707 145.451 382.025 143.189 380.66 141.896C379.296 140.603 376.89 139.957 373.442 139.957H359.545V164.843C359.545 166.926 359.76 168.47 360.191 169.475C360.694 170.409 361.556 171.055 362.777 171.414C364.069 171.774 366.116 171.953 368.917 171.953H378.829C381.702 171.953 384.143 170.696 386.154 168.182C388.237 165.669 389.566 162.365 390.141 158.271ZM410.739 164.843C410.739 166.926 410.955 168.47 411.386 169.475C411.888 170.409 412.75 171.055 413.971 171.414C415.264 171.774 417.275 171.953 420.004 171.953H433.794C440.904 171.953 445.106 167.392 446.398 158.271C446.398 158.056 446.578 157.984 446.937 158.056C447.368 158.056 447.583 158.163 447.583 158.379C446.937 164.053 446.614 168.721 446.614 172.384C446.614 172.959 446.506 173.39 446.291 173.677C446.075 173.892 445.644 174 444.998 174H395.441C395.298 174 395.226 173.785 395.226 173.354C395.226 172.923 395.298 172.707 395.441 172.707C398.242 172.707 400.289 172.528 401.582 172.169C402.947 171.809 403.844 171.127 404.275 170.122C404.778 169.044 405.029 167.428 405.029 165.274V115.394C405.029 113.239 404.778 111.659 404.275 110.654C403.844 109.648 402.947 108.966 401.582 108.607C400.289 108.176 398.242 107.96 395.441 107.96C395.298 107.96 395.226 107.745 395.226 107.314C395.226 106.883 395.298 106.668 395.441 106.668L400.72 106.775C403.737 106.919 406.107 106.991 407.83 106.991C409.77 106.991 412.247 106.919 415.264 106.775L420.327 106.668C420.471 106.668 420.543 106.883 420.543 107.314C420.543 107.745 420.471 107.96 420.327 107.96C417.526 107.96 415.443 108.176 414.079 108.607C412.786 108.966 411.888 109.684 411.386 110.761C410.955 111.767 410.739 113.347 410.739 115.502V164.843ZM458.171 119.703C458.171 122.576 458.853 125.054 460.217 127.137C461.582 129.22 463.234 130.979 465.173 132.416C467.184 133.78 469.949 135.504 473.468 137.587C477.203 139.813 480.076 141.68 482.087 143.189C484.17 144.625 485.929 146.493 487.366 148.791C488.874 151.089 489.628 153.854 489.628 157.086C489.628 160.462 488.802 163.55 487.15 166.351C485.499 169.08 483.021 171.271 479.717 172.923C476.485 174.503 472.499 175.293 467.759 175.293C465.245 175.293 462.839 175.005 460.541 174.431C458.314 173.928 455.836 172.995 453.107 171.63C452.748 171.414 452.497 171.163 452.353 170.876C452.281 170.588 452.209 170.158 452.138 169.583L450.522 155.578V155.47C450.522 155.183 450.701 155.039 451.06 155.039C451.419 154.967 451.635 155.075 451.707 155.362C452.425 160.318 454.328 164.627 457.416 168.29C460.505 171.953 464.742 173.785 470.129 173.785C473.935 173.785 477.131 172.743 479.717 170.66C482.374 168.578 483.703 165.31 483.703 160.857C483.703 157.625 482.985 154.86 481.548 152.561C480.112 150.191 478.352 148.252 476.269 146.744C474.259 145.164 471.493 143.332 467.974 141.25C464.527 139.239 461.798 137.479 459.787 135.971C457.847 134.462 456.16 132.595 454.723 130.369C453.359 128.07 452.676 125.341 452.676 122.181C452.676 118.59 453.574 115.538 455.37 113.024C457.237 110.51 459.643 108.643 462.588 107.422C465.532 106.129 468.692 105.483 472.068 105.483C476.018 105.483 480.112 106.344 484.349 108.068C485.427 108.499 485.965 109.11 485.965 109.9L486.935 121.319C486.935 121.606 486.719 121.75 486.289 121.75C485.929 121.75 485.714 121.606 485.642 121.319C485.355 117.584 483.954 114.245 481.441 111.3C478.927 108.355 475.336 106.883 470.667 106.883C466.358 106.883 463.198 108.14 461.187 110.654C459.176 113.167 458.171 116.184 458.171 119.703Z" fill="#EBE7DD"/>
<path d="M200.766 172.707C201.053 172.707 201.197 172.923 201.197 173.354C201.197 173.785 201.053 174 200.766 174C199.473 174 197.39 173.928 194.517 173.785C191.788 173.641 189.777 173.569 188.484 173.569C186.976 173.569 185.001 173.641 182.559 173.785C180.261 173.928 178.537 174 177.388 174C177.101 174 176.957 173.785 176.957 173.354C176.957 172.923 177.101 172.707 177.388 172.707C180.333 172.707 182.451 172.456 183.744 171.953C185.037 171.379 185.683 170.445 185.683 169.152C185.683 168.147 185.288 166.746 184.498 164.951L174.372 143.081H148.731L141.406 160.749C140.4 163.191 139.897 165.202 139.897 166.782C139.897 168.865 140.759 170.373 142.483 171.307C144.207 172.24 146.9 172.707 150.563 172.707C150.922 172.707 151.101 172.923 151.101 173.354C151.101 173.785 150.922 174 150.563 174C149.27 174 147.403 173.928 144.961 173.785C142.232 173.641 139.861 173.569 137.85 173.569C136.055 173.569 133.936 173.641 131.494 173.785C129.34 173.928 127.58 174 126.215 174C125.856 174 125.677 173.785 125.677 173.354C125.677 172.923 125.856 172.707 126.215 172.707C128.226 172.707 129.914 172.348 131.279 171.63C132.715 170.912 134.044 169.619 135.265 167.752C136.558 165.884 137.922 163.227 139.359 159.779L161.875 105.59C162.018 105.375 162.234 105.267 162.521 105.267C162.88 105.267 163.096 105.375 163.167 105.59L188.161 159.241C189.813 162.904 191.285 165.705 192.578 167.644C193.871 169.511 195.128 170.84 196.349 171.63C197.642 172.348 199.114 172.707 200.766 172.707ZM149.593 141.142H173.402L160.797 114.101L149.593 141.142ZM271.141 106.668C271.356 106.668 271.464 106.883 271.464 107.314C271.464 107.745 271.356 107.96 271.141 107.96C268.052 107.96 265.862 108.715 264.569 110.223C263.348 111.731 262.738 114.317 262.738 117.98V175.185C262.738 175.329 262.558 175.436 262.199 175.508C261.84 175.58 261.589 175.544 261.445 175.401L212.75 115.502L210.919 113.455V162.796C210.919 166.459 211.529 169.044 212.75 170.553C213.971 171.989 216.09 172.707 219.106 172.707C219.322 172.707 219.429 172.923 219.429 173.354C219.429 173.785 219.322 174 219.106 174C217.383 174 216.054 173.964 215.12 173.892L209.949 173.785L204.67 173.892C203.737 173.964 202.336 174 200.469 174C200.325 174 200.253 173.785 200.253 173.354C200.253 172.923 200.325 172.707 200.469 172.707C203.557 172.707 205.676 171.989 206.825 170.553C207.974 169.116 208.549 166.531 208.549 162.796V111.192C206.035 109.038 203.449 107.96 200.792 107.96C200.576 107.96 200.469 107.745 200.469 107.314C200.469 106.883 200.576 106.668 200.792 106.668L204.67 106.775C205.46 106.847 206.574 106.883 208.01 106.883C209.231 106.883 210.236 106.847 211.026 106.775C211.816 106.704 212.427 106.668 212.858 106.668C213.361 106.668 213.756 106.811 214.043 107.099C214.402 107.314 214.797 107.817 215.228 108.607C216.018 109.9 216.88 111.121 217.814 112.27L260.368 165.166V117.98C260.368 114.317 259.793 111.731 258.644 110.223C257.495 108.715 255.412 107.96 252.395 107.96C252.252 107.96 252.18 107.745 252.18 107.314C252.18 106.883 252.252 106.668 252.395 106.668L256.489 106.775C258.644 106.919 260.368 106.991 261.66 106.991C262.881 106.991 264.641 106.919 266.939 106.775L271.141 106.668ZM312.144 175.293C304.316 175.293 297.493 173.713 291.675 170.553C285.93 167.321 281.513 163.011 278.424 157.625C275.336 152.166 273.792 146.205 273.792 139.741C273.792 132.775 275.516 126.706 278.963 121.535C282.482 116.364 287.258 112.413 293.291 109.684C299.396 106.883 306.219 105.483 313.76 105.483C317.711 105.483 321.338 105.878 324.641 106.668C327.945 107.458 330.746 108.571 333.044 110.007C333.547 110.366 333.834 110.654 333.906 110.869C333.978 111.013 334.05 111.516 334.122 112.377L335.414 124.443C335.414 124.659 335.199 124.803 334.768 124.874C334.409 124.946 334.194 124.874 334.122 124.659C332.542 118.698 330.028 114.281 326.58 111.408C323.205 108.535 318.429 107.099 312.252 107.099C306.291 107.099 300.94 108.391 296.2 110.977C291.46 113.491 287.725 117.118 284.996 121.858C282.267 126.526 280.902 132.021 280.902 138.341C280.902 144.302 282.123 149.976 284.565 155.362C287.079 160.749 290.885 165.166 295.985 168.613C301.156 172.061 307.512 173.785 315.053 173.785C320.368 173.785 324.103 172.779 326.257 170.768C328.484 168.685 329.597 165.274 329.597 160.534C329.597 156.799 329.346 154.213 328.843 152.777C328.34 151.269 327.263 150.263 325.611 149.76C323.959 149.258 321.086 149.006 316.992 149.006C316.561 149.006 316.346 148.719 316.346 148.144C316.346 147.929 316.382 147.749 316.454 147.606C316.597 147.39 316.741 147.283 316.885 147.283C322.415 147.642 326.868 147.821 330.243 147.821C333.475 147.821 336.923 147.713 340.586 147.498C340.729 147.498 340.837 147.606 340.909 147.821C341.052 147.965 341.124 148.108 341.124 148.252C341.124 148.755 340.945 149.006 340.586 149.006C338.718 148.934 337.39 149.186 336.6 149.76C335.809 150.263 335.307 151.34 335.091 152.992C334.876 154.644 334.768 157.517 334.768 161.611C334.768 164.843 334.876 167.141 335.091 168.506C335.379 169.87 335.522 170.732 335.522 171.091C335.522 171.522 335.45 171.809 335.307 171.953C335.163 172.097 334.84 172.24 334.337 172.384C325.647 174.323 318.249 175.293 312.144 175.293ZM390.141 158.271C390.141 158.056 390.356 157.984 390.787 158.056C391.218 158.056 391.433 158.163 391.433 158.379C390.787 162.904 390.464 167.572 390.464 172.384C390.464 172.959 390.32 173.39 390.033 173.677C389.817 173.892 389.386 174 388.74 174H344.247C344.103 174 344.031 173.785 344.031 173.354C344.031 172.923 344.103 172.707 344.247 172.707C347.048 172.707 349.095 172.528 350.387 172.169C351.752 171.809 352.65 171.127 353.081 170.122C353.584 169.044 353.835 167.428 353.835 165.274V115.394C353.835 113.239 353.584 111.659 353.081 110.654C352.65 109.648 351.752 108.966 350.387 108.607C349.095 108.176 347.048 107.96 344.247 107.96C344.103 107.96 344.031 107.745 344.031 107.314C344.031 106.883 344.103 106.668 344.247 106.668H386.909C387.555 106.668 387.878 106.991 387.878 107.637L388.094 120.673C388.094 120.888 387.878 120.996 387.447 120.996C387.088 120.996 386.909 120.888 386.909 120.673C386.909 117.01 385.939 114.101 384 111.947C382.061 109.792 379.511 108.715 376.351 108.715H368.917C366.188 108.715 364.177 108.894 362.884 109.253C361.592 109.612 360.694 110.295 360.191 111.3C359.76 112.306 359.545 113.886 359.545 116.04V137.91H373.765C377.069 137.91 379.367 137.371 380.66 136.294C381.953 135.145 382.599 133.206 382.599 130.476C382.599 130.333 382.815 130.261 383.246 130.261C383.677 130.261 383.892 130.333 383.892 130.476L383.784 138.987C383.784 141.07 383.82 142.614 383.892 143.62L384 148.683C384 148.827 383.784 148.899 383.353 148.899C382.922 148.899 382.707 148.827 382.707 148.683C382.707 145.451 382.025 143.189 380.66 141.896C379.296 140.603 376.89 139.957 373.442 139.957H359.545V164.843C359.545 166.926 359.76 168.47 360.191 169.475C360.694 170.409 361.556 171.055 362.777 171.414C364.069 171.774 366.116 171.953 368.917 171.953H378.829C381.702 171.953 384.143 170.696 386.154 168.182C388.237 165.669 389.566 162.365 390.141 158.271ZM410.739 164.843C410.739 166.926 410.955 168.47 411.386 169.475C411.888 170.409 412.75 171.055 413.971 171.414C415.264 171.774 417.275 171.953 420.004 171.953H433.794C440.904 171.953 445.106 167.392 446.398 158.271C446.398 158.056 446.578 157.984 446.937 158.056C447.368 158.056 447.583 158.163 447.583 158.379C446.937 164.053 446.614 168.721 446.614 172.384C446.614 172.959 446.506 173.39 446.291 173.677C446.075 173.892 445.644 174 444.998 174H395.441C395.298 174 395.226 173.785 395.226 173.354C395.226 172.923 395.298 172.707 395.441 172.707C398.242 172.707 400.289 172.528 401.582 172.169C402.947 171.809 403.844 171.127 404.275 170.122C404.778 169.044 405.029 167.428 405.029 165.274V115.394C405.029 113.239 404.778 111.659 404.275 110.654C403.844 109.648 402.947 108.966 401.582 108.607C400.289 108.176 398.242 107.96 395.441 107.96C395.298 107.96 395.226 107.745 395.226 107.314C395.226 106.883 395.298 106.668 395.441 106.668L400.72 106.775C403.737 106.919 406.107 106.991 407.83 106.991C409.77 106.991 412.247 106.919 415.264 106.775L420.327 106.668C420.471 106.668 420.543 106.883 420.543 107.314C420.543 107.745 420.471 107.96 420.327 107.96C417.526 107.96 415.443 108.176 414.079 108.607C412.786 108.966 411.888 109.684 411.386 110.761C410.955 111.767 410.739 113.347 410.739 115.502V164.843ZM458.171 119.703C458.171 122.576 458.853 125.054 460.217 127.137C461.582 129.22 463.234 130.979 465.173 132.416C467.184 133.78 469.949 135.504 473.468 137.587C477.203 139.813 480.076 141.68 482.087 143.189C484.17 144.625 485.929 146.493 487.366 148.791C488.874 151.089 489.628 153.854 489.628 157.086C489.628 160.462 488.802 163.55 487.15 166.351C485.499 169.08 483.021 171.271 479.717 172.923C476.485 174.503 472.499 175.293 467.759 175.293C465.245 175.293 462.839 175.005 460.541 174.431C458.314 173.928 455.836 172.995 453.107 171.63C452.748 171.414 452.497 171.163 452.353 170.876C452.281 170.588 452.209 170.158 452.138 169.583L450.522 155.578V155.47C450.522 155.183 450.701 155.039 451.06 155.039C451.419 154.967 451.635 155.075 451.707 155.362C452.425 160.318 454.328 164.627 457.416 168.29C460.505 171.953 464.742 173.785 470.129 173.785C473.935 173.785 477.131 172.743 479.717 170.66C482.374 168.578 483.703 165.31 483.703 160.857C483.703 157.625 482.985 154.86 481.548 152.561C480.112 150.191 478.352 148.252 476.269 146.744C474.259 145.164 471.493 143.332 467.974 141.25C464.527 139.239 461.798 137.479 459.787 135.971C457.847 134.462 456.16 132.595 454.723 130.369C453.359 128.07 452.676 125.341 452.676 122.181C452.676 118.59 453.574 115.538 455.37 113.024C457.237 110.51 459.643 108.643 462.588 107.422C465.532 106.129 468.692 105.483 472.068 105.483C476.018 105.483 480.112 106.344 484.349 108.068C485.427 108.499 485.965 109.11 485.965 109.9L486.935 121.319C486.935 121.606 486.719 121.75 486.289 121.75C485.929 121.75 485.714 121.606 485.642 121.319C485.355 117.584 483.954 114.245 481.441 111.3C478.927 108.355 475.336 106.883 470.667 106.883C466.358 106.883 463.198 108.14 461.187 110.654C459.176 113.167 458.171 116.184 458.171 119.703Z" fill="url(#paint1_linear_264_1928)"/>
<path d="M44.7727 122.061C42.1716 125.15 39.3537 127.914 36.3191 130.352C33.3387 132.737 30.304 134.931 27.2152 136.936C25.7521 137.857 24.2348 138.725 22.6633 139.537C21.146 140.35 19.6558 141.136 18.1927 141.895C17.434 143.304 16.7295 144.658 16.0793 145.959C15.429 147.259 14.8871 148.506 14.4536 149.698C13.5324 151.974 13.3969 153.735 14.0472 154.981C14.6974 156.228 15.8083 156.851 17.3798 156.851C18.4094 156.851 19.6287 156.526 21.0376 155.876C22.9343 154.954 24.8038 153.735 26.6462 152.218C28.4887 150.646 30.2228 148.831 31.8485 146.772C32.1194 146.501 32.3091 146.447 32.4174 146.609C32.58 146.772 32.5258 146.988 32.2549 147.259C30.3582 149.535 28.5429 151.378 26.8088 152.787C25.1289 154.141 23.6116 155.225 22.2569 156.038C21.2815 156.634 20.0351 157.149 18.5178 157.582C17.0005 158.016 15.6458 158.151 14.4536 157.989C11.9609 157.61 10.6332 156.607 10.4706 154.981C10.3081 153.302 10.85 151.161 12.0963 148.56C13.2343 146.338 14.4536 144.089 15.7541 141.813C17.0547 139.483 18.301 137.316 19.4932 135.311C20.7396 133.251 21.9047 131.409 22.9884 129.783C24.0722 128.103 24.9664 126.776 25.6708 125.8C26.2669 124.933 26.8359 124.147 27.3778 123.443C27.9739 122.684 28.57 121.953 29.1661 121.248C30.4124 119.731 31.6588 118.512 32.9051 117.591C34.4766 116.398 36.2649 115.667 38.2699 115.396C40.2749 115.125 42.1445 115.206 43.8785 115.64C45.5042 116.019 46.3984 116.805 46.5609 117.997C46.7235 119.135 46.1274 120.49 44.7727 122.061ZM42.8218 122.874C43.5263 121.953 43.8244 121.059 43.716 120.192C43.6076 119.27 43.0928 118.458 42.1716 117.753C40.9252 116.778 39.5163 116.317 37.9448 116.371C36.4275 116.425 35.0456 116.967 33.7993 117.997C32.7697 118.81 31.7943 119.839 30.873 121.086C30.006 122.278 29.1119 123.606 28.1906 125.069C26.7275 127.345 25.1831 129.864 23.5574 132.628C21.9859 135.392 20.4144 138.101 18.8429 140.757L18.5991 141.163C20.008 140.459 21.4169 139.727 22.8259 138.968C24.2348 138.156 25.5895 137.343 26.8901 136.53C27.7029 135.988 28.8138 135.202 30.2228 134.173C31.6859 133.143 33.1761 132.005 34.6934 130.759C36.2649 129.512 37.7822 128.212 39.2453 126.857C40.7085 125.448 41.9006 124.12 42.8218 122.874ZM51.8127 145.796C50.6747 146.717 49.2387 147.693 47.5046 148.722C45.7705 149.698 44.199 150.402 42.7901 150.836C40.9476 151.486 39.5116 151.54 38.482 150.998C38.1569 151.595 37.8047 152.191 37.4253 152.787C37.1002 153.383 36.7209 153.925 36.2873 154.412C35.041 155.984 33.7946 157.095 32.5483 157.745C31.3019 158.45 30.2181 158.693 29.2969 158.477C28.3757 158.206 27.7525 157.555 27.4273 156.526C27.1022 155.442 27.2377 154.006 27.8338 152.218C28.1589 151.242 28.6466 150.24 29.2969 149.21C30.0013 148.126 30.7871 147.097 31.6541 146.121C32.5754 145.146 33.5237 144.279 34.4991 143.52C35.5287 142.707 36.5041 142.111 37.4253 141.732C38.2382 141.407 38.9426 141.244 39.5387 141.244C39.6471 141.136 39.7284 141.055 39.7826 141C39.891 140.946 39.9722 140.892 40.0264 140.838C40.2974 140.73 40.5683 140.648 40.8393 140.594C41.1644 140.54 41.5166 140.486 41.896 140.431C42.1669 140.431 42.3024 140.54 42.3024 140.757C42.3566 140.919 42.3024 141.217 42.1398 141.651C41.8147 142.518 41.4895 143.412 41.1644 144.333C40.8393 145.2 40.5683 146.013 40.3516 146.772C40.0806 148.018 40.2161 148.939 40.758 149.535C41.3541 150.131 42.2753 150.24 43.5217 149.86C44.768 149.481 46.1499 148.858 47.6672 147.991C49.2387 147.124 50.5121 146.23 51.4875 145.309C51.7585 145.038 51.921 145.01 51.9752 145.227C52.0836 145.444 52.0294 145.634 51.8127 145.796ZM39.2949 142.301C39.0239 141.922 38.6446 141.84 38.1569 142.057C37.6692 142.274 37.1273 142.653 36.5312 143.195C35.9893 143.737 35.3932 144.414 34.7429 145.227C34.1469 146.04 33.605 146.88 33.1172 147.747C32.467 148.885 31.898 150.05 31.4103 151.242C30.9226 152.38 30.5703 153.356 30.3536 154.169C29.9201 156.065 30.1368 157.149 31.0039 157.42C31.9251 157.745 33.0902 157.068 34.4991 155.388C35.7454 153.979 36.8292 152.326 37.7505 150.429C37.1002 149.508 37.1273 148.289 37.8317 146.772C38.1027 146.176 38.3736 145.471 38.6446 144.658C38.9155 143.845 39.1323 143.06 39.2949 142.301ZM64.2136 142.626C64.2136 143.114 64.1323 143.602 63.9698 144.089C63.5904 145.065 62.886 146.067 61.8564 147.097C60.881 148.072 59.8514 148.966 58.7676 149.779C58.0089 150.375 57.2232 150.917 56.4103 151.405C55.6517 151.893 54.893 152.434 54.1344 153.031C52.7796 154.169 51.7771 155.252 51.1268 156.282C50.6933 156.932 50.1514 157.393 49.5011 157.664C48.9051 157.935 48.309 158.233 47.7129 158.558C47.3877 158.666 47.2523 158.72 47.3065 158.72C47.0897 158.72 46.9813 158.612 46.9813 158.395C46.9813 158.233 47.0084 158.124 47.0626 158.07C47.4961 156.986 47.8484 155.984 48.1193 155.063C48.3903 154.087 48.6612 153.058 48.9322 151.974C49.3115 150.24 49.7721 148.533 50.314 146.853C50.9101 145.173 51.6416 143.574 52.5087 142.057C52.7254 141.732 52.9151 141.461 53.0777 141.244C53.2944 140.973 53.5925 140.757 53.9718 140.594C54.2969 140.486 54.6221 140.377 54.9472 140.269C55.3265 140.161 55.6788 140.025 56.0039 139.862C56.0581 139.808 56.1665 139.781 56.329 139.781C56.5458 139.781 56.6542 139.862 56.6542 140.025C56.6542 140.188 56.6 140.323 56.4916 140.431C56.0581 140.757 55.6517 141.244 55.2723 141.895C54.9472 142.491 54.6762 143.033 54.4595 143.52C53.7008 145.146 53.0235 146.799 52.4274 148.479C51.8313 150.104 51.452 151.757 51.2894 153.437V153.518C51.2894 153.735 51.3707 153.843 51.5333 153.843C51.5874 153.843 51.6416 153.816 51.6958 153.762C52.6712 152.895 53.6737 152.136 54.7033 151.486C55.7871 150.836 56.8709 150.159 57.9547 149.454C58.5508 149.021 59.1469 148.56 59.743 148.072C60.3933 147.53 60.9081 146.961 61.2874 146.365C61.8293 145.607 62.1002 144.848 62.1002 144.089C62.1002 143.331 61.7209 142.653 60.9622 142.057C60.8539 141.949 60.7997 141.84 60.7997 141.732C60.7997 141.569 60.8539 141.407 60.9622 141.244C61.1248 141.028 61.2874 140.811 61.45 140.594C61.9377 139.998 62.317 139.7 62.5879 139.7C62.6963 139.7 62.7776 139.727 62.8318 139.781C63.753 140.54 64.2136 141.488 64.2136 142.626ZM88.4383 148.885C87.5171 150.402 86.4333 151.73 85.1869 152.868C83.9406 153.952 82.6129 154.9 81.204 155.713C79.8492 156.472 78.4945 157.095 77.1398 157.582C75.785 158.07 74.5387 158.422 73.4007 158.639C70.6912 159.235 68.7133 159.019 67.4669 157.989C66.2205 157.013 65.7599 155.577 66.0851 153.681C66.1935 152.814 66.5457 151.784 67.1418 150.592C67.792 149.346 68.6049 148.126 69.5803 146.934C70.5557 145.742 71.6395 144.631 72.8317 143.602C74.0239 142.518 75.216 141.651 76.4082 141C77.7087 140.35 78.7925 140.106 79.6596 140.269C80.5808 140.377 81.0414 140.838 81.0414 141.651C81.0414 142.247 80.7976 142.897 80.3098 143.602C79.1177 145.39 77.492 147.043 75.4328 148.56C73.4278 150.023 71.3957 151.378 69.3364 152.624C68.9029 154.412 69.3094 155.713 70.5557 156.526C71.3686 157.122 72.4794 157.42 73.8884 157.42C75.2973 157.366 76.8146 157.013 78.4403 156.363C80.1202 155.713 81.8001 154.738 83.4799 153.437C85.214 152.082 86.7584 150.402 88.1132 148.397C88.3299 148.126 88.4654 148.099 88.5196 148.316C88.5738 148.479 88.5467 148.668 88.4383 148.885ZM78.7654 143.114C79.3615 142.138 79.4157 141.488 78.928 141.163C78.4945 140.784 77.79 140.892 76.8146 141.488C75.2973 142.464 73.8342 143.9 72.4253 145.796C71.0163 147.693 70.0138 149.671 69.4177 151.73C73.6445 149.4 76.7604 146.528 78.7654 143.114ZM120.183 122.061C117.582 125.15 114.764 127.914 111.729 130.352C108.749 132.737 105.714 134.931 102.626 136.936C101.162 137.857 99.6452 138.725 98.0737 139.537C96.5564 140.35 95.0661 141.136 93.603 141.895C92.8444 143.304 92.1399 144.658 91.4896 145.959C90.8394 147.259 90.2975 148.506 89.8639 149.698C88.9427 151.974 88.8072 153.735 89.4575 154.981C90.1078 156.228 91.2187 156.851 92.7902 156.851C93.8198 156.851 95.0391 156.526 96.448 155.876C98.3446 154.954 100.214 153.735 102.057 152.218C103.899 150.646 105.633 148.831 107.259 146.772C107.53 146.501 107.719 146.447 107.828 146.609C107.99 146.772 107.936 146.988 107.665 147.259C105.769 149.535 103.953 151.378 102.219 152.787C100.539 154.141 99.022 155.225 97.6672 156.038C96.6918 156.634 95.4455 157.149 93.9282 157.582C92.4109 158.016 91.0561 158.151 89.8639 157.989C87.3712 157.61 86.0436 156.607 85.881 154.981C85.7184 153.302 86.2603 151.161 87.5067 148.56C88.6447 146.338 89.8639 144.089 91.1645 141.813C92.465 139.483 93.7114 137.316 94.9036 135.311C96.1499 133.251 97.315 131.409 98.3988 129.783C99.4826 128.103 100.377 126.776 101.081 125.8C101.677 124.933 102.246 124.147 102.788 123.443C103.384 122.684 103.98 121.953 104.576 121.248C105.823 119.731 107.069 118.512 108.316 117.591C109.887 116.398 111.675 115.667 113.68 115.396C115.685 115.125 117.555 115.206 119.289 115.64C120.915 116.019 121.809 116.805 121.971 117.997C122.134 119.135 121.538 120.49 120.183 122.061ZM118.232 122.874C118.937 121.953 119.235 121.059 119.126 120.192C119.018 119.27 118.503 118.458 117.582 117.753C116.336 116.778 114.927 116.317 113.355 116.371C111.838 116.425 110.456 116.967 109.21 117.997C108.18 118.81 107.205 119.839 106.283 121.086C105.416 122.278 104.522 123.606 103.601 125.069C102.138 127.345 100.593 129.864 98.9678 132.628C97.3963 135.392 95.8248 138.101 94.2533 140.757L94.0094 141.163C95.4184 140.459 96.8273 139.727 98.2362 138.968C99.6452 138.156 101 137.343 102.3 136.53C103.113 135.988 104.224 135.202 105.633 134.173C107.096 133.143 108.586 132.005 110.104 130.759C111.675 129.512 113.193 128.212 114.656 126.857C116.119 125.448 117.311 124.12 118.232 122.874ZM125.11 134.579C125.326 135.554 125.245 136.449 124.866 137.261C123.457 139.7 121.75 142.22 119.745 144.821C117.794 147.368 115.843 149.86 113.892 152.299C110.641 156.201 107.606 159.913 104.789 163.435C102.025 166.957 99.5863 170.344 97.4729 173.596C96.4433 175.167 95.4408 176.793 94.4654 178.473C93.49 180.207 92.6501 181.914 91.9456 183.594C91.1869 185.328 90.5908 187.007 90.1573 188.633C89.6696 190.313 89.4258 191.912 89.4258 193.429C89.3716 195.705 89.9135 197.358 91.0515 198.387C92.1894 199.417 93.8964 199.986 96.1724 200.094C97.3104 200.148 98.6109 200.013 100.074 199.688C101.537 199.363 103.054 198.956 104.626 198.469C106.197 197.981 107.742 197.493 109.259 197.005C110.776 196.518 112.131 196.138 113.323 195.867C115.057 195.434 116.466 195.271 117.55 195.38C118.634 195.488 119.42 196.03 119.907 197.005C120.07 197.331 120.07 197.764 119.907 198.306C119.745 198.848 119.609 199.254 119.501 199.525C119.338 199.905 119.176 200.067 119.013 200.013C118.851 200.013 118.824 199.823 118.932 199.444C119.04 199.065 119.067 198.658 119.013 198.225C119.013 197.791 118.851 197.52 118.526 197.412C117.93 197.195 117.198 197.114 116.331 197.168C115.518 197.276 114.57 197.412 113.486 197.574C112.565 197.737 111.535 197.954 110.397 198.225C109.259 198.496 108.067 198.794 106.821 199.119C105.574 199.444 104.301 199.742 103 200.013C101.7 200.284 100.48 200.501 99.3425 200.663C94.628 201.259 90.9431 200.582 88.2878 198.631C86.8789 197.656 86.0931 196.328 85.9305 194.648C85.768 192.968 86.0931 191.18 86.906 189.283C87.8814 187.007 89.209 184.515 90.8889 181.805C92.5146 179.15 94.3028 176.44 96.2537 173.677C98.1503 170.913 100.101 168.231 102.106 165.63C104.111 163.029 105.981 160.671 107.715 158.558C107.986 158.233 108.257 157.908 108.528 157.582C108.799 157.257 109.07 156.932 109.34 156.607C109.015 156.824 108.663 157.013 108.284 157.176C107.959 157.284 107.606 157.393 107.227 157.501C106.523 157.718 105.954 157.664 105.52 157.339C105.141 157.013 105.032 156.499 105.195 155.794C105.303 155.198 105.466 154.467 105.683 153.6C105.954 152.733 106.225 152.001 106.496 151.405C107.037 149.942 107.525 148.424 107.959 146.853C108.446 145.281 108.771 143.954 108.934 142.87C109.097 141.678 108.392 141.299 106.821 141.732C105.52 142.057 104.274 142.626 103.082 143.439C102.811 143.547 102.594 143.52 102.431 143.358C102.323 143.141 102.431 142.951 102.756 142.789C103.894 142.193 105.276 141.597 106.902 141C108.528 140.404 109.991 139.971 111.291 139.7C112.05 139.537 112.511 139.7 112.673 140.188C112.836 140.621 112.754 141.244 112.429 142.057C111.942 143.249 111.4 144.55 110.804 145.959C110.262 147.368 109.828 148.614 109.503 149.698C109.232 150.565 108.961 151.432 108.69 152.299C108.473 153.166 108.392 153.898 108.446 154.494C108.446 155.036 108.663 155.361 109.097 155.469C109.53 155.523 109.964 155.388 110.397 155.063C110.451 155.008 110.533 154.981 110.641 154.981C114.109 150.592 116.927 146.663 119.095 143.195C121.316 139.673 122.563 136.611 122.834 134.01C122.996 132.33 122.536 130.921 121.452 129.783C121.235 129.566 121.181 129.377 121.289 129.214C121.452 129.052 121.669 129.106 121.94 129.377C122.59 130.135 123.186 131.002 123.728 131.978C124.324 132.899 124.785 133.766 125.11 134.579Z" fill="#9AA37A"/>
<defs>
<linearGradient id="paint0_linear_264_1928" x1="19.8946" y1="31.8312" x2="336.732" y2="122.051" gradientUnits="userSpaceOnUse">
<stop offset="0.0578295" stop-color="#EFEBE0"/>
<stop offset="0.976249" stop-color="#C0BCB3"/>
</linearGradient>
<linearGradient id="paint1_linear_264_1928" x1="137.889" y1="128.831" x2="346.721" y2="166.25" gradientUnits="userSpaceOnUse">
<stop offset="0.0578295" stop-color="#EFEBE0"/>
<stop offset="0.976249" stop-color="#C0BCB3"/>
</linearGradient>
</defs>
</svg>
