<svg width="278" height="136" viewBox="0 0 278 136" fill="none" xmlns="http://www.w3.org/2000/svg"><path d="M39.97 35.4c.133 0 .2.1.2.3 0 .2-.067.3-.2.3-.6 0-1.567-.033-2.9-.1-1.267-.067-2.2-.1-2.8-.1-.7 0-1.617.033-2.75.1a41.82 41.82 0 01-2.4.1c-.134 0-.2-.1-.2-.3 0-.2.066-.3.2-.3 1.366 0 2.35-.117 2.95-.35.6-.267.9-.7.9-1.3 0-.467-.184-1.117-.55-1.95l-4.7-10.15h-11.9l-3.4 8.2c-.467 1.133-.7 2.067-.7 2.8 0 .967.4 1.667 1.2 2.1.8.433 2.05.65 3.75.65.166 0 .25.1.25.3 0 .2-.084.3-.25.3-.6 0-1.467-.033-2.6-.1a63.858 63.858 0 00-3.3-.1c-.834 0-1.817.033-2.95.1-1 .067-1.817.1-2.45.1-.167 0-.25-.1-.25-.3 0-.2.083-.3.25-.3.933 0 1.716-.167 2.35-.5.666-.333 1.283-.933 1.85-1.8.6-.867 1.233-2.1 1.9-3.7L21.92 4.25c.066-.1.166-.15.3-.15.166 0 .266.05.3.15l11.6 24.9c.766 1.7 1.45 3 2.05 3.9.6.867 1.183 1.483 1.75 1.85.6.333 1.283.5 2.05.5zM16.22 20.75h11.05L21.42 8.2l-5.2 12.55zm56.412-16c.1 0 .15.1.15.3 0 .2-.05.3-.15.3-1.434 0-2.45.35-3.05 1.05-.567.7-.85 1.9-.85 3.6v26.55c0 .067-.084.117-.25.15-.167.033-.284.017-.35-.05l-22.6-27.8-.85-.95v22.9c0 1.7.283 2.9.85 3.6.566.667 1.55 1 2.95 1 .1 0 .15.1.15.3 0 .2-.05.3-.15.3-.8 0-1.417-.017-1.85-.05l-2.4-.05-2.45.05c-.434.033-1.084.05-1.95.05-.067 0-.1-.1-.1-.3 0-.2.033-.3.1-.3 1.433 0 2.416-.333 2.95-1 .533-.667.8-1.867.8-3.6V6.85c-1.167-1-2.367-1.5-3.6-1.5-.1 0-.15-.1-.15-.3 0-.2.05-.3.15-.3l1.8.05c.366.033.883.05 1.55.05.566 0 1.033-.017 1.4-.05.366-.033.65-.05.85-.05.233 0 .416.067.55.2.166.1.35.333.55.7.366.6.766 1.167 1.2 1.7l19.75 24.55V10c0-1.7-.267-2.9-.8-3.6-.534-.7-1.5-1.05-2.9-1.05-.067 0-.1-.1-.1-.3 0-.2.033-.3.1-.3l1.9.05c1 .067 1.8.1 2.4.1.566 0 1.383-.033 2.45-.1l1.95-.05zm33.48 30.65c.133 0 .2.1.2.3 0 .2-.067.3-.2.3-.6 0-1.567-.033-2.9-.1-1.267-.067-2.2-.1-2.8-.1-.7 0-1.617.033-2.75.1a42.08 42.08 0 01-2.4.1c-.133 0-.2-.1-.2-.3 0-.2.067-.3.2-.3 1.367 0 2.35-.117 2.95-.35.6-.267.9-.7.9-1.3 0-.467-.183-1.117-.55-1.95l-4.7-10.15h-11.9l-3.4 8.2c-.467 1.133-.7 2.067-.7 2.8 0 .967.4 1.667 1.2 2.1.8.433 2.05.65 3.75.65.167 0 .25.1.25.3 0 .2-.083.3-.25.3-.6 0-1.467-.033-2.6-.1a63.864 63.864 0 00-3.3-.1c-.833 0-1.817.033-2.95.1-1 .067-1.817.1-2.45.1-.167 0-.25-.1-.25-.3 0-.2.083-.3.25-.3.933 0 1.717-.167 2.35-.5.667-.333 1.283-.933 1.85-1.8.6-.867 1.233-2.1 1.9-3.7l10.45-25.15c.067-.1.167-.15.3-.15.167 0 .267.05.3.15l11.6 24.9c.767 1.7 1.45 3 2.05 3.9.6.867 1.183 1.483 1.75 1.85.6.333 1.283.5 2.05.5zm-23.75-14.65h11.05L87.562 8.2l-5.2 12.55zm28.362-9.95c0 1.333.317 2.483.95 3.45a9.502 9.502 0 002.3 2.45c.934.633 2.217 1.433 3.85 2.4 1.734 1.033 3.067 1.9 4 2.6.967.667 1.784 1.533 2.45 2.6.7 1.067 1.05 2.35 1.05 3.85 0 1.567-.383 3-1.15 4.3-.766 1.267-1.916 2.283-3.45 3.05-1.5.733-3.35 1.1-5.55 1.1-1.166 0-2.283-.133-3.35-.4-1.033-.233-2.183-.667-3.45-1.3a.886.886 0 01-.35-.35 5.737 5.737 0 01-.1-.6l-.75-6.5v-.05c0-.133.084-.2.25-.2.167-.033.267.017.3.15.334 2.3 1.217 4.3 2.65 6 1.434 1.7 3.4 2.55 5.9 2.55 1.767 0 3.25-.483 4.45-1.45 1.234-.967 1.85-2.483 1.85-4.55 0-1.5-.333-2.783-1-3.85-.666-1.1-1.483-2-2.45-2.7-.933-.733-2.216-1.583-3.85-2.55-1.6-.933-2.866-1.75-3.8-2.45a10.4 10.4 0 01-2.35-2.6c-.633-1.067-.95-2.333-.95-3.8 0-1.667.417-3.083 1.25-4.25a7.831 7.831 0 013.35-2.6c1.367-.6 2.834-.9 4.4-.9 1.834 0 3.734.4 5.7 1.2.5.2.75.483.75.85l.45 5.3c0 .133-.1.2-.3.2-.166 0-.266-.067-.3-.2-.133-1.733-.783-3.283-1.95-4.65-1.166-1.367-2.833-2.05-5-2.05-2 0-3.466.583-4.4 1.75-.933 1.167-1.4 2.567-1.4 4.2zm23.868-5.2c-2.1 0-3.634.5-4.6 1.5-.967 1-1.617 2.783-1.95 5.35 0 .067-.1.1-.3.1-.2 0-.3-.033-.3-.1.133-.9.283-2.333.45-4.3.166-2 .25-3.5.25-4.5 0-.167.1-.25.3-.25.2 0 .3.083.3.25 0 .733.883 1.1 2.65 1.1 2.866.1 6.216.15 10.05.15 1.966 0 4.05-.033 6.25-.1l3.4-.05c1.2 0 2.083-.083 2.65-.25.566-.167.933-.5 1.1-1 .033-.133.133-.2.3-.2.166 0 .25.067.25.2-.1.933-.2 2.367-.3 4.3-.1 1.9-.15 3.45-.15 4.65 0 .067-.1.1-.3.1-.2 0-.3-.033-.3-.1 0-1.767-.184-3.133-.55-4.1-.367-.967-.984-1.667-1.85-2.1-.867-.433-2.084-.65-3.65-.65-1.734 0-2.95.067-3.65.2-.7.1-1.184.367-1.45.8-.234.433-.35 1.2-.35 2.3v23.05c0 1.033.116 1.783.35 2.25.233.467.7.783 1.4.95.7.167 1.8.25 3.3.25.066 0 .1.1.1.3 0 .2-.034.3-.1.3-1.1 0-1.967-.017-2.6-.05l-3.85-.05-3.65.05a58.43 58.43 0 01-2.75.05c-.067 0-.1-.1-.1-.3 0-.2.033-.3.1-.3 1.5 0 2.6-.083 3.3-.25.7-.167 1.166-.483 1.4-.95.266-.5.4-1.25.4-2.25V8.8c0-1.1-.134-1.85-.4-2.25-.267-.433-.75-.7-1.45-.8-.667-.1-1.9-.15-3.7-.15zm51.276 29.8c.133 0 .2.1.2.3 0 .2-.067.3-.2.3-.6 0-1.567-.033-2.9-.1-1.267-.067-2.2-.1-2.8-.1-.7 0-1.617.033-2.75.1a41.82 41.82 0 01-2.4.1c-.133 0-.2-.1-.2-.3 0-.2.067-.3.2-.3 1.367 0 2.35-.117 2.95-.35.6-.267.9-.7.9-1.3 0-.467-.183-1.117-.55-1.95l-4.7-10.15h-11.9l-3.4 8.2c-.467 1.133-.7 2.067-.7 2.8 0 .967.4 1.667 1.2 2.1.8.433 2.05.65 3.75.65.167 0 .25.1.25.3 0 .2-.083.3-.25.3-.6 0-1.467-.033-2.6-.1a63.883 63.883 0 00-3.3-.1c-.833 0-1.817.033-2.95.1-1 .067-1.817.1-2.45.1-.167 0-.25-.1-.25-.3 0-.2.083-.3.25-.3.933 0 1.717-.167 2.35-.5.667-.333 1.283-.933 1.85-1.8.6-.867 1.233-2.1 1.9-3.7l10.45-25.15c.067-.1.167-.15.3-.15.167 0 .267.05.3.15l11.6 24.9c.767 1.7 1.45 3 2.05 3.9.6.867 1.183 1.483 1.75 1.85.6.333 1.283.5 2.05.5zm-23.75-14.65h11.05l-5.85-12.55-5.2 12.55zm28.362-9.95c0 1.333.317 2.483.95 3.45a9.485 9.485 0 002.3 2.45c.933.633 2.217 1.433 3.85 2.4 1.733 1.033 3.067 1.9 4 2.6.967.667 1.783 1.533 2.45 2.6.7 1.067 1.05 2.35 1.05 3.85 0 1.567-.383 3-1.15 4.3-.767 1.267-1.917 2.283-3.45 3.05-1.5.733-3.35 1.1-5.55 1.1-1.167 0-2.283-.133-3.35-.4-1.033-.233-2.183-.667-3.45-1.3a.88.88 0 01-.35-.35 5.48 5.48 0 01-.1-.6l-.75-6.5v-.05c0-.133.083-.2.25-.2.167-.033.267.017.3.15.333 2.3 1.217 4.3 2.65 6 1.433 1.7 3.4 2.55 5.9 2.55 1.767 0 3.25-.483 4.45-1.45 1.233-.967 1.85-2.483 1.85-4.55 0-1.5-.333-2.783-1-3.85-.667-1.1-1.483-2-2.45-2.7-.933-.733-2.217-1.583-3.85-2.55-1.6-.933-2.867-1.75-3.8-2.45a10.4 10.4 0 01-2.35-2.6c-.633-1.067-.95-2.333-.95-3.8 0-1.667.417-3.083 1.25-4.25a7.826 7.826 0 013.35-2.6c1.367-.6 2.833-.9 4.4-.9 1.833 0 3.733.4 5.7 1.2.5.2.75.483.75.85l.45 5.3c0 .133-.1.2-.3.2-.167 0-.267-.067-.3-.2-.133-1.733-.783-3.283-1.95-4.65-1.167-1.367-2.833-2.05-5-2.05-2 0-3.467.583-4.4 1.75-.933 1.167-1.4 2.567-1.4 4.2zm24.468 21.15c0 1.033.1 1.783.3 2.25.233.467.65.783 1.25.95.6.167 1.566.25 2.9.25.066 0 .1.1.1.3 0 .2-.034.3-.1.3-1 0-1.784-.017-2.35-.05l-3.5-.05-3.35.05c-.6.033-1.417.05-2.45.05-.1 0-.15-.1-.15-.3 0-.2.05-.3.15-.3 1.3 0 2.25-.083 2.85-.25.633-.167 1.066-.483 1.3-.95.233-.5.35-1.25.35-2.25V8.8c0-1-.117-1.733-.35-2.2-.234-.467-.667-.783-1.3-.95-.6-.2-1.55-.3-2.85-.3-.1 0-.15-.1-.15-.3 0-.2.05-.3.15-.3l2.45.05c1.4.067 2.516.1 3.35.1.933 0 2.1-.033 3.5-.1l2.35-.05c.066 0 .1.1.1.3 0 .2-.034.3-.1.3-1.3 0-2.267.1-2.9.3-.6.2-1.017.55-1.25 1.05-.2.467-.3 1.2-.3 2.2v23.05zm39.104 3.45c.133 0 .2.1.2.3 0 .2-.067.3-.2.3-.6 0-1.567-.033-2.9-.1-1.267-.067-2.2-.1-2.8-.1-.7 0-1.617.033-2.75.1a41.82 41.82 0 01-2.4.1c-.134 0-.2-.1-.2-.3 0-.2.066-.3.2-.3 1.366 0 2.35-.117 2.95-.35.6-.267.9-.7.9-1.3 0-.467-.184-1.117-.55-1.95l-4.7-10.15h-11.9l-3.4 8.2c-.467 1.133-.7 2.067-.7 2.8 0 .967.4 1.667 1.2 2.1.8.433 2.05.65 3.75.65.166 0 .25.1.25.3 0 .2-.084.3-.25.3-.6 0-1.467-.033-2.6-.1a63.883 63.883 0 00-3.3-.1c-.834 0-1.817.033-2.95.1-1 .067-1.817.1-2.45.1-.167 0-.25-.1-.25-.3 0-.2.083-.3.25-.3.933 0 1.716-.167 2.35-.5.666-.333 1.283-.933 1.85-1.8.6-.867 1.233-2.1 1.9-3.7l10.45-25.15c.066-.1.166-.15.3-.15.166 0 .266.05.3.15l11.6 24.9c.766 1.7 1.45 3 2.05 3.9.6.867 1.183 1.483 1.75 1.85.6.333 1.283.5 2.05.5zm-23.75-14.65h11.05l-5.85-12.55-5.2 12.55zm21.296-16.5c.967 0 1.717.367 2.25 1.1.567.7.85 1.717.85 3.05 0 1.3-.3 2.5-.9 3.6-.567 1.1-1.417 2.2-2.55 3.3-.033.033-.083.05-.15.05-.1 0-.183-.05-.25-.15-.067-.1-.067-.183 0-.25 1.633-1.667 2.45-3.633 2.45-5.9 0-.867-.167-1.55-.5-2.05-.233.5-.717.75-1.45.75-.567 0-1.017-.15-1.35-.45-.3-.333-.45-.767-.45-1.3 0-1.167.683-1.75 2.05-1.75zm8.765 6.55c0 1.333.317 2.483.95 3.45a9.485 9.485 0 002.3 2.45c.933.633 2.217 1.433 3.85 2.4 1.733 1.033 3.067 1.9 4 2.6.967.667 1.783 1.533 2.45 2.6.7 1.067 1.05 2.35 1.05 3.85 0 1.567-.383 3-1.15 4.3-.767 1.267-1.917 2.283-3.45 3.05-1.5.733-3.35 1.1-5.55 1.1-1.167 0-2.283-.133-3.35-.4-1.033-.233-2.183-.667-3.45-1.3a.88.88 0 01-.35-.35 5.48 5.48 0 01-.1-.6l-.75-6.5v-.05c0-.133.083-.2.25-.2.167-.033.267.017.3.15.333 2.3 1.217 4.3 2.65 6 1.433 1.7 3.4 2.55 5.9 2.55 1.767 0 3.25-.483 4.45-1.45 1.233-.967 1.85-2.483 1.85-4.55 0-1.5-.333-2.783-1-3.85-.667-1.1-1.483-2-2.45-2.7-.933-.733-2.217-1.583-3.85-2.55-1.6-.933-2.867-1.75-3.8-2.45a10.4 10.4 0 01-2.35-2.6c-.633-1.067-.95-2.333-.95-3.8 0-1.667.417-3.083 1.25-4.25a7.826 7.826 0 013.35-2.6c1.367-.6 2.833-.9 4.4-.9 1.833 0 3.733.4 5.7 1.2.5.2.75.483.75.85l.45 5.3c0 .133-.1.2-.3.2-.167 0-.267-.067-.3-.2-.133-1.733-.783-3.283-1.95-4.65-1.167-1.367-2.833-2.05-5-2.05-2 0-3.467.583-4.4 1.75-.933 1.167-1.4 2.567-1.4 4.2z" fill="#EBE7DD"/><path d="M39.97 35.4c.133 0 .2.1.2.3 0 .2-.067.3-.2.3-.6 0-1.567-.033-2.9-.1-1.267-.067-2.2-.1-2.8-.1-.7 0-1.617.033-2.75.1a41.82 41.82 0 01-2.4.1c-.134 0-.2-.1-.2-.3 0-.2.066-.3.2-.3 1.366 0 2.35-.117 2.95-.35.6-.267.9-.7.9-1.3 0-.467-.184-1.117-.55-1.95l-4.7-10.15h-11.9l-3.4 8.2c-.467 1.133-.7 2.067-.7 2.8 0 .967.4 1.667 1.2 2.1.8.433 2.05.65 3.75.65.166 0 .25.1.25.3 0 .2-.084.3-.25.3-.6 0-1.467-.033-2.6-.1a63.858 63.858 0 00-3.3-.1c-.834 0-1.817.033-2.95.1-1 .067-1.817.1-2.45.1-.167 0-.25-.1-.25-.3 0-.2.083-.3.25-.3.933 0 1.716-.167 2.35-.5.666-.333 1.283-.933 1.85-1.8.6-.867 1.233-2.1 1.9-3.7L21.92 4.25c.066-.1.166-.15.3-.15.166 0 .266.05.3.15l11.6 24.9c.766 1.7 1.45 3 2.05 3.9.6.867 1.183 1.483 1.75 1.85.6.333 1.283.5 2.05.5zM16.22 20.75h11.05L21.42 8.2l-5.2 12.55zm56.412-16c.1 0 .15.1.15.3 0 .2-.05.3-.15.3-1.434 0-2.45.35-3.05 1.05-.567.7-.85 1.9-.85 3.6v26.55c0 .067-.084.117-.25.15-.167.033-.284.017-.35-.05l-22.6-27.8-.85-.95v22.9c0 1.7.283 2.9.85 3.6.566.667 1.55 1 2.95 1 .1 0 .15.1.15.3 0 .2-.05.3-.15.3-.8 0-1.417-.017-1.85-.05l-2.4-.05-2.45.05c-.434.033-1.084.05-1.95.05-.067 0-.1-.1-.1-.3 0-.2.033-.3.1-.3 1.433 0 2.416-.333 2.95-1 .533-.667.8-1.867.8-3.6V6.85c-1.167-1-2.367-1.5-3.6-1.5-.1 0-.15-.1-.15-.3 0-.2.05-.3.15-.3l1.8.05c.366.033.883.05 1.55.05.566 0 1.033-.017 1.4-.05.366-.033.65-.05.85-.05.233 0 .416.067.55.2.166.1.35.333.55.7.366.6.766 1.167 1.2 1.7l19.75 24.55V10c0-1.7-.267-2.9-.8-3.6-.534-.7-1.5-1.05-2.9-1.05-.067 0-.1-.1-.1-.3 0-.2.033-.3.1-.3l1.9.05c1 .067 1.8.1 2.4.1.566 0 1.383-.033 2.45-.1l1.95-.05zm33.48 30.65c.133 0 .2.1.2.3 0 .2-.067.3-.2.3-.6 0-1.567-.033-2.9-.1-1.267-.067-2.2-.1-2.8-.1-.7 0-1.617.033-2.75.1a42.08 42.08 0 01-2.4.1c-.133 0-.2-.1-.2-.3 0-.2.067-.3.2-.3 1.367 0 2.35-.117 2.95-.35.6-.267.9-.7.9-1.3 0-.467-.183-1.117-.55-1.95l-4.7-10.15h-11.9l-3.4 8.2c-.467 1.133-.7 2.067-.7 2.8 0 .967.4 1.667 1.2 2.1.8.433 2.05.65 3.75.65.167 0 .25.1.25.3 0 .2-.083.3-.25.3-.6 0-1.467-.033-2.6-.1a63.864 63.864 0 00-3.3-.1c-.833 0-1.817.033-2.95.1-1 .067-1.817.1-2.45.1-.167 0-.25-.1-.25-.3 0-.2.083-.3.25-.3.933 0 1.717-.167 2.35-.5.667-.333 1.283-.933 1.85-1.8.6-.867 1.233-2.1 1.9-3.7l10.45-25.15c.067-.1.167-.15.3-.15.167 0 .267.05.3.15l11.6 24.9c.767 1.7 1.45 3 2.05 3.9.6.867 1.183 1.483 1.75 1.85.6.333 1.283.5 2.05.5zm-23.75-14.65h11.05L87.562 8.2l-5.2 12.55zm28.362-9.95c0 1.333.317 2.483.95 3.45a9.502 9.502 0 002.3 2.45c.934.633 2.217 1.433 3.85 2.4 1.734 1.033 3.067 1.9 4 2.6.967.667 1.784 1.533 2.45 2.6.7 1.067 1.05 2.35 1.05 3.85 0 1.567-.383 3-1.15 4.3-.766 1.267-1.916 2.283-3.45 3.05-1.5.733-3.35 1.1-5.55 1.1-1.166 0-2.283-.133-3.35-.4-1.033-.233-2.183-.667-3.45-1.3a.886.886 0 01-.35-.35 5.737 5.737 0 01-.1-.6l-.75-6.5v-.05c0-.133.084-.2.25-.2.167-.033.267.017.3.15.334 2.3 1.217 4.3 2.65 6 1.434 1.7 3.4 2.55 5.9 2.55 1.767 0 3.25-.483 4.45-1.45 1.234-.967 1.85-2.483 1.85-4.55 0-1.5-.333-2.783-1-3.85-.666-1.1-1.483-2-2.45-2.7-.933-.733-2.216-1.583-3.85-2.55-1.6-.933-2.866-1.75-3.8-2.45a10.4 10.4 0 01-2.35-2.6c-.633-1.067-.95-2.333-.95-3.8 0-1.667.417-3.083 1.25-4.25a7.831 7.831 0 013.35-2.6c1.367-.6 2.834-.9 4.4-.9 1.834 0 3.734.4 5.7 1.2.5.2.75.483.75.85l.45 5.3c0 .133-.1.2-.3.2-.166 0-.266-.067-.3-.2-.133-1.733-.783-3.283-1.95-4.65-1.166-1.367-2.833-2.05-5-2.05-2 0-3.466.583-4.4 1.75-.933 1.167-1.4 2.567-1.4 4.2zm23.868-5.2c-2.1 0-3.634.5-4.6 1.5-.967 1-1.617 2.783-1.95 5.35 0 .067-.1.1-.3.1-.2 0-.3-.033-.3-.1.133-.9.283-2.333.45-4.3.166-2 .25-3.5.25-4.5 0-.167.1-.25.3-.25.2 0 .3.083.3.25 0 .733.883 1.1 2.65 1.1 2.866.1 6.216.15 10.05.15 1.966 0 4.05-.033 6.25-.1l3.4-.05c1.2 0 2.083-.083 2.65-.25.566-.167.933-.5 1.1-1 .033-.133.133-.2.3-.2.166 0 .25.067.25.2-.1.933-.2 2.367-.3 4.3-.1 1.9-.15 3.45-.15 4.65 0 .067-.1.1-.3.1-.2 0-.3-.033-.3-.1 0-1.767-.184-3.133-.55-4.1-.367-.967-.984-1.667-1.85-2.1-.867-.433-2.084-.65-3.65-.65-1.734 0-2.95.067-3.65.2-.7.1-1.184.367-1.45.8-.234.433-.35 1.2-.35 2.3v23.05c0 1.033.116 1.783.35 2.25.233.467.7.783 1.4.95.7.167 1.8.25 3.3.25.066 0 .1.1.1.3 0 .2-.034.3-.1.3-1.1 0-1.967-.017-2.6-.05l-3.85-.05-3.65.05a58.43 58.43 0 01-2.75.05c-.067 0-.1-.1-.1-.3 0-.2.033-.3.1-.3 1.5 0 2.6-.083 3.3-.25.7-.167 1.166-.483 1.4-.95.266-.5.4-1.25.4-2.25V8.8c0-1.1-.134-1.85-.4-2.25-.267-.433-.75-.7-1.45-.8-.667-.1-1.9-.15-3.7-.15zm51.276 29.8c.133 0 .2.1.2.3 0 .2-.067.3-.2.3-.6 0-1.567-.033-2.9-.1-1.267-.067-2.2-.1-2.8-.1-.7 0-1.617.033-2.75.1a41.82 41.82 0 01-2.4.1c-.133 0-.2-.1-.2-.3 0-.2.067-.3.2-.3 1.367 0 2.35-.117 2.95-.35.6-.267.9-.7.9-1.3 0-.467-.183-1.117-.55-1.95l-4.7-10.15h-11.9l-3.4 8.2c-.467 1.133-.7 2.067-.7 2.8 0 .967.4 1.667 1.2 2.1.8.433 2.05.65 3.75.65.167 0 .25.1.25.3 0 .2-.083.3-.25.3-.6 0-1.467-.033-2.6-.1a63.883 63.883 0 00-3.3-.1c-.833 0-1.817.033-2.95.1-1 .067-1.817.1-2.45.1-.167 0-.25-.1-.25-.3 0-.2.083-.3.25-.3.933 0 1.717-.167 2.35-.5.667-.333 1.283-.933 1.85-1.8.6-.867 1.233-2.1 1.9-3.7l10.45-25.15c.067-.1.167-.15.3-.15.167 0 .267.05.3.15l11.6 24.9c.767 1.7 1.45 3 2.05 3.9.6.867 1.183 1.483 1.75 1.85.6.333 1.283.5 2.05.5zm-23.75-14.65h11.05l-5.85-12.55-5.2 12.55zm28.362-9.95c0 1.333.317 2.483.95 3.45a9.485 9.485 0 002.3 2.45c.933.633 2.217 1.433 3.85 2.4 1.733 1.033 3.067 1.9 4 2.6.967.667 1.783 1.533 2.45 2.6.7 1.067 1.05 2.35 1.05 3.85 0 1.567-.383 3-1.15 4.3-.767 1.267-1.917 2.283-3.45 3.05-1.5.733-3.35 1.1-5.55 1.1-1.167 0-2.283-.133-3.35-.4-1.033-.233-2.183-.667-3.45-1.3a.88.88 0 01-.35-.35 5.48 5.48 0 01-.1-.6l-.75-6.5v-.05c0-.133.083-.2.25-.2.167-.033.267.017.3.15.333 2.3 1.217 4.3 2.65 6 1.433 1.7 3.4 2.55 5.9 2.55 1.767 0 3.25-.483 4.45-1.45 1.233-.967 1.85-2.483 1.85-4.55 0-1.5-.333-2.783-1-3.85-.667-1.1-1.483-2-2.45-2.7-.933-.733-2.217-1.583-3.85-2.55-1.6-.933-2.867-1.75-3.8-2.45a10.4 10.4 0 01-2.35-2.6c-.633-1.067-.95-2.333-.95-3.8 0-1.667.417-3.083 1.25-4.25a7.826 7.826 0 013.35-2.6c1.367-.6 2.833-.9 4.4-.9 1.833 0 3.733.4 5.7 1.2.5.2.75.483.75.85l.45 5.3c0 .133-.1.2-.3.2-.167 0-.267-.067-.3-.2-.133-1.733-.783-3.283-1.95-4.65-1.167-1.367-2.833-2.05-5-2.05-2 0-3.467.583-4.4 1.75-.933 1.167-1.4 2.567-1.4 4.2zm24.468 21.15c0 1.033.1 1.783.3 2.25.233.467.65.783 1.25.95.6.167 1.566.25 2.9.25.066 0 .1.1.1.3 0 .2-.034.3-.1.3-1 0-1.784-.017-2.35-.05l-3.5-.05-3.35.05c-.6.033-1.417.05-2.45.05-.1 0-.15-.1-.15-.3 0-.2.05-.3.15-.3 1.3 0 2.25-.083 2.85-.25.633-.167 1.066-.483 1.3-.95.233-.5.35-1.25.35-2.25V8.8c0-1-.117-1.733-.35-2.2-.234-.467-.667-.783-1.3-.95-.6-.2-1.55-.3-2.85-.3-.1 0-.15-.1-.15-.3 0-.2.05-.3.15-.3l2.45.05c1.4.067 2.516.1 3.35.1.933 0 2.1-.033 3.5-.1l2.35-.05c.066 0 .1.1.1.3 0 .2-.034.3-.1.3-1.3 0-2.267.1-2.9.3-.6.2-1.017.55-1.25 1.05-.2.467-.3 1.2-.3 2.2v23.05zm39.104 3.45c.133 0 .2.1.2.3 0 .2-.067.3-.2.3-.6 0-1.567-.033-2.9-.1-1.267-.067-2.2-.1-2.8-.1-.7 0-1.617.033-2.75.1a41.82 41.82 0 01-2.4.1c-.134 0-.2-.1-.2-.3 0-.2.066-.3.2-.3 1.366 0 2.35-.117 2.95-.35.6-.267.9-.7.9-1.3 0-.467-.184-1.117-.55-1.95l-4.7-10.15h-11.9l-3.4 8.2c-.467 1.133-.7 2.067-.7 2.8 0 .967.4 1.667 1.2 2.1.8.433 2.05.65 3.75.65.166 0 .25.1.25.3 0 .2-.084.3-.25.3-.6 0-1.467-.033-2.6-.1a63.883 63.883 0 00-3.3-.1c-.834 0-1.817.033-2.95.1-1 .067-1.817.1-2.45.1-.167 0-.25-.1-.25-.3 0-.2.083-.3.25-.3.933 0 1.716-.167 2.35-.5.666-.333 1.283-.933 1.85-1.8.6-.867 1.233-2.1 1.9-3.7l10.45-25.15c.066-.1.166-.15.3-.15.166 0 .266.05.3.15l11.6 24.9c.766 1.7 1.45 3 2.05 3.9.6.867 1.183 1.483 1.75 1.85.6.333 1.283.5 2.05.5zm-23.75-14.65h11.05l-5.85-12.55-5.2 12.55zm21.296-16.5c.967 0 1.717.367 2.25 1.1.567.7.85 1.717.85 3.05 0 1.3-.3 2.5-.9 3.6-.567 1.1-1.417 2.2-2.55 3.3-.033.033-.083.05-.15.05-.1 0-.183-.05-.25-.15-.067-.1-.067-.183 0-.25 1.633-1.667 2.45-3.633 2.45-5.9 0-.867-.167-1.55-.5-2.05-.233.5-.717.75-1.45.75-.567 0-1.017-.15-1.35-.45-.3-.333-.45-.767-.45-1.3 0-1.167.683-1.75 2.05-1.75zm8.765 6.55c0 1.333.317 2.483.95 3.45a9.485 9.485 0 002.3 2.45c.933.633 2.217 1.433 3.85 2.4 1.733 1.033 3.067 1.9 4 2.6.967.667 1.783 1.533 2.45 2.6.7 1.067 1.05 2.35 1.05 3.85 0 1.567-.383 3-1.15 4.3-.767 1.267-1.917 2.283-3.45 3.05-1.5.733-3.35 1.1-5.55 1.1-1.167 0-2.283-.133-3.35-.4-1.033-.233-2.183-.667-3.45-1.3a.88.88 0 01-.35-.35 5.48 5.48 0 01-.1-.6l-.75-6.5v-.05c0-.133.083-.2.25-.2.167-.033.267.017.3.15.333 2.3 1.217 4.3 2.65 6 1.433 1.7 3.4 2.55 5.9 2.55 1.767 0 3.25-.483 4.45-1.45 1.233-.967 1.85-2.483 1.85-4.55 0-1.5-.333-2.783-1-3.85-.667-1.1-1.483-2-2.45-2.7-.933-.733-2.217-1.583-3.85-2.55-1.6-.933-2.867-1.75-3.8-2.45a10.4 10.4 0 01-2.35-2.6c-.633-1.067-.95-2.333-.95-3.8 0-1.667.417-3.083 1.25-4.25a7.826 7.826 0 013.35-2.6c1.367-.6 2.833-.9 4.4-.9 1.833 0 3.733.4 5.7 1.2.5.2.75.483.75.85l.45 5.3c0 .133-.1.2-.3.2-.167 0-.267-.067-.3-.2-.133-1.733-.783-3.283-1.95-4.65-1.167-1.367-2.833-2.05-5-2.05-2 0-3.467.583-4.4 1.75-.933 1.167-1.4 2.567-1.4 4.2z" fill="url(#paint0_linear_264_809)"/><path d="M140.7 95.4c.133 0 .2.1.2.3 0 .2-.067.3-.2.3-.6 0-1.567-.033-2.9-.1-1.267-.067-2.2-.1-2.8-.1-.7 0-1.617.033-2.75.1a41.82 41.82 0 01-2.4.1c-.133 0-.2-.1-.2-.3 0-.2.067-.3.2-.3 1.367 0 2.35-.117 2.95-.35.6-.267.9-.7.9-1.3 0-.467-.183-1.117-.55-1.95l-4.7-10.15h-11.9l-3.4 8.2c-.467 1.133-.7 2.067-.7 2.8 0 .967.4 1.667 1.2 2.1.8.433 2.05.65 3.75.65.167 0 .25.1.25.3 0 .2-.083.3-.25.3-.6 0-1.467-.033-2.6-.1a63.883 63.883 0 00-3.3-.1c-.833 0-1.817.033-2.95.1-1 .067-1.817.1-2.45.1-.167 0-.25-.1-.25-.3 0-.2.083-.3.25-.3.933 0 1.717-.167 2.35-.5.667-.333 1.283-.933 1.85-1.8.6-.867 1.233-2.1 1.9-3.7l10.45-25.15c.067-.1.167-.15.3-.15.167 0 .267.05.3.15l11.6 24.9c.767 1.7 1.45 3 2.05 3.9.6.867 1.183 1.483 1.75 1.85.6.333 1.283.5 2.05.5zm-23.75-14.65H128l-5.85-12.55-5.2 12.55zm56.412-16c.1 0 .15.1.15.3 0 .2-.05.3-.15.3-1.433 0-2.45.35-3.05 1.05-.567.7-.85 1.9-.85 3.6v26.55c0 .067-.083.117-.25.15-.167.033-.283.017-.35-.05l-22.6-27.8-.85-.95v22.9c0 1.7.283 2.9.85 3.6.567.667 1.55 1 2.95 1 .1 0 .15.1.15.3 0 .2-.05.3-.15.3-.8 0-1.417-.017-1.85-.05l-2.4-.05-2.45.05c-.433.033-1.083.05-1.95.05-.067 0-.1-.1-.1-.3 0-.2.033-.3.1-.3 1.433 0 2.417-.333 2.95-1 .533-.667.8-1.867.8-3.6V66.85c-1.167-1-2.367-1.5-3.6-1.5-.1 0-.15-.1-.15-.3 0-.2.05-.3.15-.3l1.8.05c.367.033.883.05 1.55.05.567 0 1.033-.017 1.4-.05s.65-.05.85-.05c.233 0 .417.067.55.2.167.1.35.333.55.7.367.6.767 1.167 1.2 1.7l19.75 24.55V70c0-1.7-.267-2.9-.8-3.6-.533-.7-1.5-1.05-2.9-1.05-.067 0-.1-.1-.1-.3 0-.2.033-.3.1-.3l1.9.05c1 .067 1.8.1 2.4.1.567 0 1.383-.033 2.45-.1l1.95-.05zm19.031 31.85c-3.634 0-6.8-.733-9.5-2.2-2.667-1.5-4.717-3.5-6.15-6-1.434-2.533-2.15-5.3-2.15-8.3 0-3.233.8-6.05 2.4-8.45 1.633-2.4 3.85-4.233 6.65-5.5 2.833-1.3 6-1.95 9.5-1.95 1.833 0 3.516.183 5.05.55 1.533.367 2.833.883 3.9 1.55.233.167.366.3.4.4.033.067.066.3.1.7l.6 5.6c0 .1-.1.167-.3.2-.167.033-.267 0-.3-.1-.734-2.767-1.9-4.817-3.5-6.15-1.567-1.333-3.784-2-6.65-2-2.767 0-5.25.6-7.45 1.8-2.2 1.167-3.934 2.85-5.2 5.05-1.267 2.167-1.9 4.717-1.9 7.65 0 2.767.566 5.4 1.7 7.9 1.166 2.5 2.933 4.55 5.3 6.15 2.4 1.6 5.35 2.4 8.85 2.4 2.466 0 4.2-.467 5.2-1.4 1.033-.967 1.55-2.55 1.55-4.75 0-1.733-.117-2.933-.35-3.6-.234-.7-.734-1.167-1.5-1.4-.767-.233-2.1-.35-4-.35-.2 0-.3-.133-.3-.4 0-.1.016-.183.05-.25.066-.1.133-.15.2-.15 2.566.167 4.633.25 6.2.25 1.5 0 3.1-.05 4.8-.15.066 0 .116.05.15.15.066.067.1.133.1.2 0 .233-.084.35-.25.35-.867-.033-1.484.083-1.85.35-.367.233-.6.733-.7 1.5-.1.767-.15 2.1-.15 4 0 1.5.05 2.567.15 3.2.133.633.2 1.033.2 1.2 0 .2-.034.333-.1.4-.067.067-.217.133-.45.2-4.034.9-7.467 1.35-10.3 1.35zm36.199-7.9c0-.1.1-.133.3-.1.2 0 .3.05.3.15-.3 2.1-.45 4.267-.45 6.5 0 .267-.067.467-.2.6-.1.1-.3.15-.6.15h-20.65c-.067 0-.1-.1-.1-.3 0-.2.033-.3.1-.3 1.3 0 2.25-.083 2.85-.25.633-.167 1.05-.483 1.25-.95.233-.5.35-1.25.35-2.25V68.8c0-1-.117-1.733-.35-2.2-.2-.467-.617-.783-1.25-.95-.6-.2-1.55-.3-2.85-.3-.067 0-.1-.1-.1-.3 0-.2.033-.3.1-.3h19.8c.3 0 .45.15.45.45l.1 6.05c0 .1-.1.15-.3.15-.167 0-.25-.05-.25-.15 0-1.7-.45-3.05-1.35-4.05-.9-1-2.084-1.5-3.55-1.5h-3.45c-1.267 0-2.2.083-2.8.25-.6.167-1.017.483-1.25.95-.2.467-.3 1.2-.3 2.2v10.15h6.6c1.533 0 2.6-.25 3.2-.75.6-.533.9-1.433.9-2.7 0-.067.1-.1.3-.1.2 0 .3.033.3.1l-.05 3.95c0 .967.016 1.683.05 2.15l.05 2.35c0 .067-.1.1-.3.1-.2 0-.3-.033-.3-.1 0-1.5-.317-2.55-.95-3.15-.634-.6-1.75-.9-3.35-.9h-6.45v11.55c0 .967.1 1.683.3 2.15.233.433.633.733 1.2.9.6.167 1.55.25 2.85.25h4.6c1.333 0 2.466-.583 3.4-1.75.966-1.167 1.583-2.7 1.85-4.6zm9.56 3.05c0 .967.1 1.683.3 2.15.233.433.633.733 1.2.9.6.167 1.533.25 2.8.25h6.4c3.3 0 5.25-2.117 5.85-6.35 0-.1.083-.133.25-.1.2 0 .3.05.3.15-.3 2.633-.45 4.8-.45 6.5 0 .267-.05.467-.15.6-.1.1-.3.15-.6.15h-23c-.067 0-.1-.1-.1-.3 0-.2.033-.3.1-.3 1.3 0 2.25-.083 2.85-.25.633-.167 1.05-.483 1.25-.95.233-.5.35-1.25.35-2.25V68.8c0-1-.117-1.733-.35-2.2-.2-.467-.617-.783-1.25-.95-.6-.2-1.55-.3-2.85-.3-.067 0-.1-.1-.1-.3 0-.2.033-.3.1-.3l2.45.05c1.4.067 2.5.1 3.3.1.9 0 2.05-.033 3.45-.1l2.35-.05c.067 0 .1.1.1.3 0 .2-.033.3-.1.3-1.3 0-2.267.1-2.9.3-.6.167-1.017.5-1.25 1-.2.467-.3 1.2-.3 2.2v22.9zm22.014-20.95c0 1.333.316 2.483.95 3.45a9.485 9.485 0 002.3 2.45c.933.633 2.216 1.433 3.85 2.4 1.733 1.033 3.066 1.9 4 2.6.966.667 1.783 1.533 2.45 2.6.7 1.067 1.05 2.35 1.05 3.85 0 1.567-.384 3-1.15 4.3-.767 1.267-1.917 2.283-3.45 3.05-1.5.733-3.35 1.1-5.55 1.1-1.167 0-2.284-.133-3.35-.4-1.034-.233-2.184-.667-3.45-1.3a.873.873 0 01-.35-.35 5.245 5.245 0 01-.1-.6l-.75-6.5v-.05c0-.133.083-.2.25-.2.166-.033.266.017.3.15.333 2.3 1.216 4.3 2.65 6 1.433 1.7 3.4 2.55 5.9 2.55 1.766 0 3.25-.483 4.45-1.45 1.233-.967 1.85-2.483 1.85-4.55 0-1.5-.334-2.783-1-3.85-.667-1.1-1.484-2-2.45-2.7-.934-.733-2.217-1.583-3.85-2.55-1.6-.933-2.867-1.75-3.8-2.45-.9-.7-1.684-1.567-2.35-2.6-.634-1.067-.95-2.333-.95-3.8 0-1.667.416-3.083 1.25-4.25a7.82 7.82 0 013.35-2.6c1.366-.6 2.833-.9 4.4-.9 1.833 0 3.733.4 5.7 1.2.5.2.75.483.75.85l.45 5.3c0 .133-.1.2-.3.2-.167 0-.267-.067-.3-.2-.134-1.733-.784-3.283-1.95-4.65-1.167-1.367-2.834-2.05-5-2.05-2 0-3.467.583-4.4 1.75-.934 1.167-1.4 2.567-1.4 4.2z" fill="#EBE7DD"/><path d="M140.7 95.4c.133 0 .2.1.2.3 0 .2-.067.3-.2.3-.6 0-1.567-.033-2.9-.1-1.267-.067-2.2-.1-2.8-.1-.7 0-1.617.033-2.75.1a41.82 41.82 0 01-2.4.1c-.133 0-.2-.1-.2-.3 0-.2.067-.3.2-.3 1.367 0 2.35-.117 2.95-.35.6-.267.9-.7.9-1.3 0-.467-.183-1.117-.55-1.95l-4.7-10.15h-11.9l-3.4 8.2c-.467 1.133-.7 2.067-.7 2.8 0 .967.4 1.667 1.2 2.1.8.433 2.05.65 3.75.65.167 0 .25.1.25.3 0 .2-.083.3-.25.3-.6 0-1.467-.033-2.6-.1a63.883 63.883 0 00-3.3-.1c-.833 0-1.817.033-2.95.1-1 .067-1.817.1-2.45.1-.167 0-.25-.1-.25-.3 0-.2.083-.3.25-.3.933 0 1.717-.167 2.35-.5.667-.333 1.283-.933 1.85-1.8.6-.867 1.233-2.1 1.9-3.7l10.45-25.15c.067-.1.167-.15.3-.15.167 0 .267.05.3.15l11.6 24.9c.767 1.7 1.45 3 2.05 3.9.6.867 1.183 1.483 1.75 1.85.6.333 1.283.5 2.05.5zm-23.75-14.65H128l-5.85-12.55-5.2 12.55zm56.412-16c.1 0 .15.1.15.3 0 .2-.05.3-.15.3-1.433 0-2.45.35-3.05 1.05-.567.7-.85 1.9-.85 3.6v26.55c0 .067-.083.117-.25.15-.167.033-.283.017-.35-.05l-22.6-27.8-.85-.95v22.9c0 1.7.283 2.9.85 3.6.567.667 1.55 1 2.95 1 .1 0 .15.1.15.3 0 .2-.05.3-.15.3-.8 0-1.417-.017-1.85-.05l-2.4-.05-2.45.05c-.433.033-1.083.05-1.95.05-.067 0-.1-.1-.1-.3 0-.2.033-.3.1-.3 1.433 0 2.417-.333 2.95-1 .533-.667.8-1.867.8-3.6V66.85c-1.167-1-2.367-1.5-3.6-1.5-.1 0-.15-.1-.15-.3 0-.2.05-.3.15-.3l1.8.05c.367.033.883.05 1.55.05.567 0 1.033-.017 1.4-.05s.65-.05.85-.05c.233 0 .417.067.55.2.167.1.35.333.55.7.367.6.767 1.167 1.2 1.7l19.75 24.55V70c0-1.7-.267-2.9-.8-3.6-.533-.7-1.5-1.05-2.9-1.05-.067 0-.1-.1-.1-.3 0-.2.033-.3.1-.3l1.9.05c1 .067 1.8.1 2.4.1.567 0 1.383-.033 2.45-.1l1.95-.05zm19.031 31.85c-3.634 0-6.8-.733-9.5-2.2-2.667-1.5-4.717-3.5-6.15-6-1.434-2.533-2.15-5.3-2.15-8.3 0-3.233.8-6.05 2.4-8.45 1.633-2.4 3.85-4.233 6.65-5.5 2.833-1.3 6-1.95 9.5-1.95 1.833 0 3.516.183 5.05.55 1.533.367 2.833.883 3.9 1.55.233.167.366.3.4.4.033.067.066.3.1.7l.6 5.6c0 .1-.1.167-.3.2-.167.033-.267 0-.3-.1-.734-2.767-1.9-4.817-3.5-6.15-1.567-1.333-3.784-2-6.65-2-2.767 0-5.25.6-7.45 1.8-2.2 1.167-3.934 2.85-5.2 5.05-1.267 2.167-1.9 4.717-1.9 7.65 0 2.767.566 5.4 1.7 7.9 1.166 2.5 2.933 4.55 5.3 6.15 2.4 1.6 5.35 2.4 8.85 2.4 2.466 0 4.2-.467 5.2-1.4 1.033-.967 1.55-2.55 1.55-4.75 0-1.733-.117-2.933-.35-3.6-.234-.7-.734-1.167-1.5-1.4-.767-.233-2.1-.35-4-.35-.2 0-.3-.133-.3-.4 0-.1.016-.183.05-.25.066-.1.133-.15.2-.15 2.566.167 4.633.25 6.2.25 1.5 0 3.1-.05 4.8-.15.066 0 .116.05.15.15.066.067.1.133.1.2 0 .233-.084.35-.25.35-.867-.033-1.484.083-1.85.35-.367.233-.6.733-.7 1.5-.1.767-.15 2.1-.15 4 0 1.5.05 2.567.15 3.2.133.633.2 1.033.2 1.2 0 .2-.034.333-.1.4-.067.067-.217.133-.45.2-4.034.9-7.467 1.35-10.3 1.35zm36.199-7.9c0-.1.1-.133.3-.1.2 0 .3.05.3.15-.3 2.1-.45 4.267-.45 6.5 0 .267-.067.467-.2.6-.1.1-.3.15-.6.15h-20.65c-.067 0-.1-.1-.1-.3 0-.2.033-.3.1-.3 1.3 0 2.25-.083 2.85-.25.633-.167 1.05-.483 1.25-.95.233-.5.35-1.25.35-2.25V68.8c0-1-.117-1.733-.35-2.2-.2-.467-.617-.783-1.25-.95-.6-.2-1.55-.3-2.85-.3-.067 0-.1-.1-.1-.3 0-.2.033-.3.1-.3h19.8c.3 0 .45.15.45.45l.1 6.05c0 .1-.1.15-.3.15-.167 0-.25-.05-.25-.15 0-1.7-.45-3.05-1.35-4.05-.9-1-2.084-1.5-3.55-1.5h-3.45c-1.267 0-2.2.083-2.8.25-.6.167-1.017.483-1.25.95-.2.467-.3 1.2-.3 2.2v10.15h6.6c1.533 0 2.6-.25 3.2-.75.6-.533.9-1.433.9-2.7 0-.067.1-.1.3-.1.2 0 .3.033.3.1l-.05 3.95c0 .967.016 1.683.05 2.15l.05 2.35c0 .067-.1.1-.3.1-.2 0-.3-.033-.3-.1 0-1.5-.317-2.55-.95-3.15-.634-.6-1.75-.9-3.35-.9h-6.45v11.55c0 .967.1 1.683.3 2.15.233.433.633.733 1.2.9.6.167 1.55.25 2.85.25h4.6c1.333 0 2.466-.583 3.4-1.75.966-1.167 1.583-2.7 1.85-4.6zm9.56 3.05c0 .967.1 1.683.3 2.15.233.433.633.733 1.2.9.6.167 1.533.25 2.8.25h6.4c3.3 0 5.25-2.117 5.85-6.35 0-.1.083-.133.25-.1.2 0 .3.05.3.15-.3 2.633-.45 4.8-.45 6.5 0 .267-.05.467-.15.6-.1.1-.3.15-.6.15h-23c-.067 0-.1-.1-.1-.3 0-.2.033-.3.1-.3 1.3 0 2.25-.083 2.85-.25.633-.167 1.05-.483 1.25-.95.233-.5.35-1.25.35-2.25V68.8c0-1-.117-1.733-.35-2.2-.2-.467-.617-.783-1.25-.95-.6-.2-1.55-.3-2.85-.3-.067 0-.1-.1-.1-.3 0-.2.033-.3.1-.3l2.45.05c1.4.067 2.5.1 3.3.1.9 0 2.05-.033 3.45-.1l2.35-.05c.067 0 .1.1.1.3 0 .2-.033.3-.1.3-1.3 0-2.267.1-2.9.3-.6.167-1.017.5-1.25 1-.2.467-.3 1.2-.3 2.2v22.9zm22.014-20.95c0 1.333.316 2.483.95 3.45a9.485 9.485 0 002.3 2.45c.933.633 2.216 1.433 3.85 2.4 1.733 1.033 3.066 1.9 4 2.6.966.667 1.783 1.533 2.45 2.6.7 1.067 1.05 2.35 1.05 3.85 0 1.567-.384 3-1.15 4.3-.767 1.267-1.917 2.283-3.45 3.05-1.5.733-3.35 1.1-5.55 1.1-1.167 0-2.284-.133-3.35-.4-1.034-.233-2.184-.667-3.45-1.3a.873.873 0 01-.35-.35 5.245 5.245 0 01-.1-.6l-.75-6.5v-.05c0-.133.083-.2.25-.2.166-.033.266.017.3.15.333 2.3 1.216 4.3 2.65 6 1.433 1.7 3.4 2.55 5.9 2.55 1.766 0 3.25-.483 4.45-1.45 1.233-.967 1.85-2.483 1.85-4.55 0-1.5-.334-2.783-1-3.85-.667-1.1-1.484-2-2.45-2.7-.934-.733-2.217-1.583-3.85-2.55-1.6-.933-2.867-1.75-3.8-2.45-.9-.7-1.684-1.567-2.35-2.6-.634-1.067-.95-2.333-.95-3.8 0-1.667.416-3.083 1.25-4.25a7.82 7.82 0 013.35-2.6c1.366-.6 2.833-.9 4.4-.9 1.833 0 3.733.4 5.7 1.2.5.2.75.483.75.85l.45 5.3c0 .133-.1.2-.3.2-.167 0-.267-.067-.3-.2-.134-1.733-.784-3.283-1.95-4.65-1.167-1.367-2.834-2.05-5-2.05-2 0-3.467.583-4.4 1.75-.934 1.167-1.4 2.567-1.4 4.2z" fill="url(#paint1_linear_264_809)"/><path d="M33.39 65.55a52.539 52.539 0 01-7.28 7.14 97.775 97.775 0 01-7.84 5.67 53.399 53.399 0 01-3.92 2.24c-1.307.7-2.59 1.377-3.85 2.03-.653 1.213-1.26 2.38-1.82 3.5a30.66 30.66 0 00-1.4 3.22c-.793 1.96-.91 3.477-.35 4.55s1.517 1.61 2.87 1.61c.887 0 1.937-.28 3.15-.84 1.633-.793 3.243-1.843 4.83-3.15 1.587-1.353 3.08-2.917 4.48-4.69.233-.233.397-.28.49-.14.14.14.093.327-.14.56-1.633 1.96-3.197 3.547-4.69 4.76-1.447 1.167-2.753 2.1-3.92 2.8-.84.513-1.913.957-3.22 1.33-1.307.373-2.473.49-3.5.35-2.147-.327-3.29-1.19-3.43-2.59-.14-1.447.327-3.29 1.4-5.53.98-1.913 2.03-3.85 3.15-5.81a236.744 236.744 0 013.22-5.6 129.888 129.888 0 013.01-4.76 82.535 82.535 0 012.31-3.43 47.12 47.12 0 011.47-2.03 67.304 67.304 0 011.54-1.89c1.073-1.307 2.147-2.357 3.22-3.15 1.353-1.027 2.893-1.657 4.62-1.89 1.727-.233 3.337-.163 4.83.21 1.4.327 2.17 1.003 2.31 2.03.14.98-.373 2.147-1.54 3.5zm-1.68.7c.607-.793.863-1.563.77-2.31-.093-.793-.537-1.493-1.33-2.1-1.073-.84-2.287-1.237-3.64-1.19-1.307.047-2.497.513-3.57 1.4-.887.7-1.727 1.587-2.52 2.66a62.102 62.102 0 00-2.31 3.43c-1.26 1.96-2.59 4.13-3.99 6.51a466.287 466.287 0 01-4.06 7l-.21.35a135.586 135.586 0 003.64-1.89c1.213-.7 2.38-1.4 3.5-2.1.7-.467 1.657-1.143 2.87-2.03a65.192 65.192 0 003.85-2.94 67.525 67.525 0 003.92-3.36c1.26-1.213 2.287-2.357 3.08-3.43zm7.743 19.74c-.98.793-2.217 1.633-3.71 2.52-1.494.84-2.847 1.447-4.06 1.82-1.587.56-2.824.607-3.71.14a26.59 26.59 0 01-.91 1.54 7.54 7.54 0 01-.98 1.4c-1.074 1.353-2.147 2.31-3.22 2.87-1.074.607-2.007.817-2.8.63-.794-.233-1.33-.793-1.61-1.68-.28-.933-.164-2.17.35-3.71.28-.84.7-1.703 1.26-2.59a22.25 22.25 0 012.03-2.66 21.72 21.72 0 012.45-2.24c.886-.7 1.726-1.213 2.52-1.54.7-.28 1.306-.42 1.82-.42l.21-.21a.816.816 0 00.21-.14c.233-.093.466-.163.7-.21.28-.047.583-.093.91-.14.233 0 .35.093.35.28.046.14 0 .397-.14.77-.28.747-.56 1.517-.84 2.31a27.44 27.44 0 00-.7 2.1c-.234 1.073-.117 1.867.35 2.38.513.513 1.306.607 2.38.28 1.073-.327 2.263-.863 3.57-1.61 1.353-.747 2.45-1.517 3.29-2.31.233-.233.373-.257.42-.07.093.187.046.35-.14.49zm-10.78-3.01c-.234-.327-.56-.397-.98-.21-.42.187-.887.513-1.4.98-.467.467-.98 1.05-1.54 1.75-.514.7-.98 1.423-1.4 2.17-.56.98-1.05 1.983-1.47 3.01-.42.98-.724 1.82-.91 2.52-.374 1.633-.187 2.567.56 2.8.793.28 1.796-.303 3.01-1.75 1.073-1.213 2.006-2.637 2.8-4.27-.56-.793-.537-1.843.07-3.15.233-.513.466-1.12.7-1.82.233-.7.42-1.377.56-2.03zm21.459.28c0 .42-.07.84-.21 1.26-.327.84-.933 1.703-1.82 2.59-.84.84-1.727 1.61-2.66 2.31-.653.513-1.33.98-2.03 1.4-.653.42-1.307.887-1.96 1.4-1.167.98-2.03 1.913-2.59 2.8-.373.56-.84.957-1.4 1.19-.513.233-1.027.49-1.54.77-.28.093-.397.14-.35.14-.187 0-.28-.093-.28-.28 0-.14.023-.233.07-.28.373-.933.677-1.797.91-2.59.233-.84.467-1.727.7-2.66a47.271 47.271 0 011.19-4.41 25.489 25.489 0 011.89-4.13c.187-.28.35-.513.49-.7.187-.233.443-.42.77-.56l.84-.28c.327-.093.63-.21.91-.35.047-.047.14-.07.28-.07.187 0 .28.07.28.21 0 .14-.047.257-.14.35-.373.28-.723.7-1.05 1.26-.28.513-.513.98-.7 1.4a48.264 48.264 0 00-1.75 4.27c-.513 1.4-.84 2.823-.98 4.27v.07c0 .187.07.28.21.28.047 0 .093-.023.14-.07.84-.747 1.703-1.4 2.59-1.96a91.65 91.65 0 002.8-1.75c.513-.373 1.027-.77 1.54-1.19.56-.467 1.003-.957 1.33-1.47.467-.653.7-1.307.7-1.96s-.327-1.237-.98-1.75c-.093-.093-.14-.187-.14-.28 0-.14.047-.28.14-.42l.42-.56c.42-.513.747-.77.98-.77.093 0 .163.023.21.07.793.653 1.19 1.47 1.19 2.45zm20.862 5.39a15.51 15.51 0 01-2.8 3.43 21.892 21.892 0 01-3.43 2.45 23.378 23.378 0 01-3.5 1.61c-1.167.42-2.24.723-3.22.91-2.334.513-4.037.327-5.11-.56-1.074-.84-1.47-2.077-1.19-3.71.093-.747.396-1.633.91-2.66a18.497 18.497 0 012.1-3.15 23.201 23.201 0 012.8-2.87c1.026-.933 2.053-1.68 3.08-2.24 1.12-.56 2.053-.77 2.8-.63.793.093 1.19.49 1.19 1.19 0 .513-.21 1.073-.63 1.68-1.027 1.54-2.427 2.963-4.2 4.27a73.271 73.271 0 01-5.25 3.5c-.374 1.54-.024 2.66 1.05 3.36.7.513 1.656.77 2.87.77 1.213-.047 2.52-.35 3.92-.91 1.446-.56 2.893-1.4 4.34-2.52 1.493-1.167 2.823-2.613 3.99-4.34.186-.233.303-.257.35-.07.046.14.023.303-.07.49zm-8.33-4.97c.513-.84.56-1.4.14-1.68-.374-.327-.98-.233-1.82.28-1.307.84-2.567 2.077-3.78 3.71-1.214 1.633-2.077 3.337-2.59 5.11 3.64-2.007 6.323-4.48 8.05-7.42zM98.33 65.55a52.539 52.539 0 01-7.28 7.14 97.775 97.775 0 01-7.84 5.67 53.399 53.399 0 01-3.92 2.24c-1.306.7-2.59 1.377-3.85 2.03a130.49 130.49 0 00-1.82 3.5 30.653 30.653 0 00-1.4 3.22c-.793 1.96-.91 3.477-.35 4.55s1.517 1.61 2.87 1.61c.887 0 1.937-.28 3.15-.84 1.634-.793 3.244-1.843 4.83-3.15 1.587-1.353 3.08-2.917 4.48-4.69.234-.233.397-.28.49-.14.14.14.094.327-.14.56-1.633 1.96-3.196 3.547-4.69 4.76-1.446 1.167-2.753 2.1-3.92 2.8-.84.513-1.913.957-3.22 1.33-1.306.373-2.473.49-3.5.35-2.146-.327-3.29-1.19-3.43-2.59-.14-1.447.327-3.29 1.4-5.53.98-1.913 2.03-3.85 3.15-5.81a236.744 236.744 0 013.22-5.6 129.888 129.888 0 013.01-4.76 82.535 82.535 0 012.31-3.43 47.12 47.12 0 011.47-2.03 67.304 67.304 0 011.54-1.89c1.074-1.307 2.147-2.357 3.22-3.15 1.354-1.027 2.894-1.657 4.62-1.89 1.727-.233 3.337-.163 4.83.21 1.4.327 2.17 1.003 2.31 2.03.14.98-.373 2.147-1.54 3.5zm-1.68.7c.607-.793.864-1.563.77-2.31-.093-.793-.536-1.493-1.33-2.1-1.073-.84-2.286-1.237-3.64-1.19-1.306.047-2.496.513-3.57 1.4-.886.7-1.726 1.587-2.52 2.66a62.102 62.102 0 00-2.31 3.43c-1.26 1.96-2.59 4.13-3.99 6.51a466.287 466.287 0 01-4.06 7l-.21.35a135.586 135.586 0 003.64-1.89c1.214-.7 2.38-1.4 3.5-2.1.7-.467 1.657-1.143 2.87-2.03a65.192 65.192 0 003.85-2.94 67.525 67.525 0 003.92-3.36c1.26-1.213 2.287-2.357 3.08-3.43zm5.923 10.08c.187.84.117 1.61-.21 2.31-1.213 2.1-2.683 4.27-4.41 6.51-1.68 2.193-3.36 4.34-5.04 6.44-2.8 3.36-5.413 6.557-7.84 9.59-2.38 3.033-4.48 5.95-6.3 8.75a91.11 91.11 0 00-2.59 4.2 42.595 42.595 0 00-2.17 4.41 30.373 30.373 0 00-1.54 4.34c-.42 1.447-.63 2.823-.63 4.13-.047 1.96.42 3.383 1.4 4.27.98.887 2.45 1.377 4.41 1.47.98.047 2.1-.07 3.36-.35a49.42 49.42 0 003.92-1.05c1.353-.42 2.683-.84 3.99-1.26a41.932 41.932 0 013.5-.98c1.493-.373 2.707-.513 3.64-.42.933.093 1.61.56 2.03 1.4.14.28.14.653 0 1.12-.14.467-.257.817-.35 1.05-.14.327-.28.467-.42.42-.14 0-.163-.163-.07-.49a2.61 2.61 0 00.07-1.05c0-.373-.14-.607-.42-.7-.513-.187-1.143-.257-1.89-.21-.7.093-1.517.21-2.45.35-.793.14-1.68.327-2.66.56-.98.233-2.007.49-3.08.77s-2.17.537-3.29.77c-1.12.233-2.17.42-3.15.56-4.06.513-7.233-.07-9.52-1.75-1.213-.84-1.89-1.983-2.03-3.43-.14-1.447.14-2.987.84-4.62.84-1.96 1.983-4.107 3.43-6.44 1.4-2.287 2.94-4.62 4.62-7 1.633-2.38 3.313-4.69 5.04-6.93 1.727-2.24 3.337-4.27 4.83-6.09l.7-.84.7-.84c-.28.187-.583.35-.91.49-.28.093-.583.187-.91.28-.607.187-1.097.14-1.47-.14-.327-.28-.42-.723-.28-1.33a30.2 30.2 0 01.42-1.89c.233-.747.467-1.377.7-1.89a47.93 47.93 0 001.26-3.92c.42-1.353.7-2.497.84-3.43.14-1.027-.467-1.353-1.82-.98-1.12.28-2.193.77-3.22 1.47-.233.093-.42.07-.56-.07-.093-.187 0-.35.28-.49.98-.513 2.17-1.027 3.57-1.54 1.4-.513 2.66-.887 3.78-1.12.653-.14 1.05 0 1.19.42.14.373.07.91-.21 1.61-.42 1.027-.887 2.147-1.4 3.36a45.71 45.71 0 00-1.12 3.22l-.7 2.24c-.187.747-.257 1.377-.21 1.89 0 .467.187.747.56.84.373.047.747-.07 1.12-.35.047-.047.117-.07.21-.07 2.987-3.78 5.413-7.163 7.28-10.15 1.913-3.033 2.987-5.67 3.22-7.91.14-1.447-.257-2.66-1.19-3.64-.187-.187-.233-.35-.14-.49.14-.14.327-.093.56.14.56.653 1.073 1.4 1.54 2.24.513.793.91 1.54 1.19 2.24z" fill="#9AA37A"/><defs><linearGradient id="paint0_linear_264_809" x1="13.773" y1="14.805" x2="160.915" y2="56.629" gradientUnits="userSpaceOnUse"><stop offset=".058" stop-color="#EFEBE0"/><stop offset=".976" stop-color="#C0BCB3"/></linearGradient><linearGradient id="paint1_linear_264_809" x1="111.527" y1="74.805" x2="208.609" y2="92.191" gradientUnits="userSpaceOnUse"><stop offset=".058" stop-color="#EFEBE0"/><stop offset=".976" stop-color="#C0BCB3"/></linearGradient></defs></svg>