<svg width="278" height="136" viewBox="0 0 278 136" fill="none" xmlns="http://www.w3.org/2000/svg">
<path d="M39.9695 35.4C40.1029 35.4 40.1695 35.5 40.1695 35.7C40.1695 35.9 40.1029 36 39.9695 36C39.3695 36 38.4029 35.9667 37.0695 35.9C35.8029 35.8333 34.8695 35.8 34.2695 35.8C33.5695 35.8 32.6529 35.8333 31.5195 35.9C30.4529 35.9667 29.6529 36 29.1195 36C28.9862 36 28.9195 35.9 28.9195 35.7C28.9195 35.5 28.9862 35.4 29.1195 35.4C30.4862 35.4 31.4695 35.2833 32.0695 35.05C32.6695 34.7833 32.9695 34.35 32.9695 33.75C32.9695 33.2833 32.7862 32.6333 32.4195 31.8L27.7195 21.65H15.8195L12.4195 29.85C11.9529 30.9833 11.7195 31.9167 11.7195 32.65C11.7195 33.6167 12.1195 34.3167 12.9195 34.75C13.7195 35.1833 14.9695 35.4 16.6695 35.4C16.8362 35.4 16.9195 35.5 16.9195 35.7C16.9195 35.9 16.8362 36 16.6695 36C16.0695 36 15.2029 35.9667 14.0695 35.9C12.8029 35.8333 11.7029 35.8 10.7695 35.8C9.9362 35.8 8.95286 35.8333 7.81953 35.9C6.81953 35.9667 6.00286 36 5.36953 36C5.20286 36 5.11953 35.9 5.11953 35.7C5.11953 35.5 5.20286 35.4 5.36953 35.4C6.30286 35.4 7.0862 35.2333 7.71953 34.9C8.3862 34.5667 9.00286 33.9667 9.56953 33.1C10.1695 32.2333 10.8029 31 11.4695 29.4L21.9195 4.25C21.9862 4.15 22.0862 4.1 22.2195 4.1C22.3862 4.1 22.4862 4.15 22.5195 4.25L34.1195 29.15C34.8862 30.85 35.5695 32.15 36.1695 33.05C36.7695 33.9167 37.3529 34.5333 37.9195 34.9C38.5195 35.2333 39.2029 35.4 39.9695 35.4ZM16.2195 20.75H27.2695L21.4195 8.2L16.2195 20.75ZM72.6316 4.75C72.7316 4.75 72.7816 4.85 72.7816 5.05C72.7816 5.25 72.7316 5.35 72.6316 5.35C71.1983 5.35 70.1816 5.7 69.5816 6.4C69.015 7.1 68.7316 8.3 68.7316 10V36.55C68.7316 36.6167 68.6483 36.6667 68.4816 36.7C68.315 36.7333 68.1983 36.7167 68.1316 36.65L45.5316 8.85L44.6816 7.9V30.8C44.6816 32.5 44.965 33.7 45.5316 34.4C46.0983 35.0667 47.0816 35.4 48.4816 35.4C48.5816 35.4 48.6316 35.5 48.6316 35.7C48.6316 35.9 48.5816 36 48.4816 36C47.6816 36 47.065 35.9833 46.6316 35.95L44.2316 35.9L41.7816 35.95C41.3483 35.9833 40.6983 36 39.8316 36C39.765 36 39.7316 35.9 39.7316 35.7C39.7316 35.5 39.765 35.4 39.8316 35.4C41.265 35.4 42.2483 35.0667 42.7816 34.4C43.315 33.7333 43.5816 32.5333 43.5816 30.8V6.85C42.415 5.85 41.215 5.35 39.9816 5.35C39.8816 5.35 39.8316 5.25 39.8316 5.05C39.8316 4.85 39.8816 4.75 39.9816 4.75L41.7816 4.8C42.1483 4.83333 42.665 4.85 43.3316 4.85C43.8983 4.85 44.365 4.83333 44.7316 4.8C45.0983 4.76667 45.3816 4.75 45.5816 4.75C45.815 4.75 45.9983 4.81667 46.1316 4.95C46.2983 5.05 46.4816 5.28333 46.6816 5.65C47.0483 6.25 47.4483 6.81666 47.8816 7.35L67.6316 31.9V10C67.6316 8.3 67.365 7.1 66.8316 6.4C66.2983 5.7 65.3316 5.35 63.9316 5.35C63.865 5.35 63.8316 5.25 63.8316 5.05C63.8316 4.85 63.865 4.75 63.9316 4.75L65.8316 4.8C66.8316 4.86667 67.6316 4.9 68.2316 4.9C68.7983 4.9 69.615 4.86667 70.6816 4.8L72.6316 4.75ZM106.112 35.4C106.245 35.4 106.312 35.5 106.312 35.7C106.312 35.9 106.245 36 106.112 36C105.512 36 104.545 35.9667 103.212 35.9C101.945 35.8333 101.012 35.8 100.412 35.8C99.7121 35.8 98.7954 35.8333 97.6621 35.9C96.5954 35.9667 95.7954 36 95.2621 36C95.1288 36 95.0621 35.9 95.0621 35.7C95.0621 35.5 95.1288 35.4 95.2621 35.4C96.6288 35.4 97.6121 35.2833 98.2121 35.05C98.8121 34.7833 99.1121 34.35 99.1121 33.75C99.1121 33.2833 98.9288 32.6333 98.5621 31.8L93.8621 21.65H81.9621L78.5621 29.85C78.0954 30.9833 77.8621 31.9167 77.8621 32.65C77.8621 33.6167 78.2621 34.3167 79.0621 34.75C79.8621 35.1833 81.1121 35.4 82.8121 35.4C82.9788 35.4 83.0621 35.5 83.0621 35.7C83.0621 35.9 82.9788 36 82.8121 36C82.2121 36 81.3454 35.9667 80.2121 35.9C78.9454 35.8333 77.8454 35.8 76.9121 35.8C76.0788 35.8 75.0954 35.8333 73.9621 35.9C72.9621 35.9667 72.1454 36 71.5121 36C71.3454 36 71.2621 35.9 71.2621 35.7C71.2621 35.5 71.3454 35.4 71.5121 35.4C72.4454 35.4 73.2288 35.2333 73.8621 34.9C74.5288 34.5667 75.1454 33.9667 75.7121 33.1C76.3121 32.2333 76.9454 31 77.6121 29.4L88.0621 4.25C88.1288 4.15 88.2288 4.1 88.3621 4.1C88.5288 4.1 88.6288 4.15 88.6621 4.25L100.262 29.15C101.029 30.85 101.712 32.15 102.312 33.05C102.912 33.9167 103.495 34.5333 104.062 34.9C104.662 35.2333 105.345 35.4 106.112 35.4ZM82.3621 20.75H93.4121L87.5621 8.2L82.3621 20.75ZM110.724 10.8C110.724 12.1333 111.041 13.2833 111.674 14.25C112.308 15.2167 113.074 16.0333 113.974 16.7C114.908 17.3333 116.191 18.1333 117.824 19.1C119.558 20.1333 120.891 21 121.824 21.7C122.791 22.3667 123.608 23.2333 124.274 24.3C124.974 25.3667 125.324 26.65 125.324 28.15C125.324 29.7167 124.941 31.15 124.174 32.45C123.408 33.7167 122.258 34.7333 120.724 35.5C119.224 36.2333 117.374 36.6 115.174 36.6C114.008 36.6 112.891 36.4667 111.824 36.2C110.791 35.9667 109.641 35.5333 108.374 34.9C108.208 34.8 108.091 34.6833 108.024 34.55C107.991 34.4167 107.958 34.2167 107.924 33.95L107.174 27.45V27.4C107.174 27.2667 107.258 27.2 107.424 27.2C107.591 27.1667 107.691 27.2167 107.724 27.35C108.058 29.65 108.941 31.65 110.374 33.35C111.808 35.05 113.774 35.9 116.274 35.9C118.041 35.9 119.524 35.4167 120.724 34.45C121.958 33.4833 122.574 31.9667 122.574 29.9C122.574 28.4 122.241 27.1167 121.574 26.05C120.908 24.95 120.091 24.05 119.124 23.35C118.191 22.6167 116.908 21.7667 115.274 20.8C113.674 19.8667 112.408 19.05 111.474 18.35C110.574 17.65 109.791 16.7833 109.124 15.75C108.491 14.6833 108.174 13.4167 108.174 11.95C108.174 10.2833 108.591 8.86667 109.424 7.7C110.291 6.53333 111.408 5.66667 112.774 5.1C114.141 4.5 115.608 4.2 117.174 4.2C119.008 4.2 120.908 4.6 122.874 5.4C123.374 5.6 123.624 5.88333 123.624 6.25L124.074 11.55C124.074 11.6833 123.974 11.75 123.774 11.75C123.608 11.75 123.508 11.6833 123.474 11.55C123.341 9.81667 122.691 8.26667 121.524 6.9C120.358 5.53333 118.691 4.85 116.524 4.85C114.524 4.85 113.058 5.43333 112.124 6.6C111.191 7.76667 110.724 9.16667 110.724 10.8ZM134.592 5.6C132.492 5.6 130.958 6.1 129.992 7.1C129.025 8.1 128.375 9.88333 128.042 12.45C128.042 12.5167 127.942 12.55 127.742 12.55C127.542 12.55 127.442 12.5167 127.442 12.45C127.575 11.55 127.725 10.1167 127.892 8.15C128.058 6.15 128.142 4.65 128.142 3.65C128.142 3.48333 128.242 3.4 128.442 3.4C128.642 3.4 128.742 3.48333 128.742 3.65C128.742 4.38333 129.625 4.75 131.392 4.75C134.258 4.85 137.608 4.9 141.442 4.9C143.408 4.9 145.492 4.86667 147.692 4.8L151.092 4.75C152.292 4.75 153.175 4.66667 153.742 4.5C154.308 4.33333 154.675 4 154.842 3.5C154.875 3.36666 154.975 3.3 155.142 3.3C155.308 3.3 155.392 3.36666 155.392 3.5C155.292 4.43333 155.192 5.86667 155.092 7.8C154.992 9.7 154.942 11.25 154.942 12.45C154.942 12.5167 154.842 12.55 154.642 12.55C154.442 12.55 154.342 12.5167 154.342 12.45C154.342 10.6833 154.158 9.31666 153.792 8.35C153.425 7.38333 152.808 6.68333 151.942 6.25C151.075 5.81666 149.858 5.6 148.292 5.6C146.558 5.6 145.342 5.66666 144.642 5.8C143.942 5.9 143.458 6.16667 143.192 6.6C142.958 7.03333 142.842 7.8 142.842 8.9V31.95C142.842 32.9833 142.958 33.7333 143.192 34.2C143.425 34.6667 143.892 34.9833 144.592 35.15C145.292 35.3167 146.392 35.4 147.892 35.4C147.958 35.4 147.992 35.5 147.992 35.7C147.992 35.9 147.958 36 147.892 36C146.792 36 145.925 35.9833 145.292 35.95L141.442 35.9L137.792 35.95C137.125 35.9833 136.208 36 135.042 36C134.975 36 134.942 35.9 134.942 35.7C134.942 35.5 134.975 35.4 135.042 35.4C136.542 35.4 137.642 35.3167 138.342 35.15C139.042 34.9833 139.508 34.6667 139.742 34.2C140.008 33.7 140.142 32.95 140.142 31.95V8.8C140.142 7.7 140.008 6.95 139.742 6.55C139.475 6.11666 138.992 5.85 138.292 5.75C137.625 5.65 136.392 5.6 134.592 5.6ZM185.868 35.4C186.001 35.4 186.068 35.5 186.068 35.7C186.068 35.9 186.001 36 185.868 36C185.268 36 184.301 35.9667 182.968 35.9C181.701 35.8333 180.768 35.8 180.168 35.8C179.468 35.8 178.551 35.8333 177.418 35.9C176.351 35.9667 175.551 36 175.018 36C174.885 36 174.818 35.9 174.818 35.7C174.818 35.5 174.885 35.4 175.018 35.4C176.385 35.4 177.368 35.2833 177.968 35.05C178.568 34.7833 178.868 34.35 178.868 33.75C178.868 33.2833 178.685 32.6333 178.318 31.8L173.618 21.65H161.718L158.318 29.85C157.851 30.9833 157.618 31.9167 157.618 32.65C157.618 33.6167 158.018 34.3167 158.818 34.75C159.618 35.1833 160.868 35.4 162.568 35.4C162.735 35.4 162.818 35.5 162.818 35.7C162.818 35.9 162.735 36 162.568 36C161.968 36 161.101 35.9667 159.968 35.9C158.701 35.8333 157.601 35.8 156.668 35.8C155.835 35.8 154.851 35.8333 153.718 35.9C152.718 35.9667 151.901 36 151.268 36C151.101 36 151.018 35.9 151.018 35.7C151.018 35.5 151.101 35.4 151.268 35.4C152.201 35.4 152.985 35.2333 153.618 34.9C154.285 34.5667 154.901 33.9667 155.468 33.1C156.068 32.2333 156.701 31 157.368 29.4L167.818 4.25C167.885 4.15 167.985 4.1 168.118 4.1C168.285 4.1 168.385 4.15 168.418 4.25L180.018 29.15C180.785 30.85 181.468 32.15 182.068 33.05C182.668 33.9167 183.251 34.5333 183.818 34.9C184.418 35.2333 185.101 35.4 185.868 35.4ZM162.118 20.75H173.168L167.318 8.2L162.118 20.75ZM190.48 10.8C190.48 12.1333 190.797 13.2833 191.43 14.25C192.063 15.2167 192.83 16.0333 193.73 16.7C194.663 17.3333 195.947 18.1333 197.58 19.1C199.313 20.1333 200.647 21 201.58 21.7C202.547 22.3667 203.363 23.2333 204.03 24.3C204.73 25.3667 205.08 26.65 205.08 28.15C205.08 29.7167 204.697 31.15 203.93 32.45C203.163 33.7167 202.013 34.7333 200.48 35.5C198.98 36.2333 197.13 36.6 194.93 36.6C193.763 36.6 192.647 36.4667 191.58 36.2C190.547 35.9667 189.397 35.5333 188.13 34.9C187.963 34.8 187.847 34.6833 187.78 34.55C187.747 34.4167 187.713 34.2167 187.68 33.95L186.93 27.45V27.4C186.93 27.2667 187.013 27.2 187.18 27.2C187.347 27.1667 187.447 27.2167 187.48 27.35C187.813 29.65 188.697 31.65 190.13 33.35C191.563 35.05 193.53 35.9 196.03 35.9C197.797 35.9 199.28 35.4167 200.48 34.45C201.713 33.4833 202.33 31.9667 202.33 29.9C202.33 28.4 201.997 27.1167 201.33 26.05C200.663 24.95 199.847 24.05 198.88 23.35C197.947 22.6167 196.663 21.7667 195.03 20.8C193.43 19.8667 192.163 19.05 191.23 18.35C190.33 17.65 189.547 16.7833 188.88 15.75C188.247 14.6833 187.93 13.4167 187.93 11.95C187.93 10.2833 188.347 8.86667 189.18 7.7C190.047 6.53333 191.163 5.66667 192.53 5.1C193.897 4.5 195.363 4.2 196.93 4.2C198.763 4.2 200.663 4.6 202.63 5.4C203.13 5.6 203.38 5.88333 203.38 6.25L203.83 11.55C203.83 11.6833 203.73 11.75 203.53 11.75C203.363 11.75 203.263 11.6833 203.23 11.55C203.097 9.81667 202.447 8.26667 201.28 6.9C200.113 5.53333 198.447 4.85 196.28 4.85C194.28 4.85 192.813 5.43333 191.88 6.6C190.947 7.76667 190.48 9.16667 190.48 10.8ZM214.948 31.95C214.948 32.9833 215.048 33.7333 215.248 34.2C215.481 34.6667 215.898 34.9833 216.498 35.15C217.098 35.3167 218.064 35.4 219.398 35.4C219.464 35.4 219.498 35.5 219.498 35.7C219.498 35.9 219.464 36 219.398 36C218.398 36 217.614 35.9833 217.048 35.95L213.548 35.9L210.198 35.95C209.598 35.9833 208.781 36 207.748 36C207.648 36 207.598 35.9 207.598 35.7C207.598 35.5 207.648 35.4 207.748 35.4C209.048 35.4 209.998 35.3167 210.598 35.15C211.231 34.9833 211.664 34.6667 211.898 34.2C212.131 33.7 212.248 32.95 212.248 31.95V8.8C212.248 7.8 212.131 7.06667 211.898 6.6C211.664 6.13333 211.231 5.81666 210.598 5.65C209.998 5.45 209.048 5.35 207.748 5.35C207.648 5.35 207.598 5.25 207.598 5.05C207.598 4.85 207.648 4.75 207.748 4.75L210.198 4.8C211.598 4.86667 212.714 4.9 213.548 4.9C214.481 4.9 215.648 4.86667 217.048 4.8L219.398 4.75C219.464 4.75 219.498 4.85 219.498 5.05C219.498 5.25 219.464 5.35 219.398 5.35C218.098 5.35 217.131 5.45 216.498 5.65C215.898 5.85 215.481 6.2 215.248 6.7C215.048 7.16667 214.948 7.9 214.948 8.9V31.95ZM254.052 35.4C254.185 35.4 254.252 35.5 254.252 35.7C254.252 35.9 254.185 36 254.052 36C253.452 36 252.485 35.9667 251.152 35.9C249.885 35.8333 248.952 35.8 248.352 35.8C247.652 35.8 246.735 35.8333 245.602 35.9C244.535 35.9667 243.735 36 243.202 36C243.068 36 243.002 35.9 243.002 35.7C243.002 35.5 243.068 35.4 243.202 35.4C244.568 35.4 245.552 35.2833 246.152 35.05C246.752 34.7833 247.052 34.35 247.052 33.75C247.052 33.2833 246.868 32.6333 246.502 31.8L241.802 21.65H229.902L226.502 29.85C226.035 30.9833 225.802 31.9167 225.802 32.65C225.802 33.6167 226.202 34.3167 227.002 34.75C227.802 35.1833 229.052 35.4 230.752 35.4C230.918 35.4 231.002 35.5 231.002 35.7C231.002 35.9 230.918 36 230.752 36C230.152 36 229.285 35.9667 228.152 35.9C226.885 35.8333 225.785 35.8 224.852 35.8C224.018 35.8 223.035 35.8333 221.902 35.9C220.902 35.9667 220.085 36 219.452 36C219.285 36 219.202 35.9 219.202 35.7C219.202 35.5 219.285 35.4 219.452 35.4C220.385 35.4 221.168 35.2333 221.802 34.9C222.468 34.5667 223.085 33.9667 223.652 33.1C224.252 32.2333 224.885 31 225.552 29.4L236.002 4.25C236.068 4.15 236.168 4.1 236.302 4.1C236.468 4.1 236.568 4.15 236.602 4.25L248.202 29.15C248.968 30.85 249.652 32.15 250.252 33.05C250.852 33.9167 251.435 34.5333 252.002 34.9C252.602 35.2333 253.285 35.4 254.052 35.4ZM230.302 20.75H241.352L235.502 8.2L230.302 20.75ZM251.598 4.25C252.565 4.25 253.315 4.61666 253.848 5.35C254.415 6.05 254.698 7.06667 254.698 8.4C254.698 9.7 254.398 10.9 253.798 12C253.231 13.1 252.381 14.2 251.248 15.3C251.215 15.3333 251.165 15.35 251.098 15.35C250.998 15.35 250.915 15.3 250.848 15.2C250.781 15.1 250.781 15.0167 250.848 14.95C252.481 13.2833 253.298 11.3167 253.298 9.05C253.298 8.18333 253.131 7.5 252.798 7C252.565 7.5 252.081 7.75 251.348 7.75C250.781 7.75 250.331 7.6 249.998 7.3C249.698 6.96666 249.548 6.53333 249.548 6C249.548 4.83333 250.231 4.25 251.598 4.25ZM260.363 10.8C260.363 12.1333 260.68 13.2833 261.313 14.25C261.946 15.2167 262.713 16.0333 263.613 16.7C264.546 17.3333 265.83 18.1333 267.463 19.1C269.196 20.1333 270.53 21 271.463 21.7C272.43 22.3667 273.246 23.2333 273.913 24.3C274.613 25.3667 274.963 26.65 274.963 28.15C274.963 29.7167 274.58 31.15 273.813 32.45C273.046 33.7167 271.896 34.7333 270.363 35.5C268.863 36.2333 267.013 36.6 264.813 36.6C263.646 36.6 262.53 36.4667 261.463 36.2C260.43 35.9667 259.28 35.5333 258.013 34.9C257.846 34.8 257.73 34.6833 257.663 34.55C257.63 34.4167 257.596 34.2167 257.563 33.95L256.813 27.45V27.4C256.813 27.2667 256.896 27.2 257.063 27.2C257.23 27.1667 257.33 27.2167 257.363 27.35C257.696 29.65 258.58 31.65 260.013 33.35C261.446 35.05 263.413 35.9 265.913 35.9C267.68 35.9 269.163 35.4167 270.363 34.45C271.596 33.4833 272.213 31.9667 272.213 29.9C272.213 28.4 271.88 27.1167 271.213 26.05C270.546 24.95 269.73 24.05 268.763 23.35C267.83 22.6167 266.546 21.7667 264.913 20.8C263.313 19.8667 262.046 19.05 261.113 18.35C260.213 17.65 259.43 16.7833 258.763 15.75C258.13 14.6833 257.813 13.4167 257.813 11.95C257.813 10.2833 258.23 8.86667 259.063 7.7C259.93 6.53333 261.046 5.66667 262.413 5.1C263.78 4.5 265.246 4.2 266.813 4.2C268.646 4.2 270.546 4.6 272.513 5.4C273.013 5.6 273.263 5.88333 273.263 6.25L273.713 11.55C273.713 11.6833 273.613 11.75 273.413 11.75C273.246 11.75 273.146 11.6833 273.113 11.55C272.98 9.81667 272.33 8.26667 271.163 6.9C269.996 5.53333 268.33 4.85 266.163 4.85C264.163 4.85 262.696 5.43333 261.763 6.6C260.83 7.76667 260.363 9.16667 260.363 10.8Z" fill="#EBE7DD"/>
<path d="M39.9695 35.4C40.1029 35.4 40.1695 35.5 40.1695 35.7C40.1695 35.9 40.1029 36 39.9695 36C39.3695 36 38.4029 35.9667 37.0695 35.9C35.8029 35.8333 34.8695 35.8 34.2695 35.8C33.5695 35.8 32.6529 35.8333 31.5195 35.9C30.4529 35.9667 29.6529 36 29.1195 36C28.9862 36 28.9195 35.9 28.9195 35.7C28.9195 35.5 28.9862 35.4 29.1195 35.4C30.4862 35.4 31.4695 35.2833 32.0695 35.05C32.6695 34.7833 32.9695 34.35 32.9695 33.75C32.9695 33.2833 32.7862 32.6333 32.4195 31.8L27.7195 21.65H15.8195L12.4195 29.85C11.9529 30.9833 11.7195 31.9167 11.7195 32.65C11.7195 33.6167 12.1195 34.3167 12.9195 34.75C13.7195 35.1833 14.9695 35.4 16.6695 35.4C16.8362 35.4 16.9195 35.5 16.9195 35.7C16.9195 35.9 16.8362 36 16.6695 36C16.0695 36 15.2029 35.9667 14.0695 35.9C12.8029 35.8333 11.7029 35.8 10.7695 35.8C9.9362 35.8 8.95286 35.8333 7.81953 35.9C6.81953 35.9667 6.00286 36 5.36953 36C5.20286 36 5.11953 35.9 5.11953 35.7C5.11953 35.5 5.20286 35.4 5.36953 35.4C6.30286 35.4 7.0862 35.2333 7.71953 34.9C8.3862 34.5667 9.00286 33.9667 9.56953 33.1C10.1695 32.2333 10.8029 31 11.4695 29.4L21.9195 4.25C21.9862 4.15 22.0862 4.1 22.2195 4.1C22.3862 4.1 22.4862 4.15 22.5195 4.25L34.1195 29.15C34.8862 30.85 35.5695 32.15 36.1695 33.05C36.7695 33.9167 37.3529 34.5333 37.9195 34.9C38.5195 35.2333 39.2029 35.4 39.9695 35.4ZM16.2195 20.75H27.2695L21.4195 8.2L16.2195 20.75ZM72.6316 4.75C72.7316 4.75 72.7816 4.85 72.7816 5.05C72.7816 5.25 72.7316 5.35 72.6316 5.35C71.1983 5.35 70.1816 5.7 69.5816 6.4C69.015 7.1 68.7316 8.3 68.7316 10V36.55C68.7316 36.6167 68.6483 36.6667 68.4816 36.7C68.315 36.7333 68.1983 36.7167 68.1316 36.65L45.5316 8.85L44.6816 7.9V30.8C44.6816 32.5 44.965 33.7 45.5316 34.4C46.0983 35.0667 47.0816 35.4 48.4816 35.4C48.5816 35.4 48.6316 35.5 48.6316 35.7C48.6316 35.9 48.5816 36 48.4816 36C47.6816 36 47.065 35.9833 46.6316 35.95L44.2316 35.9L41.7816 35.95C41.3483 35.9833 40.6983 36 39.8316 36C39.765 36 39.7316 35.9 39.7316 35.7C39.7316 35.5 39.765 35.4 39.8316 35.4C41.265 35.4 42.2483 35.0667 42.7816 34.4C43.315 33.7333 43.5816 32.5333 43.5816 30.8V6.85C42.415 5.85 41.215 5.35 39.9816 5.35C39.8816 5.35 39.8316 5.25 39.8316 5.05C39.8316 4.85 39.8816 4.75 39.9816 4.75L41.7816 4.8C42.1483 4.83333 42.665 4.85 43.3316 4.85C43.8983 4.85 44.365 4.83333 44.7316 4.8C45.0983 4.76667 45.3816 4.75 45.5816 4.75C45.815 4.75 45.9983 4.81667 46.1316 4.95C46.2983 5.05 46.4816 5.28333 46.6816 5.65C47.0483 6.25 47.4483 6.81666 47.8816 7.35L67.6316 31.9V10C67.6316 8.3 67.365 7.1 66.8316 6.4C66.2983 5.7 65.3316 5.35 63.9316 5.35C63.865 5.35 63.8316 5.25 63.8316 5.05C63.8316 4.85 63.865 4.75 63.9316 4.75L65.8316 4.8C66.8316 4.86667 67.6316 4.9 68.2316 4.9C68.7983 4.9 69.615 4.86667 70.6816 4.8L72.6316 4.75ZM106.112 35.4C106.245 35.4 106.312 35.5 106.312 35.7C106.312 35.9 106.245 36 106.112 36C105.512 36 104.545 35.9667 103.212 35.9C101.945 35.8333 101.012 35.8 100.412 35.8C99.7121 35.8 98.7954 35.8333 97.6621 35.9C96.5954 35.9667 95.7954 36 95.2621 36C95.1288 36 95.0621 35.9 95.0621 35.7C95.0621 35.5 95.1288 35.4 95.2621 35.4C96.6288 35.4 97.6121 35.2833 98.2121 35.05C98.8121 34.7833 99.1121 34.35 99.1121 33.75C99.1121 33.2833 98.9288 32.6333 98.5621 31.8L93.8621 21.65H81.9621L78.5621 29.85C78.0954 30.9833 77.8621 31.9167 77.8621 32.65C77.8621 33.6167 78.2621 34.3167 79.0621 34.75C79.8621 35.1833 81.1121 35.4 82.8121 35.4C82.9788 35.4 83.0621 35.5 83.0621 35.7C83.0621 35.9 82.9788 36 82.8121 36C82.2121 36 81.3454 35.9667 80.2121 35.9C78.9454 35.8333 77.8454 35.8 76.9121 35.8C76.0788 35.8 75.0954 35.8333 73.9621 35.9C72.9621 35.9667 72.1454 36 71.5121 36C71.3454 36 71.2621 35.9 71.2621 35.7C71.2621 35.5 71.3454 35.4 71.5121 35.4C72.4454 35.4 73.2288 35.2333 73.8621 34.9C74.5288 34.5667 75.1454 33.9667 75.7121 33.1C76.3121 32.2333 76.9454 31 77.6121 29.4L88.0621 4.25C88.1288 4.15 88.2288 4.1 88.3621 4.1C88.5288 4.1 88.6288 4.15 88.6621 4.25L100.262 29.15C101.029 30.85 101.712 32.15 102.312 33.05C102.912 33.9167 103.495 34.5333 104.062 34.9C104.662 35.2333 105.345 35.4 106.112 35.4ZM82.3621 20.75H93.4121L87.5621 8.2L82.3621 20.75ZM110.724 10.8C110.724 12.1333 111.041 13.2833 111.674 14.25C112.308 15.2167 113.074 16.0333 113.974 16.7C114.908 17.3333 116.191 18.1333 117.824 19.1C119.558 20.1333 120.891 21 121.824 21.7C122.791 22.3667 123.608 23.2333 124.274 24.3C124.974 25.3667 125.324 26.65 125.324 28.15C125.324 29.7167 124.941 31.15 124.174 32.45C123.408 33.7167 122.258 34.7333 120.724 35.5C119.224 36.2333 117.374 36.6 115.174 36.6C114.008 36.6 112.891 36.4667 111.824 36.2C110.791 35.9667 109.641 35.5333 108.374 34.9C108.208 34.8 108.091 34.6833 108.024 34.55C107.991 34.4167 107.958 34.2167 107.924 33.95L107.174 27.45V27.4C107.174 27.2667 107.258 27.2 107.424 27.2C107.591 27.1667 107.691 27.2167 107.724 27.35C108.058 29.65 108.941 31.65 110.374 33.35C111.808 35.05 113.774 35.9 116.274 35.9C118.041 35.9 119.524 35.4167 120.724 34.45C121.958 33.4833 122.574 31.9667 122.574 29.9C122.574 28.4 122.241 27.1167 121.574 26.05C120.908 24.95 120.091 24.05 119.124 23.35C118.191 22.6167 116.908 21.7667 115.274 20.8C113.674 19.8667 112.408 19.05 111.474 18.35C110.574 17.65 109.791 16.7833 109.124 15.75C108.491 14.6833 108.174 13.4167 108.174 11.95C108.174 10.2833 108.591 8.86667 109.424 7.7C110.291 6.53333 111.408 5.66667 112.774 5.1C114.141 4.5 115.608 4.2 117.174 4.2C119.008 4.2 120.908 4.6 122.874 5.4C123.374 5.6 123.624 5.88333 123.624 6.25L124.074 11.55C124.074 11.6833 123.974 11.75 123.774 11.75C123.608 11.75 123.508 11.6833 123.474 11.55C123.341 9.81667 122.691 8.26667 121.524 6.9C120.358 5.53333 118.691 4.85 116.524 4.85C114.524 4.85 113.058 5.43333 112.124 6.6C111.191 7.76667 110.724 9.16667 110.724 10.8ZM134.592 5.6C132.492 5.6 130.958 6.1 129.992 7.1C129.025 8.1 128.375 9.88333 128.042 12.45C128.042 12.5167 127.942 12.55 127.742 12.55C127.542 12.55 127.442 12.5167 127.442 12.45C127.575 11.55 127.725 10.1167 127.892 8.15C128.058 6.15 128.142 4.65 128.142 3.65C128.142 3.48333 128.242 3.4 128.442 3.4C128.642 3.4 128.742 3.48333 128.742 3.65C128.742 4.38333 129.625 4.75 131.392 4.75C134.258 4.85 137.608 4.9 141.442 4.9C143.408 4.9 145.492 4.86667 147.692 4.8L151.092 4.75C152.292 4.75 153.175 4.66667 153.742 4.5C154.308 4.33333 154.675 4 154.842 3.5C154.875 3.36666 154.975 3.3 155.142 3.3C155.308 3.3 155.392 3.36666 155.392 3.5C155.292 4.43333 155.192 5.86667 155.092 7.8C154.992 9.7 154.942 11.25 154.942 12.45C154.942 12.5167 154.842 12.55 154.642 12.55C154.442 12.55 154.342 12.5167 154.342 12.45C154.342 10.6833 154.158 9.31666 153.792 8.35C153.425 7.38333 152.808 6.68333 151.942 6.25C151.075 5.81666 149.858 5.6 148.292 5.6C146.558 5.6 145.342 5.66666 144.642 5.8C143.942 5.9 143.458 6.16667 143.192 6.6C142.958 7.03333 142.842 7.8 142.842 8.9V31.95C142.842 32.9833 142.958 33.7333 143.192 34.2C143.425 34.6667 143.892 34.9833 144.592 35.15C145.292 35.3167 146.392 35.4 147.892 35.4C147.958 35.4 147.992 35.5 147.992 35.7C147.992 35.9 147.958 36 147.892 36C146.792 36 145.925 35.9833 145.292 35.95L141.442 35.9L137.792 35.95C137.125 35.9833 136.208 36 135.042 36C134.975 36 134.942 35.9 134.942 35.7C134.942 35.5 134.975 35.4 135.042 35.4C136.542 35.4 137.642 35.3167 138.342 35.15C139.042 34.9833 139.508 34.6667 139.742 34.2C140.008 33.7 140.142 32.95 140.142 31.95V8.8C140.142 7.7 140.008 6.95 139.742 6.55C139.475 6.11666 138.992 5.85 138.292 5.75C137.625 5.65 136.392 5.6 134.592 5.6ZM185.868 35.4C186.001 35.4 186.068 35.5 186.068 35.7C186.068 35.9 186.001 36 185.868 36C185.268 36 184.301 35.9667 182.968 35.9C181.701 35.8333 180.768 35.8 180.168 35.8C179.468 35.8 178.551 35.8333 177.418 35.9C176.351 35.9667 175.551 36 175.018 36C174.885 36 174.818 35.9 174.818 35.7C174.818 35.5 174.885 35.4 175.018 35.4C176.385 35.4 177.368 35.2833 177.968 35.05C178.568 34.7833 178.868 34.35 178.868 33.75C178.868 33.2833 178.685 32.6333 178.318 31.8L173.618 21.65H161.718L158.318 29.85C157.851 30.9833 157.618 31.9167 157.618 32.65C157.618 33.6167 158.018 34.3167 158.818 34.75C159.618 35.1833 160.868 35.4 162.568 35.4C162.735 35.4 162.818 35.5 162.818 35.7C162.818 35.9 162.735 36 162.568 36C161.968 36 161.101 35.9667 159.968 35.9C158.701 35.8333 157.601 35.8 156.668 35.8C155.835 35.8 154.851 35.8333 153.718 35.9C152.718 35.9667 151.901 36 151.268 36C151.101 36 151.018 35.9 151.018 35.7C151.018 35.5 151.101 35.4 151.268 35.4C152.201 35.4 152.985 35.2333 153.618 34.9C154.285 34.5667 154.901 33.9667 155.468 33.1C156.068 32.2333 156.701 31 157.368 29.4L167.818 4.25C167.885 4.15 167.985 4.1 168.118 4.1C168.285 4.1 168.385 4.15 168.418 4.25L180.018 29.15C180.785 30.85 181.468 32.15 182.068 33.05C182.668 33.9167 183.251 34.5333 183.818 34.9C184.418 35.2333 185.101 35.4 185.868 35.4ZM162.118 20.75H173.168L167.318 8.2L162.118 20.75ZM190.48 10.8C190.48 12.1333 190.797 13.2833 191.43 14.25C192.063 15.2167 192.83 16.0333 193.73 16.7C194.663 17.3333 195.947 18.1333 197.58 19.1C199.313 20.1333 200.647 21 201.58 21.7C202.547 22.3667 203.363 23.2333 204.03 24.3C204.73 25.3667 205.08 26.65 205.08 28.15C205.08 29.7167 204.697 31.15 203.93 32.45C203.163 33.7167 202.013 34.7333 200.48 35.5C198.98 36.2333 197.13 36.6 194.93 36.6C193.763 36.6 192.647 36.4667 191.58 36.2C190.547 35.9667 189.397 35.5333 188.13 34.9C187.963 34.8 187.847 34.6833 187.78 34.55C187.747 34.4167 187.713 34.2167 187.68 33.95L186.93 27.45V27.4C186.93 27.2667 187.013 27.2 187.18 27.2C187.347 27.1667 187.447 27.2167 187.48 27.35C187.813 29.65 188.697 31.65 190.13 33.35C191.563 35.05 193.53 35.9 196.03 35.9C197.797 35.9 199.28 35.4167 200.48 34.45C201.713 33.4833 202.33 31.9667 202.33 29.9C202.33 28.4 201.997 27.1167 201.33 26.05C200.663 24.95 199.847 24.05 198.88 23.35C197.947 22.6167 196.663 21.7667 195.03 20.8C193.43 19.8667 192.163 19.05 191.23 18.35C190.33 17.65 189.547 16.7833 188.88 15.75C188.247 14.6833 187.93 13.4167 187.93 11.95C187.93 10.2833 188.347 8.86667 189.18 7.7C190.047 6.53333 191.163 5.66667 192.53 5.1C193.897 4.5 195.363 4.2 196.93 4.2C198.763 4.2 200.663 4.6 202.63 5.4C203.13 5.6 203.38 5.88333 203.38 6.25L203.83 11.55C203.83 11.6833 203.73 11.75 203.53 11.75C203.363 11.75 203.263 11.6833 203.23 11.55C203.097 9.81667 202.447 8.26667 201.28 6.9C200.113 5.53333 198.447 4.85 196.28 4.85C194.28 4.85 192.813 5.43333 191.88 6.6C190.947 7.76667 190.48 9.16667 190.48 10.8ZM214.948 31.95C214.948 32.9833 215.048 33.7333 215.248 34.2C215.481 34.6667 215.898 34.9833 216.498 35.15C217.098 35.3167 218.064 35.4 219.398 35.4C219.464 35.4 219.498 35.5 219.498 35.7C219.498 35.9 219.464 36 219.398 36C218.398 36 217.614 35.9833 217.048 35.95L213.548 35.9L210.198 35.95C209.598 35.9833 208.781 36 207.748 36C207.648 36 207.598 35.9 207.598 35.7C207.598 35.5 207.648 35.4 207.748 35.4C209.048 35.4 209.998 35.3167 210.598 35.15C211.231 34.9833 211.664 34.6667 211.898 34.2C212.131 33.7 212.248 32.95 212.248 31.95V8.8C212.248 7.8 212.131 7.06667 211.898 6.6C211.664 6.13333 211.231 5.81666 210.598 5.65C209.998 5.45 209.048 5.35 207.748 5.35C207.648 5.35 207.598 5.25 207.598 5.05C207.598 4.85 207.648 4.75 207.748 4.75L210.198 4.8C211.598 4.86667 212.714 4.9 213.548 4.9C214.481 4.9 215.648 4.86667 217.048 4.8L219.398 4.75C219.464 4.75 219.498 4.85 219.498 5.05C219.498 5.25 219.464 5.35 219.398 5.35C218.098 5.35 217.131 5.45 216.498 5.65C215.898 5.85 215.481 6.2 215.248 6.7C215.048 7.16667 214.948 7.9 214.948 8.9V31.95ZM254.052 35.4C254.185 35.4 254.252 35.5 254.252 35.7C254.252 35.9 254.185 36 254.052 36C253.452 36 252.485 35.9667 251.152 35.9C249.885 35.8333 248.952 35.8 248.352 35.8C247.652 35.8 246.735 35.8333 245.602 35.9C244.535 35.9667 243.735 36 243.202 36C243.068 36 243.002 35.9 243.002 35.7C243.002 35.5 243.068 35.4 243.202 35.4C244.568 35.4 245.552 35.2833 246.152 35.05C246.752 34.7833 247.052 34.35 247.052 33.75C247.052 33.2833 246.868 32.6333 246.502 31.8L241.802 21.65H229.902L226.502 29.85C226.035 30.9833 225.802 31.9167 225.802 32.65C225.802 33.6167 226.202 34.3167 227.002 34.75C227.802 35.1833 229.052 35.4 230.752 35.4C230.918 35.4 231.002 35.5 231.002 35.7C231.002 35.9 230.918 36 230.752 36C230.152 36 229.285 35.9667 228.152 35.9C226.885 35.8333 225.785 35.8 224.852 35.8C224.018 35.8 223.035 35.8333 221.902 35.9C220.902 35.9667 220.085 36 219.452 36C219.285 36 219.202 35.9 219.202 35.7C219.202 35.5 219.285 35.4 219.452 35.4C220.385 35.4 221.168 35.2333 221.802 34.9C222.468 34.5667 223.085 33.9667 223.652 33.1C224.252 32.2333 224.885 31 225.552 29.4L236.002 4.25C236.068 4.15 236.168 4.1 236.302 4.1C236.468 4.1 236.568 4.15 236.602 4.25L248.202 29.15C248.968 30.85 249.652 32.15 250.252 33.05C250.852 33.9167 251.435 34.5333 252.002 34.9C252.602 35.2333 253.285 35.4 254.052 35.4ZM230.302 20.75H241.352L235.502 8.2L230.302 20.75ZM251.598 4.25C252.565 4.25 253.315 4.61666 253.848 5.35C254.415 6.05 254.698 7.06667 254.698 8.4C254.698 9.7 254.398 10.9 253.798 12C253.231 13.1 252.381 14.2 251.248 15.3C251.215 15.3333 251.165 15.35 251.098 15.35C250.998 15.35 250.915 15.3 250.848 15.2C250.781 15.1 250.781 15.0167 250.848 14.95C252.481 13.2833 253.298 11.3167 253.298 9.05C253.298 8.18333 253.131 7.5 252.798 7C252.565 7.5 252.081 7.75 251.348 7.75C250.781 7.75 250.331 7.6 249.998 7.3C249.698 6.96666 249.548 6.53333 249.548 6C249.548 4.83333 250.231 4.25 251.598 4.25ZM260.363 10.8C260.363 12.1333 260.68 13.2833 261.313 14.25C261.946 15.2167 262.713 16.0333 263.613 16.7C264.546 17.3333 265.83 18.1333 267.463 19.1C269.196 20.1333 270.53 21 271.463 21.7C272.43 22.3667 273.246 23.2333 273.913 24.3C274.613 25.3667 274.963 26.65 274.963 28.15C274.963 29.7167 274.58 31.15 273.813 32.45C273.046 33.7167 271.896 34.7333 270.363 35.5C268.863 36.2333 267.013 36.6 264.813 36.6C263.646 36.6 262.53 36.4667 261.463 36.2C260.43 35.9667 259.28 35.5333 258.013 34.9C257.846 34.8 257.73 34.6833 257.663 34.55C257.63 34.4167 257.596 34.2167 257.563 33.95L256.813 27.45V27.4C256.813 27.2667 256.896 27.2 257.063 27.2C257.23 27.1667 257.33 27.2167 257.363 27.35C257.696 29.65 258.58 31.65 260.013 33.35C261.446 35.05 263.413 35.9 265.913 35.9C267.68 35.9 269.163 35.4167 270.363 34.45C271.596 33.4833 272.213 31.9667 272.213 29.9C272.213 28.4 271.88 27.1167 271.213 26.05C270.546 24.95 269.73 24.05 268.763 23.35C267.83 22.6167 266.546 21.7667 264.913 20.8C263.313 19.8667 262.046 19.05 261.113 18.35C260.213 17.65 259.43 16.7833 258.763 15.75C258.13 14.6833 257.813 13.4167 257.813 11.95C257.813 10.2833 258.23 8.86667 259.063 7.7C259.93 6.53333 261.046 5.66667 262.413 5.1C263.78 4.5 265.246 4.2 266.813 4.2C268.646 4.2 270.546 4.6 272.513 5.4C273.013 5.6 273.263 5.88333 273.263 6.25L273.713 11.55C273.713 11.6833 273.613 11.75 273.413 11.75C273.246 11.75 273.146 11.6833 273.113 11.55C272.98 9.81667 272.33 8.26667 271.163 6.9C269.996 5.53333 268.33 4.85 266.163 4.85C264.163 4.85 262.696 5.43333 261.763 6.6C260.83 7.76667 260.363 9.16667 260.363 10.8Z" fill="url(#paint0_linear_264_809)"/>
<path d="M140.7 95.4C140.833 95.4 140.9 95.5 140.9 95.7C140.9 95.9 140.833 96 140.7 96C140.1 96 139.133 95.9667 137.8 95.9C136.533 95.8333 135.6 95.8 135 95.8C134.3 95.8 133.383 95.8333 132.25 95.9C131.183 95.9667 130.383 96 129.85 96C129.717 96 129.65 95.9 129.65 95.7C129.65 95.5 129.717 95.4 129.85 95.4C131.217 95.4 132.2 95.2833 132.8 95.05C133.4 94.7833 133.7 94.35 133.7 93.75C133.7 93.2833 133.517 92.6333 133.15 91.8L128.45 81.65H116.55L113.15 89.85C112.683 90.9833 112.45 91.9167 112.45 92.65C112.45 93.6167 112.85 94.3167 113.65 94.75C114.45 95.1833 115.7 95.4 117.4 95.4C117.567 95.4 117.65 95.5 117.65 95.7C117.65 95.9 117.567 96 117.4 96C116.8 96 115.933 95.9667 114.8 95.9C113.533 95.8333 112.433 95.8 111.5 95.8C110.667 95.8 109.683 95.8333 108.55 95.9C107.55 95.9667 106.733 96 106.1 96C105.933 96 105.85 95.9 105.85 95.7C105.85 95.5 105.933 95.4 106.1 95.4C107.033 95.4 107.817 95.2333 108.45 94.9C109.117 94.5667 109.733 93.9667 110.3 93.1C110.9 92.2333 111.533 91 112.2 89.4L122.65 64.25C122.717 64.15 122.817 64.1 122.95 64.1C123.117 64.1 123.217 64.15 123.25 64.25L134.85 89.15C135.617 90.85 136.3 92.15 136.9 93.05C137.5 93.9167 138.083 94.5333 138.65 94.9C139.25 95.2333 139.933 95.4 140.7 95.4ZM116.95 80.75H128L122.15 68.2L116.95 80.75ZM173.362 64.75C173.462 64.75 173.512 64.85 173.512 65.05C173.512 65.25 173.462 65.35 173.362 65.35C171.929 65.35 170.912 65.7 170.312 66.4C169.745 67.1 169.462 68.3 169.462 70V96.55C169.462 96.6167 169.379 96.6667 169.212 96.7C169.045 96.7333 168.929 96.7167 168.862 96.65L146.262 68.85L145.412 67.9V90.8C145.412 92.5 145.695 93.7 146.262 94.4C146.829 95.0667 147.812 95.4 149.212 95.4C149.312 95.4 149.362 95.5 149.362 95.7C149.362 95.9 149.312 96 149.212 96C148.412 96 147.795 95.9833 147.362 95.95L144.962 95.9L142.512 95.95C142.079 95.9833 141.429 96 140.562 96C140.495 96 140.462 95.9 140.462 95.7C140.462 95.5 140.495 95.4 140.562 95.4C141.995 95.4 142.979 95.0667 143.512 94.4C144.045 93.7333 144.312 92.5333 144.312 90.8V66.85C143.145 65.85 141.945 65.35 140.712 65.35C140.612 65.35 140.562 65.25 140.562 65.05C140.562 64.85 140.612 64.75 140.712 64.75L142.512 64.8C142.879 64.8333 143.395 64.85 144.062 64.85C144.629 64.85 145.095 64.8333 145.462 64.8C145.829 64.7667 146.112 64.75 146.312 64.75C146.545 64.75 146.729 64.8167 146.862 64.95C147.029 65.05 147.212 65.2833 147.412 65.65C147.779 66.25 148.179 66.8167 148.612 67.35L168.362 91.9V70C168.362 68.3 168.095 67.1 167.562 66.4C167.029 65.7 166.062 65.35 164.662 65.35C164.595 65.35 164.562 65.25 164.562 65.05C164.562 64.85 164.595 64.75 164.662 64.75L166.562 64.8C167.562 64.8667 168.362 64.9 168.962 64.9C169.529 64.9 170.345 64.8667 171.412 64.8L173.362 64.75ZM192.393 96.6C188.759 96.6 185.593 95.8667 182.893 94.4C180.226 92.9 178.176 90.9 176.743 88.4C175.309 85.8667 174.593 83.1 174.593 80.1C174.593 76.8667 175.393 74.05 176.993 71.65C178.626 69.25 180.843 67.4167 183.643 66.15C186.476 64.85 189.643 64.2 193.143 64.2C194.976 64.2 196.659 64.3833 198.193 64.75C199.726 65.1167 201.026 65.6333 202.093 66.3C202.326 66.4667 202.459 66.6 202.493 66.7C202.526 66.7667 202.559 67 202.593 67.4L203.193 73C203.193 73.1 203.093 73.1667 202.893 73.2C202.726 73.2333 202.626 73.2 202.593 73.1C201.859 70.3333 200.693 68.2833 199.093 66.95C197.526 65.6167 195.309 64.95 192.443 64.95C189.676 64.95 187.193 65.55 184.993 66.75C182.793 67.9167 181.059 69.6 179.793 71.8C178.526 73.9667 177.893 76.5167 177.893 79.45C177.893 82.2167 178.459 84.85 179.593 87.35C180.759 89.85 182.526 91.9 184.893 93.5C187.293 95.1 190.243 95.9 193.743 95.9C196.209 95.9 197.943 95.4333 198.943 94.5C199.976 93.5333 200.493 91.95 200.493 89.75C200.493 88.0167 200.376 86.8167 200.143 86.15C199.909 85.45 199.409 84.9833 198.643 84.75C197.876 84.5167 196.543 84.4 194.643 84.4C194.443 84.4 194.343 84.2667 194.343 84C194.343 83.9 194.359 83.8167 194.393 83.75C194.459 83.65 194.526 83.6 194.593 83.6C197.159 83.7667 199.226 83.85 200.793 83.85C202.293 83.85 203.893 83.8 205.593 83.7C205.659 83.7 205.709 83.75 205.743 83.85C205.809 83.9167 205.843 83.9833 205.843 84.05C205.843 84.2833 205.759 84.4 205.593 84.4C204.726 84.3667 204.109 84.4833 203.743 84.75C203.376 84.9833 203.143 85.4833 203.043 86.25C202.943 87.0167 202.893 88.35 202.893 90.25C202.893 91.75 202.943 92.8167 203.043 93.45C203.176 94.0833 203.243 94.4833 203.243 94.65C203.243 94.85 203.209 94.9833 203.143 95.05C203.076 95.1167 202.926 95.1833 202.693 95.25C198.659 96.15 195.226 96.6 192.393 96.6ZM228.592 88.7C228.592 88.6 228.692 88.5667 228.892 88.6C229.092 88.6 229.192 88.65 229.192 88.75C228.892 90.85 228.742 93.0167 228.742 95.25C228.742 95.5167 228.675 95.7167 228.542 95.85C228.442 95.95 228.242 96 227.942 96H207.292C207.225 96 207.192 95.9 207.192 95.7C207.192 95.5 207.225 95.4 207.292 95.4C208.592 95.4 209.542 95.3167 210.142 95.15C210.775 94.9833 211.192 94.6667 211.392 94.2C211.625 93.7 211.742 92.95 211.742 91.95V68.8C211.742 67.8 211.625 67.0667 211.392 66.6C211.192 66.1333 210.775 65.8167 210.142 65.65C209.542 65.45 208.592 65.35 207.292 65.35C207.225 65.35 207.192 65.25 207.192 65.05C207.192 64.85 207.225 64.75 207.292 64.75H227.092C227.392 64.75 227.542 64.9 227.542 65.2L227.642 71.25C227.642 71.35 227.542 71.4 227.342 71.4C227.175 71.4 227.092 71.35 227.092 71.25C227.092 69.55 226.642 68.2 225.742 67.2C224.842 66.2 223.658 65.7 222.192 65.7H218.742C217.475 65.7 216.542 65.7833 215.942 65.95C215.342 66.1167 214.925 66.4333 214.692 66.9C214.492 67.3667 214.392 68.1 214.392 69.1V79.25H220.992C222.525 79.25 223.592 79 224.192 78.5C224.792 77.9667 225.092 77.0667 225.092 75.8C225.092 75.7333 225.192 75.7 225.392 75.7C225.592 75.7 225.692 75.7333 225.692 75.8L225.642 79.75C225.642 80.7167 225.658 81.4333 225.692 81.9L225.742 84.25C225.742 84.3167 225.642 84.35 225.442 84.35C225.242 84.35 225.142 84.3167 225.142 84.25C225.142 82.75 224.825 81.7 224.192 81.1C223.558 80.5 222.442 80.2 220.842 80.2H214.392V91.75C214.392 92.7167 214.492 93.4333 214.692 93.9C214.925 94.3333 215.325 94.6333 215.892 94.8C216.492 94.9667 217.442 95.05 218.742 95.05H223.342C224.675 95.05 225.808 94.4667 226.742 93.3C227.708 92.1333 228.325 90.6 228.592 88.7ZM238.152 91.75C238.152 92.7167 238.252 93.4333 238.452 93.9C238.685 94.3333 239.085 94.6333 239.652 94.8C240.252 94.9667 241.185 95.05 242.452 95.05H248.852C252.152 95.05 254.102 92.9333 254.702 88.7C254.702 88.6 254.785 88.5667 254.952 88.6C255.152 88.6 255.252 88.65 255.252 88.75C254.952 91.3833 254.802 93.55 254.802 95.25C254.802 95.5167 254.752 95.7167 254.652 95.85C254.552 95.95 254.352 96 254.052 96H231.052C230.985 96 230.952 95.9 230.952 95.7C230.952 95.5 230.985 95.4 231.052 95.4C232.352 95.4 233.302 95.3167 233.902 95.15C234.535 94.9833 234.952 94.6667 235.152 94.2C235.385 93.7 235.502 92.95 235.502 91.95V68.8C235.502 67.8 235.385 67.0667 235.152 66.6C234.952 66.1333 234.535 65.8167 233.902 65.65C233.302 65.45 232.352 65.35 231.052 65.35C230.985 65.35 230.952 65.25 230.952 65.05C230.952 64.85 230.985 64.75 231.052 64.75L233.502 64.8C234.902 64.8667 236.002 64.9 236.802 64.9C237.702 64.9 238.852 64.8667 240.252 64.8L242.602 64.75C242.669 64.75 242.702 64.85 242.702 65.05C242.702 65.25 242.669 65.35 242.602 65.35C241.302 65.35 240.335 65.45 239.702 65.65C239.102 65.8167 238.685 66.15 238.452 66.65C238.252 67.1167 238.152 67.85 238.152 68.85V91.75ZM260.166 70.8C260.166 72.1333 260.482 73.2833 261.116 74.25C261.749 75.2167 262.516 76.0333 263.416 76.7C264.349 77.3333 265.632 78.1333 267.266 79.1C268.999 80.1333 270.332 81 271.266 81.7C272.232 82.3667 273.049 83.2333 273.716 84.3C274.416 85.3667 274.766 86.65 274.766 88.15C274.766 89.7167 274.382 91.15 273.616 92.45C272.849 93.7167 271.699 94.7333 270.166 95.5C268.666 96.2333 266.816 96.6 264.616 96.6C263.449 96.6 262.332 96.4667 261.266 96.2C260.232 95.9667 259.082 95.5333 257.816 94.9C257.649 94.8 257.532 94.6833 257.466 94.55C257.432 94.4167 257.399 94.2167 257.366 93.95L256.616 87.45V87.4C256.616 87.2667 256.699 87.2 256.866 87.2C257.032 87.1667 257.132 87.2167 257.166 87.35C257.499 89.65 258.382 91.65 259.816 93.35C261.249 95.05 263.216 95.9 265.716 95.9C267.482 95.9 268.966 95.4167 270.166 94.45C271.399 93.4833 272.016 91.9667 272.016 89.9C272.016 88.4 271.682 87.1167 271.016 86.05C270.349 84.95 269.532 84.05 268.566 83.35C267.632 82.6167 266.349 81.7667 264.716 80.8C263.116 79.8667 261.849 79.05 260.916 78.35C260.016 77.65 259.232 76.7833 258.566 75.75C257.932 74.6833 257.616 73.4167 257.616 71.95C257.616 70.2833 258.032 68.8667 258.866 67.7C259.732 66.5333 260.849 65.6667 262.216 65.1C263.582 64.5 265.049 64.2 266.616 64.2C268.449 64.2 270.349 64.6 272.316 65.4C272.816 65.6 273.066 65.8833 273.066 66.25L273.516 71.55C273.516 71.6833 273.416 71.75 273.216 71.75C273.049 71.75 272.949 71.6833 272.916 71.55C272.782 69.8167 272.132 68.2667 270.966 66.9C269.799 65.5333 268.132 64.85 265.966 64.85C263.966 64.85 262.499 65.4333 261.566 66.6C260.632 67.7667 260.166 69.1667 260.166 70.8Z" fill="#EBE7DD"/>
<path d="M140.7 95.4C140.833 95.4 140.9 95.5 140.9 95.7C140.9 95.9 140.833 96 140.7 96C140.1 96 139.133 95.9667 137.8 95.9C136.533 95.8333 135.6 95.8 135 95.8C134.3 95.8 133.383 95.8333 132.25 95.9C131.183 95.9667 130.383 96 129.85 96C129.717 96 129.65 95.9 129.65 95.7C129.65 95.5 129.717 95.4 129.85 95.4C131.217 95.4 132.2 95.2833 132.8 95.05C133.4 94.7833 133.7 94.35 133.7 93.75C133.7 93.2833 133.517 92.6333 133.15 91.8L128.45 81.65H116.55L113.15 89.85C112.683 90.9833 112.45 91.9167 112.45 92.65C112.45 93.6167 112.85 94.3167 113.65 94.75C114.45 95.1833 115.7 95.4 117.4 95.4C117.567 95.4 117.65 95.5 117.65 95.7C117.65 95.9 117.567 96 117.4 96C116.8 96 115.933 95.9667 114.8 95.9C113.533 95.8333 112.433 95.8 111.5 95.8C110.667 95.8 109.683 95.8333 108.55 95.9C107.55 95.9667 106.733 96 106.1 96C105.933 96 105.85 95.9 105.85 95.7C105.85 95.5 105.933 95.4 106.1 95.4C107.033 95.4 107.817 95.2333 108.45 94.9C109.117 94.5667 109.733 93.9667 110.3 93.1C110.9 92.2333 111.533 91 112.2 89.4L122.65 64.25C122.717 64.15 122.817 64.1 122.95 64.1C123.117 64.1 123.217 64.15 123.25 64.25L134.85 89.15C135.617 90.85 136.3 92.15 136.9 93.05C137.5 93.9167 138.083 94.5333 138.65 94.9C139.25 95.2333 139.933 95.4 140.7 95.4ZM116.95 80.75H128L122.15 68.2L116.95 80.75ZM173.362 64.75C173.462 64.75 173.512 64.85 173.512 65.05C173.512 65.25 173.462 65.35 173.362 65.35C171.929 65.35 170.912 65.7 170.312 66.4C169.745 67.1 169.462 68.3 169.462 70V96.55C169.462 96.6167 169.379 96.6667 169.212 96.7C169.045 96.7333 168.929 96.7167 168.862 96.65L146.262 68.85L145.412 67.9V90.8C145.412 92.5 145.695 93.7 146.262 94.4C146.829 95.0667 147.812 95.4 149.212 95.4C149.312 95.4 149.362 95.5 149.362 95.7C149.362 95.9 149.312 96 149.212 96C148.412 96 147.795 95.9833 147.362 95.95L144.962 95.9L142.512 95.95C142.079 95.9833 141.429 96 140.562 96C140.495 96 140.462 95.9 140.462 95.7C140.462 95.5 140.495 95.4 140.562 95.4C141.995 95.4 142.979 95.0667 143.512 94.4C144.045 93.7333 144.312 92.5333 144.312 90.8V66.85C143.145 65.85 141.945 65.35 140.712 65.35C140.612 65.35 140.562 65.25 140.562 65.05C140.562 64.85 140.612 64.75 140.712 64.75L142.512 64.8C142.879 64.8333 143.395 64.85 144.062 64.85C144.629 64.85 145.095 64.8333 145.462 64.8C145.829 64.7667 146.112 64.75 146.312 64.75C146.545 64.75 146.729 64.8167 146.862 64.95C147.029 65.05 147.212 65.2833 147.412 65.65C147.779 66.25 148.179 66.8167 148.612 67.35L168.362 91.9V70C168.362 68.3 168.095 67.1 167.562 66.4C167.029 65.7 166.062 65.35 164.662 65.35C164.595 65.35 164.562 65.25 164.562 65.05C164.562 64.85 164.595 64.75 164.662 64.75L166.562 64.8C167.562 64.8667 168.362 64.9 168.962 64.9C169.529 64.9 170.345 64.8667 171.412 64.8L173.362 64.75ZM192.393 96.6C188.759 96.6 185.593 95.8667 182.893 94.4C180.226 92.9 178.176 90.9 176.743 88.4C175.309 85.8667 174.593 83.1 174.593 80.1C174.593 76.8667 175.393 74.05 176.993 71.65C178.626 69.25 180.843 67.4167 183.643 66.15C186.476 64.85 189.643 64.2 193.143 64.2C194.976 64.2 196.659 64.3833 198.193 64.75C199.726 65.1167 201.026 65.6333 202.093 66.3C202.326 66.4667 202.459 66.6 202.493 66.7C202.526 66.7667 202.559 67 202.593 67.4L203.193 73C203.193 73.1 203.093 73.1667 202.893 73.2C202.726 73.2333 202.626 73.2 202.593 73.1C201.859 70.3333 200.693 68.2833 199.093 66.95C197.526 65.6167 195.309 64.95 192.443 64.95C189.676 64.95 187.193 65.55 184.993 66.75C182.793 67.9167 181.059 69.6 179.793 71.8C178.526 73.9667 177.893 76.5167 177.893 79.45C177.893 82.2167 178.459 84.85 179.593 87.35C180.759 89.85 182.526 91.9 184.893 93.5C187.293 95.1 190.243 95.9 193.743 95.9C196.209 95.9 197.943 95.4333 198.943 94.5C199.976 93.5333 200.493 91.95 200.493 89.75C200.493 88.0167 200.376 86.8167 200.143 86.15C199.909 85.45 199.409 84.9833 198.643 84.75C197.876 84.5167 196.543 84.4 194.643 84.4C194.443 84.4 194.343 84.2667 194.343 84C194.343 83.9 194.359 83.8167 194.393 83.75C194.459 83.65 194.526 83.6 194.593 83.6C197.159 83.7667 199.226 83.85 200.793 83.85C202.293 83.85 203.893 83.8 205.593 83.7C205.659 83.7 205.709 83.75 205.743 83.85C205.809 83.9167 205.843 83.9833 205.843 84.05C205.843 84.2833 205.759 84.4 205.593 84.4C204.726 84.3667 204.109 84.4833 203.743 84.75C203.376 84.9833 203.143 85.4833 203.043 86.25C202.943 87.0167 202.893 88.35 202.893 90.25C202.893 91.75 202.943 92.8167 203.043 93.45C203.176 94.0833 203.243 94.4833 203.243 94.65C203.243 94.85 203.209 94.9833 203.143 95.05C203.076 95.1167 202.926 95.1833 202.693 95.25C198.659 96.15 195.226 96.6 192.393 96.6ZM228.592 88.7C228.592 88.6 228.692 88.5667 228.892 88.6C229.092 88.6 229.192 88.65 229.192 88.75C228.892 90.85 228.742 93.0167 228.742 95.25C228.742 95.5167 228.675 95.7167 228.542 95.85C228.442 95.95 228.242 96 227.942 96H207.292C207.225 96 207.192 95.9 207.192 95.7C207.192 95.5 207.225 95.4 207.292 95.4C208.592 95.4 209.542 95.3167 210.142 95.15C210.775 94.9833 211.192 94.6667 211.392 94.2C211.625 93.7 211.742 92.95 211.742 91.95V68.8C211.742 67.8 211.625 67.0667 211.392 66.6C211.192 66.1333 210.775 65.8167 210.142 65.65C209.542 65.45 208.592 65.35 207.292 65.35C207.225 65.35 207.192 65.25 207.192 65.05C207.192 64.85 207.225 64.75 207.292 64.75H227.092C227.392 64.75 227.542 64.9 227.542 65.2L227.642 71.25C227.642 71.35 227.542 71.4 227.342 71.4C227.175 71.4 227.092 71.35 227.092 71.25C227.092 69.55 226.642 68.2 225.742 67.2C224.842 66.2 223.658 65.7 222.192 65.7H218.742C217.475 65.7 216.542 65.7833 215.942 65.95C215.342 66.1167 214.925 66.4333 214.692 66.9C214.492 67.3667 214.392 68.1 214.392 69.1V79.25H220.992C222.525 79.25 223.592 79 224.192 78.5C224.792 77.9667 225.092 77.0667 225.092 75.8C225.092 75.7333 225.192 75.7 225.392 75.7C225.592 75.7 225.692 75.7333 225.692 75.8L225.642 79.75C225.642 80.7167 225.658 81.4333 225.692 81.9L225.742 84.25C225.742 84.3167 225.642 84.35 225.442 84.35C225.242 84.35 225.142 84.3167 225.142 84.25C225.142 82.75 224.825 81.7 224.192 81.1C223.558 80.5 222.442 80.2 220.842 80.2H214.392V91.75C214.392 92.7167 214.492 93.4333 214.692 93.9C214.925 94.3333 215.325 94.6333 215.892 94.8C216.492 94.9667 217.442 95.05 218.742 95.05H223.342C224.675 95.05 225.808 94.4667 226.742 93.3C227.708 92.1333 228.325 90.6 228.592 88.7ZM238.152 91.75C238.152 92.7167 238.252 93.4333 238.452 93.9C238.685 94.3333 239.085 94.6333 239.652 94.8C240.252 94.9667 241.185 95.05 242.452 95.05H248.852C252.152 95.05 254.102 92.9333 254.702 88.7C254.702 88.6 254.785 88.5667 254.952 88.6C255.152 88.6 255.252 88.65 255.252 88.75C254.952 91.3833 254.802 93.55 254.802 95.25C254.802 95.5167 254.752 95.7167 254.652 95.85C254.552 95.95 254.352 96 254.052 96H231.052C230.985 96 230.952 95.9 230.952 95.7C230.952 95.5 230.985 95.4 231.052 95.4C232.352 95.4 233.302 95.3167 233.902 95.15C234.535 94.9833 234.952 94.6667 235.152 94.2C235.385 93.7 235.502 92.95 235.502 91.95V68.8C235.502 67.8 235.385 67.0667 235.152 66.6C234.952 66.1333 234.535 65.8167 233.902 65.65C233.302 65.45 232.352 65.35 231.052 65.35C230.985 65.35 230.952 65.25 230.952 65.05C230.952 64.85 230.985 64.75 231.052 64.75L233.502 64.8C234.902 64.8667 236.002 64.9 236.802 64.9C237.702 64.9 238.852 64.8667 240.252 64.8L242.602 64.75C242.669 64.75 242.702 64.85 242.702 65.05C242.702 65.25 242.669 65.35 242.602 65.35C241.302 65.35 240.335 65.45 239.702 65.65C239.102 65.8167 238.685 66.15 238.452 66.65C238.252 67.1167 238.152 67.85 238.152 68.85V91.75ZM260.166 70.8C260.166 72.1333 260.482 73.2833 261.116 74.25C261.749 75.2167 262.516 76.0333 263.416 76.7C264.349 77.3333 265.632 78.1333 267.266 79.1C268.999 80.1333 270.332 81 271.266 81.7C272.232 82.3667 273.049 83.2333 273.716 84.3C274.416 85.3667 274.766 86.65 274.766 88.15C274.766 89.7167 274.382 91.15 273.616 92.45C272.849 93.7167 271.699 94.7333 270.166 95.5C268.666 96.2333 266.816 96.6 264.616 96.6C263.449 96.6 262.332 96.4667 261.266 96.2C260.232 95.9667 259.082 95.5333 257.816 94.9C257.649 94.8 257.532 94.6833 257.466 94.55C257.432 94.4167 257.399 94.2167 257.366 93.95L256.616 87.45V87.4C256.616 87.2667 256.699 87.2 256.866 87.2C257.032 87.1667 257.132 87.2167 257.166 87.35C257.499 89.65 258.382 91.65 259.816 93.35C261.249 95.05 263.216 95.9 265.716 95.9C267.482 95.9 268.966 95.4167 270.166 94.45C271.399 93.4833 272.016 91.9667 272.016 89.9C272.016 88.4 271.682 87.1167 271.016 86.05C270.349 84.95 269.532 84.05 268.566 83.35C267.632 82.6167 266.349 81.7667 264.716 80.8C263.116 79.8667 261.849 79.05 260.916 78.35C260.016 77.65 259.232 76.7833 258.566 75.75C257.932 74.6833 257.616 73.4167 257.616 71.95C257.616 70.2833 258.032 68.8667 258.866 67.7C259.732 66.5333 260.849 65.6667 262.216 65.1C263.582 64.5 265.049 64.2 266.616 64.2C268.449 64.2 270.349 64.6 272.316 65.4C272.816 65.6 273.066 65.8833 273.066 66.25L273.516 71.55C273.516 71.6833 273.416 71.75 273.216 71.75C273.049 71.75 272.949 71.6833 272.916 71.55C272.782 69.8167 272.132 68.2667 270.966 66.9C269.799 65.5333 268.132 64.85 265.966 64.85C263.966 64.85 262.499 65.4333 261.566 66.6C260.632 67.7667 260.166 69.1667 260.166 70.8Z" fill="url(#paint1_linear_264_809)"/>
<path d="M33.39 65.55C31.15 68.21 28.7233 70.59 26.11 72.69C23.5433 74.7433 20.93 76.6333 18.27 78.36C17.01 79.1533 15.7033 79.9 14.35 80.6C13.0433 81.3 11.76 81.9767 10.5 82.63C9.84667 83.8433 9.24 85.01 8.68 86.13C8.12 87.25 7.65333 88.3233 7.28 89.35C6.48667 91.31 6.37 92.8267 6.93 93.9C7.49 94.9733 8.44667 95.51 9.8 95.51C10.6867 95.51 11.7367 95.23 12.95 94.67C14.5833 93.8767 16.1933 92.8267 17.78 91.52C19.3667 90.1667 20.86 88.6033 22.26 86.83C22.4933 86.5967 22.6567 86.55 22.75 86.69C22.89 86.83 22.8433 87.0167 22.61 87.25C20.9767 89.21 19.4133 90.7967 17.92 92.01C16.4733 93.1767 15.1667 94.11 14 94.81C13.16 95.3233 12.0867 95.7667 10.78 96.14C9.47333 96.5133 8.30667 96.63 7.28 96.49C5.13333 96.1633 3.99 95.3 3.85 93.9C3.71 92.4533 4.17667 90.61 5.25 88.37C6.23 86.4567 7.28 84.52 8.4 82.56C9.52 80.5533 10.5933 78.6867 11.62 76.96C12.6933 75.1867 13.6967 73.6 14.63 72.2C15.5633 70.7533 16.3333 69.61 16.94 68.77C17.4533 68.0233 17.9433 67.3467 18.41 66.74C18.9233 66.0867 19.4367 65.4567 19.95 64.85C21.0233 63.5433 22.0967 62.4933 23.17 61.7C24.5233 60.6733 26.0633 60.0433 27.79 59.81C29.5167 59.5767 31.1267 59.6467 32.62 60.02C34.02 60.3467 34.79 61.0233 34.93 62.05C35.07 63.03 34.5567 64.1967 33.39 65.55ZM31.71 66.25C32.3167 65.4567 32.5733 64.6867 32.48 63.94C32.3867 63.1467 31.9433 62.4467 31.15 61.84C30.0767 61 28.8633 60.6033 27.51 60.65C26.2033 60.6967 25.0133 61.1633 23.94 62.05C23.0533 62.75 22.2133 63.6367 21.42 64.71C20.6733 65.7367 19.9033 66.88 19.11 68.14C17.85 70.1 16.52 72.27 15.12 74.65C13.7667 77.03 12.4133 79.3633 11.06 81.65L10.85 82C12.0633 81.3933 13.2767 80.7633 14.49 80.11C15.7033 79.41 16.87 78.71 17.99 78.01C18.69 77.5433 19.6467 76.8667 20.86 75.98C22.12 75.0933 23.4033 74.1133 24.71 73.04C26.0633 71.9667 27.37 70.8467 28.63 69.68C29.89 68.4667 30.9167 67.3233 31.71 66.25ZM39.4527 85.99C38.4727 86.7833 37.236 87.6233 35.7427 88.51C34.2493 89.35 32.896 89.9567 31.6827 90.33C30.096 90.89 28.8593 90.9367 27.9727 90.47C27.6927 90.9833 27.3893 91.4967 27.0627 92.01C26.7827 92.5233 26.456 92.99 26.0827 93.41C25.0093 94.7633 23.936 95.72 22.8627 96.28C21.7893 96.8867 20.856 97.0967 20.0627 96.91C19.2693 96.6767 18.7327 96.1167 18.4527 95.23C18.1727 94.2967 18.2893 93.06 18.8027 91.52C19.0827 90.68 19.5027 89.8167 20.0627 88.93C20.6693 87.9967 21.346 87.11 22.0927 86.27C22.886 85.43 23.7027 84.6833 24.5427 84.03C25.4293 83.33 26.2693 82.8167 27.0627 82.49C27.7627 82.21 28.3693 82.07 28.8827 82.07C28.976 81.9767 29.046 81.9067 29.0927 81.86C29.186 81.8133 29.256 81.7667 29.3027 81.72C29.536 81.6267 29.7693 81.5567 30.0027 81.51C30.2827 81.4633 30.586 81.4167 30.9127 81.37C31.146 81.37 31.2627 81.4633 31.2627 81.65C31.3093 81.79 31.2627 82.0467 31.1227 82.42C30.8427 83.1667 30.5627 83.9367 30.2827 84.73C30.0027 85.4767 29.7693 86.1767 29.5827 86.83C29.3493 87.9033 29.466 88.6967 29.9327 89.21C30.446 89.7233 31.2393 89.8167 32.3127 89.49C33.386 89.1633 34.576 88.6267 35.8827 87.88C37.236 87.1333 38.3327 86.3633 39.1727 85.57C39.406 85.3367 39.546 85.3133 39.5927 85.5C39.686 85.6867 39.6393 85.85 39.4527 85.99ZM28.6727 82.98C28.4393 82.6533 28.1127 82.5833 27.6927 82.77C27.2727 82.9567 26.806 83.2833 26.2927 83.75C25.826 84.2167 25.3127 84.8 24.7527 85.5C24.2393 86.2 23.7727 86.9233 23.3527 87.67C22.7927 88.65 22.3027 89.6533 21.8827 90.68C21.4627 91.66 21.1593 92.5 20.9727 93.2C20.5993 94.8333 20.786 95.7667 21.5327 96C22.326 96.28 23.3293 95.6967 24.5427 94.25C25.616 93.0367 26.5493 91.6133 27.3427 89.98C26.7827 89.1867 26.806 88.1367 27.4127 86.83C27.646 86.3167 27.8793 85.71 28.1127 85.01C28.346 84.31 28.5327 83.6333 28.6727 82.98ZM50.132 83.26C50.132 83.68 50.062 84.1 49.922 84.52C49.5954 85.36 48.9887 86.2233 48.102 87.11C47.262 87.95 46.3754 88.72 45.442 89.42C44.7887 89.9333 44.112 90.4 43.412 90.82C42.7587 91.24 42.1054 91.7067 41.452 92.22C40.2854 93.2 39.422 94.1333 38.862 95.02C38.4887 95.58 38.022 95.9767 37.462 96.21C36.9487 96.4433 36.4354 96.7 35.922 96.98C35.642 97.0733 35.5254 97.12 35.572 97.12C35.3854 97.12 35.292 97.0267 35.292 96.84C35.292 96.7 35.3154 96.6067 35.362 96.56C35.7354 95.6267 36.0387 94.7633 36.272 93.97C36.5054 93.13 36.7387 92.2433 36.972 91.31C37.2987 89.8167 37.6954 88.3467 38.162 86.9C38.6754 85.4533 39.3054 84.0767 40.052 82.77C40.2387 82.49 40.402 82.2567 40.542 82.07C40.7287 81.8367 40.9854 81.65 41.312 81.51C41.592 81.4167 41.872 81.3233 42.152 81.23C42.4787 81.1367 42.782 81.02 43.062 80.88C43.1087 80.8333 43.202 80.81 43.342 80.81C43.5287 80.81 43.622 80.88 43.622 81.02C43.622 81.16 43.5754 81.2767 43.482 81.37C43.1087 81.65 42.7587 82.07 42.432 82.63C42.152 83.1433 41.9187 83.61 41.732 84.03C41.0787 85.43 40.4954 86.8533 39.982 88.3C39.4687 89.7 39.142 91.1233 39.002 92.57V92.64C39.002 92.8267 39.072 92.92 39.212 92.92C39.2587 92.92 39.3054 92.8967 39.352 92.85C40.192 92.1033 41.0554 91.45 41.942 90.89C42.8754 90.33 43.8087 89.7467 44.742 89.14C45.2554 88.7667 45.7687 88.37 46.282 87.95C46.842 87.4833 47.2854 86.9933 47.612 86.48C48.0787 85.8267 48.312 85.1733 48.312 84.52C48.312 83.8667 47.9854 83.2833 47.332 82.77C47.2387 82.6767 47.192 82.5833 47.192 82.49C47.192 82.35 47.2387 82.21 47.332 82.07C47.472 81.8833 47.612 81.6967 47.752 81.51C48.172 80.9967 48.4987 80.74 48.732 80.74C48.8254 80.74 48.8954 80.7633 48.942 80.81C49.7354 81.4633 50.132 82.28 50.132 83.26ZM70.9937 88.65C70.2003 89.9567 69.267 91.1 68.1937 92.08C67.1203 93.0133 65.977 93.83 64.7637 94.53C63.597 95.1833 62.4303 95.72 61.2637 96.14C60.097 96.56 59.0237 96.8633 58.0437 97.05C55.7103 97.5633 54.007 97.3767 52.9337 96.49C51.8603 95.65 51.4637 94.4133 51.7437 92.78C51.837 92.0333 52.1403 91.1467 52.6537 90.12C53.2137 89.0467 53.9137 87.9967 54.7537 86.97C55.5937 85.9433 56.527 84.9867 57.5537 84.1C58.5803 83.1667 59.607 82.42 60.6337 81.86C61.7537 81.3 62.687 81.09 63.4337 81.23C64.227 81.3233 64.6237 81.72 64.6237 82.42C64.6237 82.9333 64.4137 83.4933 63.9937 84.1C62.967 85.64 61.567 87.0633 59.7937 88.37C58.067 89.63 56.317 90.7967 54.5437 91.87C54.1703 93.41 54.5203 94.53 55.5937 95.23C56.2937 95.7433 57.2503 96 58.4637 96C59.677 95.9533 60.9837 95.65 62.3837 95.09C63.8303 94.53 65.277 93.69 66.7237 92.57C68.217 91.4033 69.547 89.9567 70.7137 88.23C70.9003 87.9967 71.017 87.9733 71.0637 88.16C71.1103 88.3 71.087 88.4633 70.9937 88.65ZM62.6637 83.68C63.177 82.84 63.2237 82.28 62.8037 82C62.4303 81.6733 61.8237 81.7667 60.9837 82.28C59.677 83.12 58.417 84.3567 57.2037 85.99C55.9903 87.6233 55.127 89.3267 54.6137 91.1C58.2537 89.0933 60.937 86.62 62.6637 83.68ZM98.3314 65.55C96.0914 68.21 93.6647 70.59 91.0514 72.69C88.4847 74.7433 85.8714 76.6333 83.2114 78.36C81.9514 79.1533 80.6447 79.9 79.2914 80.6C77.9847 81.3 76.7014 81.9767 75.4414 82.63C74.7881 83.8433 74.1814 85.01 73.6214 86.13C73.0614 87.25 72.5947 88.3233 72.2214 89.35C71.4281 91.31 71.3114 92.8267 71.8714 93.9C72.4314 94.9733 73.3881 95.51 74.7414 95.51C75.6281 95.51 76.6781 95.23 77.8914 94.67C79.5247 93.8767 81.1347 92.8267 82.7214 91.52C84.3081 90.1667 85.8014 88.6033 87.2014 86.83C87.4347 86.5967 87.5981 86.55 87.6914 86.69C87.8314 86.83 87.7847 87.0167 87.5514 87.25C85.9181 89.21 84.3547 90.7967 82.8614 92.01C81.4147 93.1767 80.1081 94.11 78.9414 94.81C78.1014 95.3233 77.0281 95.7667 75.7214 96.14C74.4147 96.5133 73.2481 96.63 72.2214 96.49C70.0747 96.1633 68.9314 95.3 68.7914 93.9C68.6514 92.4533 69.1181 90.61 70.1914 88.37C71.1714 86.4567 72.2214 84.52 73.3414 82.56C74.4614 80.5533 75.5347 78.6867 76.5614 76.96C77.6347 75.1867 78.6381 73.6 79.5714 72.2C80.5047 70.7533 81.2747 69.61 81.8814 68.77C82.3947 68.0233 82.8847 67.3467 83.3514 66.74C83.8647 66.0867 84.3781 65.4567 84.8914 64.85C85.9647 63.5433 87.0381 62.4933 88.1114 61.7C89.4647 60.6733 91.0047 60.0433 92.7314 59.81C94.4581 59.5767 96.0681 59.6467 97.5614 60.02C98.9614 60.3467 99.7314 61.0233 99.8714 62.05C100.011 63.03 99.4981 64.1967 98.3314 65.55ZM96.6514 66.25C97.2581 65.4567 97.5147 64.6867 97.4214 63.94C97.3281 63.1467 96.8847 62.4467 96.0914 61.84C95.0181 61 93.8047 60.6033 92.4514 60.65C91.1447 60.6967 89.9547 61.1633 88.8814 62.05C87.9947 62.75 87.1547 63.6367 86.3614 64.71C85.6147 65.7367 84.8447 66.88 84.0514 68.14C82.7914 70.1 81.4614 72.27 80.0614 74.65C78.7081 77.03 77.3547 79.3633 76.0014 81.65L75.7914 82C77.0047 81.3933 78.2181 80.7633 79.4314 80.11C80.6447 79.41 81.8114 78.71 82.9314 78.01C83.6314 77.5433 84.5881 76.8667 85.8014 75.98C87.0614 75.0933 88.3447 74.1133 89.6514 73.04C91.0047 71.9667 92.3114 70.8467 93.5714 69.68C94.8314 68.4667 95.8581 67.3233 96.6514 66.25ZM102.574 76.33C102.761 77.17 102.691 77.94 102.364 78.64C101.151 80.74 99.6807 82.91 97.9541 85.15C96.2741 87.3433 94.5941 89.49 92.9141 91.59C90.1141 94.95 87.5007 98.1467 85.0741 101.18C82.6941 104.213 80.5941 107.13 78.7741 109.93C77.8874 111.283 77.0241 112.683 76.1841 114.13C75.3441 115.623 74.6207 117.093 74.0141 118.54C73.3607 120.033 72.8474 121.48 72.4741 122.88C72.0541 124.327 71.8441 125.703 71.8441 127.01C71.7974 128.97 72.2641 130.393 73.2441 131.28C74.2241 132.167 75.6941 132.657 77.6541 132.75C78.6341 132.797 79.7541 132.68 81.0141 132.4C82.2741 132.12 83.5807 131.77 84.9341 131.35C86.2874 130.93 87.6174 130.51 88.9241 130.09C90.2307 129.67 91.3974 129.343 92.4241 129.11C93.9174 128.737 95.1307 128.597 96.0641 128.69C96.9974 128.783 97.6741 129.25 98.0941 130.09C98.2341 130.37 98.2341 130.743 98.0941 131.21C97.9541 131.677 97.8374 132.027 97.7441 132.26C97.6041 132.587 97.4641 132.727 97.3241 132.68C97.1841 132.68 97.1607 132.517 97.2541 132.19C97.3474 131.863 97.3707 131.513 97.3241 131.14C97.3241 130.767 97.1841 130.533 96.9041 130.44C96.3907 130.253 95.7607 130.183 95.0141 130.23C94.3141 130.323 93.4974 130.44 92.5641 130.58C91.7707 130.72 90.8841 130.907 89.9041 131.14C88.9241 131.373 87.8974 131.63 86.8241 131.91C85.7507 132.19 84.6541 132.447 83.5341 132.68C82.4141 132.913 81.3641 133.1 80.3841 133.24C76.3241 133.753 73.1507 133.17 70.8641 131.49C69.6507 130.65 68.9741 129.507 68.8341 128.06C68.6941 126.613 68.9741 125.073 69.6741 123.44C70.5141 121.48 71.6574 119.333 73.1041 117C74.5041 114.713 76.0441 112.38 77.7241 110C79.3574 107.62 81.0374 105.31 82.7641 103.07C84.4907 100.83 86.1007 98.8 87.5941 96.98C87.8274 96.7 88.0607 96.42 88.2941 96.14C88.5274 95.86 88.7607 95.58 88.9941 95.3C88.7141 95.4867 88.4107 95.65 88.0841 95.79C87.8041 95.8833 87.5007 95.9767 87.1741 96.07C86.5674 96.2567 86.0774 96.21 85.7041 95.93C85.3774 95.65 85.2841 95.2067 85.4241 94.6C85.5174 94.0867 85.6574 93.4567 85.8441 92.71C86.0774 91.9633 86.3107 91.3333 86.5441 90.82C87.0107 89.56 87.4307 88.2533 87.8041 86.9C88.2241 85.5467 88.5041 84.4033 88.6441 83.47C88.7841 82.4433 88.1774 82.1167 86.8241 82.49C85.7041 82.77 84.6307 83.26 83.6041 83.96C83.3707 84.0533 83.1841 84.03 83.0441 83.89C82.9507 83.7033 83.0441 83.54 83.3241 83.4C84.3041 82.8867 85.4941 82.3733 86.8941 81.86C88.2941 81.3467 89.5541 80.9733 90.6741 80.74C91.3274 80.6 91.7241 80.74 91.8641 81.16C92.0041 81.5333 91.9341 82.07 91.6541 82.77C91.2341 83.7967 90.7674 84.9167 90.2541 86.13C89.7874 87.3433 89.4141 88.4167 89.1341 89.35C88.9007 90.0967 88.6674 90.8433 88.4341 91.59C88.2474 92.3367 88.1774 92.9667 88.2241 93.48C88.2241 93.9467 88.4107 94.2267 88.7841 94.32C89.1574 94.3667 89.5307 94.25 89.9041 93.97C89.9507 93.9233 90.0207 93.9 90.1141 93.9C93.1007 90.12 95.5274 86.7367 97.3941 83.75C99.3074 80.7167 100.381 78.08 100.614 75.84C100.754 74.3933 100.357 73.18 99.4241 72.2C99.2374 72.0133 99.1907 71.85 99.2841 71.71C99.4241 71.57 99.6107 71.6167 99.8441 71.85C100.404 72.5033 100.917 73.25 101.384 74.09C101.897 74.8833 102.294 75.63 102.574 76.33Z" fill="#9AA37A"/>
<defs>
<linearGradient id="paint0_linear_264_809" x1="13.7725" y1="14.8052" x2="160.915" y2="56.6293" gradientUnits="userSpaceOnUse">
<stop offset="0.0578295" stop-color="#EFEBE0"/>
<stop offset="0.976249" stop-color="#C0BCB3"/>
</linearGradient>
<linearGradient id="paint1_linear_264_809" x1="111.527" y1="74.8052" x2="208.609" y2="92.1909" gradientUnits="userSpaceOnUse">
<stop offset="0.0578295" stop-color="#EFEBE0"/>
<stop offset="0.976249" stop-color="#C0BCB3"/>
</linearGradient>
</defs>
</svg>
