<svg width="20" height="20" viewBox="0 0 20 20" fill="none" xmlns="http://www.w3.org/2000/svg"><g clip-path="url(#clip0_119_1985)"><path d="M18.5 13.453V2.297c0-.442-.406-.797-.91-.797H5.142C3.132 1.5 1.5 2.928 1.5 4.688v10.625c0 1.76 1.632 3.187 3.643 3.187h12.446c.505 0 .911-.355.911-.797v-.531a.77.77 0 00-.338-.621c-.16-.511-.16-1.969 0-2.48a.759.759 0 00.338-.618zM6.357 5.95c0-.11.103-.199.228-.199h8.044c.126 0 .228.09.228.2v.663c0 .11-.102.2-.227.2H6.585c-.125 0-.228-.09-.228-.2V5.95zm0 2.125c0-.11.103-.199.228-.199h8.044c.126 0 .228.09.228.2v.663c0 .11-.102.2-.227.2H6.585c-.125 0-.228-.09-.228-.2v-.664zm9.616 8.301H5.143c-.672 0-1.214-.475-1.214-1.063 0-.584.546-1.062 1.214-1.062h10.83a10.465 10.465 0 000 2.125z" fill="#FFFDF9"/></g><defs><clipPath id="clip0_119_1985"><path fill="#fff" transform="translate(1.5 1.5)" d="M0 0h17v17H0z"/></clipPath></defs></svg>