<svg width="20" height="20" viewBox="0 0 20 20" fill="none" xmlns="http://www.w3.org/2000/svg"><path d="M18 12.953V1.797c0-.442-.406-.797-.91-.797H4.642C2.632 1 1 2.428 1 4.188v10.625C1 16.573 2.632 18 4.643 18h12.446c.505 0 .911-.355.911-.797v-.531a.77.77 0 00-.338-.621c-.16-.511-.16-1.969 0-2.48a.759.759 0 00.338-.618zM5.857 5.45c0-.11.103-.199.228-.199h8.044c.126 0 .228.09.228.2v.663c0 .11-.102.2-.227.2H6.085c-.125 0-.228-.09-.228-.2V5.45zm0 2.125c0-.11.103-.199.228-.199h8.044c.126 0 .228.09.228.2v.663c0 .11-.102.2-.227.2H6.085c-.125 0-.228-.09-.228-.2v-.664zm9.616 8.301H4.643c-.672 0-1.214-.475-1.214-1.063 0-.584.546-1.062 1.214-1.062h10.83a10.465 10.465 0 000 2.125z" fill="#353535"/></svg>