<svg width="30" height="19" viewBox="0 0 30 19" fill="none" xmlns="http://www.w3.org/2000/svg"><path d="M29.346 1.472c-.475.356-.95.772-1.426 1.247-3.327 3.565-4.99 6.655-4.99 9.27v.713c.118.237.177.416.177.534 0 1.426-.831 2.615-2.495 3.566-1.545.831-3.09 1.247-4.635 1.247-1.07 0-1.604-.594-1.604-1.782 0-1.664 2.02-4.575 6.06-8.735 4.041-4.278 6.893-6.417 8.557-6.417h.178l.178.357zm-14.082-.179l-1.248 1.248c-3.327 3.565-4.99 6.774-4.99 9.626 0 1.07-.06 1.723-.179 1.96-.713 2.496-2.97 3.744-6.774 3.744-1.188 0-1.782-.594-1.782-1.782 0-1.545 2.02-4.457 6.06-8.735C10.391 3.076 13.185.937 14.73.937c.238 0 .416.119.535.356z" fill="#C8C7C4"/></svg>