<svg width="34" height="18" viewBox="0 0 34 18" fill="none" xmlns="http://www.w3.org/2000/svg"><path d="M33.664 1.789c0 1.545-2.555 4.456-7.665 8.734-4.991 4.279-8.2 6.418-9.626 6.418h-.178l-.179-.357C21.246 11 23.86 7.374 23.86 5.711c0-1.189.06-1.902.178-2.14.356-.95 1.366-1.723 3.03-2.317 1.664-.713 3.09-1.07 4.278-1.07 1.545 0 2.318.535 2.318 1.605zm-15.687 0c0 1.782-2.555 4.813-7.665 9.09-4.99 4.279-8.14 6.359-9.447 6.24H.686l-.178-.357a149.648 149.648 0 003.922-4.456c2.614-2.971 3.92-5.05 3.92-6.239 0-.119-.059-.297-.178-.535v-.535c0-1.307.95-2.436 2.852-3.386C12.57.779 14.115.363 15.66.363s2.317.475 2.317 1.426z" fill="#C8C7C4"/></svg>