<svg width="545" height="122" viewBox="0 0 545 122" fill="none" xmlns="http://www.w3.org/2000/svg"><path d="M38.416 33.816c-1.53 2.522-3.332 4.728-5.403 6.62a42.23 42.23 0 01-6.62 4.727 45.097 45.097 0 01-6.753 3.107c-2.252.81-4.323 1.396-6.214 1.756-4.503.99-7.79.63-9.861-1.08-2.072-1.621-2.837-4.008-2.297-7.16.18-1.44.766-3.152 1.756-5.133 1.08-2.071 2.432-4.098 4.053-6.079a44.78 44.78 0 015.403-5.538c1.981-1.802 3.963-3.242 5.944-4.323 2.161-1.08 3.962-1.486 5.403-1.216 1.531.18 2.297.946 2.297 2.297 0 .99-.405 2.07-1.216 3.242-1.981 2.971-4.683 5.718-8.105 8.24A141.402 141.402 0 016.672 40.03c-.72 2.972-.045 5.133 2.026 6.484 1.35.99 3.197 1.486 5.538 1.486 2.342-.09 4.863-.675 7.565-1.756 2.792-1.08 5.584-2.702 8.375-4.863 2.882-2.252 5.449-5.043 7.7-8.375.36-.45.586-.496.675-.136.09.27.046.586-.135.946zm-16.075-9.59c.991-1.622 1.081-2.703.27-3.243-.72-.63-1.89-.45-3.512.54-2.521 1.621-4.953 4.008-7.294 7.16-2.342 3.152-4.008 6.439-4.998 9.861C13.83 34.672 19.009 29.9 22.34 24.225zm40.193 12.697c0 .27-.135.54-.405.81-1.35 1.261-3.197 2.792-5.538 4.593-2.342 1.712-4.953 3.378-7.835 4.999-3.422 1.89-6.35 2.836-8.78 2.836-4.414 0-6.62-2.161-6.62-6.484 0-2.161.585-4.367 1.756-6.619 1.351-2.972 2.747-5.358 4.188-7.16 1.44-1.89 2.972-3.421 4.593-4.592a27.064 27.064 0 015.403-3.107c1.981-.81 4.188-1.621 6.62-2.432.54-.18.855-.27.945-.27.9 0 1.62.36 2.161 1.08.54.721.81 1.352.81 1.892 0 .36-.135.81-.405 1.35-.18.451-.45.992-.81 1.622-.36.63-.766.946-1.216.946-.27 0-.63-.36-1.08-1.081-.45-.9-.991-1.621-1.622-2.162-.54-.63-1.26-.945-2.16-.945-1.172 0-2.342.45-3.513 1.35-1.801 1.262-3.512 3.063-5.133 5.404-1.531 2.341-2.972 5.133-4.323 8.375-.99 2.702-1.486 4.863-1.486 6.484 0 2.882 1.35 4.323 4.052 4.323 2.162 0 4.864-.945 8.106-2.837 1.8-1.08 3.827-2.431 6.078-4.052 2.252-1.621 4.053-3.062 5.404-4.323.18-.18.36-.27.54-.27.18 0 .27.09.27.27zm23.27-.27c-5.584 5.043-9.771 8.555-12.563 10.537-1.08.9-2.117 1.485-3.107 1.756-.99.36-1.891.54-2.702.54h-.405c-.99-.09-1.846-.45-2.567-1.08-.72-.631-1.08-1.532-1.08-2.702v-.136c.18-1.8 1.35-2.926 3.512-3.377 1.44.18 1.936 1.576 1.486 4.188 0 .9.315 1.35.945 1.35.72 0 1.666-.45 2.837-1.35.99-.72 2.071-1.531 3.242-2.431a105.87 105.87 0 003.918-3.243c1.44-1.17 2.701-2.206 3.782-3.106a59.034 59.034 0 012.972-2.567l2.431-2.432c1.171-1.35 2.162-2.611 2.972-3.782A77.692 77.692 0 0194.18 24.9l1.89-2.7c.63-.99 1.26-1.801 1.891-2.432.27-.27.496-.54.676-.81.27-.27.63-.405 1.08-.405h1.081c.63 0 1.036.225 1.216.675 0 .36-.225.765-.676 1.216a606.295 606.295 0 01-5.403 7.97c-1.711 2.611-3.107 4.953-4.188 7.024A63.498 63.498 0 0087.83 45.57c-.09.45-.18.855-.27 1.215v.676c0 1.53.765 2.296 2.296 2.296.18 0 .72-.09 1.621-.27 3.242-.9 6.17-2.296 8.781-4.188 2.611-1.89 5.403-4.187 8.375-6.889.18-.18.405-.27.675-.27.361 0 .541.135.541.405s-.135.54-.406.81c-3.151 2.792-6.033 5.134-8.645 7.025-2.612 1.891-5.223 3.287-7.835 4.188-2.431.81-4.458 1.215-6.079 1.215-2.791 0-4.187-1.17-4.187-3.512 0-.99.225-1.981.675-2.972.45-1.08.9-2.026 1.351-2.837.72-1.26 1.35-2.476 1.891-3.647.63-1.17 1.126-2.116 1.486-2.837v-.27c.09-.09.135-.18.135-.27 0-.18-.09-.27-.27-.27-.18 0-.9.495-2.161 1.486zm63.751 2.161c0 .27-.135.54-.405.81-3.152 2.792-6.034 5.134-8.646 7.025-2.611 1.891-5.223 3.287-7.834 4.188-2.432.81-4.458 1.215-6.079 1.215-2.792 0-4.188-1.17-4.188-3.512 0-.99.225-1.98.676-2.971.45-1.081.9-2.027 1.35-2.837a47.534 47.534 0 001.892-3.648 114.42 114.42 0 001.486-2.836v-.27c.09-.09.135-.18.135-.27 0-.18-.09-.27-.271-.27-.18 0-.36.09-.54.27-2.341 2.43-4.728 4.592-7.159 6.483-.901.72-1.756 1.216-2.567 1.486-.81.27-1.576.406-2.296.406h-.271c-.9-.09-1.666-.36-2.296-.811-.54-.54-.811-1.306-.811-2.296v-.136c.091-1.35.721-2.881 1.892-4.592a179.067 179.067 0 004.457-6.89c1.531-2.431 2.477-4.412 2.837-5.943.18-.901.27-1.396.27-1.486 0-1.081-.495-1.621-1.486-1.621-.18 0-.315.045-.405.135h-.27c-.991.18-2.071.585-3.242 1.215-1.171.54-2.161 1.081-2.972 1.621-.54.18-.765.27-.675.27-.36 0-.541-.18-.541-.54 0-.27.226-.54.676-.81a39.66 39.66 0 013.377-1.756c1.261-.54 2.386-.946 3.377-1.216a9.361 9.361 0 012.702-.405c.72 0 1.486.18 2.296.54 1.081.72 1.621 1.576 1.621 2.567 0 .36-.225 1.08-.675 2.161a58.487 58.487 0 01-2.162 3.918 84.775 84.775 0 01-2.296 3.782l-2.161 3.782a33.508 33.508 0 00-1.892 3.512c-.36.81-.54 1.621-.54 2.432 0 .72.27 1.08.811 1.08.54 0 1.305-.36 2.296-1.08a31.298 31.298 0 004.863-4.188 230.686 230.686 0 004.593-4.728 45.91 45.91 0 002.702-3.512 77.683 77.683 0 012.701-3.917l1.892-2.702c.63-.99 1.26-1.801 1.891-2.431.27-.27.495-.54.675-.811.27-.27.631-.405 1.081-.405h1.08c.631 0 1.036.225 1.216.675 0 .36-.225.766-.675 1.216a601.408 601.408 0 01-5.404 7.97c-1.711 2.611-3.106 4.953-4.187 7.024a63.542 63.542 0 00-3.918 10.132c-.09.45-.18.855-.27 1.215v.676c0 1.53.766 2.296 2.297 2.296.18 0 .72-.09 1.621-.27 3.242-.9 6.169-2.296 8.78-4.188 2.612-1.89 5.404-4.187 8.375-6.889a.92.92 0 01.676-.27c.36 0 .54.135.54.405zm83.417-8.105c-2.522 3.062-5.403 6.124-8.645 9.186-3.242 3.062-7.295 5.403-12.158 7.024a14.29 14.29 0 01-3.512.676c-1.171.09-2.252 0-3.242-.27-1.891-.54-2.972-1.486-3.242-2.837-.18-1.351.315-2.972 1.486-4.863a112.057 112.057 0 004.052-6.755c1.351-2.521 2.477-4.953 3.377-7.294.631-1.531.721-2.567.27-3.107-.36-.63-1.26-.45-2.701.54-2.342 1.531-4.728 3.648-7.16 6.35-2.341 2.611-4.548 5.493-6.619 8.645a97.973 97.973 0 00-1.756 3.917c-.45 1.08-.946 1.981-1.486 2.702-.99 1.53-2.026 2.026-3.107 1.486-.45-.18-.675-.54-.675-1.08.09-.541.36-1.082.81-1.622 2.432-3.242 4.458-6.529 6.079-9.861 1.711-3.332 2.702-6.304 2.972-8.916.18-1.08-.09-1.8-.811-2.161-.63-.36-1.576-.045-2.836.946-1.171.99-2.387 2.161-3.648 3.512a55.456 55.456 0 00-3.377 4.323 94.158 94.158 0 00-5.133 8.375c-1.531 2.882-3.062 5.493-4.593 7.835-.36.63-.81 1.035-1.351 1.215-.54.27-1.035.136-1.486-.405-.63-.72-.9-1.44-.81-2.161.09-.81.54-1.891 1.351-3.242a58.89 58.89 0 002.701-4.863 71.326 71.326 0 002.432-5.404c.72-1.8 1.396-3.512 2.026-5.133.631-1.71 1.126-3.197 1.486-4.458.18-.72.405-1.666.676-2.836.36-1.171.72-1.847 1.08-2.027.451-.18.901-.315 1.351-.405.54-.09.946-.225 1.216-.405.72-.27 1.216-.135 1.486.405.27.45.18 1.306-.27 2.567-.181.54-.451 1.305-.811 2.296-.36.9-.765 1.936-1.216 3.107-.45 1.08-.9 2.206-1.351 3.377-.45 1.17-.855 2.206-1.215 3.107 2.161-3.062 4.187-5.628 6.079-7.7 1.981-2.071 3.557-3.377 4.727-3.917 1.261-.63 2.297-.676 3.107-.135.901.45 1.261 1.576 1.081 3.377-.27 2.882-1.126 5.899-2.566 9.05a84.821 84.821 0 016.484-7.294c2.251-2.252 4.637-4.143 7.159-5.674 1.441-.9 2.837-1.396 4.188-1.486 1.531-.18 2.386.18 2.566 1.081.18.9-.09 2.026-.81 3.377-2.162 4.053-4.008 7.655-5.539 10.807-1.531 3.062-2.566 5.719-3.107 7.97-.45 1.801-.27 3.062.541 3.782.81.63 2.071.676 3.782.136 4.593-1.441 8.465-3.603 11.617-6.485 3.152-2.971 5.899-5.988 8.24-9.05.361-.45.676-.54.946-.27.27.18.225.495-.135.945zm28.914 14.454c-2.341 1.441-4.457 2.432-6.349 2.972-1.801.63-3.152.675-4.052.135-.811-.45-1.081-1.486-.811-3.107.361-1.71 1.486-4.052 3.378-7.024.18-.36.405-.72.675-1.08.27-.361.495-.766.675-1.217l-2.971 1.351-2.972 1.08c-.901.271-1.801.451-2.702.541-.811 0-1.306-.225-1.486-.675l-.54-.54c-.18-.18-.316-.27-.406-.27-.72 1.53-1.981 3.151-3.782 4.862-1.261 1.261-2.792 2.432-4.593 3.513a32.385 32.385 0 01-5.268 2.701c-1.801.54-3.152.496-4.053-.135-.99-.9-1.305-2.071-.945-3.512.45-2.251 1.351-4.728 2.701-7.43 1.441-2.791 2.927-5.358 4.458-7.7.451-.63.766-1.125.946-1.485.27-.45.63-.991 1.081-1.621.72-1.531 1.08-2.927 1.08-4.188 0-1.26-.585-1.711-1.756-1.35-1.261.36-2.476.765-3.647 1.215-1.171.36-2.477.765-3.918 1.216-.45.18-.765.09-.945-.27-.18-.45.09-.766.81-.946a102.8 102.8 0 006.349-1.756c2.342-.72 4.413-1.396 6.214-2.027 1.621-.54 2.792-.54 3.512 0 .811.45.541 1.576-.81 3.378l-.541 1.08c-.27.45-.585.946-.945 1.486s-.676 1.036-.946 1.486c-.27.45-.45.72-.54.81-.991 1.622-2.071 3.558-3.242 5.81a165.487 165.487 0 00-2.837 5.673c-.45 1.08-.765 2.296-.945 3.647-.181 1.26-.09 2.297.27 3.107.18.45.495.675.945.675.541 0 1.081-.09 1.621-.27a18.381 18.381 0 003.648-2.431 16.719 16.719 0 002.971-3.242c.451-.63.856-1.351 1.216-2.162.451-.81.766-1.44.946-1.89v-.136c.09-.09.135-.18.135-.27v-.135a1.2 1.2 0 00-.135-.54 19.107 19.107 0 01-.676-5.134c0-.63.316-.9.946-.81h.946c.45 0 .72-.045.81-.135.18-.18.36-.18.54 0 .271.18.406.45.406.81a24.66 24.66 0 000 3.648c.18 1.17.495 2.116.945 2.836.361.72.946 1.171 1.756 1.351.901.18 1.802.09 2.702-.27a75.207 75.207 0 004.188-1.756l2.296-3.782a191.016 191.016 0 001.891-3.378l1.486-2.971c.36-.63.721-1.351 1.081-2.162.36-.81.765-1.71 1.216-2.701.9-.901 2.026-1.216 3.377-.946 1.441.27 1.486 1.306.135 3.107a124.677 124.677 0 00-6.079 9.186c-1.891 3.152-3.332 5.853-4.323 8.105-1.35 2.971-1.801 4.863-1.35 5.673.45.81 1.395.946 2.836.406 1.531-.63 3.332-1.712 5.404-3.243a113.352 113.352 0 006.349-5.133 183.22 183.22 0 005.538-4.998c1.621-1.62 2.657-2.747 3.107-3.377.45-.63.811-.766 1.081-.405.27.27.135.675-.405 1.215-2.342 2.342-5.179 4.999-8.511 7.97-3.242 2.882-6.304 5.404-9.186 7.565zm76.774-35.122c.36 1.621.225 3.107-.405 4.458-2.342 4.053-5.179 8.24-8.511 12.563a748.31 748.31 0 01-9.726 12.428 1200.547 1200.547 0 00-15.129 18.506c-4.593 5.854-8.646 11.482-12.158 16.886a176.683 176.683 0 00-4.998 8.105 82.419 82.419 0 00-4.188 8.51c-1.26 2.882-2.251 5.674-2.972 8.376-.81 2.791-1.215 5.448-1.215 7.969-.09 3.783.81 6.53 2.701 8.241 1.892 1.711 4.728 2.656 8.511 2.836 1.891.09 4.052-.135 6.484-.675a95.53 95.53 0 007.565-2.026 801.515 801.515 0 007.699-2.432c2.522-.81 4.773-1.441 6.755-1.891 2.881-.72 5.223-.991 7.024-.811 1.801.181 3.107 1.081 3.917 2.702.271.541.271 1.261 0 2.162-.27.9-.495 1.576-.675 2.026-.27.63-.54.9-.81.81-.271 0-.316-.315-.136-.945a5.025 5.025 0 00.136-2.027c0-.72-.271-1.17-.811-1.35-.991-.361-2.206-.496-3.647-.406-1.351.18-2.927.406-4.728.676-1.531.27-3.242.63-5.133 1.08-1.892.451-3.873.946-5.944 1.486a129.9 129.9 0 01-6.349 1.486 96.952 96.952 0 01-6.079 1.081c-7.835.991-13.959-.135-18.371-3.377-2.342-1.621-3.648-3.828-3.918-6.619-.27-2.792.27-5.764 1.621-8.916 1.621-3.782 3.828-7.925 6.619-12.428a248.413 248.413 0 018.916-13.508 299.389 299.389 0 019.726-13.373 495.422 495.422 0 019.321-11.753l1.351-1.62 1.35-1.622c-.54.36-1.125.676-1.756.946-.54.18-1.125.36-1.756.54-1.17.36-2.116.27-2.837-.27-.63-.54-.81-1.396-.54-2.567.18-.99.45-2.206.811-3.647.45-1.44.9-2.657 1.35-3.647a92.57 92.57 0 002.432-7.565c.811-2.612 1.351-4.818 1.621-6.62.27-1.98-.901-2.61-3.512-1.89-2.162.54-4.233 1.486-6.214 2.837-.45.18-.811.135-1.081-.136-.18-.36 0-.675.541-.945 1.891-.99 4.187-1.982 6.889-2.972s5.133-1.711 7.294-2.161c1.261-.27 2.027 0 2.297.81.27.72.135 1.756-.405 3.107a594.855 594.855 0 01-2.702 6.484c-.901 2.341-1.621 4.413-2.161 6.214l-1.351 4.323c-.36 1.44-.496 2.656-.405 3.647 0 .9.36 1.44 1.08 1.621.721.09 1.441-.135 2.162-.675.09-.09.225-.136.405-.136 5.763-7.294 10.446-13.823 14.049-19.587 3.692-5.854 5.763-10.942 6.213-15.264.271-2.792-.495-5.134-2.296-7.025-.36-.36-.45-.675-.27-.945.27-.27.63-.18 1.081.27 1.08 1.26 2.071 2.702 2.971 4.323.991 1.53 1.757 2.971 2.297 4.322zm26.891 26.882c0 .27-.135.54-.405.81-1.351 1.261-3.197 2.792-5.539 4.593-2.341 1.712-4.953 3.378-7.834 4.999-3.423 1.89-6.349 2.836-8.781 2.836-4.413 0-6.619-2.161-6.619-6.484 0-2.161.585-4.367 1.756-6.619 1.351-2.972 2.747-5.358 4.188-7.16 1.441-1.89 2.972-3.421 4.593-4.592a27.064 27.064 0 015.403-3.107c1.981-.81 4.188-1.621 6.619-2.432.54-.18.856-.27.946-.27.9 0 1.621.36 2.161 1.08.54.721.811 1.352.811 1.892 0 .36-.136.81-.406 1.35-.18.451-.45.992-.81 1.622-.36.63-.766.946-1.216.946-.27 0-.63-.36-1.081-1.081-.45-.9-.99-1.621-1.621-2.162-.54-.63-1.26-.945-2.161-.945-1.171 0-2.342.45-3.512 1.35-1.801 1.262-3.512 3.063-5.133 5.404-1.531 2.341-2.972 5.133-4.323 8.375-.991 2.702-1.486 4.863-1.486 6.484 0 2.882 1.351 4.323 4.052 4.323 2.162 0 4.863-.945 8.106-2.837 1.801-1.08 3.827-2.431 6.078-4.052 2.252-1.621 4.053-3.062 5.404-4.323.18-.18.36-.27.54-.27.18 0 .27.09.27.27zm60.418-6.214c-2.522 3.062-5.404 6.124-8.646 9.186-3.242 3.062-7.294 5.403-12.157 7.024-1.081.36-2.252.586-3.512.676-1.171.09-2.252 0-3.242-.27-1.892-.54-2.972-1.486-3.242-2.837-.181-1.351.315-2.972 1.485-4.863a111.533 111.533 0 004.053-6.755c1.351-2.521 2.477-4.953 3.377-7.294.631-1.531.721-2.567.27-3.107-.36-.63-1.26-.45-2.701.54-2.342 1.531-4.728 3.648-7.16 6.35-2.341 2.611-4.548 5.493-6.619 8.645a97.973 97.973 0 00-1.756 3.917c-.45 1.08-.946 1.981-1.486 2.702-.991 1.53-2.026 2.026-3.107 1.486-.45-.18-.675-.54-.675-1.08.09-.541.36-1.082.81-1.622 2.432-3.242 4.458-6.529 6.079-9.861 1.711-3.332 2.702-6.304 2.972-8.916.18-1.08-.09-1.8-.811-2.161-.63-.36-1.576-.045-2.837.946-1.17.99-2.386 2.161-3.647 3.512a55.216 55.216 0 00-3.377 4.323 94.158 94.158 0 00-5.133 8.375c-1.531 2.882-3.062 5.493-4.593 7.835-.36.63-.811 1.035-1.351 1.215-.54.27-1.036.136-1.486-.405-.63-.72-.9-1.44-.81-2.161.09-.81.54-1.891 1.351-3.242a58.89 58.89 0 002.701-4.863 71.326 71.326 0 002.432-5.404c.72-1.8 1.396-3.512 2.026-5.133.63-1.71 1.126-3.197 1.486-4.458.18-.72.405-1.666.675-2.836.361-1.171.721-1.847 1.081-2.027.45-.18.901-.315 1.351-.405.54-.09.945-.225 1.216-.405.72-.27 1.215-.135 1.486.405.27.45.18 1.306-.271 2.567-.18.54-.45 1.305-.81 2.296-.36.9-.766 1.936-1.216 3.107-.45 1.08-.9 2.206-1.351 3.377-.45 1.17-.855 2.206-1.215 3.107 2.161-3.062 4.187-5.628 6.078-7.7 1.982-2.071 3.558-3.377 4.728-3.917 1.261-.63 2.297-.676 3.107-.135.901.45 1.261 1.576 1.081 3.377-.27 2.882-1.126 5.899-2.567 9.05a85.16 85.16 0 016.484-7.294c2.252-2.252 4.638-4.143 7.16-5.674 1.441-.9 2.837-1.396 4.187-1.486 1.531-.18 2.387.18 2.567 1.081.18.9-.09 2.026-.81 3.377-2.162 4.053-4.008 7.655-5.539 10.807-1.531 3.062-2.566 5.719-3.107 7.97-.45 1.801-.27 3.062.541 3.782.81.63 2.071.676 3.782.136 4.593-1.441 8.465-3.603 11.617-6.485 3.152-2.971 5.899-5.988 8.24-9.05.361-.45.676-.54.946-.27.27.18.225.495-.135.945zm36.074.81a153.255 153.255 0 01-4.188 5.134 61.18 61.18 0 01-4.728 4.998 78.851 78.851 0 01-5.268 4.323c-1.711 1.35-3.422 2.476-5.133 3.377-5.404 2.792-8.871 3.287-10.402 1.486-1.441-1.711-1.261-5.449.54-11.212a54.558 54.558 0 011.621-4.458 60.912 60.912 0 012.297-5.133 145.52 145.52 0 01-7.295 9.05c-2.431 2.792-4.953 4.953-7.564 6.484-2.612 1.622-4.458 1.847-5.539.676-.99-1.26-.765-3.242.676-5.944 1.801-3.242 4.052-6.214 6.754-8.915 2.701-2.792 5.358-5.089 7.97-6.89a26.078 26.078 0 014.322-2.566c1.531-.72 3.062-1.081 4.593-1.081a37.365 37.365 0 012.027-3.782 36.753 36.753 0 012.161-3.377c.27-.36.585-.54.946-.54.45 0 .675.27.675.81 0 .36.045.675.135.945l.27.54.27.541c.271.54.271.99 0 1.35-2.881 4.594-5.133 8.781-6.754 12.564a56.217 56.217 0 00-3.647 11.617c-.63 3.062-.36 5.133.81 6.214 1.261 1.08 3.287.99 6.079-.27 1.441-.63 2.972-1.531 4.593-2.702a66.214 66.214 0 004.728-4.053 110.6 110.6 0 004.458-4.727 56.042 56.042 0 003.782-4.999c.27-.45.541-.54.811-.27.27.18.27.45 0 .81zm-22.019-9.32c-1.261 0-2.657.405-4.188 1.216-1.441.72-2.881 1.71-4.322 2.972-.721.54-1.531 1.305-2.432 2.296a37.09 37.09 0 00-2.702 3.377 49.908 49.908 0 00-2.296 3.647c-.721 1.261-1.261 2.477-1.621 3.648-.63 1.8-.63 2.926 0 3.377.63.36 1.621-.09 2.972-1.351 2.521-2.342 5.043-5.088 7.565-8.24 2.611-3.242 4.953-6.89 7.024-10.942zm35.467 14.454c-5.583 5.043-9.771 8.555-12.563 10.537-1.081.9-2.116 1.485-3.107 1.756-.99.36-1.891.54-2.701.54h-.406c-.99-.09-1.846-.45-2.566-1.08-.721-.631-1.081-1.532-1.081-2.702v-.136c.18-1.8 1.351-2.926 3.512-3.377 1.441.18 1.936 1.576 1.486 4.188 0 .9.315 1.35.946 1.35.72 0 1.666-.45 2.836-1.35.991-.72 2.072-1.531 3.243-2.431 1.26-.991 2.566-2.072 3.917-3.243a388.71 388.71 0 003.782-3.106 59.435 59.435 0 012.972-2.567l2.432-2.432c1.17-1.35 2.161-2.611 2.972-3.782a77.728 77.728 0 012.701-3.918l1.891-2.701c.631-.99 1.261-1.801 1.892-2.432.27-.27.495-.54.675-.81.27-.27.63-.405 1.081-.405h1.08c.631 0 1.036.225 1.216.675 0 .36-.225.765-.675 1.216a601.408 601.408 0 01-5.404 7.97c-1.711 2.611-3.107 4.953-4.187 7.024a63.54 63.54 0 00-3.918 10.132c-.09.45-.18.855-.27 1.215v.676c0 1.53.766 2.296 2.297 2.296.18 0 .72-.09 1.621-.27 3.242-.9 6.168-2.296 8.78-4.188 2.612-1.89 5.403-4.187 8.375-6.889.18-.18.406-.27.676-.27.36 0 .54.135.54.405s-.135.54-.405.81c-3.152 2.792-6.034 5.134-8.646 7.025-2.611 1.891-5.223 3.287-7.834 4.188-2.432.81-4.458 1.215-6.079 1.215-2.792 0-4.188-1.17-4.188-3.512 0-.99.225-1.981.676-2.972.45-1.08.9-2.026 1.35-2.837a47.534 47.534 0 001.892-3.647c.63-1.17 1.125-2.116 1.485-2.837v-.27c.091-.09.136-.18.136-.27 0-.18-.09-.27-.271-.27-.18 0-.9.495-2.161 1.486zM543.7 31.52a151.932 151.932 0 01-4.187 5.133 61.18 61.18 0 01-4.728 4.998 78.614 78.614 0 01-5.269 4.323c-1.711 1.35-3.422 2.476-5.133 3.377-5.403 2.792-8.87 3.287-10.401 1.486-1.441-1.711-1.261-5.449.54-11.212.45-1.441.991-2.927 1.621-4.458a60.887 60.887 0 012.296-5.133 145.143 145.143 0 01-7.294 9.05c-2.432 2.792-4.953 4.953-7.565 6.484-2.611 1.622-4.458 1.847-5.538.676-.991-1.26-.766-3.242.675-5.944 1.801-3.242 4.053-6.214 6.754-8.915 2.702-2.792 5.359-5.089 7.97-6.89a26.046 26.046 0 014.323-2.566c1.531-.72 3.062-1.081 4.593-1.081a37.362 37.362 0 012.026-3.782 36.75 36.75 0 012.162-3.377c.27-.36.585-.54.945-.54.45 0 .676.27.676.81 0 .36.045.675.135.945l.27.54.27.541c.27.54.27.99 0 1.35-2.882 4.594-5.133 8.781-6.754 12.564a56.28 56.28 0 00-3.648 11.617c-.63 3.062-.36 5.133.811 6.214 1.261 1.08 3.287.99 6.079-.27 1.441-.63 2.972-1.531 4.593-2.702a66.214 66.214 0 004.728-4.053 109.95 109.95 0 004.457-4.727 56.254 56.254 0 003.783-4.999c.27-.45.54-.54.81-.27.27.18.27.45 0 .81zm-22.018-9.321c-1.261 0-2.657.405-4.188 1.216-1.441.72-2.882 1.71-4.323 2.972-.72.54-1.531 1.305-2.431 2.296a36.92 36.92 0 00-2.702 3.377 49.57 49.57 0 00-2.296 3.647c-.721 1.261-1.261 2.477-1.621 3.648-.631 1.8-.631 2.926 0 3.377.63.36 1.621-.09 2.971-1.351 2.522-2.342 5.044-5.088 7.565-8.24 2.612-3.242 4.953-6.89 7.025-10.942z" fill="#FCFCFC"/></svg>