<svg width="545" height="122" viewBox="0 0 545 122" fill="none" xmlns="http://www.w3.org/2000/svg">
<path d="M38.4164 33.8161C36.8855 36.3377 35.0844 38.5441 33.0131 40.4353C30.9418 42.2364 28.7354 43.8124 26.3939 45.1632C24.1425 46.424 21.8911 47.4597 19.6397 48.2702C17.3883 49.0807 15.317 49.666 13.4258 50.0263C8.92297 51.0169 5.63591 50.6567 3.56461 48.9456C1.49332 47.3246 0.727838 44.9381 1.26818 41.7861C1.44829 40.3452 2.03366 38.6341 3.02428 36.6529C4.10495 34.5816 5.4558 32.5553 7.07681 30.5741C8.69783 28.5928 10.499 26.7467 12.4802 25.0356C14.4614 23.2345 16.4427 21.7936 18.4239 20.7129C20.5853 19.6322 22.3864 19.227 23.8273 19.4972C25.3583 19.6773 26.1237 20.4427 26.1237 21.7936C26.1237 22.7842 25.7185 23.8649 24.908 25.0356C22.9267 28.0075 20.225 30.7542 16.8029 33.2758C13.4708 35.7073 10.0937 37.9587 6.67156 40.03C5.95111 43.0019 6.62653 45.1632 8.69783 46.5141C10.0487 47.5047 11.8948 48 14.2363 48C16.5778 47.9099 19.0993 47.3246 21.801 46.2439C24.5928 45.1632 27.3845 43.5422 30.1763 41.3809C33.0581 39.1294 35.6247 36.3377 37.8761 33.0056C38.2363 32.5553 38.4615 32.5103 38.5515 32.8705C38.6416 33.1407 38.5966 33.4559 38.4164 33.8161ZM22.3414 24.2251C23.332 22.6041 23.422 21.5234 22.6115 20.9831C21.8911 20.3527 20.7204 20.5328 19.0993 21.5234C16.5778 23.1444 14.1462 25.5309 11.8048 28.6829C9.46331 31.8349 7.79727 35.1219 6.80665 38.5441C13.831 34.6717 19.0093 29.8987 22.3414 24.2251ZM62.5343 36.9231C62.5343 37.1932 62.3992 37.4634 62.1291 37.7336C60.7782 38.9944 58.9321 40.5253 56.5906 42.3264C54.2491 44.0375 51.6375 45.7036 48.7557 47.3246C45.3335 49.2158 42.4067 50.1614 39.9752 50.1614C35.5624 50.1614 33.356 48 33.356 43.6773C33.356 41.5159 33.9414 39.3096 35.1121 37.0581C36.463 34.0863 37.8589 31.6998 39.2998 29.8987C40.7407 28.0075 42.2716 26.4765 43.8926 25.3058C45.6037 24.045 47.4048 23.0094 49.296 22.1988C51.2773 21.3883 53.4836 20.5778 55.9152 19.7673C56.4555 19.5872 56.7707 19.4972 56.8608 19.4972C57.7613 19.4972 58.4818 19.8574 59.0221 20.5778C59.5625 21.2983 59.8326 21.9287 59.8326 22.469C59.8326 22.8292 59.6975 23.2795 59.4274 23.8199C59.2473 24.2701 58.9771 24.8105 58.6169 25.4409C58.2566 26.0713 57.8514 26.3865 57.4011 26.3865C57.1309 26.3865 56.7707 26.0262 56.3204 25.3058C55.8701 24.4052 55.3298 23.6848 54.6994 23.1444C54.1591 22.514 53.4386 22.1988 52.5381 22.1988C51.3673 22.1988 50.1966 22.6491 49.0259 23.5497C47.2247 24.8105 45.5137 26.6116 43.8926 28.9531C42.3617 31.2945 40.9208 34.0863 39.5699 37.3283C38.5793 40.03 38.084 42.1914 38.084 43.8124C38.084 46.6942 39.4348 48.1351 42.1365 48.1351C44.2979 48.1351 46.9996 47.1895 50.2416 45.2983C52.0427 44.2176 54.069 42.8668 56.3204 41.2458C58.5718 39.6248 60.373 38.1839 61.7238 36.9231C61.9039 36.743 62.084 36.6529 62.2641 36.6529C62.4443 36.6529 62.5343 36.743 62.5343 36.9231ZM85.8037 36.6529C80.2202 41.6961 76.0326 45.2083 73.2408 47.1895C72.1601 48.0901 71.1245 48.6754 70.1339 48.9456C69.1433 49.3058 68.2427 49.4859 67.4322 49.4859H67.0269C66.0363 49.3959 65.1808 49.0356 64.4603 48.4053C63.7399 47.7749 63.3796 46.8743 63.3796 45.7036V45.5685C63.5598 43.7673 64.7305 42.6416 66.8918 42.1914C68.3327 42.3715 68.8281 43.7673 68.3778 46.379C68.3778 47.2795 68.693 47.7298 69.3234 47.7298C70.0438 47.7298 70.9894 47.2795 72.1601 46.379C73.1508 45.6585 74.2314 44.848 75.4022 43.9475C76.663 42.9568 77.9688 41.8762 79.3196 40.7054C80.7605 39.5347 82.0213 38.4991 83.102 37.5985C84.1827 36.6079 85.1733 35.7523 86.0739 35.0319L88.5054 32.6004C89.6761 31.2495 90.6667 29.9887 91.4772 28.818C92.2877 27.5572 93.1883 26.2514 94.1789 24.9005C94.8093 24 95.4397 23.0994 96.0701 22.1988C96.7005 21.2082 97.3309 20.3977 97.9613 19.7673C98.2315 19.4972 98.4566 19.227 98.6367 18.9568C98.9069 18.6866 99.2671 18.5516 99.7174 18.5516H100.798C101.428 18.5516 101.834 18.7767 102.014 19.227C102.014 19.5872 101.789 19.9925 101.338 20.4427C99.5373 23.1444 97.7362 25.8011 95.935 28.4127C94.224 31.0244 92.8281 33.3658 91.7474 35.4371C90.1264 38.7692 88.8206 42.1463 87.83 45.5685C87.7399 46.0188 87.6498 46.424 87.5598 46.7842C87.5598 47.0544 87.5598 47.2795 87.5598 47.4597C87.5598 48.9906 88.3253 49.7561 89.8562 49.7561C90.0363 49.7561 90.5767 49.666 91.4772 49.4859C94.7193 48.5854 97.6461 47.1895 100.258 45.2983C102.869 43.4071 105.661 41.1107 108.633 38.409C108.813 38.2289 109.038 38.1388 109.308 38.1388C109.669 38.1388 109.849 38.2739 109.849 38.5441C109.849 38.8142 109.714 39.0844 109.443 39.3546C106.292 42.1463 103.41 44.4878 100.798 46.379C98.1864 48.2702 95.5748 49.666 92.9632 50.5666C90.5316 51.3771 88.5054 51.7824 86.8844 51.7824C84.0926 51.7824 82.6967 50.6116 82.6967 48.2702C82.6967 47.2795 82.9219 46.2889 83.3722 45.2983C83.8224 44.2176 84.2727 43.272 84.723 42.4615C85.4435 41.2007 86.0739 39.985 86.6142 38.8142C87.2446 37.6435 87.7399 36.6979 88.1001 35.9775C88.1001 35.7974 88.1001 35.7073 88.1001 35.7073C88.1902 35.6172 88.2352 35.5272 88.2352 35.4371C88.2352 35.257 88.1452 35.167 87.965 35.167C87.7849 35.167 87.0645 35.6623 85.8037 36.6529ZM149.555 38.8142C149.555 39.0844 149.42 39.3546 149.15 39.6248C145.998 42.4165 143.116 44.758 140.504 46.6492C137.893 48.5403 135.281 49.9362 132.67 50.8368C130.238 51.6473 128.212 52.0525 126.591 52.0525C123.799 52.0525 122.403 50.8818 122.403 48.5403C122.403 47.5497 122.628 46.5591 123.079 45.5685C123.529 44.4878 123.979 43.5422 124.429 42.7317C125.15 41.4709 125.78 40.2552 126.321 39.0844C126.951 37.9137 127.446 36.9681 127.807 36.2476C127.807 36.0675 127.807 35.9775 127.807 35.9775C127.897 35.8874 127.942 35.7974 127.942 35.7073C127.942 35.5272 127.852 35.4371 127.671 35.4371C127.491 35.4371 127.311 35.5272 127.131 35.7073C124.79 38.1388 122.403 40.3002 119.972 42.1914C119.071 42.9118 118.216 43.4071 117.405 43.6773C116.595 43.9475 115.829 44.0825 115.109 44.0825H114.838C113.938 43.9925 113.172 43.7223 112.542 43.272C112.002 42.7317 111.731 41.9662 111.731 40.9756V40.8405C111.822 39.4897 112.452 37.9587 113.623 36.2476C115.154 33.9962 116.64 31.6998 118.08 29.3583C119.611 26.9268 120.557 24.9456 120.917 23.4146C121.097 22.514 121.187 22.0187 121.187 21.9287C121.187 20.848 120.692 20.3077 119.701 20.3077C119.521 20.3077 119.386 20.3527 119.296 20.4427C119.296 20.4427 119.206 20.4427 119.026 20.4427C118.035 20.6229 116.955 21.0281 115.784 21.6585C114.613 22.1988 113.623 22.7392 112.812 23.2795C112.272 23.4596 112.047 23.5497 112.137 23.5497C111.777 23.5497 111.596 23.3696 111.596 23.0094C111.596 22.7392 111.822 22.469 112.272 22.1988C113.352 21.5684 114.478 20.9831 115.649 20.4427C116.91 19.9024 118.035 19.4972 119.026 19.227C119.927 18.9568 120.827 18.8217 121.728 18.8217C122.448 18.8217 123.214 19.0018 124.024 19.3621C125.105 20.0825 125.645 20.9381 125.645 21.9287C125.645 22.2889 125.42 23.0094 124.97 24.09C124.339 25.3508 123.619 26.6566 122.808 28.0075C122.088 29.2683 121.322 30.5291 120.512 31.7898C119.792 33.0506 119.071 34.3114 118.351 35.5722C117.63 36.743 117 37.9137 116.459 39.0844C116.099 39.8949 115.919 40.7054 115.919 41.5159C115.919 42.2364 116.189 42.5966 116.73 42.5966C117.27 42.5966 118.035 42.2364 119.026 41.5159C120.827 40.2552 122.448 38.8593 123.889 37.3283C125.42 35.7974 126.951 34.2214 128.482 32.6004C129.473 31.4296 130.373 30.2589 131.184 29.0882C131.994 27.8274 132.895 26.5215 133.885 25.1707C134.516 24.2701 135.146 23.3696 135.777 22.469C136.407 21.4784 137.037 20.6679 137.668 20.0375C137.938 19.7673 138.163 19.4972 138.343 19.227C138.613 18.9568 138.974 18.8217 139.424 18.8217H140.504C141.135 18.8217 141.54 19.0469 141.72 19.4972C141.72 19.8574 141.495 20.2626 141.045 20.7129C139.244 23.4146 137.443 26.0713 135.641 28.6829C133.93 31.2945 132.535 33.636 131.454 35.7073C129.833 39.0394 128.527 42.4165 127.536 45.8386C127.446 46.2889 127.356 46.6942 127.266 47.0544C127.266 47.3246 127.266 47.5497 127.266 47.7298C127.266 49.2608 128.032 50.0263 129.563 50.0263C129.743 50.0263 130.283 49.9362 131.184 49.7561C134.426 48.8555 137.353 47.4597 139.964 45.5685C142.576 43.6773 145.368 41.3809 148.339 38.6792C148.52 38.4991 148.745 38.409 149.015 38.409C149.375 38.409 149.555 38.5441 149.555 38.8142ZM232.972 30.7092C230.45 33.7711 227.569 36.833 224.327 39.8949C221.085 42.9568 217.032 45.2983 212.169 46.9193C211.088 47.2795 209.918 47.5047 208.657 47.5947C207.486 47.6848 206.405 47.5947 205.415 47.3246C203.524 46.7842 202.443 45.8386 202.173 44.4878C201.993 43.137 202.488 41.5159 203.659 39.6248C205.009 37.5535 206.36 35.302 207.711 32.8705C209.062 30.3489 210.188 27.9174 211.088 25.576C211.719 24.045 211.809 23.0094 211.358 22.469C210.998 21.8386 210.098 22.0187 208.657 23.0094C206.315 24.5403 203.929 26.6566 201.497 29.3583C199.156 31.97 196.949 34.8518 194.878 38.0037C194.158 39.5347 193.572 40.8405 193.122 41.9212C192.672 43.0019 192.176 43.9024 191.636 44.6229C190.646 46.1538 189.61 46.6492 188.529 46.1088C188.079 45.9287 187.854 45.5685 187.854 45.0281C187.944 44.4878 188.214 43.9475 188.664 43.4071C191.096 40.1651 193.122 36.878 194.743 33.5459C196.454 30.2139 197.445 27.242 197.715 24.6304C197.895 23.5497 197.625 22.8292 196.904 22.469C196.274 22.1088 195.328 22.424 194.068 23.4146C192.897 24.4052 191.681 25.576 190.42 26.9268C189.25 28.2777 188.124 29.7186 187.043 31.2495C185.242 33.8611 183.531 36.6529 181.91 39.6248C180.379 42.5066 178.848 45.1182 177.317 47.4597C176.957 48.0901 176.507 48.4953 175.966 48.6754C175.426 48.9456 174.931 48.8105 174.48 48.2702C173.85 47.5497 173.58 46.8293 173.67 46.1088C173.76 45.2983 174.21 44.2176 175.021 42.8668C175.921 41.4259 176.822 39.8049 177.722 38.0037C178.623 36.2026 179.433 34.4015 180.154 32.6004C180.874 30.7992 181.55 29.0882 182.18 27.4671C182.811 25.7561 183.306 24.2701 183.666 23.0094C183.846 22.2889 184.071 21.3433 184.342 20.1726C184.702 19.0018 185.062 18.3264 185.422 18.1463C185.873 17.9662 186.323 17.8311 186.773 17.7411C187.313 17.651 187.719 17.5159 187.989 17.3358C188.709 17.0656 189.205 17.2007 189.475 17.7411C189.745 18.1913 189.655 19.0469 189.205 20.3077C189.024 20.848 188.754 21.6135 188.394 22.6041C188.034 23.5047 187.629 24.5403 187.178 25.711C186.728 26.7917 186.278 27.9174 185.827 29.0882C185.377 30.2589 184.972 31.2945 184.612 32.1951C186.773 29.1332 188.799 26.5666 190.691 24.4953C192.672 22.424 194.248 21.1182 195.418 20.5778C196.679 19.9474 197.715 19.9024 198.525 20.4427C199.426 20.893 199.786 22.0187 199.606 23.8199C199.336 26.7017 198.48 29.7186 197.04 32.8705C199.111 30.2589 201.272 27.8274 203.524 25.576C205.775 23.3245 208.161 21.4334 210.683 19.9024C212.124 19.0018 213.52 18.5065 214.871 18.4165C216.402 18.2364 217.257 18.5966 217.437 19.4972C217.617 20.3977 217.347 21.5234 216.627 22.8743C214.465 26.9268 212.619 30.5291 211.088 33.681C209.557 36.743 208.522 39.3996 207.981 41.651C207.531 43.4522 207.711 44.7129 208.522 45.4334C209.332 46.0638 210.593 46.1088 212.304 45.5685C216.897 44.1276 220.769 41.9662 223.921 39.0844C227.073 36.1126 229.82 33.0957 232.161 30.0338C232.522 29.5835 232.837 29.4934 233.107 29.7636C233.377 29.9437 233.332 30.2589 232.972 30.7092ZM261.886 45.1632C259.545 46.6041 257.429 47.5947 255.537 48.1351C253.736 48.7655 252.385 48.8105 251.485 48.2702C250.674 47.8199 250.404 46.7842 250.674 45.1632C251.035 43.4522 252.16 41.1107 254.052 38.1388C254.232 37.7786 254.457 37.4184 254.727 37.0581C254.997 36.6979 255.222 36.2927 255.402 35.8424C254.412 36.2927 253.421 36.743 252.431 37.1932C251.44 37.5535 250.449 37.9137 249.459 38.2739C248.558 38.5441 247.658 38.7242 246.757 38.8142C245.946 38.8142 245.451 38.5891 245.271 38.1388L244.731 37.5985C244.551 37.4184 244.415 37.3283 244.325 37.3283C243.605 38.8593 242.344 40.4803 240.543 42.1914C239.282 43.4522 237.751 44.6229 235.95 45.7036C234.239 46.7842 232.483 47.6848 230.682 48.4053C228.881 48.9456 227.53 48.9006 226.629 48.2702C225.639 47.3696 225.324 46.1989 225.684 44.758C226.134 42.5066 227.035 40.03 228.385 37.3283C229.826 34.5366 231.312 31.97 232.843 29.6285C233.294 28.9981 233.609 28.5028 233.789 28.1426C234.059 27.6923 234.419 27.1519 234.87 26.5216C235.59 24.9906 235.95 23.5947 235.95 22.3339C235.95 21.0731 235.365 20.6229 234.194 20.9831C232.933 21.3433 231.718 21.7486 230.547 22.1988C229.376 22.5591 228.07 22.9643 226.629 23.4146C226.179 23.5947 225.864 23.5047 225.684 23.1444C225.504 22.6942 225.774 22.379 226.494 22.1988C228.385 21.7486 230.502 21.1632 232.843 20.4427C235.185 19.7223 237.256 19.0469 239.057 18.4165C240.678 17.8761 241.849 17.8761 242.569 18.4165C243.38 18.8668 243.11 19.9925 241.759 21.7936C241.669 21.9737 241.489 22.3339 241.218 22.8743C240.948 23.3245 240.633 23.8199 240.273 24.3602C239.913 24.9005 239.597 25.3958 239.327 25.8461C239.057 26.2964 238.877 26.5666 238.787 26.6566C237.796 28.2777 236.716 30.2139 235.545 32.4653C234.374 34.7167 233.429 36.6079 232.708 38.1388C232.258 39.2195 231.943 40.4353 231.763 41.7861C231.582 43.0469 231.673 44.0825 232.033 44.8931C232.213 45.3433 232.528 45.5685 232.978 45.5685C233.519 45.5685 234.059 45.4784 234.599 45.2983C235.86 44.6679 237.076 43.8574 238.247 42.8668C239.417 41.8762 240.408 40.7955 241.218 39.6248C241.669 38.9944 242.074 38.2739 242.434 37.4634C242.885 36.6529 243.2 36.0225 243.38 35.5722C243.38 35.4822 243.38 35.4371 243.38 35.4371C243.47 35.3471 243.515 35.257 243.515 35.167V35.0319C243.515 34.8518 243.47 34.6717 243.38 34.4915C242.93 32.8705 242.704 31.1595 242.704 29.3583C242.704 28.7279 243.02 28.4578 243.65 28.5478H244.596C245.046 28.5478 245.316 28.5028 245.406 28.4127C245.586 28.2326 245.766 28.2326 245.946 28.4127C246.217 28.5928 246.352 28.863 246.352 29.2232C246.262 30.484 246.262 31.6998 246.352 32.8705C246.532 34.0413 246.847 34.9869 247.297 35.7073C247.658 36.4278 248.243 36.878 249.053 37.0581C249.954 37.2383 250.855 37.1482 251.755 36.788C253.376 36.1576 254.772 35.5722 255.943 35.0319L258.239 31.2495C258.96 29.9887 259.59 28.863 260.13 27.8724C260.671 26.7917 261.166 25.8011 261.616 24.9005C261.976 24.2701 262.337 23.5497 262.697 22.7392C263.057 21.9287 263.462 21.0281 263.913 20.0375C264.813 19.1369 265.939 18.8217 267.29 19.0919C268.731 19.3621 268.776 20.3977 267.425 22.1988C265.264 25.1707 263.237 28.2326 261.346 31.3846C259.455 34.5366 258.014 37.2383 257.023 39.4897C255.673 42.4615 255.222 44.3527 255.673 45.1632C256.123 45.9737 257.068 46.1088 258.509 45.5685C260.04 44.9381 261.841 43.8574 263.913 42.3264C266.074 40.7054 268.19 38.9944 270.262 37.1932C272.333 35.3921 274.179 33.7261 275.8 32.1951C277.421 30.5741 278.457 29.4484 278.907 28.818C279.357 28.1876 279.718 28.0525 279.988 28.4127C280.258 28.6829 280.123 29.0882 279.583 29.6285C277.241 31.97 274.404 34.6266 271.072 37.5985C267.83 40.4803 264.768 43.0019 261.886 45.1632ZM338.66 10.0412C339.02 11.6622 338.885 13.1482 338.255 14.499C335.913 18.5516 333.076 22.7392 329.744 27.0619C326.502 31.2945 323.26 35.4371 320.018 39.4897C314.615 45.9737 309.572 52.1426 304.889 57.9963C300.296 63.8499 296.243 69.4785 292.731 74.8818C291.02 77.4935 289.354 80.1952 287.733 82.9869C286.112 85.8687 284.716 88.7055 283.545 91.4972C282.285 94.379 281.294 97.1708 280.573 99.8725C279.763 102.664 279.358 105.321 279.358 107.842C279.268 111.625 280.168 114.372 282.059 116.083C283.951 117.794 286.787 118.739 290.57 118.919C292.461 119.009 294.622 118.784 297.054 118.244C299.485 117.704 302.007 117.028 304.619 116.218C307.23 115.407 309.797 114.597 312.318 113.786C314.84 112.976 317.091 112.345 319.073 111.895C321.954 111.175 324.296 110.904 326.097 111.084C327.898 111.265 329.204 112.165 330.014 113.786C330.285 114.327 330.285 115.047 330.014 115.948C329.744 116.848 329.519 117.524 329.339 117.974C329.069 118.604 328.799 118.874 328.529 118.784C328.258 118.784 328.213 118.469 328.393 117.839C328.574 117.208 328.619 116.533 328.529 115.812C328.529 115.092 328.258 114.642 327.718 114.462C326.727 114.101 325.512 113.966 324.071 114.056C322.72 114.236 321.144 114.462 319.343 114.732C317.812 115.002 316.101 115.362 314.21 115.812C312.318 116.263 310.337 116.758 308.266 117.298C306.195 117.839 304.078 118.334 301.917 118.784C299.756 119.235 297.729 119.595 295.838 119.865C288.003 120.856 281.879 119.73 277.467 116.488C275.125 114.867 273.819 112.66 273.549 109.869C273.279 107.077 273.819 104.105 275.17 100.953C276.791 97.1708 278.998 93.0282 281.789 88.5254C284.491 84.1126 287.463 79.6098 290.705 75.0169C293.857 70.424 297.099 65.9662 300.431 61.6435C303.763 57.3208 306.87 53.4034 309.752 49.8912C310.202 49.3508 310.652 48.8105 311.103 48.2702C311.553 47.7298 312.003 47.1895 312.453 46.6492C311.913 47.0094 311.328 47.3246 310.697 47.5947C310.157 47.7749 309.572 47.955 308.941 48.1351C307.771 48.4953 306.825 48.4053 306.104 47.8649C305.474 47.3246 305.294 46.469 305.564 45.2983C305.744 44.3077 306.014 43.0919 306.375 41.651C306.825 40.2101 307.275 38.9944 307.725 38.0037C308.626 35.5722 309.437 33.0506 310.157 30.439C310.968 27.8274 311.508 25.621 311.778 23.8199C312.048 21.8386 310.877 21.2082 308.266 21.9287C306.104 22.469 304.033 23.4146 302.052 24.7655C301.602 24.9456 301.241 24.9005 300.971 24.6304C300.791 24.2701 300.971 23.9549 301.512 23.6848C303.403 22.6942 305.699 21.7035 308.401 20.7129C311.103 19.7223 313.534 19.0018 315.695 18.5516C316.956 18.2814 317.722 18.5516 317.992 19.3621C318.262 20.0825 318.127 21.1182 317.587 22.469C316.776 24.4503 315.876 26.6116 314.885 28.9531C313.984 31.2945 313.264 33.3658 312.724 35.167C312.273 36.6079 311.823 38.0488 311.373 39.4897C311.013 40.9306 310.877 42.1463 310.968 43.137C310.968 44.0375 311.328 44.5779 312.048 44.758C312.769 44.848 313.489 44.6229 314.21 44.0825C314.3 43.9925 314.435 43.9475 314.615 43.9475C320.378 36.6529 325.061 30.1238 328.664 24.3602C332.356 18.5065 334.427 13.4183 334.877 9.09564C335.148 6.30389 334.382 3.96243 332.581 2.07124C332.221 1.71102 332.131 1.39582 332.311 1.12565C332.581 0.855479 332.941 0.945535 333.392 1.39582C334.472 2.65661 335.463 4.09751 336.363 5.71852C337.354 7.24948 338.12 8.69039 338.66 10.0412ZM365.551 36.9231C365.551 37.1932 365.416 37.4634 365.146 37.7336C363.795 38.9944 361.949 40.5253 359.607 42.3264C357.266 44.0375 354.654 45.7036 351.773 47.3246C348.35 49.2158 345.424 50.1614 342.992 50.1614C338.579 50.1614 336.373 48 336.373 43.6773C336.373 41.5159 336.958 39.3096 338.129 37.0581C339.48 34.0863 340.876 31.6998 342.317 29.8987C343.758 28.0075 345.289 26.4765 346.91 25.3058C348.621 24.045 350.422 23.0094 352.313 22.1988C354.294 21.3883 356.501 20.5778 358.932 19.7673C359.472 19.5872 359.788 19.4972 359.878 19.4972C360.778 19.4972 361.499 19.8574 362.039 20.5778C362.579 21.2983 362.85 21.9287 362.85 22.469C362.85 22.8292 362.714 23.2795 362.444 23.8199C362.264 24.2701 361.994 24.8105 361.634 25.4409C361.274 26.0713 360.868 26.3865 360.418 26.3865C360.148 26.3865 359.788 26.0262 359.337 25.3058C358.887 24.4052 358.347 23.6848 357.716 23.1444C357.176 22.514 356.456 22.1988 355.555 22.1988C354.384 22.1988 353.213 22.6491 352.043 23.5497C350.242 24.8105 348.531 26.6116 346.91 28.9531C345.379 31.2945 343.938 34.0863 342.587 37.3283C341.596 40.03 341.101 42.1914 341.101 43.8124C341.101 46.6942 342.452 48.1351 345.153 48.1351C347.315 48.1351 350.016 47.1895 353.259 45.2983C355.06 44.2176 357.086 42.8668 359.337 41.2458C361.589 39.6248 363.39 38.1839 364.741 36.9231C364.921 36.743 365.101 36.6529 365.281 36.6529C365.461 36.6529 365.551 36.743 365.551 36.9231ZM425.969 30.7092C423.447 33.7711 420.565 36.833 417.323 39.8949C414.081 42.9568 410.029 45.2983 405.166 46.9193C404.085 47.2795 402.914 47.5047 401.654 47.5947C400.483 47.6848 399.402 47.5947 398.412 47.3246C396.52 46.7842 395.44 45.8386 395.17 44.4878C394.989 43.137 395.485 41.5159 396.655 39.6248C398.006 37.5535 399.357 35.302 400.708 32.8705C402.059 30.3489 403.185 27.9174 404.085 25.576C404.716 24.045 404.806 23.0094 404.355 22.469C403.995 21.8386 403.095 22.0187 401.654 23.0094C399.312 24.5403 396.926 26.6566 394.494 29.3583C392.153 31.97 389.946 34.8518 387.875 38.0037C387.155 39.5347 386.569 40.8405 386.119 41.9212C385.669 43.0019 385.173 43.9024 384.633 44.6229C383.642 46.1538 382.607 46.6492 381.526 46.1088C381.076 45.9287 380.851 45.5685 380.851 45.0281C380.941 44.4878 381.211 43.9475 381.661 43.4071C384.093 40.1651 386.119 36.878 387.74 33.5459C389.451 30.2139 390.442 27.242 390.712 24.6304C390.892 23.5497 390.622 22.8292 389.901 22.469C389.271 22.1088 388.325 22.424 387.064 23.4146C385.894 24.4052 384.678 25.576 383.417 26.9268C382.246 28.2777 381.121 29.7186 380.04 31.2495C378.239 33.8611 376.528 36.6529 374.907 39.6248C373.376 42.5066 371.845 45.1182 370.314 47.4597C369.954 48.0901 369.503 48.4953 368.963 48.6754C368.423 48.9456 367.927 48.8105 367.477 48.2702C366.847 47.5497 366.577 46.8293 366.667 46.1088C366.757 45.2983 367.207 44.2176 368.018 42.8668C368.918 41.4259 369.819 39.8049 370.719 38.0037C371.62 36.2026 372.43 34.4015 373.151 32.6004C373.871 30.7992 374.547 29.0882 375.177 27.4671C375.807 25.7561 376.303 24.2701 376.663 23.0094C376.843 22.2889 377.068 21.3433 377.338 20.1726C377.699 19.0018 378.059 18.3264 378.419 18.1463C378.869 17.9662 379.32 17.8311 379.77 17.7411C380.31 17.651 380.715 17.5159 380.986 17.3358C381.706 17.0656 382.201 17.2007 382.472 17.7411C382.742 18.1913 382.652 19.0469 382.201 20.3077C382.021 20.848 381.751 21.6135 381.391 22.6041C381.031 23.5047 380.625 24.5403 380.175 25.711C379.725 26.7917 379.275 27.9174 378.824 29.0882C378.374 30.2589 377.969 31.2945 377.609 32.1951C379.77 29.1332 381.796 26.5666 383.687 24.4953C385.669 22.424 387.245 21.1182 388.415 20.5778C389.676 19.9474 390.712 19.9024 391.522 20.4427C392.423 20.893 392.783 22.0187 392.603 23.8199C392.333 26.7017 391.477 29.7186 390.036 32.8705C392.108 30.2589 394.269 27.8274 396.52 25.576C398.772 23.3245 401.158 21.4334 403.68 19.9024C405.121 19.0018 406.517 18.5065 407.867 18.4165C409.398 18.2364 410.254 18.5966 410.434 19.4972C410.614 20.3977 410.344 21.5234 409.624 22.8743C407.462 26.9268 405.616 30.5291 404.085 33.681C402.554 36.743 401.519 39.3996 400.978 41.651C400.528 43.4522 400.708 44.7129 401.519 45.4334C402.329 46.0638 403.59 46.1088 405.301 45.5685C409.894 44.1276 413.766 41.9662 416.918 39.0844C420.07 36.1126 422.817 33.0957 425.158 30.0338C425.519 29.5835 425.834 29.4934 426.104 29.7636C426.374 29.9437 426.329 30.2589 425.969 30.7092ZM462.043 31.5197C460.782 33.1407 459.386 34.8518 457.855 36.6529C456.414 38.364 454.838 40.03 453.127 41.651C451.416 43.182 449.66 44.6229 447.859 45.9737C446.148 47.3246 444.437 48.4503 442.726 49.3508C437.322 52.1426 433.855 52.6379 432.324 50.8368C430.883 49.1257 431.063 45.3884 432.864 39.6248C433.315 38.1839 433.855 36.6979 434.485 35.167C435.116 33.5459 435.881 31.8349 436.782 30.0338C434.44 33.1857 432.009 36.2026 429.487 39.0844C427.056 41.8762 424.534 44.0375 421.923 45.5685C419.311 47.1895 417.465 47.4146 416.384 46.2439C415.394 44.9831 415.619 43.0019 417.06 40.3002C418.861 37.0581 421.112 34.0863 423.814 31.3846C426.515 28.5928 429.172 26.2964 431.784 24.4953C433.135 23.5047 434.576 22.6491 436.106 21.9287C437.637 21.2082 439.168 20.848 440.699 20.848C441.33 19.4972 442.005 18.2364 442.726 17.0656C443.446 15.8048 444.167 14.6791 444.887 13.6885C445.157 13.3283 445.472 13.1482 445.833 13.1482C446.283 13.1482 446.508 13.4183 446.508 13.9587C446.508 14.3189 446.553 14.6341 446.643 14.9043C446.733 15.0844 446.823 15.2645 446.913 15.4446L447.183 15.985C447.454 16.5253 447.454 16.9756 447.183 17.3358C444.302 21.9287 442.05 26.1163 440.429 29.8987C438.808 33.591 437.592 37.4634 436.782 41.5159C436.152 44.5779 436.422 46.6492 437.592 47.7298C438.853 48.8105 440.879 48.7205 443.671 47.4597C445.112 46.8293 446.643 45.9287 448.264 44.758C449.885 43.4972 451.461 42.1463 452.992 40.7054C454.523 39.1745 456.009 37.5985 457.45 35.9775C458.891 34.2664 460.152 32.6004 461.232 30.9793C461.502 30.5291 461.773 30.439 462.043 30.7092C462.313 30.8893 462.313 31.1595 462.043 31.5197ZM440.024 22.1988C438.763 22.1988 437.367 22.6041 435.836 23.4146C434.395 24.1351 432.955 25.1257 431.514 26.3865C430.793 26.9268 429.983 27.6923 429.082 28.6829C428.182 29.6735 427.281 30.7992 426.38 32.06C425.57 33.2308 424.804 34.4465 424.084 35.7073C423.363 36.9681 422.823 38.1839 422.463 39.3546C421.833 41.1557 421.833 42.2814 422.463 42.7317C423.093 43.0919 424.084 42.6416 425.435 41.3809C427.956 39.0394 430.478 36.2927 433 33.1407C435.611 29.8987 437.953 26.2514 440.024 22.1988ZM475.491 36.6529C469.908 41.6961 465.72 45.2083 462.928 47.1895C461.847 48.0901 460.812 48.6754 459.821 48.9456C458.831 49.3058 457.93 49.4859 457.12 49.4859H456.714C455.724 49.3959 454.868 49.0356 454.148 48.4053C453.427 47.7749 453.067 46.8743 453.067 45.7036V45.5685C453.247 43.7673 454.418 42.6416 456.579 42.1914C458.02 42.3715 458.515 43.7673 458.065 46.379C458.065 47.2795 458.38 47.7298 459.011 47.7298C459.731 47.7298 460.677 47.2795 461.847 46.379C462.838 45.6585 463.919 44.848 465.09 43.9475C466.35 42.9568 467.656 41.8762 469.007 40.7054C470.448 39.5347 471.709 38.4991 472.789 37.5985C473.87 36.6079 474.861 35.7523 475.761 35.0319L478.193 32.6004C479.363 31.2495 480.354 29.9887 481.165 28.818C481.975 27.5572 482.876 26.2514 483.866 24.9005C484.497 24 485.127 23.0994 485.757 22.1988C486.388 21.2082 487.018 20.3977 487.649 19.7673C487.919 19.4972 488.144 19.227 488.324 18.9568C488.594 18.6866 488.954 18.5516 489.405 18.5516H490.485C491.116 18.5516 491.521 18.7767 491.701 19.227C491.701 19.5872 491.476 19.9925 491.026 20.4427C489.225 23.1444 487.424 25.8011 485.622 28.4127C483.911 31.0244 482.515 33.3658 481.435 35.4371C479.814 38.7692 478.508 42.1463 477.517 45.5685C477.427 46.0188 477.337 46.424 477.247 46.7842C477.247 47.0544 477.247 47.2795 477.247 47.4597C477.247 48.9906 478.013 49.7561 479.544 49.7561C479.724 49.7561 480.264 49.666 481.165 49.4859C484.407 48.5854 487.333 47.1895 489.945 45.2983C492.557 43.4071 495.348 41.1107 498.32 38.409C498.5 38.2289 498.726 38.1388 498.996 38.1388C499.356 38.1388 499.536 38.2739 499.536 38.5441C499.536 38.8142 499.401 39.0844 499.131 39.3546C495.979 42.1463 493.097 44.4878 490.485 46.379C487.874 48.2702 485.262 49.666 482.651 50.5666C480.219 51.3771 478.193 51.7824 476.572 51.7824C473.78 51.7824 472.384 50.6116 472.384 48.2702C472.384 47.2795 472.609 46.2889 473.06 45.2983C473.51 44.2176 473.96 43.272 474.41 42.4615C475.131 41.2007 475.761 39.985 476.302 38.8142C476.932 37.6435 477.427 36.6979 477.787 35.9775C477.787 35.7974 477.787 35.7073 477.787 35.7073C477.878 35.6172 477.923 35.5272 477.923 35.4371C477.923 35.257 477.833 35.167 477.652 35.167C477.472 35.167 476.752 35.6623 475.491 36.6529ZM543.7 31.5197C542.44 33.1407 541.044 34.8518 539.513 36.6529C538.072 38.364 536.496 40.03 534.785 41.651C533.074 43.182 531.318 44.6229 529.516 45.9737C527.805 47.3246 526.094 48.4503 524.383 49.3508C518.98 52.1426 515.513 52.6379 513.982 50.8368C512.541 49.1257 512.721 45.3884 514.522 39.6248C514.972 38.1839 515.513 36.6979 516.143 35.167C516.773 33.5459 517.539 31.8349 518.439 30.0338C516.098 33.1857 513.667 36.2026 511.145 39.0844C508.713 41.8762 506.192 44.0375 503.58 45.5685C500.969 47.1895 499.122 47.4146 498.042 46.2439C497.051 44.9831 497.276 43.0019 498.717 40.3002C500.518 37.0581 502.77 34.0863 505.471 31.3846C508.173 28.5928 510.83 26.2964 513.441 24.4953C514.792 23.5047 516.233 22.6491 517.764 21.9287C519.295 21.2082 520.826 20.848 522.357 20.848C522.987 19.4972 523.663 18.2364 524.383 17.0656C525.104 15.8048 525.824 14.6791 526.545 13.6885C526.815 13.3283 527.13 13.1482 527.49 13.1482C527.94 13.1482 528.166 13.4183 528.166 13.9587C528.166 14.3189 528.211 14.6341 528.301 14.9043C528.391 15.0844 528.481 15.2645 528.571 15.4446L528.841 15.985C529.111 16.5253 529.111 16.9756 528.841 17.3358C525.959 21.9287 523.708 26.1163 522.087 29.8987C520.466 33.591 519.25 37.4634 518.439 41.5159C517.809 44.5779 518.079 46.6492 519.25 47.7298C520.511 48.8105 522.537 48.7205 525.329 47.4597C526.77 46.8293 528.301 45.9287 529.922 44.758C531.543 43.4972 533.119 42.1463 534.65 40.7054C536.181 39.1745 537.667 37.5985 539.107 35.9775C540.548 34.2664 541.809 32.6004 542.89 30.9793C543.16 30.5291 543.43 30.439 543.7 30.7092C543.97 30.8893 543.97 31.1595 543.7 31.5197ZM521.682 22.1988C520.421 22.1988 519.025 22.6041 517.494 23.4146C516.053 24.1351 514.612 25.1257 513.171 26.3865C512.451 26.9268 511.64 27.6923 510.74 28.6829C509.839 29.6735 508.939 30.7992 508.038 32.06C507.227 33.2308 506.462 34.4465 505.742 35.7073C505.021 36.9681 504.481 38.1839 504.121 39.3546C503.49 41.1557 503.49 42.2814 504.121 42.7317C504.751 43.0919 505.742 42.6416 507.092 41.3809C509.614 39.0394 512.136 36.2927 514.657 33.1407C517.269 29.8987 519.61 26.2514 521.682 22.1988Z" fill="#FCFCFC"/>
</svg>
