<svg width="1144" height="78" viewBox="0 0 1144 78" fill="none" xmlns="http://www.w3.org/2000/svg">
<path d="M25.8088 2.04C33.7288 2.04 40.1821 3.61666 45.1688 6.76999C50.2288 9.85 53.8588 13.92 56.0588 18.98C58.3321 24.04 59.4688 29.6133 59.4688 35.7C59.4688 43.4 57.7821 50.11 54.4088 55.83C51.0354 61.4767 46.5621 65.8033 40.9888 68.81C35.4154 71.8167 29.3654 73.32 22.8388 73.32C19.5388 73.32 16.0554 72.9533 12.3887 72.22C8.79542 71.4867 5.93542 70.46 3.80875 69.14C3.14875 68.7733 2.74542 68.48 2.59875 68.26C2.45208 67.9667 2.34208 67.4167 2.26875 66.61L0.94875 55.06C0.94875 54.84 1.13208 54.6933 1.49875 54.62C1.93875 54.5467 2.19542 54.62 2.26875 54.84C3.73542 60.4133 6.63208 64.4467 10.9588 66.94C15.3588 69.36 20.4554 70.57 26.2488 70.57C35.1954 70.57 41.8688 67.8933 46.2688 62.54C50.6688 57.1867 52.8688 49.6333 52.8688 39.88C52.8688 38.6333 52.8321 37.7167 52.7587 37.13H35.9288C32.2621 37.13 29.4388 37.4233 27.4588 38.01C25.4788 38.5233 24.0488 39.5133 23.1688 40.98C22.2888 42.4467 21.8488 44.5367 21.8488 47.25C21.8488 47.47 21.6288 47.58 21.1888 47.58C20.7488 47.58 20.5288 47.47 20.5288 47.25L20.6388 36.14C20.6388 33.94 20.6021 32.3267 20.5288 31.3L20.4188 26.24C20.4188 26.02 20.6388 25.91 21.0788 25.91C21.5188 25.91 21.7388 26.02 21.7388 26.24C21.8854 29.2467 23.0221 31.4833 25.1488 32.95C27.3488 34.3433 31.0888 35.04 36.3688 35.04H52.6488C52.1354 28.5133 50.6321 22.8667 48.1388 18.1C45.6454 13.3333 42.4188 9.66666 38.4588 7.1C34.5721 4.53333 30.2088 3.25 25.3688 3.25C20.4554 3.25 15.9454 4.64333 11.8388 7.43C7.80542 10.2167 4.68875 14.3967 2.48875 19.97C2.41542 20.2633 2.19542 20.3733 1.82875 20.3C1.46208 20.2267 1.27875 20.08 1.27875 19.86L2.81875 8.2C2.96542 7.32 3.11208 6.73333 3.25875 6.44C3.40542 6.14666 3.80875 5.85333 4.46875 5.56C11.5088 3.21333 18.6221 2.04 25.8088 2.04ZM82.8352 5.12C78.2152 5.12 74.8418 6.22 72.7152 8.42C70.5885 10.62 69.1585 14.5433 68.4252 20.19C68.4252 20.3367 68.2052 20.41 67.7652 20.41C67.3252 20.41 67.1052 20.3367 67.1052 20.19C67.3985 18.21 67.7285 15.0567 68.0952 10.73C68.4618 6.33 68.6452 3.03 68.6452 0.829998C68.6452 0.463332 68.8652 0.279999 69.3052 0.279999C69.7452 0.279999 69.9652 0.463332 69.9652 0.829998C69.9652 2.44333 71.9085 3.25 75.7952 3.25C82.1018 3.47 89.4718 3.58 97.9052 3.58C102.232 3.58 106.815 3.50666 111.655 3.36L119.135 3.25C121.775 3.25 123.718 3.06666 124.965 2.69999C126.212 2.33333 127.018 1.6 127.385 0.499996C127.458 0.206662 127.678 0.0599952 128.045 0.0599952C128.412 0.0599952 128.595 0.206662 128.595 0.499996C128.375 2.55333 128.155 5.70666 127.935 9.96C127.715 14.14 127.605 17.55 127.605 20.19C127.605 20.3367 127.385 20.41 126.945 20.41C126.505 20.41 126.285 20.3367 126.285 20.19C126.285 16.3033 125.882 13.2967 125.075 11.17C124.268 9.04333 122.912 7.50333 121.005 6.55C119.098 5.59666 116.422 5.12 112.975 5.12C109.162 5.12 106.485 5.26666 104.945 5.56C103.405 5.78 102.342 6.36667 101.755 7.32C101.242 8.27333 100.985 9.95999 100.985 12.38V63.09C100.985 65.3633 101.242 67.0133 101.755 68.04C102.268 69.0667 103.295 69.7633 104.835 70.13C106.375 70.4967 108.795 70.68 112.095 70.68C112.242 70.68 112.315 70.9 112.315 71.34C112.315 71.78 112.242 72 112.095 72C109.675 72 107.768 71.9633 106.375 71.89L97.9052 71.78L89.8752 71.89C88.4085 71.9633 86.3918 72 83.8252 72C83.6785 72 83.6052 71.78 83.6052 71.34C83.6052 70.9 83.6785 70.68 83.8252 70.68C87.1252 70.68 89.5452 70.4967 91.0852 70.13C92.6252 69.7633 93.6518 69.0667 94.1652 68.04C94.7518 66.94 95.0452 65.29 95.0452 63.09V12.16C95.0452 9.74 94.7518 8.09 94.1652 7.20999C93.5785 6.25666 92.5152 5.67 90.9752 5.45C89.5085 5.23 86.7952 5.12 82.8352 5.12ZM171.508 73.32C164.688 73.32 158.601 71.7433 153.248 68.59C147.968 65.3633 143.861 61.0367 140.928 55.61C138.068 50.11 136.638 44.1333 136.638 37.68C136.638 30.1267 138.545 23.6733 142.358 18.32C146.171 12.8933 151.048 8.82333 156.988 6.11C163.001 3.39666 169.125 2.04 175.358 2.04C182.325 2.04 188.448 3.69 193.728 6.99C199.008 10.2167 203.041 14.5067 205.828 19.86C208.688 25.2133 210.118 30.8967 210.118 36.91C210.118 43.5833 208.358 49.7067 204.838 55.28C201.318 60.8533 196.588 65.2533 190.648 68.48C184.781 71.7067 178.401 73.32 171.508 73.32ZM175.468 71.12C180.675 71.12 185.368 69.91 189.548 67.49C193.728 65.07 197.028 61.5133 199.448 56.82C201.868 52.1267 203.078 46.5167 203.078 39.99C203.078 33.0967 201.721 26.9733 199.008 21.62C196.368 16.1933 192.591 11.9767 187.678 8.97C182.838 5.96333 177.191 4.46 170.738 4.46C162.231 4.46 155.595 7.1 150.828 12.38C146.061 17.66 143.678 24.8467 143.678 33.94C143.678 40.76 144.998 47.03 147.638 52.75C150.351 58.3967 154.128 62.87 158.968 66.17C163.808 69.47 169.308 71.12 175.468 71.12ZM233.333 5.12C228.713 5.12 225.34 6.22 223.213 8.42C221.087 10.62 219.657 14.5433 218.923 20.19C218.923 20.3367 218.703 20.41 218.263 20.41C217.823 20.41 217.603 20.3367 217.603 20.19C217.897 18.21 218.227 15.0567 218.593 10.73C218.96 6.33 219.143 3.03 219.143 0.829998C219.143 0.463332 219.363 0.279999 219.803 0.279999C220.243 0.279999 220.463 0.463332 220.463 0.829998C220.463 2.44333 222.407 3.25 226.293 3.25C232.6 3.47 239.97 3.58 248.403 3.58C252.73 3.58 257.313 3.50666 262.153 3.36L269.633 3.25C272.273 3.25 274.217 3.06666 275.463 2.69999C276.71 2.33333 277.517 1.6 277.883 0.499996C277.957 0.206662 278.177 0.0599952 278.543 0.0599952C278.91 0.0599952 279.093 0.206662 279.093 0.499996C278.873 2.55333 278.653 5.70666 278.433 9.96C278.213 14.14 278.103 17.55 278.103 20.19C278.103 20.3367 277.883 20.41 277.443 20.41C277.003 20.41 276.783 20.3367 276.783 20.19C276.783 16.3033 276.38 13.2967 275.573 11.17C274.767 9.04333 273.41 7.50333 271.503 6.55C269.597 5.59666 266.92 5.12 263.473 5.12C259.66 5.12 256.983 5.26666 255.443 5.56C253.903 5.78 252.84 6.36667 252.253 7.32C251.74 8.27333 251.483 9.95999 251.483 12.38V63.09C251.483 65.3633 251.74 67.0133 252.253 68.04C252.767 69.0667 253.793 69.7633 255.333 70.13C256.873 70.4967 259.293 70.68 262.593 70.68C262.74 70.68 262.813 70.9 262.813 71.34C262.813 71.78 262.74 72 262.593 72C260.173 72 258.267 71.9633 256.873 71.89L248.403 71.78L240.373 71.89C238.907 71.9633 236.89 72 234.323 72C234.177 72 234.103 71.78 234.103 71.34C234.103 70.9 234.177 70.68 234.323 70.68C237.623 70.68 240.043 70.4967 241.583 70.13C243.123 69.7633 244.15 69.0667 244.663 68.04C245.25 66.94 245.543 65.29 245.543 63.09V12.16C245.543 9.74 245.25 8.09 244.663 7.20999C244.077 6.25666 243.013 5.67 241.473 5.45C240.007 5.23 237.293 5.12 233.333 5.12ZM379.326 70.68C379.473 70.68 379.546 70.9 379.546 71.34C379.546 71.78 379.473 72 379.326 72H366.236C365.21 72 364.293 71.7433 363.486 71.23C362.753 70.6433 361.506 69.1767 359.746 66.83C357.986 64.4833 354.833 60.0467 350.286 53.52C346.84 48.46 344.236 44.94 342.476 42.96C340.79 40.9067 339.066 39.4767 337.306 38.67C335.546 37.79 333.2 37.35 330.266 37.35C329.533 37.35 328.946 37.3867 328.506 37.46V63.09C328.506 65.3633 328.726 67.0133 329.166 68.04C329.68 69.0667 330.596 69.7633 331.916 70.13C333.236 70.4967 335.363 70.68 338.296 70.68C338.443 70.68 338.516 70.9 338.516 71.34C338.516 71.78 338.443 72 338.296 72C336.096 72 334.336 71.9633 333.016 71.89L325.536 71.78L318.276 71.89C316.956 71.9633 315.123 72 312.776 72C312.63 72 312.556 71.78 312.556 71.34C312.556 70.9 312.63 70.68 312.776 70.68C315.636 70.68 317.726 70.4967 319.046 70.13C320.44 69.7633 321.393 69.0667 321.906 68.04C322.42 66.94 322.676 65.29 322.676 63.09V12.16C322.676 9.96 322.42 8.34667 321.906 7.32C321.466 6.29333 320.55 5.59666 319.156 5.22999C317.836 4.79 315.746 4.57 312.886 4.57C312.74 4.57 312.666 4.35 312.666 3.91C312.666 3.47 312.74 3.25 312.886 3.25L318.276 3.36C321.356 3.50666 323.776 3.58 325.536 3.58C327.516 3.58 330.046 3.50666 333.126 3.36L338.296 3.25C338.443 3.25 338.516 3.47 338.516 3.91C338.516 4.35 338.443 4.57 338.296 4.57C335.436 4.57 333.31 4.79 331.916 5.22999C330.596 5.67 329.68 6.44 329.166 7.54C328.726 8.56666 328.506 10.18 328.506 12.38V35.59C332.466 35.4433 334.923 35.37 335.876 35.37C337.05 35.37 337.893 35.4067 338.406 35.48L352.266 16.12C354.026 13.6267 355.31 11.6833 356.116 10.29C356.923 8.82333 357.326 7.68666 357.326 6.88C357.326 6 356.85 5.41333 355.896 5.12C354.943 4.75333 353.44 4.57 351.386 4.57C351.24 4.57 351.166 4.35 351.166 3.91C351.166 3.47 351.24 3.25 351.386 3.25L356.006 3.36C358.793 3.50666 361.36 3.58 363.706 3.58C366.053 3.58 368.473 3.50666 370.966 3.36L374.816 3.25C375.036 3.25 375.146 3.47 375.146 3.91C375.146 4.35 375.036 4.57 374.816 4.57C370.783 4.57 367.446 5.45 364.806 7.20999C362.24 8.97 359.16 12.1967 355.566 16.89L340.936 35.81C343.063 36.25 344.896 37.2767 346.436 38.89C348.05 40.5033 350.433 43.62 353.586 48.24L355.786 51.32C359.16 56.16 361.946 59.8633 364.146 62.43C366.346 64.9967 368.656 67.0133 371.076 68.48C373.496 69.8733 376.246 70.6067 379.326 70.68ZM448.216 3.25C448.363 3.25 448.436 3.47 448.436 3.91C448.436 4.35 448.363 4.57 448.216 4.57C444.55 4.57 441.433 7.1 438.866 12.16L417.966 56.38C415.986 60.7067 414.776 63.3467 414.336 64.3C413.163 67.0133 412.32 68.8467 411.806 69.8C411.293 70.68 410.743 71.2667 410.156 71.56C409.643 71.8533 408.836 72 407.736 72H392.116C391.896 72 391.786 71.78 391.786 71.34C391.786 70.9 391.896 70.68 392.116 70.68C397.616 70.68 402.163 69.6533 405.756 67.6C409.423 65.4733 412.54 61.8067 415.106 56.6L391.566 12.38C390.026 9.44666 388.56 7.43 387.166 6.33C385.846 5.15666 384.086 4.57 381.886 4.57C381.74 4.57 381.666 4.35 381.666 3.91C381.666 3.47 381.74 3.25 381.886 3.25L386.616 3.36C388.816 3.50666 390.393 3.58 391.346 3.58C393.473 3.58 396.003 3.50666 398.936 3.36L403.666 3.25C403.886 3.25 403.996 3.47 403.996 3.91C403.996 4.35 403.886 4.57 403.666 4.57C399.12 4.57 396.846 5.74333 396.846 8.09C396.846 8.97 397.176 10.0333 397.836 11.28L418.516 49.45L436.556 11.5C437.216 10.18 437.546 9.08 437.546 8.2C437.546 6.95333 436.813 6.03667 435.346 5.45C433.953 4.86333 431.716 4.57 428.636 4.57C428.416 4.57 428.306 4.35 428.306 3.91C428.306 3.47 428.416 3.25 428.636 3.25L433.036 3.36C435.53 3.50666 437.766 3.58 439.746 3.58C440.92 3.58 442.386 3.50666 444.146 3.36L448.216 3.25ZM468.28 62.65C468.28 64.9967 468.61 66.72 469.27 67.82C469.93 68.8467 471.177 69.58 473.01 70.02C474.917 70.46 477.924 70.68 482.03 70.68C482.25 70.68 482.36 70.9 482.36 71.34C482.36 71.78 482.25 72 482.03 72C479.024 72 476.677 71.9633 474.99 71.89L465.42 71.78L458.16 71.89C456.84 71.9633 455.007 72 452.66 72C452.514 72 452.44 71.78 452.44 71.34C452.44 70.9 452.514 70.68 452.66 70.68C455.52 70.68 457.61 70.4967 458.93 70.13C460.324 69.7633 461.24 69.0667 461.68 68.04C462.194 66.94 462.45 65.29 462.45 63.09V12.16C462.45 9.96 462.194 8.34667 461.68 7.32C461.24 6.29333 460.324 5.59666 458.93 5.22999C457.61 4.79 455.52 4.57 452.66 4.57C452.514 4.57 452.44 4.35 452.44 3.91C452.44 3.47 452.514 3.25 452.66 3.25L458.05 3.36C461.13 3.50666 463.55 3.58 465.31 3.58C467.07 3.58 469.087 3.47 471.36 3.25C477.08 3.03 480.197 2.92 480.71 2.92C487.164 2.92 492.407 4.42333 496.44 7.43C500.474 10.3633 502.49 14.8733 502.49 20.96C502.49 25.8733 501.28 30.0167 498.86 33.39C496.44 36.69 493.36 39.1467 489.62 40.76C485.954 42.3733 482.14 43.18 478.18 43.18C475.98 43.18 474.184 42.9967 472.79 42.63C472.57 42.63 472.46 42.4467 472.46 42.08C472.46 41.86 472.497 41.64 472.57 41.42C472.717 41.2 472.864 41.1267 473.01 41.2C474.184 41.4933 475.504 41.64 476.97 41.64C482.177 41.64 486.577 40.0633 490.17 36.91C493.837 33.7567 495.67 29.1733 495.67 23.16C495.67 19.2733 494.9 15.9367 493.36 13.15C491.82 10.29 489.694 8.12667 486.98 6.66C484.34 5.12 481.407 4.35 478.18 4.35C475.174 4.35 473.047 4.49667 471.8 4.79C470.554 5.08333 469.637 5.78 469.05 6.88C468.537 7.90667 468.28 9.74 468.28 12.38V62.65ZM552.435 2.04C557.055 2.04 560.941 2.37 564.095 3.03C567.248 3.69 570.401 4.82666 573.555 6.44C574.068 6.73333 574.361 6.99 574.435 7.20999C574.508 7.43 574.618 7.98 574.765 8.86L576.085 21.95C576.085 22.17 575.865 22.3167 575.425 22.39C575.058 22.39 574.838 22.28 574.765 22.06C571.391 9.81333 563.838 3.68999 552.105 3.68999C545.945 3.68999 540.518 5.04666 535.825 7.75999C531.131 10.4733 527.501 14.36 524.935 19.42C522.368 24.4067 521.085 30.2367 521.085 36.91C521.085 43.29 522.478 49.1567 525.265 54.51C528.125 59.79 531.938 63.97 536.705 67.05C541.545 70.13 546.788 71.67 552.435 71.67C558.448 71.67 563.325 70.2033 567.065 67.27C570.805 64.3367 573.665 59.8633 575.645 53.85C575.645 53.7033 575.828 53.63 576.195 53.63C576.708 53.63 576.965 53.74 576.965 53.96L575.865 66.06C575.791 66.94 575.681 67.49 575.535 67.71C575.388 67.93 575.095 68.1867 574.655 68.48C570.841 70.3133 567.248 71.5967 563.875 72.33C560.575 73.0633 556.761 73.43 552.435 73.43C544.735 73.43 537.841 71.9267 531.755 68.92C525.741 65.84 521.048 61.55 517.675 56.05C514.301 50.55 512.615 44.2433 512.615 37.13C512.615 30.2367 514.338 24.15 517.785 18.87C521.231 13.5167 525.961 9.37333 531.975 6.44C538.061 3.50666 544.881 2.04 552.435 2.04ZM691.356 27.01C691.283 28.2567 691.173 29.43 691.026 30.53C690.953 31.63 690.769 32.6933 690.476 33.72C688.129 42.1533 682.006 51.0633 672.106 60.45C666.899 65.29 661.216 69.1767 655.056 72.11C648.089 75.5567 641.453 77.2067 635.146 77.06C629.866 76.9133 625.429 75.6667 621.836 73.32C617.656 70.46 615.566 66.5 615.566 61.44C615.566 54.4 619.563 46.1133 627.556 36.58C628.803 35.1133 630.416 33.4267 632.396 31.52C634.376 29.6133 636.723 27.5233 639.436 25.25C644.789 20.63 648.309 18.1 649.996 17.66C650.363 17.5133 650.619 17.5133 650.766 17.66C650.839 17.7333 650.803 17.9533 650.656 18.32C647.796 19.86 644.093 22.7933 639.546 27.12C634.999 31.4467 631.589 35.1867 629.316 38.34C624.109 45.4533 621.433 52.4567 621.286 59.35C621.286 64.0433 622.826 67.7833 625.906 70.57C628.986 73.2833 632.873 74.7133 637.566 74.86C642.919 74.9333 648.896 73.3933 655.496 70.24C661.509 67.3067 666.643 63.75 670.896 59.57C674.929 55.61 678.339 51.1367 681.126 46.15C683.179 42.5567 684.536 39.2567 685.196 36.25C686.076 32.6567 686.516 29.7233 686.516 27.45C686.443 23.1967 685.233 19.6767 682.886 16.89C680.613 14.03 677.386 12.5633 673.206 12.49C668.366 12.4167 664.516 13.6633 661.656 16.23C658.943 18.7233 657.586 21.4733 657.586 24.48C657.586 26.46 658.099 28.0367 659.126 29.21C655.386 29.1367 653.516 27.5967 653.516 24.59C653.516 23.4167 654.176 21.9867 655.496 20.3C660.629 14.0667 667.303 10.95 675.516 10.95C680.063 10.95 683.803 12.2333 686.736 14.8C689.889 17.66 691.429 21.73 691.356 27.01ZM731.512 2.04C735.105 2.04 738.699 2.40666 742.292 3.13999C745.959 3.87333 748.892 4.86333 751.092 6.11C751.679 6.47666 752.045 6.84333 752.192 7.20999C752.412 7.50333 752.559 8.01666 752.632 8.74999L753.842 20.3C753.842 20.52 753.659 20.6667 753.292 20.74C752.925 20.74 752.705 20.63 752.632 20.41C749.992 9.70333 741.522 4.35 727.222 4.35C721.502 4.35 716.442 5.59666 712.042 8.09C707.715 10.51 704.342 13.9567 701.922 18.43C699.502 22.9033 698.292 28.0733 698.292 33.94C698.292 40.8333 699.795 47.2133 702.802 53.08C705.809 58.8733 709.805 63.4933 714.792 66.94C719.779 70.3133 725.169 72 730.962 72C736.389 72 741.045 70.57 744.932 67.71C748.892 64.85 751.789 60.4867 753.622 54.62C753.622 54.4 753.769 54.29 754.062 54.29C754.282 54.29 754.465 54.3267 754.612 54.4C754.832 54.4733 754.942 54.5833 754.942 54.73L753.402 66.5C753.255 67.38 753.072 67.9667 752.852 68.26C752.705 68.48 752.302 68.7367 751.642 69.03C745.115 71.89 738.112 73.32 730.632 73.32C721.832 73.32 714.499 71.56 708.632 68.04C702.765 64.4467 698.439 59.9 695.652 54.4C692.865 48.8267 691.472 42.9967 691.472 36.91C691.472 30.2367 693.342 24.26 697.082 18.98C700.822 13.6267 705.772 9.48333 711.932 6.55C718.092 3.54333 724.619 2.04 731.512 2.04ZM838.866 70.68C839.086 70.68 839.196 70.9 839.196 71.34C839.196 71.78 839.086 72 838.866 72C836.593 72 834.833 71.9633 833.586 71.89L826.216 71.78L818.626 71.89C817.379 71.9633 815.656 72 813.456 72C813.236 72 813.126 71.78 813.126 71.34C813.126 70.9 813.236 70.68 813.456 70.68C816.389 70.68 818.516 70.4967 819.836 70.13C821.156 69.7633 822.036 69.0667 822.476 68.04C822.989 67.0133 823.246 65.3633 823.246 63.09V37.24H779.356V63.09C779.356 65.3633 779.576 67.0133 780.016 68.04C780.529 69.0667 781.446 69.7633 782.766 70.13C784.086 70.4967 786.213 70.68 789.146 70.68C789.293 70.68 789.366 70.9 789.366 71.34C789.366 71.78 789.293 72 789.146 72C786.946 72 785.186 71.9633 783.866 71.89L776.386 71.78L769.126 71.89C767.806 71.9633 765.973 72 763.626 72C763.479 72 763.406 71.78 763.406 71.34C763.406 70.9 763.479 70.68 763.626 70.68C766.486 70.68 768.576 70.4967 769.896 70.13C771.289 69.7633 772.243 69.0667 772.756 68.04C773.269 66.94 773.526 65.29 773.526 63.09V12.16C773.526 9.96 773.269 8.34667 772.756 7.32C772.316 6.29333 771.399 5.59666 770.006 5.22999C768.686 4.79 766.596 4.57 763.736 4.57C763.589 4.57 763.516 4.35 763.516 3.91C763.516 3.47 763.589 3.25 763.736 3.25L769.126 3.36C772.206 3.50666 774.626 3.58 776.386 3.58C778.366 3.58 780.896 3.50666 783.976 3.36L789.146 3.25C789.293 3.25 789.366 3.47 789.366 3.91C789.366 4.35 789.293 4.57 789.146 4.57C786.286 4.57 784.159 4.79 782.766 5.22999C781.446 5.67 780.529 6.44 780.016 7.54C779.576 8.56666 779.356 10.18 779.356 12.38V35.15H823.246V12.38C823.246 10.18 822.989 8.56666 822.476 7.54C822.036 6.44 821.119 5.67 819.726 5.22999C818.406 4.79 816.316 4.57 813.456 4.57C813.236 4.57 813.126 4.35 813.126 3.91C813.126 3.47 813.236 3.25 813.456 3.25L818.626 3.36C821.706 3.50666 824.236 3.58 826.216 3.58C828.049 3.58 830.506 3.50666 833.586 3.36L838.866 3.25C839.086 3.25 839.196 3.47 839.196 3.91C839.196 4.35 839.086 4.57 838.866 4.57C836.006 4.57 833.879 4.79 832.486 5.22999C831.166 5.59666 830.249 6.29333 829.736 7.32C829.223 8.34667 828.966 9.96 828.966 12.16V63.09C828.966 65.29 829.223 66.94 829.736 68.04C830.249 69.0667 831.166 69.7633 832.486 70.13C833.879 70.4967 836.006 70.68 838.866 70.68ZM883.285 73.32C876.465 73.32 870.379 71.7433 865.025 68.59C859.745 65.3633 855.639 61.0367 852.705 55.61C849.845 50.11 848.415 44.1333 848.415 37.68C848.415 30.1267 850.322 23.6733 854.135 18.32C857.949 12.8933 862.825 8.82333 868.765 6.11C874.779 3.39666 880.902 2.04 887.135 2.04C894.102 2.04 900.225 3.69 905.505 6.99C910.785 10.2167 914.819 14.5067 917.605 19.86C920.465 25.2133 921.895 30.8967 921.895 36.91C921.895 43.5833 920.135 49.7067 916.615 55.28C913.095 60.8533 908.365 65.2533 902.425 68.48C896.559 71.7067 890.179 73.32 883.285 73.32ZM887.245 71.12C892.452 71.12 897.145 69.91 901.325 67.49C905.505 65.07 908.805 61.5133 911.225 56.82C913.645 52.1267 914.855 46.5167 914.855 39.99C914.855 33.0967 913.499 26.9733 910.785 21.62C908.145 16.1933 904.369 11.9767 899.455 8.97C894.615 5.96333 888.969 4.46 882.515 4.46C874.009 4.46 867.372 7.1 862.605 12.38C857.839 17.66 855.455 24.8467 855.455 33.94C855.455 40.76 856.775 47.03 859.415 52.75C862.129 58.3967 865.905 62.87 870.745 66.17C875.585 69.47 881.085 71.12 887.245 71.12ZM962.994 33.17C968.714 33.5367 973.334 35.4433 976.854 38.89C980.374 42.3367 982.134 46.59 982.134 51.65C982.134 55.61 981.217 59.1667 979.384 62.32C977.551 65.4733 975.021 67.9667 971.794 69.8C968.567 71.56 965.011 72.44 961.124 72.44C958.631 72.44 955.991 72.33 953.204 72.11C952.177 72.0367 950.967 71.9633 949.574 71.89C948.181 71.8167 946.604 71.78 944.844 71.78L937.584 71.89C936.264 71.9633 934.431 72 932.084 72C931.937 72 931.864 71.78 931.864 71.34C931.864 70.9 931.937 70.68 932.084 70.68C935.017 70.68 937.144 70.4967 938.464 70.13C939.857 69.7633 940.811 69.0667 941.324 68.04C941.837 66.94 942.094 65.29 942.094 63.09V12.16C942.094 9.96 941.837 8.34667 941.324 7.32C940.884 6.29333 939.967 5.59666 938.574 5.22999C937.254 4.79 935.164 4.57 932.304 4.57C932.084 4.57 931.974 4.35 931.974 3.91C931.974 3.47 932.084 3.25 932.304 3.25L937.584 3.36C940.517 3.50666 942.937 3.58 944.844 3.58C946.164 3.58 947.411 3.54333 948.584 3.47C949.757 3.39666 950.784 3.32333 951.664 3.25C953.937 3.03 955.954 2.92 957.714 2.92C963.801 2.92 968.274 4.31333 971.134 7.1C974.067 9.81333 975.534 13.2967 975.534 17.55C975.534 21.1433 974.397 24.2967 972.124 27.01C969.851 29.65 966.807 31.7033 962.994 33.17ZM955.184 4.35C953.131 4.35 951.627 4.49667 950.674 4.79C949.721 5.08333 948.987 5.78 948.474 6.88C948.034 7.98 947.814 9.81333 947.814 12.38V33.28L952.984 33.39C958.777 33.39 962.994 32.0333 965.634 29.32C968.274 26.5333 969.594 22.8667 969.594 18.32C969.594 14.2133 968.421 10.8767 966.074 8.30999C963.801 5.67 960.171 4.35 955.184 4.35ZM959.584 70.68C965.011 70.68 969.044 69.2867 971.684 66.5C974.397 63.64 975.754 59.6067 975.754 54.4C975.754 48.8267 974.031 44.3167 970.584 40.87C967.211 37.35 962.627 35.5533 956.834 35.48C954.121 35.4067 951.114 35.48 947.814 35.7V63.09C947.814 65.07 948.107 66.61 948.694 67.71C949.354 68.7367 950.527 69.5067 952.214 70.02C953.901 70.46 956.357 70.68 959.584 70.68ZM1063.96 70.68C1064.25 70.68 1064.4 70.9 1064.4 71.34C1064.4 71.78 1064.25 72 1063.96 72C1062.64 72 1060.51 71.9267 1057.58 71.78C1054.79 71.6333 1052.74 71.56 1051.42 71.56C1049.88 71.56 1047.86 71.6333 1045.37 71.78C1043.02 71.9267 1041.26 72 1040.09 72C1039.79 72 1039.65 71.78 1039.65 71.34C1039.65 70.9 1039.79 70.68 1040.09 70.68C1043.09 70.68 1045.26 70.4233 1046.58 69.91C1047.9 69.3233 1048.56 68.37 1048.56 67.05C1048.56 66.0233 1048.15 64.5933 1047.35 62.76L1037.01 40.43H1010.83L1003.35 58.47C1002.32 60.9633 1001.81 63.0167 1001.81 64.63C1001.81 66.7567 1002.69 68.2967 1004.45 69.25C1006.21 70.2033 1008.96 70.68 1012.7 70.68C1013.06 70.68 1013.25 70.9 1013.25 71.34C1013.25 71.78 1013.06 72 1012.7 72C1011.38 72 1009.47 71.9267 1006.98 71.78C1004.19 71.6333 1001.77 71.56 999.715 71.56C997.882 71.56 995.719 71.6333 993.225 71.78C991.025 71.9267 989.229 72 987.835 72C987.469 72 987.285 71.78 987.285 71.34C987.285 70.9 987.469 70.68 987.835 70.68C989.889 70.68 991.612 70.3133 993.005 69.58C994.472 68.8467 995.829 67.5267 997.075 65.62C998.395 63.7133 999.789 61 1001.26 57.48L1024.25 2.14999C1024.39 1.93 1024.61 1.82 1024.91 1.82C1025.27 1.82 1025.49 1.93 1025.57 2.14999L1051.09 56.93C1052.77 60.67 1054.28 63.53 1055.6 65.51C1056.92 67.4167 1058.2 68.7733 1059.45 69.58C1060.77 70.3133 1062.27 70.68 1063.96 70.68ZM1011.71 38.45H1036.02L1023.15 10.84L1011.71 38.45ZM1143.62 70.68C1143.84 70.68 1143.95 70.9 1143.95 71.34C1143.95 71.78 1143.84 72 1143.62 72C1141.35 72 1139.59 71.9633 1138.34 71.89L1130.97 71.78L1123.38 71.89C1122.14 71.9633 1120.41 72 1118.21 72C1117.99 72 1117.88 71.78 1117.88 71.34C1117.88 70.9 1117.99 70.68 1118.21 70.68C1121.15 70.68 1123.27 70.4967 1124.59 70.13C1125.91 69.7633 1126.79 69.0667 1127.23 68.04C1127.75 67.0133 1128 65.3633 1128 63.09V37.24H1084.11V63.09C1084.11 65.3633 1084.33 67.0133 1084.77 68.04C1085.29 69.0667 1086.2 69.7633 1087.52 70.13C1088.84 70.4967 1090.97 70.68 1093.9 70.68C1094.05 70.68 1094.12 70.9 1094.12 71.34C1094.12 71.78 1094.05 72 1093.9 72C1091.7 72 1089.94 71.9633 1088.62 71.89L1081.14 71.78L1073.88 71.89C1072.56 71.9633 1070.73 72 1068.38 72C1068.24 72 1068.16 71.78 1068.16 71.34C1068.16 70.9 1068.24 70.68 1068.38 70.68C1071.24 70.68 1073.33 70.4967 1074.65 70.13C1076.05 69.7633 1077 69.0667 1077.51 68.04C1078.03 66.94 1078.28 65.29 1078.28 63.09V12.16C1078.28 9.96 1078.03 8.34667 1077.51 7.32C1077.07 6.29333 1076.16 5.59666 1074.76 5.22999C1073.44 4.79 1071.35 4.57 1068.49 4.57C1068.35 4.57 1068.27 4.35 1068.27 3.91C1068.27 3.47 1068.35 3.25 1068.49 3.25L1073.88 3.36C1076.96 3.50666 1079.38 3.58 1081.14 3.58C1083.12 3.58 1085.65 3.50666 1088.73 3.36L1093.9 3.25C1094.05 3.25 1094.12 3.47 1094.12 3.91C1094.12 4.35 1094.05 4.57 1093.9 4.57C1091.04 4.57 1088.92 4.79 1087.52 5.22999C1086.2 5.67 1085.29 6.44 1084.77 7.54C1084.33 8.56666 1084.11 10.18 1084.11 12.38V35.15H1128V12.38C1128 10.18 1127.75 8.56666 1127.23 7.54C1126.79 6.44 1125.88 5.67 1124.48 5.22999C1123.16 4.79 1121.07 4.57 1118.21 4.57C1117.99 4.57 1117.88 4.35 1117.88 3.91C1117.88 3.47 1117.99 3.25 1118.21 3.25L1123.38 3.36C1126.46 3.50666 1128.99 3.58 1130.97 3.58C1132.81 3.58 1135.26 3.50666 1138.34 3.36L1143.62 3.25C1143.84 3.25 1143.95 3.47 1143.95 3.91C1143.95 4.35 1143.84 4.57 1143.62 4.57C1140.76 4.57 1138.64 4.79 1137.24 5.22999C1135.92 5.59666 1135.01 6.29333 1134.49 7.32C1133.98 8.34667 1133.72 9.96 1133.72 12.16V63.09C1133.72 65.29 1133.98 66.94 1134.49 68.04C1135.01 69.0667 1135.92 69.7633 1137.24 70.13C1138.64 70.4967 1140.76 70.68 1143.62 70.68Z" fill="#353535"/>
</svg>
