<svg width="1144" height="78" viewBox="0 0 1144 78" fill="none" xmlns="http://www.w3.org/2000/svg"><path d="M25.809 2.04c7.92 0 14.373 1.577 19.36 4.73 5.06 3.08 8.69 7.15 10.89 12.21 2.273 5.06 3.41 10.633 3.41 16.72 0 7.7-1.687 14.41-5.06 20.13-3.374 5.647-7.847 9.973-13.42 12.98-5.574 3.007-11.624 4.51-18.15 4.51-3.3 0-6.784-.367-10.45-1.1-3.594-.733-6.454-1.76-8.58-3.08-.66-.367-1.064-.66-1.21-.88-.147-.293-.257-.843-.33-1.65L.949 55.06c0-.22.183-.367.55-.44.44-.073.696 0 .77.22 1.466 5.573 4.363 9.607 8.69 12.1 4.4 2.42 9.496 3.63 15.29 3.63 8.946 0 15.62-2.677 20.02-8.03s6.6-12.907 6.6-22.66c0-1.247-.037-2.163-.11-2.75h-16.83c-3.667 0-6.49.293-8.47.88-1.98.513-3.41 1.503-4.29 2.97-.88 1.467-1.32 3.557-1.32 6.27 0 .22-.22.33-.66.33-.44 0-.66-.11-.66-.33l.11-11.11c0-2.2-.037-3.813-.11-4.84l-.11-5.06c0-.22.22-.33.66-.33.44 0 .66.11.66.33.146 3.007 1.283 5.243 3.41 6.71 2.2 1.393 5.94 2.09 11.22 2.09h16.28c-.514-6.527-2.017-12.173-4.51-16.94-2.494-4.767-5.72-8.433-9.68-11-3.887-2.567-8.25-3.85-13.09-3.85-4.914 0-9.424 1.393-13.53 4.18-4.034 2.787-7.15 6.967-9.35 12.54-.074.293-.294.403-.66.33-.367-.073-.55-.22-.55-.44L2.819 8.2c.146-.88.293-1.467.44-1.76.146-.293.55-.587 1.21-.88 7.04-2.347 14.153-3.52 21.34-3.52zm57.026 3.08c-4.62 0-7.993 1.1-10.12 3.3-2.127 2.2-3.556 6.123-4.29 11.77 0 .147-.22.22-.66.22-.44 0-.66-.073-.66-.22.293-1.98.623-5.133.99-9.46.367-4.4.55-7.7.55-9.9 0-.367.22-.55.66-.55.44 0 .66.183.66.55 0 1.613 1.944 2.42 5.83 2.42 6.307.22 13.677.33 22.11.33 4.327 0 8.91-.073 13.75-.22l7.48-.11c2.64 0 4.583-.183 5.83-.55 1.247-.367 2.053-1.1 2.42-2.2.073-.293.293-.44.66-.44.367 0 .55.147.55.44-.22 2.053-.44 5.207-.66 9.46-.22 4.18-.33 7.59-.33 10.23 0 .147-.22.22-.66.22-.44 0-.66-.073-.66-.22 0-3.887-.403-6.893-1.21-9.02-.807-2.127-2.163-3.667-4.07-4.62-1.907-.953-4.583-1.43-8.03-1.43-3.813 0-6.49.147-8.03.44-1.54.22-2.603.807-3.19 1.76-.513.953-.77 2.64-.77 5.06v50.71c0 2.273.257 3.923.77 4.95.513 1.027 1.54 1.723 3.08 2.09 1.54.367 3.96.55 7.26.55.147 0 .22.22.22.66 0 .44-.073.66-.22.66-2.42 0-4.327-.037-5.72-.11l-8.47-.11-8.03.11c-1.466.073-3.483.11-6.05.11-.147 0-.22-.22-.22-.66 0-.44.073-.66.22-.66 3.3 0 5.72-.183 7.26-.55 1.54-.367 2.567-1.063 3.08-2.09.587-1.1.88-2.75.88-4.95V12.16c0-2.42-.293-4.07-.88-4.95-.587-.953-1.65-1.54-3.19-1.76-1.466-.22-4.18-.33-8.14-.33zm88.673 68.2c-6.82 0-12.907-1.577-18.26-4.73-5.28-3.227-9.387-7.553-12.32-12.98-2.86-5.5-4.29-11.477-4.29-17.93 0-7.553 1.907-14.007 5.72-19.36 3.813-5.427 8.69-9.497 14.63-12.21 6.013-2.713 12.137-4.07 18.37-4.07 6.967 0 13.09 1.65 18.37 4.95 5.28 3.227 9.313 7.517 12.1 12.87 2.86 5.353 4.29 11.037 4.29 17.05 0 6.673-1.76 12.797-5.28 18.37-3.52 5.573-8.25 9.973-14.19 13.2-5.867 3.227-12.247 4.84-19.14 4.84zm3.96-2.2c5.207 0 9.9-1.21 14.08-3.63s7.48-5.977 9.9-10.67 3.63-10.303 3.63-16.83c0-6.893-1.357-13.017-4.07-18.37-2.64-5.427-6.417-9.643-11.33-12.65-4.84-3.007-10.487-4.51-16.94-4.51-8.507 0-15.143 2.64-19.91 7.92-4.767 5.28-7.15 12.467-7.15 21.56 0 6.82 1.32 13.09 3.96 18.81 2.713 5.647 6.49 10.12 11.33 13.42 4.84 3.3 10.34 4.95 16.5 4.95zm57.865-66c-4.62 0-7.993 1.1-10.12 3.3-2.126 2.2-3.556 6.123-4.29 11.77 0 .147-.22.22-.66.22-.44 0-.66-.073-.66-.22.294-1.98.624-5.133.99-9.46.367-4.4.55-7.7.55-9.9 0-.367.22-.55.66-.55.44 0 .66.183.66.55 0 1.613 1.944 2.42 5.83 2.42 6.307.22 13.677.33 22.11.33 4.327 0 8.91-.073 13.75-.22l7.48-.11c2.64 0 4.584-.183 5.83-.55 1.247-.367 2.054-1.1 2.42-2.2.074-.293.294-.44.66-.44.367 0 .55.147.55.44-.22 2.053-.44 5.207-.66 9.46-.22 4.18-.33 7.59-.33 10.23 0 .147-.22.22-.66.22-.44 0-.66-.073-.66-.22 0-3.887-.403-6.893-1.21-9.02-.806-2.127-2.163-3.667-4.07-4.62-1.906-.953-4.583-1.43-8.03-1.43-3.813 0-6.49.147-8.03.44-1.54.22-2.603.807-3.19 1.76-.513.953-.77 2.64-.77 5.06v50.71c0 2.273.257 3.923.77 4.95.514 1.027 1.54 1.723 3.08 2.09 1.54.367 3.96.55 7.26.55.147 0 .22.22.22.66 0 .44-.073.66-.22.66-2.42 0-4.326-.037-5.72-.11l-8.47-.11-8.03.11c-1.466.073-3.483.11-6.05.11-.146 0-.22-.22-.22-.66 0-.44.074-.66.22-.66 3.3 0 5.72-.183 7.26-.55 1.54-.367 2.567-1.063 3.08-2.09.587-1.1.88-2.75.88-4.95V12.16c0-2.42-.293-4.07-.88-4.95-.586-.953-1.65-1.54-3.19-1.76-1.466-.22-4.18-.33-8.14-.33zm145.993 65.56c.147 0 .22.22.22.66 0 .44-.073.66-.22.66h-13.09c-1.026 0-1.943-.257-2.75-.77-.733-.587-1.98-2.053-3.74-4.4-1.76-2.347-4.913-6.783-9.46-13.31-3.446-5.06-6.05-8.58-7.81-10.56-1.686-2.053-3.41-3.483-5.17-4.29-1.76-.88-4.106-1.32-7.04-1.32-.733 0-1.32.037-1.76.11v25.63c0 2.273.22 3.923.66 4.95.514 1.027 1.43 1.723 2.75 2.09 1.32.367 3.447.55 6.38.55.147 0 .22.22.22.66 0 .44-.073.66-.22.66-2.2 0-3.96-.037-5.28-.11l-7.48-.11-7.26.11c-1.32.073-3.153.11-5.5.11-.146 0-.22-.22-.22-.66 0-.44.074-.66.22-.66 2.86 0 4.95-.183 6.27-.55 1.394-.367 2.347-1.063 2.86-2.09.514-1.1.77-2.75.77-4.95V12.16c0-2.2-.256-3.813-.77-4.84-.44-1.027-1.356-1.723-2.75-2.09-1.32-.44-3.41-.66-6.27-.66-.146 0-.22-.22-.22-.66 0-.44.074-.66.22-.66l5.39.11c3.08.147 5.5.22 7.26.22 1.98 0 4.51-.073 7.59-.22l5.17-.11c.147 0 .22.22.22.66 0 .44-.073.66-.22.66-2.86 0-4.986.22-6.38.66-1.32.44-2.236 1.21-2.75 2.31-.44 1.027-.66 2.64-.66 4.84v23.21c3.96-.147 6.417-.22 7.37-.22 1.174 0 2.017.037 2.53.11l13.86-19.36c1.76-2.493 3.044-4.437 3.85-5.83.807-1.467 1.21-2.603 1.21-3.41 0-.88-.476-1.467-1.43-1.76-.953-.367-2.456-.55-4.51-.55-.146 0-.22-.22-.22-.66 0-.44.074-.66.22-.66l4.62.11c2.787.147 5.354.22 7.7.22 2.347 0 4.767-.073 7.26-.22l3.85-.11c.22 0 .33.22.33.66 0 .44-.11.66-.33.66-4.033 0-7.37.88-10.01 2.64-2.566 1.76-5.646 4.987-9.24 9.68l-14.63 18.92c2.127.44 3.96 1.467 5.5 3.08 1.614 1.613 3.997 4.73 7.15 9.35l2.2 3.08c3.374 4.84 6.16 8.543 8.36 11.11 2.2 2.567 4.51 4.583 6.93 6.05 2.42 1.393 5.17 2.127 8.25 2.2zm68.89-67.43c.147 0 .22.22.22.66 0 .44-.073.66-.22.66-3.666 0-6.783 2.53-9.35 7.59l-20.9 44.22c-1.98 4.327-3.19 6.967-3.63 7.92-1.173 2.713-2.016 4.547-2.53 5.5-.513.88-1.063 1.467-1.65 1.76-.513.293-1.32.44-2.42.44h-15.62c-.22 0-.33-.22-.33-.66 0-.44.11-.66.33-.66 5.5 0 10.047-1.027 13.64-3.08 3.667-2.127 6.784-5.793 9.35-11l-23.54-44.22c-1.54-2.933-3.006-4.95-4.4-6.05-1.32-1.173-3.08-1.76-5.28-1.76-.146 0-.22-.22-.22-.66 0-.44.074-.66.22-.66l4.73.11c2.2.147 3.777.22 4.73.22 2.127 0 4.657-.073 7.59-.22l4.73-.11c.22 0 .33.22.33.66 0 .44-.11.66-.33.66-4.546 0-6.82 1.173-6.82 3.52 0 .88.33 1.943.99 3.19l20.68 38.17 18.04-37.95c.66-1.32.99-2.42.99-3.3 0-1.247-.733-2.163-2.2-2.75-1.393-.587-3.63-.88-6.71-.88-.22 0-.33-.22-.33-.66 0-.44.11-.66.33-.66l4.4.11c2.494.147 4.73.22 6.71.22 1.174 0 2.64-.073 4.4-.22l4.07-.11zm20.064 59.4c0 2.347.33 4.07.99 5.17.66 1.027 1.907 1.76 3.74 2.2 1.907.44 4.914.66 9.02.66.22 0 .33.22.33.66 0 .44-.11.66-.33.66-3.006 0-5.353-.037-7.04-.11l-9.57-.11-7.26.11c-1.32.073-3.153.11-5.5.11-.146 0-.22-.22-.22-.66 0-.44.074-.66.22-.66 2.86 0 4.95-.183 6.27-.55 1.394-.367 2.31-1.063 2.75-2.09.514-1.1.77-2.75.77-4.95V12.16c0-2.2-.256-3.813-.77-4.84-.44-1.027-1.356-1.723-2.75-2.09-1.32-.44-3.41-.66-6.27-.66-.146 0-.22-.22-.22-.66 0-.44.074-.66.22-.66l5.39.11c3.08.147 5.5.22 7.26.22 1.76 0 3.777-.11 6.05-.33 5.72-.22 8.837-.33 9.35-.33 6.454 0 11.697 1.503 15.73 4.51 4.034 2.933 6.05 7.443 6.05 13.53 0 4.913-1.21 9.057-3.63 12.43-2.42 3.3-5.5 5.757-9.24 7.37-3.666 1.613-7.48 2.42-11.44 2.42-2.2 0-3.996-.183-5.39-.55-.22 0-.33-.183-.33-.55 0-.22.037-.44.11-.66.147-.22.294-.293.44-.22 1.174.293 2.494.44 3.96.44 5.207 0 9.607-1.577 13.2-4.73 3.667-3.153 5.5-7.737 5.5-13.75 0-3.887-.77-7.223-2.31-10.01-1.54-2.86-3.666-5.023-6.38-6.49-2.64-1.54-5.573-2.31-8.8-2.31-3.006 0-5.133.147-6.38.44-1.246.293-2.163.99-2.75 2.09-.513 1.027-.77 2.86-.77 5.5v50.27zm84.155-60.61c4.62 0 8.506.33 11.66.99 3.153.66 6.306 1.797 9.46 3.41.513.293.806.55.88.77.073.22.183.77.33 1.65l1.32 13.09c0 .22-.22.367-.66.44-.367 0-.587-.11-.66-.33-3.374-12.247-10.927-18.37-22.66-18.37-6.16 0-11.587 1.357-16.28 4.07-4.694 2.713-8.324 6.6-10.89 11.66-2.567 4.987-3.85 10.817-3.85 17.49 0 6.38 1.393 12.247 4.18 17.6 2.86 5.28 6.673 9.46 11.44 12.54 4.84 3.08 10.083 4.62 15.73 4.62 6.013 0 10.89-1.467 14.63-4.4 3.74-2.933 6.6-7.407 8.58-13.42 0-.147.183-.22.55-.22.513 0 .77.11.77.33l-1.1 12.1c-.074.88-.184 1.43-.33 1.65-.147.22-.44.477-.88.77-3.814 1.833-7.407 3.117-10.78 3.85-3.3.733-7.114 1.1-11.44 1.1-7.7 0-14.594-1.503-20.68-4.51-6.014-3.08-10.707-7.37-14.08-12.87-3.374-5.5-5.06-11.807-5.06-18.92 0-6.893 1.723-12.98 5.17-18.26 3.446-5.353 8.176-9.497 14.19-12.43 6.086-2.933 12.906-4.4 20.46-4.4zm138.921 24.97a47.662 47.662 0 01-.33 3.52 15.278 15.278 0 01-.55 3.19c-2.347 8.433-8.47 17.343-18.37 26.73-5.207 4.84-10.89 8.727-17.05 11.66-6.967 3.447-13.603 5.097-19.91 4.95-5.28-.147-9.717-1.393-13.31-3.74-4.18-2.86-6.27-6.82-6.27-11.88 0-7.04 3.997-15.327 11.99-24.86 1.247-1.467 2.86-3.153 4.84-5.06 1.98-1.907 4.327-3.997 7.04-6.27 5.353-4.62 8.873-7.15 10.56-7.59.367-.147.623-.147.77 0 .073.073.037.293-.11.66-2.86 1.54-6.563 4.473-11.11 8.8-4.547 4.327-7.957 8.067-10.23 11.22-5.207 7.113-7.883 14.117-8.03 21.01 0 4.693 1.54 8.433 4.62 11.22 3.08 2.713 6.967 4.143 11.66 4.29 5.353.073 11.33-1.467 17.93-4.62 6.013-2.933 11.147-6.49 15.4-10.67a59.134 59.134 0 0010.23-13.42c2.053-3.593 3.41-6.893 4.07-9.9.88-3.593 1.32-6.527 1.32-8.8-.073-4.253-1.283-7.773-3.63-10.56-2.273-2.86-5.5-4.327-9.68-4.4-4.84-.073-8.69 1.173-11.55 3.74-2.713 2.493-4.07 5.243-4.07 8.25 0 1.98.513 3.557 1.54 4.73-3.74-.073-5.61-1.613-5.61-4.62 0-1.173.66-2.603 1.98-4.29 5.133-6.233 11.807-9.35 20.02-9.35 4.547 0 8.287 1.283 11.22 3.85 3.153 2.86 4.693 6.93 4.62 12.21zm40.156-24.97c3.593 0 7.187.367 10.78 1.1 3.667.733 6.6 1.723 8.8 2.97.587.367.953.733 1.1 1.1.22.293.367.807.44 1.54l1.21 11.55c0 .22-.183.367-.55.44-.367 0-.587-.11-.66-.33-2.64-10.707-11.11-16.06-25.41-16.06-5.72 0-10.78 1.247-15.18 3.74-4.327 2.42-7.7 5.867-10.12 10.34-2.42 4.473-3.63 9.643-3.63 15.51 0 6.893 1.503 13.273 4.51 19.14 3.007 5.793 7.003 10.413 11.99 13.86 4.987 3.373 10.377 5.06 16.17 5.06 5.427 0 10.083-1.43 13.97-4.29 3.96-2.86 6.857-7.223 8.69-13.09 0-.22.147-.33.44-.33.22 0 .403.037.55.11.22.073.33.183.33.33l-1.54 11.77c-.147.88-.33 1.467-.55 1.76-.147.22-.55.477-1.21.77-6.527 2.86-13.53 4.29-21.01 4.29-8.8 0-16.133-1.76-22-5.28-5.867-3.593-10.193-8.14-12.98-13.64-2.787-5.573-4.18-11.403-4.18-17.49 0-6.673 1.87-12.65 5.61-17.93 3.74-5.353 8.69-9.497 14.85-12.43 6.16-3.007 12.687-4.51 19.58-4.51zm107.354 68.64c.22 0 .33.22.33.66 0 .44-.11.66-.33.66-2.273 0-4.033-.037-5.28-.11l-7.37-.11-7.59.11c-1.247.073-2.97.11-5.17.11-.22 0-.33-.22-.33-.66 0-.44.11-.66.33-.66 2.933 0 5.06-.183 6.38-.55 1.32-.367 2.2-1.063 2.64-2.09.513-1.027.77-2.677.77-4.95V37.24h-43.89v25.85c0 2.273.22 3.923.66 4.95.513 1.027 1.43 1.723 2.75 2.09 1.32.367 3.447.55 6.38.55.147 0 .22.22.22.66 0 .44-.073.66-.22.66-2.2 0-3.96-.037-5.28-.11l-7.48-.11-7.26.11c-1.32.073-3.153.11-5.5.11-.147 0-.22-.22-.22-.66 0-.44.073-.66.22-.66 2.86 0 4.95-.183 6.27-.55 1.393-.367 2.347-1.063 2.86-2.09.513-1.1.77-2.75.77-4.95V12.16c0-2.2-.257-3.813-.77-4.84-.44-1.027-1.357-1.723-2.75-2.09-1.32-.44-3.41-.66-6.27-.66-.147 0-.22-.22-.22-.66 0-.44.073-.66.22-.66l5.39.11c3.08.147 5.5.22 7.26.22 1.98 0 4.51-.073 7.59-.22l5.17-.11c.147 0 .22.22.22.66 0 .44-.073.66-.22.66-2.86 0-4.987.22-6.38.66-1.32.44-2.237 1.21-2.75 2.31-.44 1.027-.66 2.64-.66 4.84v22.77h43.89V12.38c0-2.2-.257-3.813-.77-4.84-.44-1.1-1.357-1.87-2.75-2.31-1.32-.44-3.41-.66-6.27-.66-.22 0-.33-.22-.33-.66 0-.44.11-.66.33-.66l5.17.11c3.08.147 5.61.22 7.59.22 1.833 0 4.29-.073 7.37-.22l5.28-.11c.22 0 .33.22.33.66 0 .44-.11.66-.33.66-2.86 0-4.987.22-6.38.66-1.32.367-2.237 1.063-2.75 2.09-.513 1.027-.77 2.64-.77 4.84v50.93c0 2.2.257 3.85.77 4.95.513 1.027 1.43 1.723 2.75 2.09 1.393.367 3.52.55 6.38.55zm44.419 2.64c-6.82 0-12.906-1.577-18.26-4.73-5.28-3.227-9.386-7.553-12.32-12.98-2.86-5.5-4.29-11.477-4.29-17.93 0-7.553 1.907-14.007 5.72-19.36 3.814-5.427 8.69-9.497 14.63-12.21 6.014-2.713 12.137-4.07 18.37-4.07 6.967 0 13.09 1.65 18.37 4.95 5.28 3.227 9.314 7.517 12.1 12.87 2.86 5.353 4.29 11.037 4.29 17.05 0 6.673-1.76 12.797-5.28 18.37-3.52 5.573-8.25 9.973-14.19 13.2-5.866 3.227-12.246 4.84-19.14 4.84zm3.96-2.2c5.207 0 9.9-1.21 14.08-3.63s7.48-5.977 9.9-10.67 3.63-10.303 3.63-16.83c0-6.893-1.356-13.017-4.07-18.37-2.64-5.427-6.416-9.643-11.33-12.65-4.84-3.007-10.486-4.51-16.94-4.51-8.506 0-15.143 2.64-19.91 7.92-4.766 5.28-7.15 12.467-7.15 21.56 0 6.82 1.32 13.09 3.96 18.81 2.714 5.647 6.49 10.12 11.33 13.42 4.84 3.3 10.34 4.95 16.5 4.95zm75.749-37.95c5.72.367 10.34 2.273 13.86 5.72 3.52 3.447 5.28 7.7 5.28 12.76 0 3.96-.917 7.517-2.75 10.67-1.833 3.153-4.363 5.647-7.59 7.48-3.227 1.76-6.783 2.64-10.67 2.64-2.493 0-5.133-.11-7.92-.33a197.98 197.98 0 00-3.63-.22 90.914 90.914 0 00-4.73-.11l-7.26.11c-1.32.073-3.153.11-5.5.11-.147 0-.22-.22-.22-.66 0-.44.073-.66.22-.66 2.933 0 5.06-.183 6.38-.55 1.393-.367 2.347-1.063 2.86-2.09.513-1.1.77-2.75.77-4.95V12.16c0-2.2-.257-3.813-.77-4.84-.44-1.027-1.357-1.723-2.75-2.09-1.32-.44-3.41-.66-6.27-.66-.22 0-.33-.22-.33-.66 0-.44.11-.66.33-.66l5.28.11c2.933.147 5.353.22 7.26.22 1.32 0 2.567-.037 3.74-.11 1.173-.073 2.2-.147 3.08-.22 2.273-.22 4.29-.33 6.05-.33 6.087 0 10.56 1.393 13.42 4.18 2.933 2.713 4.4 6.197 4.4 10.45 0 3.593-1.137 6.747-3.41 9.46-2.273 2.64-5.317 4.693-9.13 6.16zm-7.81-28.82c-2.053 0-3.557.147-4.51.44-.953.293-1.687.99-2.2 2.09-.44 1.1-.66 2.933-.66 5.5v20.9l5.17.11c5.793 0 10.01-1.357 12.65-4.07 2.64-2.787 3.96-6.453 3.96-11 0-4.107-1.173-7.443-3.52-10.01-2.273-2.64-5.903-3.96-10.89-3.96zm4.4 66.33c5.427 0 9.46-1.393 12.1-4.18 2.713-2.86 4.07-6.893 4.07-12.1 0-5.573-1.723-10.083-5.17-13.53-3.373-3.52-7.957-5.317-13.75-5.39-2.713-.073-5.72 0-9.02.22v27.39c0 1.98.293 3.52.88 4.62.66 1.027 1.833 1.797 3.52 2.31 1.687.44 4.143.66 7.37.66zm104.376 0c.29 0 .44.22.44.66 0 .44-.15.66-.44.66-1.32 0-3.45-.073-6.38-.22-2.79-.147-4.84-.22-6.16-.22-1.54 0-3.56.073-6.05.22-2.35.147-4.11.22-5.28.22-.3 0-.44-.22-.44-.66 0-.44.14-.66.44-.66 3 0 5.17-.257 6.49-.77 1.32-.587 1.98-1.54 1.98-2.86 0-1.027-.41-2.457-1.21-4.29l-10.34-22.33h-26.18l-7.48 18.04c-1.03 2.493-1.54 4.547-1.54 6.16 0 2.127.88 3.667 2.64 4.62 1.76.953 4.51 1.43 8.25 1.43.36 0 .55.22.55.66 0 .44-.19.66-.55.66-1.32 0-3.23-.073-5.72-.22-2.79-.147-5.21-.22-7.265-.22-1.833 0-3.996.073-6.49.22-2.2.147-3.996.22-5.39.22-.366 0-.55-.22-.55-.66 0-.44.184-.66.55-.66 2.054 0 3.777-.367 5.17-1.1 1.467-.733 2.824-2.053 4.07-3.96 1.32-1.907 2.714-4.62 4.185-8.14l22.99-55.33c.14-.22.36-.33.66-.33.36 0 .58.11.66.33l25.52 54.78c1.68 3.74 3.19 6.6 4.51 8.58 1.32 1.907 2.6 3.263 3.85 4.07 1.32.733 2.82 1.1 4.51 1.1zm-52.25-32.23h24.31l-12.87-27.61-11.44 27.61zm131.91 32.23c.22 0 .33.22.33.66 0 .44-.11.66-.33.66-2.27 0-4.03-.037-5.28-.11l-7.37-.11-7.59.11c-1.24.073-2.97.11-5.17.11-.22 0-.33-.22-.33-.66 0-.44.11-.66.33-.66 2.94 0 5.06-.183 6.38-.55 1.32-.367 2.2-1.063 2.64-2.09.52-1.027.77-2.677.77-4.95V37.24h-43.89v25.85c0 2.273.22 3.923.66 4.95.52 1.027 1.43 1.723 2.75 2.09 1.32.367 3.45.55 6.38.55.15 0 .22.22.22.66 0 .44-.07.66-.22.66-2.2 0-3.96-.037-5.28-.11l-7.48-.11-7.26.11c-1.32.073-3.15.11-5.5.11-.14 0-.22-.22-.22-.66 0-.44.08-.66.22-.66 2.86 0 4.95-.183 6.27-.55 1.4-.367 2.35-1.063 2.86-2.09.52-1.1.77-2.75.77-4.95V12.16c0-2.2-.25-3.813-.77-4.84-.44-1.027-1.35-1.723-2.75-2.09-1.32-.44-3.41-.66-6.27-.66-.14 0-.22-.22-.22-.66 0-.44.08-.66.22-.66l5.39.11c3.08.147 5.5.22 7.26.22 1.98 0 4.51-.073 7.59-.22l5.17-.11c.15 0 .22.22.22.66 0 .44-.07.66-.22.66-2.86 0-4.98.22-6.38.66-1.32.44-2.23 1.21-2.75 2.31-.44 1.027-.66 2.64-.66 4.84v22.77H1128V12.38c0-2.2-.25-3.813-.77-4.84-.44-1.1-1.35-1.87-2.75-2.31-1.32-.44-3.41-.66-6.27-.66-.22 0-.33-.22-.33-.66 0-.44.11-.66.33-.66l5.17.11c3.08.147 5.61.22 7.59.22 1.84 0 4.29-.073 7.37-.22l5.28-.11c.22 0 .33.22.33.66 0 .44-.11.66-.33.66-2.86 0-4.98.22-6.38.66-1.32.367-2.23 1.063-2.75 2.09-.51 1.027-.77 2.64-.77 4.84v50.93c0 2.2.26 3.85.77 4.95.52 1.027 1.43 1.723 2.75 2.09 1.4.367 3.52.55 6.38.55z" fill="#353535"/></svg>