<svg width="252" height="88" viewBox="0 0 252 88" fill="none" xmlns="http://www.w3.org/2000/svg">
<path d="M11.4667 1.472C14.9227 1.472 17.7387 2.16 19.9147 3.536C22.1227 4.88 23.7067 6.656 24.6667 8.864C25.6587 11.072 26.1547 13.504 26.1547 16.16C26.1547 19.52 25.4187 22.448 23.9467 24.944C22.4747 27.408 20.5227 29.296 18.0907 30.608C15.6587 31.92 13.0187 32.576 10.1707 32.576C8.73069 32.576 7.21069 32.416 5.61069 32.096C4.04269 31.776 2.79469 31.328 1.86669 30.752C1.57869 30.592 1.40269 30.464 1.33869 30.368C1.27469 30.24 1.22669 30 1.19469 29.648L0.618688 24.608C0.618688 24.512 0.698688 24.448 0.858688 24.416C1.05069 24.384 1.16269 24.416 1.19469 24.512C1.83469 26.944 3.09869 28.704 4.98669 29.792C6.90669 30.848 9.13069 31.376 11.6587 31.376C15.5627 31.376 18.4747 30.208 20.3947 27.872C22.3147 25.536 23.2747 22.24 23.2747 17.984C23.2747 17.44 23.2587 17.04 23.2267 16.784H15.8827C14.2827 16.784 13.0507 16.912 12.1867 17.168C11.3227 17.392 10.6987 17.824 10.3147 18.464C9.93069 19.104 9.73869 20.016 9.73869 21.2C9.73869 21.296 9.64269 21.344 9.45069 21.344C9.25869 21.344 9.16269 21.296 9.16269 21.2L9.21069 16.352C9.21069 15.392 9.19469 14.688 9.16269 14.24L9.11469 12.032C9.11469 11.936 9.21069 11.888 9.40269 11.888C9.59469 11.888 9.69069 11.936 9.69069 12.032C9.75469 13.344 10.2507 14.32 11.1787 14.96C12.1387 15.568 13.7707 15.872 16.0747 15.872H23.1787C22.9547 13.024 22.2987 10.56 21.2107 8.48C20.1227 6.4 18.7147 4.8 16.9867 3.68C15.2907 2.56 13.3867 2 11.2747 2C9.13069 2 7.16269 2.608 5.37069 3.824C3.61069 5.04 2.25069 6.864 1.29069 9.296C1.25869 9.424 1.16269 9.472 1.00269 9.44C0.842688 9.408 0.762688 9.344 0.762688 9.248L1.43469 4.16C1.49869 3.776 1.56269 3.52 1.62669 3.392C1.69069 3.264 1.86669 3.136 2.15469 3.008C5.22669 1.984 8.33069 1.472 11.4667 1.472ZM36.3509 2.816C34.3349 2.816 32.8629 3.296 31.9349 4.256C31.0069 5.216 30.3829 6.928 30.0629 9.392C30.0629 9.456 29.9669 9.488 29.7749 9.488C29.5829 9.488 29.4869 9.456 29.4869 9.392C29.6149 8.528 29.7589 7.152 29.9189 5.264C30.0789 3.344 30.1589 1.904 30.1589 0.943999C30.1589 0.783999 30.2549 0.704 30.4469 0.704C30.6389 0.704 30.7349 0.783999 30.7349 0.943999C30.7349 1.648 31.5829 2 33.2789 2C36.0309 2.096 39.2469 2.144 42.9269 2.144C44.8149 2.144 46.8149 2.112 48.9269 2.048L52.1909 2C53.3429 2 54.1909 1.92 54.7349 1.76C55.2789 1.6 55.6309 1.28 55.7909 0.799998C55.8229 0.671998 55.9189 0.607998 56.0789 0.607998C56.2389 0.607998 56.3189 0.671998 56.3189 0.799998C56.2229 1.696 56.1269 3.072 56.0309 4.928C55.9349 6.752 55.8869 8.24 55.8869 9.392C55.8869 9.456 55.7909 9.488 55.5989 9.488C55.4069 9.488 55.3109 9.456 55.3109 9.392C55.3109 7.696 55.1349 6.384 54.7829 5.456C54.4309 4.528 53.8389 3.856 53.0069 3.44C52.1749 3.024 51.0069 2.816 49.5029 2.816C47.8389 2.816 46.6709 2.88 45.9989 3.008C45.3269 3.104 44.8629 3.36 44.6069 3.776C44.3829 4.192 44.2709 4.928 44.2709 5.984V28.112C44.2709 29.104 44.3829 29.824 44.6069 30.272C44.8309 30.72 45.2789 31.024 45.9509 31.184C46.6229 31.344 47.6789 31.424 49.1189 31.424C49.1829 31.424 49.2149 31.52 49.2149 31.712C49.2149 31.904 49.1829 32 49.1189 32C48.0629 32 47.2309 31.984 46.6229 31.952L42.9269 31.904L39.4229 31.952C38.7829 31.984 37.9029 32 36.7829 32C36.7189 32 36.6869 31.904 36.6869 31.712C36.6869 31.52 36.7189 31.424 36.7829 31.424C38.2229 31.424 39.2789 31.344 39.9509 31.184C40.6229 31.024 41.0709 30.72 41.2949 30.272C41.5509 29.792 41.6789 29.072 41.6789 28.112V5.888C41.6789 4.832 41.5509 4.112 41.2949 3.728C41.0389 3.312 40.5749 3.056 39.9029 2.96C39.2629 2.864 38.0789 2.816 36.3509 2.816ZM75.0446 32.576C72.0686 32.576 69.4126 31.888 67.0766 30.512C64.7726 29.104 62.9806 27.216 61.7006 24.848C60.4526 22.448 59.8286 19.84 59.8286 17.024C59.8286 13.728 60.6606 10.912 62.3246 8.576C63.9886 6.208 66.1166 4.432 68.7086 3.248C71.3326 2.064 74.0046 1.472 76.7246 1.472C79.7646 1.472 82.4366 2.192 84.7406 3.632C87.0446 5.04 88.8046 6.912 90.0206 9.248C91.2686 11.584 91.8926 14.064 91.8926 16.688C91.8926 19.6 91.1246 22.272 89.5886 24.704C88.0526 27.136 85.9886 29.056 83.3966 30.464C80.8366 31.872 78.0526 32.576 75.0446 32.576ZM76.7726 31.616C79.0446 31.616 81.0926 31.088 82.9166 30.032C84.7406 28.976 86.1806 27.424 87.2366 25.376C88.2926 23.328 88.8206 20.88 88.8206 18.032C88.8206 15.024 88.2286 12.352 87.0446 10.016C85.8926 7.648 84.2446 5.808 82.1006 4.496C79.9886 3.184 77.5246 2.528 74.7086 2.528C70.9966 2.528 68.1006 3.68 66.0206 5.984C63.9406 8.288 62.9006 11.424 62.9006 15.392C62.9006 18.368 63.4766 21.104 64.6286 23.6C65.8126 26.064 67.4606 28.016 69.5726 29.456C71.6846 30.896 74.0846 31.616 76.7726 31.616ZM102.023 2.816C100.007 2.816 98.5348 3.296 97.6068 4.256C96.6788 5.216 96.0548 6.928 95.7348 9.392C95.7348 9.456 95.6388 9.488 95.4468 9.488C95.2548 9.488 95.1588 9.456 95.1588 9.392C95.2868 8.528 95.4308 7.152 95.5908 5.264C95.7508 3.344 95.8308 1.904 95.8308 0.943999C95.8308 0.783999 95.9268 0.704 96.1188 0.704C96.3108 0.704 96.4068 0.783999 96.4068 0.943999C96.4068 1.648 97.2548 2 98.9508 2C101.703 2.096 104.919 2.144 108.599 2.144C110.487 2.144 112.487 2.112 114.599 2.048L117.863 2C119.015 2 119.863 1.92 120.407 1.76C120.951 1.6 121.303 1.28 121.463 0.799998C121.495 0.671998 121.591 0.607998 121.751 0.607998C121.911 0.607998 121.991 0.671998 121.991 0.799998C121.895 1.696 121.799 3.072 121.703 4.928C121.607 6.752 121.559 8.24 121.559 9.392C121.559 9.456 121.463 9.488 121.271 9.488C121.079 9.488 120.983 9.456 120.983 9.392C120.983 7.696 120.807 6.384 120.455 5.456C120.103 4.528 119.511 3.856 118.679 3.44C117.847 3.024 116.679 2.816 115.175 2.816C113.511 2.816 112.343 2.88 111.671 3.008C110.999 3.104 110.535 3.36 110.279 3.776C110.055 4.192 109.943 4.928 109.943 5.984V28.112C109.943 29.104 110.055 29.824 110.279 30.272C110.503 30.72 110.951 31.024 111.623 31.184C112.295 31.344 113.351 31.424 114.791 31.424C114.855 31.424 114.887 31.52 114.887 31.712C114.887 31.904 114.855 32 114.791 32C113.735 32 112.903 31.984 112.295 31.952L108.599 31.904L105.095 31.952C104.455 31.984 103.575 32 102.455 32C102.391 32 102.359 31.904 102.359 31.712C102.359 31.52 102.391 31.424 102.455 31.424C103.895 31.424 104.951 31.344 105.623 31.184C106.295 31.024 106.743 30.72 106.967 30.272C107.223 29.792 107.351 29.072 107.351 28.112V5.888C107.351 4.832 107.223 4.112 106.967 3.728C106.711 3.312 106.247 3.056 105.575 2.96C104.935 2.864 103.751 2.816 102.023 2.816ZM165.729 31.424C165.793 31.424 165.825 31.52 165.825 31.712C165.825 31.904 165.793 32 165.729 32H160.017C159.569 32 159.169 31.888 158.817 31.664C158.497 31.408 157.953 30.768 157.185 29.744C156.417 28.72 155.041 26.784 153.057 23.936C151.553 21.728 150.417 20.192 149.649 19.328C148.913 18.432 148.161 17.808 147.393 17.456C146.625 17.072 145.601 16.88 144.321 16.88C144.001 16.88 143.745 16.896 143.553 16.928V28.112C143.553 29.104 143.649 29.824 143.841 30.272C144.065 30.72 144.465 31.024 145.041 31.184C145.617 31.344 146.545 31.424 147.825 31.424C147.889 31.424 147.921 31.52 147.921 31.712C147.921 31.904 147.889 32 147.825 32C146.865 32 146.097 31.984 145.521 31.952L142.257 31.904L139.089 31.952C138.513 31.984 137.713 32 136.689 32C136.625 32 136.593 31.904 136.593 31.712C136.593 31.52 136.625 31.424 136.689 31.424C137.937 31.424 138.849 31.344 139.425 31.184C140.033 31.024 140.449 30.72 140.673 30.272C140.897 29.792 141.009 29.072 141.009 28.112V5.888C141.009 4.928 140.897 4.224 140.673 3.776C140.481 3.328 140.081 3.024 139.473 2.864C138.897 2.672 137.985 2.576 136.737 2.576C136.673 2.576 136.641 2.48 136.641 2.288C136.641 2.096 136.673 2 136.737 2L139.089 2.048C140.433 2.112 141.489 2.144 142.257 2.144C143.121 2.144 144.225 2.112 145.569 2.048L147.825 2C147.889 2 147.921 2.096 147.921 2.288C147.921 2.48 147.889 2.576 147.825 2.576C146.577 2.576 145.649 2.672 145.041 2.864C144.465 3.056 144.065 3.392 143.841 3.872C143.649 4.32 143.553 5.024 143.553 5.984V16.112C145.281 16.048 146.353 16.016 146.769 16.016C147.281 16.016 147.649 16.032 147.873 16.064L153.921 7.616C154.689 6.528 155.249 5.68 155.601 5.072C155.953 4.432 156.129 3.936 156.129 3.584C156.129 3.2 155.921 2.944 155.505 2.816C155.089 2.656 154.433 2.576 153.537 2.576C153.473 2.576 153.441 2.48 153.441 2.288C153.441 2.096 153.473 2 153.537 2L155.553 2.048C156.769 2.112 157.889 2.144 158.913 2.144C159.937 2.144 160.993 2.112 162.081 2.048L163.761 2C163.857 2 163.905 2.096 163.905 2.288C163.905 2.48 163.857 2.576 163.761 2.576C162.001 2.576 160.545 2.96 159.393 3.728C158.273 4.496 156.929 5.904 155.361 7.952L148.977 16.208C149.905 16.4 150.705 16.848 151.377 17.552C152.081 18.256 153.121 19.616 154.497 21.632L155.457 22.976C156.929 25.088 158.145 26.704 159.105 27.824C160.065 28.944 161.073 29.824 162.129 30.464C163.185 31.072 164.385 31.392 165.729 31.424ZM195.79 2C195.854 2 195.886 2.096 195.886 2.288C195.886 2.48 195.854 2.576 195.79 2.576C194.19 2.576 192.83 3.68 191.71 5.888L182.59 25.184C181.726 27.072 181.198 28.224 181.006 28.64C180.494 29.824 180.126 30.624 179.902 31.04C179.678 31.424 179.438 31.68 179.182 31.808C178.958 31.936 178.606 32 178.126 32H171.31C171.214 32 171.166 31.904 171.166 31.712C171.166 31.52 171.214 31.424 171.31 31.424C173.71 31.424 175.694 30.976 177.262 30.08C178.862 29.152 180.222 27.552 181.342 25.28L171.07 5.984C170.398 4.704 169.758 3.824 169.15 3.344C168.574 2.832 167.806 2.576 166.846 2.576C166.782 2.576 166.75 2.48 166.75 2.288C166.75 2.096 166.782 2 166.846 2L168.91 2.048C169.87 2.112 170.558 2.144 170.974 2.144C171.902 2.144 173.006 2.112 174.286 2.048L176.35 2C176.446 2 176.494 2.096 176.494 2.288C176.494 2.48 176.446 2.576 176.35 2.576C174.366 2.576 173.374 3.088 173.374 4.112C173.374 4.496 173.518 4.96 173.806 5.504L182.83 22.16L190.702 5.6C190.99 5.024 191.134 4.544 191.134 4.16C191.134 3.616 190.814 3.216 190.174 2.96C189.566 2.704 188.59 2.576 187.246 2.576C187.15 2.576 187.102 2.48 187.102 2.288C187.102 2.096 187.15 2 187.246 2L189.166 2.048C190.254 2.112 191.23 2.144 192.094 2.144C192.606 2.144 193.246 2.112 194.014 2.048L195.79 2ZM204.545 27.92C204.545 28.944 204.689 29.696 204.977 30.176C205.265 30.624 205.809 30.944 206.609 31.136C207.441 31.328 208.753 31.424 210.545 31.424C210.641 31.424 210.689 31.52 210.689 31.712C210.689 31.904 210.641 32 210.545 32C209.233 32 208.209 31.984 207.473 31.952L203.297 31.904L200.129 31.952C199.553 31.984 198.753 32 197.729 32C197.665 32 197.633 31.904 197.633 31.712C197.633 31.52 197.665 31.424 197.729 31.424C198.977 31.424 199.889 31.344 200.465 31.184C201.073 31.024 201.473 30.72 201.665 30.272C201.889 29.792 202.001 29.072 202.001 28.112V5.888C202.001 4.928 201.889 4.224 201.665 3.776C201.473 3.328 201.073 3.024 200.465 2.864C199.889 2.672 198.977 2.576 197.729 2.576C197.665 2.576 197.633 2.48 197.633 2.288C197.633 2.096 197.665 2 197.729 2L200.081 2.048C201.425 2.112 202.481 2.144 203.249 2.144C204.017 2.144 204.897 2.096 205.889 2C208.385 1.904 209.745 1.856 209.969 1.856C212.785 1.856 215.073 2.512 216.833 3.824C218.593 5.104 219.473 7.072 219.473 9.728C219.473 11.872 218.945 13.68 217.889 15.152C216.833 16.592 215.489 17.664 213.857 18.368C212.257 19.072 210.593 19.424 208.865 19.424C207.905 19.424 207.121 19.344 206.513 19.184C206.417 19.184 206.369 19.104 206.369 18.944C206.369 18.848 206.385 18.752 206.417 18.656C206.481 18.56 206.545 18.528 206.609 18.56C207.121 18.688 207.697 18.752 208.337 18.752C210.609 18.752 212.529 18.064 214.097 16.688C215.697 15.312 216.497 13.312 216.497 10.688C216.497 8.992 216.161 7.536 215.489 6.32C214.817 5.072 213.889 4.128 212.705 3.488C211.553 2.816 210.273 2.48 208.865 2.48C207.553 2.48 206.625 2.544 206.081 2.672C205.537 2.8 205.137 3.104 204.881 3.584C204.657 4.032 204.545 4.832 204.545 5.984V27.92ZM241.267 1.472C243.283 1.472 244.979 1.616 246.355 1.904C247.731 2.192 249.107 2.688 250.483 3.392C250.707 3.52 250.835 3.632 250.867 3.728C250.899 3.824 250.947 4.064 251.011 4.448L251.587 10.16C251.587 10.256 251.491 10.32 251.299 10.352C251.139 10.352 251.043 10.304 251.011 10.208C249.539 4.864 246.243 2.192 241.123 2.192C238.435 2.192 236.067 2.784 234.019 3.968C231.971 5.152 230.387 6.848 229.267 9.056C228.147 11.232 227.587 13.776 227.587 16.688C227.587 19.472 228.195 22.032 229.411 24.368C230.659 26.672 232.323 28.496 234.403 29.84C236.515 31.184 238.803 31.856 241.267 31.856C243.891 31.856 246.019 31.216 247.651 29.936C249.283 28.656 250.531 26.704 251.395 24.08C251.395 24.016 251.475 23.984 251.635 23.984C251.859 23.984 251.971 24.032 251.971 24.128L251.491 29.408C251.459 29.792 251.411 30.032 251.347 30.128C251.283 30.224 251.155 30.336 250.963 30.464C249.299 31.264 247.731 31.824 246.259 32.144C244.819 32.464 243.155 32.624 241.267 32.624C237.907 32.624 234.899 31.968 232.243 30.656C229.619 29.312 227.571 27.44 226.099 25.04C224.627 22.64 223.891 19.888 223.891 16.784C223.891 13.776 224.643 11.12 226.147 8.816C227.651 6.48 229.715 4.672 232.339 3.392C234.995 2.112 237.971 1.472 241.267 1.472ZM45.0123 65.368C44.9803 65.912 44.9323 66.424 44.8683 66.904C44.8363 67.384 44.7563 67.848 44.6283 68.296C43.6043 71.976 40.9323 75.864 36.6123 79.96C34.3403 82.072 31.8603 83.768 29.1723 85.048C26.1323 86.552 23.2363 87.272 20.4843 87.208C18.1803 87.144 16.2443 86.6 14.6763 85.576C12.8523 84.328 11.9403 82.6 11.9403 80.392C11.9403 77.32 13.6843 73.704 17.1723 69.544C17.7163 68.904 18.4203 68.168 19.2843 67.336C20.1483 66.504 21.1723 65.592 22.3563 64.6C24.6923 62.584 26.2283 61.48 26.9643 61.288C27.1243 61.224 27.2363 61.224 27.3003 61.288C27.3323 61.32 27.3163 61.416 27.2523 61.576C26.0043 62.248 24.3883 63.528 22.4043 65.416C20.4203 67.304 18.9323 68.936 17.9403 70.312C15.6683 73.416 14.5003 76.472 14.4363 79.48C14.4363 81.528 15.1083 83.16 16.4523 84.376C17.7963 85.56 19.4923 86.184 21.5403 86.248C23.8763 86.28 26.4843 85.608 29.3643 84.232C31.9883 82.952 34.2283 81.4 36.0843 79.576C37.8443 77.848 39.3323 75.896 40.5483 73.72C41.4443 72.152 42.0363 70.712 42.3243 69.4C42.7083 67.832 42.9003 66.552 42.9003 65.56C42.8683 63.704 42.3403 62.168 41.3163 60.952C40.3243 59.704 38.9163 59.064 37.0923 59.032C34.9803 59 33.3003 59.544 32.0523 60.664C30.8683 61.752 30.2763 62.952 30.2763 64.264C30.2763 65.128 30.5003 65.816 30.9483 66.328C29.3163 66.296 28.5003 65.624 28.5003 64.312C28.5003 63.8 28.7883 63.176 29.3643 62.44C31.6043 59.72 34.5163 58.36 38.1003 58.36C40.0843 58.36 41.7163 58.92 42.9963 60.04C44.3723 61.288 45.0443 63.064 45.0123 65.368ZM62.5349 54.472C64.1029 54.472 65.6709 54.632 67.2389 54.952C68.8389 55.272 70.1189 55.704 71.0789 56.248C71.3349 56.408 71.4949 56.568 71.5589 56.728C71.6549 56.856 71.7189 57.08 71.7509 57.4L72.2789 62.44C72.2789 62.536 72.1989 62.6 72.0389 62.632C71.8789 62.632 71.7829 62.584 71.7509 62.488C70.5989 57.816 66.9029 55.48 60.6629 55.48C58.1669 55.48 55.9589 56.024 54.0389 57.112C52.1509 58.168 50.6789 59.672 49.6229 61.624C48.5669 63.576 48.0389 65.832 48.0389 68.392C48.0389 71.4 48.6949 74.184 50.0069 76.744C51.3189 79.272 53.0629 81.288 55.2389 82.792C57.4149 84.264 59.7669 85 62.2949 85C64.6629 85 66.6949 84.376 68.3909 83.128C70.1189 81.88 71.3829 79.976 72.1829 77.416C72.1829 77.32 72.2469 77.272 72.3749 77.272C72.4709 77.272 72.5509 77.288 72.6149 77.32C72.7109 77.352 72.7589 77.4 72.7589 77.464L72.0869 82.6C72.0229 82.984 71.9429 83.24 71.8469 83.368C71.7829 83.464 71.6069 83.576 71.3189 83.704C68.4709 84.952 65.4149 85.576 62.1509 85.576C58.3109 85.576 55.1109 84.808 52.5509 83.272C49.9909 81.704 48.1029 79.72 46.8869 77.32C45.6709 74.888 45.0629 72.344 45.0629 69.688C45.0629 66.776 45.8789 64.168 47.5109 61.864C49.1429 59.528 51.3029 57.72 53.9909 56.44C56.6789 55.128 59.5269 54.472 62.5349 54.472ZM109.38 84.424C109.476 84.424 109.524 84.52 109.524 84.712C109.524 84.904 109.476 85 109.38 85C108.388 85 107.62 84.984 107.076 84.952L103.86 84.904L100.548 84.952C100.004 84.984 99.2523 85 98.2923 85C98.1963 85 98.1483 84.904 98.1483 84.712C98.1483 84.52 98.1963 84.424 98.2923 84.424C99.5723 84.424 100.5 84.344 101.076 84.184C101.652 84.024 102.036 83.72 102.228 83.272C102.452 82.824 102.564 82.104 102.564 81.112V69.832H83.4123V81.112C83.4123 82.104 83.5083 82.824 83.7003 83.272C83.9243 83.72 84.3243 84.024 84.9003 84.184C85.4763 84.344 86.4043 84.424 87.6843 84.424C87.7483 84.424 87.7803 84.52 87.7803 84.712C87.7803 84.904 87.7483 85 87.6843 85C86.7243 85 85.9563 84.984 85.3803 84.952L82.1163 84.904L78.9483 84.952C78.3723 84.984 77.5723 85 76.5483 85C76.4843 85 76.4523 84.904 76.4523 84.712C76.4523 84.52 76.4843 84.424 76.5483 84.424C77.7963 84.424 78.7083 84.344 79.2843 84.184C79.8923 84.024 80.3083 83.72 80.5323 83.272C80.7563 82.792 80.8683 82.072 80.8683 81.112V58.888C80.8683 57.928 80.7563 57.224 80.5323 56.776C80.3403 56.328 79.9403 56.024 79.3323 55.864C78.7563 55.672 77.8443 55.576 76.5963 55.576C76.5323 55.576 76.5003 55.48 76.5003 55.288C76.5003 55.096 76.5323 55 76.5963 55L78.9483 55.048C80.2923 55.112 81.3483 55.144 82.1163 55.144C82.9803 55.144 84.0843 55.112 85.4283 55.048L87.6843 55C87.7483 55 87.7803 55.096 87.7803 55.288C87.7803 55.48 87.7483 55.576 87.6843 55.576C86.4363 55.576 85.5083 55.672 84.9003 55.864C84.3243 56.056 83.9243 56.392 83.7003 56.872C83.5083 57.32 83.4123 58.024 83.4123 58.984V68.92H102.564V58.984C102.564 58.024 102.452 57.32 102.228 56.872C102.036 56.392 101.636 56.056 101.028 55.864C100.452 55.672 99.5403 55.576 98.2923 55.576C98.1963 55.576 98.1483 55.48 98.1483 55.288C98.1483 55.096 98.1963 55 98.2923 55L100.548 55.048C101.892 55.112 102.996 55.144 103.86 55.144C104.66 55.144 105.732 55.112 107.076 55.048L109.38 55C109.476 55 109.524 55.096 109.524 55.288C109.524 55.48 109.476 55.576 109.38 55.576C108.132 55.576 107.204 55.672 106.596 55.864C106.02 56.024 105.62 56.328 105.396 56.776C105.172 57.224 105.06 57.928 105.06 58.888V81.112C105.06 82.072 105.172 82.792 105.396 83.272C105.62 83.72 106.02 84.024 106.596 84.184C107.204 84.344 108.132 84.424 109.38 84.424ZM128.763 85.576C125.787 85.576 123.131 84.888 120.795 83.512C118.491 82.104 116.699 80.216 115.419 77.848C114.171 75.448 113.547 72.84 113.547 70.024C113.547 66.728 114.379 63.912 116.043 61.576C117.707 59.208 119.835 57.432 122.427 56.248C125.051 55.064 127.723 54.472 130.443 54.472C133.483 54.472 136.155 55.192 138.459 56.632C140.763 58.04 142.523 59.912 143.739 62.248C144.987 64.584 145.611 67.064 145.611 69.688C145.611 72.6 144.843 75.272 143.307 77.704C141.771 80.136 139.707 82.056 137.115 83.464C134.555 84.872 131.771 85.576 128.763 85.576ZM130.491 84.616C132.763 84.616 134.811 84.088 136.635 83.032C138.459 81.976 139.899 80.424 140.955 78.376C142.011 76.328 142.539 73.88 142.539 71.032C142.539 68.024 141.947 65.352 140.763 63.016C139.611 60.648 137.963 58.808 135.819 57.496C133.707 56.184 131.243 55.528 128.427 55.528C124.715 55.528 121.819 56.68 119.739 58.984C117.659 61.288 116.619 64.424 116.619 68.392C116.619 71.368 117.195 74.104 118.347 76.6C119.531 79.064 121.179 81.016 123.291 82.456C125.403 83.896 127.803 84.616 130.491 84.616ZM163.545 68.056C166.041 68.216 168.057 69.048 169.593 70.552C171.129 72.056 171.897 73.912 171.897 76.12C171.897 77.848 171.497 79.4 170.697 80.776C169.897 82.152 168.793 83.24 167.385 84.04C165.977 84.808 164.425 85.192 162.729 85.192C161.641 85.192 160.489 85.144 159.273 85.048C158.825 85.016 158.297 84.984 157.689 84.952C157.081 84.92 156.393 84.904 155.625 84.904L152.457 84.952C151.881 84.984 151.081 85 150.057 85C149.993 85 149.961 84.904 149.961 84.712C149.961 84.52 149.993 84.424 150.057 84.424C151.337 84.424 152.265 84.344 152.841 84.184C153.449 84.024 153.865 83.72 154.089 83.272C154.313 82.792 154.425 82.072 154.425 81.112V58.888C154.425 57.928 154.313 57.224 154.089 56.776C153.897 56.328 153.497 56.024 152.889 55.864C152.313 55.672 151.401 55.576 150.153 55.576C150.057 55.576 150.009 55.48 150.009 55.288C150.009 55.096 150.057 55 150.153 55L152.457 55.048C153.737 55.112 154.793 55.144 155.625 55.144C156.201 55.144 156.745 55.128 157.257 55.096C157.769 55.064 158.217 55.032 158.601 55C159.593 54.904 160.473 54.856 161.241 54.856C163.897 54.856 165.849 55.464 167.097 56.68C168.377 57.864 169.017 59.384 169.017 61.24C169.017 62.808 168.521 64.184 167.529 65.368C166.537 66.52 165.209 67.416 163.545 68.056ZM160.137 55.48C159.241 55.48 158.585 55.544 158.169 55.672C157.753 55.8 157.433 56.104 157.209 56.584C157.017 57.064 156.921 57.864 156.921 58.984V68.104L159.177 68.152C161.705 68.152 163.545 67.56 164.697 66.376C165.849 65.16 166.425 63.56 166.425 61.576C166.425 59.784 165.913 58.328 164.889 57.208C163.897 56.056 162.313 55.48 160.137 55.48ZM162.057 84.424C164.425 84.424 166.185 83.816 167.337 82.6C168.521 81.352 169.113 79.592 169.113 77.32C169.113 74.888 168.361 72.92 166.857 71.416C165.385 69.88 163.385 69.096 160.857 69.064C159.673 69.032 158.361 69.064 156.921 69.16V81.112C156.921 81.976 157.049 82.648 157.305 83.128C157.593 83.576 158.105 83.912 158.841 84.136C159.577 84.328 160.649 84.424 162.057 84.424ZM207.601 84.424C207.729 84.424 207.793 84.52 207.793 84.712C207.793 84.904 207.729 85 207.601 85C207.025 85 206.097 84.968 204.817 84.904C203.601 84.84 202.705 84.808 202.129 84.808C201.457 84.808 200.577 84.84 199.489 84.904C198.465 84.968 197.697 85 197.185 85C197.057 85 196.993 84.904 196.993 84.712C196.993 84.52 197.057 84.424 197.185 84.424C198.497 84.424 199.441 84.312 200.017 84.088C200.593 83.832 200.881 83.416 200.881 82.84C200.881 82.392 200.705 81.768 200.353 80.968L195.841 71.224H184.417L181.153 79.096C180.705 80.184 180.481 81.08 180.481 81.784C180.481 82.712 180.865 83.384 181.633 83.8C182.401 84.216 183.601 84.424 185.233 84.424C185.393 84.424 185.473 84.52 185.473 84.712C185.473 84.904 185.393 85 185.233 85C184.657 85 183.825 84.968 182.737 84.904C181.521 84.84 180.465 84.808 179.569 84.808C178.769 84.808 177.825 84.84 176.737 84.904C175.777 84.968 174.993 85 174.385 85C174.225 85 174.145 84.904 174.145 84.712C174.145 84.52 174.225 84.424 174.385 84.424C175.281 84.424 176.033 84.264 176.641 83.944C177.281 83.624 177.873 83.048 178.417 82.216C178.993 81.384 179.601 80.2 180.241 78.664L190.273 54.52C190.337 54.424 190.433 54.376 190.561 54.376C190.721 54.376 190.817 54.424 190.849 54.52L201.985 78.424C202.721 80.056 203.377 81.304 203.953 82.168C204.529 83 205.089 83.592 205.633 83.944C206.209 84.264 206.865 84.424 207.601 84.424ZM184.801 70.36H195.409L189.793 58.312L184.801 70.36ZM242.365 84.424C242.461 84.424 242.509 84.52 242.509 84.712C242.509 84.904 242.461 85 242.365 85C241.373 85 240.605 84.984 240.061 84.952L236.845 84.904L233.533 84.952C232.989 84.984 232.237 85 231.277 85C231.181 85 231.133 84.904 231.133 84.712C231.133 84.52 231.181 84.424 231.277 84.424C232.557 84.424 233.485 84.344 234.061 84.184C234.637 84.024 235.021 83.72 235.213 83.272C235.437 82.824 235.549 82.104 235.549 81.112V69.832H216.397V81.112C216.397 82.104 216.493 82.824 216.685 83.272C216.909 83.72 217.309 84.024 217.885 84.184C218.461 84.344 219.389 84.424 220.669 84.424C220.733 84.424 220.765 84.52 220.765 84.712C220.765 84.904 220.733 85 220.669 85C219.709 85 218.941 84.984 218.365 84.952L215.101 84.904L211.933 84.952C211.357 84.984 210.557 85 209.533 85C209.469 85 209.437 84.904 209.437 84.712C209.437 84.52 209.469 84.424 209.533 84.424C210.781 84.424 211.693 84.344 212.269 84.184C212.877 84.024 213.293 83.72 213.517 83.272C213.741 82.792 213.853 82.072 213.853 81.112V58.888C213.853 57.928 213.741 57.224 213.517 56.776C213.325 56.328 212.925 56.024 212.317 55.864C211.741 55.672 210.829 55.576 209.581 55.576C209.517 55.576 209.485 55.48 209.485 55.288C209.485 55.096 209.517 55 209.581 55L211.933 55.048C213.277 55.112 214.333 55.144 215.101 55.144C215.965 55.144 217.069 55.112 218.413 55.048L220.669 55C220.733 55 220.765 55.096 220.765 55.288C220.765 55.48 220.733 55.576 220.669 55.576C219.421 55.576 218.493 55.672 217.885 55.864C217.309 56.056 216.909 56.392 216.685 56.872C216.493 57.32 216.397 58.024 216.397 58.984V68.92H235.549V58.984C235.549 58.024 235.437 57.32 235.213 56.872C235.021 56.392 234.621 56.056 234.013 55.864C233.437 55.672 232.525 55.576 231.277 55.576C231.181 55.576 231.133 55.48 231.133 55.288C231.133 55.096 231.181 55 231.277 55L233.533 55.048C234.877 55.112 235.981 55.144 236.845 55.144C237.645 55.144 238.717 55.112 240.061 55.048L242.365 55C242.461 55 242.509 55.096 242.509 55.288C242.509 55.48 242.461 55.576 242.365 55.576C241.117 55.576 240.189 55.672 239.581 55.864C239.005 56.024 238.605 56.328 238.381 56.776C238.157 57.224 238.045 57.928 238.045 58.888V81.112C238.045 82.072 238.157 82.792 238.381 83.272C238.605 83.72 239.005 84.024 239.581 84.184C240.189 84.344 241.117 84.424 242.365 84.424Z" fill="#353535"/>
</svg>
