<svg width="252" height="88" viewBox="0 0 252 88" fill="none" xmlns="http://www.w3.org/2000/svg"><path d="M11.467 1.472c3.456 0 6.272.688 8.448 2.064 2.208 1.344 3.792 3.12 4.752 5.328.992 2.208 1.488 4.64 1.488 7.296 0 3.36-.736 6.288-2.208 8.784-1.472 2.464-3.424 4.352-5.856 5.664-2.432 1.312-5.072 1.968-7.92 1.968-1.44 0-2.96-.16-4.56-.48-1.568-.32-2.816-.768-3.744-1.344-.288-.16-.464-.288-.528-.384-.064-.128-.112-.368-.144-.72l-.576-5.04c0-.096.08-.16.24-.192.192-.032.304 0 .336.096.64 2.432 1.904 4.192 3.792 5.28 1.92 1.056 4.144 1.584 6.672 1.584 3.904 0 6.816-1.168 8.736-3.504 1.92-2.336 2.88-5.632 2.88-9.888 0-.544-.016-.944-.048-1.2h-7.344c-1.6 0-2.832.128-3.696.384-.864.224-1.488.656-1.872 1.296-.384.64-.576 1.552-.576 2.736 0 .096-.096.144-.288.144-.192 0-.288-.048-.288-.144l.048-4.848c0-.96-.016-1.664-.048-2.112l-.048-2.208c0-.096.096-.144.288-.144.192 0 .288.048.288.144.064 1.312.56 2.288 1.488 2.928.96.608 2.592.912 4.896.912h7.104c-.224-2.848-.88-5.312-1.968-7.392s-2.496-3.68-4.224-4.8C15.29 2.56 13.387 2 11.275 2 9.13 2 7.163 2.608 5.37 3.824 3.61 5.04 2.25 6.864 1.29 9.296c-.032.128-.128.176-.288.144-.16-.032-.24-.096-.24-.192l.672-5.088c.064-.384.128-.64.192-.768s.24-.256.528-.384c3.072-1.024 6.176-1.536 9.312-1.536zM36.35 2.816c-2.016 0-3.488.48-4.416 1.44-.928.96-1.552 2.672-1.872 5.136 0 .064-.096.096-.288.096-.192 0-.288-.032-.288-.096.128-.864.272-2.24.432-4.128.16-1.92.24-3.36.24-4.32 0-.16.096-.24.288-.24.192 0 .288.08.288.24 0 .704.848 1.056 2.544 1.056 2.752.096 5.968.144 9.648.144 1.888 0 3.888-.032 6-.096L52.19 2c1.152 0 2-.08 2.544-.24.544-.16.896-.48 1.056-.96.032-.128.128-.192.288-.192.16 0 .24.064.24.192-.096.896-.192 2.272-.288 4.128a88.378 88.378 0 00-.144 4.464c0 .064-.096.096-.288.096-.192 0-.288-.032-.288-.096 0-1.696-.176-3.008-.528-3.936-.352-.928-.944-1.6-1.776-2.016-.832-.416-2-.624-3.504-.624-1.664 0-2.832.064-3.504.192-.672.096-1.136.352-1.392.768-.224.416-.336 1.152-.336 2.208v22.128c0 .992.112 1.712.336 2.16.224.448.672.752 1.344.912.672.16 1.728.24 3.168.24.064 0 .096.096.096.288 0 .192-.032.288-.096.288-1.056 0-1.888-.016-2.496-.048l-3.696-.048-3.504.048c-.64.032-1.52.048-2.64.048-.064 0-.096-.096-.096-.288 0-.192.032-.288.096-.288 1.44 0 2.496-.08 3.168-.24.672-.16 1.12-.464 1.344-.912.256-.48.384-1.2.384-2.16V5.888c0-1.056-.128-1.776-.384-2.16-.256-.416-.72-.672-1.392-.768-.64-.096-1.824-.144-3.552-.144zm38.694 29.76c-2.976 0-5.632-.688-7.968-2.064a14.745 14.745 0 01-5.376-5.664c-1.248-2.4-1.872-5.008-1.872-7.824 0-3.296.832-6.112 2.496-8.448 1.664-2.368 3.792-4.144 6.384-5.328 2.624-1.184 5.296-1.776 8.016-1.776 3.04 0 5.712.72 8.016 2.16 2.304 1.408 4.064 3.28 5.28 5.616a15.561 15.561 0 011.872 7.44c0 2.912-.768 5.584-2.304 8.016-1.536 2.432-3.6 4.352-6.192 5.76-2.56 1.408-5.344 2.112-8.352 2.112zm1.728-.96c2.272 0 4.32-.528 6.144-1.584 1.824-1.056 3.264-2.608 4.32-4.656 1.056-2.048 1.584-4.496 1.584-7.344 0-3.008-.592-5.68-1.776-8.016-1.152-2.368-2.8-4.208-4.944-5.52-2.112-1.312-4.576-1.968-7.392-1.968-3.712 0-6.608 1.152-8.688 3.456-2.08 2.304-3.12 5.44-3.12 9.408 0 2.976.576 5.712 1.728 8.208 1.184 2.464 2.832 4.416 4.944 5.856 2.112 1.44 4.512 2.16 7.2 2.16zm25.25-28.8c-2.016 0-3.488.48-4.416 1.44-.928.96-1.552 2.672-1.872 5.136 0 .064-.096.096-.288.096-.192 0-.288-.032-.288-.096.128-.864.272-2.24.432-4.128.16-1.92.24-3.36.24-4.32 0-.16.096-.24.288-.24.192 0 .288.08.288.24 0 .704.848 1.056 2.544 1.056 2.752.096 5.968.144 9.648.144 1.888 0 3.888-.032 6-.096L117.863 2c1.152 0 2-.08 2.544-.24.544-.16.896-.48 1.056-.96.032-.128.128-.192.288-.192.16 0 .24.064.24.192-.096.896-.192 2.272-.288 4.128a88.378 88.378 0 00-.144 4.464c0 .064-.096.096-.288.096-.192 0-.288-.032-.288-.096 0-1.696-.176-3.008-.528-3.936-.352-.928-.944-1.6-1.776-2.016-.832-.416-2-.624-3.504-.624-1.664 0-2.832.064-3.504.192-.672.096-1.136.352-1.392.768-.224.416-.336 1.152-.336 2.208v22.128c0 .992.112 1.712.336 2.16.224.448.672.752 1.344.912.672.16 1.728.24 3.168.24.064 0 .096.096.096.288 0 .192-.032.288-.096.288-1.056 0-1.888-.016-2.496-.048l-3.696-.048-3.504.048c-.64.032-1.52.048-2.64.048-.064 0-.096-.096-.096-.288 0-.192.032-.288.096-.288 1.44 0 2.496-.08 3.168-.24.672-.16 1.12-.464 1.344-.912.256-.48.384-1.2.384-2.16V5.888c0-1.056-.128-1.776-.384-2.16-.256-.416-.72-.672-1.392-.768-.64-.096-1.824-.144-3.552-.144zm63.706 28.608c.064 0 .096.096.096.288 0 .192-.032.288-.096.288h-5.712c-.448 0-.848-.112-1.2-.336-.32-.256-.864-.896-1.632-1.92-.768-1.024-2.144-2.96-4.128-5.808-1.504-2.208-2.64-3.744-3.408-4.608-.736-.896-1.488-1.52-2.256-1.872-.768-.384-1.792-.576-3.072-.576-.32 0-.576.016-.768.048v11.184c0 .992.096 1.712.288 2.16.224.448.624.752 1.2.912.576.16 1.504.24 2.784.24.064 0 .096.096.096.288 0 .192-.032.288-.096.288-.96 0-1.728-.016-2.304-.048l-3.264-.048-3.168.048c-.576.032-1.376.048-2.4.048-.064 0-.096-.096-.096-.288 0-.192.032-.288.096-.288 1.248 0 2.16-.08 2.736-.24.608-.16 1.024-.464 1.248-.912.224-.48.336-1.2.336-2.16V5.888c0-.96-.112-1.664-.336-2.112-.192-.448-.592-.752-1.2-.912-.576-.192-1.488-.288-2.736-.288-.064 0-.096-.096-.096-.288 0-.192.032-.288.096-.288l2.352.048c1.344.064 2.4.096 3.168.096.864 0 1.968-.032 3.312-.096L147.825 2c.064 0 .096.096.096.288 0 .192-.032.288-.096.288-1.248 0-2.176.096-2.784.288-.576.192-.976.528-1.2 1.008-.192.448-.288 1.152-.288 2.112v10.128c1.728-.064 2.8-.096 3.216-.096.512 0 .88.016 1.104.048l6.048-8.448c.768-1.088 1.328-1.936 1.68-2.544.352-.64.528-1.136.528-1.488 0-.384-.208-.64-.624-.768-.416-.16-1.072-.24-1.968-.24-.064 0-.096-.096-.096-.288 0-.192.032-.288.096-.288l2.016.048c1.216.064 2.336.096 3.36.096s2.08-.032 3.168-.096l1.68-.048c.096 0 .144.096.144.288 0 .192-.048.288-.144.288-1.76 0-3.216.384-4.368 1.152-1.12.768-2.464 2.176-4.032 4.224l-6.384 8.256c.928.192 1.728.64 2.4 1.344.704.704 1.744 2.064 3.12 4.08l.96 1.344c1.472 2.112 2.688 3.728 3.648 4.848.96 1.12 1.968 2 3.024 2.64 1.056.608 2.256.928 3.6.96zM195.79 2c.064 0 .096.096.096.288 0 .192-.032.288-.096.288-1.6 0-2.96 1.104-4.08 3.312l-9.12 19.296c-.864 1.888-1.392 3.04-1.584 3.456-.512 1.184-.88 1.984-1.104 2.4-.224.384-.464.64-.72.768-.224.128-.576.192-1.056.192h-6.816c-.096 0-.144-.096-.144-.288 0-.192.048-.288.144-.288 2.4 0 4.384-.448 5.952-1.344 1.6-.928 2.96-2.528 4.08-4.8L171.07 5.984c-.672-1.28-1.312-2.16-1.92-2.64-.576-.512-1.344-.768-2.304-.768-.064 0-.096-.096-.096-.288 0-.192.032-.288.096-.288l2.064.048c.96.064 1.648.096 2.064.096.928 0 2.032-.032 3.312-.096L176.35 2c.096 0 .144.096.144.288 0 .192-.048.288-.144.288-1.984 0-2.976.512-2.976 1.536 0 .384.144.848.432 1.392l9.024 16.656 7.872-16.56c.288-.576.432-1.056.432-1.44 0-.544-.32-.944-.96-1.2-.608-.256-1.584-.384-2.928-.384-.096 0-.144-.096-.144-.288 0-.192.048-.288.144-.288l1.92.048c1.088.064 2.064.096 2.928.096.512 0 1.152-.032 1.92-.096L195.79 2zm8.755 25.92c0 1.024.144 1.776.432 2.256.288.448.832.768 1.632.96.832.192 2.144.288 3.936.288.096 0 .144.096.144.288 0 .192-.048.288-.144.288-1.312 0-2.336-.016-3.072-.048l-4.176-.048-3.168.048c-.576.032-1.376.048-2.4.048-.064 0-.096-.096-.096-.288 0-.192.032-.288.096-.288 1.248 0 2.16-.08 2.736-.24.608-.16 1.008-.464 1.2-.912.224-.48.336-1.2.336-2.16V5.888c0-.96-.112-1.664-.336-2.112-.192-.448-.592-.752-1.2-.912-.576-.192-1.488-.288-2.736-.288-.064 0-.096-.096-.096-.288 0-.192.032-.288.096-.288l2.352.048c1.344.064 2.4.096 3.168.096.768 0 1.648-.048 2.64-.144 2.496-.096 3.856-.144 4.08-.144 2.816 0 5.104.656 6.864 1.968 1.76 1.28 2.64 3.248 2.64 5.904 0 2.144-.528 3.952-1.584 5.424a9.663 9.663 0 01-4.032 3.216 12.267 12.267 0 01-4.992 1.056c-.96 0-1.744-.08-2.352-.24-.096 0-.144-.08-.144-.24 0-.096.016-.192.048-.288.064-.096.128-.128.192-.096a7.138 7.138 0 001.728.192c2.272 0 4.192-.688 5.76-2.064 1.6-1.376 2.4-3.376 2.4-6 0-1.696-.336-3.152-1.008-4.368-.672-1.248-1.6-2.192-2.784-2.832-1.152-.672-2.432-1.008-3.84-1.008-1.312 0-2.24.064-2.784.192-.544.128-.944.432-1.2.912-.224.448-.336 1.248-.336 2.4V27.92zm36.722-26.448c2.016 0 3.712.144 5.088.432 1.376.288 2.752.784 4.128 1.488.224.128.352.24.384.336.032.096.08.336.144.72l.576 5.712c0 .096-.096.16-.288.192-.16 0-.256-.048-.288-.144-1.472-5.344-4.768-8.016-9.888-8.016-2.688 0-5.056.592-7.104 1.776-2.048 1.184-3.632 2.88-4.752 5.088-1.12 2.176-1.68 4.72-1.68 7.632 0 2.784.608 5.344 1.824 7.68 1.248 2.304 2.912 4.128 4.992 5.472 2.112 1.344 4.4 2.016 6.864 2.016 2.624 0 4.752-.64 6.384-1.92 1.632-1.28 2.88-3.232 3.744-5.856 0-.064.08-.096.24-.096.224 0 .336.048.336.144l-.48 5.28c-.032.384-.08.624-.144.72-.064.096-.192.208-.384.336-1.664.8-3.232 1.36-4.704 1.68-1.44.32-3.104.48-4.992.48-3.36 0-6.368-.656-9.024-1.968-2.624-1.344-4.672-3.216-6.144-5.616-1.472-2.4-2.208-5.152-2.208-8.256 0-3.008.752-5.664 2.256-7.968 1.504-2.336 3.568-4.144 6.192-5.424 2.656-1.28 5.632-1.92 8.928-1.92zM45.012 65.368c-.032.544-.08 1.056-.144 1.536-.032.48-.112.944-.24 1.392-1.024 3.68-3.696 7.568-8.016 11.664-2.272 2.112-4.752 3.808-7.44 5.088-3.04 1.504-5.936 2.224-8.688 2.16-2.304-.064-4.24-.608-5.808-1.632-1.824-1.248-2.736-2.976-2.736-5.184 0-3.072 1.744-6.688 5.232-10.848.544-.64 1.248-1.376 2.112-2.208a60.209 60.209 0 013.072-2.736c2.336-2.016 3.872-3.12 4.608-3.312.16-.064.272-.064.336 0 .032.032.016.128-.048.288-1.248.672-2.864 1.952-4.848 3.84s-3.472 3.52-4.464 4.896c-2.272 3.104-3.44 6.16-3.504 9.168 0 2.048.672 3.68 2.016 4.896 1.344 1.184 3.04 1.808 5.088 1.872 2.336.032 4.944-.64 7.824-2.016 2.624-1.28 4.864-2.832 6.72-4.656a25.796 25.796 0 004.464-5.856c.896-1.568 1.488-3.008 1.776-4.32.384-1.568.576-2.848.576-3.84-.032-1.856-.56-3.392-1.584-4.608-.992-1.248-2.4-1.888-4.224-1.92-2.112-.032-3.792.512-5.04 1.632-1.184 1.088-1.776 2.288-1.776 3.6 0 .864.224 1.552.672 2.064-1.632-.032-2.448-.704-2.448-2.016 0-.512.288-1.136.864-1.872 2.24-2.72 5.152-4.08 8.736-4.08 1.984 0 3.616.56 4.896 1.68 1.376 1.248 2.048 3.024 2.016 5.328zm17.523-10.896c1.568 0 3.136.16 4.704.48 1.6.32 2.88.752 3.84 1.296.256.16.416.32.48.48.096.128.16.352.192.672l.528 5.04c0 .096-.08.16-.24.192-.16 0-.256-.048-.288-.144-1.152-4.672-4.848-7.008-11.088-7.008-2.496 0-4.704.544-6.624 1.632-1.888 1.056-3.36 2.56-4.416 4.512-1.056 1.952-1.584 4.208-1.584 6.768 0 3.008.656 5.792 1.968 8.352 1.312 2.528 3.056 4.544 5.232 6.048C57.415 84.264 59.767 85 62.295 85c2.368 0 4.4-.624 6.096-1.872 1.728-1.248 2.992-3.152 3.792-5.712 0-.096.064-.144.192-.144.096 0 .176.016.24.048.096.032.144.08.144.144l-.672 5.136c-.064.384-.144.64-.24.768-.064.096-.24.208-.528.336-2.848 1.248-5.904 1.872-9.168 1.872-3.84 0-7.04-.768-9.6-2.304-2.56-1.568-4.448-3.552-5.664-5.952-1.216-2.432-1.824-4.976-1.824-7.632 0-2.912.816-5.52 2.448-7.824 1.632-2.336 3.792-4.144 6.48-5.424a19.23 19.23 0 018.544-1.968zm46.845 29.952c.096 0 .144.096.144.288 0 .192-.048.288-.144.288-.992 0-1.76-.016-2.304-.048l-3.216-.048-3.312.048c-.544.032-1.296.048-2.256.048-.096 0-.144-.096-.144-.288 0-.192.048-.288.144-.288 1.28 0 2.208-.08 2.784-.24.576-.16.96-.464 1.152-.912.224-.448.336-1.168.336-2.16v-11.28H83.412v11.28c0 .992.096 1.712.288 2.16.224.448.624.752 1.2.912.576.16 1.504.24 2.784.24.064 0 .096.096.096.288 0 .192-.032.288-.096.288-.96 0-1.728-.016-2.304-.048l-3.264-.048-3.168.048c-.576.032-1.376.048-2.4.048-.064 0-.096-.096-.096-.288 0-.192.032-.288.096-.288 1.248 0 2.16-.08 2.736-.24.608-.16 1.024-.464 1.248-.912.224-.48.336-1.2.336-2.16V58.888c0-.96-.112-1.664-.336-2.112-.192-.448-.592-.752-1.2-.912-.576-.192-1.488-.288-2.736-.288-.064 0-.096-.096-.096-.288 0-.192.032-.288.096-.288l2.352.048c1.344.064 2.4.096 3.168.096.864 0 1.968-.032 3.312-.096L87.684 55c.064 0 .096.096.096.288 0 .192-.032.288-.096.288-1.248 0-2.176.096-2.784.288-.576.192-.976.528-1.2 1.008-.192.448-.288 1.152-.288 2.112v9.936h19.152v-9.936c0-.96-.112-1.664-.336-2.112-.192-.48-.592-.816-1.2-1.008-.576-.192-1.488-.288-2.736-.288-.096 0-.144-.096-.144-.288 0-.192.048-.288.144-.288l2.256.048c1.344.064 2.448.096 3.312.096.8 0 1.872-.032 3.216-.096L109.38 55c.096 0 .144.096.144.288 0 .192-.048.288-.144.288-1.248 0-2.176.096-2.784.288-.576.16-.976.464-1.2.912-.224.448-.336 1.152-.336 2.112v22.224c0 .96.112 1.68.336 2.16.224.448.624.752 1.2.912.608.16 1.536.24 2.784.24zm19.383 1.152c-2.976 0-5.632-.688-7.968-2.064a14.745 14.745 0 01-5.376-5.664c-1.248-2.4-1.872-5.008-1.872-7.824 0-3.296.832-6.112 2.496-8.448 1.664-2.368 3.792-4.144 6.384-5.328 2.624-1.184 5.296-1.776 8.016-1.776 3.04 0 5.712.72 8.016 2.16 2.304 1.408 4.064 3.28 5.28 5.616a15.561 15.561 0 011.872 7.44c0 2.912-.768 5.584-2.304 8.016-1.536 2.432-3.6 4.352-6.192 5.76-2.56 1.408-5.344 2.112-8.352 2.112zm1.728-.96c2.272 0 4.32-.528 6.144-1.584 1.824-1.056 3.264-2.608 4.32-4.656 1.056-2.048 1.584-4.496 1.584-7.344 0-3.008-.592-5.68-1.776-8.016-1.152-2.368-2.8-4.208-4.944-5.52-2.112-1.312-4.576-1.968-7.392-1.968-3.712 0-6.608 1.152-8.688 3.456-2.08 2.304-3.12 5.44-3.12 9.408 0 2.976.576 5.712 1.728 8.208 1.184 2.464 2.832 4.416 4.944 5.856 2.112 1.44 4.512 2.16 7.2 2.16zm33.054-16.56c2.496.16 4.512.992 6.048 2.496 1.536 1.504 2.304 3.36 2.304 5.568 0 1.728-.4 3.28-1.2 4.656a8.768 8.768 0 01-3.312 3.264c-1.408.768-2.96 1.152-4.656 1.152-1.088 0-2.24-.048-3.456-.144a86.232 86.232 0 00-1.584-.096 39.66 39.66 0 00-2.064-.048l-3.168.048c-.576.032-1.376.048-2.4.048-.064 0-.096-.096-.096-.288 0-.192.032-.288.096-.288 1.28 0 2.208-.08 2.784-.24.608-.16 1.024-.464 1.248-.912.224-.48.336-1.2.336-2.16V58.888c0-.96-.112-1.664-.336-2.112-.192-.448-.592-.752-1.2-.912-.576-.192-1.488-.288-2.736-.288-.096 0-.144-.096-.144-.288 0-.192.048-.288.144-.288l2.304.048c1.28.064 2.336.096 3.168.096.576 0 1.12-.016 1.632-.048.512-.032.96-.064 1.344-.096a27.751 27.751 0 012.64-.144c2.656 0 4.608.608 5.856 1.824 1.28 1.184 1.92 2.704 1.92 4.56 0 1.568-.496 2.944-1.488 4.128-.992 1.152-2.32 2.048-3.984 2.688zm-3.408-12.576c-.896 0-1.552.064-1.968.192-.416.128-.736.432-.96.912-.192.48-.288 1.28-.288 2.4v9.12l2.256.048c2.528 0 4.368-.592 5.52-1.776 1.152-1.216 1.728-2.816 1.728-4.8 0-1.792-.512-3.248-1.536-4.368-.992-1.152-2.576-1.728-4.752-1.728zm1.92 28.944c2.368 0 4.128-.608 5.28-1.824 1.184-1.248 1.776-3.008 1.776-5.28 0-2.432-.752-4.4-2.256-5.904-1.472-1.536-3.472-2.32-6-2.352a42.37 42.37 0 00-3.936.096v11.952c0 .864.128 1.536.384 2.016.288.448.8.784 1.536 1.008.736.192 1.808.288 3.216.288zm45.544 0c.128 0 .192.096.192.288 0 .192-.064.288-.192.288-.576 0-1.504-.032-2.784-.096a56.78 56.78 0 00-2.688-.096c-.672 0-1.552.032-2.64.096a40.425 40.425 0 01-2.304.096c-.128 0-.192-.096-.192-.288 0-.192.064-.288.192-.288 1.312 0 2.256-.112 2.832-.336.576-.256.864-.672.864-1.248 0-.448-.176-1.072-.528-1.872l-4.512-9.744h-11.424l-3.264 7.872c-.448 1.088-.672 1.984-.672 2.688 0 .928.384 1.6 1.152 2.016.768.416 1.968.624 3.6.624.16 0 .24.096.24.288 0 .192-.08.288-.24.288-.576 0-1.408-.032-2.496-.096a61.344 61.344 0 00-3.168-.096c-.8 0-1.744.032-2.832.096a36.78 36.78 0 01-2.352.096c-.16 0-.24-.096-.24-.288 0-.192.08-.288.24-.288.896 0 1.648-.16 2.256-.48.64-.32 1.232-.896 1.776-1.728.576-.832 1.184-2.016 1.824-3.552l10.032-24.144a.323.323 0 01.288-.144c.16 0 .256.048.288.144l11.136 23.904c.736 1.632 1.392 2.88 1.968 3.744.576.832 1.136 1.424 1.68 1.776.576.32 1.232.48 1.968.48zm-22.8-14.064h10.608l-5.616-12.048-4.992 12.048zm57.564 14.064c.096 0 .144.096.144.288 0 .192-.048.288-.144.288-.992 0-1.76-.016-2.304-.048l-3.216-.048-3.312.048c-.544.032-1.296.048-2.256.048-.096 0-.144-.096-.144-.288 0-.192.048-.288.144-.288 1.28 0 2.208-.08 2.784-.24.576-.16.96-.464 1.152-.912.224-.448.336-1.168.336-2.16v-11.28h-19.152v11.28c0 .992.096 1.712.288 2.16.224.448.624.752 1.2.912.576.16 1.504.24 2.784.24.064 0 .096.096.096.288 0 .192-.032.288-.096.288-.96 0-1.728-.016-2.304-.048l-3.264-.048-3.168.048c-.576.032-1.376.048-2.4.048-.064 0-.096-.096-.096-.288 0-.192.032-.288.096-.288 1.248 0 2.16-.08 2.736-.24.608-.16 1.024-.464 1.248-.912.224-.48.336-1.2.336-2.16V58.888c0-.96-.112-1.664-.336-2.112-.192-.448-.592-.752-1.2-.912-.576-.192-1.488-.288-2.736-.288-.064 0-.096-.096-.096-.288 0-.192.032-.288.096-.288l2.352.048c1.344.064 2.4.096 3.168.096.864 0 1.968-.032 3.312-.096l2.256-.048c.064 0 .096.096.096.288 0 .192-.032.288-.096.288-1.248 0-2.176.096-2.784.288-.576.192-.976.528-1.2 1.008-.192.448-.288 1.152-.288 2.112v9.936h19.152v-9.936c0-.96-.112-1.664-.336-2.112-.192-.48-.592-.816-1.2-1.008-.576-.192-1.488-.288-2.736-.288-.096 0-.144-.096-.144-.288 0-.192.048-.288.144-.288l2.256.048c1.344.064 2.448.096 3.312.096.8 0 1.872-.032 3.216-.096l2.304-.048c.096 0 .144.096.144.288 0 .192-.048.288-.144.288-1.248 0-2.176.096-2.784.288-.576.16-.976.464-1.2.912-.224.448-.336 1.152-.336 2.112v22.224c0 .96.112 1.68.336 2.16.224.448.624.752 1.2.912.608.16 1.536.24 2.784.24z" fill="#353535"/></svg>