<svg width="1101" height="90" viewBox="0 0 1101 90" fill="none" xmlns="http://www.w3.org/2000/svg"><path d="M25.847 2.04c7.92 0 14.373 1.577 19.36 4.73 5.06 3.08 8.69 7.15 10.89 12.21 2.273 5.06 3.41 10.633 3.41 16.72 0 7.7-1.687 14.41-5.06 20.13-3.373 5.647-7.847 9.973-13.42 12.98-5.574 3.007-11.623 4.51-18.15 4.51-3.3 0-6.784-.367-10.45-1.1-3.593-.733-6.454-1.76-8.58-3.08-.66-.367-1.063-.66-1.21-.88-.147-.293-.257-.843-.33-1.65L.987 55.06c0-.22.183-.367.55-.44.44-.073.696 0 .77.22 1.466 5.573 4.363 9.607 8.69 12.1 4.4 2.42 9.497 3.63 15.29 3.63 8.947 0 15.62-2.677 20.02-8.03s6.6-12.907 6.6-22.66c0-1.247-.037-2.163-.11-2.75h-16.83c-3.667 0-6.49.293-8.47.88-1.98.513-3.41 1.503-4.29 2.97-.88 1.467-1.32 3.557-1.32 6.27 0 .22-.22.33-.66.33-.44 0-.66-.11-.66-.33l.11-11.11c0-2.2-.037-3.813-.11-4.84l-.11-5.06c0-.22.22-.33.66-.33.44 0 .66.11.66.33.146 3.007 1.283 5.243 3.41 6.71 2.2 1.393 5.94 2.09 11.22 2.09h16.28c-.514-6.527-2.017-12.173-4.51-16.94-2.493-4.767-5.72-8.433-9.68-11-3.887-2.567-8.25-3.85-13.09-3.85-4.913 0-9.424 1.393-13.53 4.18-4.034 2.787-7.15 6.967-9.35 12.54-.074.293-.294.403-.66.33-.367-.073-.55-.22-.55-.44L2.857 8.2c.146-.88.293-1.467.44-1.76.146-.293.55-.587 1.21-.88 7.04-2.347 14.153-3.52 21.34-3.52zm57.026 3.08c-4.62 0-7.993 1.1-10.12 3.3-2.126 2.2-3.556 6.123-4.29 11.77 0 .147-.22.22-.66.22-.44 0-.66-.073-.66-.22.294-1.98.624-5.133.99-9.46.367-4.4.55-7.7.55-9.9 0-.367.22-.55.66-.55.44 0 .66.183.66.55 0 1.613 1.944 2.42 5.83 2.42 6.307.22 13.677.33 22.11.33 4.327 0 8.91-.073 13.75-.22l7.48-.11c2.64 0 4.584-.183 5.83-.55 1.247-.367 2.054-1.1 2.42-2.2.074-.293.294-.44.66-.44.367 0 .55.147.55.44-.22 2.053-.44 5.207-.66 9.46-.22 4.18-.33 7.59-.33 10.23 0 .147-.22.22-.66.22-.44 0-.66-.073-.66-.22 0-3.887-.403-6.893-1.21-9.02-.806-2.127-2.163-3.667-4.07-4.62-1.906-.953-4.583-1.43-8.03-1.43-3.813 0-6.49.147-8.03.44-1.54.22-2.603.807-3.19 1.76-.513.953-.77 2.64-.77 5.06v50.71c0 2.273.257 3.923.77 4.95.514 1.027 1.54 1.723 3.08 2.09 1.54.367 3.96.55 7.26.55.147 0 .22.22.22.66 0 .44-.073.66-.22.66-2.42 0-4.326-.037-5.72-.11l-8.47-.11-8.03.11c-1.466.073-3.483.11-6.05.11-.146 0-.22-.22-.22-.66 0-.44.074-.66.22-.66 3.3 0 5.72-.183 7.26-.55 1.54-.367 2.567-1.063 3.08-2.09.587-1.1.88-2.75.88-4.95V12.16c0-2.42-.293-4.07-.88-4.95-.586-.953-1.65-1.54-3.19-1.76-1.466-.22-4.18-.33-8.14-.33zm88.673 68.2c-6.82 0-12.907-1.577-18.26-4.73-5.28-3.227-9.387-7.553-12.32-12.98-2.86-5.5-4.29-11.477-4.29-17.93 0-7.553 1.907-14.007 5.72-19.36 3.813-5.427 8.69-9.497 14.63-12.21 6.013-2.713 12.137-4.07 18.37-4.07 6.967 0 13.09 1.65 18.37 4.95 5.28 3.227 9.313 7.517 12.1 12.87 2.86 5.353 4.29 11.037 4.29 17.05 0 6.673-1.76 12.797-5.28 18.37-3.52 5.573-8.25 9.973-14.19 13.2-5.867 3.227-12.247 4.84-19.14 4.84zm3.96-2.2c5.207 0 9.9-1.21 14.08-3.63s7.48-5.977 9.9-10.67 3.63-10.303 3.63-16.83c0-6.893-1.357-13.017-4.07-18.37-2.64-5.427-6.417-9.643-11.33-12.65-4.84-3.007-10.487-4.51-16.94-4.51-8.507 0-15.143 2.64-19.91 7.92-4.767 5.28-7.15 12.467-7.15 21.56 0 6.82 1.32 13.09 3.96 18.81 2.713 5.647 6.49 10.12 11.33 13.42 4.84 3.3 10.34 4.95 16.5 4.95zm57.865-66c-4.62 0-7.993 1.1-10.12 3.3-2.126 2.2-3.556 6.123-4.29 11.77 0 .147-.22.22-.66.22-.44 0-.66-.073-.66-.22.294-1.98.624-5.133.99-9.46.367-4.4.55-7.7.55-9.9 0-.367.22-.55.66-.55.44 0 .66.183.66.55 0 1.613 1.944 2.42 5.83 2.42 6.307.22 13.677.33 22.11.33 4.327 0 8.91-.073 13.75-.22l7.48-.11c2.64 0 4.584-.183 5.83-.55 1.247-.367 2.054-1.1 2.42-2.2.074-.293.294-.44.66-.44.367 0 .55.147.55.44-.22 2.053-.44 5.207-.66 9.46-.22 4.18-.33 7.59-.33 10.23 0 .147-.22.22-.66.22-.44 0-.66-.073-.66-.22 0-3.887-.403-6.893-1.21-9.02-.806-2.127-2.163-3.667-4.07-4.62-1.906-.953-4.583-1.43-8.03-1.43-3.813 0-6.49.147-8.03.44-1.54.22-2.603.807-3.19 1.76-.513.953-.77 2.64-.77 5.06v50.71c0 2.273.257 3.923.77 4.95.514 1.027 1.54 1.723 3.08 2.09 1.54.367 3.96.55 7.26.55.147 0 .22.22.22.66 0 .44-.073.66-.22.66-2.42 0-4.326-.037-5.72-.11l-8.47-.11-8.03.11c-1.466.073-3.483.11-6.05.11-.146 0-.22-.22-.22-.66 0-.44.074-.66.22-.66 3.3 0 5.72-.183 7.26-.55 1.54-.367 2.567-1.063 3.08-2.09.587-1.1.88-2.75.88-4.95V12.16c0-2.42-.293-4.07-.88-4.95-.586-.953-1.65-1.54-3.19-1.76-1.466-.22-4.18-.33-8.14-.33zm145.993 65.56c.147 0 .22.22.22.66 0 .44-.073.66-.22.66h-13.09c-1.026 0-1.943-.257-2.75-.77-.733-.587-1.98-2.053-3.74-4.4-1.76-2.347-4.913-6.783-9.46-13.31-3.446-5.06-6.05-8.58-7.81-10.56-1.686-2.053-3.41-3.483-5.17-4.29-1.76-.88-4.106-1.32-7.04-1.32-.733 0-1.32.037-1.76.11v25.63c0 2.273.22 3.923.66 4.95.514 1.027 1.43 1.723 2.75 2.09 1.32.367 3.447.55 6.38.55.147 0 .22.22.22.66 0 .44-.073.66-.22.66-2.2 0-3.96-.037-5.28-.11l-7.48-.11-7.26.11c-1.32.073-3.153.11-5.5.11-.146 0-.22-.22-.22-.66 0-.44.074-.66.22-.66 2.86 0 4.95-.183 6.27-.55 1.394-.367 2.347-1.063 2.86-2.09.514-1.1.77-2.75.77-4.95V12.16c0-2.2-.256-3.813-.77-4.84-.44-1.027-1.356-1.723-2.75-2.09-1.32-.44-3.41-.66-6.27-.66-.146 0-.22-.22-.22-.66 0-.44.074-.66.22-.66l5.39.11c3.08.147 5.5.22 7.26.22 1.98 0 4.51-.073 7.59-.22l5.17-.11c.147 0 .22.22.22.66 0 .44-.073.66-.22.66-2.86 0-4.986.22-6.38.66-1.32.44-2.236 1.21-2.75 2.31-.44 1.027-.66 2.64-.66 4.84v23.21c3.96-.147 6.417-.22 7.37-.22 1.174 0 2.017.037 2.53.11l13.86-19.36c1.76-2.493 3.044-4.437 3.85-5.83.807-1.467 1.21-2.603 1.21-3.41 0-.88-.476-1.467-1.43-1.76-.953-.367-2.456-.55-4.51-.55-.146 0-.22-.22-.22-.66 0-.44.074-.66.22-.66l4.62.11c2.787.147 5.354.22 7.7.22 2.347 0 4.767-.073 7.26-.22l3.85-.11c.22 0 .33.22.33.66 0 .44-.11.66-.33.66-4.033 0-7.37.88-10.01 2.64-2.566 1.76-5.646 4.987-9.24 9.68l-14.63 18.92c2.127.44 3.96 1.467 5.5 3.08 1.614 1.613 3.997 4.73 7.15 9.35l2.2 3.08c3.374 4.84 6.16 8.543 8.36 11.11 2.2 2.567 4.51 4.583 6.93 6.05 2.42 1.393 5.17 2.127 8.25 2.2zm68.891-67.43c.146 0 .22.22.22.66 0 .44-.074.66-.22.66-3.667 0-6.784 2.53-9.35 7.59l-20.9 44.22c-1.98 4.327-3.19 6.967-3.63 7.92-1.174 2.713-2.017 4.547-2.53 5.5-.514.88-1.064 1.467-1.65 1.76-.514.293-1.32.44-2.42.44h-15.62c-.22 0-.33-.22-.33-.66 0-.44.11-.66.33-.66 5.5 0 10.046-1.027 13.64-3.08 3.666-2.127 6.783-5.793 9.35-11l-23.54-44.22c-1.54-2.933-3.007-4.95-4.4-6.05-1.32-1.173-3.08-1.76-5.28-1.76-.147 0-.22-.22-.22-.66 0-.44.073-.66.22-.66l4.73.11c2.2.147 3.776.22 4.73.22 2.126 0 4.656-.073 7.59-.22l4.73-.11c.22 0 .33.22.33.66 0 .44-.11.66-.33.66-4.547 0-6.82 1.173-6.82 3.52 0 .88.33 1.943.99 3.19l20.68 38.17 18.04-37.95c.66-1.32.99-2.42.99-3.3 0-1.247-.734-2.163-2.2-2.75-1.394-.587-3.63-.88-6.71-.88-.22 0-.33-.22-.33-.66 0-.44.11-.66.33-.66l4.4.11c2.493.147 4.73.22 6.71.22 1.173 0 2.64-.073 4.4-.22l4.07-.11zm20.063 59.4c0 2.347.33 4.07.99 5.17.66 1.027 1.907 1.76 3.74 2.2 1.907.44 4.914.66 9.02.66.22 0 .33.22.33.66 0 .44-.11.66-.33.66-3.006 0-5.353-.037-7.04-.11l-9.57-.11-7.26.11c-1.32.073-3.153.11-5.5.11-.146 0-.22-.22-.22-.66 0-.44.074-.66.22-.66 2.86 0 4.95-.183 6.27-.55 1.394-.367 2.31-1.063 2.75-2.09.514-1.1.77-2.75.77-4.95V12.16c0-2.2-.256-3.813-.77-4.84-.44-1.027-1.356-1.723-2.75-2.09-1.32-.44-3.41-.66-6.27-.66-.146 0-.22-.22-.22-.66 0-.44.074-.66.22-.66l5.39.11c3.08.147 5.5.22 7.26.22 1.76 0 3.777-.11 6.05-.33 5.72-.22 8.837-.33 9.35-.33 6.454 0 11.697 1.503 15.73 4.51 4.034 2.933 6.05 7.443 6.05 13.53 0 4.913-1.21 9.057-3.63 12.43-2.42 3.3-5.5 5.757-9.24 7.37-3.666 1.613-7.48 2.42-11.44 2.42-2.2 0-3.996-.183-5.39-.55-.22 0-.33-.183-.33-.55 0-.22.037-.44.11-.66.147-.22.294-.293.44-.22 1.174.293 2.494.44 3.96.44 5.207 0 9.607-1.577 13.2-4.73 3.667-3.153 5.5-7.737 5.5-13.75 0-3.887-.77-7.223-2.31-10.01-1.54-2.86-3.666-5.023-6.38-6.49-2.64-1.54-5.573-2.31-8.8-2.31-3.006 0-5.133.147-6.38.44-1.246.293-2.163.99-2.75 2.09-.513 1.027-.77 2.86-.77 5.5v50.27zm84.375-60.61c3.593 0 7.186.367 10.78 1.1 3.666.733 6.6 1.723 8.8 2.97.586.367.953.733 1.1 1.1.22.293.366.807.44 1.54l1.21 11.55c0 .22-.184.367-.55.44-.367 0-.587-.11-.66-.33-2.64-10.707-11.11-16.06-25.41-16.06-5.72 0-10.78 1.247-15.18 3.74-4.327 2.42-7.7 5.867-10.12 10.34-2.42 4.473-3.63 9.643-3.63 15.51 0 6.893 1.503 13.273 4.51 19.14 3.006 5.793 7.003 10.413 11.99 13.86 4.986 3.373 10.376 5.06 16.17 5.06 5.426 0 10.083-1.43 13.97-4.29 3.96-2.86 6.856-7.223 8.69-13.09 0-.22.146-.33.44-.33.22 0 .403.037.55.11.22.073.33.183.33.33l-1.54 11.77c-.147.88-.33 1.467-.55 1.76-.147.22-.55.477-1.21.77-6.527 2.86-13.53 4.29-21.01 4.29-8.8 0-16.134-1.76-22-5.28-5.867-3.593-10.194-8.14-12.98-13.64-2.787-5.573-4.18-11.403-4.18-17.49 0-6.673 1.87-12.65 5.61-17.93 3.74-5.353 8.69-9.497 14.85-12.43 6.16-3.007 12.686-4.51 19.58-4.51zm127.305 67.54c.587 0 .917.073.99.22.147.073.22.403.22.99 0 .367-.073 1.357-.22 2.97-.513 4.107-.77 9.093-.77 14.96 0 .367-.22.55-.66.55-.44 0-.66-.183-.66-.55 0-5.94-1.283-10.23-3.85-12.87-2.493-2.567-6.783-3.85-12.87-3.85h-35.97c-4.253 0-7.663 1.247-10.23 3.74-2.493 2.493-3.74 6.82-3.74 12.98 0 .367-.22.55-.66.55-.367 0-.55-.183-.55-.55 0-5.867-.293-10.487-.88-13.86a26.08 26.08 0 01-.33-4.07c0-.587.073-.917.22-.99.147-.147.477-.22.99-.22h6.93l27.39-67.43c.073-.22.293-.33.66-.33.367 0 .587.11.66.33l27.28 67.43h6.05zm-59.4 0h47.08l-23.43-58.08-23.65 58.08zm140.251 1.1c.293 0 .44.22.44.66 0 .44-.147.66-.44.66-1.32 0-3.447-.073-6.38-.22-2.787-.147-4.84-.22-6.16-.22-1.54 0-3.557.073-6.05.22-2.347.147-4.107.22-5.28.22-.294 0-.44-.22-.44-.66 0-.44.146-.66.44-.66 3.006 0 5.17-.257 6.49-.77 1.32-.587 1.98-1.54 1.98-2.86 0-1.027-.404-2.457-1.21-4.29l-24.2-51.92-19.8 47.63c-1.027 2.493-1.54 4.547-1.54 6.16 0 2.127.88 3.667 2.64 4.62 1.76.953 4.51 1.43 8.25 1.43.366 0 .55.22.55.66 0 .44-.184.66-.55.66-1.32 0-3.227-.073-5.72-.22-2.787-.147-5.207-.22-7.26-.22-1.834 0-3.997.073-6.49.22-2.2.147-3.997.22-5.39.22-.367 0-.55-.22-.55-.66 0-.44.183-.66.55-.66 2.053 0 3.776-.367 5.17-1.1 1.466-.733 2.823-2.053 4.07-3.96 1.32-1.907 2.713-4.62 4.18-8.14l22.99-55.33c.146-.22.366-.33.66-.33.366 0 .586.11.66.33l25.52 54.78c1.686 3.74 3.19 6.6 4.51 8.58 1.32 1.907 2.603 3.263 3.85 4.07 1.32.733 2.823 1.1 4.51 1.1zm60.966 0c.147 0 .22.22.22.66 0 .44-.073.66-.22.66-2.346 0-4.18-.037-5.5-.11l-7.26-.11-7.48.11c-1.32.073-3.08.11-5.28.11-.146 0-.22-.22-.22-.66 0-.44.074-.66.22-.66 2.934 0 5.06-.183 6.38-.55 1.32-.367 2.2-1.063 2.64-2.09.514-1.027.77-2.677.77-4.95V36.36c-2.64.073-4.876.55-6.71 1.43-1.76.88-3.63 2.53-5.61 4.95-1.98 2.347-4.4 5.94-7.26 10.78-3.593 6.16-6.38 10.56-8.36 13.2-1.906 2.64-3.3 4.18-4.18 4.62-.806.44-1.833.66-3.08.66h-10.56c-.22 0-.33-.22-.33-.66 0-.44.11-.66.33-.66 4.034-.073 7.59-1.613 10.67-4.62s6.49-7.92 10.23-14.74c2.714-4.84 5.17-8.36 7.37-10.56 2.2-2.2 4.73-3.667 7.59-4.4-6.233-.513-11-2.237-14.3-5.17-3.226-2.933-4.84-6.71-4.84-11.33 0-3.3.844-6.233 2.53-8.8 1.687-2.567 3.96-4.547 6.82-5.94 2.934-1.467 6.234-2.2 9.9-2.2 1.687 0 3.63.11 5.83.33.88.073 1.907.147 3.08.22a62.32 62.32 0 003.85.11c1.76 0 4.18-.073 7.26-.22l5.39-.11c.147 0 .22.22.22.66 0 .44-.073.66-.22.66-2.86 0-4.986.22-6.38.66-1.32.367-2.236 1.063-2.75 2.09-.44 1.027-.66 2.64-.66 4.84v50.93c0 2.2.257 3.85.77 4.95.514 1.027 1.43 1.723 2.75 2.09 1.394.367 3.52.55 6.38.55zm-38.61-53.57c0 5.353 1.54 9.68 4.62 12.98 3.154 3.227 7.664 4.84 13.53 4.84 1.614 0 3.19-.11 4.73-.33V12.38c0-2.933-.953-4.987-2.86-6.16-1.833-1.247-4.18-1.87-7.04-1.87-8.653 0-12.98 4.253-12.98 12.76zm88.252-11.99c-4.62 0-7.993 1.1-10.12 3.3-2.126 2.2-3.556 6.123-4.29 11.77 0 .147-.22.22-.66.22-.44 0-.66-.073-.66-.22.294-1.98.624-5.133.99-9.46.367-4.4.55-7.7.55-9.9 0-.367.22-.55.66-.55.44 0 .66.183.66.55 0 1.613 1.944 2.42 5.83 2.42 6.307.22 13.677.33 22.11.33 4.327 0 8.91-.073 13.75-.22l7.48-.11c2.64 0 4.584-.183 5.83-.55 1.247-.367 2.054-1.1 2.42-2.2.074-.293.294-.44.66-.44.367 0 .55.147.55.44-.22 2.053-.44 5.207-.66 9.46-.22 4.18-.33 7.59-.33 10.23 0 .147-.22.22-.66.22-.44 0-.66-.073-.66-.22 0-3.887-.403-6.893-1.21-9.02-.806-2.127-2.163-3.667-4.07-4.62-1.906-.953-4.583-1.43-8.03-1.43-3.813 0-6.49.147-8.03.44-1.54.22-2.603.807-3.19 1.76-.513.953-.77 2.64-.77 5.06v50.71c0 2.273.257 3.923.77 4.95.514 1.027 1.54 1.723 3.08 2.09 1.54.367 3.96.55 7.26.55.147 0 .22.22.22.66 0 .44-.073.66-.22.66-2.42 0-4.326-.037-5.72-.11l-8.47-.11-8.03.11c-1.466.073-3.483.11-6.05.11-.146 0-.22-.22-.22-.66 0-.44.074-.66.22-.66 3.3 0 5.72-.183 7.26-.55 1.54-.367 2.567-1.063 3.08-2.09.587-1.1.88-2.75.88-4.95V12.16c0-2.42-.293-4.07-.88-4.95-.586-.953-1.65-1.54-3.19-1.76-1.466-.22-4.18-.33-8.14-.33zm101.402 50.82c0-.22.22-.293.66-.22.44 0 .66.11.66.33-.66 4.62-.99 9.387-.99 14.3 0 .587-.146 1.027-.44 1.32-.22.22-.66.33-1.32.33h-45.43c-.146 0-.22-.22-.22-.66 0-.44.074-.66.22-.66 2.86 0 4.95-.183 6.27-.55 1.394-.367 2.31-1.063 2.75-2.09.514-1.1.77-2.75.77-4.95V12.16c0-2.2-.256-3.813-.77-4.84-.44-1.027-1.356-1.723-2.75-2.09-1.32-.44-3.41-.66-6.27-.66-.146 0-.22-.22-.22-.66 0-.44.074-.66.22-.66h43.56c.66 0 .99.33.99.99l.22 13.31c0 .22-.22.33-.66.33-.366 0-.55-.11-.55-.33 0-3.74-.99-6.71-2.97-8.91-1.98-2.2-4.583-3.3-7.81-3.3h-7.59c-2.786 0-4.84.183-6.16.55-1.32.367-2.236 1.063-2.75 2.09-.44 1.027-.66 2.64-.66 4.84v22.33h14.52c3.374 0 5.72-.55 7.04-1.65 1.32-1.173 1.98-3.153 1.98-5.94 0-.147.22-.22.66-.22.44 0 .66.073.66.22l-.11 8.69c0 2.127.037 3.703.11 4.73l.11 5.17c0 .147-.22.22-.66.22-.44 0-.66-.073-.66-.22 0-3.3-.696-5.61-2.09-6.93-1.393-1.32-3.85-1.98-7.37-1.98h-14.19v25.41c0 2.127.22 3.703.66 4.73.514.953 1.394 1.613 2.64 1.98 1.32.367 3.41.55 6.27.55h10.12c2.934 0 5.427-1.283 7.48-3.85 2.127-2.567 3.484-5.94 4.07-10.12zm36.431-22.77c8.07 0 14.3 1.357 18.7 4.07 4.47 2.713 6.71 7.37 6.71 13.97 0 4.18-.92 7.883-2.75 11.11-1.76 3.227-4.29 5.72-7.59 7.48-3.23 1.76-6.97 2.64-11.22 2.64-1.91 0-4.18-.11-6.82-.33-1.1-.073-2.42-.147-3.96-.22-1.47-.073-3.115-.11-4.948-.11l-7.26.11c-1.32.073-3.154.11-5.5.11-.147 0-.22-.22-.22-.66 0-.44.073-.66.22-.66 2.933 0 5.06-.183 6.38-.55 1.393-.367 2.346-1.063 2.86-2.09.513-1.1.77-2.75.77-4.95V12.16c0-2.2-.257-3.813-.77-4.84-.44-1.027-1.357-1.723-2.75-2.09-1.32-.44-3.41-.66-6.27-.66-.22 0-.33-.22-.33-.66 0-.44.11-.66.33-.66h42.568c.37 0 .59.073.66.22.15.147.26.403.33.77l1.54 13.31c0 .22-.22.367-.66.44-.37 0-.59-.11-.66-.33-.59-3.74-1.94-6.71-4.07-8.91-2.13-2.273-4.77-3.41-7.92-3.41h-6.71c-2.79 0-4.84.183-6.16.55-1.32.367-2.24 1.063-2.75 2.09-.44 1.027-.66 2.64-.66 4.84v20.79c2.71-.293 5.68-.44 8.91-.44zm1.65 37.51c6.09 0 10.49-1.357 13.2-4.07 2.79-2.713 4.18-6.893 4.18-12.54 0-6.82-1.83-11.66-5.5-14.52-3.59-2.933-8.84-4.4-15.73-4.4-1.39 0-3.63.147-6.71.44v27.5c0 2.64.7 4.583 2.09 5.83 1.39 1.173 4.22 1.76 8.47 1.76zm89.74 0c.15 0 .22.22.22.66 0 .44-.07.66-.22.66-2.34 0-4.18-.037-5.5-.11l-7.26-.11-7.48.11c-1.32.073-3.08.11-5.28.11-.14 0-.22-.22-.22-.66 0-.44.08-.66.22-.66 2.94 0 5.06-.183 6.38-.55 1.32-.367 2.2-1.063 2.64-2.09.52-1.027.77-2.677.77-4.95V36.36c-2.64.073-4.87.55-6.71 1.43-1.76.88-3.63 2.53-5.61 4.95-1.98 2.347-4.4 5.94-7.26 10.78-3.59 6.16-6.38 10.56-8.36 13.2-1.9 2.64-3.3 4.18-4.18 4.62-.8.44-1.83.66-3.08.66h-10.56c-.22 0-.33-.22-.33-.66 0-.44.11-.66.33-.66 4.04-.073 7.59-1.613 10.67-4.62s6.49-7.92 10.23-14.74c2.72-4.84 5.17-8.36 7.37-10.56 2.2-2.2 4.73-3.667 7.59-4.4-6.23-.513-11-2.237-14.3-5.17-3.22-2.933-4.84-6.71-4.84-11.33 0-3.3.85-6.233 2.53-8.8 1.69-2.567 3.96-4.547 6.82-5.94 2.94-1.467 6.24-2.2 9.9-2.2 1.69 0 3.63.11 5.83.33.88.073 1.91.147 3.08.22 1.18.073 2.46.11 3.85.11 1.76 0 4.18-.073 7.26-.22l5.39-.11c.15 0 .22.22.22.66 0 .44-.07.66-.22.66-2.86 0-4.98.22-6.38.66-1.32.367-2.23 1.063-2.75 2.09-.44 1.027-.66 2.64-.66 4.84v50.93c0 2.2.26 3.85.77 4.95.52 1.027 1.43 1.723 2.75 2.09 1.4.367 3.52.55 6.38.55zm-38.61-53.57c0 5.353 1.54 9.68 4.62 12.98 3.16 3.227 7.67 4.84 13.53 4.84 1.62 0 3.19-.11 4.73-.33V12.38c0-2.933-.95-4.987-2.86-6.16-1.83-1.247-4.18-1.87-7.04-1.87-8.65 0-12.98 4.253-12.98 12.76z" fill="#FCFCFC"/></svg>