<svg width="1101" height="90" viewBox="0 0 1101 90" fill="none" xmlns="http://www.w3.org/2000/svg">
<path d="M25.8468 2.04C33.7668 2.04 40.2202 3.61666 45.2068 6.76999C50.2668 9.85 53.8968 13.92 56.0968 18.98C58.3702 24.04 59.5068 29.6133 59.5068 35.7C59.5068 43.4 57.8202 50.11 54.4468 55.83C51.0735 61.4767 46.6002 65.8033 41.0268 68.81C35.4535 71.8167 29.4035 73.32 22.8768 73.32C19.5768 73.32 16.0935 72.9533 12.4268 72.22C8.8335 71.4867 5.9735 70.46 3.84684 69.14C3.18684 68.7733 2.7835 68.48 2.63684 68.26C2.49017 67.9667 2.38017 67.4167 2.30684 66.61L0.986836 55.06C0.986836 54.84 1.17017 54.6933 1.53684 54.62C1.97684 54.5467 2.2335 54.62 2.30684 54.84C3.7735 60.4133 6.67017 64.4467 10.9968 66.94C15.3968 69.36 20.4935 70.57 26.2868 70.57C35.2335 70.57 41.9068 67.8933 46.3068 62.54C50.7068 57.1867 52.9068 49.6333 52.9068 39.88C52.9068 38.6333 52.8702 37.7167 52.7968 37.13H35.9668C32.3002 37.13 29.4768 37.4233 27.4968 38.01C25.5168 38.5233 24.0868 39.5133 23.2068 40.98C22.3268 42.4467 21.8868 44.5367 21.8868 47.25C21.8868 47.47 21.6668 47.58 21.2268 47.58C20.7868 47.58 20.5668 47.47 20.5668 47.25L20.6768 36.14C20.6768 33.94 20.6402 32.3267 20.5668 31.3L20.4568 26.24C20.4568 26.02 20.6768 25.91 21.1168 25.91C21.5568 25.91 21.7768 26.02 21.7768 26.24C21.9235 29.2467 23.0602 31.4833 25.1868 32.95C27.3868 34.3433 31.1268 35.04 36.4068 35.04H52.6868C52.1735 28.5133 50.6702 22.8667 48.1768 18.1C45.6835 13.3333 42.4568 9.66666 38.4968 7.1C34.6102 4.53333 30.2468 3.25 25.4068 3.25C20.4935 3.25 15.9835 4.64333 11.8768 7.43C7.8435 10.2167 4.72684 14.3967 2.52684 19.97C2.4535 20.2633 2.2335 20.3733 1.86684 20.3C1.50017 20.2267 1.31684 20.08 1.31684 19.86L2.85684 8.2C3.0035 7.32 3.15017 6.73333 3.29684 6.44C3.4435 6.14666 3.84684 5.85333 4.50684 5.56C11.5468 3.21333 18.6602 2.04 25.8468 2.04ZM82.8732 5.12C78.2532 5.12 74.8799 6.22 72.7532 8.42C70.6266 10.62 69.1966 14.5433 68.4632 20.19C68.4632 20.3367 68.2432 20.41 67.8032 20.41C67.3632 20.41 67.1432 20.3367 67.1432 20.19C67.4366 18.21 67.7666 15.0567 68.1332 10.73C68.4999 6.33 68.6832 3.03 68.6832 0.829998C68.6832 0.463332 68.9032 0.279999 69.3432 0.279999C69.7832 0.279999 70.0032 0.463332 70.0032 0.829998C70.0032 2.44333 71.9466 3.25 75.8332 3.25C82.1399 3.47 89.5099 3.58 97.9432 3.58C102.27 3.58 106.853 3.50666 111.693 3.36L119.173 3.25C121.813 3.25 123.757 3.06666 125.003 2.69999C126.25 2.33333 127.057 1.6 127.423 0.499996C127.497 0.206662 127.717 0.0599952 128.083 0.0599952C128.45 0.0599952 128.633 0.206662 128.633 0.499996C128.413 2.55333 128.193 5.70666 127.973 9.96C127.753 14.14 127.643 17.55 127.643 20.19C127.643 20.3367 127.423 20.41 126.983 20.41C126.543 20.41 126.323 20.3367 126.323 20.19C126.323 16.3033 125.92 13.2967 125.113 11.17C124.307 9.04333 122.95 7.50333 121.043 6.55C119.137 5.59666 116.46 5.12 113.013 5.12C109.2 5.12 106.523 5.26666 104.983 5.56C103.443 5.78 102.38 6.36667 101.793 7.32C101.28 8.27333 101.023 9.95999 101.023 12.38V63.09C101.023 65.3633 101.28 67.0133 101.793 68.04C102.307 69.0667 103.333 69.7633 104.873 70.13C106.413 70.4967 108.833 70.68 112.133 70.68C112.28 70.68 112.353 70.9 112.353 71.34C112.353 71.78 112.28 72 112.133 72C109.713 72 107.807 71.9633 106.413 71.89L97.9432 71.78L89.9132 71.89C88.4466 71.9633 86.4299 72 83.8632 72C83.7166 72 83.6432 71.78 83.6432 71.34C83.6432 70.9 83.7166 70.68 83.8632 70.68C87.1632 70.68 89.5832 70.4967 91.1232 70.13C92.6632 69.7633 93.6899 69.0667 94.2032 68.04C94.7899 66.94 95.0832 65.29 95.0832 63.09V12.16C95.0832 9.74 94.7899 8.09 94.2032 7.20999C93.6166 6.25666 92.5532 5.67 91.0132 5.45C89.5466 5.23 86.8332 5.12 82.8732 5.12ZM171.546 73.32C164.726 73.32 158.639 71.7433 153.286 68.59C148.006 65.3633 143.899 61.0367 140.966 55.61C138.106 50.11 136.676 44.1333 136.676 37.68C136.676 30.1267 138.583 23.6733 142.396 18.32C146.209 12.8933 151.086 8.82333 157.026 6.11C163.039 3.39666 169.163 2.04 175.396 2.04C182.363 2.04 188.486 3.69 193.766 6.99C199.046 10.2167 203.079 14.5067 205.866 19.86C208.726 25.2133 210.156 30.8967 210.156 36.91C210.156 43.5833 208.396 49.7067 204.876 55.28C201.356 60.8533 196.626 65.2533 190.686 68.48C184.819 71.7067 178.439 73.32 171.546 73.32ZM175.506 71.12C180.713 71.12 185.406 69.91 189.586 67.49C193.766 65.07 197.066 61.5133 199.486 56.82C201.906 52.1267 203.116 46.5167 203.116 39.99C203.116 33.0967 201.759 26.9733 199.046 21.62C196.406 16.1933 192.629 11.9767 187.716 8.97C182.876 5.96333 177.229 4.46 170.776 4.46C162.269 4.46 155.633 7.1 150.866 12.38C146.099 17.66 143.716 24.8467 143.716 33.94C143.716 40.76 145.036 47.03 147.676 52.75C150.389 58.3967 154.166 62.87 159.006 66.17C163.846 69.47 169.346 71.12 175.506 71.12ZM233.371 5.12C228.751 5.12 225.378 6.22 223.251 8.42C221.125 10.62 219.695 14.5433 218.961 20.19C218.961 20.3367 218.741 20.41 218.301 20.41C217.861 20.41 217.641 20.3367 217.641 20.19C217.935 18.21 218.265 15.0567 218.631 10.73C218.998 6.33 219.181 3.03 219.181 0.829998C219.181 0.463332 219.401 0.279999 219.841 0.279999C220.281 0.279999 220.501 0.463332 220.501 0.829998C220.501 2.44333 222.445 3.25 226.331 3.25C232.638 3.47 240.008 3.58 248.441 3.58C252.768 3.58 257.351 3.50666 262.191 3.36L269.671 3.25C272.311 3.25 274.255 3.06666 275.501 2.69999C276.748 2.33333 277.555 1.6 277.921 0.499996C277.995 0.206662 278.215 0.0599952 278.581 0.0599952C278.948 0.0599952 279.131 0.206662 279.131 0.499996C278.911 2.55333 278.691 5.70666 278.471 9.96C278.251 14.14 278.141 17.55 278.141 20.19C278.141 20.3367 277.921 20.41 277.481 20.41C277.041 20.41 276.821 20.3367 276.821 20.19C276.821 16.3033 276.418 13.2967 275.611 11.17C274.805 9.04333 273.448 7.50333 271.541 6.55C269.635 5.59666 266.958 5.12 263.511 5.12C259.698 5.12 257.021 5.26666 255.481 5.56C253.941 5.78 252.878 6.36667 252.291 7.32C251.778 8.27333 251.521 9.95999 251.521 12.38V63.09C251.521 65.3633 251.778 67.0133 252.291 68.04C252.805 69.0667 253.831 69.7633 255.371 70.13C256.911 70.4967 259.331 70.68 262.631 70.68C262.778 70.68 262.851 70.9 262.851 71.34C262.851 71.78 262.778 72 262.631 72C260.211 72 258.305 71.9633 256.911 71.89L248.441 71.78L240.411 71.89C238.945 71.9633 236.928 72 234.361 72C234.215 72 234.141 71.78 234.141 71.34C234.141 70.9 234.215 70.68 234.361 70.68C237.661 70.68 240.081 70.4967 241.621 70.13C243.161 69.7633 244.188 69.0667 244.701 68.04C245.288 66.94 245.581 65.29 245.581 63.09V12.16C245.581 9.74 245.288 8.09 244.701 7.20999C244.115 6.25666 243.051 5.67 241.511 5.45C240.045 5.23 237.331 5.12 233.371 5.12ZM379.364 70.68C379.511 70.68 379.584 70.9 379.584 71.34C379.584 71.78 379.511 72 379.364 72H366.274C365.248 72 364.331 71.7433 363.524 71.23C362.791 70.6433 361.544 69.1767 359.784 66.83C358.024 64.4833 354.871 60.0467 350.324 53.52C346.878 48.46 344.274 44.94 342.514 42.96C340.828 40.9067 339.104 39.4767 337.344 38.67C335.584 37.79 333.238 37.35 330.304 37.35C329.571 37.35 328.984 37.3867 328.544 37.46V63.09C328.544 65.3633 328.764 67.0133 329.204 68.04C329.718 69.0667 330.634 69.7633 331.954 70.13C333.274 70.4967 335.401 70.68 338.334 70.68C338.481 70.68 338.554 70.9 338.554 71.34C338.554 71.78 338.481 72 338.334 72C336.134 72 334.374 71.9633 333.054 71.89L325.574 71.78L318.314 71.89C316.994 71.9633 315.161 72 312.814 72C312.668 72 312.594 71.78 312.594 71.34C312.594 70.9 312.668 70.68 312.814 70.68C315.674 70.68 317.764 70.4967 319.084 70.13C320.478 69.7633 321.431 69.0667 321.944 68.04C322.458 66.94 322.714 65.29 322.714 63.09V12.16C322.714 9.96 322.458 8.34667 321.944 7.32C321.504 6.29333 320.588 5.59666 319.194 5.22999C317.874 4.79 315.784 4.57 312.924 4.57C312.778 4.57 312.704 4.35 312.704 3.91C312.704 3.47 312.778 3.25 312.924 3.25L318.314 3.36C321.394 3.50666 323.814 3.58 325.574 3.58C327.554 3.58 330.084 3.50666 333.164 3.36L338.334 3.25C338.481 3.25 338.554 3.47 338.554 3.91C338.554 4.35 338.481 4.57 338.334 4.57C335.474 4.57 333.348 4.79 331.954 5.22999C330.634 5.67 329.718 6.44 329.204 7.54C328.764 8.56666 328.544 10.18 328.544 12.38V35.59C332.504 35.4433 334.961 35.37 335.914 35.37C337.088 35.37 337.931 35.4067 338.444 35.48L352.304 16.12C354.064 13.6267 355.348 11.6833 356.154 10.29C356.961 8.82333 357.364 7.68666 357.364 6.88C357.364 6 356.888 5.41333 355.934 5.12C354.981 4.75333 353.478 4.57 351.424 4.57C351.278 4.57 351.204 4.35 351.204 3.91C351.204 3.47 351.278 3.25 351.424 3.25L356.044 3.36C358.831 3.50666 361.398 3.58 363.744 3.58C366.091 3.58 368.511 3.50666 371.004 3.36L374.854 3.25C375.074 3.25 375.184 3.47 375.184 3.91C375.184 4.35 375.074 4.57 374.854 4.57C370.821 4.57 367.484 5.45 364.844 7.20999C362.278 8.97 359.198 12.1967 355.604 16.89L340.974 35.81C343.101 36.25 344.934 37.2767 346.474 38.89C348.088 40.5033 350.471 43.62 353.624 48.24L355.824 51.32C359.198 56.16 361.984 59.8633 364.184 62.43C366.384 64.9967 368.694 67.0133 371.114 68.48C373.534 69.8733 376.284 70.6067 379.364 70.68ZM448.255 3.25C448.401 3.25 448.475 3.47 448.475 3.91C448.475 4.35 448.401 4.57 448.255 4.57C444.588 4.57 441.471 7.1 438.905 12.16L418.005 56.38C416.025 60.7067 414.815 63.3467 414.375 64.3C413.201 67.0133 412.358 68.8467 411.845 69.8C411.331 70.68 410.781 71.2667 410.195 71.56C409.681 71.8533 408.875 72 407.775 72H392.155C391.935 72 391.825 71.78 391.825 71.34C391.825 70.9 391.935 70.68 392.155 70.68C397.655 70.68 402.201 69.6533 405.795 67.6C409.461 65.4733 412.578 61.8067 415.145 56.6L391.605 12.38C390.065 9.44666 388.598 7.43 387.205 6.33C385.885 5.15666 384.125 4.57 381.925 4.57C381.778 4.57 381.705 4.35 381.705 3.91C381.705 3.47 381.778 3.25 381.925 3.25L386.655 3.36C388.855 3.50666 390.431 3.58 391.385 3.58C393.511 3.58 396.041 3.50666 398.975 3.36L403.705 3.25C403.925 3.25 404.035 3.47 404.035 3.91C404.035 4.35 403.925 4.57 403.705 4.57C399.158 4.57 396.885 5.74333 396.885 8.09C396.885 8.97 397.215 10.0333 397.875 11.28L418.555 49.45L436.595 11.5C437.255 10.18 437.585 9.08 437.585 8.2C437.585 6.95333 436.851 6.03667 435.385 5.45C433.991 4.86333 431.755 4.57 428.675 4.57C428.455 4.57 428.345 4.35 428.345 3.91C428.345 3.47 428.455 3.25 428.675 3.25L433.075 3.36C435.568 3.50666 437.805 3.58 439.785 3.58C440.958 3.58 442.425 3.50666 444.185 3.36L448.255 3.25ZM468.318 62.65C468.318 64.9967 468.648 66.72 469.308 67.82C469.968 68.8467 471.215 69.58 473.048 70.02C474.955 70.46 477.962 70.68 482.068 70.68C482.288 70.68 482.398 70.9 482.398 71.34C482.398 71.78 482.288 72 482.068 72C479.062 72 476.715 71.9633 475.028 71.89L465.458 71.78L458.198 71.89C456.878 71.9633 455.045 72 452.698 72C452.552 72 452.478 71.78 452.478 71.34C452.478 70.9 452.552 70.68 452.698 70.68C455.558 70.68 457.648 70.4967 458.968 70.13C460.362 69.7633 461.278 69.0667 461.718 68.04C462.232 66.94 462.488 65.29 462.488 63.09V12.16C462.488 9.96 462.232 8.34667 461.718 7.32C461.278 6.29333 460.362 5.59666 458.968 5.22999C457.648 4.79 455.558 4.57 452.698 4.57C452.552 4.57 452.478 4.35 452.478 3.91C452.478 3.47 452.552 3.25 452.698 3.25L458.088 3.36C461.168 3.50666 463.588 3.58 465.348 3.58C467.108 3.58 469.125 3.47 471.398 3.25C477.118 3.03 480.235 2.92 480.748 2.92C487.202 2.92 492.445 4.42333 496.478 7.43C500.512 10.3633 502.528 14.8733 502.528 20.96C502.528 25.8733 501.318 30.0167 498.898 33.39C496.478 36.69 493.398 39.1467 489.658 40.76C485.992 42.3733 482.178 43.18 478.218 43.18C476.018 43.18 474.222 42.9967 472.828 42.63C472.608 42.63 472.498 42.4467 472.498 42.08C472.498 41.86 472.535 41.64 472.608 41.42C472.755 41.2 472.902 41.1267 473.048 41.2C474.222 41.4933 475.542 41.64 477.008 41.64C482.215 41.64 486.615 40.0633 490.208 36.91C493.875 33.7567 495.708 29.1733 495.708 23.16C495.708 19.2733 494.938 15.9367 493.398 13.15C491.858 10.29 489.732 8.12667 487.018 6.66C484.378 5.12 481.445 4.35 478.218 4.35C475.212 4.35 473.085 4.49667 471.838 4.79C470.592 5.08333 469.675 5.78 469.088 6.88C468.575 7.90667 468.318 9.74 468.318 12.38V62.65ZM552.693 2.04C556.286 2.04 559.879 2.40666 563.473 3.13999C567.139 3.87333 570.073 4.86333 572.273 6.11C572.859 6.47666 573.226 6.84333 573.373 7.20999C573.593 7.50333 573.739 8.01666 573.813 8.74999L575.023 20.3C575.023 20.52 574.839 20.6667 574.473 20.74C574.106 20.74 573.886 20.63 573.813 20.41C571.173 9.70333 562.703 4.35 548.403 4.35C542.683 4.35 537.623 5.59666 533.223 8.09C528.896 10.51 525.523 13.9567 523.103 18.43C520.683 22.9033 519.473 28.0733 519.473 33.94C519.473 40.8333 520.976 47.2133 523.983 53.08C526.989 58.8733 530.986 63.4933 535.973 66.94C540.959 70.3133 546.349 72 552.143 72C557.569 72 562.226 70.57 566.113 67.71C570.073 64.85 572.969 60.4867 574.803 54.62C574.803 54.4 574.949 54.29 575.243 54.29C575.463 54.29 575.646 54.3267 575.793 54.4C576.013 54.4733 576.123 54.5833 576.123 54.73L574.583 66.5C574.436 67.38 574.253 67.9667 574.033 68.26C573.886 68.48 573.483 68.7367 572.823 69.03C566.296 71.89 559.293 73.32 551.813 73.32C543.013 73.32 535.679 71.56 529.813 68.04C523.946 64.4467 519.619 59.9 516.833 54.4C514.046 48.8267 512.653 42.9967 512.653 36.91C512.653 30.2367 514.523 24.26 518.263 18.98C522.003 13.6267 526.953 9.48333 533.113 6.55C539.273 3.54333 545.799 2.04 552.693 2.04ZM679.998 69.58C680.585 69.58 680.915 69.6533 680.988 69.8C681.135 69.8733 681.208 70.2033 681.208 70.79C681.208 71.1567 681.135 72.1467 680.988 73.76C680.475 77.8667 680.218 82.8533 680.218 88.72C680.218 89.0867 679.998 89.27 679.558 89.27C679.118 89.27 678.898 89.0867 678.898 88.72C678.898 82.78 677.615 78.49 675.048 75.85C672.555 73.2833 668.265 72 662.178 72H626.208C621.955 72 618.545 73.2467 615.978 75.74C613.485 78.2333 612.238 82.56 612.238 88.72C612.238 89.0867 612.018 89.27 611.578 89.27C611.211 89.27 611.028 89.0867 611.028 88.72C611.028 82.8533 610.735 78.2333 610.148 74.86C609.928 73.4667 609.818 72.11 609.818 70.79C609.818 70.2033 609.891 69.8733 610.038 69.8C610.185 69.6533 610.515 69.58 611.028 69.58H617.958L645.348 2.14999C645.421 1.93 645.641 1.82 646.008 1.82C646.375 1.82 646.595 1.93 646.668 2.14999L673.948 69.58H679.998ZM620.598 69.58H667.678L644.248 11.5L620.598 69.58ZM760.849 70.68C761.142 70.68 761.289 70.9 761.289 71.34C761.289 71.78 761.142 72 760.849 72C759.529 72 757.402 71.9267 754.469 71.78C751.682 71.6333 749.629 71.56 748.309 71.56C746.769 71.56 744.752 71.6333 742.259 71.78C739.912 71.9267 738.152 72 736.979 72C736.685 72 736.539 71.78 736.539 71.34C736.539 70.9 736.685 70.68 736.979 70.68C739.985 70.68 742.149 70.4233 743.469 69.91C744.789 69.3233 745.449 68.37 745.449 67.05C745.449 66.0233 745.045 64.5933 744.239 62.76L720.039 10.84L700.239 58.47C699.212 60.9633 698.699 63.0167 698.699 64.63C698.699 66.7567 699.579 68.2967 701.339 69.25C703.099 70.2033 705.849 70.68 709.589 70.68C709.955 70.68 710.139 70.9 710.139 71.34C710.139 71.78 709.955 72 709.589 72C708.269 72 706.362 71.9267 703.869 71.78C701.082 71.6333 698.662 71.56 696.609 71.56C694.775 71.56 692.612 71.6333 690.119 71.78C687.919 71.9267 686.122 72 684.729 72C684.362 72 684.179 71.78 684.179 71.34C684.179 70.9 684.362 70.68 684.729 70.68C686.782 70.68 688.505 70.3133 689.899 69.58C691.365 68.8467 692.722 67.5267 693.969 65.62C695.289 63.7133 696.682 61 698.149 57.48L721.139 2.14999C721.285 1.93 721.505 1.82 721.799 1.82C722.165 1.82 722.385 1.93 722.459 2.14999L747.979 56.93C749.665 60.67 751.169 63.53 752.489 65.51C753.809 67.4167 755.092 68.7733 756.339 69.58C757.659 70.3133 759.162 70.68 760.849 70.68ZM821.815 70.68C821.962 70.68 822.035 70.9 822.035 71.34C822.035 71.78 821.962 72 821.815 72C819.469 72 817.635 71.9633 816.315 71.89L809.055 71.78L801.575 71.89C800.255 71.9633 798.495 72 796.295 72C796.149 72 796.075 71.78 796.075 71.34C796.075 70.9 796.149 70.68 796.295 70.68C799.229 70.68 801.355 70.4967 802.675 70.13C803.995 69.7633 804.875 69.0667 805.315 68.04C805.829 67.0133 806.085 65.3633 806.085 63.09V36.36C803.445 36.4333 801.209 36.91 799.375 37.79C797.615 38.67 795.745 40.32 793.765 42.74C791.785 45.0867 789.365 48.68 786.505 53.52C782.912 59.68 780.125 64.08 778.145 66.72C776.239 69.36 774.845 70.9 773.965 71.34C773.159 71.78 772.132 72 770.885 72H760.325C760.105 72 759.995 71.78 759.995 71.34C759.995 70.9 760.105 70.68 760.325 70.68C764.359 70.6067 767.915 69.0667 770.995 66.06C774.075 63.0533 777.485 58.14 781.225 51.32C783.939 46.48 786.395 42.96 788.595 40.76C790.795 38.56 793.325 37.0933 796.185 36.36C789.952 35.8467 785.185 34.1233 781.885 31.19C778.659 28.2567 777.045 24.48 777.045 19.86C777.045 16.56 777.889 13.6267 779.575 11.06C781.262 8.49333 783.535 6.51333 786.395 5.12C789.329 3.65333 792.629 2.92 796.295 2.92C797.982 2.92 799.925 3.03 802.125 3.25C803.005 3.32333 804.032 3.39666 805.205 3.47C806.379 3.54333 807.662 3.58 809.055 3.58C810.815 3.58 813.235 3.50666 816.315 3.36L821.705 3.25C821.852 3.25 821.925 3.47 821.925 3.91C821.925 4.35 821.852 4.57 821.705 4.57C818.845 4.57 816.719 4.79 815.325 5.22999C814.005 5.59666 813.089 6.29333 812.575 7.32C812.135 8.34667 811.915 9.96 811.915 12.16V63.09C811.915 65.29 812.172 66.94 812.685 68.04C813.199 69.0667 814.115 69.7633 815.435 70.13C816.829 70.4967 818.955 70.68 821.815 70.68ZM783.205 17.11C783.205 22.4633 784.745 26.79 787.825 30.09C790.979 33.3167 795.489 34.93 801.355 34.93C802.969 34.93 804.545 34.82 806.085 34.6V12.38C806.085 9.44666 805.132 7.39333 803.225 6.21999C801.392 4.97333 799.045 4.35 796.185 4.35C787.532 4.35 783.205 8.60333 783.205 17.11ZM871.457 5.12C866.837 5.12 863.464 6.22 861.337 8.42C859.211 10.62 857.781 14.5433 857.047 20.19C857.047 20.3367 856.827 20.41 856.387 20.41C855.947 20.41 855.727 20.3367 855.727 20.19C856.021 18.21 856.351 15.0567 856.717 10.73C857.084 6.33 857.267 3.03 857.267 0.829998C857.267 0.463332 857.487 0.279999 857.927 0.279999C858.367 0.279999 858.587 0.463332 858.587 0.829998C858.587 2.44333 860.531 3.25 864.417 3.25C870.724 3.47 878.094 3.58 886.527 3.58C890.854 3.58 895.437 3.50666 900.277 3.36L907.757 3.25C910.397 3.25 912.341 3.06666 913.587 2.69999C914.834 2.33333 915.641 1.6 916.007 0.499996C916.081 0.206662 916.301 0.0599952 916.667 0.0599952C917.034 0.0599952 917.217 0.206662 917.217 0.499996C916.997 2.55333 916.777 5.70666 916.557 9.96C916.337 14.14 916.227 17.55 916.227 20.19C916.227 20.3367 916.007 20.41 915.567 20.41C915.127 20.41 914.907 20.3367 914.907 20.19C914.907 16.3033 914.504 13.2967 913.697 11.17C912.891 9.04333 911.534 7.50333 909.627 6.55C907.721 5.59666 905.044 5.12 901.597 5.12C897.784 5.12 895.107 5.26666 893.567 5.56C892.027 5.78 890.964 6.36667 890.377 7.32C889.864 8.27333 889.607 9.95999 889.607 12.38V63.09C889.607 65.3633 889.864 67.0133 890.377 68.04C890.891 69.0667 891.917 69.7633 893.457 70.13C894.997 70.4967 897.417 70.68 900.717 70.68C900.864 70.68 900.937 70.9 900.937 71.34C900.937 71.78 900.864 72 900.717 72C898.297 72 896.391 71.9633 894.997 71.89L886.527 71.78L878.497 71.89C877.031 71.9633 875.014 72 872.447 72C872.301 72 872.227 71.78 872.227 71.34C872.227 70.9 872.301 70.68 872.447 70.68C875.747 70.68 878.167 70.4967 879.707 70.13C881.247 69.7633 882.274 69.0667 882.787 68.04C883.374 66.94 883.667 65.29 883.667 63.09V12.16C883.667 9.74 883.374 8.09 882.787 7.20999C882.201 6.25666 881.137 5.67 879.597 5.45C878.131 5.23 875.417 5.12 871.457 5.12ZM972.859 55.94C972.859 55.72 973.079 55.6467 973.519 55.72C973.959 55.72 974.179 55.83 974.179 56.05C973.519 60.67 973.189 65.4367 973.189 70.35C973.189 70.9367 973.043 71.3767 972.749 71.67C972.529 71.89 972.089 72 971.429 72H925.999C925.853 72 925.779 71.78 925.779 71.34C925.779 70.9 925.853 70.68 925.999 70.68C928.859 70.68 930.949 70.4967 932.269 70.13C933.663 69.7633 934.579 69.0667 935.019 68.04C935.533 66.94 935.789 65.29 935.789 63.09V12.16C935.789 9.96 935.533 8.34667 935.019 7.32C934.579 6.29333 933.663 5.59666 932.269 5.22999C930.949 4.79 928.859 4.57 925.999 4.57C925.853 4.57 925.779 4.35 925.779 3.91C925.779 3.47 925.853 3.25 925.999 3.25H969.559C970.219 3.25 970.549 3.58 970.549 4.23999L970.769 17.55C970.769 17.77 970.549 17.88 970.109 17.88C969.743 17.88 969.559 17.77 969.559 17.55C969.559 13.81 968.569 10.84 966.589 8.64C964.609 6.44 962.006 5.34 958.779 5.34H951.189C948.403 5.34 946.349 5.52333 945.029 5.89C943.709 6.25667 942.793 6.95333 942.279 7.98C941.839 9.00666 941.619 10.62 941.619 12.82V35.15H956.139C959.513 35.15 961.859 34.6 963.179 33.5C964.499 32.3267 965.159 30.3467 965.159 27.56C965.159 27.4133 965.379 27.34 965.819 27.34C966.259 27.34 966.479 27.4133 966.479 27.56L966.369 36.25C966.369 38.3767 966.406 39.9533 966.479 40.98L966.589 46.15C966.589 46.2967 966.369 46.37 965.929 46.37C965.489 46.37 965.269 46.2967 965.269 46.15C965.269 42.85 964.573 40.54 963.179 39.22C961.786 37.9 959.329 37.24 955.809 37.24H941.619V62.65C941.619 64.7767 941.839 66.3533 942.279 67.38C942.793 68.3333 943.673 68.9933 944.919 69.36C946.239 69.7267 948.329 69.91 951.189 69.91H961.309C964.243 69.91 966.736 68.6267 968.789 66.06C970.916 63.4933 972.273 60.12 972.859 55.94ZM1009.29 33.17C1017.36 33.17 1023.59 34.5267 1027.99 37.24C1032.46 39.9533 1034.7 44.61 1034.7 51.21C1034.7 55.39 1033.78 59.0933 1031.95 62.32C1030.19 65.5467 1027.66 68.04 1024.36 69.8C1021.13 71.56 1017.39 72.44 1013.14 72.44C1011.23 72.44 1008.96 72.33 1006.32 72.11C1005.22 72.0367 1003.9 71.9633 1002.36 71.89C1000.89 71.8167 999.245 71.78 997.412 71.78L990.152 71.89C988.832 71.9633 986.998 72 984.652 72C984.505 72 984.432 71.78 984.432 71.34C984.432 70.9 984.505 70.68 984.652 70.68C987.585 70.68 989.712 70.4967 991.032 70.13C992.425 69.7633 993.378 69.0667 993.892 68.04C994.405 66.94 994.662 65.29 994.662 63.09V12.16C994.662 9.96 994.405 8.34667 993.892 7.32C993.452 6.29333 992.535 5.59666 991.142 5.22999C989.822 4.79 987.732 4.57 984.872 4.57C984.652 4.57 984.542 4.35 984.542 3.91C984.542 3.47 984.652 3.25 984.872 3.25H1027.44C1027.81 3.25 1028.03 3.32333 1028.1 3.47C1028.25 3.61666 1028.36 3.87333 1028.43 4.23999L1029.97 17.55C1029.97 17.77 1029.75 17.9167 1029.31 17.99C1028.94 17.99 1028.72 17.88 1028.65 17.66C1028.06 13.92 1026.71 10.95 1024.58 8.74999C1022.45 6.47666 1019.81 5.34 1016.66 5.34H1009.95C1007.16 5.34 1005.11 5.52333 1003.79 5.89C1002.47 6.25667 1001.55 6.95333 1001.04 7.98C1000.6 9.00666 1000.38 10.62 1000.38 12.82V33.61C1003.09 33.3167 1006.06 33.17 1009.29 33.17ZM1010.94 70.68C1017.03 70.68 1021.43 69.3233 1024.14 66.61C1026.93 63.8967 1028.32 59.7167 1028.32 54.07C1028.32 47.25 1026.49 42.41 1022.82 39.55C1019.23 36.6167 1013.98 35.15 1007.09 35.15C1005.7 35.15 1003.46 35.2967 1000.38 35.59V63.09C1000.38 65.73 1001.08 67.6733 1002.47 68.92C1003.86 70.0933 1006.69 70.68 1010.94 70.68ZM1100.68 70.68C1100.83 70.68 1100.9 70.9 1100.9 71.34C1100.9 71.78 1100.83 72 1100.68 72C1098.34 72 1096.5 71.9633 1095.18 71.89L1087.92 71.78L1080.44 71.89C1079.12 71.9633 1077.36 72 1075.16 72C1075.02 72 1074.94 71.78 1074.94 71.34C1074.94 70.9 1075.02 70.68 1075.16 70.68C1078.1 70.68 1080.22 70.4967 1081.54 70.13C1082.86 69.7633 1083.74 69.0667 1084.18 68.04C1084.7 67.0133 1084.95 65.3633 1084.95 63.09V36.36C1082.31 36.4333 1080.08 36.91 1078.24 37.79C1076.48 38.67 1074.61 40.32 1072.63 42.74C1070.65 45.0867 1068.23 48.68 1065.37 53.52C1061.78 59.68 1058.99 64.08 1057.01 66.72C1055.11 69.36 1053.71 70.9 1052.83 71.34C1052.03 71.78 1051 72 1049.75 72H1039.19C1038.97 72 1038.86 71.78 1038.86 71.34C1038.86 70.9 1038.97 70.68 1039.19 70.68C1043.23 70.6067 1046.78 69.0667 1049.86 66.06C1052.94 63.0533 1056.35 58.14 1060.09 51.32C1062.81 46.48 1065.26 42.96 1067.46 40.76C1069.66 38.56 1072.19 37.0933 1075.05 36.36C1068.82 35.8467 1064.05 34.1233 1060.75 31.19C1057.53 28.2567 1055.91 24.48 1055.91 19.86C1055.91 16.56 1056.76 13.6267 1058.44 11.06C1060.13 8.49333 1062.4 6.51333 1065.26 5.12C1068.2 3.65333 1071.5 2.92 1075.16 2.92C1076.85 2.92 1078.79 3.03 1080.99 3.25C1081.87 3.32333 1082.9 3.39666 1084.07 3.47C1085.25 3.54333 1086.53 3.58 1087.92 3.58C1089.68 3.58 1092.1 3.50666 1095.18 3.36L1100.57 3.25C1100.72 3.25 1100.79 3.47 1100.79 3.91C1100.79 4.35 1100.72 4.57 1100.57 4.57C1097.71 4.57 1095.59 4.79 1094.19 5.22999C1092.87 5.59666 1091.96 6.29333 1091.44 7.32C1091 8.34667 1090.78 9.96 1090.78 12.16V63.09C1090.78 65.29 1091.04 66.94 1091.55 68.04C1092.07 69.0667 1092.98 69.7633 1094.3 70.13C1095.7 70.4967 1097.82 70.68 1100.68 70.68ZM1062.07 17.11C1062.07 22.4633 1063.61 26.79 1066.69 30.09C1069.85 33.3167 1074.36 34.93 1080.22 34.93C1081.84 34.93 1083.41 34.82 1084.95 34.6V12.38C1084.95 9.44666 1084 7.39333 1082.09 6.21999C1080.26 4.97333 1077.91 4.35 1075.05 4.35C1066.4 4.35 1062.07 8.60333 1062.07 17.11Z" fill="#FCFCFC"/>
</svg>
