<svg width="615" height="77" viewBox="0 0 615 77" fill="none" xmlns="http://www.w3.org/2000/svg">
<path d="M84.9819 68.68C85.2019 68.68 85.3119 68.9 85.3119 69.34C85.3119 69.78 85.2019 70 84.9819 70C82.7086 70 80.9119 69.9633 79.5919 69.89L72.2219 69.78L65.4019 69.89C64.3019 69.9633 62.7619 70 60.7819 70C60.6353 70 60.5619 69.78 60.5619 69.34C60.5619 68.9 60.6353 68.68 60.7819 68.68C63.3486 68.68 65.2186 68.4967 66.3919 68.13C67.6386 67.69 68.4453 66.9567 68.8119 65.93C69.2519 64.9033 69.3986 63.29 69.2519 61.09L67.3819 9.94L41.6419 69.23C41.4952 69.5233 41.2019 69.67 40.7619 69.67C40.3952 69.67 40.0652 69.5233 39.7719 69.23L12.9319 10.38L12.8219 10.16L11.9419 58.56C11.8686 62.3733 12.4919 65.0133 13.8119 66.48C15.1319 67.9467 17.5886 68.68 21.1819 68.68C21.3286 68.68 21.4019 68.9 21.4019 69.34C21.4019 69.78 21.3286 70 21.1819 70C19.1286 70 17.5519 69.9633 16.4519 69.89L10.5119 69.78L5.12191 69.89C4.16858 69.9633 2.73858 70 0.831914 70C0.685248 70 0.611914 69.78 0.611914 69.34C0.611914 68.9 0.685248 68.68 0.831914 68.68C3.91191 68.68 6.07525 67.9467 7.32191 66.48C8.64191 64.94 9.33858 62.3 9.41191 58.56L10.5119 6.42C8.23858 3.85333 5.26858 2.57 1.60191 2.57C1.45525 2.57 1.38191 2.35 1.38191 1.91C1.38191 1.47 1.45525 1.25 1.60191 1.25L5.34191 1.36C6.07525 1.43333 7.02858 1.47 8.20191 1.47C9.37525 1.47 10.3652 1.43333 11.1719 1.36C11.9786 1.28667 12.6019 1.25 13.0419 1.25C14.0686 1.25 14.8752 1.61667 15.4619 2.35C16.0486 3.01 16.9286 4.55 18.1019 6.97L42.8519 60.43L67.4919 4C67.8586 3.19333 68.3353 2.53333 68.9219 2.02C69.5819 1.50667 70.2052 1.25 70.7919 1.25C71.0853 1.25 71.5619 1.28667 72.2219 1.36C72.8819 1.43333 73.7986 1.47 74.9719 1.47L79.9219 1.36C80.6553 1.28667 81.7919 1.25 83.3319 1.25C83.4786 1.25 83.5519 1.47 83.5519 1.91C83.5519 2.35 83.4786 2.57 83.3319 2.57C79.5186 2.57 76.8053 3.08333 75.1919 4.11C73.6519 5.06333 72.9186 7.00666 72.9919 9.94L75.0819 61.09C75.1553 63.3633 75.4119 65.0133 75.8519 66.04C76.3652 67.0667 77.2819 67.7633 78.6019 68.13C79.9952 68.4967 82.1219 68.68 84.9819 68.68ZM154.731 1.25C154.877 1.25 154.951 1.47 154.951 1.91C154.951 2.35 154.877 2.57 154.731 2.57C152.017 2.57 149.377 3.45 146.811 5.20999C144.244 6.89666 141.934 9.31666 139.881 12.47L124.371 36.01V61.09C124.371 63.3633 124.591 65.0133 125.031 66.04C125.471 67.0667 126.351 67.7633 127.671 68.13C128.991 68.4967 131.117 68.68 134.051 68.68C134.271 68.68 134.381 68.9 134.381 69.34C134.381 69.78 134.271 70 134.051 70C131.851 70 130.127 69.9633 128.881 69.89L121.401 69.78L113.921 69.89C112.601 69.9633 110.841 70 108.641 70C108.421 70 108.311 69.78 108.311 69.34C108.311 68.9 108.421 68.68 108.641 68.68C111.501 68.68 113.591 68.4967 114.911 68.13C116.304 67.7633 117.257 67.0667 117.771 66.04C118.284 64.94 118.541 63.29 118.541 61.09V37.66L99.7305 10.38C97.8238 7.52 95.9538 5.50333 94.1205 4.33C92.2872 3.15666 90.0138 2.57 87.3005 2.57C87.0805 2.57 86.9705 2.35 86.9705 1.91C86.9705 1.47 87.0805 1.25 87.3005 1.25L91.3705 1.36C93.1305 1.50666 94.4505 1.58 95.3305 1.58C97.7505 1.58 100.721 1.50666 104.241 1.36L109.961 1.25C110.107 1.25 110.181 1.47 110.181 1.91C110.181 2.35 110.107 2.57 109.961 2.57C107.761 2.57 106.147 2.75333 105.121 3.12C104.167 3.41333 103.691 3.92666 103.691 4.66C103.691 5.1 104.057 5.87 104.791 6.97L123.271 33.48L137.351 12.14C138.964 9.5 139.771 7.48333 139.771 6.09C139.771 3.74333 137.791 2.57 133.831 2.57C133.684 2.57 133.611 2.35 133.611 1.91C133.611 1.47 133.684 1.25 133.831 1.25L138.781 1.36C141.567 1.50666 144.024 1.58 146.151 1.58C147.397 1.58 148.901 1.50666 150.661 1.36L154.731 1.25ZM268.888 68.68C269.108 68.68 269.218 68.9 269.218 69.34C269.218 69.78 269.108 70 268.888 70C266.615 70 264.818 69.9633 263.498 69.89L256.128 69.78L249.308 69.89C248.208 69.9633 246.668 70 244.688 70C244.542 70 244.468 69.78 244.468 69.34C244.468 68.9 244.542 68.68 244.688 68.68C247.255 68.68 249.125 68.4967 250.298 68.13C251.545 67.69 252.352 66.9567 252.718 65.93C253.158 64.9033 253.305 63.29 253.158 61.09L251.288 9.94L225.548 69.23C225.401 69.5233 225.108 69.67 224.668 69.67C224.301 69.67 223.971 69.5233 223.678 69.23L196.838 10.38L196.728 10.16L195.848 58.56C195.775 62.3733 196.398 65.0133 197.718 66.48C199.038 67.9467 201.495 68.68 205.088 68.68C205.235 68.68 205.308 68.9 205.308 69.34C205.308 69.78 205.235 70 205.088 70C203.035 70 201.458 69.9633 200.358 69.89L194.418 69.78L189.028 69.89C188.075 69.9633 186.645 70 184.738 70C184.591 70 184.518 69.78 184.518 69.34C184.518 68.9 184.591 68.68 184.738 68.68C187.818 68.68 189.981 67.9467 191.228 66.48C192.548 64.94 193.245 62.3 193.318 58.56L194.418 6.42C192.145 3.85333 189.175 2.57 185.508 2.57C185.361 2.57 185.288 2.35 185.288 1.91C185.288 1.47 185.361 1.25 185.508 1.25L189.248 1.36C189.981 1.43333 190.935 1.47 192.108 1.47C193.281 1.47 194.271 1.43333 195.078 1.36C195.885 1.28667 196.508 1.25 196.948 1.25C197.975 1.25 198.781 1.61667 199.368 2.35C199.955 3.01 200.835 4.55 202.008 6.97L226.758 60.43L251.398 4C251.765 3.19333 252.242 2.53333 252.828 2.02C253.488 1.50667 254.111 1.25 254.698 1.25C254.992 1.25 255.468 1.28667 256.128 1.36C256.788 1.43333 257.705 1.47 258.878 1.47L263.828 1.36C264.562 1.28667 265.698 1.25 267.238 1.25C267.385 1.25 267.458 1.47 267.458 1.91C267.458 2.35 267.385 2.57 267.238 2.57C263.425 2.57 260.712 3.08333 259.098 4.11C257.558 5.06333 256.825 7.00666 256.898 9.94L258.988 61.09C259.062 63.3633 259.318 65.0133 259.758 66.04C260.271 67.0667 261.188 67.7633 262.508 68.13C263.901 68.4967 266.028 68.68 268.888 68.68ZM292.547 61.09C292.547 63.3633 292.767 65.0133 293.207 66.04C293.72 67.0667 294.637 67.7633 295.957 68.13C297.277 68.4967 299.403 68.68 302.337 68.68C302.483 68.68 302.557 68.9 302.557 69.34C302.557 69.78 302.483 70 302.337 70C300.137 70 298.413 69.9633 297.167 69.89L289.467 69.78L282.097 69.89C280.777 69.9633 278.98 70 276.707 70C276.487 70 276.377 69.78 276.377 69.34C276.377 68.9 276.487 68.68 276.707 68.68C279.567 68.68 281.657 68.4967 282.977 68.13C284.37 67.7633 285.323 67.0667 285.837 66.04C286.35 64.94 286.607 63.29 286.607 61.09V10.16C286.607 7.96 286.35 6.34667 285.837 5.32C285.323 4.29333 284.37 3.59666 282.977 3.22999C281.657 2.79 279.567 2.57 276.707 2.57C276.487 2.57 276.377 2.35 276.377 1.91C276.377 1.47 276.487 1.25 276.707 1.25L282.097 1.36C285.177 1.50666 287.633 1.58 289.467 1.58C291.52 1.58 294.087 1.50666 297.167 1.36L302.337 1.25C302.483 1.25 302.557 1.47 302.557 1.91C302.557 2.35 302.483 2.57 302.337 2.57C299.477 2.57 297.35 2.79 295.957 3.22999C294.637 3.67 293.72 4.44 293.207 5.54C292.767 6.56666 292.547 8.18 292.547 10.38V61.09ZM322.915 14.56C322.915 17.4933 323.612 20.0233 325.005 22.15C326.399 24.2767 328.085 26.0733 330.065 27.54C332.119 28.9333 334.942 30.6933 338.535 32.82C342.349 35.0933 345.282 37 347.335 38.54C349.462 40.0067 351.259 41.9133 352.725 44.26C354.265 46.6067 355.035 49.43 355.035 52.73C355.035 56.1767 354.192 59.33 352.505 62.19C350.819 64.9767 348.289 67.2133 344.915 68.9C341.615 70.5133 337.545 71.32 332.705 71.32C330.139 71.32 327.682 71.0267 325.335 70.44C323.062 69.9267 320.532 68.9733 317.745 67.58C317.379 67.36 317.122 67.1033 316.975 66.81C316.902 66.5167 316.829 66.0767 316.755 65.49L315.105 51.19V51.08C315.105 50.7867 315.289 50.64 315.655 50.64C316.022 50.5667 316.242 50.6767 316.315 50.97C317.049 56.03 318.992 60.43 322.145 64.17C325.299 67.91 329.625 69.78 335.125 69.78C339.012 69.78 342.275 68.7167 344.915 66.59C347.629 64.4633 348.985 61.1267 348.985 56.58C348.985 53.28 348.252 50.4567 346.785 48.11C345.319 45.69 343.522 43.71 341.395 42.17C339.342 40.5567 336.519 38.6867 332.925 36.56C329.405 34.5067 326.619 32.71 324.565 31.17C322.585 29.63 320.862 27.7233 319.395 25.45C318.002 23.1033 317.305 20.3167 317.305 17.09C317.305 13.4233 318.222 10.3067 320.055 7.74C321.962 5.17333 324.419 3.26666 327.425 2.02C330.432 0.699996 333.659 0.0399959 337.105 0.0399959C341.139 0.0399959 345.319 0.919996 349.645 2.67999C350.745 3.12 351.295 3.74333 351.295 4.55L352.285 16.21C352.285 16.5033 352.065 16.65 351.625 16.65C351.259 16.65 351.039 16.5033 350.965 16.21C350.672 12.3967 349.242 8.98667 346.675 5.98C344.109 2.97333 340.442 1.47 335.675 1.47C331.275 1.47 328.049 2.75333 325.995 5.32C323.942 7.88666 322.915 10.9667 322.915 14.56ZM376.304 14.56C376.304 17.4933 377.001 20.0233 378.394 22.15C379.787 24.2767 381.474 26.0733 383.454 27.54C385.507 28.9333 388.331 30.6933 391.924 32.82C395.737 35.0933 398.671 37 400.724 38.54C402.851 40.0067 404.647 41.9133 406.114 44.26C407.654 46.6067 408.424 49.43 408.424 52.73C408.424 56.1767 407.581 59.33 405.894 62.19C404.207 64.9767 401.677 67.2133 398.304 68.9C395.004 70.5133 390.934 71.32 386.094 71.32C383.527 71.32 381.071 71.0267 378.724 70.44C376.451 69.9267 373.921 68.9733 371.134 67.58C370.767 67.36 370.511 67.1033 370.364 66.81C370.291 66.5167 370.217 66.0767 370.144 65.49L368.494 51.19V51.08C368.494 50.7867 368.677 50.64 369.044 50.64C369.411 50.5667 369.631 50.6767 369.704 50.97C370.437 56.03 372.381 60.43 375.534 64.17C378.687 67.91 383.014 69.78 388.514 69.78C392.401 69.78 395.664 68.7167 398.304 66.59C401.017 64.4633 402.374 61.1267 402.374 56.58C402.374 53.28 401.641 50.4567 400.174 48.11C398.707 45.69 396.911 43.71 394.784 42.17C392.731 40.5567 389.907 38.6867 386.314 36.56C382.794 34.5067 380.007 32.71 377.954 31.17C375.974 29.63 374.251 27.7233 372.784 25.45C371.391 23.1033 370.694 20.3167 370.694 17.09C370.694 13.4233 371.611 10.3067 373.444 7.74C375.351 5.17333 377.807 3.26666 380.814 2.02C383.821 0.699996 387.047 0.0399959 390.494 0.0399959C394.527 0.0399959 398.707 0.919996 403.034 2.67999C404.134 3.12 404.684 3.74333 404.684 4.55L405.674 16.21C405.674 16.5033 405.454 16.65 405.014 16.65C404.647 16.65 404.427 16.5033 404.354 16.21C404.061 12.3967 402.631 8.98667 400.064 5.98C397.497 2.97333 393.831 1.47 389.064 1.47C384.664 1.47 381.437 2.75333 379.384 5.32C377.331 7.88666 376.304 10.9667 376.304 14.56ZM435.633 61.09C435.633 63.3633 435.853 65.0133 436.293 66.04C436.806 67.0667 437.723 67.7633 439.043 68.13C440.363 68.4967 442.489 68.68 445.423 68.68C445.569 68.68 445.643 68.9 445.643 69.34C445.643 69.78 445.569 70 445.423 70C443.223 70 441.499 69.9633 440.253 69.89L432.553 69.78L425.183 69.89C423.863 69.9633 422.066 70 419.793 70C419.573 70 419.463 69.78 419.463 69.34C419.463 68.9 419.573 68.68 419.793 68.68C422.653 68.68 424.743 68.4967 426.063 68.13C427.456 67.7633 428.409 67.0667 428.923 66.04C429.436 64.94 429.693 63.29 429.693 61.09V10.16C429.693 7.96 429.436 6.34667 428.923 5.32C428.409 4.29333 427.456 3.59666 426.063 3.22999C424.743 2.79 422.653 2.57 419.793 2.57C419.573 2.57 419.463 2.35 419.463 1.91C419.463 1.47 419.573 1.25 419.793 1.25L425.183 1.36C428.263 1.50666 430.719 1.58 432.553 1.58C434.606 1.58 437.173 1.50666 440.253 1.36L445.423 1.25C445.569 1.25 445.643 1.47 445.643 1.91C445.643 2.35 445.569 2.57 445.423 2.57C442.563 2.57 440.436 2.79 439.043 3.22999C437.723 3.67 436.806 4.44 436.293 5.54C435.853 6.56666 435.633 8.18 435.633 10.38V61.09ZM477.771 76.49C476.965 76.49 476.158 76.49 475.351 76.49C474.545 76.49 473.738 76.4533 472.931 76.38C467.138 76.0867 462.445 74.18 458.851 70.66C455.258 67.14 453.461 62.3367 453.461 56.25C453.461 50.97 454.965 44.9933 457.971 38.32C461.785 29.8867 468.971 21.8933 479.531 14.34C485.618 10.0133 492.108 6.56667 499.001 4C505.895 1.36 512.861 0.0399959 519.901 0.0399959C524.008 0.0399959 527.748 0.589995 531.121 1.68999C534.568 2.79 537.281 4.44 539.261 6.64C541.315 8.84 542.341 11.6267 542.341 15C542.341 16.1733 542.195 17.42 541.901 18.74C541.608 19.9867 541.131 21.2333 540.471 22.48L539.261 24.79C539.848 26.77 540.141 28.7867 540.141 30.84C540.141 40.0067 535.448 48.77 526.061 57.13C511.688 70.0367 495.591 76.49 477.771 76.49ZM477.111 74.29C491.558 74.29 505.308 68.46 518.361 56.8C527.748 48.44 532.808 40.4833 533.541 32.93C529.728 37.11 523.128 42.0967 513.741 47.89L512.861 48.11C512.275 48.11 513.228 47.0833 515.721 45.03L521.881 39.97C524.521 37.77 526.795 35.7167 528.701 33.81C530.608 31.9033 532.185 30.18 533.431 28.64C532.918 24.5333 530.938 21.0133 527.491 18.08C524.558 15.5133 521.038 13.6067 516.931 12.36C514.878 11.8467 511.505 11.5167 506.811 11.37C502.925 11.2233 500.981 11.04 500.981 10.82C500.981 10.7467 501.055 10.6367 501.201 10.49C504.648 9.39 507.948 8.83999 511.101 8.83999C512.568 8.83999 514.181 8.94999 515.941 9.17C517.701 9.39 519.608 9.75666 521.661 10.27C529.361 12.1033 534.751 15.8433 537.831 21.49C538.565 19.73 538.931 17.9333 538.931 16.1C538.931 13.0933 538.051 10.5633 536.291 8.51C534.605 6.45667 532.295 4.91667 529.361 3.89C526.501 2.86333 523.311 2.35 519.791 2.35C508.718 2.35 498.085 5.90667 487.891 13.02C478.431 19.62 470.951 28.1267 465.451 38.54C461.418 46.0933 459.401 52.8767 459.401 58.89C459.401 68.57 464.278 73.6667 474.031 74.18C474.545 74.2533 475.058 74.29 475.571 74.29C476.085 74.29 476.598 74.29 477.111 74.29ZM613.971 1.25C614.191 1.25 614.301 1.47 614.301 1.91C614.301 2.35 614.191 2.57 613.971 2.57C610.818 2.57 608.581 3.34 607.261 4.88C606.014 6.42 605.391 9.06 605.391 12.8V71.21C605.391 71.3567 605.208 71.4667 604.841 71.54C604.474 71.6133 604.218 71.5767 604.071 71.43L554.351 10.27L552.481 8.18V58.56C552.481 62.3 553.104 64.94 554.351 66.48C555.598 67.9467 557.761 68.68 560.841 68.68C561.061 68.68 561.171 68.9 561.171 69.34C561.171 69.78 561.061 70 560.841 70C559.081 70 557.724 69.9633 556.771 69.89L551.491 69.78L546.101 69.89C545.148 69.9633 543.718 70 541.811 70C541.664 70 541.591 69.78 541.591 69.34C541.591 68.9 541.664 68.68 541.811 68.68C544.964 68.68 547.128 67.9467 548.301 66.48C549.474 65.0133 550.061 62.3733 550.061 58.56V5.87C547.494 3.67 544.854 2.57 542.141 2.57C541.921 2.57 541.811 2.35 541.811 1.91C541.811 1.47 541.921 1.25 542.141 1.25L546.101 1.36C546.908 1.43333 548.044 1.47 549.511 1.47C550.758 1.47 551.784 1.43333 552.591 1.36C553.398 1.28667 554.021 1.25 554.461 1.25C554.974 1.25 555.378 1.39666 555.671 1.68999C556.038 1.91 556.441 2.42333 556.881 3.22999C557.688 4.54999 558.568 5.79666 559.521 6.97L602.971 60.98V12.8C602.971 9.06 602.384 6.42 601.211 4.88C600.038 3.34 597.911 2.57 594.831 2.57C594.684 2.57 594.611 2.35 594.611 1.91C594.611 1.47 594.684 1.25 594.831 1.25L599.011 1.36C601.211 1.50666 602.971 1.58 604.291 1.58C605.538 1.58 607.334 1.50666 609.681 1.36L613.971 1.25Z" fill="#353535"/>
</svg>
