<svg width="615" height="77" viewBox="0 0 615 77" fill="none" xmlns="http://www.w3.org/2000/svg"><path d="M84.982 68.68c.22 0 .33.22.33.66 0 .44-.11.66-.33.66-2.273 0-4.07-.037-5.39-.11l-7.37-.11-6.82.11c-1.1.073-2.64.11-4.62.11-.147 0-.22-.22-.22-.66 0-.44.073-.66.22-.66 2.567 0 4.437-.183 5.61-.55 1.247-.44 2.053-1.173 2.42-2.2.44-1.027.587-2.64.44-4.84l-1.87-51.15-25.74 59.29c-.147.293-.44.44-.88.44-.367 0-.697-.147-.99-.44l-26.84-58.85-.11-.22-.88 48.4c-.073 3.813.55 6.453 1.87 7.92 1.32 1.467 3.777 2.2 7.37 2.2.147 0 .22.22.22.66 0 .44-.073.66-.22.66-2.053 0-3.63-.037-4.73-.11l-5.94-.11-5.39.11c-.953.073-2.383.11-4.29.11-.147 0-.22-.22-.22-.66 0-.44.073-.66.22-.66 3.08 0 5.243-.733 6.49-2.2 1.32-1.54 2.017-4.18 2.09-7.92l1.1-52.14c-2.273-2.567-5.243-3.85-8.91-3.85-.147 0-.22-.22-.22-.66 0-.44.073-.66.22-.66l3.74.11c.733.073 1.687.11 2.86.11a33.77 33.77 0 002.97-.11 22.15 22.15 0 011.87-.11c1.027 0 1.833.367 2.42 1.1.587.66 1.467 2.2 2.64 4.62l24.75 53.46L67.492 4c.367-.807.843-1.467 1.43-1.98.66-.513 1.283-.77 1.87-.77.293 0 .77.037 1.43.11.66.073 1.577.11 2.75.11l4.95-.11c.733-.073 1.87-.11 3.41-.11.147 0 .22.22.22.66 0 .44-.073.66-.22.66-3.813 0-6.527.513-8.14 1.54-1.54.953-2.273 2.897-2.2 5.83l2.09 51.15c.073 2.273.33 3.923.77 4.95.513 1.027 1.43 1.723 2.75 2.09 1.393.367 3.52.55 6.38.55zM154.73 1.25c.146 0 .22.22.22.66 0 .44-.074.66-.22.66-2.714 0-5.354.88-7.92 2.64-2.567 1.687-4.877 4.107-6.93 7.26l-15.51 23.54v25.08c0 2.273.22 3.923.66 4.95.44 1.027 1.32 1.723 2.64 2.09 1.32.367 3.446.55 6.38.55.22 0 .33.22.33.66 0 .44-.11.66-.33.66-2.2 0-3.924-.037-5.17-.11l-7.48-.11-7.48.11c-1.32.073-3.08.11-5.28.11-.22 0-.33-.22-.33-.66 0-.44.11-.66.33-.66 2.86 0 4.95-.183 6.27-.55 1.393-.367 2.346-1.063 2.86-2.09.513-1.1.77-2.75.77-4.95V37.66L99.73 10.38c-1.907-2.86-3.777-4.877-5.61-6.05-1.834-1.173-4.107-1.76-6.82-1.76-.22 0-.33-.22-.33-.66 0-.44.11-.66.33-.66l4.07.11c1.76.147 3.08.22 3.96.22 2.42 0 5.39-.073 8.91-.22l5.72-.11c.146 0 .22.22.22.66 0 .44-.074.66-.22.66-2.2 0-3.814.183-4.84.55-.954.293-1.43.807-1.43 1.54 0 .44.366 1.21 1.1 2.31l18.48 26.51 14.08-21.34c1.613-2.64 2.42-4.657 2.42-6.05 0-2.347-1.98-3.52-5.94-3.52-.147 0-.22-.22-.22-.66 0-.44.073-.66.22-.66l4.95.11c2.786.147 5.243.22 7.37.22 1.246 0 2.75-.073 4.51-.22l4.07-.11zm114.157 67.43c.22 0 .33.22.33.66 0 .44-.11.66-.33.66-2.273 0-4.07-.037-5.39-.11l-7.37-.11-6.82.11c-1.1.073-2.64.11-4.62.11-.146 0-.22-.22-.22-.66 0-.44.074-.66.22-.66 2.567 0 4.437-.183 5.61-.55 1.247-.44 2.054-1.173 2.42-2.2.44-1.027.587-2.64.44-4.84l-1.87-51.15-25.74 59.29c-.147.293-.44.44-.88.44-.367 0-.697-.147-.99-.44l-26.84-58.85-.11-.22-.88 48.4c-.073 3.813.55 6.453 1.87 7.92 1.32 1.467 3.777 2.2 7.37 2.2.147 0 .22.22.22.66 0 .44-.073.66-.22.66-2.053 0-3.63-.037-4.73-.11l-5.94-.11-5.39.11c-.953.073-2.383.11-4.29.11-.147 0-.22-.22-.22-.66 0-.44.073-.66.22-.66 3.08 0 5.243-.733 6.49-2.2 1.32-1.54 2.017-4.18 2.09-7.92l1.1-52.14c-2.273-2.567-5.243-3.85-8.91-3.85-.147 0-.22-.22-.22-.66 0-.44.073-.66.22-.66l3.74.11c.733.073 1.687.11 2.86.11a33.77 33.77 0 002.97-.11c.807-.073 1.43-.11 1.87-.11 1.027 0 1.833.367 2.42 1.1.587.66 1.467 2.2 2.64 4.62l24.75 53.46L251.398 4c.367-.807.844-1.467 1.43-1.98.66-.513 1.283-.77 1.87-.77.294 0 .77.037 1.43.11.66.073 1.577.11 2.75.11l4.95-.11c.734-.073 1.87-.11 3.41-.11.147 0 .22.22.22.66 0 .44-.073.66-.22.66-3.813 0-6.526.513-8.14 1.54-1.54.953-2.273 2.897-2.2 5.83l2.09 51.15c.074 2.273.33 3.923.77 4.95.513 1.027 1.43 1.723 2.75 2.09 1.393.367 3.52.55 6.38.55zm23.659-7.59c0 2.273.22 3.923.66 4.95.513 1.027 1.43 1.723 2.75 2.09 1.32.367 3.446.55 6.38.55.146 0 .22.22.22.66 0 .44-.074.66-.22.66-2.2 0-3.924-.037-5.17-.11l-7.7-.11-7.37.11c-1.32.073-3.117.11-5.39.11-.22 0-.33-.22-.33-.66 0-.44.11-.66.33-.66 2.86 0 4.95-.183 6.27-.55 1.393-.367 2.346-1.063 2.86-2.09.513-1.1.77-2.75.77-4.95V10.16c0-2.2-.257-3.813-.77-4.84-.514-1.027-1.467-1.723-2.86-2.09-1.32-.44-3.41-.66-6.27-.66-.22 0-.33-.22-.33-.66 0-.44.11-.66.33-.66l5.39.11c3.08.147 5.536.22 7.37.22 2.053 0 4.62-.073 7.7-.22l5.17-.11c.146 0 .22.22.22.66 0 .44-.074.66-.22.66-2.86 0-4.987.22-6.38.66-1.32.44-2.237 1.21-2.75 2.31-.44 1.027-.66 2.64-.66 4.84v50.71zm30.368-46.53c0 2.933.697 5.463 2.09 7.59 1.394 2.127 3.08 3.923 5.06 5.39 2.054 1.393 4.877 3.153 8.47 5.28 3.814 2.273 6.747 4.18 8.8 5.72 2.127 1.467 3.924 3.373 5.39 5.72 1.54 2.347 2.31 5.17 2.31 8.47 0 3.447-.843 6.6-2.53 9.46-1.686 2.787-4.216 5.023-7.59 6.71-3.3 1.613-7.37 2.42-12.21 2.42-2.566 0-5.023-.293-7.37-.88-2.273-.513-4.803-1.467-7.59-2.86-.366-.22-.623-.477-.77-.77a12.31 12.31 0 01-.22-1.32l-1.65-14.3v-.11c0-.293.184-.44.55-.44.367-.073.587.037.66.33.734 5.06 2.677 9.46 5.83 13.2 3.154 3.74 7.48 5.61 12.98 5.61 3.887 0 7.15-1.063 9.79-3.19 2.714-2.127 4.07-5.463 4.07-10.01 0-3.3-.733-6.123-2.2-8.47-1.466-2.42-3.263-4.4-5.39-5.94-2.053-1.613-4.876-3.483-8.47-5.61-3.52-2.053-6.306-3.85-8.36-5.39-1.98-1.54-3.703-3.447-5.17-5.72-1.393-2.347-2.09-5.133-2.09-8.36 0-3.667.917-6.783 2.75-9.35 1.907-2.567 4.364-4.473 7.37-5.72 3.007-1.32 6.234-1.98 9.68-1.98 4.034 0 8.214.88 12.54 2.64 1.1.44 1.65 1.063 1.65 1.87l.99 11.66c0 .293-.22.44-.66.44-.366 0-.586-.147-.66-.44-.293-3.813-1.723-7.223-4.29-10.23-2.566-3.007-6.233-4.51-11-4.51-4.4 0-7.626 1.283-9.68 3.85-2.053 2.567-3.08 5.647-3.08 9.24zm53.389 0c0 2.933.697 5.463 2.09 7.59a20.874 20.874 0 005.06 5.39c2.053 1.393 4.877 3.153 8.47 5.28 3.813 2.273 6.747 4.18 8.8 5.72 2.127 1.467 3.923 3.373 5.39 5.72 1.54 2.347 2.31 5.17 2.31 8.47 0 3.447-.843 6.6-2.53 9.46-1.687 2.787-4.217 5.023-7.59 6.71-3.3 1.613-7.37 2.42-12.21 2.42-2.567 0-5.023-.293-7.37-.88-2.273-.513-4.803-1.467-7.59-2.86-.367-.22-.623-.477-.77-.77a12.06 12.06 0 01-.22-1.32l-1.65-14.3v-.11c0-.293.183-.44.55-.44.367-.073.587.037.66.33.733 5.06 2.677 9.46 5.83 13.2 3.153 3.74 7.48 5.61 12.98 5.61 3.887 0 7.15-1.063 9.79-3.19 2.713-2.127 4.07-5.463 4.07-10.01 0-3.3-.733-6.123-2.2-8.47-1.467-2.42-3.263-4.4-5.39-5.94-2.053-1.613-4.877-3.483-8.47-5.61-3.52-2.053-6.307-3.85-8.36-5.39-1.98-1.54-3.703-3.447-5.17-5.72-1.393-2.347-2.09-5.133-2.09-8.36 0-3.667.917-6.783 2.75-9.35 1.907-2.567 4.363-4.473 7.37-5.72C383.82.7 387.046.04 390.493.04c4.033 0 8.213.88 12.54 2.64 1.1.44 1.65 1.063 1.65 1.87l.99 11.66c0 .293-.22.44-.66.44-.367 0-.587-.147-.66-.44-.293-3.813-1.723-7.223-4.29-10.23-2.567-3.007-6.233-4.51-11-4.51-4.4 0-7.627 1.283-9.68 3.85s-3.08 5.647-3.08 9.24zm59.329 46.53c0 2.273.22 3.923.66 4.95.513 1.027 1.43 1.723 2.75 2.09 1.32.367 3.446.55 6.38.55.146 0 .22.22.22.66 0 .44-.074.66-.22.66-2.2 0-3.924-.037-5.17-.11l-7.7-.11-7.37.11c-1.32.073-3.117.11-5.39.11-.22 0-.33-.22-.33-.66 0-.44.11-.66.33-.66 2.86 0 4.95-.183 6.27-.55 1.393-.367 2.346-1.063 2.86-2.09.513-1.1.77-2.75.77-4.95V10.16c0-2.2-.257-3.813-.77-4.84-.514-1.027-1.467-1.723-2.86-2.09-1.32-.44-3.41-.66-6.27-.66-.22 0-.33-.22-.33-.66 0-.44.11-.66.33-.66l5.39.11c3.08.147 5.536.22 7.37.22 2.053 0 4.62-.073 7.7-.22l5.17-.11c.146 0 .22.22.22.66 0 .44-.074.66-.22.66-2.86 0-4.987.22-6.38.66-1.32.44-2.237 1.21-2.75 2.31-.44 1.027-.66 2.64-.66 4.84v50.71zm42.138 15.4h-2.42c-.806 0-1.613-.037-2.42-.11-5.793-.293-10.486-2.2-14.08-5.72-3.593-3.52-5.39-8.323-5.39-14.41 0-5.28 1.504-11.257 4.51-17.93 3.814-8.433 11-16.427 21.56-23.98C485.617 10.013 492.107 6.567 499 4c6.894-2.64 13.86-3.96 20.9-3.96 4.107 0 7.847.55 11.22 1.65 3.447 1.1 6.16 2.75 8.14 4.95 2.054 2.2 3.08 4.987 3.08 8.36 0 1.173-.146 2.42-.44 3.74-.293 1.247-.77 2.493-1.43 3.74l-1.21 2.31c.587 1.98.88 3.997.88 6.05 0 9.167-4.693 17.93-14.08 26.29-14.373 12.907-30.47 19.36-48.29 19.36zm-.66-2.2c14.447 0 28.197-5.83 41.25-17.49 9.387-8.36 14.447-16.317 15.18-23.87-3.813 4.18-10.413 9.167-19.8 14.96l-.88.22c-.586 0 .367-1.027 2.86-3.08l6.16-5.06c2.64-2.2 4.914-4.253 6.82-6.16 1.907-1.907 3.484-3.63 4.73-5.17-.513-4.107-2.493-7.627-5.94-10.56-2.933-2.567-6.453-4.473-10.56-5.72-2.053-.513-5.426-.843-10.12-.99-3.886-.147-5.83-.33-5.83-.55 0-.073.074-.183.22-.33 3.447-1.1 6.747-1.65 9.9-1.65 1.467 0 3.08.11 4.84.33 1.76.22 3.667.587 5.72 1.1 7.7 1.833 13.09 5.573 16.17 11.22.734-1.76 1.1-3.557 1.1-5.39 0-3.007-.88-5.537-2.64-7.59-1.686-2.053-3.996-3.593-6.93-4.62-2.86-1.027-6.05-1.54-9.57-1.54-11.073 0-21.706 3.557-31.9 10.67-9.46 6.6-16.94 15.107-22.44 25.52-4.033 7.553-6.05 14.337-6.05 20.35 0 9.68 4.877 14.777 14.63 15.29.514.073 1.027.11 1.54.11h1.54zM613.97 1.25c.22 0 .33.22.33.66 0 .44-.11.66-.33.66-3.153 0-5.39.77-6.71 2.31-1.247 1.54-1.87 4.18-1.87 7.92v58.41c0 .147-.183.257-.55.33-.367.073-.623.037-.77-.11l-49.72-61.16-1.87-2.09v50.38c0 3.74.623 6.38 1.87 7.92 1.247 1.467 3.41 2.2 6.49 2.2.22 0 .33.22.33.66 0 .44-.11.66-.33.66-1.76 0-3.117-.037-4.07-.11l-5.28-.11-5.39.11c-.953.073-2.383.11-4.29.11-.147 0-.22-.22-.22-.66 0-.44.073-.66.22-.66 3.153 0 5.317-.733 6.49-2.2s1.76-4.107 1.76-7.92V5.87c-2.567-2.2-5.207-3.3-7.92-3.3-.22 0-.33-.22-.33-.66 0-.44.11-.66.33-.66l3.96.11c.807.073 1.943.11 3.41.11 1.247 0 2.273-.037 3.08-.11.807-.073 1.43-.11 1.87-.11.513 0 .917.147 1.21.44.367.22.77.733 1.21 1.54a34.306 34.306 0 002.64 3.74l43.45 54.01V12.8c0-3.74-.587-6.38-1.76-7.92s-3.3-2.31-6.38-2.31c-.147 0-.22-.22-.22-.66 0-.44.073-.66.22-.66l4.18.11c2.2.147 3.96.22 5.28.22 1.247 0 3.043-.073 5.39-.22l4.29-.11z" fill="#353535"/></svg>