<svg width="1037" height="77" viewBox="0 0 1037 77" fill="none" xmlns="http://www.w3.org/2000/svg"><path d="M73.637 69.68c.147 0 .22.22.22.66 0 .44-.073.66-.22.66-2.347 0-4.18-.037-5.5-.11l-7.26-.11-7.48.11c-1.32.073-3.08.11-5.28.11-.147 0-.22-.22-.22-.66 0-.44.073-.66.22-.66 2.933 0 5.06-.183 6.38-.55 1.32-.367 2.2-1.063 2.64-2.09.513-1.027.77-2.677.77-4.95V11.38c0-2.493-.147-4.143-.44-4.95-.294-.807-.99-1.32-2.09-1.54-1.1-.22-3.373-.33-6.82-.33h-22.55c-3.52 0-5.904.11-7.15.33-1.247.22-2.017.77-2.31 1.65-.294.807-.44 2.42-.44 4.84v50.71c0 2.273.22 3.923.66 4.95.513 1.027 1.43 1.723 2.75 2.09 1.32.367 3.447.55 6.38.55.147 0 .22.22.22.66 0 .44-.073.66-.22.66-2.2 0-3.96-.037-5.28-.11l-7.48-.11-7.26.11c-1.32.073-3.153.11-5.5.11-.147 0-.22-.22-.22-.66 0-.44.073-.66.22-.66 2.86 0 4.95-.183 6.27-.55 1.393-.367 2.347-1.063 2.86-2.09.513-1.1.77-2.75.77-4.95V12.48c0-2.273-.257-4.033-.77-5.28-.44-1.247-1.393-2.163-2.86-2.75-1.393-.587-3.447-.88-6.16-.88-.147 0-.22-.22-.22-.66 0-.44.073-.66.22-.66 2.493 0 4.84.037 7.04.11 9.68.147 19.653.22 29.92.22 9.24 0 20.02-.11 32.34-.33h3.85c.147 0 .22.22.22.66 0 .44-.073.66-.22.66-2.787 0-4.877.293-6.27.88-1.394.587-2.347 1.503-2.86 2.75-.514 1.247-.77 3.007-.77 5.28v49.61c0 2.2.256 3.85.77 4.95.513 1.027 1.43 1.723 2.75 2.09 1.393.367 3.52.55 6.38.55zm24.558-8.03c0 2.347.33 4.07.99 5.17.66 1.027 1.907 1.76 3.74 2.2 1.907.44 4.914.66 9.02.66.22 0 .33.22.33.66 0 .44-.11.66-.33.66-3.006 0-5.353-.037-7.04-.11l-9.57-.11-7.26.11c-1.32.073-3.153.11-5.5.11-.146 0-.22-.22-.22-.66 0-.44.074-.66.22-.66 2.86 0 4.95-.183 6.27-.55 1.394-.367 2.31-1.063 2.75-2.09.514-1.1.77-2.75.77-4.95V11.16c0-2.2-.256-3.813-.77-4.84-.44-1.027-1.356-1.723-2.75-2.09-1.32-.44-3.41-.66-6.27-.66-.146 0-.22-.22-.22-.66 0-.44.074-.66.22-.66l5.39.11c3.08.147 5.5.22 7.26.22 1.76 0 3.777-.11 6.05-.33 5.72-.22 8.837-.33 9.35-.33 6.454 0 11.697 1.503 15.73 4.51 4.034 2.933 6.05 7.443 6.05 13.53 0 4.913-1.21 9.057-3.63 12.43-2.42 3.3-5.5 5.757-9.24 7.37-3.666 1.613-7.48 2.42-11.44 2.42-2.2 0-3.996-.183-5.39-.55-.22 0-.33-.183-.33-.55 0-.22.037-.44.11-.66.147-.22.294-.293.44-.22 1.174.293 2.494.44 3.96.44 5.207 0 9.607-1.577 13.2-4.73 3.667-3.153 5.5-7.737 5.5-13.75 0-3.887-.77-7.223-2.31-10.01-1.54-2.86-3.666-5.023-6.38-6.49-2.64-1.54-5.573-2.31-8.8-2.31-3.006 0-5.133.147-6.38.44-1.246.293-2.163.99-2.75 2.09-.513 1.027-.77 2.86-.77 5.5v50.27zM220.08 26.01a48.773 48.773 0 01-.33 3.52 15.343 15.343 0 01-.55 3.19c-2.347 8.433-8.47 17.343-18.37 26.73-5.207 4.84-10.89 8.727-17.05 11.66-6.967 3.447-13.604 5.097-19.91 4.95-5.28-.147-9.717-1.393-13.31-3.74-4.18-2.86-6.27-6.82-6.27-11.88 0-7.04 3.996-15.327 11.99-24.86 1.246-1.467 2.86-3.153 4.84-5.06 1.98-1.907 4.326-3.997 7.04-6.27 5.353-4.62 8.873-7.15 10.56-7.59.366-.147.623-.147.77 0 .073.073.036.293-.11.66-2.86 1.54-6.564 4.473-11.11 8.8-4.547 4.327-7.957 8.067-10.23 11.22-5.207 7.113-7.884 14.117-8.03 21.01 0 4.693 1.54 8.433 4.62 11.22 3.08 2.713 6.966 4.143 11.66 4.29 5.353.073 11.33-1.467 17.93-4.62 6.013-2.933 11.146-6.49 15.4-10.67a59.134 59.134 0 0010.23-13.42c2.053-3.593 3.41-6.893 4.07-9.9.88-3.593 1.32-6.527 1.32-8.8-.074-4.253-1.284-7.773-3.63-10.56-2.274-2.86-5.5-4.327-9.68-4.4-4.84-.073-8.69 1.173-11.55 3.74-2.714 2.493-4.07 5.243-4.07 8.25 0 1.98.513 3.557 1.54 4.73-3.74-.073-5.61-1.613-5.61-4.62 0-1.173.66-2.603 1.98-4.29 5.133-6.233 11.806-9.35 20.02-9.35 4.546 0 8.286 1.283 11.22 3.85 3.153 2.86 4.693 6.93 4.62 12.21zM219.646 71c-.147 0-.22-.22-.22-.66 0-.44.073-.66.22-.66 2.86 0 4.95-.183 6.27-.55 1.393-.367 2.31-1.063 2.75-2.09.513-1.1.77-2.75.77-4.95V11.16c0-2.2-.257-3.813-.77-4.84-.44-1.027-1.357-1.723-2.75-2.09-1.32-.44-3.41-.66-6.27-.66-.147 0-.22-.22-.22-.66 0-.44.073-.66.22-.66h46.09c.733 0 1.1.33 1.1.99l.22 13.31c0 .22-.22.33-.66.33-.44 0-.66-.11-.66-.33 0-3.74-.99-6.71-2.97-8.91-1.98-2.2-4.584-3.3-7.81-3.3h-10.12c-2.714 0-4.73.183-6.05.55-1.32.367-2.237 1.027-2.75 1.98-.514.953-.77 2.42-.77 4.4v50.38c0 2.347.33 4.07.99 5.17.66 1.027 1.906 1.76 3.74 2.2 1.906.44 4.913.66 9.02.66.22 0 .33.22.33.66 0 .44-.11.66-.33.66-3.007 0-5.354-.037-7.04-.11l-9.57-.11-7.26.11c-1.32.073-3.154.11-5.5.11zm71.694-9.35c0 2.347.33 4.07.99 5.17.66 1.027 1.906 1.76 3.74 2.2 1.906.44 4.913.66 9.02.66.22 0 .33.22.33.66 0 .44-.11.66-.33.66-3.007 0-5.354-.037-7.04-.11l-9.57-.11-7.26.11c-1.32.073-3.154.11-5.5.11-.147 0-.22-.22-.22-.66 0-.44.073-.66.22-.66 2.86 0 4.95-.183 6.27-.55 1.393-.367 2.31-1.063 2.75-2.09.513-1.1.77-2.75.77-4.95V11.16c0-2.2-.257-3.813-.77-4.84-.44-1.027-1.357-1.723-2.75-2.09-1.32-.44-3.41-.66-6.27-.66-.147 0-.22-.22-.22-.66 0-.44.073-.66.22-.66l5.39.11c3.08.147 5.5.22 7.26.22 1.76 0 3.776-.11 6.05-.33 5.72-.22 8.836-.33 9.35-.33 6.453 0 11.696 1.503 15.73 4.51 4.033 2.933 6.05 7.443 6.05 13.53 0 4.913-1.21 9.057-3.63 12.43-2.42 3.3-5.5 5.757-9.24 7.37-3.667 1.613-7.48 2.42-11.44 2.42-2.2 0-3.997-.183-5.39-.55-.22 0-.33-.183-.33-.55 0-.22.036-.44.11-.66.146-.22.293-.293.44-.22 1.173.293 2.493.44 3.96.44 5.206 0 9.606-1.577 13.2-4.73 3.666-3.153 5.5-7.737 5.5-13.75 0-3.887-.77-7.223-2.31-10.01-1.54-2.86-3.667-5.023-6.38-6.49-2.64-1.54-5.574-2.31-8.8-2.31-3.007 0-5.134.147-6.38.44-1.247.293-2.164.99-2.75 2.09-.514 1.027-.77 2.86-.77 5.5v50.27zm110.772 8.03c.294 0 .44.22.44.66 0 .44-.146.66-.44.66-1.32 0-3.446-.073-6.38-.22-2.786-.147-4.84-.22-6.16-.22-1.54 0-3.556.073-6.05.22-2.346.147-4.106.22-5.28.22-.293 0-.44-.22-.44-.66 0-.44.147-.66.44-.66 3.007 0 5.17-.257 6.49-.77 1.32-.587 1.98-1.54 1.98-2.86 0-1.027-.403-2.457-1.21-4.29l-10.34-22.33h-26.18l-7.48 18.04c-1.026 2.493-1.54 4.547-1.54 6.16 0 2.127.88 3.667 2.64 4.62 1.76.953 4.51 1.43 8.25 1.43.367 0 .55.22.55.66 0 .44-.183.66-.55.66-1.32 0-3.226-.073-5.72-.22-2.786-.147-5.206-.22-7.26-.22-1.833 0-3.996.073-6.49.22-2.2.147-3.996.22-5.39.22-.366 0-.55-.22-.55-.66 0-.44.184-.66.55-.66 2.054 0 3.777-.367 5.17-1.1 1.467-.733 2.824-2.053 4.07-3.96 1.32-1.907 2.714-4.62 4.18-8.14l22.99-55.33c.147-.22.367-.33.66-.33.367 0 .587.11.66.33l25.52 54.78c1.687 3.74 3.19 6.6 4.51 8.58 1.32 1.907 2.604 3.263 3.85 4.07 1.32.733 2.824 1.1 4.51 1.1zm-52.25-32.23h24.31l-12.87-27.61-11.44 27.61zm141.487 32.23c.22 0 .33.22.33.66 0 .44-.11.66-.33.66-2.273 0-4.07-.037-5.39-.11l-7.37-.11-6.82.11c-1.1.073-2.64.11-4.62.11-.147 0-.22-.22-.22-.66 0-.44.073-.66.22-.66 2.567 0 4.437-.183 5.61-.55 1.247-.44 2.053-1.173 2.42-2.2.44-1.027.587-2.64.44-4.84l-1.87-51.15-25.74 59.29c-.147.293-.44.44-.88.44-.367 0-.697-.147-.99-.44l-26.84-58.85-.11-.22-.88 48.4c-.073 3.813.55 6.453 1.87 7.92 1.32 1.467 3.777 2.2 7.37 2.2.147 0 .22.22.22.66 0 .44-.073.66-.22.66-2.053 0-3.63-.037-4.73-.11l-5.94-.11-5.39.11c-.953.073-2.383.11-4.29.11-.147 0-.22-.22-.22-.66 0-.44.073-.66.22-.66 3.08 0 5.243-.733 6.49-2.2 1.32-1.54 2.017-4.18 2.09-7.92l1.1-52.14c-2.273-2.567-5.243-3.85-8.91-3.85-.147 0-.22-.22-.22-.66 0-.44.073-.66.22-.66l3.74.11c.733.073 1.687.11 2.86.11a33.77 33.77 0 002.97-.11c.807-.073 1.43-.11 1.87-.11 1.027 0 1.833.367 2.42 1.1.587.66 1.467 2.2 2.64 4.62l24.75 53.46L473.859 5c.367-.807.843-1.467 1.43-1.98.66-.513 1.283-.77 1.87-.77.293 0 .77.037 1.43.11.66.073 1.577.11 2.75.11l4.95-.11c.733-.073 1.87-.11 3.41-.11.147 0 .22.22.22.66 0 .44-.073.66-.22.66-3.813 0-6.527.513-8.14 1.54-1.54.953-2.273 2.897-2.2 5.83l2.09 51.15c.073 2.273.33 3.923.77 4.95.513 1.027 1.43 1.723 2.75 2.09 1.393.367 3.52.55 6.38.55zm91.309 0c.22 0 .33.22.33.66 0 .44-.11.66-.33.66-2.274 0-4.07-.037-5.39-.11l-7.37-.11-6.82.11c-1.1.073-2.64.11-4.62.11-.147 0-.22-.22-.22-.66 0-.44.073-.66.22-.66 2.566 0 4.436-.183 5.61-.55 1.246-.44 2.053-1.173 2.42-2.2.44-1.027.586-2.64.44-4.84l-1.87-51.15-25.74 59.29c-.147.293-.44.44-.88.44-.367 0-.697-.147-.99-.44l-26.84-58.85-.11-.22-.88 48.4c-.074 3.813.55 6.453 1.87 7.92 1.32 1.467 3.776 2.2 7.37 2.2.146 0 .22.22.22.66 0 .44-.074.66-.22.66-2.054 0-3.63-.037-4.73-.11l-5.94-.11-5.39.11c-.954.073-2.384.11-4.29.11-.147 0-.22-.22-.22-.66 0-.44.073-.66.22-.66 3.08 0 5.243-.733 6.49-2.2 1.32-1.54 2.016-4.18 2.09-7.92l1.1-52.14c-2.274-2.567-5.244-3.85-8.91-3.85-.147 0-.22-.22-.22-.66 0-.44.073-.66.22-.66l3.74.11c.733.073 1.686.11 2.86.11a33.77 33.77 0 002.97-.11c.806-.073 1.43-.11 1.87-.11 1.026 0 1.833.367 2.42 1.1.586.66 1.466 2.2 2.64 4.62l24.75 53.46L565.168 5c.366-.807.843-1.467 1.43-1.98.66-.513 1.283-.77 1.87-.77.293 0 .77.037 1.43.11.66.073 1.576.11 2.75.11l4.95-.11c.733-.073 1.87-.11 3.41-.11.146 0 .22.22.22.66 0 .44-.074.66-.22.66-3.814 0-6.527.513-8.14 1.54-1.54.953-2.274 2.897-2.2 5.83l2.09 51.15c.073 2.273.33 3.923.77 4.95.513 1.027 1.43 1.723 2.75 2.09 1.393.367 3.52.55 6.38.55zm78.878 0c.294 0 .44.22.44.66 0 .44-.146.66-.44.66-1.32 0-3.446-.073-6.38-.22-2.786-.147-4.84-.22-6.16-.22-1.54 0-3.556.073-6.05.22-2.346.147-4.106.22-5.28.22-.293 0-.44-.22-.44-.66 0-.44.147-.66.44-.66 3.007 0 5.17-.257 6.49-.77 1.32-.587 1.98-1.54 1.98-2.86 0-1.027-.403-2.457-1.21-4.29l-10.34-22.33h-26.18l-7.48 18.04c-1.026 2.493-1.54 4.547-1.54 6.16 0 2.127.88 3.667 2.64 4.62 1.76.953 4.51 1.43 8.25 1.43.367 0 .55.22.55.66 0 .44-.183.66-.55.66-1.32 0-3.226-.073-5.72-.22-2.786-.147-5.206-.22-7.26-.22-1.833 0-3.996.073-6.49.22-2.2.147-3.996.22-5.39.22-.366 0-.55-.22-.55-.66 0-.44.184-.66.55-.66 2.054 0 3.777-.367 5.17-1.1 1.467-.733 2.824-2.053 4.07-3.96 1.32-1.907 2.714-4.62 4.18-8.14l22.99-55.33c.147-.22.367-.33.66-.33.367 0 .587.11.66.33l25.52 54.78c1.687 3.74 3.19 6.6 4.51 8.58 1.32 1.907 2.604 3.263 3.85 4.07 1.32.733 2.824 1.1 4.51 1.1zm-52.25-32.23h24.31l-12.87-27.61-11.44 27.61zm149.008 32.23c.147 0 .22.22.22.66 0 .44-.073.66-.22.66h-13.09c-1.027 0-1.943-.257-2.75-.77-.733-.587-1.98-2.053-3.74-4.4-1.76-2.347-4.913-6.783-9.46-13.31-3.447-5.06-6.05-8.58-7.81-10.56-1.687-2.053-3.41-3.483-5.17-4.29-1.76-.88-4.107-1.32-7.04-1.32-.733 0-1.32.037-1.76.11v25.63c0 2.273.22 3.923.66 4.95.513 1.027 1.43 1.723 2.75 2.09 1.32.367 3.447.55 6.38.55.147 0 .22.22.22.66 0 .44-.073.66-.22.66-2.2 0-3.96-.037-5.28-.11l-7.48-.11-7.26.11c-1.32.073-3.153.11-5.5.11-.147 0-.22-.22-.22-.66 0-.44.073-.66.22-.66 2.86 0 4.95-.183 6.27-.55 1.393-.367 2.347-1.063 2.86-2.09.513-1.1.77-2.75.77-4.95V11.16c0-2.2-.257-3.813-.77-4.84-.44-1.027-1.357-1.723-2.75-2.09-1.32-.44-3.41-.66-6.27-.66-.147 0-.22-.22-.22-.66 0-.44.073-.66.22-.66l5.39.11c3.08.147 5.5.22 7.26.22 1.98 0 4.51-.073 7.59-.22l5.17-.11c.147 0 .22.22.22.66 0 .44-.073.66-.22.66-2.86 0-4.987.22-6.38.66-1.32.44-2.237 1.21-2.75 2.31-.44 1.027-.66 2.64-.66 4.84v23.21c3.96-.147 6.417-.22 7.37-.22 1.173 0 2.017.037 2.53.11l13.86-19.36c1.76-2.493 3.043-4.437 3.85-5.83.807-1.467 1.21-2.603 1.21-3.41 0-.88-.477-1.467-1.43-1.76-.953-.367-2.457-.55-4.51-.55-.147 0-.22-.22-.22-.66 0-.44.073-.66.22-.66l4.62.11c2.787.147 5.353.22 7.7.22 2.347 0 4.767-.073 7.26-.22l3.85-.11c.22 0 .33.22.33.66 0 .44-.11.66-.33.66-4.033 0-7.37.88-10.01 2.64-2.567 1.76-5.647 4.987-9.24 9.68l-14.63 18.92c2.127.44 3.96 1.467 5.5 3.08 1.613 1.613 3.997 4.73 7.15 9.35l2.2 3.08c3.373 4.84 6.16 8.543 8.36 11.11 2.2 2.567 4.51 4.583 6.93 6.05 2.42 1.393 5.17 2.127 8.25 2.2zm68.89-67.43c.147 0 .22.22.22.66 0 .44-.073.66-.22.66-3.667 0-6.783 2.53-9.35 7.59l-20.9 44.22c-1.98 4.327-3.19 6.967-3.63 7.92-1.173 2.713-2.017 4.547-2.53 5.5-.513.88-1.063 1.467-1.65 1.76-.513.293-1.32.44-2.42.44h-15.62c-.22 0-.33-.22-.33-.66 0-.44.11-.66.33-.66 5.5 0 10.047-1.027 13.64-3.08 3.667-2.127 6.783-5.793 9.35-11l-23.54-44.22c-1.54-2.933-3.007-4.95-4.4-6.05-1.32-1.173-3.08-1.76-5.28-1.76-.147 0-.22-.22-.22-.66 0-.44.073-.66.22-.66l4.73.11c2.2.147 3.777.22 4.73.22 2.127 0 4.657-.073 7.59-.22l4.73-.11c.22 0 .33.22.33.66 0 .44-.11.66-.33.66-4.547 0-6.82 1.173-6.82 3.52 0 .88.33 1.943.99 3.19l20.68 38.17 18.04-37.95c.66-1.32.99-2.42.99-3.3 0-1.247-.733-2.163-2.2-2.75-1.393-.587-3.63-.88-6.71-.88-.22 0-.33-.22-.33-.66 0-.44.11-.66.33-.66l4.4.11c2.493.147 4.73.22 6.71.22 1.173 0 2.64-.073 4.4-.22l4.07-.11zm20.064 59.4c0 2.347.33 4.07.99 5.17.66 1.027 1.907 1.76 3.74 2.2 1.907.44 4.913.66 9.02.66.22 0 .33.22.33.66 0 .44-.11.66-.33.66-3.007 0-5.353-.037-7.04-.11l-9.57-.11-7.26.11c-1.32.073-3.153.11-5.5.11-.147 0-.22-.22-.22-.66 0-.44.073-.66.22-.66 2.86 0 4.95-.183 6.27-.55 1.393-.367 2.31-1.063 2.75-2.09.513-1.1.77-2.75.77-4.95V11.16c0-2.2-.257-3.813-.77-4.84-.44-1.027-1.357-1.723-2.75-2.09-1.32-.44-3.41-.66-6.27-.66-.147 0-.22-.22-.22-.66 0-.44.073-.66.22-.66l5.39.11c3.08.147 5.5.22 7.26.22 1.76 0 3.777-.11 6.05-.33 5.72-.22 8.837-.33 9.35-.33 6.453 0 11.697 1.503 15.73 4.51 4.033 2.933 6.05 7.443 6.05 13.53 0 4.913-1.21 9.057-3.63 12.43-2.42 3.3-5.5 5.757-9.24 7.37-3.667 1.613-7.48 2.42-11.44 2.42-2.2 0-3.997-.183-5.39-.55-.22 0-.33-.183-.33-.55 0-.22.037-.44.11-.66.147-.22.293-.293.44-.22 1.173.293 2.493.44 3.96.44 5.207 0 9.607-1.577 13.2-4.73 3.667-3.153 5.5-7.737 5.5-13.75 0-3.887-.77-7.223-2.31-10.01-1.54-2.86-3.667-5.023-6.38-6.49-2.64-1.54-5.573-2.31-8.8-2.31-3.007 0-5.133.147-6.38.44-1.247.293-2.163.99-2.75 2.09-.513 1.027-.77 2.86-.77 5.5v50.27zm84.374-60.61c3.594 0 7.187.367 10.78 1.1 3.667.733 6.6 1.723 8.8 2.97.587.367.954.733 1.1 1.1.22.293.367.807.44 1.54l1.21 11.55c0 .22-.183.367-.55.44-.366 0-.586-.11-.66-.33-2.64-10.707-11.11-16.06-25.41-16.06-5.72 0-10.78 1.247-15.18 3.74-4.326 2.42-7.7 5.867-10.12 10.34-2.42 4.473-3.63 9.643-3.63 15.51 0 6.893 1.504 13.273 4.51 19.14 3.007 5.793 7.004 10.413 11.99 13.86 4.987 3.373 10.377 5.06 16.17 5.06 5.427 0 10.084-1.43 13.97-4.29 3.96-2.86 6.857-7.223 8.69-13.09 0-.22.147-.33.44-.33.22 0 .404.037.55.11.22.073.33.183.33.33l-1.54 11.77c-.146.88-.33 1.467-.55 1.76-.146.22-.55.477-1.21.77-6.526 2.86-13.53 4.29-21.01 4.29-8.8 0-16.133-1.76-22-5.28-5.866-3.593-10.193-8.14-12.98-13.64-2.786-5.573-4.18-11.403-4.18-17.49 0-6.673 1.87-12.65 5.61-17.93 3.74-5.353 8.69-9.497 14.85-12.43 6.16-3.007 12.687-4.51 19.58-4.51zm104.498 68.64c.29 0 .44.22.44.66 0 .44-.15.66-.44.66-1.32 0-3.45-.073-6.38-.22-2.79-.147-4.84-.22-6.16-.22-1.54 0-3.56.073-6.05.22-2.35.147-4.11.22-5.28.22-.3 0-.44-.22-.44-.66 0-.44.14-.66.44-.66 3 0 5.17-.257 6.49-.77 1.32-.587 1.98-1.54 1.98-2.86 0-1.027-.41-2.457-1.21-4.29l-10.34-22.33h-26.184l-7.48 18.04c-1.026 2.493-1.54 4.547-1.54 6.16 0 2.127.88 3.667 2.64 4.62 1.76.953 4.51 1.43 8.25 1.43.367 0 .55.22.55.66 0 .44-.183.66-.55.66-1.32 0-3.226-.073-5.72-.22-2.786-.147-5.206-.22-7.26-.22-1.833 0-3.996.073-6.49.22-2.2.147-3.996.22-5.39.22-.366 0-.55-.22-.55-.66 0-.44.184-.66.55-.66 2.054 0 3.777-.367 5.17-1.1 1.467-.733 2.824-2.053 4.07-3.96 1.32-1.907 2.714-4.62 4.18-8.14l22.99-55.33c.147-.22.367-.33.66-.33.367 0 .587.11.66.33l25.524 54.78c1.68 3.74 3.19 6.6 4.51 8.58 1.32 1.907 2.6 3.263 3.85 4.07 1.32.733 2.82 1.1 4.51 1.1zm-52.254-32.23h24.314L995.306 9.84l-11.44 27.61z" fill="#FCFCFC"/></svg>1 758.294 71H745.204C744.177 71 743.261 70.7433 742.454 70.23C741.721 69.6433 740.474 68.1767 738.714 65.83C736.954 63.4833 733.801 59.0467 729.254 52.52C725.807 47.46 723.204 43.94 721.444 41.96C719.757 39.9067 718.034 38.4767 716.274 37.67C714.514 36.79 712.167 36.35 709.234 36.35C708.501 36.35 707.914 36.3867 707.474 36.46V62.09C707.474 64.3633 707.694 66.0133 708.134 67.04C708.647 68.0667 709.564 68.7633 710.884 69.13C712.204 69.4967 714.331 69.68 717.264 69.68C717.411 69.68 717.484 69.9 717.484 70.34C717.484 70.78 717.411 71 717.264 71C715.064 71 713.304 70.9633 711.984 70.89L704.504 70.78L697.244 70.89C695.924 70.9633 694.091 71 691.744 71C691.597 71 691.524 70.78 691.524 70.34C691.524 69.9 691.597 69.68 691.744 69.68C694.604 69.68 696.694 69.4967 698.014 69.13C699.407 68.7633 700.361 68.0667 700.874 67.04C701.387 65.94 701.644 64.29 701.644 62.09V11.16C701.644 8.96 701.387 7.34667 700.874 6.32C700.434 5.29333 699.517 4.59666 698.124 4.22999C696.804 3.79 694.714 3.57 691.854 3.57C691.707 3.57 691.634 3.35 691.634 2.91C691.634 2.47 691.707 2.25 691.854 2.25L697.244 2.36C700.324 2.50666 702.744 2.58 704.504 2.58C706.484 2.58 709.014 2.50666 712.094 2.36L717.264 2.25C717.411 2.25 717.484 2.47 717.484 2.91C717.484 3.35 717.411 3.57 717.264 3.57C714.404 3.57 712.277 3.79 710.884 4.22999C709.564 4.67 708.647 5.44 708.134 6.54C707.694 7.56666 707.474 9.18 707.474 11.38V34.59C711.434 34.4433 713.891 34.37 714.844 34.37C716.017 34.37 716.861 34.4067 717.374 34.48L731.234 15.12C732.994 12.6267 734.277 10.6833 735.084 9.28999C735.891 7.82333 736.294 6.68666 736.294 5.88C736.294 5 735.817 4.41333 734.864 4.12C733.911 3.75333 732.407 3.57 730.354 3.57C730.207 3.57 730.134 3.35 730.134 2.91C730.134 2.47 730.207 2.25 730.354 2.25L734.974 2.36C737.761 2.50666 740.327 2.58 742.674 2.58C745.021 2.58 747.441 2.50666 749.934 2.36L753.784 2.25C754.004 2.25 754.114 2.47 754.114 2.91C754.114 3.35 754.004 3.57 753.784 3.57C749.751 3.57 746.414 4.45 743.774 6.20999C741.207 7.97 738.127 11.1967 734.534 15.89L719.904 34.81C722.031 35.25 723.864 36.2767 725.404 37.89C727.017 39.5033 729.401 42.62 732.554 47.24L734.754 50.32C738.127 55.16 740.914 58.8633 743.114 61.43C745.314 63.9967 747.624 66.0133 750.044 67.48C752.464 68.8733 755.214 69.6067 758.294 69.68ZM827.184 2.25C827.331 2.25 827.404 2.47 827.404 2.91C827.404 3.35 827.331 3.57 827.184 3.57C823.517 3.57 820.401 6.1 817.834 11.16L796.934 55.38C794.954 59.7067 793.744 62.3467 793.304 63.3C792.131 66.0133 791.287 67.8467 790.774 68.8C790.261 69.68 789.711 70.2667 789.124 70.56C788.611 70.8533 787.804 71 786.704 71H771.084C770.864 71 770.754 70.78 770.754 70.34C770.754 69.9 770.864 69.68 771.084 69.68C776.584 69.68 781.131 68.6533 784.724 66.6C788.391 64.4733 791.507 60.8067 794.074 55.6L770.534 11.38C768.994 8.44666 767.527 6.43 766.134 5.33C764.814 4.15666 763.054 3.57 760.854 3.57C760.707 3.57 760.634 3.35 760.634 2.91C760.634 2.47 760.707 2.25 760.854 2.25L765.584 2.36C767.784 2.50666 769.361 2.58 770.314 2.58C772.441 2.58 774.971 2.50666 777.904 2.36L782.634 2.25C782.854 2.25 782.964 2.47 782.964 2.91C782.964 3.35 782.854 3.57 782.634 3.57C778.087 3.57 775.814 4.74333 775.814 7.09C775.814 7.97 776.144 9.03333 776.804 10.28L797.484 48.45L815.524 10.5C816.184 9.18 816.514 8.08 816.514 7.2C816.514 5.95333 815.781 5.03667 814.314 4.45C812.921 3.86333 810.684 3.57 807.604 3.57C807.384 3.57 807.274 3.35 807.274 2.91C807.274 2.47 807.384 2.25 807.604 2.25L812.004 2.36C814.497 2.50666 816.734 2.58 818.714 2.58C819.887 2.58 821.354 2.50666 823.114 2.36L827.184 2.25ZM847.248 61.65C847.248 63.9967 847.578 65.72 848.238 66.82C848.898 67.8467 850.145 68.58 851.978 69.02C853.885 69.46 856.891 69.68 860.998 69.68C861.218 69.68 861.328 69.9 861.328 70.34C861.328 70.78 861.218 71 860.998 71C857.991 71 855.645 70.9633 853.958 70.89L844.388 70.78L837.128 70.89C835.808 70.9633 833.975 71 831.628 71C831.481 71 831.408 70.78 831.408 70.34C831.408 69.9 831.481 69.68 831.628 69.68C834.488 69.68 836.578 69.4967 837.898 69.13C839.291 68.7633 840.208 68.0667 840.648 67.04C841.161 65.94 841.418 64.29 841.418 62.09V11.16C841.418 8.96 841.161 7.34667 840.648 6.32C840.208 5.29333 839.291 4.59666 837.898 4.22999C836.578 3.79 834.488 3.57 831.628 3.57C831.481 3.57 831.408 3.35 831.408 2.91C831.408 2.47 831.481 2.25 831.628 2.25L837.018 2.36C840.098 2.50666 842.518 2.58 844.278 2.58C846.038 2.58 848.055 2.47 850.328 2.25C856.048 2.03 859.165 1.92 859.678 1.92C866.131 1.92 871.375 3.42333 875.408 6.43C879.441 9.36333 881.458 13.8733 881.458 19.96C881.458 24.8733 880.248 29.0167 877.828 32.39C875.408 35.69 872.328 38.1467 868.588 39.76C864.921 41.3733 861.108 42.18 857.148 42.18C854.948 42.18 853.151 41.9967 851.758 41.63C851.538 41.63 851.428 41.4467 851.428 41.08C851.428 40.86 851.465 40.64 851.538 40.42C851.685 40.2 851.831 40.1267 851.978 40.2C853.151 40.4933 854.471 40.64 855.938 40.64C861.145 40.64 865.545 39.0633 869.138 35.91C872.805 32.7567 874.638 28.1733 874.638 22.16C874.638 18.2733 873.868 14.9367 872.328 12.15C870.788 9.29 868.661 7.12667 865.948 5.66C863.308 4.12 860.375 3.35 857.148 3.35C854.141 3.35 852.015 3.49667 850.768 3.79C849.521 4.08333 848.605 4.78 848.018 5.88C847.505 6.90667 847.248 8.74 847.248 11.38V61.65ZM931.622 1.04C935.216 1.04 938.809 1.40666 942.402 2.13999C946.069 2.87333 949.002 3.86333 951.202 5.11C951.789 5.47666 952.156 5.84333 952.302 6.20999C952.522 6.50333 952.669 7.01666 952.742 7.74999L953.952 19.3C953.952 19.52 953.769 19.6667 953.402 19.74C953.036 19.74 952.816 19.63 952.742 19.41C950.102 8.70333 941.632 3.35 927.332 3.35C921.612 3.35 916.552 4.59666 912.152 7.09C907.826 9.51 904.452 12.9567 902.032 17.43C899.612 21.9033 898.402 27.0733 898.402 32.94C898.402 39.8333 899.906 46.2133 902.912 52.08C905.919 57.8733 909.916 62.4933 914.902 65.94C919.889 69.3133 925.279 71 931.072 71C936.499 71 941.156 69.57 945.042 66.71C949.002 63.85 951.899 59.4867 953.732 53.62C953.732 53.4 953.879 53.29 954.172 53.29C954.392 53.29 954.576 53.3267 954.722 53.4C954.942 53.4733 955.052 53.5833 955.052 53.73L953.512 65.5C953.366 66.38 953.182 66.9667 952.962 67.26C952.816 67.48 952.412 67.7367 951.752 68.03C945.226 70.89 938.222 72.32 930.742 72.32C921.942 72.32 914.609 70.56 908.742 67.04C902.876 63.4467 898.549 58.9 895.762 53.4C892.976 47.8267 891.582 41.9967 891.582 35.91C891.582 29.2367 893.452 23.26 897.192 17.98C900.932 12.6267 905.882 8.48333 912.042 5.55C918.202 2.54333 924.729 1.04 931.622 1.04ZM1036.12 69.68C1036.41 69.68 1036.56 69.9 1036.56 70.34C1036.56 70.78 1036.41 71 1036.12 71C1034.8 71 1032.67 70.9267 1029.74 70.78C1026.95 70.6333 1024.9 70.56 1023.58 70.56C1022.04 70.56 1020.02 70.6333 1017.53 70.78C1015.18 70.9267 1013.42 71 1012.25 71C1011.95 71 1011.81 70.78 1011.81 70.34C1011.81 69.9 1011.95 69.68 1012.25 69.68C1015.25 69.68 1017.42 69.4233 1018.74 68.91C1020.06 68.3233 1020.72 67.37 1020.72 66.05C1020.72 65.0233 1020.31 63.5933 1019.51 61.76L1009.17 39.43H982.986L975.506 57.47C974.48 59.9633 973.966 62.0167 973.966 63.63C973.966 65.7567 974.846 67.2967 976.606 68.25C978.366 69.2033 981.116 69.68 984.856 69.68C985.223 69.68 985.406 69.9 985.406 70.34C985.406 70.78 985.223 71 984.856 71C983.536 71 981.63 70.9267 979.136 70.78C976.35 70.6333 973.93 70.56 971.876 70.56C970.043 70.56 967.88 70.6333 965.386 70.78C963.186 70.9267 961.39 71 959.996 71C959.63 71 959.446 70.78 959.446 70.34C959.446 69.9 959.63 69.68 959.996 69.68C962.05 69.68 963.773 69.3133 965.166 68.58C966.633 67.8467 967.99 66.5267 969.236 64.62C970.556 62.7133 971.95 60 973.416 56.48L996.406 1.14999C996.553 0.929997 996.773 0.819999 997.066 0.819999C997.433 0.819999 997.653 0.929997 997.726 1.14999L1023.25 55.93C1024.93 59.67 1026.44 62.53 1027.76 64.51C1029.08 66.4167 1030.36 67.7733 1031.61 68.58C1032.93 69.3133 1034.43 69.68 1036.12 69.68ZM983.866 37.45H1008.18L995.306 9.83999L983.866 37.45Z" fill="#FCFCFC"/>
</svg>
