<svg width="1037" height="77" viewBox="0 0 1037 77" fill="none" xmlns="http://www.w3.org/2000/svg">
<path d="M73.6369 69.68C73.7835 69.68 73.8569 69.9 73.8569 70.34C73.8569 70.78 73.7835 71 73.6369 71C71.2902 71 69.4569 70.9633 68.1369 70.89L60.8769 70.78L53.3969 70.89C52.0769 70.9633 50.3169 71 48.1169 71C47.9702 71 47.8969 70.78 47.8969 70.34C47.8969 69.9 47.9702 69.68 48.1169 69.68C51.0502 69.68 53.1769 69.4967 54.4969 69.13C55.8169 68.7633 56.6969 68.0667 57.1369 67.04C57.6502 66.0133 57.9069 64.3633 57.9069 62.09V11.38C57.9069 8.88666 57.7602 7.23666 57.4669 6.43C57.1735 5.62333 56.4769 5.11 55.3769 4.89C54.2769 4.67 52.0035 4.56 48.5569 4.56H26.0069C22.4869 4.56 20.1035 4.67 18.8569 4.89C17.6102 5.11 16.8402 5.66 16.5469 6.54C16.2535 7.34666 16.1069 8.95999 16.1069 11.38V62.09C16.1069 64.3633 16.3269 66.0133 16.7669 67.04C17.2802 68.0667 18.1969 68.7633 19.5169 69.13C20.8369 69.4967 22.9635 69.68 25.8969 69.68C26.0435 69.68 26.1169 69.9 26.1169 70.34C26.1169 70.78 26.0435 71 25.8969 71C23.6969 71 21.9369 70.9633 20.6169 70.89L13.1369 70.78L5.87687 70.89C4.55687 70.9633 2.72354 71 0.37687 71C0.230204 71 0.15687 70.78 0.15687 70.34C0.15687 69.9 0.230204 69.68 0.37687 69.68C3.23687 69.68 5.32687 69.4967 6.64687 69.13C8.0402 68.7633 8.99354 68.0667 9.50687 67.04C10.0202 65.94 10.2769 64.29 10.2769 62.09V12.48C10.2769 10.2067 10.0202 8.44666 9.50687 7.2C9.06687 5.95333 8.11354 5.03667 6.64687 4.45C5.25354 3.86333 3.2002 3.57 0.48687 3.57C0.340203 3.57 0.26687 3.35 0.26687 2.91C0.26687 2.47 0.340203 2.25 0.48687 2.25C2.9802 2.25 5.32687 2.28667 7.52687 2.36C17.2069 2.50666 27.1802 2.58 37.4469 2.58C46.6869 2.58 57.4669 2.47 69.7869 2.25H73.6369C73.7835 2.25 73.8569 2.47 73.8569 2.91C73.8569 3.35 73.7835 3.57 73.6369 3.57C70.8502 3.57 68.7602 3.86333 67.3669 4.45C65.9735 5.03667 65.0202 5.95333 64.5069 7.2C63.9935 8.44666 63.7369 10.2067 63.7369 12.48V62.09C63.7369 64.29 63.9935 65.94 64.5069 67.04C65.0202 68.0667 65.9369 68.7633 67.2569 69.13C68.6502 69.4967 70.7769 69.68 73.6369 69.68ZM98.1952 61.65C98.1952 63.9967 98.5252 65.72 99.1852 66.82C99.8452 67.8467 101.092 68.58 102.925 69.02C104.832 69.46 107.839 69.68 111.945 69.68C112.165 69.68 112.275 69.9 112.275 70.34C112.275 70.78 112.165 71 111.945 71C108.939 71 106.592 70.9633 104.905 70.89L95.3352 70.78L88.0752 70.89C86.7552 70.9633 84.9219 71 82.5752 71C82.4286 71 82.3552 70.78 82.3552 70.34C82.3552 69.9 82.4286 69.68 82.5752 69.68C85.4352 69.68 87.5252 69.4967 88.8452 69.13C90.2386 68.7633 91.1552 68.0667 91.5952 67.04C92.1086 65.94 92.3652 64.29 92.3652 62.09V11.16C92.3652 8.96 92.1086 7.34667 91.5952 6.32C91.1552 5.29333 90.2386 4.59666 88.8452 4.22999C87.5252 3.79 85.4352 3.57 82.5752 3.57C82.4286 3.57 82.3552 3.35 82.3552 2.91C82.3552 2.47 82.4286 2.25 82.5752 2.25L87.9652 2.36C91.0452 2.50666 93.4652 2.58 95.2252 2.58C96.9852 2.58 99.0019 2.47 101.275 2.25C106.995 2.03 110.112 1.92 110.625 1.92C117.079 1.92 122.322 3.42333 126.355 6.43C130.389 9.36333 132.405 13.8733 132.405 19.96C132.405 24.8733 131.195 29.0167 128.775 32.39C126.355 35.69 123.275 38.1467 119.535 39.76C115.869 41.3733 112.055 42.18 108.095 42.18C105.895 42.18 104.099 41.9967 102.705 41.63C102.485 41.63 102.375 41.4467 102.375 41.08C102.375 40.86 102.412 40.64 102.485 40.42C102.632 40.2 102.779 40.1267 102.925 40.2C104.099 40.4933 105.419 40.64 106.885 40.64C112.092 40.64 116.492 39.0633 120.085 35.91C123.752 32.7567 125.585 28.1733 125.585 22.16C125.585 18.2733 124.815 14.9367 123.275 12.15C121.735 9.29 119.609 7.12667 116.895 5.66C114.255 4.12 111.322 3.35 108.095 3.35C105.089 3.35 102.962 3.49667 101.715 3.79C100.469 4.08333 99.5519 4.78 98.9652 5.88C98.4519 6.90667 98.1952 8.74 98.1952 11.38V61.65ZM220.08 26.01C220.006 27.2567 219.896 28.43 219.75 29.53C219.676 30.63 219.493 31.6933 219.2 32.72C216.853 41.1533 210.73 50.0633 200.83 59.45C195.623 64.29 189.94 68.1767 183.78 71.11C176.813 74.5567 170.176 76.2067 163.87 76.06C158.59 75.9133 154.153 74.6667 150.56 72.32C146.38 69.46 144.29 65.5 144.29 60.44C144.29 53.4 148.286 45.1133 156.28 35.58C157.526 34.1133 159.14 32.4267 161.12 30.52C163.1 28.6133 165.446 26.5233 168.16 24.25C173.513 19.63 177.033 17.1 178.72 16.66C179.086 16.5133 179.343 16.5133 179.49 16.66C179.563 16.7333 179.526 16.9533 179.38 17.32C176.52 18.86 172.816 21.7933 168.27 26.12C163.723 30.4467 160.313 34.1867 158.04 37.34C152.833 44.4533 150.156 51.4567 150.01 58.35C150.01 63.0433 151.55 66.7833 154.63 69.57C157.71 72.2833 161.596 73.7133 166.29 73.86C171.643 73.9333 177.62 72.3933 184.22 69.24C190.233 66.3067 195.366 62.75 199.62 58.57C203.653 54.61 207.063 50.1367 209.85 45.15C211.903 41.5567 213.26 38.2567 213.92 35.25C214.8 31.6567 215.24 28.7233 215.24 26.45C215.166 22.1967 213.956 18.6767 211.61 15.89C209.336 13.03 206.11 11.5633 201.93 11.49C197.09 11.4167 193.24 12.6633 190.38 15.23C187.666 17.7233 186.31 20.4733 186.31 23.48C186.31 25.46 186.823 27.0367 187.85 28.21C184.11 28.1367 182.24 26.5967 182.24 23.59C182.24 22.4167 182.9 20.9867 184.22 19.3C189.353 13.0667 196.026 9.95 204.24 9.95C208.786 9.95 212.526 11.2333 215.46 13.8C218.613 16.66 220.153 20.73 220.08 26.01ZM219.646 71C219.499 71 219.426 70.78 219.426 70.34C219.426 69.9 219.499 69.68 219.646 69.68C222.506 69.68 224.596 69.4967 225.916 69.13C227.309 68.7633 228.226 68.0667 228.666 67.04C229.179 65.94 229.436 64.29 229.436 62.09V11.16C229.436 8.96 229.179 7.34667 228.666 6.32C228.226 5.29333 227.309 4.59666 225.916 4.22999C224.596 3.79 222.506 3.57 219.646 3.57C219.499 3.57 219.426 3.35 219.426 2.91C219.426 2.47 219.499 2.25 219.646 2.25H265.736C266.469 2.25 266.836 2.58 266.836 3.23999L267.056 16.55C267.056 16.77 266.836 16.88 266.396 16.88C265.956 16.88 265.736 16.77 265.736 16.55C265.736 12.81 264.746 9.84 262.766 7.64C260.786 5.44 258.182 4.34 254.956 4.34H244.836C242.122 4.34 240.106 4.52333 238.786 4.89C237.466 5.25667 236.549 5.91667 236.036 6.87C235.522 7.82333 235.266 9.28999 235.266 11.27V61.65C235.266 63.9967 235.596 65.72 236.256 66.82C236.916 67.8467 238.162 68.58 239.996 69.02C241.902 69.46 244.909 69.68 249.016 69.68C249.236 69.68 249.346 69.9 249.346 70.34C249.346 70.78 249.236 71 249.016 71C246.009 71 243.662 70.9633 241.976 70.89L232.406 70.78L225.146 70.89C223.826 70.9633 221.992 71 219.646 71ZM291.34 61.65C291.34 63.9967 291.67 65.72 292.33 66.82C292.99 67.8467 294.236 68.58 296.07 69.02C297.976 69.46 300.983 69.68 305.09 69.68C305.31 69.68 305.42 69.9 305.42 70.34C305.42 70.78 305.31 71 305.09 71C302.083 71 299.736 70.9633 298.05 70.89L288.48 70.78L281.22 70.89C279.9 70.9633 278.066 71 275.72 71C275.573 71 275.5 70.78 275.5 70.34C275.5 69.9 275.573 69.68 275.72 69.68C278.58 69.68 280.67 69.4967 281.99 69.13C283.383 68.7633 284.3 68.0667 284.74 67.04C285.253 65.94 285.51 64.29 285.51 62.09V11.16C285.51 8.96 285.253 7.34667 284.74 6.32C284.3 5.29333 283.383 4.59666 281.99 4.22999C280.67 3.79 278.58 3.57 275.72 3.57C275.573 3.57 275.5 3.35 275.5 2.91C275.5 2.47 275.573 2.25 275.72 2.25L281.11 2.36C284.19 2.50666 286.61 2.58 288.37 2.58C290.13 2.58 292.146 2.47 294.42 2.25C300.14 2.03 303.256 1.92 303.77 1.92C310.223 1.92 315.466 3.42333 319.5 6.43C323.533 9.36333 325.55 13.8733 325.55 19.96C325.55 24.8733 324.34 29.0167 321.92 32.39C319.5 35.69 316.42 38.1467 312.68 39.76C309.013 41.3733 305.2 42.18 301.24 42.18C299.04 42.18 297.243 41.9967 295.85 41.63C295.63 41.63 295.52 41.4467 295.52 41.08C295.52 40.86 295.556 40.64 295.63 40.42C295.776 40.2 295.923 40.1267 296.07 40.2C297.243 40.4933 298.563 40.64 300.03 40.64C305.236 40.64 309.636 39.0633 313.23 35.91C316.896 32.7567 318.73 28.1733 318.73 22.16C318.73 18.2733 317.96 14.9367 316.42 12.15C314.88 9.29 312.753 7.12667 310.04 5.66C307.4 4.12 304.466 3.35 301.24 3.35C298.233 3.35 296.106 3.49667 294.86 3.79C293.613 4.08333 292.696 4.78 292.11 5.88C291.596 6.90667 291.34 8.74 291.34 11.38V61.65ZM402.112 69.68C402.406 69.68 402.552 69.9 402.552 70.34C402.552 70.78 402.406 71 402.112 71C400.792 71 398.666 70.9267 395.732 70.78C392.946 70.6333 390.892 70.56 389.572 70.56C388.032 70.56 386.016 70.6333 383.522 70.78C381.176 70.9267 379.416 71 378.242 71C377.949 71 377.802 70.78 377.802 70.34C377.802 69.9 377.949 69.68 378.242 69.68C381.249 69.68 383.412 69.4233 384.732 68.91C386.052 68.3233 386.712 67.37 386.712 66.05C386.712 65.0233 386.309 63.5933 385.502 61.76L375.162 39.43H348.982L341.502 57.47C340.476 59.9633 339.962 62.0167 339.962 63.63C339.962 65.7567 340.842 67.2967 342.602 68.25C344.362 69.2033 347.112 69.68 350.852 69.68C351.219 69.68 351.402 69.9 351.402 70.34C351.402 70.78 351.219 71 350.852 71C349.532 71 347.626 70.9267 345.132 70.78C342.346 70.6333 339.926 70.56 337.872 70.56C336.039 70.56 333.876 70.6333 331.382 70.78C329.182 70.9267 327.386 71 325.992 71C325.626 71 325.442 70.78 325.442 70.34C325.442 69.9 325.626 69.68 325.992 69.68C328.046 69.68 329.769 69.3133 331.162 68.58C332.629 67.8467 333.986 66.5267 335.232 64.62C336.552 62.7133 337.946 60 339.412 56.48L362.402 1.14999C362.549 0.929997 362.769 0.819999 363.062 0.819999C363.429 0.819999 363.649 0.929997 363.722 1.14999L389.242 55.93C390.929 59.67 392.432 62.53 393.752 64.51C395.072 66.4167 396.356 67.7733 397.602 68.58C398.922 69.3133 400.426 69.68 402.112 69.68ZM349.862 37.45H374.172L361.302 9.83999L349.862 37.45ZM491.349 69.68C491.569 69.68 491.679 69.9 491.679 70.34C491.679 70.78 491.569 71 491.349 71C489.076 71 487.279 70.9633 485.959 70.89L478.589 70.78L471.769 70.89C470.669 70.9633 469.129 71 467.149 71C467.002 71 466.929 70.78 466.929 70.34C466.929 69.9 467.002 69.68 467.149 69.68C469.716 69.68 471.586 69.4967 472.759 69.13C474.006 68.69 474.812 67.9567 475.179 66.93C475.619 65.9033 475.766 64.29 475.619 62.09L473.749 10.94L448.009 70.23C447.862 70.5233 447.569 70.67 447.129 70.67C446.762 70.67 446.432 70.5233 446.139 70.23L419.299 11.38L419.189 11.16L418.309 59.56C418.236 63.3733 418.859 66.0133 420.179 67.48C421.499 68.9467 423.956 69.68 427.549 69.68C427.696 69.68 427.769 69.9 427.769 70.34C427.769 70.78 427.696 71 427.549 71C425.496 71 423.919 70.9633 422.819 70.89L416.879 70.78L411.489 70.89C410.536 70.9633 409.106 71 407.199 71C407.052 71 406.979 70.78 406.979 70.34C406.979 69.9 407.052 69.68 407.199 69.68C410.279 69.68 412.442 68.9467 413.689 67.48C415.009 65.94 415.706 63.3 415.779 59.56L416.879 7.42C414.606 4.85333 411.636 3.57 407.969 3.57C407.822 3.57 407.749 3.35 407.749 2.91C407.749 2.47 407.822 2.25 407.969 2.25L411.709 2.36C412.442 2.43333 413.396 2.47 414.569 2.47C415.742 2.47 416.732 2.43333 417.539 2.36C418.346 2.28667 418.969 2.25 419.409 2.25C420.436 2.25 421.242 2.61667 421.829 3.35C422.416 4.01 423.296 5.55 424.469 7.97L449.219 61.43L473.859 5C474.226 4.19333 474.702 3.53333 475.289 3.02C475.949 2.50667 476.572 2.25 477.159 2.25C477.452 2.25 477.929 2.28667 478.589 2.36C479.249 2.43333 480.166 2.47 481.339 2.47L486.289 2.36C487.022 2.28667 488.159 2.25 489.699 2.25C489.846 2.25 489.919 2.47 489.919 2.91C489.919 3.35 489.846 3.57 489.699 3.57C485.886 3.57 483.172 4.08333 481.559 5.11C480.019 6.06333 479.286 8.00666 479.359 10.94L481.449 62.09C481.522 64.3633 481.779 66.0133 482.219 67.04C482.732 68.0667 483.649 68.7633 484.969 69.13C486.362 69.4967 488.489 69.68 491.349 69.68ZM582.658 69.68C582.878 69.68 582.988 69.9 582.988 70.34C582.988 70.78 582.878 71 582.658 71C580.384 71 578.588 70.9633 577.268 70.89L569.898 70.78L563.078 70.89C561.978 70.9633 560.438 71 558.458 71C558.311 71 558.238 70.78 558.238 70.34C558.238 69.9 558.311 69.68 558.458 69.68C561.024 69.68 562.894 69.4967 564.068 69.13C565.314 68.69 566.121 67.9567 566.488 66.93C566.928 65.9033 567.074 64.29 566.928 62.09L565.058 10.94L539.318 70.23C539.171 70.5233 538.878 70.67 538.438 70.67C538.071 70.67 537.741 70.5233 537.448 70.23L510.608 11.38L510.498 11.16L509.618 59.56C509.544 63.3733 510.168 66.0133 511.488 67.48C512.808 68.9467 515.264 69.68 518.858 69.68C519.004 69.68 519.078 69.9 519.078 70.34C519.078 70.78 519.004 71 518.858 71C516.804 71 515.228 70.9633 514.128 70.89L508.188 70.78L502.798 70.89C501.844 70.9633 500.414 71 498.508 71C498.361 71 498.288 70.78 498.288 70.34C498.288 69.9 498.361 69.68 498.508 69.68C501.588 69.68 503.751 68.9467 504.998 67.48C506.318 65.94 507.014 63.3 507.088 59.56L508.188 7.42C505.914 4.85333 502.944 3.57 499.278 3.57C499.131 3.57 499.058 3.35 499.058 2.91C499.058 2.47 499.131 2.25 499.278 2.25L503.018 2.36C503.751 2.43333 504.704 2.47 505.878 2.47C507.051 2.47 508.041 2.43333 508.848 2.36C509.654 2.28667 510.278 2.25 510.718 2.25C511.744 2.25 512.551 2.61667 513.138 3.35C513.724 4.01 514.604 5.55 515.778 7.97L540.528 61.43L565.168 5C565.534 4.19333 566.011 3.53333 566.598 3.02C567.258 2.50667 567.881 2.25 568.468 2.25C568.761 2.25 569.238 2.28667 569.898 2.36C570.558 2.43333 571.474 2.47 572.648 2.47L577.598 2.36C578.331 2.28667 579.468 2.25 581.008 2.25C581.154 2.25 581.228 2.47 581.228 2.91C581.228 3.35 581.154 3.57 581.008 3.57C577.194 3.57 574.481 4.08333 572.868 5.11C571.328 6.06333 570.594 8.00666 570.668 10.94L572.758 62.09C572.831 64.3633 573.088 66.0133 573.528 67.04C574.041 68.0667 574.958 68.7633 576.278 69.13C577.671 69.4967 579.798 69.68 582.658 69.68ZM661.536 69.68C661.83 69.68 661.976 69.9 661.976 70.34C661.976 70.78 661.83 71 661.536 71C660.216 71 658.09 70.9267 655.156 70.78C652.37 70.6333 650.316 70.56 648.996 70.56C647.456 70.56 645.44 70.6333 642.946 70.78C640.6 70.9267 638.84 71 637.666 71C637.373 71 637.226 70.78 637.226 70.34C637.226 69.9 637.373 69.68 637.666 69.68C640.673 69.68 642.836 69.4233 644.156 68.91C645.476 68.3233 646.136 67.37 646.136 66.05C646.136 65.0233 645.733 63.5933 644.926 61.76L634.586 39.43H608.406L600.926 57.47C599.9 59.9633 599.386 62.0167 599.386 63.63C599.386 65.7567 600.266 67.2967 602.026 68.25C603.786 69.2033 606.536 69.68 610.276 69.68C610.643 69.68 610.826 69.9 610.826 70.34C610.826 70.78 610.643 71 610.276 71C608.956 71 607.05 70.9267 604.556 70.78C601.77 70.6333 599.35 70.56 597.296 70.56C595.463 70.56 593.3 70.6333 590.806 70.78C588.606 70.9267 586.81 71 585.416 71C585.05 71 584.866 70.78 584.866 70.34C584.866 69.9 585.05 69.68 585.416 69.68C587.47 69.68 589.193 69.3133 590.586 68.58C592.053 67.8467 593.41 66.5267 594.656 64.62C595.976 62.7133 597.37 60 598.836 56.48L621.826 1.14999C621.973 0.929997 622.193 0.819999 622.486 0.819999C622.853 0.819999 623.073 0.929997 623.146 1.14999L648.666 55.93C650.353 59.67 651.856 62.53 653.176 64.51C654.496 66.4167 655.78 67.7733 657.026 68.58C658.346 69.3133 659.85 69.68 661.536 69.68ZM609.286 37.45H633.596L620.726 9.83999L609.286 37.45ZM758.294 69.68C758.441 69.68 758.514 69.9 758.514 70.34C758.514 70.78 758.441 71 758.294 71H745.204C744.177 71 743.261 70.7433 742.454 70.23C741.721 69.6433 740.474 68.1767 738.714 65.83C736.954 63.4833 733.801 59.0467 729.254 52.52C725.807 47.46 723.204 43.94 721.444 41.96C719.757 39.9067 718.034 38.4767 716.274 37.67C714.514 36.79 712.167 36.35 709.234 36.35C708.501 36.35 707.914 36.3867 707.474 36.46V62.09C707.474 64.3633 707.694 66.0133 708.134 67.04C708.647 68.0667 709.564 68.7633 710.884 69.13C712.204 69.4967 714.331 69.68 717.264 69.68C717.411 69.68 717.484 69.9 717.484 70.34C717.484 70.78 717.411 71 717.264 71C715.064 71 713.304 70.9633 711.984 70.89L704.504 70.78L697.244 70.89C695.924 70.9633 694.091 71 691.744 71C691.597 71 691.524 70.78 691.524 70.34C691.524 69.9 691.597 69.68 691.744 69.68C694.604 69.68 696.694 69.4967 698.014 69.13C699.407 68.7633 700.361 68.0667 700.874 67.04C701.387 65.94 701.644 64.29 701.644 62.09V11.16C701.644 8.96 701.387 7.34667 700.874 6.32C700.434 5.29333 699.517 4.59666 698.124 4.22999C696.804 3.79 694.714 3.57 691.854 3.57C691.707 3.57 691.634 3.35 691.634 2.91C691.634 2.47 691.707 2.25 691.854 2.25L697.244 2.36C700.324 2.50666 702.744 2.58 704.504 2.58C706.484 2.58 709.014 2.50666 712.094 2.36L717.264 2.25C717.411 2.25 717.484 2.47 717.484 2.91C717.484 3.35 717.411 3.57 717.264 3.57C714.404 3.57 712.277 3.79 710.884 4.22999C709.564 4.67 708.647 5.44 708.134 6.54C707.694 7.56666 707.474 9.18 707.474 11.38V34.59C711.434 34.4433 713.891 34.37 714.844 34.37C716.017 34.37 716.861 34.4067 717.374 34.48L731.234 15.12C732.994 12.6267 734.277 10.6833 735.084 9.28999C735.891 7.82333 736.294 6.68666 736.294 5.88C736.294 5 735.817 4.41333 734.864 4.12C733.911 3.75333 732.407 3.57 730.354 3.57C730.207 3.57 730.134 3.35 730.134 2.91C730.134 2.47 730.207 2.25 730.354 2.25L734.974 2.36C737.761 2.50666 740.327 2.58 742.674 2.58C745.021 2.58 747.441 2.50666 749.934 2.36L753.784 2.25C754.004 2.25 754.114 2.47 754.114 2.91C754.114 3.35 754.004 3.57 753.784 3.57C749.751 3.57 746.414 4.45 743.774 6.20999C741.207 7.97 738.127 11.1967 734.534 15.89L719.904 34.81C722.031 35.25 723.864 36.2767 725.404 37.89C727.017 39.5033 729.401 42.62 732.554 47.24L734.754 50.32C738.127 55.16 740.914 58.8633 743.114 61.43C745.314 63.9967 747.624 66.0133 750.044 67.48C752.464 68.8733 755.214 69.6067 758.294 69.68ZM827.184 2.25C827.331 2.25 827.404 2.47 827.404 2.91C827.404 3.35 827.331 3.57 827.184 3.57C823.517 3.57 820.401 6.1 817.834 11.16L796.934 55.38C794.954 59.7067 793.744 62.3467 793.304 63.3C792.131 66.0133 791.287 67.8467 790.774 68.8C790.261 69.68 789.711 70.2667 789.124 70.56C788.611 70.8533 787.804 71 786.704 71H771.084C770.864 71 770.754 70.78 770.754 70.34C770.754 69.9 770.864 69.68 771.084 69.68C776.584 69.68 781.131 68.6533 784.724 66.6C788.391 64.4733 791.507 60.8067 794.074 55.6L770.534 11.38C768.994 8.44666 767.527 6.43 766.134 5.33C764.814 4.15666 763.054 3.57 760.854 3.57C760.707 3.57 760.634 3.35 760.634 2.91C760.634 2.47 760.707 2.25 760.854 2.25L765.584 2.36C767.784 2.50666 769.361 2.58 770.314 2.58C772.441 2.58 774.971 2.50666 777.904 2.36L782.634 2.25C782.854 2.25 782.964 2.47 782.964 2.91C782.964 3.35 782.854 3.57 782.634 3.57C778.087 3.57 775.814 4.74333 775.814 7.09C775.814 7.97 776.144 9.03333 776.804 10.28L797.484 48.45L815.524 10.5C816.184 9.18 816.514 8.08 816.514 7.2C816.514 5.95333 815.781 5.03667 814.314 4.45C812.921 3.86333 810.684 3.57 807.604 3.57C807.384 3.57 807.274 3.35 807.274 2.91C807.274 2.47 807.384 2.25 807.604 2.25L812.004 2.36C814.497 2.50666 816.734 2.58 818.714 2.58C819.887 2.58 821.354 2.50666 823.114 2.36L827.184 2.25ZM847.248 61.65C847.248 63.9967 847.578 65.72 848.238 66.82C848.898 67.8467 850.145 68.58 851.978 69.02C853.885 69.46 856.891 69.68 860.998 69.68C861.218 69.68 861.328 69.9 861.328 70.34C861.328 70.78 861.218 71 860.998 71C857.991 71 855.645 70.9633 853.958 70.89L844.388 70.78L837.128 70.89C835.808 70.9633 833.975 71 831.628 71C831.481 71 831.408 70.78 831.408 70.34C831.408 69.9 831.481 69.68 831.628 69.68C834.488 69.68 836.578 69.4967 837.898 69.13C839.291 68.7633 840.208 68.0667 840.648 67.04C841.161 65.94 841.418 64.29 841.418 62.09V11.16C841.418 8.96 841.161 7.34667 840.648 6.32C840.208 5.29333 839.291 4.59666 837.898 4.22999C836.578 3.79 834.488 3.57 831.628 3.57C831.481 3.57 831.408 3.35 831.408 2.91C831.408 2.47 831.481 2.25 831.628 2.25L837.018 2.36C840.098 2.50666 842.518 2.58 844.278 2.58C846.038 2.58 848.055 2.47 850.328 2.25C856.048 2.03 859.165 1.92 859.678 1.92C866.131 1.92 871.375 3.42333 875.408 6.43C879.441 9.36333 881.458 13.8733 881.458 19.96C881.458 24.8733 880.248 29.0167 877.828 32.39C875.408 35.69 872.328 38.1467 868.588 39.76C864.921 41.3733 861.108 42.18 857.148 42.18C854.948 42.18 853.151 41.9967 851.758 41.63C851.538 41.63 851.428 41.4467 851.428 41.08C851.428 40.86 851.465 40.64 851.538 40.42C851.685 40.2 851.831 40.1267 851.978 40.2C853.151 40.4933 854.471 40.64 855.938 40.64C861.145 40.64 865.545 39.0633 869.138 35.91C872.805 32.7567 874.638 28.1733 874.638 22.16C874.638 18.2733 873.868 14.9367 872.328 12.15C870.788 9.29 868.661 7.12667 865.948 5.66C863.308 4.12 860.375 3.35 857.148 3.35C854.141 3.35 852.015 3.49667 850.768 3.79C849.521 4.08333 848.605 4.78 848.018 5.88C847.505 6.90667 847.248 8.74 847.248 11.38V61.65ZM931.622 1.04C935.216 1.04 938.809 1.40666 942.402 2.13999C946.069 2.87333 949.002 3.86333 951.202 5.11C951.789 5.47666 952.156 5.84333 952.302 6.20999C952.522 6.50333 952.669 7.01666 952.742 7.74999L953.952 19.3C953.952 19.52 953.769 19.6667 953.402 19.74C953.036 19.74 952.816 19.63 952.742 19.41C950.102 8.70333 941.632 3.35 927.332 3.35C921.612 3.35 916.552 4.59666 912.152 7.09C907.826 9.51 904.452 12.9567 902.032 17.43C899.612 21.9033 898.402 27.0733 898.402 32.94C898.402 39.8333 899.906 46.2133 902.912 52.08C905.919 57.8733 909.916 62.4933 914.902 65.94C919.889 69.3133 925.279 71 931.072 71C936.499 71 941.156 69.57 945.042 66.71C949.002 63.85 951.899 59.4867 953.732 53.62C953.732 53.4 953.879 53.29 954.172 53.29C954.392 53.29 954.576 53.3267 954.722 53.4C954.942 53.4733 955.052 53.5833 955.052 53.73L953.512 65.5C953.366 66.38 953.182 66.9667 952.962 67.26C952.816 67.48 952.412 67.7367 951.752 68.03C945.226 70.89 938.222 72.32 930.742 72.32C921.942 72.32 914.609 70.56 908.742 67.04C902.876 63.4467 898.549 58.9 895.762 53.4C892.976 47.8267 891.582 41.9967 891.582 35.91C891.582 29.2367 893.452 23.26 897.192 17.98C900.932 12.6267 905.882 8.48333 912.042 5.55C918.202 2.54333 924.729 1.04 931.622 1.04ZM1036.12 69.68C1036.41 69.68 1036.56 69.9 1036.56 70.34C1036.56 70.78 1036.41 71 1036.12 71C1034.8 71 1032.67 70.9267 1029.74 70.78C1026.95 70.6333 1024.9 70.56 1023.58 70.56C1022.04 70.56 1020.02 70.6333 1017.53 70.78C1015.18 70.9267 1013.42 71 1012.25 71C1011.95 71 1011.81 70.78 1011.81 70.34C1011.81 69.9 1011.95 69.68 1012.25 69.68C1015.25 69.68 1017.42 69.4233 1018.74 68.91C1020.06 68.3233 1020.72 67.37 1020.72 66.05C1020.72 65.0233 1020.31 63.5933 1019.51 61.76L1009.17 39.43H982.986L975.506 57.47C974.48 59.9633 973.966 62.0167 973.966 63.63C973.966 65.7567 974.846 67.2967 976.606 68.25C978.366 69.2033 981.116 69.68 984.856 69.68C985.223 69.68 985.406 69.9 985.406 70.34C985.406 70.78 985.223 71 984.856 71C983.536 71 981.63 70.9267 979.136 70.78C976.35 70.6333 973.93 70.56 971.876 70.56C970.043 70.56 967.88 70.6333 965.386 70.78C963.186 70.9267 961.39 71 959.996 71C959.63 71 959.446 70.78 959.446 70.34C959.446 69.9 959.63 69.68 959.996 69.68C962.05 69.68 963.773 69.3133 965.166 68.58C966.633 67.8467 967.99 66.5267 969.236 64.62C970.556 62.7133 971.95 60 973.416 56.48L996.406 1.14999C996.553 0.929997 996.773 0.819999 997.066 0.819999C997.433 0.819999 997.653 0.929997 997.726 1.14999L1023.25 55.93C1024.93 59.67 1026.44 62.53 1027.76 64.51C1029.08 66.4167 1030.36 67.7733 1031.61 68.58C1032.93 69.3133 1034.43 69.68 1036.12 69.68ZM983.866 37.45H1008.18L995.306 9.83999L983.866 37.45Z" fill="#FCFCFC"/>
</svg>
