<svg width="242" height="93" viewBox="0 0 242 93" fill="none" xmlns="http://www.w3.org/2000/svg">
<path d="M65.89 9.816C63.874 9.816 62.402 10.296 61.474 11.256C60.546 12.216 59.922 13.928 59.602 16.392C59.602 16.456 59.506 16.488 59.314 16.488C59.122 16.488 59.026 16.456 59.026 16.392C59.154 15.528 59.298 14.152 59.458 12.264C59.618 10.344 59.698 8.904 59.698 7.944C59.698 7.784 59.794 7.704 59.986 7.704C60.178 7.704 60.274 7.784 60.274 7.944C60.274 8.648 61.122 9 62.818 9C65.57 9.096 68.786 9.144 72.466 9.144C74.354 9.144 76.354 9.112 78.466 9.048L81.73 9C82.882 9 83.73 8.92 84.274 8.76C84.818 8.6 85.17 8.28 85.33 7.8C85.362 7.672 85.458 7.608 85.618 7.608C85.778 7.608 85.858 7.672 85.858 7.8C85.762 8.696 85.666 10.072 85.57 11.928C85.474 13.752 85.426 15.24 85.426 16.392C85.426 16.456 85.33 16.488 85.138 16.488C84.946 16.488 84.85 16.456 84.85 16.392C84.85 14.696 84.674 13.384 84.322 12.456C83.97 11.528 83.378 10.856 82.546 10.44C81.714 10.024 80.546 9.816 79.042 9.816C77.378 9.816 76.21 9.88 75.538 10.008C74.866 10.104 74.402 10.36 74.146 10.776C73.922 11.192 73.81 11.928 73.81 12.984V35.112C73.81 36.104 73.922 36.824 74.146 37.272C74.37 37.72 74.818 38.024 75.49 38.184C76.162 38.344 77.218 38.424 78.658 38.424C78.722 38.424 78.754 38.52 78.754 38.712C78.754 38.904 78.722 39 78.658 39C77.602 39 76.77 38.984 76.162 38.952L72.466 38.904L68.962 38.952C68.322 38.984 67.442 39 66.322 39C66.258 39 66.226 38.904 66.226 38.712C66.226 38.52 66.258 38.424 66.322 38.424C67.762 38.424 68.818 38.344 69.49 38.184C70.162 38.024 70.61 37.72 70.834 37.272C71.09 36.792 71.218 36.072 71.218 35.112V12.888C71.218 11.832 71.09 11.112 70.834 10.728C70.578 10.312 70.114 10.056 69.442 9.96C68.802 9.864 67.618 9.816 65.89 9.816ZM103.178 22.056C105.674 22.216 107.69 23.048 109.226 24.552C110.762 26.056 111.53 27.912 111.53 30.12C111.53 31.848 111.13 33.4 110.33 34.776C109.53 36.152 108.426 37.24 107.018 38.04C105.61 38.808 104.058 39.192 102.362 39.192C101.274 39.192 100.122 39.144 98.9061 39.048C98.4581 39.016 97.9301 38.984 97.3221 38.952C96.7141 38.92 96.0261 38.904 95.2581 38.904L92.0901 38.952C91.5141 38.984 90.7141 39 89.6901 39C89.6261 39 89.5941 38.904 89.5941 38.712C89.5941 38.52 89.6261 38.424 89.6901 38.424C90.9701 38.424 91.8981 38.344 92.4741 38.184C93.0821 38.024 93.4981 37.72 93.7221 37.272C93.9461 36.792 94.0581 36.072 94.0581 35.112V12.888C94.0581 11.928 93.9461 11.224 93.7221 10.776C93.5301 10.328 93.1301 10.024 92.5221 9.864C91.9461 9.672 91.0341 9.576 89.7861 9.576C89.6901 9.576 89.6421 9.48 89.6421 9.288C89.6421 9.096 89.6901 9 89.7861 9L92.0901 9.048C93.3701 9.112 94.4261 9.144 95.2581 9.144C95.8341 9.144 96.3781 9.128 96.8901 9.096C97.4021 9.064 97.8501 9.032 98.2341 9C99.2261 8.904 100.106 8.856 100.874 8.856C103.53 8.856 105.482 9.464 106.73 10.68C108.01 11.864 108.65 13.384 108.65 15.24C108.65 16.808 108.154 18.184 107.162 19.368C106.17 20.52 104.842 21.416 103.178 22.056ZM99.7701 9.48C98.8741 9.48 98.2181 9.544 97.8021 9.672C97.3861 9.8 97.0661 10.104 96.8421 10.584C96.6501 11.064 96.5541 11.864 96.5541 12.984V22.104L98.8101 22.152C101.338 22.152 103.178 21.56 104.33 20.376C105.482 19.16 106.058 17.56 106.058 15.576C106.058 13.784 105.546 12.328 104.522 11.208C103.53 10.056 101.946 9.48 99.7701 9.48ZM101.69 38.424C104.058 38.424 105.818 37.816 106.97 36.6C108.154 35.352 108.746 33.592 108.746 31.32C108.746 28.888 107.994 26.92 106.49 25.416C105.018 23.88 103.018 23.096 100.49 23.064C99.3061 23.032 97.9941 23.064 96.5541 23.16V35.112C96.5541 35.976 96.6821 36.648 96.9381 37.128C97.2261 37.576 97.7381 37.912 98.4741 38.136C99.2101 38.328 100.282 38.424 101.69 38.424ZM150.114 19.368C150.082 19.912 150.034 20.424 149.97 20.904C149.938 21.384 149.858 21.848 149.73 22.296C148.706 25.976 146.034 29.864 141.714 33.96C139.442 36.072 136.962 37.768 134.274 39.048C131.234 40.552 128.338 41.272 125.586 41.208C123.282 41.144 121.346 40.6 119.778 39.576C117.954 38.328 117.042 36.6 117.042 34.392C117.042 31.32 118.786 27.704 122.274 23.544C122.818 22.904 123.522 22.168 124.386 21.336C125.25 20.504 126.274 19.592 127.458 18.6C129.794 16.584 131.33 15.48 132.066 15.288C132.226 15.224 132.338 15.224 132.402 15.288C132.434 15.32 132.418 15.416 132.354 15.576C131.106 16.248 129.49 17.528 127.506 19.416C125.522 21.304 124.034 22.936 123.042 24.312C120.77 27.416 119.602 30.472 119.538 33.48C119.538 35.528 120.21 37.16 121.554 38.376C122.898 39.56 124.594 40.184 126.642 40.248C128.978 40.28 131.586 39.608 134.466 38.232C137.09 36.952 139.33 35.4 141.186 33.576C142.946 31.848 144.434 29.896 145.65 27.72C146.546 26.152 147.138 24.712 147.426 23.4C147.81 21.832 148.002 20.552 148.002 19.56C147.97 17.704 147.442 16.168 146.418 14.952C145.426 13.704 144.018 13.064 142.194 13.032C140.082 13 138.402 13.544 137.154 14.664C135.97 15.752 135.378 16.952 135.378 18.264C135.378 19.128 135.602 19.816 136.05 20.328C134.418 20.296 133.602 19.624 133.602 18.312C133.602 17.8 133.89 17.176 134.466 16.44C136.706 13.72 139.618 12.36 143.202 12.36C145.186 12.36 146.818 12.92 148.098 14.04C149.474 15.288 150.146 17.064 150.114 19.368ZM167.253 6.648C166.133 6.648 165.061 6.44 164.037 6.024C163.045 5.608 162.245 5.064 161.637 4.392C161.029 3.72 160.725 3.016 160.725 2.28C160.725 1.864 160.821 1.544 161.013 1.32C161.237 1.096 161.541 0.983997 161.924 0.983997C162.469 0.983997 162.853 1.16 163.077 1.512C163.333 1.864 163.573 2.424 163.797 3.192C164.021 3.992 164.405 4.68 164.949 5.256C165.525 5.832 166.277 6.12 167.205 6.12C168.101 6.12 168.853 5.848 169.461 5.304C170.101 4.76 170.533 4.056 170.757 3.192C170.981 2.424 171.205 1.864 171.429 1.512C171.685 1.16 172.085 0.983997 172.629 0.983997C173.429 0.983997 173.829 1.432 173.829 2.328C173.829 3.064 173.509 3.768 172.869 4.44C172.261 5.112 171.445 5.656 170.421 6.072C169.397 6.456 168.341 6.648 167.253 6.648ZM182.949 38.424C183.045 38.424 183.093 38.52 183.093 38.712C183.093 38.904 183.045 39 182.949 39C181.989 39 181.221 38.984 180.645 38.952L177.381 38.904L174.117 38.952C173.573 38.984 172.821 39 171.861 39C171.765 39 171.717 38.904 171.717 38.712C171.717 38.52 171.765 38.424 171.861 38.424C173.141 38.424 174.069 38.344 174.645 38.184C175.221 38.024 175.605 37.72 175.797 37.272C175.989 36.824 176.085 36.104 176.085 35.112V12.408L155.061 39.432C154.965 39.56 154.789 39.624 154.533 39.624C154.085 39.624 153.861 39.512 153.861 39.288V12.888C153.861 11.928 153.749 11.224 153.525 10.776C153.301 10.328 152.885 10.024 152.277 9.864C151.701 9.672 150.789 9.576 149.541 9.576C149.477 9.576 149.445 9.48 149.445 9.288C149.445 9.096 149.477 9 149.541 9L151.941 9.048C153.221 9.112 154.277 9.144 155.109 9.144C156.005 9.144 157.093 9.112 158.373 9.048L160.677 9C160.741 9 160.773 9.096 160.773 9.288C160.773 9.48 160.741 9.576 160.677 9.576C159.397 9.576 158.469 9.672 157.893 9.864C157.317 10.024 156.917 10.328 156.693 10.776C156.501 11.224 156.405 11.928 156.405 12.888V35.976L177.477 8.808C177.573 8.68 177.733 8.616 177.957 8.616C178.117 8.616 178.261 8.648 178.389 8.712C178.549 8.776 178.629 8.856 178.629 8.952V35.112C178.629 36.072 178.741 36.792 178.965 37.272C179.189 37.72 179.589 38.024 180.165 38.184C180.773 38.344 181.701 38.424 182.949 38.424ZM7.79519 87.92C7.79519 88.944 7.93919 89.696 8.22719 90.176C8.51519 90.624 9.05919 90.944 9.85919 91.136C10.6912 91.328 12.0032 91.424 13.7952 91.424C13.8912 91.424 13.9392 91.52 13.9392 91.712C13.9392 91.904 13.8912 92 13.7952 92C12.4832 92 11.4592 91.984 10.7232 91.952L6.54719 91.904L3.37919 91.952C2.80319 91.984 2.00319 92 0.979188 92C0.915188 92 0.883188 91.904 0.883188 91.712C0.883188 91.52 0.915188 91.424 0.979188 91.424C2.22719 91.424 3.13919 91.344 3.71519 91.184C4.32319 91.024 4.72319 90.72 4.91519 90.272C5.13919 89.792 5.25119 89.072 5.25119 88.112V65.888C5.25119 64.928 5.13919 64.224 4.91519 63.776C4.72319 63.328 4.32319 63.024 3.71519 62.864C3.13919 62.672 2.22719 62.576 0.979188 62.576C0.915188 62.576 0.883188 62.48 0.883188 62.288C0.883188 62.096 0.915188 62 0.979188 62L3.33119 62.048C4.67519 62.112 5.73119 62.144 6.49919 62.144C7.26719 62.144 8.14719 62.096 9.13919 62C11.6352 61.904 12.9952 61.856 13.2192 61.856C16.0352 61.856 18.3232 62.512 20.0832 63.824C21.8432 65.104 22.7232 67.072 22.7232 69.728C22.7232 71.872 22.1952 73.68 21.1392 75.152C20.0832 76.592 18.7392 77.664 17.1072 78.368C15.5072 79.072 13.8432 79.424 12.1152 79.424C11.1552 79.424 10.3712 79.344 9.76319 79.184C9.66719 79.184 9.61919 79.104 9.61919 78.944C9.61919 78.848 9.63519 78.752 9.66719 78.656C9.73119 78.56 9.79519 78.528 9.85919 78.56C10.3712 78.688 10.9472 78.752 11.5872 78.752C13.8592 78.752 15.7792 78.064 17.3472 76.688C18.9472 75.312 19.7472 73.312 19.7472 70.688C19.7472 68.992 19.4112 67.536 18.7392 66.32C18.0672 65.072 17.1392 64.128 15.9552 63.488C14.8032 62.816 13.5232 62.48 12.1152 62.48C10.8032 62.48 9.87519 62.544 9.33119 62.672C8.78719 62.8 8.38719 63.104 8.13119 63.584C7.90719 64.032 7.79519 64.832 7.79519 65.984V87.92ZM47.3491 84.992C47.3491 84.896 47.4451 84.864 47.6371 84.896C47.8291 84.896 47.9251 84.944 47.9251 85.04C47.6371 87.056 47.4931 89.136 47.4931 91.28C47.4931 91.536 47.4291 91.728 47.3011 91.856C47.2051 91.952 47.0131 92 46.7251 92H26.9011C26.8371 92 26.8051 91.904 26.8051 91.712C26.8051 91.52 26.8371 91.424 26.9011 91.424C28.1491 91.424 29.0611 91.344 29.6371 91.184C30.2451 91.024 30.6451 90.72 30.8371 90.272C31.0611 89.792 31.1731 89.072 31.1731 88.112V65.888C31.1731 64.928 31.0611 64.224 30.8371 63.776C30.6451 63.328 30.2451 63.024 29.6371 62.864C29.0611 62.672 28.1491 62.576 26.9011 62.576C26.8371 62.576 26.8051 62.48 26.8051 62.288C26.8051 62.096 26.8371 62 26.9011 62H45.9091C46.1971 62 46.3411 62.144 46.3411 62.432L46.4371 68.24C46.4371 68.336 46.3411 68.384 46.1491 68.384C45.9891 68.384 45.9091 68.336 45.9091 68.24C45.9091 66.608 45.4771 65.312 44.6131 64.352C43.7491 63.392 42.6131 62.912 41.2051 62.912H37.8931C36.6771 62.912 35.7811 62.992 35.2051 63.152C34.6291 63.312 34.2291 63.616 34.0051 64.064C33.8131 64.512 33.7171 65.216 33.7171 66.176V75.92H40.0531C41.5251 75.92 42.5491 75.68 43.1251 75.2C43.7011 74.688 43.9891 73.824 43.9891 72.608C43.9891 72.544 44.0851 72.512 44.2771 72.512C44.4691 72.512 44.5651 72.544 44.5651 72.608L44.5171 76.4C44.5171 77.328 44.5331 78.016 44.5651 78.464L44.6131 80.72C44.6131 80.784 44.5171 80.816 44.3251 80.816C44.1331 80.816 44.0371 80.784 44.0371 80.72C44.0371 79.28 43.7331 78.272 43.1251 77.696C42.5171 77.12 41.4451 76.832 39.9091 76.832H33.7171V87.92C33.7171 88.848 33.8131 89.536 34.0051 89.984C34.2291 90.4 34.6131 90.688 35.1571 90.848C35.7331 91.008 36.6451 91.088 37.8931 91.088H42.3091C43.5891 91.088 44.6771 90.528 45.5731 89.408C46.5011 88.288 47.0931 86.816 47.3491 84.992ZM64.4948 75.872C66.6068 76.032 68.3188 76.8 69.6308 78.176C70.9748 79.552 71.6468 81.296 71.6468 83.408C71.6468 85.168 71.1828 86.752 70.2548 88.16C69.3268 89.536 68.0468 90.624 66.4148 91.424C64.8148 92.192 63.0388 92.576 61.0868 92.576C59.8068 92.576 58.5428 92.416 57.2948 92.096C56.0468 91.776 55.0708 91.328 54.3668 90.752C54.0788 90.592 53.9028 90.464 53.8388 90.368C53.7748 90.24 53.7268 90 53.6948 89.648L53.1188 84.608C53.1188 84.512 53.1988 84.448 53.3588 84.416C53.5508 84.384 53.6628 84.416 53.6948 84.512C54.1748 87.168 55.2148 89.056 56.8148 90.176C58.4148 91.264 60.1588 91.808 62.0468 91.808C64.3188 91.808 65.9828 91.088 67.0388 89.648C68.1268 88.208 68.6708 86.416 68.6708 84.272C68.6708 81.68 67.9188 79.728 66.4148 78.416C64.9428 77.072 62.8148 76.4 60.0308 76.4C59.9028 76.4 59.8388 76.304 59.8388 76.112C59.8388 75.92 59.9028 75.824 60.0308 75.824C62.5908 75.824 64.5108 75.216 65.7908 74C67.0708 72.784 67.7108 71.136 67.7108 69.056C67.7108 66.976 67.1348 65.296 65.9828 64.016C64.8628 62.736 63.3908 62.096 61.5668 62.096C59.9348 62.096 58.4948 62.656 57.2468 63.776C55.9988 64.896 55.0548 66.656 54.4148 69.056C54.4148 69.12 54.3508 69.152 54.2228 69.152C54.1588 69.152 54.0788 69.136 53.9828 69.104C53.9188 69.04 53.8868 68.992 53.8868 68.96L54.5588 63.872C54.6228 63.488 54.6868 63.232 54.7508 63.104C54.8148 62.976 54.9908 62.864 55.2788 62.768C57.7428 61.904 60.0628 61.472 62.2388 61.472C64.8308 61.472 66.8308 62.112 68.2388 63.392C69.6468 64.64 70.3508 66.192 70.3508 68.048C70.3508 69.808 69.7588 71.408 68.5748 72.848C67.3908 74.288 66.0308 75.296 64.4948 75.872ZM103.384 62C103.448 62 103.48 62.096 103.48 62.288C103.48 62.48 103.448 62.576 103.384 62.576C101.784 62.576 100.424 63.68 99.3038 65.888L90.1838 85.184C89.3198 87.072 88.7918 88.224 88.5998 88.64C88.0878 89.824 87.7198 90.624 87.4958 91.04C87.2718 91.424 87.0318 91.68 86.7758 91.808C86.5518 91.936 86.1998 92 85.7198 92H78.9038C78.8078 92 78.7598 91.904 78.7598 91.712C78.7598 91.52 78.8078 91.424 78.9038 91.424C81.3038 91.424 83.2878 90.976 84.8558 90.08C86.4558 89.152 87.8158 87.552 88.9358 85.28L78.6638 65.984C77.9918 64.704 77.3518 63.824 76.7438 63.344C76.1678 62.832 75.3998 62.576 74.4398 62.576C74.3758 62.576 74.3438 62.48 74.3438 62.288C74.3438 62.096 74.3758 62 74.4398 62L76.5038 62.048C77.4638 62.112 78.1518 62.144 78.5678 62.144C79.4958 62.144 80.5998 62.112 81.8798 62.048L83.9438 62C84.0398 62 84.0878 62.096 84.0878 62.288C84.0878 62.48 84.0398 62.576 83.9438 62.576C81.9598 62.576 80.9678 63.088 80.9678 64.112C80.9678 64.496 81.1118 64.96 81.3998 65.504L90.4238 82.16L98.2958 65.6C98.5838 65.024 98.7278 64.544 98.7278 64.16C98.7278 63.616 98.4078 63.216 97.7678 62.96C97.1598 62.704 96.1838 62.576 94.8398 62.576C94.7438 62.576 94.6958 62.48 94.6958 62.288C94.6958 62.096 94.7438 62 94.8398 62L96.7598 62.048C97.8478 62.112 98.8238 62.144 99.6878 62.144C100.2 62.144 100.84 62.112 101.608 62.048L103.384 62ZM133.757 91.424C133.885 91.424 133.949 91.52 133.949 91.712C133.949 91.904 133.885 92 133.757 92C133.181 92 132.253 91.968 130.973 91.904C129.757 91.84 128.861 91.808 128.285 91.808C127.613 91.808 126.733 91.84 125.645 91.904C124.621 91.968 123.853 92 123.341 92C123.213 92 123.149 91.904 123.149 91.712C123.149 91.52 123.213 91.424 123.341 91.424C124.653 91.424 125.597 91.312 126.173 91.088C126.749 90.832 127.037 90.416 127.037 89.84C127.037 89.392 126.861 88.768 126.509 87.968L115.949 65.312L107.309 86.096C106.861 87.184 106.637 88.08 106.637 88.784C106.637 89.712 107.021 90.384 107.789 90.8C108.557 91.216 109.757 91.424 111.389 91.424C111.549 91.424 111.629 91.52 111.629 91.712C111.629 91.904 111.549 92 111.389 92C110.813 92 109.981 91.968 108.893 91.904C107.677 91.84 106.621 91.808 105.725 91.808C104.925 91.808 103.981 91.84 102.893 91.904C101.933 91.968 101.149 92 100.541 92C100.381 92 100.301 91.904 100.301 91.712C100.301 91.52 100.381 91.424 100.541 91.424C101.437 91.424 102.189 91.264 102.797 90.944C103.437 90.624 104.029 90.048 104.573 89.216C105.149 88.384 105.757 87.2 106.397 85.664L116.429 61.52C116.493 61.424 116.589 61.376 116.717 61.376C116.877 61.376 116.973 61.424 117.005 61.52L128.141 85.424C128.877 87.056 129.533 88.304 130.109 89.168C130.685 90 131.245 90.592 131.789 90.944C132.365 91.264 133.021 91.424 133.757 91.424ZM148.457 75.056C151.401 75.056 153.705 75.648 155.369 76.832C157.065 78.016 157.913 80.048 157.913 82.928C157.913 84.752 157.513 86.368 156.713 87.776C155.945 89.184 154.841 90.272 153.401 91.04C151.993 91.808 150.361 92.192 148.505 92.192C147.673 92.192 146.681 92.144 145.529 92.048C145.049 92.016 144.473 91.984 143.801 91.952C143.161 91.92 142.441 91.904 141.641 91.904L138.473 91.952C137.897 91.984 137.097 92 136.073 92C136.009 92 135.977 91.904 135.977 91.712C135.977 91.52 136.009 91.424 136.073 91.424C137.353 91.424 138.281 91.344 138.857 91.184C139.465 91.024 139.881 90.72 140.105 90.272C140.329 89.792 140.441 89.072 140.441 88.112V65.888C140.441 64.928 140.329 64.224 140.105 63.776C139.913 63.328 139.513 63.024 138.905 62.864C138.329 62.672 137.417 62.576 136.169 62.576C136.073 62.576 136.025 62.48 136.025 62.288C136.025 62.096 136.073 62 136.169 62L138.425 62.048C139.769 62.112 140.825 62.144 141.593 62.144C142.521 62.144 143.657 62.112 145.001 62.048L147.209 62C147.305 62 147.353 62.096 147.353 62.288C147.353 62.48 147.305 62.576 147.209 62.576C145.961 62.576 145.033 62.672 144.425 62.864C143.849 63.056 143.449 63.392 143.225 63.872C143.033 64.32 142.937 65.024 142.937 65.984V75.632C144.953 75.248 146.793 75.056 148.457 75.056ZM147.545 91.424C150.201 91.424 152.121 90.832 153.305 89.648C154.521 88.464 155.129 86.64 155.129 84.176C155.129 81.2 154.441 79.088 153.065 77.84C151.721 76.56 149.833 75.92 147.401 75.92C146.057 75.92 144.569 76.112 142.937 76.496V88.112C142.937 89.264 143.241 90.112 143.849 90.656C144.457 91.168 145.689 91.424 147.545 91.424ZM164.351 62.816C162.335 62.816 160.863 63.296 159.935 64.256C159.007 65.216 158.383 66.928 158.063 69.392C158.063 69.456 157.967 69.488 157.775 69.488C157.583 69.488 157.487 69.456 157.487 69.392C157.615 68.528 157.759 67.152 157.919 65.264C158.079 63.344 158.159 61.904 158.159 60.944C158.159 60.784 158.255 60.704 158.447 60.704C158.639 60.704 158.735 60.784 158.735 60.944C158.735 61.648 159.583 62 161.279 62C164.031 62.096 167.247 62.144 170.927 62.144C172.815 62.144 174.815 62.112 176.927 62.048L180.191 62C181.343 62 182.191 61.92 182.735 61.76C183.279 61.6 183.631 61.28 183.791 60.8C183.823 60.672 183.919 60.608 184.079 60.608C184.239 60.608 184.319 60.672 184.319 60.8C184.223 61.696 184.127 63.072 184.031 64.928C183.935 66.752 183.887 68.24 183.887 69.392C183.887 69.456 183.791 69.488 183.599 69.488C183.407 69.488 183.311 69.456 183.311 69.392C183.311 67.696 183.135 66.384 182.783 65.456C182.431 64.528 181.839 63.856 181.007 63.44C180.175 63.024 179.007 62.816 177.503 62.816C175.839 62.816 174.671 62.88 173.999 63.008C173.327 63.104 172.863 63.36 172.607 63.776C172.383 64.192 172.271 64.928 172.271 65.984V88.112C172.271 89.104 172.383 89.824 172.607 90.272C172.831 90.72 173.279 91.024 173.951 91.184C174.623 91.344 175.679 91.424 177.119 91.424C177.183 91.424 177.215 91.52 177.215 91.712C177.215 91.904 177.183 92 177.119 92C176.063 92 175.231 91.984 174.623 91.952L170.927 91.904L167.423 91.952C166.783 91.984 165.903 92 164.783 92C164.719 92 164.687 91.904 164.687 91.712C164.687 91.52 164.719 91.424 164.783 91.424C166.223 91.424 167.279 91.344 167.951 91.184C168.623 91.024 169.071 90.72 169.295 90.272C169.551 89.792 169.679 89.072 169.679 88.112V65.888C169.679 64.832 169.551 64.112 169.295 63.728C169.039 63.312 168.575 63.056 167.903 62.96C167.263 62.864 166.079 62.816 164.351 62.816ZM215.976 91.424C216.104 91.424 216.168 91.52 216.168 91.712C216.168 91.904 216.104 92 215.976 92C215.4 92 214.472 91.968 213.192 91.904C211.976 91.84 211.08 91.808 210.504 91.808C209.832 91.808 208.952 91.84 207.864 91.904C206.84 91.968 206.072 92 205.56 92C205.432 92 205.368 91.904 205.368 91.712C205.368 91.52 205.432 91.424 205.56 91.424C206.872 91.424 207.816 91.312 208.392 91.088C208.968 90.832 209.256 90.416 209.256 89.84C209.256 89.392 209.08 88.768 208.728 87.968L204.216 78.224H192.792L189.528 86.096C189.08 87.184 188.856 88.08 188.856 88.784C188.856 89.712 189.24 90.384 190.008 90.8C190.776 91.216 191.976 91.424 193.608 91.424C193.768 91.424 193.848 91.52 193.848 91.712C193.848 91.904 193.768 92 193.608 92C193.032 92 192.2 91.968 191.112 91.904C189.896 91.84 188.84 91.808 187.944 91.808C187.144 91.808 186.2 91.84 185.112 91.904C184.152 91.968 183.368 92 182.76 92C182.6 92 182.52 91.904 182.52 91.712C182.52 91.52 182.6 91.424 182.76 91.424C183.656 91.424 184.408 91.264 185.016 90.944C185.656 90.624 186.248 90.048 186.792 89.216C187.368 88.384 187.976 87.2 188.616 85.664L198.648 61.52C198.712 61.424 198.808 61.376 198.936 61.376C199.096 61.376 199.192 61.424 199.224 61.52L210.36 85.424C211.096 87.056 211.752 88.304 212.328 89.168C212.904 90 213.464 90.592 214.008 90.944C214.584 91.264 215.24 91.424 215.976 91.424ZM193.176 77.36H203.784L198.168 65.312L193.176 77.36ZM221.445 62.816C219.429 62.816 217.957 63.296 217.029 64.256C216.101 65.216 215.477 66.928 215.157 69.392C215.157 69.456 215.061 69.488 214.869 69.488C214.677 69.488 214.581 69.456 214.581 69.392C214.709 68.528 214.853 67.152 215.013 65.264C215.173 63.344 215.253 61.904 215.253 60.944C215.253 60.784 215.349 60.704 215.541 60.704C215.733 60.704 215.829 60.784 215.829 60.944C215.829 61.648 216.677 62 218.373 62C221.125 62.096 224.341 62.144 228.021 62.144C229.909 62.144 231.909 62.112 234.021 62.048L237.285 62C238.437 62 239.285 61.92 239.829 61.76C240.373 61.6 240.725 61.28 240.885 60.8C240.917 60.672 241.013 60.608 241.173 60.608C241.333 60.608 241.413 60.672 241.413 60.8C241.317 61.696 241.221 63.072 241.125 64.928C241.029 66.752 240.981 68.24 240.981 69.392C240.981 69.456 240.885 69.488 240.693 69.488C240.501 69.488 240.405 69.456 240.405 69.392C240.405 67.696 240.229 66.384 239.877 65.456C239.525 64.528 238.933 63.856 238.101 63.44C237.269 63.024 236.101 62.816 234.597 62.816C232.933 62.816 231.765 62.88 231.093 63.008C230.421 63.104 229.957 63.36 229.701 63.776C229.477 64.192 229.365 64.928 229.365 65.984V88.112C229.365 89.104 229.477 89.824 229.701 90.272C229.925 90.72 230.373 91.024 231.045 91.184C231.717 91.344 232.773 91.424 234.213 91.424C234.277 91.424 234.309 91.52 234.309 91.712C234.309 91.904 234.277 92 234.213 92C233.157 92 232.325 91.984 231.717 91.952L228.021 91.904L224.517 91.952C223.877 91.984 222.997 92 221.877 92C221.813 92 221.781 91.904 221.781 91.712C221.781 91.52 221.813 91.424 221.877 91.424C223.317 91.424 224.373 91.344 225.045 91.184C225.717 91.024 226.165 90.72 226.389 90.272C226.645 89.792 226.773 89.072 226.773 88.112V65.888C226.773 64.832 226.645 64.112 226.389 63.728C226.133 63.312 225.669 63.056 224.997 62.96C224.357 62.864 223.173 62.816 221.445 62.816Z" fill="#353535"/>
</svg>
