<svg width="871" height="94" viewBox="0 0 871 94" fill="none" xmlns="http://www.w3.org/2000/svg">
<path d="M15.8908 21.12C11.2708 21.12 7.89749 22.22 5.77082 24.42C3.64415 26.62 2.21415 30.5433 1.48082 36.19C1.48082 36.3367 1.26082 36.41 0.82082 36.41C0.38082 36.41 0.16082 36.3367 0.16082 36.19C0.454154 34.21 0.784154 31.0567 1.15082 26.73C1.51749 22.33 1.70082 19.03 1.70082 16.83C1.70082 16.4633 1.92082 16.28 2.36082 16.28C2.80082 16.28 3.02082 16.4633 3.02082 16.83C3.02082 18.4433 4.96415 19.25 8.85082 19.25C15.1575 19.47 22.5275 19.58 30.9608 19.58C35.2875 19.58 39.8708 19.5067 44.7108 19.36L52.1908 19.25C54.8308 19.25 56.7742 19.0667 58.0208 18.7C59.2675 18.3333 60.0742 17.6 60.4408 16.5C60.5142 16.2067 60.7342 16.06 61.1008 16.06C61.4675 16.06 61.6508 16.2067 61.6508 16.5C61.4308 18.5533 61.2108 21.7067 60.9908 25.96C60.7708 30.14 60.6608 33.55 60.6608 36.19C60.6608 36.3367 60.4408 36.41 60.0008 36.41C59.5608 36.41 59.3408 36.3367 59.3408 36.19C59.3408 32.3033 58.9375 29.2967 58.1308 27.17C57.3242 25.0433 55.9675 23.5033 54.0608 22.55C52.1542 21.5967 49.4775 21.12 46.0308 21.12C42.2175 21.12 39.5408 21.2667 38.0008 21.56C36.4608 21.78 35.3975 22.3667 34.8108 23.32C34.2975 24.2733 34.0408 25.96 34.0408 28.38V79.09C34.0408 81.3633 34.2975 83.0133 34.8108 84.04C35.3242 85.0667 36.3508 85.7633 37.8908 86.13C39.4308 86.4967 41.8508 86.68 45.1508 86.68C45.2975 86.68 45.3708 86.9 45.3708 87.34C45.3708 87.78 45.2975 88 45.1508 88C42.7308 88 40.8242 87.9633 39.4308 87.89L30.9608 87.78L22.9308 87.89C21.4642 87.9633 19.4475 88 16.8808 88C16.7342 88 16.6608 87.78 16.6608 87.34C16.6608 86.9 16.7342 86.68 16.8808 86.68C20.1808 86.68 22.6008 86.4967 24.1408 86.13C25.6808 85.7633 26.7075 85.0667 27.2208 84.04C27.8075 82.94 28.1008 81.29 28.1008 79.09V28.16C28.1008 25.74 27.8075 24.09 27.2208 23.21C26.6342 22.2567 25.5708 21.67 24.0308 21.45C22.5642 21.23 19.8508 21.12 15.8908 21.12ZM101.343 49.17C107.063 49.5367 111.683 51.4433 115.203 54.89C118.723 58.3367 120.483 62.59 120.483 67.65C120.483 71.61 119.566 75.1667 117.733 78.32C115.899 81.4733 113.369 83.9667 110.143 85.8C106.916 87.56 103.359 88.44 99.4728 88.44C96.9794 88.44 94.3394 88.33 91.5528 88.11C90.5261 88.0367 89.3161 87.9633 87.9228 87.89C86.5294 87.8167 84.9528 87.78 83.1928 87.78L75.9328 87.89C74.6128 87.9633 72.7794 88 70.4328 88C70.2861 88 70.2128 87.78 70.2128 87.34C70.2128 86.9 70.2861 86.68 70.4328 86.68C73.3661 86.68 75.4928 86.4967 76.8128 86.13C78.2061 85.7633 79.1594 85.0667 79.6728 84.04C80.1861 82.94 80.4428 81.29 80.4428 79.09V28.16C80.4428 25.96 80.1861 24.3467 79.6728 23.32C79.2328 22.2933 78.3161 21.5967 76.9228 21.23C75.6028 20.79 73.5128 20.57 70.6528 20.57C70.4328 20.57 70.3228 20.35 70.3228 19.91C70.3228 19.47 70.4328 19.25 70.6528 19.25L75.9328 19.36C78.8661 19.5067 81.2861 19.58 83.1928 19.58C84.5128 19.58 85.7594 19.5433 86.9328 19.47C88.1061 19.3967 89.1328 19.3233 90.0128 19.25C92.2861 19.03 94.3028 18.92 96.0628 18.92C102.149 18.92 106.623 20.3133 109.483 23.1C112.416 25.8133 113.883 29.2967 113.883 33.55C113.883 37.1433 112.746 40.2967 110.473 43.01C108.199 45.65 105.156 47.7033 101.343 49.17ZM93.5328 20.35C91.4794 20.35 89.9761 20.4967 89.0228 20.79C88.0694 21.0833 87.3361 21.78 86.8228 22.88C86.3828 23.98 86.1628 25.8133 86.1628 28.38V49.28L91.3328 49.39C97.1261 49.39 101.343 48.0333 103.983 45.32C106.623 42.5333 107.943 38.8667 107.943 34.32C107.943 30.2133 106.769 26.8767 104.423 24.31C102.149 21.67 98.5194 20.35 93.5328 20.35ZM97.9328 86.68C103.359 86.68 107.393 85.2867 110.033 82.5C112.746 79.64 114.103 75.6067 114.103 70.4C114.103 64.8267 112.379 60.3167 108.933 56.87C105.559 53.35 100.976 51.5533 95.1828 51.48C92.4694 51.4067 89.4628 51.48 86.1628 51.7V79.09C86.1628 81.07 86.4561 82.61 87.0428 83.71C87.7028 84.7367 88.8761 85.5067 90.5628 86.02C92.2494 86.46 94.7061 86.68 97.9328 86.68ZM208.904 43.01C208.831 44.2567 208.721 45.43 208.574 46.53C208.501 47.63 208.317 48.6933 208.024 49.72C205.677 58.1533 199.554 67.0633 189.654 76.45C184.447 81.29 178.764 85.1767 172.604 88.11C165.637 91.5567 159.001 93.2067 152.694 93.06C147.414 92.9133 142.977 91.6667 139.384 89.32C135.204 86.46 133.114 82.5 133.114 77.44C133.114 70.4 137.111 62.1133 145.104 52.58C146.351 51.1133 147.964 49.4267 149.944 47.52C151.924 45.6133 154.271 43.5233 156.984 41.25C162.337 36.63 165.857 34.1 167.544 33.66C167.911 33.5133 168.167 33.5133 168.314 33.66C168.387 33.7333 168.351 33.9533 168.204 34.32C165.344 35.86 161.641 38.7933 157.094 43.12C152.547 47.4467 149.137 51.1867 146.864 54.34C141.657 61.4533 138.981 68.4567 138.834 75.35C138.834 80.0433 140.374 83.7833 143.454 86.57C146.534 89.2833 150.421 90.7133 155.114 90.86C160.467 90.9333 166.444 89.3933 173.044 86.24C179.057 83.3067 184.191 79.75 188.444 75.57C192.477 71.61 195.887 67.1367 198.674 62.15C200.727 58.5567 202.084 55.2567 202.744 52.25C203.624 48.6567 204.064 45.7233 204.064 43.45C203.991 39.1967 202.781 35.6767 200.434 32.89C198.161 30.03 194.934 28.5633 190.754 28.49C185.914 28.4167 182.064 29.6633 179.204 32.23C176.491 34.7233 175.134 37.4733 175.134 40.48C175.134 42.46 175.647 44.0367 176.674 45.21C172.934 45.1367 171.064 43.5967 171.064 40.59C171.064 39.4167 171.724 37.9867 173.044 36.3C178.177 30.0667 184.851 26.95 193.064 26.95C197.611 26.95 201.351 28.2333 204.284 30.8C207.437 33.66 208.977 37.73 208.904 43.01ZM248.18 13.86C245.613 13.86 243.157 13.3833 240.81 12.43C238.537 11.4767 236.703 10.23 235.31 8.69C233.917 7.15 233.22 5.53666 233.22 3.85C233.22 2.89666 233.44 2.16333 233.88 1.65C234.393 1.13666 235.09 0.879994 235.97 0.879994C237.217 0.879994 238.097 1.28333 238.61 2.09C239.197 2.89666 239.747 4.18 240.26 5.93999C240.773 7.77333 241.653 9.35 242.9 10.67C244.22 11.99 245.943 12.65 248.07 12.65C250.123 12.65 251.847 12.0267 253.24 10.78C254.707 9.53333 255.697 7.92 256.21 5.93999C256.723 4.18 257.237 2.89666 257.75 2.09C258.337 1.28333 259.253 0.879994 260.5 0.879994C262.333 0.879994 263.25 1.90666 263.25 3.95999C263.25 5.64666 262.517 7.25999 261.05 8.8C259.657 10.34 257.787 11.5867 255.44 12.54C253.093 13.42 250.673 13.86 248.18 13.86ZM284.15 86.68C284.37 86.68 284.48 86.9 284.48 87.34C284.48 87.78 284.37 88 284.15 88C281.95 88 280.19 87.9633 278.87 87.89L271.39 87.78L263.91 87.89C262.663 87.9633 260.94 88 258.74 88C258.52 88 258.41 87.78 258.41 87.34C258.41 86.9 258.52 86.68 258.74 86.68C261.673 86.68 263.8 86.4967 265.12 86.13C266.44 85.7633 267.32 85.0667 267.76 84.04C268.2 83.0133 268.42 81.3633 268.42 79.09V27.06L220.24 88.99C220.02 89.2833 219.617 89.43 219.03 89.43C218.003 89.43 217.49 89.1733 217.49 88.66V28.16C217.49 25.96 217.233 24.3467 216.72 23.32C216.207 22.2933 215.253 21.5967 213.86 21.23C212.54 20.79 210.45 20.57 207.59 20.57C207.443 20.57 207.37 20.35 207.37 19.91C207.37 19.47 207.443 19.25 207.59 19.25L213.09 19.36C216.023 19.5067 218.443 19.58 220.35 19.58C222.403 19.58 224.897 19.5067 227.83 19.36L233.11 19.25C233.257 19.25 233.33 19.47 233.33 19.91C233.33 20.35 233.257 20.57 233.11 20.57C230.177 20.57 228.05 20.79 226.73 21.23C225.41 21.5967 224.493 22.2933 223.98 23.32C223.54 24.3467 223.32 25.96 223.32 28.16V81.07L271.61 18.81C271.83 18.5167 272.197 18.37 272.71 18.37C273.077 18.37 273.407 18.4433 273.7 18.59C274.067 18.7367 274.25 18.92 274.25 19.14V79.09C274.25 81.29 274.507 82.94 275.02 84.04C275.533 85.0667 276.45 85.7633 277.77 86.13C279.163 86.4967 281.29 86.68 284.15 86.68ZM334.52 78.65C334.52 80.9967 334.85 82.72 335.51 83.82C336.17 84.8467 337.416 85.58 339.25 86.02C341.156 86.46 344.163 86.68 348.27 86.68C348.49 86.68 348.6 86.9 348.6 87.34C348.6 87.78 348.49 88 348.27 88C345.263 88 342.916 87.9633 341.23 87.89L331.66 87.78L324.4 87.89C323.08 87.9633 321.246 88 318.9 88C318.753 88 318.68 87.78 318.68 87.34C318.68 86.9 318.753 86.68 318.9 86.68C321.76 86.68 323.85 86.4967 325.17 86.13C326.563 85.7633 327.48 85.0667 327.92 84.04C328.433 82.94 328.69 81.29 328.69 79.09V28.16C328.69 25.96 328.433 24.3467 327.92 23.32C327.48 22.2933 326.563 21.5967 325.17 21.23C323.85 20.79 321.76 20.57 318.9 20.57C318.753 20.57 318.68 20.35 318.68 19.91C318.68 19.47 318.753 19.25 318.9 19.25L324.29 19.36C327.37 19.5067 329.79 19.58 331.55 19.58C333.31 19.58 335.326 19.47 337.6 19.25C343.32 19.03 346.436 18.92 346.95 18.92C353.403 18.92 358.646 20.4233 362.68 23.43C366.713 26.3633 368.73 30.8733 368.73 36.96C368.73 41.8733 367.52 46.0167 365.1 49.39C362.68 52.69 359.6 55.1467 355.86 56.76C352.193 58.3733 348.38 59.18 344.42 59.18C342.22 59.18 340.423 58.9967 339.03 58.63C338.81 58.63 338.7 58.4467 338.7 58.08C338.7 57.86 338.736 57.64 338.81 57.42C338.956 57.2 339.103 57.1267 339.25 57.2C340.423 57.4933 341.743 57.64 343.21 57.64C348.416 57.64 352.816 56.0633 356.41 52.91C360.076 49.7567 361.91 45.1733 361.91 39.16C361.91 35.2733 361.14 31.9367 359.6 29.15C358.06 26.29 355.933 24.1267 353.22 22.66C350.58 21.12 347.646 20.35 344.42 20.35C341.413 20.35 339.286 20.4967 338.04 20.79C336.793 21.0833 335.876 21.78 335.29 22.88C334.776 23.9067 334.52 25.74 334.52 28.38V78.65ZM425.164 71.94C425.164 71.72 425.384 71.6467 425.824 71.72C426.264 71.72 426.484 71.83 426.484 72.05C425.824 76.67 425.494 81.4367 425.494 86.35C425.494 86.9367 425.347 87.3767 425.054 87.67C424.834 87.89 424.394 88 423.734 88H378.304C378.157 88 378.084 87.78 378.084 87.34C378.084 86.9 378.157 86.68 378.304 86.68C381.164 86.68 383.254 86.4967 384.574 86.13C385.967 85.7633 386.884 85.0667 387.324 84.04C387.837 82.94 388.094 81.29 388.094 79.09V28.16C388.094 25.96 387.837 24.3467 387.324 23.32C386.884 22.2933 385.967 21.5967 384.574 21.23C383.254 20.79 381.164 20.57 378.304 20.57C378.157 20.57 378.084 20.35 378.084 19.91C378.084 19.47 378.157 19.25 378.304 19.25H421.864C422.524 19.25 422.854 19.58 422.854 20.24L423.074 33.55C423.074 33.77 422.854 33.88 422.414 33.88C422.047 33.88 421.864 33.77 421.864 33.55C421.864 29.81 420.874 26.84 418.894 24.64C416.914 22.44 414.311 21.34 411.084 21.34H403.494C400.707 21.34 398.654 21.5233 397.334 21.89C396.014 22.2567 395.097 22.9533 394.584 23.98C394.144 25.0067 393.924 26.62 393.924 28.82V51.15H408.444C411.817 51.15 414.164 50.6 415.484 49.5C416.804 48.3267 417.464 46.3467 417.464 43.56C417.464 43.4133 417.684 43.34 418.124 43.34C418.564 43.34 418.784 43.4133 418.784 43.56L418.674 52.25C418.674 54.3767 418.711 55.9533 418.784 56.98L418.894 62.15C418.894 62.2967 418.674 62.37 418.234 62.37C417.794 62.37 417.574 62.2967 417.574 62.15C417.574 58.85 416.877 56.54 415.484 55.22C414.091 53.9 411.634 53.24 408.114 53.24H393.924V78.65C393.924 80.7767 394.144 82.3533 394.584 83.38C395.097 84.3333 395.977 84.9933 397.224 85.36C398.544 85.7267 400.634 85.91 403.494 85.91H413.614C416.547 85.91 419.041 84.6267 421.094 82.06C423.221 79.4933 424.577 76.12 425.164 71.94ZM464.676 51.04C469.81 51.4067 473.953 53.1667 477.106 56.32C480.333 59.4733 481.946 63.47 481.946 68.31C481.946 72.3433 480.81 75.9733 478.536 79.2C476.336 82.3533 473.33 84.8467 469.516 86.68C465.703 88.44 461.486 89.32 456.866 89.32C453.86 89.32 450.89 88.9533 447.956 88.22C445.096 87.4867 442.86 86.46 441.246 85.14C440.586 84.7733 440.183 84.48 440.036 84.26C439.89 83.9667 439.78 83.4167 439.706 82.61L438.386 70.4C438.386 70.18 438.57 70.0333 438.936 69.96C439.376 69.8867 439.633 69.96 439.706 70.18C440.733 76.12 443.116 80.52 446.856 83.38C450.596 86.1667 454.703 87.56 459.176 87.56C464.09 87.56 467.72 85.91 470.066 82.61C472.486 79.31 473.696 75.2033 473.696 70.29C473.696 64.35 472.01 59.8767 468.636 56.87C465.336 53.79 460.533 52.25 454.226 52.25C453.933 52.25 453.786 52.03 453.786 51.59C453.786 51.15 453.933 50.93 454.226 50.93C459.946 50.93 464.236 49.5367 467.096 46.75C470.03 43.9633 471.496 40.15 471.496 35.31C471.496 30.47 470.286 26.62 467.866 23.76C465.446 20.9 462.22 19.47 458.186 19.47C454.373 19.47 450.963 20.9 447.956 23.76C445.023 26.5467 442.823 30.69 441.356 36.19C441.356 36.3367 441.21 36.41 440.916 36.41C440.77 36.41 440.586 36.3733 440.366 36.3C440.22 36.1533 440.146 36.0433 440.146 35.97L441.686 23.54C441.833 22.66 441.98 22.0733 442.126 21.78C442.273 21.4867 442.676 21.23 443.336 21.01C448.983 19.03 454.41 18.04 459.616 18.04C465.85 18.04 470.616 19.47 473.916 22.33C477.29 25.19 478.976 28.7467 478.976 33C478.976 37.0333 477.51 40.7367 474.576 44.11C471.716 47.41 468.416 49.72 464.676 51.04ZM554.651 19.25C554.798 19.25 554.871 19.47 554.871 19.91C554.871 20.35 554.798 20.57 554.651 20.57C550.984 20.57 547.868 23.1 545.301 28.16L524.401 72.38C522.421 76.7067 521.211 79.3467 520.771 80.3C519.598 83.0133 518.754 84.8467 518.241 85.8C517.728 86.68 517.178 87.2667 516.591 87.56C516.078 87.8533 515.271 88 514.171 88H498.551C498.331 88 498.221 87.78 498.221 87.34C498.221 86.9 498.331 86.68 498.551 86.68C504.051 86.68 508.598 85.6533 512.191 83.6C515.858 81.4733 518.974 77.8067 521.541 72.6L498.001 28.38C496.461 25.4467 494.994 23.43 493.601 22.33C492.281 21.1567 490.521 20.57 488.321 20.57C488.174 20.57 488.101 20.35 488.101 19.91C488.101 19.47 488.174 19.25 488.321 19.25L493.051 19.36C495.251 19.5067 496.828 19.58 497.781 19.58C499.908 19.58 502.438 19.5067 505.371 19.36L510.101 19.25C510.321 19.25 510.431 19.47 510.431 19.91C510.431 20.35 510.321 20.57 510.101 20.57C505.554 20.57 503.281 21.7433 503.281 24.09C503.281 24.97 503.611 26.0333 504.271 27.28L524.951 65.45L542.991 27.5C543.651 26.18 543.981 25.08 543.981 24.2C543.981 22.9533 543.248 22.0367 541.781 21.45C540.388 20.8633 538.151 20.57 535.071 20.57C534.851 20.57 534.741 20.35 534.741 19.91C534.741 19.47 534.851 19.25 535.071 19.25L539.471 19.36C541.964 19.5067 544.201 19.58 546.181 19.58C547.354 19.58 548.821 19.5067 550.581 19.36L554.651 19.25ZM624.257 86.68C624.55 86.68 624.697 86.9 624.697 87.34C624.697 87.78 624.55 88 624.257 88C622.937 88 620.81 87.9267 617.877 87.78C615.09 87.6333 613.037 87.56 611.717 87.56C610.177 87.56 608.16 87.6333 605.667 87.78C603.32 87.9267 601.56 88 600.387 88C600.094 88 599.947 87.78 599.947 87.34C599.947 86.9 600.094 86.68 600.387 86.68C603.394 86.68 605.557 86.4233 606.877 85.91C608.197 85.3233 608.857 84.37 608.857 83.05C608.857 82.0233 608.454 80.5933 607.647 78.76L583.447 26.84L563.647 74.47C562.62 76.9633 562.107 79.0167 562.107 80.63C562.107 82.7567 562.987 84.2967 564.747 85.25C566.507 86.2033 569.257 86.68 572.997 86.68C573.364 86.68 573.547 86.9 573.547 87.34C573.547 87.78 573.364 88 572.997 88C571.677 88 569.77 87.9267 567.277 87.78C564.49 87.6333 562.07 87.56 560.017 87.56C558.184 87.56 556.02 87.6333 553.527 87.78C551.327 87.9267 549.53 88 548.137 88C547.77 88 547.587 87.78 547.587 87.34C547.587 86.9 547.77 86.68 548.137 86.68C550.19 86.68 551.914 86.3133 553.307 85.58C554.774 84.8467 556.13 83.5267 557.377 81.62C558.697 79.7133 560.09 77 561.557 73.48L584.547 18.15C584.694 17.93 584.914 17.82 585.207 17.82C585.574 17.82 585.794 17.93 585.867 18.15L611.387 72.93C613.074 76.67 614.577 79.53 615.897 81.51C617.217 83.4167 618.5 84.7733 619.747 85.58C621.067 86.3133 622.57 86.68 624.257 86.68ZM657.944 49.17C664.69 49.17 669.97 50.5267 673.784 53.24C677.67 55.9533 679.614 60.61 679.614 67.21C679.614 71.39 678.697 75.0933 676.864 78.32C675.104 81.5467 672.574 84.04 669.274 85.8C666.047 87.56 662.307 88.44 658.054 88.44C656.147 88.44 653.874 88.33 651.234 88.11C650.134 88.0367 648.814 87.9633 647.274 87.89C645.807 87.8167 644.157 87.78 642.324 87.78L635.064 87.89C633.744 87.9633 631.91 88 629.564 88C629.417 88 629.344 87.78 629.344 87.34C629.344 86.9 629.417 86.68 629.564 86.68C632.497 86.68 634.624 86.4967 635.944 86.13C637.337 85.7633 638.29 85.0667 638.804 84.04C639.317 82.94 639.574 81.29 639.574 79.09V28.16C639.574 25.96 639.317 24.3467 638.804 23.32C638.364 22.2933 637.447 21.5967 636.054 21.23C634.734 20.79 632.644 20.57 629.784 20.57C629.564 20.57 629.454 20.35 629.454 19.91C629.454 19.47 629.564 19.25 629.784 19.25L634.954 19.36C638.034 19.5067 640.454 19.58 642.214 19.58C644.34 19.58 646.944 19.5067 650.024 19.36L655.084 19.25C655.304 19.25 655.414 19.47 655.414 19.91C655.414 20.35 655.304 20.57 655.084 20.57C652.224 20.57 650.097 20.79 648.704 21.23C647.384 21.67 646.467 22.44 645.954 23.54C645.514 24.5667 645.294 26.18 645.294 28.38V50.49C649.914 49.61 654.13 49.17 657.944 49.17ZM655.854 86.68C661.94 86.68 666.34 85.3233 669.054 82.61C671.84 79.8967 673.234 75.7167 673.234 70.07C673.234 63.25 671.657 58.41 668.504 55.55C665.424 52.6167 661.097 51.15 655.524 51.15C652.444 51.15 649.034 51.59 645.294 52.47V79.09C645.294 81.73 645.99 83.6733 647.384 84.92C648.777 86.0933 651.6 86.68 655.854 86.68ZM694.367 21.12C689.747 21.12 686.374 22.22 684.247 24.42C682.121 26.62 680.691 30.5433 679.957 36.19C679.957 36.3367 679.737 36.41 679.297 36.41C678.857 36.41 678.637 36.3367 678.637 36.19C678.931 34.21 679.261 31.0567 679.627 26.73C679.994 22.33 680.177 19.03 680.177 16.83C680.177 16.4633 680.397 16.28 680.837 16.28C681.277 16.28 681.497 16.4633 681.497 16.83C681.497 18.4433 683.441 19.25 687.327 19.25C693.634 19.47 701.004 19.58 709.437 19.58C713.764 19.58 718.347 19.5067 723.187 19.36L730.667 19.25C733.307 19.25 735.251 19.0667 736.497 18.7C737.744 18.3333 738.551 17.6 738.917 16.5C738.991 16.2067 739.211 16.06 739.577 16.06C739.944 16.06 740.127 16.2067 740.127 16.5C739.907 18.5533 739.687 21.7067 739.467 25.96C739.247 30.14 739.137 33.55 739.137 36.19C739.137 36.3367 738.917 36.41 738.477 36.41C738.037 36.41 737.817 36.3367 737.817 36.19C737.817 32.3033 737.414 29.2967 736.607 27.17C735.801 25.0433 734.444 23.5033 732.537 22.55C730.631 21.5967 727.954 21.12 724.507 21.12C720.694 21.12 718.017 21.2667 716.477 21.56C714.937 21.78 713.874 22.3667 713.287 23.32C712.774 24.2733 712.517 25.96 712.517 28.38V79.09C712.517 81.3633 712.774 83.0133 713.287 84.04C713.801 85.0667 714.827 85.7633 716.367 86.13C717.907 86.4967 720.327 86.68 723.627 86.68C723.774 86.68 723.847 86.9 723.847 87.34C723.847 87.78 723.774 88 723.627 88C721.207 88 719.301 87.9633 717.907 87.89L709.437 87.78L701.407 87.89C699.941 87.9633 697.924 88 695.357 88C695.211 88 695.137 87.78 695.137 87.34C695.137 86.9 695.211 86.68 695.357 86.68C698.657 86.68 701.077 86.4967 702.617 86.13C704.157 85.7633 705.184 85.0667 705.697 84.04C706.284 82.94 706.577 81.29 706.577 79.09V28.16C706.577 25.74 706.284 24.09 705.697 23.21C705.111 22.2567 704.047 21.67 702.507 21.45C701.041 21.23 698.327 21.12 694.367 21.12ZM812.675 86.68C812.968 86.68 813.115 86.9 813.115 87.34C813.115 87.78 812.968 88 812.675 88C811.355 88 809.228 87.9267 806.295 87.78C803.508 87.6333 801.455 87.56 800.135 87.56C798.595 87.56 796.578 87.6333 794.085 87.78C791.738 87.9267 789.978 88 788.805 88C788.512 88 788.365 87.78 788.365 87.34C788.365 86.9 788.512 86.68 788.805 86.68C791.812 86.68 793.975 86.4233 795.295 85.91C796.615 85.3233 797.275 84.37 797.275 83.05C797.275 82.0233 796.872 80.5933 796.065 78.76L785.725 56.43H759.545L752.065 74.47C751.038 76.9633 750.525 79.0167 750.525 80.63C750.525 82.7567 751.405 84.2967 753.165 85.25C754.925 86.2033 757.675 86.68 761.415 86.68C761.782 86.68 761.965 86.9 761.965 87.34C761.965 87.78 761.782 88 761.415 88C760.095 88 758.188 87.9267 755.695 87.78C752.908 87.6333 750.488 87.56 748.435 87.56C746.602 87.56 744.438 87.6333 741.945 87.78C739.745 87.9267 737.948 88 736.555 88C736.188 88 736.005 87.78 736.005 87.34C736.005 86.9 736.188 86.68 736.555 86.68C738.608 86.68 740.332 86.3133 741.725 85.58C743.192 84.8467 744.548 83.5267 745.795 81.62C747.115 79.7133 748.508 77 749.975 73.48L772.965 18.15C773.112 17.93 773.332 17.82 773.625 17.82C773.992 17.82 774.212 17.93 774.285 18.15L799.805 72.93C801.492 76.67 802.995 79.53 804.315 81.51C805.635 83.4167 806.918 84.7733 808.165 85.58C809.485 86.3133 810.988 86.68 812.675 86.68ZM760.425 54.45H784.735L771.865 26.84L760.425 54.45ZM825.207 21.12C820.587 21.12 817.214 22.22 815.087 24.42C812.961 26.62 811.531 30.5433 810.797 36.19C810.797 36.3367 810.577 36.41 810.137 36.41C809.697 36.41 809.477 36.3367 809.477 36.19C809.771 34.21 810.101 31.0567 810.467 26.73C810.834 22.33 811.017 19.03 811.017 16.83C811.017 16.4633 811.237 16.28 811.677 16.28C812.117 16.28 812.337 16.4633 812.337 16.83C812.337 18.4433 814.281 19.25 818.167 19.25C824.474 19.47 831.844 19.58 840.277 19.58C844.604 19.58 849.187 19.5067 854.027 19.36L861.507 19.25C864.147 19.25 866.091 19.0667 867.337 18.7C868.584 18.3333 869.391 17.6 869.757 16.5C869.831 16.2067 870.051 16.06 870.417 16.06C870.784 16.06 870.967 16.2067 870.967 16.5C870.747 18.5533 870.527 21.7067 870.307 25.96C870.087 30.14 869.977 33.55 869.977 36.19C869.977 36.3367 869.757 36.41 869.317 36.41C868.877 36.41 868.657 36.3367 868.657 36.19C868.657 32.3033 868.254 29.2967 867.447 27.17C866.641 25.0433 865.284 23.5033 863.377 22.55C861.471 21.5967 858.794 21.12 855.347 21.12C851.534 21.12 848.857 21.2667 847.317 21.56C845.777 21.78 844.714 22.3667 844.127 23.32C843.614 24.2733 843.357 25.96 843.357 28.38V79.09C843.357 81.3633 843.614 83.0133 844.127 84.04C844.641 85.0667 845.667 85.7633 847.207 86.13C848.747 86.4967 851.167 86.68 854.467 86.68C854.614 86.68 854.687 86.9 854.687 87.34C854.687 87.78 854.614 88 854.467 88C852.047 88 850.141 87.9633 848.747 87.89L840.277 87.78L832.247 87.89C830.781 87.9633 828.764 88 826.197 88C826.051 88 825.977 87.78 825.977 87.34C825.977 86.9 826.051 86.68 826.197 86.68C829.497 86.68 831.917 86.4967 833.457 86.13C834.997 85.7633 836.024 85.0667 836.537 84.04C837.124 82.94 837.417 81.29 837.417 79.09V28.16C837.417 25.74 837.124 24.09 836.537 23.21C835.951 22.2567 834.887 21.67 833.347 21.45C831.881 21.23 829.167 21.12 825.207 21.12Z" fill="#353535"/>
</svg>
