<svg width="230" height="86" viewBox="0 0 230 86" fill="none" xmlns="http://www.w3.org/2000/svg">
<path d="M33.6048 31.424C33.7008 31.424 33.7488 31.52 33.7488 31.712C33.7488 31.904 33.7008 32 33.6048 32C32.6448 32 31.8768 31.984 31.3008 31.952L28.0368 31.904L24.7728 31.952C24.2288 31.984 23.4768 32 22.5168 32C22.4208 32 22.3728 31.904 22.3728 31.712C22.3728 31.52 22.4208 31.424 22.5168 31.424C23.7968 31.424 24.7248 31.344 25.3008 31.184C25.8768 31.024 26.2608 30.72 26.4528 30.272C26.6448 29.824 26.7408 29.104 26.7408 28.112V5.408L5.71675 32.432C5.62075 32.56 5.44475 32.624 5.18875 32.624C4.74075 32.624 4.51675 32.512 4.51675 32.288V5.888C4.51675 4.928 4.40475 4.224 4.18075 3.776C3.95675 3.328 3.54075 3.024 2.93275 2.864C2.35675 2.672 1.44475 2.576 0.19675 2.576C0.13275 2.576 0.10075 2.48 0.10075 2.288C0.10075 2.096 0.13275 2 0.19675 2L2.59675 2.048C3.87675 2.112 4.93275 2.144 5.76475 2.144C6.66075 2.144 7.74875 2.112 9.02875 2.048L11.3328 2C11.3968 2 11.4288 2.096 11.4288 2.288C11.4288 2.48 11.3968 2.576 11.3328 2.576C10.0528 2.576 9.12475 2.672 8.54875 2.864C7.97275 3.024 7.57275 3.328 7.34875 3.776C7.15675 4.224 7.06075 4.928 7.06075 5.888V28.976L28.1328 1.808C28.2288 1.68 28.3888 1.616 28.6128 1.616C28.7728 1.616 28.9168 1.648 29.0448 1.712C29.2048 1.776 29.2848 1.856 29.2848 1.952V28.112C29.2848 29.072 29.3968 29.792 29.6208 30.272C29.8448 30.72 30.2448 31.024 30.8208 31.184C31.4288 31.344 32.3568 31.424 33.6048 31.424ZM55.2303 1.472C56.7983 1.472 58.3663 1.632 59.9343 1.952C61.5343 2.272 62.8143 2.704 63.7743 3.248C64.0303 3.408 64.1903 3.568 64.2543 3.728C64.3503 3.856 64.4143 4.08 64.4463 4.4L64.9743 9.44C64.9743 9.536 64.8943 9.6 64.7343 9.632C64.5743 9.632 64.4783 9.584 64.4463 9.488C63.2943 4.816 59.5983 2.48 53.3583 2.48C50.8623 2.48 48.6543 3.024 46.7343 4.112C44.8463 5.168 43.3743 6.672 42.3183 8.624C41.2623 10.576 40.7343 12.832 40.7343 15.392C40.7343 18.4 41.3903 21.184 42.7023 23.744C44.0143 26.272 45.7583 28.288 47.9343 29.792C50.1103 31.264 52.4623 32 54.9903 32C57.3583 32 59.3903 31.376 61.0863 30.128C62.8143 28.88 64.0783 26.976 64.8783 24.416C64.8783 24.32 64.9423 24.272 65.0703 24.272C65.1663 24.272 65.2463 24.288 65.3103 24.32C65.4063 24.352 65.4543 24.4 65.4543 24.464L64.7823 29.6C64.7183 29.984 64.6383 30.24 64.5423 30.368C64.4783 30.464 64.3023 30.576 64.0143 30.704C61.1663 31.952 58.1103 32.576 54.8463 32.576C51.0063 32.576 47.8063 31.808 45.2463 30.272C42.6863 28.704 40.7983 26.72 39.5823 24.32C38.3663 21.888 37.7583 19.344 37.7583 16.688C37.7583 13.776 38.5743 11.168 40.2063 8.864C41.8383 6.528 43.9983 4.72 46.6863 3.44C49.3743 2.128 52.2223 1.472 55.2303 1.472ZM76.1556 2.816C74.1396 2.816 72.6676 3.296 71.7396 4.256C70.8116 5.216 70.1876 6.928 69.8676 9.392C69.8676 9.456 69.7716 9.488 69.5796 9.488C69.3876 9.488 69.2916 9.456 69.2916 9.392C69.4196 8.528 69.5636 7.152 69.7236 5.264C69.8836 3.344 69.9636 1.904 69.9636 0.943999C69.9636 0.783999 70.0596 0.704 70.2516 0.704C70.4436 0.704 70.5396 0.783999 70.5396 0.943999C70.5396 1.648 71.3876 2 73.0836 2C75.8356 2.096 79.0516 2.144 82.7316 2.144C84.6196 2.144 86.6196 2.112 88.7316 2.048L91.9956 2C93.1476 2 93.9956 1.92 94.5396 1.76C95.0836 1.6 95.4356 1.28 95.5956 0.799998C95.6276 0.671998 95.7236 0.607998 95.8836 0.607998C96.0436 0.607998 96.1236 0.671998 96.1236 0.799998C96.0276 1.696 95.9316 3.072 95.8356 4.928C95.7396 6.752 95.6916 8.24 95.6916 9.392C95.6916 9.456 95.5956 9.488 95.4036 9.488C95.2116 9.488 95.1156 9.456 95.1156 9.392C95.1156 7.696 94.9396 6.384 94.5876 5.456C94.2356 4.528 93.6436 3.856 92.8116 3.44C91.9796 3.024 90.8116 2.816 89.3076 2.816C87.6436 2.816 86.4756 2.88 85.8036 3.008C85.1316 3.104 84.6676 3.36 84.4116 3.776C84.1876 4.192 84.0756 4.928 84.0756 5.984V28.112C84.0756 29.104 84.1876 29.824 84.4116 30.272C84.6356 30.72 85.0836 31.024 85.7556 31.184C86.4276 31.344 87.4836 31.424 88.9236 31.424C88.9876 31.424 89.0196 31.52 89.0196 31.712C89.0196 31.904 88.9876 32 88.9236 32C87.8676 32 87.0356 31.984 86.4276 31.952L82.7316 31.904L79.2276 31.952C78.5876 31.984 77.7076 32 76.5876 32C76.5236 32 76.4916 31.904 76.4916 31.712C76.4916 31.52 76.5236 31.424 76.5876 31.424C78.0276 31.424 79.0836 31.344 79.7556 31.184C80.4276 31.024 80.8756 30.72 81.0996 30.272C81.3556 29.792 81.4836 29.072 81.4836 28.112V5.888C81.4836 4.832 81.3556 4.112 81.0996 3.728C80.8436 3.312 80.3796 3.056 79.7076 2.96C79.0676 2.864 77.8836 2.816 76.1556 2.816ZM134.036 12.368C134.004 12.912 133.956 13.424 133.892 13.904C133.86 14.384 133.78 14.848 133.652 15.296C132.628 18.976 129.956 22.864 125.636 26.96C123.364 29.072 120.884 30.768 118.196 32.048C115.156 33.552 112.26 34.272 109.508 34.208C107.204 34.144 105.268 33.6 103.7 32.576C101.876 31.328 100.964 29.6 100.964 27.392C100.964 24.32 102.708 20.704 106.196 16.544C106.74 15.904 107.444 15.168 108.308 14.336C109.172 13.504 110.196 12.592 111.38 11.6C113.716 9.584 115.252 8.48 115.988 8.288C116.148 8.224 116.26 8.224 116.324 8.288C116.356 8.32 116.34 8.416 116.276 8.576C115.028 9.248 113.412 10.528 111.428 12.416C109.444 14.304 107.956 15.936 106.964 17.312C104.692 20.416 103.524 23.472 103.46 26.48C103.46 28.528 104.132 30.16 105.476 31.376C106.82 32.56 108.516 33.184 110.564 33.248C112.9 33.28 115.508 32.608 118.388 31.232C121.012 29.952 123.252 28.4 125.108 26.576C126.868 24.848 128.356 22.896 129.572 20.72C130.468 19.152 131.06 17.712 131.348 16.4C131.732 14.832 131.924 13.552 131.924 12.56C131.892 10.704 131.364 9.168 130.34 7.952C129.348 6.704 127.94 6.064 126.116 6.032C124.004 6 122.324 6.544 121.076 7.664C119.892 8.752 119.3 9.952 119.3 11.264C119.3 12.128 119.524 12.816 119.972 13.328C118.34 13.296 117.524 12.624 117.524 11.312C117.524 10.8 117.812 10.176 118.388 9.44C120.628 6.72 123.54 5.36 127.124 5.36C129.108 5.36 130.74 5.92 132.02 7.04C133.396 8.288 134.068 10.064 134.036 12.368ZM140.662 27.92C140.662 28.944 140.806 29.696 141.094 30.176C141.382 30.624 141.926 30.944 142.726 31.136C143.558 31.328 144.87 31.424 146.662 31.424C146.758 31.424 146.806 31.52 146.806 31.712C146.806 31.904 146.758 32 146.662 32C145.35 32 144.326 31.984 143.59 31.952L139.414 31.904L136.246 31.952C135.67 31.984 134.87 32 133.846 32C133.782 32 133.75 31.904 133.75 31.712C133.75 31.52 133.782 31.424 133.846 31.424C135.094 31.424 136.006 31.344 136.582 31.184C137.19 31.024 137.59 30.72 137.782 30.272C138.006 29.792 138.118 29.072 138.118 28.112V5.888C138.118 4.928 138.006 4.224 137.782 3.776C137.59 3.328 137.19 3.024 136.582 2.864C136.006 2.672 135.094 2.576 133.846 2.576C133.782 2.576 133.75 2.48 133.75 2.288C133.75 2.096 133.782 2 133.846 2L136.198 2.048C137.542 2.112 138.598 2.144 139.366 2.144C140.134 2.144 141.014 2.096 142.006 2C144.502 1.904 145.862 1.856 146.086 1.856C148.902 1.856 151.19 2.512 152.95 3.824C154.71 5.104 155.59 7.072 155.59 9.728C155.59 11.872 155.062 13.68 154.006 15.152C152.95 16.592 151.606 17.664 149.974 18.368C148.374 19.072 146.71 19.424 144.982 19.424C144.022 19.424 143.238 19.344 142.63 19.184C142.534 19.184 142.486 19.104 142.486 18.944C142.486 18.848 142.502 18.752 142.534 18.656C142.598 18.56 142.662 18.528 142.726 18.56C143.238 18.688 143.814 18.752 144.454 18.752C146.726 18.752 148.646 18.064 150.214 16.688C151.814 15.312 152.614 13.312 152.614 10.688C152.614 8.992 152.278 7.536 151.606 6.32C150.934 5.072 150.006 4.128 148.822 3.488C147.67 2.816 146.39 2.48 144.982 2.48C143.67 2.48 142.742 2.544 142.198 2.672C141.654 2.8 141.254 3.104 140.998 3.584C140.774 4.032 140.662 4.832 140.662 5.984V27.92ZM192.792 31.424C192.888 31.424 192.936 31.52 192.936 31.712C192.936 31.904 192.888 32 192.792 32C191.832 32 191.064 31.984 190.488 31.952L187.224 31.904L183.96 31.952C183.416 31.984 182.664 32 181.704 32C181.608 32 181.56 31.904 181.56 31.712C181.56 31.52 181.608 31.424 181.704 31.424C182.984 31.424 183.912 31.344 184.488 31.184C185.064 31.024 185.448 30.72 185.64 30.272C185.832 29.824 185.928 29.104 185.928 28.112V5.408L164.904 32.432C164.808 32.56 164.632 32.624 164.376 32.624C163.928 32.624 163.704 32.512 163.704 32.288V5.888C163.704 4.928 163.592 4.224 163.368 3.776C163.144 3.328 162.728 3.024 162.12 2.864C161.544 2.672 160.632 2.576 159.384 2.576C159.32 2.576 159.288 2.48 159.288 2.288C159.288 2.096 159.32 2 159.384 2L161.784 2.048C163.064 2.112 164.12 2.144 164.952 2.144C165.848 2.144 166.936 2.112 168.216 2.048L170.52 2C170.584 2 170.616 2.096 170.616 2.288C170.616 2.48 170.584 2.576 170.52 2.576C169.24 2.576 168.312 2.672 167.736 2.864C167.16 3.024 166.76 3.328 166.536 3.776C166.344 4.224 166.248 4.928 166.248 5.888V28.976L187.32 1.808C187.416 1.68 187.576 1.616 187.8 1.616C187.96 1.616 188.104 1.648 188.232 1.712C188.392 1.776 188.472 1.856 188.472 1.952V28.112C188.472 29.072 188.584 29.792 188.808 30.272C189.032 30.72 189.432 31.024 190.008 31.184C190.616 31.344 191.544 31.424 192.792 31.424ZM229.73 31.424C229.826 31.424 229.874 31.52 229.874 31.712C229.874 31.904 229.826 32 229.73 32C228.77 32 228.002 31.984 227.426 31.952L224.162 31.904L220.898 31.952C220.354 31.984 219.602 32 218.642 32C218.546 32 218.498 31.904 218.498 31.712C218.498 31.52 218.546 31.424 218.642 31.424C219.922 31.424 220.85 31.344 221.426 31.184C222.002 31.024 222.386 30.72 222.578 30.272C222.77 29.824 222.866 29.104 222.866 28.112V5.408L201.842 32.432C201.746 32.56 201.57 32.624 201.314 32.624C200.866 32.624 200.642 32.512 200.642 32.288V5.888C200.642 4.928 200.53 4.224 200.306 3.776C200.082 3.328 199.666 3.024 199.058 2.864C198.482 2.672 197.57 2.576 196.322 2.576C196.258 2.576 196.226 2.48 196.226 2.288C196.226 2.096 196.258 2 196.322 2L198.722 2.048C200.002 2.112 201.058 2.144 201.89 2.144C202.786 2.144 203.874 2.112 205.154 2.048L207.458 2C207.522 2 207.554 2.096 207.554 2.288C207.554 2.48 207.522 2.576 207.458 2.576C206.178 2.576 205.25 2.672 204.674 2.864C204.098 3.024 203.698 3.328 203.474 3.776C203.282 4.224 203.186 4.928 203.186 5.888V28.976L224.258 1.808C224.354 1.68 224.514 1.616 224.738 1.616C224.898 1.616 225.042 1.648 225.17 1.712C225.33 1.776 225.41 1.856 225.41 1.952V28.112C225.41 29.072 225.522 29.792 225.746 30.272C225.97 30.72 226.37 31.024 226.946 31.184C227.554 31.344 228.482 31.424 229.73 31.424ZM40.312 84.424C40.44 84.424 40.504 84.52 40.504 84.712C40.504 84.904 40.44 85 40.312 85C39.736 85 38.808 84.968 37.528 84.904C36.312 84.84 35.416 84.808 34.84 84.808C34.168 84.808 33.288 84.84 32.2 84.904C31.176 84.968 30.408 85 29.896 85C29.768 85 29.704 84.904 29.704 84.712C29.704 84.52 29.768 84.424 29.896 84.424C31.208 84.424 32.152 84.312 32.728 84.088C33.304 83.832 33.592 83.416 33.592 82.84C33.592 82.392 33.416 81.768 33.064 80.968L28.552 71.224H17.128L13.864 79.096C13.416 80.184 13.192 81.08 13.192 81.784C13.192 82.712 13.576 83.384 14.344 83.8C15.112 84.216 16.312 84.424 17.944 84.424C18.104 84.424 18.184 84.52 18.184 84.712C18.184 84.904 18.104 85 17.944 85C17.368 85 16.536 84.968 15.448 84.904C14.232 84.84 13.176 84.808 12.28 84.808C11.48 84.808 10.536 84.84 9.448 84.904C8.488 84.968 7.704 85 7.096 85C6.936 85 6.856 84.904 6.856 84.712C6.856 84.52 6.936 84.424 7.096 84.424C7.992 84.424 8.744 84.264 9.352 83.944C9.992 83.624 10.584 83.048 11.128 82.216C11.704 81.384 12.312 80.2 12.952 78.664L22.984 54.52C23.048 54.424 23.144 54.376 23.272 54.376C23.432 54.376 23.528 54.424 23.56 54.52L34.696 78.424C35.432 80.056 36.088 81.304 36.664 82.168C37.24 83 37.8 83.592 38.344 83.944C38.92 84.264 39.576 84.424 40.312 84.424ZM17.512 70.36H28.12L22.504 58.312L17.512 70.36ZM75.0756 84.424C75.1716 84.424 75.2196 84.52 75.2196 84.712C75.2196 84.904 75.1716 85 75.0756 85C74.0836 85 73.3156 84.984 72.7716 84.952L69.5556 84.904L66.2436 84.952C65.6996 84.984 64.9476 85 63.9876 85C63.8916 85 63.8436 84.904 63.8436 84.712C63.8436 84.52 63.8916 84.424 63.9876 84.424C65.2676 84.424 66.1956 84.344 66.7716 84.184C67.3476 84.024 67.7316 83.72 67.9236 83.272C68.1476 82.824 68.2596 82.104 68.2596 81.112V69.832H49.1076V81.112C49.1076 82.104 49.2036 82.824 49.3956 83.272C49.6196 83.72 50.0196 84.024 50.5956 84.184C51.1716 84.344 52.0996 84.424 53.3796 84.424C53.4436 84.424 53.4756 84.52 53.4756 84.712C53.4756 84.904 53.4436 85 53.3796 85C52.4196 85 51.6516 84.984 51.0756 84.952L47.8116 84.904L44.6436 84.952C44.0676 84.984 43.2676 85 42.2436 85C42.1796 85 42.1476 84.904 42.1476 84.712C42.1476 84.52 42.1796 84.424 42.2436 84.424C43.4916 84.424 44.4036 84.344 44.9796 84.184C45.5876 84.024 46.0036 83.72 46.2276 83.272C46.4516 82.792 46.5636 82.072 46.5636 81.112V58.888C46.5636 57.928 46.4516 57.224 46.2276 56.776C46.0356 56.328 45.6356 56.024 45.0276 55.864C44.4516 55.672 43.5396 55.576 42.2916 55.576C42.2276 55.576 42.1956 55.48 42.1956 55.288C42.1956 55.096 42.2276 55 42.2916 55L44.6436 55.048C45.9876 55.112 47.0436 55.144 47.8116 55.144C48.6756 55.144 49.7796 55.112 51.1236 55.048L53.3796 55C53.4436 55 53.4756 55.096 53.4756 55.288C53.4756 55.48 53.4436 55.576 53.3796 55.576C52.1316 55.576 51.2036 55.672 50.5956 55.864C50.0196 56.056 49.6196 56.392 49.3956 56.872C49.2036 57.32 49.1076 58.024 49.1076 58.984V68.92H68.2596V58.984C68.2596 58.024 68.1476 57.32 67.9236 56.872C67.7316 56.392 67.3316 56.056 66.7236 55.864C66.1476 55.672 65.2356 55.576 63.9876 55.576C63.8916 55.576 63.8436 55.48 63.8436 55.288C63.8436 55.096 63.8916 55 63.9876 55L66.2436 55.048C67.5876 55.112 68.6916 55.144 69.5556 55.144C70.3556 55.144 71.4276 55.112 72.7716 55.048L75.0756 55C75.1716 55 75.2196 55.096 75.2196 55.288C75.2196 55.48 75.1716 55.576 75.0756 55.576C73.8276 55.576 72.8996 55.672 72.2916 55.864C71.7156 56.024 71.3156 56.328 71.0916 56.776C70.8676 57.224 70.7556 57.928 70.7556 58.888V81.112C70.7556 82.072 70.8676 82.792 71.0916 83.272C71.3156 83.72 71.7156 84.024 72.2916 84.184C72.8996 84.344 73.8276 84.424 75.0756 84.424ZM79.0026 85C78.9386 85 78.9066 84.904 78.9066 84.712C78.9066 84.52 78.9386 84.424 79.0026 84.424C80.2506 84.424 81.1626 84.344 81.7386 84.184C82.3466 84.024 82.7466 83.72 82.9386 83.272C83.1626 82.792 83.2746 82.072 83.2746 81.112V58.888C83.2746 57.928 83.1626 57.224 82.9386 56.776C82.7466 56.328 82.3466 56.024 81.7386 55.864C81.1626 55.672 80.2506 55.576 79.0026 55.576C78.9386 55.576 78.9066 55.48 78.9066 55.288C78.9066 55.096 78.9386 55 79.0026 55H99.1146C99.4346 55 99.5946 55.144 99.5946 55.432L99.6906 61.24C99.6906 61.336 99.5946 61.384 99.4026 61.384C99.2106 61.384 99.1146 61.336 99.1146 61.24C99.1146 59.608 98.6826 58.312 97.8186 57.352C96.9546 56.392 95.8186 55.912 94.4106 55.912H89.9946C88.8106 55.912 87.9306 55.992 87.3546 56.152C86.7786 56.312 86.3786 56.6 86.1546 57.016C85.9306 57.432 85.8186 58.072 85.8186 58.936V80.92C85.8186 81.944 85.9626 82.696 86.2506 83.176C86.5386 83.624 87.0826 83.944 87.8826 84.136C88.7146 84.328 90.0266 84.424 91.8186 84.424C91.9146 84.424 91.9626 84.52 91.9626 84.712C91.9626 84.904 91.9146 85 91.8186 85C90.5066 85 89.4826 84.984 88.7466 84.952L84.5706 84.904L81.4026 84.952C80.8266 84.984 80.0266 85 79.0026 85ZM123.919 77.992C123.919 77.896 124.015 77.864 124.207 77.896C124.399 77.896 124.495 77.944 124.495 78.04C124.207 80.056 124.063 82.136 124.063 84.28C124.063 84.536 123.999 84.728 123.871 84.856C123.775 84.952 123.583 85 123.295 85H103.471C103.407 85 103.375 84.904 103.375 84.712C103.375 84.52 103.407 84.424 103.471 84.424C104.719 84.424 105.631 84.344 106.207 84.184C106.815 84.024 107.215 83.72 107.407 83.272C107.631 82.792 107.743 82.072 107.743 81.112V58.888C107.743 57.928 107.631 57.224 107.407 56.776C107.215 56.328 106.815 56.024 106.207 55.864C105.631 55.672 104.719 55.576 103.471 55.576C103.407 55.576 103.375 55.48 103.375 55.288C103.375 55.096 103.407 55 103.471 55H122.479C122.767 55 122.911 55.144 122.911 55.432L123.007 61.24C123.007 61.336 122.911 61.384 122.719 61.384C122.559 61.384 122.479 61.336 122.479 61.24C122.479 59.608 122.047 58.312 121.183 57.352C120.319 56.392 119.183 55.912 117.775 55.912H114.463C113.247 55.912 112.351 55.992 111.775 56.152C111.199 56.312 110.799 56.616 110.575 57.064C110.383 57.512 110.287 58.216 110.287 59.176V68.92H116.623C118.095 68.92 119.119 68.68 119.695 68.2C120.271 67.688 120.559 66.824 120.559 65.608C120.559 65.544 120.655 65.512 120.847 65.512C121.039 65.512 121.135 65.544 121.135 65.608L121.087 69.4C121.087 70.328 121.103 71.016 121.135 71.464L121.183 73.72C121.183 73.784 121.087 73.816 120.895 73.816C120.703 73.816 120.607 73.784 120.607 73.72C120.607 72.28 120.303 71.272 119.695 70.696C119.087 70.12 118.015 69.832 116.479 69.832H110.287V80.92C110.287 81.848 110.383 82.536 110.575 82.984C110.799 83.4 111.183 83.688 111.727 83.848C112.303 84.008 113.215 84.088 114.463 84.088H118.879C120.159 84.088 121.247 83.528 122.143 82.408C123.071 81.288 123.663 79.816 123.919 77.992ZM160.265 84.424C160.393 84.424 160.457 84.52 160.457 84.712C160.457 84.904 160.393 85 160.265 85C159.689 85 158.761 84.968 157.481 84.904C156.265 84.84 155.369 84.808 154.793 84.808C154.121 84.808 153.241 84.84 152.153 84.904C151.129 84.968 150.361 85 149.849 85C149.721 85 149.657 84.904 149.657 84.712C149.657 84.52 149.721 84.424 149.849 84.424C151.161 84.424 152.105 84.312 152.681 84.088C153.257 83.832 153.545 83.416 153.545 82.84C153.545 82.392 153.369 81.768 153.017 80.968L142.457 58.312L133.817 79.096C133.369 80.184 133.145 81.08 133.145 81.784C133.145 82.712 133.529 83.384 134.297 83.8C135.065 84.216 136.265 84.424 137.897 84.424C138.057 84.424 138.137 84.52 138.137 84.712C138.137 84.904 138.057 85 137.897 85C137.321 85 136.489 84.968 135.401 84.904C134.185 84.84 133.129 84.808 132.233 84.808C131.433 84.808 130.489 84.84 129.401 84.904C128.441 84.968 127.657 85 127.049 85C126.889 85 126.809 84.904 126.809 84.712C126.809 84.52 126.889 84.424 127.049 84.424C127.945 84.424 128.697 84.264 129.305 83.944C129.945 83.624 130.537 83.048 131.081 82.216C131.657 81.384 132.265 80.2 132.905 78.664L142.937 54.52C143.001 54.424 143.097 54.376 143.225 54.376C143.385 54.376 143.481 54.424 143.513 54.52L154.649 78.424C155.385 80.056 156.041 81.304 156.617 82.168C157.193 83 157.753 83.592 158.297 83.944C158.873 84.264 159.529 84.424 160.265 84.424ZM177.474 85.576C174.498 85.576 171.842 84.888 169.506 83.512C167.202 82.104 165.41 80.216 164.13 77.848C162.882 75.448 162.258 72.84 162.258 70.024C162.258 66.728 163.09 63.912 164.754 61.576C166.418 59.208 168.546 57.432 171.138 56.248C173.762 55.064 176.434 54.472 179.154 54.472C182.194 54.472 184.866 55.192 187.17 56.632C189.474 58.04 191.234 59.912 192.45 62.248C193.698 64.584 194.322 67.064 194.322 69.688C194.322 72.6 193.554 75.272 192.018 77.704C190.482 80.136 188.418 82.056 185.826 83.464C183.266 84.872 180.482 85.576 177.474 85.576ZM179.202 84.616C181.474 84.616 183.522 84.088 185.346 83.032C187.17 81.976 188.61 80.424 189.666 78.376C190.722 76.328 191.25 73.88 191.25 71.032C191.25 68.024 190.658 65.352 189.474 63.016C188.322 60.648 186.674 58.808 184.53 57.496C182.418 56.184 179.954 55.528 177.138 55.528C173.426 55.528 170.53 56.68 168.45 58.984C166.37 61.288 165.33 64.424 165.33 68.392C165.33 71.368 165.906 74.104 167.058 76.6C168.242 79.064 169.89 81.016 172.002 82.456C174.114 83.896 176.514 84.616 179.202 84.616ZM212.256 68.056C214.752 68.216 216.768 69.048 218.304 70.552C219.84 72.056 220.608 73.912 220.608 76.12C220.608 77.848 220.208 79.4 219.408 80.776C218.608 82.152 217.504 83.24 216.096 84.04C214.688 84.808 213.136 85.192 211.44 85.192C210.352 85.192 209.2 85.144 207.984 85.048C207.536 85.016 207.008 84.984 206.4 84.952C205.792 84.92 205.104 84.904 204.336 84.904L201.168 84.952C200.592 84.984 199.792 85 198.768 85C198.704 85 198.672 84.904 198.672 84.712C198.672 84.52 198.704 84.424 198.768 84.424C200.048 84.424 200.976 84.344 201.552 84.184C202.16 84.024 202.576 83.72 202.8 83.272C203.024 82.792 203.136 82.072 203.136 81.112V58.888C203.136 57.928 203.024 57.224 202.8 56.776C202.608 56.328 202.208 56.024 201.6 55.864C201.024 55.672 200.112 55.576 198.864 55.576C198.768 55.576 198.72 55.48 198.72 55.288C198.72 55.096 198.768 55 198.864 55L201.168 55.048C202.448 55.112 203.504 55.144 204.336 55.144C204.912 55.144 205.456 55.128 205.968 55.096C206.48 55.064 206.928 55.032 207.312 55C208.304 54.904 209.184 54.856 209.952 54.856C212.608 54.856 214.56 55.464 215.808 56.68C217.088 57.864 217.728 59.384 217.728 61.24C217.728 62.808 217.232 64.184 216.24 65.368C215.248 66.52 213.92 67.416 212.256 68.056ZM208.848 55.48C207.952 55.48 207.296 55.544 206.88 55.672C206.464 55.8 206.144 56.104 205.92 56.584C205.728 57.064 205.632 57.864 205.632 58.984V68.104L207.888 68.152C210.416 68.152 212.256 67.56 213.408 66.376C214.56 65.16 215.136 63.56 215.136 61.576C215.136 59.784 214.624 58.328 213.6 57.208C212.608 56.056 211.024 55.48 208.848 55.48ZM210.768 84.424C213.136 84.424 214.896 83.816 216.048 82.6C217.232 81.352 217.824 79.592 217.824 77.32C217.824 74.888 217.072 72.92 215.568 71.416C214.096 69.88 212.096 69.096 209.568 69.064C208.384 69.032 207.072 69.064 205.632 69.16V81.112C205.632 81.976 205.76 82.648 206.016 83.128C206.304 83.576 206.816 83.912 207.552 84.136C208.288 84.328 209.36 84.424 210.768 84.424Z" fill="#353535"/>
</svg>
