<svg width="1043" height="81" viewBox="0 0 1043 81" fill="none" xmlns="http://www.w3.org/2000/svg">
<path d="M16.2756 8.12C11.6556 8.12 8.28225 9.22 6.15559 11.42C4.02892 13.62 2.59892 17.5433 1.86559 23.19C1.86559 23.3367 1.64559 23.41 1.20559 23.41C0.765586 23.41 0.545586 23.3367 0.545586 23.19C0.838919 21.21 1.16892 18.0567 1.53559 13.73C1.90225 9.33 2.08559 6.03 2.08559 3.83C2.08559 3.46333 2.30559 3.28 2.74559 3.28C3.18559 3.28 3.40559 3.46333 3.40559 3.83C3.40559 5.44333 5.34892 6.25 9.23559 6.25C15.5423 6.47 22.9123 6.58 31.3456 6.58C35.6723 6.58 40.2556 6.50666 45.0956 6.36L52.5756 6.25C55.2156 6.25 57.1589 6.06666 58.4056 5.69999C59.6523 5.33333 60.4589 4.6 60.8256 3.5C60.8989 3.20666 61.1189 3.06 61.4856 3.06C61.8523 3.06 62.0356 3.20666 62.0356 3.5C61.8156 5.55333 61.5956 8.70666 61.3756 12.96C61.1556 17.14 61.0456 20.55 61.0456 23.19C61.0456 23.3367 60.8256 23.41 60.3856 23.41C59.9456 23.41 59.7256 23.3367 59.7256 23.19C59.7256 19.3033 59.3223 16.2967 58.5156 14.17C57.7089 12.0433 56.3523 10.5033 54.4456 9.55C52.5389 8.59666 49.8623 8.12 46.4156 8.12C42.6023 8.12 39.9256 8.26666 38.3856 8.56C36.8456 8.78 35.7823 9.36667 35.1956 10.32C34.6823 11.2733 34.4256 12.96 34.4256 15.38V66.09C34.4256 68.3633 34.6823 70.0133 35.1956 71.04C35.7089 72.0667 36.7356 72.7633 38.2756 73.13C39.8156 73.4967 42.2356 73.68 45.5356 73.68C45.6823 73.68 45.7556 73.9 45.7556 74.34C45.7556 74.78 45.6823 75 45.5356 75C43.1156 75 41.2089 74.9633 39.8156 74.89L31.3456 74.78L23.3156 74.89C21.8489 74.9633 19.8323 75 17.2656 75C17.1189 75 17.0456 74.78 17.0456 74.34C17.0456 73.9 17.1189 73.68 17.2656 73.68C20.5656 73.68 22.9856 73.4967 24.5256 73.13C26.0656 72.7633 27.0923 72.0667 27.6056 71.04C28.1923 69.94 28.4856 68.29 28.4856 66.09V15.16C28.4856 12.74 28.1923 11.09 27.6056 10.21C27.0189 9.25666 25.9556 8.67 24.4156 8.45C22.9489 8.23 20.2356 8.12 16.2756 8.12ZM134.583 73.68C134.876 73.68 135.023 73.9 135.023 74.34C135.023 74.78 134.876 75 134.583 75C133.263 75 131.137 74.9267 128.203 74.78C125.417 74.6333 123.363 74.56 122.043 74.56C120.503 74.56 118.486 74.6333 115.993 74.78C113.647 74.9267 111.887 75 110.713 75C110.42 75 110.273 74.78 110.273 74.34C110.273 73.9 110.42 73.68 110.713 73.68C113.72 73.68 115.883 73.4233 117.203 72.91C118.523 72.3233 119.183 71.37 119.183 70.05C119.183 69.0233 118.78 67.5933 117.973 65.76L107.633 43.43H81.4532L73.9732 61.47C72.9465 63.9633 72.4332 66.0167 72.4332 67.63C72.4332 69.7567 73.3132 71.2967 75.0732 72.25C76.8332 73.2033 79.5832 73.68 83.3232 73.68C83.6898 73.68 83.8732 73.9 83.8732 74.34C83.8732 74.78 83.6898 75 83.3232 75C82.0032 75 80.0965 74.9267 77.6032 74.78C74.8165 74.6333 72.3965 74.56 70.3432 74.56C68.5098 74.56 66.3465 74.6333 63.8532 74.78C61.6532 74.9267 59.8565 75 58.4632 75C58.0965 75 57.9132 74.78 57.9132 74.34C57.9132 73.9 58.0965 73.68 58.4632 73.68C60.5165 73.68 62.2398 73.3133 63.6332 72.58C65.0998 71.8467 66.4565 70.5267 67.7032 68.62C69.0232 66.7133 70.4165 64 71.8832 60.48L94.8732 5.14999C95.0198 4.93 95.2398 4.82 95.5332 4.82C95.8998 4.82 96.1198 4.93 96.1932 5.14999L121.713 59.93C123.4 63.67 124.903 66.53 126.223 68.51C127.543 70.4167 128.827 71.7733 130.073 72.58C131.393 73.3133 132.896 73.68 134.583 73.68ZM82.3332 41.45H106.643L93.7732 13.84L82.3332 41.45ZM155.51 65.65C155.51 67.9967 155.84 69.72 156.5 70.82C157.16 71.8467 158.406 72.58 160.24 73.02C162.146 73.46 165.153 73.68 169.26 73.68C169.48 73.68 169.59 73.9 169.59 74.34C169.59 74.78 169.48 75 169.26 75C166.253 75 163.906 74.9633 162.22 74.89L152.65 74.78L145.39 74.89C144.07 74.9633 142.236 75 139.89 75C139.743 75 139.67 74.78 139.67 74.34C139.67 73.9 139.743 73.68 139.89 73.68C142.75 73.68 144.84 73.4967 146.16 73.13C147.553 72.7633 148.47 72.0667 148.91 71.04C149.423 69.94 149.68 68.29 149.68 66.09V15.16C149.68 12.96 149.423 11.3467 148.91 10.32C148.47 9.29333 147.553 8.59666 146.16 8.22999C144.84 7.79 142.75 7.57 139.89 7.57C139.743 7.57 139.67 7.35 139.67 6.91C139.67 6.47 139.743 6.25 139.89 6.25L145.28 6.36C148.36 6.50666 150.78 6.58 152.54 6.58C154.3 6.58 156.316 6.47 158.59 6.25C164.31 6.03 167.426 5.92 167.94 5.92C174.393 5.92 179.636 7.42333 183.67 10.43C187.703 13.3633 189.72 17.8733 189.72 23.96C189.72 28.8733 188.51 33.0167 186.09 36.39C183.67 39.69 180.59 42.1467 176.85 43.76C173.183 45.3733 169.37 46.18 165.41 46.18C163.21 46.18 161.413 45.9967 160.02 45.63C159.8 45.63 159.69 45.4467 159.69 45.08C159.69 44.86 159.726 44.64 159.8 44.42C159.946 44.2 160.093 44.1267 160.24 44.2C161.413 44.4933 162.733 44.64 164.2 44.64C169.406 44.64 173.806 43.0633 177.4 39.91C181.066 36.7567 182.9 32.1733 182.9 26.16C182.9 22.2733 182.13 18.9367 180.59 16.15C179.05 13.29 176.923 11.1267 174.21 9.66C171.57 8.12 168.636 7.35 165.41 7.35C162.403 7.35 160.276 7.49667 159.03 7.79C157.783 8.08333 156.866 8.78 156.28 9.88C155.766 10.9067 155.51 12.74 155.51 15.38V65.65ZM274.974 73.68C275.194 73.68 275.304 73.9 275.304 74.34C275.304 74.78 275.194 75 274.974 75C272.701 75 270.867 74.9633 269.474 74.89L261.884 74.78L253.854 74.89C252.534 74.9633 250.811 75 248.684 75C248.464 75 248.354 74.78 248.354 74.34C248.354 73.9 248.464 73.68 248.684 73.68C251.544 73.68 253.634 73.4967 254.954 73.13C256.274 72.7633 257.154 72.0667 257.594 71.04C258.034 70.0133 258.254 68.3633 258.254 66.09V15.38L210.954 75.99C210.734 76.2833 210.294 76.43 209.634 76.43C208.534 76.43 207.984 76.1733 207.984 75.66V15.16C207.984 12.96 207.727 11.3467 207.214 10.32C206.774 9.29333 205.857 8.59666 204.464 8.22999C203.144 7.79 201.091 7.57 198.304 7.57C198.157 7.57 198.084 7.35 198.084 6.91C198.084 6.47 198.157 6.25 198.304 6.25L204.024 6.36C207.104 6.50666 209.597 6.58 211.504 6.58C213.631 6.58 216.307 6.50666 219.534 6.36L224.704 6.25C224.924 6.25 225.034 6.47 225.034 6.91C225.034 7.35 224.924 7.57 224.704 7.57C221.844 7.57 219.754 7.79 218.434 8.22999C217.114 8.59666 216.234 9.29333 215.794 10.32C215.354 11.3467 215.134 12.96 215.134 15.16V66.53L262.544 5.69999C262.764 5.48 263.167 5.37 263.754 5.37C264.854 5.37 265.404 5.62666 265.404 6.13999V66.09C265.404 68.29 265.624 69.94 266.064 71.04C266.577 72.0667 267.494 72.7633 268.814 73.13C270.134 73.4967 272.187 73.68 274.974 73.68ZM357.865 38.7C357.865 43.54 356.435 48.0133 353.575 52.12C350.715 56.1533 346.682 59.4533 341.475 62.02C336.342 64.5867 330.475 66.1267 323.875 66.64V71.48C323.875 73.1667 324.168 74.4867 324.755 75.44C325.342 76.3933 326.515 77.09 328.275 77.53C330.035 77.97 332.675 78.19 336.195 78.19C336.415 78.19 336.525 78.41 336.525 78.85C336.525 79.29 336.415 79.51 336.195 79.51C333.628 79.51 331.575 79.4733 330.035 79.4L320.795 79.29L311.775 79.4C310.235 79.4733 308.145 79.51 305.505 79.51C305.285 79.51 305.175 79.29 305.175 78.85C305.175 78.41 305.285 78.19 305.505 78.19C308.952 78.19 311.555 77.97 313.315 77.53C315.148 77.09 316.358 76.3933 316.945 75.44C317.605 74.4867 317.935 73.1667 317.935 71.48V66.75C311.042 66.6033 305.065 65.2833 300.005 62.79C294.945 60.2967 291.058 57.0333 288.345 53C285.705 48.8933 284.385 44.3467 284.385 39.36C284.385 33.86 285.925 29.0933 289.005 25.06C292.085 21.0267 296.155 17.91 301.215 15.71C306.275 13.4367 311.848 12.08 317.935 11.64V8.77999C317.935 6.72666 317.605 5.22333 316.945 4.27C316.358 3.24333 315.185 2.54666 313.425 2.17999C311.738 1.81333 309.098 1.62999 305.505 1.62999C305.285 1.62999 305.175 1.44666 305.175 1.07999C305.175 0.639996 305.285 0.419996 305.505 0.419996C308.145 0.419996 310.235 0.456663 311.775 0.529995L320.795 0.639994L330.145 0.529995C331.685 0.456663 333.702 0.419996 336.195 0.419996C336.415 0.419996 336.525 0.639996 336.525 1.07999C336.525 1.44666 336.415 1.62999 336.195 1.62999C332.675 1.62999 330.035 1.85 328.275 2.29C326.588 2.65666 325.415 3.35333 324.755 4.38C324.168 5.40666 323.875 6.94666 323.875 9V11.42C330.988 11.5667 337.112 12.96 342.245 15.6C347.378 18.1667 351.265 21.5033 353.905 25.61C356.545 29.7167 357.865 34.08 357.865 38.7ZM350.825 39.25C350.825 31.9167 348.515 25.7933 343.895 20.88C339.348 15.9667 332.675 13.29 323.875 12.85V65.1C331.942 64.5867 338.432 62.0567 343.345 57.51C348.332 52.9633 350.825 46.8767 350.825 39.25ZM291.425 38.48C291.425 43.1 292.415 47.39 294.395 51.35C296.448 55.2367 299.455 58.4267 303.415 60.92C307.375 63.34 312.215 64.7333 317.935 65.1V12.85C309.502 13.3633 302.975 15.93 298.355 20.55C293.735 25.17 291.425 31.1467 291.425 38.48ZM396.434 36.17C403.181 36.17 408.461 37.5267 412.274 40.24C416.161 42.9533 418.104 47.61 418.104 54.21C418.104 58.39 417.187 62.0933 415.354 65.32C413.594 68.5467 411.064 71.04 407.764 72.8C404.537 74.56 400.797 75.44 396.544 75.44C394.637 75.44 392.364 75.33 389.724 75.11C388.624 75.0367 387.304 74.9633 385.764 74.89C384.297 74.8167 382.647 74.78 380.814 74.78L373.554 74.89C372.234 74.9633 370.401 75 368.054 75C367.907 75 367.834 74.78 367.834 74.34C367.834 73.9 367.907 73.68 368.054 73.68C370.987 73.68 373.114 73.4967 374.434 73.13C375.827 72.7633 376.781 72.0667 377.294 71.04C377.807 69.94 378.064 68.29 378.064 66.09V15.16C378.064 12.96 377.807 11.3467 377.294 10.32C376.854 9.29333 375.937 8.59666 374.544 8.22999C373.224 7.79 371.134 7.57 368.274 7.57C368.054 7.57 367.944 7.35 367.944 6.91C367.944 6.47 368.054 6.25 368.274 6.25L373.444 6.36C376.524 6.50666 378.944 6.58 380.704 6.58C382.831 6.58 385.434 6.50666 388.514 6.36L393.574 6.25C393.794 6.25 393.904 6.47 393.904 6.91C393.904 7.35 393.794 7.57 393.574 7.57C390.714 7.57 388.587 7.79 387.194 8.22999C385.874 8.67 384.957 9.44 384.444 10.54C384.004 11.5667 383.784 13.18 383.784 15.38V37.49C388.404 36.61 392.621 36.17 396.434 36.17ZM450.444 73.68C450.591 73.68 450.664 73.9 450.664 74.34C450.664 74.78 450.591 75 450.444 75C448.244 75 446.521 74.9633 445.274 74.89L437.574 74.78L430.204 74.89C428.884 74.9633 427.087 75 424.814 75C424.594 75 424.484 74.78 424.484 74.34C424.484 73.9 424.594 73.68 424.814 73.68C427.674 73.68 429.764 73.4967 431.084 73.13C432.477 72.7633 433.431 72.0667 433.944 71.04C434.457 69.94 434.714 68.29 434.714 66.09V15.16C434.714 12.96 434.457 11.3467 433.944 10.32C433.431 9.29333 432.477 8.59666 431.084 8.22999C429.764 7.79 427.674 7.57 424.814 7.57C424.594 7.57 424.484 7.35 424.484 6.91C424.484 6.47 424.594 6.25 424.814 6.25L430.204 6.36C433.284 6.50666 435.741 6.58 437.574 6.58C439.627 6.58 442.194 6.50666 445.274 6.36L450.444 6.25C450.591 6.25 450.664 6.47 450.664 6.91C450.664 7.35 450.591 7.57 450.444 7.57C447.584 7.57 445.457 7.79 444.064 8.22999C442.744 8.67 441.827 9.44 441.314 10.54C440.874 11.5667 440.654 13.18 440.654 15.38V66.09C440.654 68.3633 440.874 70.0133 441.314 71.04C441.827 72.0667 442.744 72.7633 444.064 73.13C445.384 73.4967 447.511 73.68 450.444 73.68ZM394.344 73.68C400.431 73.68 404.831 72.3233 407.544 69.61C410.331 66.8967 411.724 62.7167 411.724 57.07C411.724 50.25 410.147 45.41 406.994 42.55C403.914 39.6167 399.587 38.15 394.014 38.15C390.934 38.15 387.524 38.59 383.784 39.47V66.09C383.784 68.73 384.481 70.6733 385.874 71.92C387.267 73.0933 390.091 73.68 394.344 73.68ZM564.533 30.01C564.459 31.2567 564.349 32.43 564.203 33.53C564.129 34.63 563.946 35.6933 563.653 36.72C561.306 45.1533 555.183 54.0633 545.283 63.45C540.076 68.29 534.393 72.1767 528.233 75.11C521.266 78.5567 514.629 80.2067 508.323 80.06C503.043 79.9133 498.606 78.6667 495.013 76.32C490.833 73.46 488.743 69.5 488.743 64.44C488.743 57.4 492.739 49.1133 500.733 39.58C501.979 38.1133 503.593 36.4267 505.573 34.52C507.553 32.6133 509.899 30.5233 512.613 28.25C517.966 23.63 521.486 21.1 523.173 20.66C523.539 20.5133 523.796 20.5133 523.943 20.66C524.016 20.7333 523.979 20.9533 523.833 21.32C520.973 22.86 517.269 25.7933 512.723 30.12C508.176 34.4467 504.766 38.1867 502.493 41.34C497.286 48.4533 494.609 55.4567 494.463 62.35C494.463 67.0433 496.003 70.7833 499.083 73.57C502.163 76.2833 506.049 77.7133 510.743 77.86C516.096 77.9333 522.073 76.3933 528.673 73.24C534.686 70.3067 539.819 66.75 544.073 62.57C548.106 58.61 551.516 54.1367 554.303 49.15C556.356 45.5567 557.713 42.2567 558.373 39.25C559.253 35.6567 559.693 32.7233 559.693 30.45C559.619 26.1967 558.409 22.6767 556.063 19.89C553.789 17.03 550.563 15.5633 546.383 15.49C541.543 15.4167 537.693 16.6633 534.833 19.23C532.119 21.7233 530.763 24.4733 530.763 27.48C530.763 29.46 531.276 31.0367 532.303 32.21C528.563 32.1367 526.693 30.5967 526.693 27.59C526.693 26.4167 527.353 24.9867 528.673 23.3C533.806 17.0667 540.479 13.95 548.693 13.95C553.239 13.95 556.979 15.2333 559.913 17.8C563.066 20.66 564.606 24.73 564.533 30.01ZM588.739 36.17C596.805 36.17 603.039 37.5267 607.439 40.24C611.912 42.9533 614.149 47.61 614.149 54.21C614.149 58.39 613.232 62.0933 611.399 65.32C609.639 68.5467 607.109 71.04 603.809 72.8C600.582 74.56 596.842 75.44 592.589 75.44C590.682 75.44 588.409 75.33 585.769 75.11C584.669 75.0367 583.349 74.9633 581.809 74.89C580.342 74.8167 578.692 74.78 576.859 74.78L569.599 74.89C568.279 74.9633 566.445 75 564.099 75C563.952 75 563.879 74.78 563.879 74.34C563.879 73.9 563.952 73.68 564.099 73.68C567.032 73.68 569.159 73.4967 570.479 73.13C571.872 72.7633 572.825 72.0667 573.339 71.04C573.852 69.94 574.109 68.29 574.109 66.09V15.16C574.109 12.96 573.852 11.3467 573.339 10.32C572.899 9.29333 571.982 8.59666 570.589 8.22999C569.269 7.79 567.179 7.57 564.319 7.57C564.099 7.57 563.989 7.35 563.989 6.91C563.989 6.47 564.099 6.25 564.319 6.25H606.889C607.255 6.25 607.475 6.32333 607.549 6.47C607.695 6.61666 607.805 6.87333 607.879 7.23999L609.419 20.55C609.419 20.77 609.199 20.9167 608.759 20.99C608.392 20.99 608.172 20.88 608.099 20.66C607.512 16.92 606.155 13.95 604.029 11.75C601.902 9.47666 599.262 8.34 596.109 8.34H589.399C586.612 8.34 584.559 8.52333 583.239 8.89C581.919 9.25667 581.002 9.95333 580.489 10.98C580.049 12.0067 579.829 13.62 579.829 15.82V36.61C582.542 36.3167 585.512 36.17 588.739 36.17ZM590.389 73.68C596.475 73.68 600.875 72.3233 603.589 69.61C606.375 66.8967 607.769 62.7167 607.769 57.07C607.769 50.25 605.935 45.41 602.269 42.55C598.675 39.6167 593.432 38.15 586.539 38.15C585.145 38.15 582.909 38.2967 579.829 38.59V66.09C579.829 68.73 580.525 70.6733 581.919 71.92C583.312 73.0933 586.135 73.68 590.389 73.68ZM686.95 6.25C687.097 6.25 687.17 6.47 687.17 6.91C687.17 7.35 687.097 7.57 686.95 7.57C683.283 7.57 680.167 10.1 677.6 15.16L656.7 59.38C654.72 63.7067 653.51 66.3467 653.07 67.3C651.897 70.0133 651.053 71.8467 650.54 72.8C650.027 73.68 649.477 74.2667 648.89 74.56C648.377 74.8533 647.57 75 646.47 75H630.85C630.63 75 630.52 74.78 630.52 74.34C630.52 73.9 630.63 73.68 630.85 73.68C636.35 73.68 640.897 72.6533 644.49 70.6C648.157 68.4733 651.273 64.8067 653.84 59.6L630.3 15.38C628.76 12.4467 627.293 10.43 625.9 9.33C624.58 8.15666 622.82 7.57 620.62 7.57C620.473 7.57 620.4 7.35 620.4 6.91C620.4 6.47 620.473 6.25 620.62 6.25L625.35 6.36C627.55 6.50666 629.127 6.58 630.08 6.58C632.207 6.58 634.737 6.50666 637.67 6.36L642.4 6.25C642.62 6.25 642.73 6.47 642.73 6.91C642.73 7.35 642.62 7.57 642.4 7.57C637.853 7.57 635.58 8.74333 635.58 11.09C635.58 11.97 635.91 13.0333 636.57 14.28L657.25 52.45L675.29 14.5C675.95 13.18 676.28 12.08 676.28 11.2C676.28 9.95333 675.547 9.03667 674.08 8.45C672.687 7.86333 670.45 7.57 667.37 7.57C667.15 7.57 667.04 7.35 667.04 6.91C667.04 6.47 667.15 6.25 667.37 6.25L671.77 6.36C674.263 6.50666 676.5 6.58 678.48 6.58C679.653 6.58 681.12 6.50666 682.88 6.36L686.95 6.25ZM751.124 73.68C751.344 73.68 751.454 73.9 751.454 74.34C751.454 74.78 751.344 75 751.124 75C748.924 75 747.164 74.9633 745.844 74.89L738.364 74.78L730.884 74.89C729.637 74.9633 727.914 75 725.714 75C725.494 75 725.384 74.78 725.384 74.34C725.384 73.9 725.494 73.68 725.714 73.68C728.647 73.68 730.774 73.4967 732.094 73.13C733.414 72.7633 734.294 72.0667 734.734 71.04C735.174 70.0133 735.394 68.3633 735.394 66.09V40.79C729.087 45.5567 722.524 47.94 715.704 47.94C709.764 47.94 704.997 46.3633 701.404 43.21C697.884 39.9833 696.124 35.62 696.124 30.12V15.16C696.124 12.96 695.867 11.3467 695.354 10.32C694.914 9.29333 693.997 8.59666 692.604 8.22999C691.284 7.79 689.194 7.57 686.334 7.57C686.114 7.57 686.004 7.35 686.004 6.91C686.004 6.47 686.114 6.25 686.334 6.25L691.614 6.36C694.547 6.50666 696.967 6.58 698.874 6.58C700.707 6.58 703.017 6.50666 705.804 6.36L710.314 6.25C710.534 6.25 710.644 6.47 710.644 6.91C710.644 7.35 710.534 7.57 710.314 7.57C707.894 7.57 706.097 7.79 704.924 8.22999C703.75 8.67 702.944 9.44 702.504 10.54C702.064 11.5667 701.844 13.18 701.844 15.38V26.27C701.844 32.5033 703.274 37.2333 706.134 40.46C708.994 43.6867 713.064 45.3 718.344 45.3C724.137 45.3 729.82 43.2833 735.394 39.25V15.38C735.394 13.18 735.174 11.5667 734.734 10.54C734.367 9.44 733.597 8.67 732.424 8.22999C731.25 7.79 729.417 7.57 726.924 7.57C726.777 7.57 726.704 7.35 726.704 6.91C726.704 6.47 726.777 6.25 726.924 6.25L731.544 6.36C734.33 6.50666 736.604 6.58 738.364 6.58C740.27 6.58 742.764 6.50666 745.844 6.36L751.124 6.25C751.344 6.25 751.454 6.47 751.454 6.91C751.454 7.35 751.344 7.57 751.124 7.57C748.264 7.57 746.137 7.79 744.744 8.22999C743.424 8.59666 742.507 9.29333 741.994 10.32C741.48 11.3467 741.224 12.96 741.224 15.16V66.09C741.224 68.29 741.48 69.94 741.994 71.04C742.507 72.0667 743.424 72.7633 744.744 73.13C746.137 73.4967 748.264 73.68 751.124 73.68ZM807.004 58.94C807.004 58.72 807.224 58.6467 807.664 58.72C808.104 58.72 808.324 58.83 808.324 59.05C807.664 63.67 807.334 68.4367 807.334 73.35C807.334 73.9367 807.187 74.3767 806.894 74.67C806.674 74.89 806.234 75 805.574 75H760.144C759.997 75 759.924 74.78 759.924 74.34C759.924 73.9 759.997 73.68 760.144 73.68C763.004 73.68 765.094 73.4967 766.414 73.13C767.807 72.7633 768.724 72.0667 769.164 71.04C769.677 69.94 769.934 68.29 769.934 66.09V15.16C769.934 12.96 769.677 11.3467 769.164 10.32C768.724 9.29333 767.807 8.59666 766.414 8.22999C765.094 7.79 763.004 7.57 760.144 7.57C759.997 7.57 759.924 7.35 759.924 6.91C759.924 6.47 759.997 6.25 760.144 6.25H803.704C804.364 6.25 804.694 6.58 804.694 7.23999L804.914 20.55C804.914 20.77 804.694 20.88 804.254 20.88C803.887 20.88 803.704 20.77 803.704 20.55C803.704 16.81 802.714 13.84 800.734 11.64C798.754 9.44 796.15 8.34 792.924 8.34H785.334C782.547 8.34 780.494 8.52333 779.174 8.89C777.854 9.25667 776.937 9.95333 776.424 10.98C775.984 12.0067 775.764 13.62 775.764 15.82V38.15H790.284C793.657 38.15 796.004 37.6 797.324 36.5C798.644 35.3267 799.304 33.3467 799.304 30.56C799.304 30.4133 799.524 30.34 799.964 30.34C800.404 30.34 800.624 30.4133 800.624 30.56L800.514 39.25C800.514 41.3767 800.55 42.9533 800.624 43.98L800.734 49.15C800.734 49.2967 800.514 49.37 800.074 49.37C799.634 49.37 799.414 49.2967 799.414 49.15C799.414 45.85 798.717 43.54 797.324 42.22C795.93 40.9 793.474 40.24 789.954 40.24H775.764V65.65C775.764 67.7767 775.984 69.3533 776.424 70.38C776.937 71.3333 777.817 71.9933 779.064 72.36C780.384 72.7267 782.474 72.91 785.334 72.91H795.454C798.387 72.91 800.88 71.6267 802.934 69.06C805.06 66.4933 806.417 63.12 807.004 58.94ZM893.156 73.68C893.376 73.68 893.486 73.9 893.486 74.34C893.486 74.78 893.376 75 893.156 75C890.883 75 889.123 74.9633 887.876 74.89L880.506 74.78L872.916 74.89C871.669 74.9633 869.946 75 867.746 75C867.526 75 867.416 74.78 867.416 74.34C867.416 73.9 867.526 73.68 867.746 73.68C870.679 73.68 872.806 73.4967 874.126 73.13C875.446 72.7633 876.326 72.0667 876.766 71.04C877.279 70.0133 877.536 68.3633 877.536 66.09V40.24H833.646V66.09C833.646 68.3633 833.866 70.0133 834.306 71.04C834.819 72.0667 835.736 72.7633 837.056 73.13C838.376 73.4967 840.503 73.68 843.436 73.68C843.583 73.68 843.656 73.9 843.656 74.34C843.656 74.78 843.583 75 843.436 75C841.236 75 839.476 74.9633 838.156 74.89L830.676 74.78L823.416 74.89C822.096 74.9633 820.263 75 817.916 75C817.769 75 817.696 74.78 817.696 74.34C817.696 73.9 817.769 73.68 817.916 73.68C820.776 73.68 822.866 73.4967 824.186 73.13C825.579 72.7633 826.533 72.0667 827.046 71.04C827.559 69.94 827.816 68.29 827.816 66.09V15.16C827.816 12.96 827.559 11.3467 827.046 10.32C826.606 9.29333 825.689 8.59666 824.296 8.22999C822.976 7.79 820.886 7.57 818.026 7.57C817.879 7.57 817.806 7.35 817.806 6.91C817.806 6.47 817.879 6.25 818.026 6.25L823.416 6.36C826.496 6.50666 828.916 6.58 830.676 6.58C832.656 6.58 835.186 6.50666 838.266 6.36L843.436 6.25C843.583 6.25 843.656 6.47 843.656 6.91C843.656 7.35 843.583 7.57 843.436 7.57C840.576 7.57 838.449 7.79 837.056 8.22999C835.736 8.67 834.819 9.44 834.306 10.54C833.866 11.5667 833.646 13.18 833.646 15.38V38.15H877.536V15.38C877.536 13.18 877.279 11.5667 876.766 10.54C876.326 9.44 875.409 8.67 874.016 8.22999C872.696 7.79 870.606 7.57 867.746 7.57C867.526 7.57 867.416 7.35 867.416 6.91C867.416 6.47 867.526 6.25 867.746 6.25L872.916 6.36C875.996 6.50666 878.526 6.58 880.506 6.58C882.339 6.58 884.796 6.50666 887.876 6.36L893.156 6.25C893.376 6.25 893.486 6.47 893.486 6.91C893.486 7.35 893.376 7.57 893.156 7.57C890.296 7.57 888.169 7.79 886.776 8.22999C885.456 8.59666 884.539 9.29333 884.026 10.32C883.513 11.3467 883.256 12.96 883.256 15.16V66.09C883.256 68.29 883.513 69.94 884.026 71.04C884.539 72.0667 885.456 72.7633 886.776 73.13C888.169 73.4967 890.296 73.68 893.156 73.68ZM977.835 73.68C978.055 73.68 978.165 73.9 978.165 74.34C978.165 74.78 978.055 75 977.835 75C975.635 75 973.875 74.9633 972.555 74.89L965.075 74.78L957.595 74.89C956.349 74.9633 954.625 75 952.425 75C952.205 75 952.095 74.78 952.095 74.34C952.095 73.9 952.205 73.68 952.425 73.68C955.359 73.68 957.485 73.4967 958.805 73.13C960.125 72.7633 961.005 72.0667 961.445 71.04C961.885 70.0133 962.105 68.3633 962.105 66.09V14.06L913.925 75.99C913.705 76.2833 913.302 76.43 912.715 76.43C911.689 76.43 911.175 76.1733 911.175 75.66V15.16C911.175 12.96 910.919 11.3467 910.405 10.32C909.892 9.29333 908.939 8.59666 907.545 8.22999C906.225 7.79 904.135 7.57 901.275 7.57C901.129 7.57 901.055 7.35 901.055 6.91C901.055 6.47 901.129 6.25 901.275 6.25L906.775 6.36C909.709 6.50666 912.129 6.58 914.035 6.58C916.089 6.58 918.582 6.50666 921.515 6.36L926.795 6.25C926.942 6.25 927.015 6.47 927.015 6.91C927.015 7.35 926.942 7.57 926.795 7.57C923.862 7.57 921.735 7.79 920.415 8.22999C919.095 8.59666 918.179 9.29333 917.665 10.32C917.225 11.3467 917.005 12.96 917.005 15.16V68.07L965.295 5.81C965.515 5.51667 965.882 5.37 966.395 5.37C966.762 5.37 967.092 5.44333 967.385 5.59C967.752 5.73666 967.935 5.92 967.935 6.13999V66.09C967.935 68.29 968.192 69.94 968.705 71.04C969.219 72.0667 970.135 72.7633 971.455 73.13C972.849 73.4967 974.975 73.68 977.835 73.68ZM1042.46 73.68C1042.61 73.68 1042.68 73.9 1042.68 74.34C1042.68 74.78 1042.61 75 1042.46 75C1040.12 75 1038.28 74.9633 1036.96 74.89L1029.7 74.78L1022.22 74.89C1020.9 74.9633 1019.14 75 1016.94 75C1016.8 75 1016.72 74.78 1016.72 74.34C1016.72 73.9 1016.8 73.68 1016.94 73.68C1019.88 73.68 1022 73.4967 1023.32 73.13C1024.64 72.7633 1025.52 72.0667 1025.96 71.04C1026.48 70.0133 1026.73 68.3633 1026.73 66.09V39.36C1024.09 39.4333 1021.86 39.91 1020.02 40.79C1018.26 41.67 1016.39 43.32 1014.41 45.74C1012.43 48.0867 1010.01 51.68 1007.15 56.52C1003.56 62.68 1000.77 67.08 998.794 69.72C996.887 72.36 995.494 73.9 994.614 74.34C993.807 74.78 992.781 75 991.534 75H980.974C980.754 75 980.644 74.78 980.644 74.34C980.644 73.9 980.754 73.68 980.974 73.68C985.007 73.6067 988.564 72.0667 991.644 69.06C994.724 66.0533 998.134 61.14 1001.87 54.32C1004.59 49.48 1007.04 45.96 1009.24 43.76C1011.44 41.56 1013.97 40.0933 1016.83 39.36C1010.6 38.8467 1005.83 37.1233 1002.53 34.19C999.307 31.2567 997.694 27.48 997.694 22.86C997.694 19.56 998.537 16.6267 1000.22 14.06C1001.91 11.4933 1004.18 9.51333 1007.04 8.12C1009.98 6.65333 1013.28 5.92 1016.94 5.92C1018.63 5.92 1020.57 6.03 1022.77 6.25C1023.65 6.32333 1024.68 6.39666 1025.85 6.47C1027.03 6.54333 1028.31 6.58 1029.7 6.58C1031.46 6.58 1033.88 6.50666 1036.96 6.36L1042.35 6.25C1042.5 6.25 1042.57 6.47 1042.57 6.91C1042.57 7.35 1042.5 7.57 1042.35 7.57C1039.49 7.57 1037.37 7.79 1035.97 8.22999C1034.65 8.59666 1033.74 9.29333 1033.22 10.32C1032.78 11.3467 1032.56 12.96 1032.56 15.16V66.09C1032.56 68.29 1032.82 69.94 1033.33 71.04C1033.85 72.0667 1034.76 72.7633 1036.08 73.13C1037.48 73.4967 1039.6 73.68 1042.46 73.68ZM1003.85 20.11C1003.85 25.4633 1005.39 29.79 1008.47 33.09C1011.63 36.3167 1016.14 37.93 1022 37.93C1023.62 37.93 1025.19 37.82 1026.73 37.6V15.38C1026.73 12.4467 1025.78 10.3933 1023.87 9.21999C1022.04 7.97333 1019.69 7.35 1016.83 7.35C1008.18 7.35 1003.85 11.6033 1003.85 20.11Z" fill="#353535"/>
</svg>
