<svg width="1047" height="78" viewBox="0 0 1047 78" fill="none" xmlns="http://www.w3.org/2000/svg">
<path d="M77.5786 70.68C77.7986 70.68 77.9086 70.9 77.9086 71.34C77.9086 71.78 77.7986 72 77.5786 72C75.3786 72 73.6186 71.9633 72.2986 71.89L64.8186 71.78L57.3386 71.89C56.0919 71.9633 54.3686 72 52.1686 72C51.9486 72 51.8386 71.78 51.8386 71.34C51.8386 70.9 51.9486 70.68 52.1686 70.68C55.1019 70.68 57.2286 70.4967 58.5486 70.13C59.8686 69.7633 60.7486 69.0667 61.1886 68.04C61.6286 67.0133 61.8486 65.3633 61.8486 63.09V11.06L13.6686 72.99C13.4486 73.2833 13.0453 73.43 12.4586 73.43C11.4319 73.43 10.9186 73.1733 10.9186 72.66V12.16C10.9186 9.96 10.6619 8.34667 10.1486 7.32C9.63526 6.29333 8.68193 5.59666 7.28859 5.22999C5.96859 4.79 3.87859 4.57 1.01859 4.57C0.871927 4.57 0.798594 4.35 0.798594 3.91C0.798594 3.47 0.871927 3.25 1.01859 3.25L6.51859 3.36C9.45193 3.50666 11.8719 3.58 13.7786 3.58C15.8319 3.58 18.3253 3.50666 21.2586 3.36L26.5386 3.25C26.6853 3.25 26.7586 3.47 26.7586 3.91C26.7586 4.35 26.6853 4.57 26.5386 4.57C23.6053 4.57 21.4786 4.79 20.1586 5.22999C18.8386 5.59666 17.9219 6.29333 17.4086 7.32C16.9686 8.34667 16.7486 9.96 16.7486 12.16V65.07L65.0386 2.81C65.2586 2.51667 65.6253 2.37 66.1386 2.37C66.5053 2.37 66.8353 2.44333 67.1286 2.59C67.4953 2.73666 67.6786 2.92 67.6786 3.13999V63.09C67.6786 65.29 67.9353 66.94 68.4486 68.04C68.9619 69.0667 69.8786 69.7633 71.1986 70.13C72.5919 70.4967 74.7186 70.68 77.5786 70.68ZM127.137 2.04C130.73 2.04 134.324 2.40666 137.917 3.13999C141.584 3.87333 144.517 4.86333 146.717 6.11C147.304 6.47666 147.67 6.84333 147.817 7.20999C148.037 7.50333 148.184 8.01666 148.257 8.74999L149.467 20.3C149.467 20.52 149.284 20.6667 148.917 20.74C148.55 20.74 148.33 20.63 148.257 20.41C145.617 9.70333 137.147 4.35 122.847 4.35C117.127 4.35 112.067 5.59666 107.667 8.09C103.34 10.51 99.967 13.9567 97.547 18.43C95.127 22.9033 93.917 28.0733 93.917 33.94C93.917 40.8333 95.4204 47.2133 98.427 53.08C101.434 58.8733 105.43 63.4933 110.417 66.94C115.404 70.3133 120.794 72 126.587 72C132.014 72 136.67 70.57 140.557 67.71C144.517 64.85 147.414 60.4867 149.247 54.62C149.247 54.4 149.394 54.29 149.687 54.29C149.907 54.29 150.09 54.3267 150.237 54.4C150.457 54.4733 150.567 54.5833 150.567 54.73L149.027 66.5C148.88 67.38 148.697 67.9667 148.477 68.26C148.33 68.48 147.927 68.7367 147.267 69.03C140.74 71.89 133.737 73.32 126.257 73.32C117.457 73.32 110.124 71.56 104.257 68.04C98.3904 64.4467 94.0637 59.9 91.277 54.4C88.4904 48.8267 87.097 42.9967 87.097 36.91C87.097 30.2367 88.967 24.26 92.707 18.98C96.447 13.6267 101.397 9.48333 107.557 6.55C113.717 3.54333 120.244 2.04 127.137 2.04ZM175.091 5.12C170.471 5.12 167.098 6.22 164.971 8.42C162.844 10.62 161.414 14.5433 160.681 20.19C160.681 20.3367 160.461 20.41 160.021 20.41C159.581 20.41 159.361 20.3367 159.361 20.19C159.654 18.21 159.984 15.0567 160.351 10.73C160.718 6.33 160.901 3.03 160.901 0.829998C160.901 0.463332 161.121 0.279999 161.561 0.279999C162.001 0.279999 162.221 0.463332 162.221 0.829998C162.221 2.44333 164.164 3.25 168.051 3.25C174.358 3.47 181.728 3.58 190.161 3.58C194.488 3.58 199.071 3.50666 203.911 3.36L211.391 3.25C214.031 3.25 215.974 3.06666 217.221 2.69999C218.468 2.33333 219.274 1.6 219.641 0.499996C219.714 0.206662 219.934 0.0599952 220.301 0.0599952C220.668 0.0599952 220.851 0.206662 220.851 0.499996C220.631 2.55333 220.411 5.70666 220.191 9.96C219.971 14.14 219.861 17.55 219.861 20.19C219.861 20.3367 219.641 20.41 219.201 20.41C218.761 20.41 218.541 20.3367 218.541 20.19C218.541 16.3033 218.138 13.2967 217.331 11.17C216.524 9.04333 215.168 7.50333 213.261 6.55C211.354 5.59666 208.678 5.12 205.231 5.12C201.418 5.12 198.741 5.26666 197.201 5.56C195.661 5.78 194.598 6.36667 194.011 7.32C193.498 8.27333 193.241 9.95999 193.241 12.38V63.09C193.241 65.3633 193.498 67.0133 194.011 68.04C194.524 69.0667 195.551 69.7633 197.091 70.13C198.631 70.4967 201.051 70.68 204.351 70.68C204.498 70.68 204.571 70.9 204.571 71.34C204.571 71.78 204.498 72 204.351 72C201.931 72 200.024 71.9633 198.631 71.89L190.161 71.78L182.131 71.89C180.664 71.9633 178.648 72 176.081 72C175.934 72 175.861 71.78 175.861 71.34C175.861 70.9 175.934 70.68 176.081 70.68C179.381 70.68 181.801 70.4967 183.341 70.13C184.881 69.7633 185.908 69.0667 186.421 68.04C187.008 66.94 187.301 65.29 187.301 63.09V12.16C187.301 9.74 187.008 8.09 186.421 7.20999C185.834 6.25666 184.771 5.67 183.231 5.45C181.764 5.23 179.051 5.12 175.091 5.12ZM307.733 27.01C307.66 28.2567 307.55 29.43 307.403 30.53C307.33 31.63 307.146 32.6933 306.853 33.72C304.506 42.1533 298.383 51.0633 288.483 60.45C283.276 65.29 277.593 69.1767 271.433 72.11C264.466 75.5567 257.83 77.2067 251.523 77.06C246.243 76.9133 241.806 75.6667 238.213 73.32C234.033 70.46 231.943 66.5 231.943 61.44C231.943 54.4 235.94 46.1133 243.933 36.58C245.18 35.1133 246.793 33.4267 248.773 31.52C250.753 29.6133 253.1 27.5233 255.813 25.25C261.166 20.63 264.686 18.1 266.373 17.66C266.74 17.5133 266.996 17.5133 267.143 17.66C267.216 17.7333 267.18 17.9533 267.033 18.32C264.173 19.86 260.47 22.7933 255.923 27.12C251.376 31.4467 247.966 35.1867 245.693 38.34C240.486 45.4533 237.81 52.4567 237.663 59.35C237.663 64.0433 239.203 67.7833 242.283 70.57C245.363 73.2833 249.25 74.7133 253.943 74.86C259.296 74.9333 265.273 73.3933 271.873 70.24C277.886 67.3067 283.02 63.75 287.273 59.57C291.306 55.61 294.716 51.1367 297.503 46.15C299.556 42.5567 300.913 39.2567 301.573 36.25C302.453 32.6567 302.893 29.7233 302.893 27.45C302.82 23.1967 301.61 19.6767 299.263 16.89C296.99 14.03 293.763 12.5633 289.583 12.49C284.743 12.4167 280.893 13.6633 278.033 16.23C275.32 18.7233 273.963 21.4733 273.963 24.48C273.963 26.46 274.476 28.0367 275.503 29.21C271.763 29.1367 269.893 27.5967 269.893 24.59C269.893 23.4167 270.553 21.9867 271.873 20.3C277.006 14.0667 283.68 10.95 291.893 10.95C296.44 10.95 300.18 12.2333 303.113 14.8C306.266 17.66 307.806 21.73 307.733 27.01ZM322.919 62.65C322.919 64.9967 323.249 66.72 323.909 67.82C324.569 68.8467 325.816 69.58 327.649 70.02C329.556 70.46 332.562 70.68 336.669 70.68C336.889 70.68 336.999 70.9 336.999 71.34C336.999 71.78 336.889 72 336.669 72C333.662 72 331.316 71.9633 329.629 71.89L320.059 71.78L312.799 71.89C311.479 71.9633 309.646 72 307.299 72C307.152 72 307.079 71.78 307.079 71.34C307.079 70.9 307.152 70.68 307.299 70.68C310.159 70.68 312.249 70.4967 313.569 70.13C314.962 69.7633 315.879 69.0667 316.319 68.04C316.832 66.94 317.089 65.29 317.089 63.09V12.16C317.089 9.96 316.832 8.34667 316.319 7.32C315.879 6.29333 314.962 5.59666 313.569 5.22999C312.249 4.79 310.159 4.57 307.299 4.57C307.152 4.57 307.079 4.35 307.079 3.91C307.079 3.47 307.152 3.25 307.299 3.25L312.689 3.36C315.769 3.50666 318.189 3.58 319.949 3.58C321.709 3.58 323.726 3.47 325.999 3.25C331.719 3.03 334.836 2.92 335.349 2.92C341.802 2.92 347.046 4.42333 351.079 7.43C355.112 10.3633 357.129 14.8733 357.129 20.96C357.129 25.8733 355.919 30.0167 353.499 33.39C351.079 36.69 347.999 39.1467 344.259 40.76C340.592 42.3733 336.779 43.18 332.819 43.18C330.619 43.18 328.822 42.9967 327.429 42.63C327.209 42.63 327.099 42.4467 327.099 42.08C327.099 41.86 327.136 41.64 327.209 41.42C327.356 41.2 327.502 41.1267 327.649 41.2C328.822 41.4933 330.142 41.64 331.609 41.64C336.816 41.64 341.216 40.0633 344.809 36.91C348.476 33.7567 350.309 29.1733 350.309 23.16C350.309 19.2733 349.539 15.9367 347.999 13.15C346.459 10.29 344.332 8.12667 341.619 6.66C338.979 5.12 336.046 4.35 332.819 4.35C329.812 4.35 327.686 4.49667 326.439 4.79C325.192 5.08333 324.276 5.78 323.689 6.88C323.176 7.90667 322.919 9.74 322.919 12.38V62.65ZM442.383 70.68C442.603 70.68 442.713 70.9 442.713 71.34C442.713 71.78 442.603 72 442.383 72C440.183 72 438.423 71.9633 437.103 71.89L429.623 71.78L422.143 71.89C420.897 71.9633 419.173 72 416.973 72C416.753 72 416.643 71.78 416.643 71.34C416.643 70.9 416.753 70.68 416.973 70.68C419.907 70.68 422.033 70.4967 423.353 70.13C424.673 69.7633 425.553 69.0667 425.993 68.04C426.433 67.0133 426.653 65.3633 426.653 63.09V11.06L378.473 72.99C378.253 73.2833 377.85 73.43 377.263 73.43C376.237 73.43 375.723 73.1733 375.723 72.66V12.16C375.723 9.96 375.467 8.34667 374.953 7.32C374.44 6.29333 373.487 5.59666 372.093 5.22999C370.773 4.79 368.683 4.57 365.823 4.57C365.677 4.57 365.603 4.35 365.603 3.91C365.603 3.47 365.677 3.25 365.823 3.25L371.323 3.36C374.257 3.50666 376.677 3.58 378.583 3.58C380.637 3.58 383.13 3.50666 386.063 3.36L391.343 3.25C391.49 3.25 391.563 3.47 391.563 3.91C391.563 4.35 391.49 4.57 391.343 4.57C388.41 4.57 386.283 4.79 384.963 5.22999C383.643 5.59666 382.727 6.29333 382.213 7.32C381.773 8.34667 381.553 9.96 381.553 12.16V65.07L429.843 2.81C430.063 2.51667 430.43 2.37 430.943 2.37C431.31 2.37 431.64 2.44333 431.933 2.59C432.3 2.73666 432.483 2.92 432.483 3.13999V63.09C432.483 65.29 432.74 66.94 433.253 68.04C433.767 69.0667 434.683 69.7633 436.003 70.13C437.397 70.4967 439.523 70.68 442.383 70.68ZM527.032 70.68C527.252 70.68 527.362 70.9 527.362 71.34C527.362 71.78 527.252 72 527.032 72C524.832 72 523.072 71.9633 521.752 71.89L514.272 71.78L506.792 71.89C505.545 71.9633 503.822 72 501.622 72C501.402 72 501.292 71.78 501.292 71.34C501.292 70.9 501.402 70.68 501.622 70.68C504.555 70.68 506.682 70.4967 508.002 70.13C509.322 69.7633 510.202 69.0667 510.642 68.04C511.082 67.0133 511.302 65.3633 511.302 63.09V11.06L463.122 72.99C462.902 73.2833 462.498 73.43 461.912 73.43C460.885 73.43 460.372 73.1733 460.372 72.66V12.16C460.372 9.96 460.115 8.34667 459.602 7.32C459.088 6.29333 458.135 5.59666 456.742 5.22999C455.422 4.79 453.332 4.57 450.472 4.57C450.325 4.57 450.252 4.35 450.252 3.91C450.252 3.47 450.325 3.25 450.472 3.25L455.972 3.36C458.905 3.50666 461.325 3.58 463.232 3.58C465.285 3.58 467.778 3.50666 470.712 3.36L475.992 3.25C476.138 3.25 476.212 3.47 476.212 3.91C476.212 4.35 476.138 4.57 475.992 4.57C473.058 4.57 470.932 4.79 469.612 5.22999C468.292 5.59666 467.375 6.29333 466.862 7.32C466.422 8.34667 466.202 9.96 466.202 12.16V65.07L514.492 2.81C514.712 2.51667 515.078 2.37 515.592 2.37C515.958 2.37 516.288 2.44333 516.582 2.59C516.948 2.73666 517.132 2.92 517.132 3.13999V63.09C517.132 65.29 517.388 66.94 517.902 68.04C518.415 69.0667 519.332 69.7633 520.652 70.13C522.045 70.4967 524.172 70.68 527.032 70.68ZM633.281 70.68C633.575 70.68 633.721 70.9 633.721 71.34C633.721 71.78 633.575 72 633.281 72C631.961 72 629.835 71.9267 626.901 71.78C624.115 71.6333 622.061 71.56 620.741 71.56C619.201 71.56 617.185 71.6333 614.691 71.78C612.345 71.9267 610.585 72 609.411 72C609.118 72 608.971 71.78 608.971 71.34C608.971 70.9 609.118 70.68 609.411 70.68C612.418 70.68 614.581 70.4233 615.901 69.91C617.221 69.3233 617.881 68.37 617.881 67.05C617.881 66.0233 617.478 64.5933 616.671 62.76L606.331 40.43H580.151L572.671 58.47C571.645 60.9633 571.131 63.0167 571.131 64.63C571.131 66.7567 572.011 68.2967 573.771 69.25C575.531 70.2033 578.281 70.68 582.021 70.68C582.388 70.68 582.571 70.9 582.571 71.34C582.571 71.78 582.388 72 582.021 72C580.701 72 578.795 71.9267 576.301 71.78C573.515 71.6333 571.095 71.56 569.041 71.56C567.208 71.56 565.045 71.6333 562.551 71.78C560.351 71.9267 558.555 72 557.161 72C556.795 72 556.611 71.78 556.611 71.34C556.611 70.9 556.795 70.68 557.161 70.68C559.215 70.68 560.938 70.3133 562.331 69.58C563.798 68.8467 565.155 67.5267 566.401 65.62C567.721 63.7133 569.115 61 570.581 57.48L593.571 2.14999C593.718 1.93 593.938 1.82 594.231 1.82C594.598 1.82 594.818 1.93 594.891 2.14999L620.411 56.93C622.098 60.67 623.601 63.53 624.921 65.51C626.241 67.4167 627.525 68.7733 628.771 69.58C630.091 70.3133 631.595 70.68 633.281 70.68ZM581.031 38.45H605.341L592.471 10.84L581.031 38.45ZM712.948 70.68C713.168 70.68 713.278 70.9 713.278 71.34C713.278 71.78 713.168 72 712.948 72C710.675 72 708.915 71.9633 707.668 71.89L700.298 71.78L692.708 71.89C691.461 71.9633 689.738 72 687.538 72C687.318 72 687.208 71.78 687.208 71.34C687.208 70.9 687.318 70.68 687.538 70.68C690.471 70.68 692.598 70.4967 693.918 70.13C695.238 69.7633 696.118 69.0667 696.558 68.04C697.071 67.0133 697.328 65.3633 697.328 63.09V37.24H653.438V63.09C653.438 65.3633 653.658 67.0133 654.098 68.04C654.611 69.0667 655.528 69.7633 656.848 70.13C658.168 70.4967 660.295 70.68 663.228 70.68C663.375 70.68 663.448 70.9 663.448 71.34C663.448 71.78 663.375 72 663.228 72C661.028 72 659.268 71.9633 657.948 71.89L650.468 71.78L643.208 71.89C641.888 71.9633 640.055 72 637.708 72C637.561 72 637.488 71.78 637.488 71.34C637.488 70.9 637.561 70.68 637.708 70.68C640.568 70.68 642.658 70.4967 643.978 70.13C645.371 69.7633 646.325 69.0667 646.838 68.04C647.351 66.94 647.608 65.29 647.608 63.09V12.16C647.608 9.96 647.351 8.34667 646.838 7.32C646.398 6.29333 645.481 5.59666 644.088 5.22999C642.768 4.79 640.678 4.57 637.818 4.57C637.671 4.57 637.598 4.35 637.598 3.91C637.598 3.47 637.671 3.25 637.818 3.25L643.208 3.36C646.288 3.50666 648.708 3.58 650.468 3.58C652.448 3.58 654.978 3.50666 658.058 3.36L663.228 3.25C663.375 3.25 663.448 3.47 663.448 3.91C663.448 4.35 663.375 4.57 663.228 4.57C660.368 4.57 658.241 4.79 656.848 5.22999C655.528 5.67 654.611 6.44 654.098 7.54C653.658 8.56666 653.438 10.18 653.438 12.38V35.15H697.328V12.38C697.328 10.18 697.071 8.56666 696.558 7.54C696.118 6.44 695.201 5.67 693.808 5.22999C692.488 4.79 690.398 4.57 687.538 4.57C687.318 4.57 687.208 4.35 687.208 3.91C687.208 3.47 687.318 3.25 687.538 3.25L692.708 3.36C695.788 3.50666 698.318 3.58 700.298 3.58C702.131 3.58 704.588 3.50666 707.668 3.36L712.948 3.25C713.168 3.25 713.278 3.47 713.278 3.91C713.278 4.35 713.168 4.57 712.948 4.57C710.088 4.57 707.961 4.79 706.568 5.22999C705.248 5.59666 704.331 6.29333 703.818 7.32C703.305 8.34667 703.048 9.96 703.048 12.16V63.09C703.048 65.29 703.305 66.94 703.818 68.04C704.331 69.0667 705.248 69.7633 706.568 70.13C707.961 70.4967 710.088 70.68 712.948 70.68ZM721.947 72C721.801 72 721.727 71.78 721.727 71.34C721.727 70.9 721.801 70.68 721.947 70.68C724.807 70.68 726.897 70.4967 728.217 70.13C729.611 69.7633 730.527 69.0667 730.967 68.04C731.481 66.94 731.737 65.29 731.737 63.09V12.16C731.737 9.96 731.481 8.34667 730.967 7.32C730.527 6.29333 729.611 5.59666 728.217 5.22999C726.897 4.79 724.807 4.57 721.947 4.57C721.801 4.57 721.727 4.35 721.727 3.91C721.727 3.47 721.801 3.25 721.947 3.25H768.037C768.771 3.25 769.137 3.58 769.137 4.23999L769.357 17.55C769.357 17.77 769.137 17.88 768.697 17.88C768.257 17.88 768.037 17.77 768.037 17.55C768.037 13.81 767.047 10.84 765.067 8.64C763.087 6.44 760.484 5.34 757.257 5.34H747.137C744.424 5.34 742.407 5.52333 741.087 5.89C739.767 6.25667 738.851 6.91667 738.337 7.87C737.824 8.82333 737.567 10.29 737.567 12.27V62.65C737.567 64.9967 737.897 66.72 738.557 67.82C739.217 68.8467 740.464 69.58 742.297 70.02C744.204 70.46 747.211 70.68 751.317 70.68C751.537 70.68 751.647 70.9 751.647 71.34C751.647 71.78 751.537 72 751.317 72C748.311 72 745.964 71.9633 744.277 71.89L734.707 71.78L727.447 71.89C726.127 71.9633 724.294 72 721.947 72ZM824.882 55.94C824.882 55.72 825.102 55.6467 825.542 55.72C825.982 55.72 826.202 55.83 826.202 56.05C825.542 60.67 825.212 65.4367 825.212 70.35C825.212 70.9367 825.065 71.3767 824.772 71.67C824.552 71.89 824.112 72 823.452 72H778.022C777.875 72 777.802 71.78 777.802 71.34C777.802 70.9 777.875 70.68 778.022 70.68C780.882 70.68 782.972 70.4967 784.292 70.13C785.685 69.7633 786.602 69.0667 787.042 68.04C787.555 66.94 787.812 65.29 787.812 63.09V12.16C787.812 9.96 787.555 8.34667 787.042 7.32C786.602 6.29333 785.685 5.59666 784.292 5.22999C782.972 4.79 780.882 4.57 778.022 4.57C777.875 4.57 777.802 4.35 777.802 3.91C777.802 3.47 777.875 3.25 778.022 3.25H821.582C822.242 3.25 822.572 3.58 822.572 4.23999L822.792 17.55C822.792 17.77 822.572 17.88 822.132 17.88C821.765 17.88 821.582 17.77 821.582 17.55C821.582 13.81 820.592 10.84 818.612 8.64C816.632 6.44 814.028 5.34 810.802 5.34H803.212C800.425 5.34 798.372 5.52333 797.052 5.89C795.732 6.25667 794.815 6.95333 794.302 7.98C793.862 9.00666 793.642 10.62 793.642 12.82V35.15H808.162C811.535 35.15 813.882 34.6 815.202 33.5C816.522 32.3267 817.182 30.3467 817.182 27.56C817.182 27.4133 817.402 27.34 817.842 27.34C818.282 27.34 818.502 27.4133 818.502 27.56L818.392 36.25C818.392 38.3767 818.428 39.9533 818.502 40.98L818.612 46.15C818.612 46.2967 818.392 46.37 817.952 46.37C817.512 46.37 817.292 46.2967 817.292 46.15C817.292 42.85 816.595 40.54 815.202 39.22C813.808 37.9 811.352 37.24 807.832 37.24H793.642V62.65C793.642 64.7767 793.862 66.3533 794.302 67.38C794.815 68.3333 795.695 68.9933 796.942 69.36C798.262 69.7267 800.352 69.91 803.212 69.91H813.332C816.265 69.91 818.758 68.6267 820.812 66.06C822.938 63.4933 824.295 60.12 824.882 55.94ZM908.174 70.68C908.467 70.68 908.614 70.9 908.614 71.34C908.614 71.78 908.467 72 908.174 72C906.854 72 904.727 71.9267 901.794 71.78C899.007 71.6333 896.954 71.56 895.634 71.56C894.094 71.56 892.077 71.6333 889.584 71.78C887.237 71.9267 885.477 72 884.304 72C884.011 72 883.864 71.78 883.864 71.34C883.864 70.9 884.011 70.68 884.304 70.68C887.311 70.68 889.474 70.4233 890.794 69.91C892.114 69.3233 892.774 68.37 892.774 67.05C892.774 66.0233 892.371 64.5933 891.564 62.76L867.364 10.84L847.564 58.47C846.537 60.9633 846.024 63.0167 846.024 64.63C846.024 66.7567 846.904 68.2967 848.664 69.25C850.424 70.2033 853.174 70.68 856.914 70.68C857.281 70.68 857.464 70.9 857.464 71.34C857.464 71.78 857.281 72 856.914 72C855.594 72 853.687 71.9267 851.194 71.78C848.407 71.6333 845.987 71.56 843.934 71.56C842.101 71.56 839.937 71.6333 837.444 71.78C835.244 71.9267 833.447 72 832.054 72C831.687 72 831.504 71.78 831.504 71.34C831.504 70.9 831.687 70.68 832.054 70.68C834.107 70.68 835.831 70.3133 837.224 69.58C838.691 68.8467 840.047 67.5267 841.294 65.62C842.614 63.7133 844.007 61 845.474 57.48L868.464 2.14999C868.611 1.93 868.831 1.82 869.124 1.82C869.491 1.82 869.711 1.93 869.784 2.14999L895.304 56.93C896.991 60.67 898.494 63.53 899.814 65.51C901.134 67.4167 902.417 68.7733 903.664 69.58C904.984 70.3133 906.487 70.68 908.174 70.68ZM947.612 73.32C940.792 73.32 934.705 71.7433 929.352 68.59C924.072 65.3633 919.965 61.0367 917.032 55.61C914.172 50.11 912.742 44.1333 912.742 37.68C912.742 30.1267 914.648 23.6733 918.462 18.32C922.275 12.8933 927.152 8.82333 933.092 6.11C939.105 3.39666 945.228 2.04 951.462 2.04C958.428 2.04 964.552 3.69 969.832 6.99C975.112 10.2167 979.145 14.5067 981.932 19.86C984.792 25.2133 986.222 30.8967 986.222 36.91C986.222 43.5833 984.462 49.7067 980.942 55.28C977.422 60.8533 972.692 65.2533 966.752 68.48C960.885 71.7067 954.505 73.32 947.612 73.32ZM951.572 71.12C956.778 71.12 961.472 69.91 965.652 67.49C969.832 65.07 973.132 61.5133 975.552 56.82C977.972 52.1267 979.182 46.5167 979.182 39.99C979.182 33.0967 977.825 26.9733 975.112 21.62C972.472 16.1933 968.695 11.9767 963.782 8.97C958.942 5.96333 953.295 4.46 946.842 4.46C938.335 4.46 931.698 7.1 926.932 12.38C922.165 17.66 919.782 24.8467 919.782 33.94C919.782 40.76 921.102 47.03 923.742 52.75C926.455 58.3967 930.232 62.87 935.072 66.17C939.912 69.47 945.412 71.12 951.572 71.12ZM1027.32 33.17C1033.04 33.5367 1037.66 35.4433 1041.18 38.89C1044.7 42.3367 1046.46 46.59 1046.46 51.65C1046.46 55.61 1045.54 59.1667 1043.71 62.32C1041.88 65.4733 1039.35 67.9667 1036.12 69.8C1032.89 71.56 1029.34 72.44 1025.45 72.44C1022.96 72.44 1020.32 72.33 1017.53 72.11C1016.5 72.0367 1015.29 71.9633 1013.9 71.89C1012.51 71.8167 1010.93 71.78 1009.17 71.78L1001.91 71.89C1000.59 71.9633 998.757 72 996.41 72C996.264 72 996.19 71.78 996.19 71.34C996.19 70.9 996.264 70.68 996.41 70.68C999.344 70.68 1001.47 70.4967 1002.79 70.13C1004.18 69.7633 1005.14 69.0667 1005.65 68.04C1006.16 66.94 1006.42 65.29 1006.42 63.09V12.16C1006.42 9.96 1006.16 8.34667 1005.65 7.32C1005.21 6.29333 1004.29 5.59666 1002.9 5.22999C1001.58 4.79 999.49 4.57 996.63 4.57C996.41 4.57 996.3 4.35 996.3 3.91C996.3 3.47 996.41 3.25 996.63 3.25L1001.91 3.36C1004.84 3.50666 1007.26 3.58 1009.17 3.58C1010.49 3.58 1011.74 3.54333 1012.91 3.47C1014.08 3.39666 1015.11 3.32333 1015.99 3.25C1018.26 3.03 1020.28 2.92 1022.04 2.92C1028.13 2.92 1032.6 4.31333 1035.46 7.1C1038.39 9.81333 1039.86 13.2967 1039.86 17.55C1039.86 21.1433 1038.72 24.2967 1036.45 27.01C1034.18 29.65 1031.13 31.7033 1027.32 33.17ZM1019.51 4.35C1017.46 4.35 1015.95 4.49667 1015 4.79C1014.05 5.08333 1013.31 5.78 1012.8 6.88C1012.36 7.98 1012.14 9.81333 1012.14 12.38V33.28L1017.31 33.39C1023.1 33.39 1027.32 32.0333 1029.96 29.32C1032.6 26.5333 1033.92 22.8667 1033.92 18.32C1033.92 14.2133 1032.75 10.8767 1030.4 8.30999C1028.13 5.67 1024.5 4.35 1019.51 4.35ZM1023.91 70.68C1029.34 70.68 1033.37 69.2867 1036.01 66.5C1038.72 63.64 1040.08 59.6067 1040.08 54.4C1040.08 48.8267 1038.36 44.3167 1034.91 40.87C1031.54 37.35 1026.95 35.5533 1021.16 35.48C1018.45 35.4067 1015.44 35.48 1012.14 35.7V63.09C1012.14 65.07 1012.43 66.61 1013.02 67.71C1013.68 68.7367 1014.85 69.5067 1016.54 70.02C1018.23 70.46 1020.68 70.68 1023.91 70.68Z" fill="#353535"/>
</svg>
