<svg width="243" height="89" viewBox="0 0 243 89" fill="none" xmlns="http://www.w3.org/2000/svg">
<path d="M29.3978 3.816C27.3818 3.816 25.9098 4.296 24.9818 5.256C24.0538 6.216 23.4298 7.928 23.1098 10.392C23.1098 10.456 23.0138 10.488 22.8218 10.488C22.6298 10.488 22.5338 10.456 22.5338 10.392C22.6618 9.528 22.8058 8.152 22.9658 6.264C23.1258 4.344 23.2058 2.904 23.2058 1.944C23.2058 1.784 23.3018 1.704 23.4938 1.704C23.6858 1.704 23.7818 1.784 23.7818 1.944C23.7818 2.648 24.6298 3 26.3258 3C29.0778 3.096 32.2938 3.144 35.9738 3.144C37.8618 3.144 39.8618 3.112 41.9738 3.048L45.2378 3C46.3898 3 47.2378 2.92 47.7818 2.76C48.3258 2.6 48.6778 2.28 48.8378 1.8C48.8698 1.672 48.9658 1.608 49.1258 1.608C49.2858 1.608 49.3658 1.672 49.3658 1.8C49.2698 2.696 49.1738 4.072 49.0778 5.928C48.9818 7.752 48.9338 9.24 48.9338 10.392C48.9338 10.456 48.8378 10.488 48.6458 10.488C48.4538 10.488 48.3578 10.456 48.3578 10.392C48.3578 8.696 48.1818 7.384 47.8298 6.456C47.4778 5.528 46.8858 4.856 46.0538 4.44C45.2218 4.024 44.0538 3.816 42.5498 3.816C40.8858 3.816 39.7178 3.88 39.0458 4.008C38.3738 4.104 37.9098 4.36 37.6538 4.776C37.4298 5.192 37.3178 5.928 37.3178 6.984V29.112C37.3178 30.104 37.4298 30.824 37.6538 31.272C37.8778 31.72 38.3258 32.024 38.9978 32.184C39.6698 32.344 40.7258 32.424 42.1658 32.424C42.2298 32.424 42.2618 32.52 42.2618 32.712C42.2618 32.904 42.2298 33 42.1658 33C41.1098 33 40.2778 32.984 39.6698 32.952L35.9738 32.904L32.4698 32.952C31.8298 32.984 30.9498 33 29.8298 33C29.7658 33 29.7338 32.904 29.7338 32.712C29.7338 32.52 29.7658 32.424 29.8298 32.424C31.2698 32.424 32.3258 32.344 32.9978 32.184C33.6698 32.024 34.1178 31.72 34.3418 31.272C34.5978 30.792 34.7258 30.072 34.7258 29.112V6.888C34.7258 5.832 34.5978 5.112 34.3418 4.728C34.0858 4.312 33.6218 4.056 32.9498 3.96C32.3098 3.864 31.1258 3.816 29.3978 3.816ZM81.0229 32.424C81.1509 32.424 81.2149 32.52 81.2149 32.712C81.2149 32.904 81.1509 33 81.0229 33C80.4469 33 79.5189 32.968 78.2389 32.904C77.0229 32.84 76.1269 32.808 75.5509 32.808C74.8789 32.808 73.9989 32.84 72.9109 32.904C71.8869 32.968 71.1189 33 70.6069 33C70.4789 33 70.4149 32.904 70.4149 32.712C70.4149 32.52 70.4789 32.424 70.6069 32.424C71.9189 32.424 72.8629 32.312 73.4389 32.088C74.0149 31.832 74.3029 31.416 74.3029 30.84C74.3029 30.392 74.1269 29.768 73.7749 28.968L69.2629 19.224H57.8389L54.5749 27.096C54.1269 28.184 53.9029 29.08 53.9029 29.784C53.9029 30.712 54.2869 31.384 55.0549 31.8C55.8229 32.216 57.0229 32.424 58.6549 32.424C58.8149 32.424 58.8949 32.52 58.8949 32.712C58.8949 32.904 58.8149 33 58.6549 33C58.0789 33 57.2469 32.968 56.1589 32.904C54.9429 32.84 53.8869 32.808 52.9909 32.808C52.1909 32.808 51.2469 32.84 50.1589 32.904C49.1989 32.968 48.4149 33 47.8069 33C47.6469 33 47.5669 32.904 47.5669 32.712C47.5669 32.52 47.6469 32.424 47.8069 32.424C48.7029 32.424 49.4549 32.264 50.0629 31.944C50.7029 31.624 51.2949 31.048 51.8389 30.216C52.4149 29.384 53.0229 28.2 53.6629 26.664L63.6949 2.52C63.7589 2.424 63.8549 2.376 63.9829 2.376C64.1429 2.376 64.2389 2.424 64.2709 2.52L75.4069 26.424C76.1429 28.056 76.7989 29.304 77.3749 30.168C77.9509 31 78.5109 31.592 79.0549 31.944C79.6309 32.264 80.2869 32.424 81.0229 32.424ZM58.2229 18.36H68.8309L63.2149 6.312L58.2229 18.36ZM90.1546 28.92C90.1546 29.944 90.2986 30.696 90.5866 31.176C90.8746 31.624 91.4186 31.944 92.2186 32.136C93.0506 32.328 94.3626 32.424 96.1546 32.424C96.2506 32.424 96.2986 32.52 96.2986 32.712C96.2986 32.904 96.2506 33 96.1546 33C94.8426 33 93.8186 32.984 93.0826 32.952L88.9066 32.904L85.7386 32.952C85.1626 32.984 84.3626 33 83.3386 33C83.2746 33 83.2426 32.904 83.2426 32.712C83.2426 32.52 83.2746 32.424 83.3386 32.424C84.5866 32.424 85.4986 32.344 86.0746 32.184C86.6826 32.024 87.0826 31.72 87.2746 31.272C87.4986 30.792 87.6106 30.072 87.6106 29.112V6.888C87.6106 5.928 87.4986 5.224 87.2746 4.776C87.0826 4.328 86.6826 4.024 86.0746 3.864C85.4986 3.672 84.5866 3.576 83.3386 3.576C83.2746 3.576 83.2426 3.48 83.2426 3.288C83.2426 3.096 83.2746 3 83.3386 3L85.6906 3.048C87.0346 3.112 88.0906 3.144 88.8586 3.144C89.6266 3.144 90.5066 3.096 91.4986 3C93.9946 2.904 95.3546 2.856 95.5786 2.856C98.3946 2.856 100.683 3.512 102.443 4.824C104.203 6.104 105.083 8.072 105.083 10.728C105.083 12.872 104.555 14.68 103.499 16.152C102.443 17.592 101.099 18.664 99.4666 19.368C97.8666 20.072 96.2026 20.424 94.4746 20.424C93.5146 20.424 92.7306 20.344 92.1226 20.184C92.0266 20.184 91.9786 20.104 91.9786 19.944C91.9786 19.848 91.9946 19.752 92.0266 19.656C92.0906 19.56 92.1546 19.528 92.2186 19.56C92.7306 19.688 93.3066 19.752 93.9466 19.752C96.2186 19.752 98.1386 19.064 99.7066 17.688C101.307 16.312 102.107 14.312 102.107 11.688C102.107 9.992 101.771 8.536 101.099 7.32C100.427 6.072 99.4986 5.128 98.3146 4.488C97.1626 3.816 95.8826 3.48 94.4746 3.48C93.1626 3.48 92.2346 3.544 91.6906 3.672C91.1466 3.8 90.7466 4.104 90.4906 4.584C90.2666 5.032 90.1546 5.832 90.1546 6.984V28.92ZM142.284 32.424C142.38 32.424 142.428 32.52 142.428 32.712C142.428 32.904 142.38 33 142.284 33C141.324 33 140.556 32.984 139.98 32.952L136.716 32.904L133.452 32.952C132.908 32.984 132.156 33 131.196 33C131.1 33 131.052 32.904 131.052 32.712C131.052 32.52 131.1 32.424 131.196 32.424C132.476 32.424 133.404 32.344 133.98 32.184C134.556 32.024 134.94 31.72 135.132 31.272C135.324 30.824 135.42 30.104 135.42 29.112V6.408L114.396 33.432C114.3 33.56 114.124 33.624 113.868 33.624C113.42 33.624 113.196 33.512 113.196 33.288V6.888C113.196 5.928 113.084 5.224 112.86 4.776C112.636 4.328 112.22 4.024 111.612 3.864C111.036 3.672 110.124 3.576 108.876 3.576C108.812 3.576 108.78 3.48 108.78 3.288C108.78 3.096 108.812 3 108.876 3L111.276 3.048C112.556 3.112 113.612 3.144 114.444 3.144C115.34 3.144 116.428 3.112 117.708 3.048L120.012 3C120.076 3 120.108 3.096 120.108 3.288C120.108 3.48 120.076 3.576 120.012 3.576C118.732 3.576 117.804 3.672 117.228 3.864C116.652 4.024 116.252 4.328 116.028 4.776C115.836 5.224 115.74 5.928 115.74 6.888V29.976L136.812 2.808C136.908 2.68 137.068 2.616 137.292 2.616C137.452 2.616 137.596 2.648 137.724 2.712C137.884 2.776 137.964 2.856 137.964 2.952V29.112C137.964 30.072 138.076 30.792 138.3 31.272C138.524 31.72 138.924 32.024 139.5 32.184C140.108 32.344 141.036 32.424 142.284 32.424ZM178.502 17.16C178.502 19.272 177.878 21.224 176.63 23.016C175.382 24.776 173.622 26.216 171.35 27.336C169.11 28.456 166.55 29.128 163.67 29.352V31.464C163.67 32.2 163.798 32.776 164.054 33.192C164.31 33.608 164.822 33.912 165.59 34.104C166.358 34.296 167.51 34.392 169.046 34.392C169.142 34.392 169.19 34.488 169.19 34.68C169.19 34.872 169.142 34.968 169.046 34.968C167.926 34.968 167.03 34.952 166.358 34.92L162.326 34.872L158.39 34.92C157.718 34.952 156.806 34.968 155.654 34.968C155.558 34.968 155.51 34.872 155.51 34.68C155.51 34.488 155.558 34.392 155.654 34.392C157.158 34.392 158.294 34.296 159.062 34.104C159.862 33.912 160.39 33.608 160.646 33.192C160.934 32.776 161.078 32.2 161.078 31.464V29.4C158.07 29.336 155.462 28.76 153.254 27.672C151.046 26.584 149.35 25.16 148.166 23.4C147.014 21.608 146.438 19.624 146.438 17.448C146.438 15.048 147.11 12.968 148.454 11.208C149.798 9.448 151.574 8.088 153.782 7.128C155.99 6.136 158.422 5.544 161.078 5.352V4.104C161.078 3.208 160.934 2.552 160.646 2.136C160.39 1.688 159.878 1.384 159.11 1.224C158.374 1.064 157.222 0.983997 155.654 0.983997C155.558 0.983997 155.51 0.903997 155.51 0.743998C155.51 0.551998 155.558 0.455998 155.654 0.455998C156.806 0.455998 157.718 0.471998 158.39 0.503998L162.326 0.551997L166.406 0.503998C167.078 0.471998 167.958 0.455998 169.046 0.455998C169.142 0.455998 169.19 0.551998 169.19 0.743998C169.19 0.903997 169.142 0.983997 169.046 0.983997C167.51 0.983997 166.358 1.08 165.59 1.272C164.854 1.432 164.342 1.736 164.054 2.184C163.798 2.632 163.67 3.304 163.67 4.2V5.256C166.774 5.32 169.446 5.928 171.686 7.08C173.926 8.2 175.622 9.656 176.774 11.448C177.926 13.24 178.502 15.144 178.502 17.16ZM175.43 17.4C175.43 14.2 174.422 11.528 172.406 9.384C170.422 7.24 167.51 6.072 163.67 5.88V28.68C167.19 28.456 170.022 27.352 172.166 25.368C174.342 23.384 175.43 20.728 175.43 17.4ZM149.51 17.064C149.51 19.08 149.942 20.952 150.806 22.68C151.702 24.376 153.014 25.768 154.742 26.856C156.47 27.912 158.582 28.52 161.078 28.68V5.88C157.398 6.104 154.55 7.224 152.534 9.24C150.518 11.256 149.51 13.864 149.51 17.064ZM195.332 16.056C198.276 16.056 200.58 16.648 202.244 17.832C203.94 19.016 204.788 21.048 204.788 23.928C204.788 25.752 204.388 27.368 203.588 28.776C202.82 30.184 201.716 31.272 200.276 32.04C198.868 32.808 197.236 33.192 195.38 33.192C194.548 33.192 193.556 33.144 192.404 33.048C191.924 33.016 191.348 32.984 190.676 32.952C190.036 32.92 189.316 32.904 188.516 32.904L185.348 32.952C184.772 32.984 183.972 33 182.948 33C182.884 33 182.852 32.904 182.852 32.712C182.852 32.52 182.884 32.424 182.948 32.424C184.228 32.424 185.156 32.344 185.732 32.184C186.34 32.024 186.756 31.72 186.98 31.272C187.204 30.792 187.316 30.072 187.316 29.112V6.888C187.316 5.928 187.204 5.224 186.98 4.776C186.788 4.328 186.388 4.024 185.78 3.864C185.204 3.672 184.292 3.576 183.044 3.576C182.948 3.576 182.9 3.48 182.9 3.288C182.9 3.096 182.948 3 183.044 3L185.3 3.048C186.644 3.112 187.7 3.144 188.468 3.144C189.396 3.144 190.532 3.112 191.876 3.048L194.084 3C194.18 3 194.228 3.096 194.228 3.288C194.228 3.48 194.18 3.576 194.084 3.576C192.836 3.576 191.908 3.672 191.3 3.864C190.724 4.056 190.324 4.392 190.1 4.872C189.908 5.32 189.812 6.024 189.812 6.984V16.632C191.828 16.248 193.668 16.056 195.332 16.056ZM218.9 32.424C218.964 32.424 218.996 32.52 218.996 32.712C218.996 32.904 218.964 33 218.9 33C217.94 33 217.188 32.984 216.644 32.952L213.284 32.904L210.068 32.952C209.492 32.984 208.708 33 207.716 33C207.62 33 207.572 32.904 207.572 32.712C207.572 32.52 207.62 32.424 207.716 32.424C208.964 32.424 209.876 32.344 210.452 32.184C211.06 32.024 211.476 31.72 211.7 31.272C211.924 30.792 212.036 30.072 212.036 29.112V6.888C212.036 5.928 211.924 5.224 211.7 4.776C211.476 4.328 211.06 4.024 210.452 3.864C209.876 3.672 208.964 3.576 207.716 3.576C207.62 3.576 207.572 3.48 207.572 3.288C207.572 3.096 207.62 3 207.716 3L210.068 3.048C211.412 3.112 212.484 3.144 213.284 3.144C214.18 3.144 215.3 3.112 216.644 3.048L218.9 3C218.964 3 218.996 3.096 218.996 3.288C218.996 3.48 218.964 3.576 218.9 3.576C217.652 3.576 216.724 3.672 216.116 3.864C215.54 4.056 215.14 4.392 214.916 4.872C214.724 5.32 214.628 6.024 214.628 6.984V29.112C214.628 30.104 214.724 30.824 214.916 31.272C215.14 31.72 215.54 32.024 216.116 32.184C216.692 32.344 217.62 32.424 218.9 32.424ZM194.42 32.424C197.076 32.424 198.996 31.832 200.18 30.648C201.396 29.464 202.004 27.64 202.004 25.176C202.004 22.2 201.316 20.088 199.94 18.84C198.596 17.56 196.708 16.92 194.276 16.92C192.932 16.92 191.444 17.112 189.812 17.496V29.112C189.812 30.264 190.116 31.112 190.724 31.656C191.332 32.168 192.564 32.424 194.42 32.424ZM33.9342 66.368C33.9022 66.912 33.8542 67.424 33.7902 67.904C33.7582 68.384 33.6782 68.848 33.5502 69.296C32.5262 72.976 29.8542 76.864 25.5342 80.96C23.2622 83.072 20.7822 84.768 18.0942 86.048C15.0542 87.552 12.1582 88.272 9.40619 88.208C7.10219 88.144 5.16619 87.6 3.59819 86.576C1.77419 85.328 0.862188 83.6 0.862188 81.392C0.862188 78.32 2.60619 74.704 6.09419 70.544C6.63819 69.904 7.34219 69.168 8.20619 68.336C9.07019 67.504 10.0942 66.592 11.2782 65.6C13.6142 63.584 15.1502 62.48 15.8862 62.288C16.0462 62.224 16.1582 62.224 16.2222 62.288C16.2542 62.32 16.2382 62.416 16.1742 62.576C14.9262 63.248 13.3102 64.528 11.3262 66.416C9.34219 68.304 7.85419 69.936 6.86219 71.312C4.59019 74.416 3.42219 77.472 3.35819 80.48C3.35819 82.528 4.03019 84.16 5.37419 85.376C6.71819 86.56 8.41419 87.184 10.4622 87.248C12.7982 87.28 15.4062 86.608 18.2862 85.232C20.9102 83.952 23.1502 82.4 25.0062 80.576C26.7662 78.848 28.2542 76.896 29.4702 74.72C30.3662 73.152 30.9582 71.712 31.2462 70.4C31.6302 68.832 31.8222 67.552 31.8222 66.56C31.7902 64.704 31.2622 63.168 30.2382 61.952C29.2462 60.704 27.8382 60.064 26.0142 60.032C23.9022 60 22.2222 60.544 20.9742 61.664C19.7902 62.752 19.1982 63.952 19.1982 65.264C19.1982 66.128 19.4222 66.816 19.8702 67.328C18.2382 67.296 17.4222 66.624 17.4222 65.312C17.4222 64.8 17.7102 64.176 18.2862 63.44C20.5262 60.72 23.4382 59.36 27.0222 59.36C29.0062 59.36 30.6382 59.92 31.9182 61.04C33.2942 62.288 33.9662 64.064 33.9342 66.368ZM44.4968 69.056C48.0168 69.056 50.7368 69.648 52.6568 70.832C54.6088 72.016 55.5848 74.048 55.5848 76.928C55.5848 78.752 55.1848 80.368 54.3848 81.776C53.6168 83.184 52.5128 84.272 51.0728 85.04C49.6648 85.808 48.0328 86.192 46.1768 86.192C45.3448 86.192 44.3528 86.144 43.2008 86.048C42.7208 86.016 42.1448 85.984 41.4728 85.952C40.8328 85.92 40.1128 85.904 39.3128 85.904L36.1448 85.952C35.5688 85.984 34.7688 86 33.7448 86C33.6808 86 33.6488 85.904 33.6488 85.712C33.6488 85.52 33.6808 85.424 33.7448 85.424C35.0248 85.424 35.9528 85.344 36.5288 85.184C37.1368 85.024 37.5528 84.72 37.7768 84.272C38.0008 83.792 38.1128 83.072 38.1128 82.112V59.888C38.1128 58.928 38.0008 58.224 37.7768 57.776C37.5848 57.328 37.1848 57.024 36.5768 56.864C36.0008 56.672 35.0888 56.576 33.8408 56.576C33.7448 56.576 33.6968 56.48 33.6968 56.288C33.6968 56.096 33.7448 56 33.8408 56H52.4168C52.5768 56 52.6728 56.032 52.7048 56.096C52.7688 56.16 52.8168 56.272 52.8488 56.432L53.5208 62.24C53.5208 62.336 53.4248 62.4 53.2328 62.432C53.0728 62.432 52.9768 62.384 52.9448 62.288C52.6888 60.656 52.0968 59.36 51.1688 58.4C50.2408 57.408 49.0888 56.912 47.7128 56.912H44.7848C43.5688 56.912 42.6728 56.992 42.0968 57.152C41.5208 57.312 41.1208 57.616 40.8968 58.064C40.7048 58.512 40.6088 59.216 40.6088 60.176V69.248C41.7928 69.12 43.0888 69.056 44.4968 69.056ZM45.2168 85.424C47.8728 85.424 49.7928 84.832 50.9768 83.648C52.1928 82.464 52.8008 80.64 52.8008 78.176C52.8008 75.2 52.0008 73.088 50.4008 71.84C48.8328 70.56 46.5448 69.92 43.5368 69.92C42.9288 69.92 41.9528 69.984 40.6088 70.112V82.112C40.6088 83.264 40.9128 84.112 41.5208 84.656C42.1288 85.168 43.3608 85.424 45.2168 85.424ZM87.3526 56C87.4166 56 87.4486 56.096 87.4486 56.288C87.4486 56.48 87.4166 56.576 87.3526 56.576C85.7526 56.576 84.3926 57.68 83.2726 59.888L74.1526 79.184C73.2886 81.072 72.7606 82.224 72.5686 82.64C72.0566 83.824 71.6886 84.624 71.4646 85.04C71.2406 85.424 71.0006 85.68 70.7446 85.808C70.5206 85.936 70.1686 86 69.6886 86H62.8726C62.7766 86 62.7286 85.904 62.7286 85.712C62.7286 85.52 62.7766 85.424 62.8726 85.424C65.2726 85.424 67.2566 84.976 68.8246 84.08C70.4246 83.152 71.7846 81.552 72.9046 79.28L62.6326 59.984C61.9606 58.704 61.3206 57.824 60.7126 57.344C60.1366 56.832 59.3686 56.576 58.4086 56.576C58.3446 56.576 58.3126 56.48 58.3126 56.288C58.3126 56.096 58.3446 56 58.4086 56L60.4726 56.048C61.4326 56.112 62.1206 56.144 62.5366 56.144C63.4646 56.144 64.5686 56.112 65.8486 56.048L67.9126 56C68.0086 56 68.0566 56.096 68.0566 56.288C68.0566 56.48 68.0086 56.576 67.9126 56.576C65.9286 56.576 64.9366 57.088 64.9366 58.112C64.9366 58.496 65.0806 58.96 65.3686 59.504L74.3926 76.16L82.2646 59.6C82.5526 59.024 82.6966 58.544 82.6966 58.16C82.6966 57.616 82.3766 57.216 81.7366 56.96C81.1286 56.704 80.1526 56.576 78.8086 56.576C78.7126 56.576 78.6646 56.48 78.6646 56.288C78.6646 56.096 78.7126 56 78.8086 56L80.7286 56.048C81.8166 56.112 82.7926 56.144 83.6566 56.144C84.1686 56.144 84.8086 56.112 85.5766 56.048L87.3526 56ZM115.356 85.424C115.452 85.424 115.5 85.52 115.5 85.712C115.5 85.904 115.452 86 115.356 86C114.396 86 113.628 85.984 113.052 85.952L109.788 85.904L106.524 85.952C105.98 85.984 105.228 86 104.268 86C104.172 86 104.124 85.904 104.124 85.712C104.124 85.52 104.172 85.424 104.268 85.424C105.548 85.424 106.476 85.344 107.052 85.184C107.628 85.024 108.012 84.72 108.204 84.272C108.396 83.824 108.492 83.104 108.492 82.112V71.072C105.74 73.152 102.876 74.192 99.8997 74.192C97.3077 74.192 95.2277 73.504 93.6597 72.128C92.1237 70.72 91.3557 68.816 91.3557 66.416V59.888C91.3557 58.928 91.2437 58.224 91.0197 57.776C90.8277 57.328 90.4277 57.024 89.8197 56.864C89.2437 56.672 88.3317 56.576 87.0837 56.576C86.9877 56.576 86.9397 56.48 86.9397 56.288C86.9397 56.096 86.9877 56 87.0837 56L89.3877 56.048C90.6677 56.112 91.7237 56.144 92.5557 56.144C93.3557 56.144 94.3637 56.112 95.5797 56.048L97.5477 56C97.6437 56 97.6917 56.096 97.6917 56.288C97.6917 56.48 97.6437 56.576 97.5477 56.576C96.4917 56.576 95.7077 56.672 95.1957 56.864C94.6837 57.056 94.3317 57.392 94.1397 57.872C93.9477 58.32 93.8517 59.024 93.8517 59.984V64.736C93.8517 67.456 94.4757 69.52 95.7237 70.928C96.9717 72.336 98.7477 73.04 101.052 73.04C103.58 73.04 106.06 72.16 108.492 70.4V59.984C108.492 59.024 108.396 58.32 108.204 57.872C108.044 57.392 107.708 57.056 107.196 56.864C106.684 56.672 105.884 56.576 104.796 56.576C104.732 56.576 104.7 56.48 104.7 56.288C104.7 56.096 104.732 56 104.796 56L106.812 56.048C108.028 56.112 109.02 56.144 109.788 56.144C110.62 56.144 111.708 56.112 113.052 56.048L115.356 56C115.452 56 115.5 56.096 115.5 56.288C115.5 56.48 115.452 56.576 115.356 56.576C114.108 56.576 113.18 56.672 112.572 56.864C111.996 57.024 111.596 57.328 111.372 57.776C111.148 58.224 111.036 58.928 111.036 59.888V82.112C111.036 83.072 111.148 83.792 111.372 84.272C111.596 84.72 111.996 85.024 112.572 85.184C113.18 85.344 114.108 85.424 115.356 85.424ZM139.74 78.992C139.74 78.896 139.836 78.864 140.028 78.896C140.22 78.896 140.316 78.944 140.316 79.04C140.028 81.056 139.884 83.136 139.884 85.28C139.884 85.536 139.82 85.728 139.692 85.856C139.596 85.952 139.404 86 139.116 86H119.292C119.228 86 119.196 85.904 119.196 85.712C119.196 85.52 119.228 85.424 119.292 85.424C120.54 85.424 121.452 85.344 122.028 85.184C122.636 85.024 123.036 84.72 123.228 84.272C123.452 83.792 123.564 83.072 123.564 82.112V59.888C123.564 58.928 123.452 58.224 123.228 57.776C123.036 57.328 122.636 57.024 122.028 56.864C121.452 56.672 120.54 56.576 119.292 56.576C119.228 56.576 119.196 56.48 119.196 56.288C119.196 56.096 119.228 56 119.292 56H138.3C138.588 56 138.732 56.144 138.732 56.432L138.828 62.24C138.828 62.336 138.732 62.384 138.54 62.384C138.38 62.384 138.3 62.336 138.3 62.24C138.3 60.608 137.868 59.312 137.004 58.352C136.14 57.392 135.004 56.912 133.596 56.912H130.284C129.068 56.912 128.172 56.992 127.596 57.152C127.02 57.312 126.62 57.616 126.396 58.064C126.204 58.512 126.108 59.216 126.108 60.176V69.92H132.444C133.916 69.92 134.94 69.68 135.516 69.2C136.092 68.688 136.38 67.824 136.38 66.608C136.38 66.544 136.476 66.512 136.668 66.512C136.86 66.512 136.956 66.544 136.956 66.608L136.908 70.4C136.908 71.328 136.924 72.016 136.956 72.464L137.004 74.72C137.004 74.784 136.908 74.816 136.716 74.816C136.524 74.816 136.428 74.784 136.428 74.72C136.428 73.28 136.124 72.272 135.516 71.696C134.908 71.12 133.836 70.832 132.3 70.832H126.108V81.92C126.108 82.848 126.204 83.536 126.396 83.984C126.62 84.4 127.004 84.688 127.548 84.848C128.124 85.008 129.036 85.088 130.284 85.088H134.7C135.98 85.088 137.068 84.528 137.964 83.408C138.892 82.288 139.484 80.816 139.74 78.992ZM177.333 85.424C177.429 85.424 177.477 85.52 177.477 85.712C177.477 85.904 177.429 86 177.333 86C176.341 86 175.573 85.984 175.029 85.952L171.813 85.904L168.501 85.952C167.957 85.984 167.205 86 166.245 86C166.149 86 166.101 85.904 166.101 85.712C166.101 85.52 166.149 85.424 166.245 85.424C167.525 85.424 168.453 85.344 169.029 85.184C169.605 85.024 169.989 84.72 170.181 84.272C170.405 83.824 170.517 83.104 170.517 82.112V70.832H151.365V82.112C151.365 83.104 151.461 83.824 151.653 84.272C151.877 84.72 152.277 85.024 152.853 85.184C153.429 85.344 154.357 85.424 155.637 85.424C155.701 85.424 155.733 85.52 155.733 85.712C155.733 85.904 155.701 86 155.637 86C154.677 86 153.909 85.984 153.333 85.952L150.069 85.904L146.901 85.952C146.325 85.984 145.525 86 144.501 86C144.437 86 144.405 85.904 144.405 85.712C144.405 85.52 144.437 85.424 144.501 85.424C145.749 85.424 146.661 85.344 147.237 85.184C147.845 85.024 148.261 84.72 148.485 84.272C148.709 83.792 148.821 83.072 148.821 82.112V59.888C148.821 58.928 148.709 58.224 148.485 57.776C148.293 57.328 147.893 57.024 147.285 56.864C146.709 56.672 145.797 56.576 144.549 56.576C144.485 56.576 144.453 56.48 144.453 56.288C144.453 56.096 144.485 56 144.549 56L146.901 56.048C148.245 56.112 149.301 56.144 150.069 56.144C150.933 56.144 152.037 56.112 153.381 56.048L155.637 56C155.701 56 155.733 56.096 155.733 56.288C155.733 56.48 155.701 56.576 155.637 56.576C154.389 56.576 153.461 56.672 152.853 56.864C152.277 57.056 151.877 57.392 151.653 57.872C151.461 58.32 151.365 59.024 151.365 59.984V69.92H170.517V59.984C170.517 59.024 170.405 58.32 170.181 57.872C169.989 57.392 169.589 57.056 168.981 56.864C168.405 56.672 167.493 56.576 166.245 56.576C166.149 56.576 166.101 56.48 166.101 56.288C166.101 56.096 166.149 56 166.245 56L168.501 56.048C169.845 56.112 170.949 56.144 171.813 56.144C172.613 56.144 173.685 56.112 175.029 56.048L177.333 56C177.429 56 177.477 56.096 177.477 56.288C177.477 56.48 177.429 56.576 177.333 56.576C176.085 56.576 175.157 56.672 174.549 56.864C173.973 57.024 173.573 57.328 173.349 57.776C173.125 58.224 173.013 58.928 173.013 59.888V82.112C173.013 83.072 173.125 83.792 173.349 84.272C173.573 84.72 173.973 85.024 174.549 85.184C175.157 85.344 176.085 85.424 177.333 85.424ZM214.284 85.424C214.38 85.424 214.428 85.52 214.428 85.712C214.428 85.904 214.38 86 214.284 86C213.324 86 212.556 85.984 211.98 85.952L208.716 85.904L205.452 85.952C204.908 85.984 204.156 86 203.196 86C203.1 86 203.052 85.904 203.052 85.712C203.052 85.52 203.1 85.424 203.196 85.424C204.476 85.424 205.404 85.344 205.98 85.184C206.556 85.024 206.94 84.72 207.132 84.272C207.324 83.824 207.42 83.104 207.42 82.112V59.408L186.396 86.432C186.3 86.56 186.124 86.624 185.868 86.624C185.42 86.624 185.196 86.512 185.196 86.288V59.888C185.196 58.928 185.084 58.224 184.86 57.776C184.636 57.328 184.22 57.024 183.612 56.864C183.036 56.672 182.124 56.576 180.876 56.576C180.812 56.576 180.78 56.48 180.78 56.288C180.78 56.096 180.812 56 180.876 56L183.276 56.048C184.556 56.112 185.612 56.144 186.444 56.144C187.34 56.144 188.428 56.112 189.708 56.048L192.012 56C192.076 56 192.108 56.096 192.108 56.288C192.108 56.48 192.076 56.576 192.012 56.576C190.732 56.576 189.804 56.672 189.228 56.864C188.652 57.024 188.252 57.328 188.028 57.776C187.836 58.224 187.74 58.928 187.74 59.888V82.976L208.812 55.808C208.908 55.68 209.068 55.616 209.292 55.616C209.452 55.616 209.596 55.648 209.724 55.712C209.884 55.776 209.964 55.856 209.964 55.952V82.112C209.964 83.072 210.076 83.792 210.3 84.272C210.524 84.72 210.924 85.024 211.5 85.184C212.108 85.344 213.036 85.424 214.284 85.424ZM242.486 85.424C242.55 85.424 242.582 85.52 242.582 85.712C242.582 85.904 242.55 86 242.486 86C241.462 86 240.662 85.984 240.086 85.952L236.918 85.904L233.654 85.952C233.078 85.984 232.31 86 231.35 86C231.286 86 231.254 85.904 231.254 85.712C231.254 85.52 231.286 85.424 231.35 85.424C232.63 85.424 233.558 85.344 234.134 85.184C234.71 85.024 235.094 84.72 235.286 84.272C235.51 83.824 235.622 83.104 235.622 82.112V70.448C234.47 70.48 233.494 70.688 232.694 71.072C231.926 71.456 231.11 72.176 230.246 73.232C229.382 74.256 228.326 75.824 227.078 77.936C225.51 80.624 224.294 82.544 223.43 83.696C222.598 84.848 221.99 85.52 221.606 85.712C221.254 85.904 220.806 86 220.262 86H215.654C215.558 86 215.51 85.904 215.51 85.712C215.51 85.52 215.558 85.424 215.654 85.424C217.414 85.392 218.966 84.72 220.31 83.408C221.654 82.096 223.142 79.952 224.774 76.976C225.958 74.864 227.03 73.328 227.99 72.368C228.95 71.408 230.054 70.768 231.302 70.448C228.582 70.224 226.502 69.472 225.062 68.192C223.654 66.912 222.95 65.264 222.95 63.248C222.95 61.808 223.318 60.528 224.054 59.408C224.79 58.288 225.782 57.424 227.03 56.816C228.31 56.176 229.75 55.856 231.35 55.856C232.086 55.856 232.934 55.904 233.894 56C234.278 56.032 234.726 56.064 235.238 56.096C235.75 56.128 236.31 56.144 236.918 56.144C237.686 56.144 238.742 56.112 240.086 56.048L242.438 56C242.502 56 242.534 56.096 242.534 56.288C242.534 56.48 242.502 56.576 242.438 56.576C241.19 56.576 240.262 56.672 239.654 56.864C239.078 57.024 238.678 57.328 238.454 57.776C238.262 58.224 238.166 58.928 238.166 59.888V82.112C238.166 83.072 238.278 83.792 238.502 84.272C238.726 84.72 239.126 85.024 239.702 85.184C240.31 85.344 241.238 85.424 242.486 85.424ZM225.638 62.048C225.638 64.384 226.31 66.272 227.654 67.712C229.03 69.12 230.998 69.824 233.558 69.824C234.262 69.824 234.95 69.776 235.622 69.68V59.984C235.622 58.704 235.206 57.808 234.374 57.296C233.574 56.752 232.55 56.48 231.302 56.48C227.526 56.48 225.638 58.336 225.638 62.048Z" fill="#353535"/>
</svg>
